%TF.GenerationSoftware,KiCad,Pcbnew,7.0.1*%
%TF.CreationDate,2023-06-22T15:14:29+02:00*%
%TF.ProjectId,CaptorBoard,43617074-6f72-4426-9f61-72642e6b6963,rev?*%
%TF.SameCoordinates,Original*%
%TF.FileFunction,Drillmap*%
%TF.FilePolarity,Positive*%
%FSLAX45Y45*%
G04 Gerber Fmt 4.5, Leading zero omitted, Abs format (unit mm)*
G04 Created by KiCad (PCBNEW 7.0.1) date 2023-06-22 15:14:29*
%MOMM*%
%LPD*%
G01*
G04 APERTURE LIST*
%ADD10C,0.100000*%
%ADD11C,0.200000*%
G04 APERTURE END LIST*
D10*
X9500000Y-5000000D02*
X18500000Y-5000000D01*
X16508030Y-7706360D02*
X18223930Y-7706360D01*
X18223930Y-7766360D01*
X16508030Y-7766360D01*
X16508030Y-7706360D01*
X9500000Y-10000000D02*
X9500000Y-5000000D01*
X18500000Y-10000000D02*
X9500000Y-10000000D01*
X16508030Y-8221980D02*
X18223930Y-8221980D01*
X18223930Y-8281980D01*
X16508030Y-8281980D01*
X16508030Y-8221980D01*
X18500000Y-5000000D02*
X18500000Y-10000000D01*
X16504220Y-7221220D02*
X18220120Y-7221220D01*
X18220120Y-7281220D01*
X16504220Y-7281220D01*
X16504220Y-7221220D01*
X16502950Y-8863020D02*
X18218850Y-8863020D01*
X18218850Y-8923020D01*
X16502950Y-8923020D01*
X16502950Y-8863020D01*
X16505490Y-9373560D02*
X18221390Y-9373560D01*
X18221390Y-9433560D01*
X16505490Y-9433560D01*
X16505490Y-9373560D01*
X16505490Y-6494780D02*
X18221390Y-6494780D01*
X18221390Y-6554780D01*
X16505490Y-6554780D01*
X16505490Y-6494780D01*
D11*
X9742619Y-10317524D02*
X9742619Y-10117524D01*
X9742619Y-10117524D02*
X9790238Y-10117524D01*
X9790238Y-10117524D02*
X9818810Y-10127048D01*
X9818810Y-10127048D02*
X9837857Y-10146095D01*
X9837857Y-10146095D02*
X9847381Y-10165143D01*
X9847381Y-10165143D02*
X9856905Y-10203238D01*
X9856905Y-10203238D02*
X9856905Y-10231810D01*
X9856905Y-10231810D02*
X9847381Y-10269905D01*
X9847381Y-10269905D02*
X9837857Y-10288952D01*
X9837857Y-10288952D02*
X9818810Y-10308000D01*
X9818810Y-10308000D02*
X9790238Y-10317524D01*
X9790238Y-10317524D02*
X9742619Y-10317524D01*
X9942619Y-10317524D02*
X9942619Y-10184190D01*
X9942619Y-10222286D02*
X9952143Y-10203238D01*
X9952143Y-10203238D02*
X9961667Y-10193714D01*
X9961667Y-10193714D02*
X9980714Y-10184190D01*
X9980714Y-10184190D02*
X9999762Y-10184190D01*
X10066429Y-10317524D02*
X10066429Y-10184190D01*
X10066429Y-10117524D02*
X10056905Y-10127048D01*
X10056905Y-10127048D02*
X10066429Y-10136571D01*
X10066429Y-10136571D02*
X10075952Y-10127048D01*
X10075952Y-10127048D02*
X10066429Y-10117524D01*
X10066429Y-10117524D02*
X10066429Y-10136571D01*
X10190238Y-10317524D02*
X10171190Y-10308000D01*
X10171190Y-10308000D02*
X10161667Y-10288952D01*
X10161667Y-10288952D02*
X10161667Y-10117524D01*
X10295000Y-10317524D02*
X10275952Y-10308000D01*
X10275952Y-10308000D02*
X10266429Y-10288952D01*
X10266429Y-10288952D02*
X10266429Y-10117524D01*
X10523571Y-10317524D02*
X10523571Y-10117524D01*
X10523571Y-10117524D02*
X10590238Y-10260381D01*
X10590238Y-10260381D02*
X10656905Y-10117524D01*
X10656905Y-10117524D02*
X10656905Y-10317524D01*
X10837857Y-10317524D02*
X10837857Y-10212762D01*
X10837857Y-10212762D02*
X10828333Y-10193714D01*
X10828333Y-10193714D02*
X10809286Y-10184190D01*
X10809286Y-10184190D02*
X10771190Y-10184190D01*
X10771190Y-10184190D02*
X10752143Y-10193714D01*
X10837857Y-10308000D02*
X10818810Y-10317524D01*
X10818810Y-10317524D02*
X10771190Y-10317524D01*
X10771190Y-10317524D02*
X10752143Y-10308000D01*
X10752143Y-10308000D02*
X10742619Y-10288952D01*
X10742619Y-10288952D02*
X10742619Y-10269905D01*
X10742619Y-10269905D02*
X10752143Y-10250857D01*
X10752143Y-10250857D02*
X10771190Y-10241333D01*
X10771190Y-10241333D02*
X10818810Y-10241333D01*
X10818810Y-10241333D02*
X10837857Y-10231810D01*
X10933095Y-10184190D02*
X10933095Y-10384190D01*
X10933095Y-10193714D02*
X10952143Y-10184190D01*
X10952143Y-10184190D02*
X10990238Y-10184190D01*
X10990238Y-10184190D02*
X11009286Y-10193714D01*
X11009286Y-10193714D02*
X11018810Y-10203238D01*
X11018810Y-10203238D02*
X11028333Y-10222286D01*
X11028333Y-10222286D02*
X11028333Y-10279429D01*
X11028333Y-10279429D02*
X11018810Y-10298476D01*
X11018810Y-10298476D02*
X11009286Y-10308000D01*
X11009286Y-10308000D02*
X10990238Y-10317524D01*
X10990238Y-10317524D02*
X10952143Y-10317524D01*
X10952143Y-10317524D02*
X10933095Y-10308000D01*
X11114048Y-10298476D02*
X11123571Y-10308000D01*
X11123571Y-10308000D02*
X11114048Y-10317524D01*
X11114048Y-10317524D02*
X11104524Y-10308000D01*
X11104524Y-10308000D02*
X11114048Y-10298476D01*
X11114048Y-10298476D02*
X11114048Y-10317524D01*
X11114048Y-10193714D02*
X11123571Y-10203238D01*
X11123571Y-10203238D02*
X11114048Y-10212762D01*
X11114048Y-10212762D02*
X11104524Y-10203238D01*
X11104524Y-10203238D02*
X11114048Y-10193714D01*
X11114048Y-10193714D02*
X11114048Y-10212762D01*
M02*
