G04 #@! TF.GenerationSoftware,KiCad,Pcbnew,7.0.5-0*
G04 #@! TF.CreationDate,2023-07-10T19:12:56+02:00*
G04 #@! TF.ProjectId,CaptorBoard,43617074-6f72-4426-9f61-72642e6b6963,rev?*
G04 #@! TF.SameCoordinates,Original*
G04 #@! TF.FileFunction,Soldermask,Top*
G04 #@! TF.FilePolarity,Negative*
%FSLAX46Y46*%
G04 Gerber Fmt 4.6, Leading zero omitted, Abs format (unit mm)*
G04 Created by KiCad (PCBNEW 7.0.5-0) date 2023-07-10 19:12:56*
%MOMM*%
%LPD*%
G01*
G04 APERTURE LIST*
G04 Aperture macros list*
%AMRoundRect*
0 Rectangle with rounded corners*
0 $1 Rounding radius*
0 $2 $3 $4 $5 $6 $7 $8 $9 X,Y pos of 4 corners*
0 Add a 4 corners polygon primitive as box body*
4,1,4,$2,$3,$4,$5,$6,$7,$8,$9,$2,$3,0*
0 Add four circle primitives for the rounded corners*
1,1,$1+$1,$2,$3*
1,1,$1+$1,$4,$5*
1,1,$1+$1,$6,$7*
1,1,$1+$1,$8,$9*
0 Add four rect primitives between the rounded corners*
20,1,$1+$1,$2,$3,$4,$5,0*
20,1,$1+$1,$4,$5,$6,$7,0*
20,1,$1+$1,$6,$7,$8,$9,0*
20,1,$1+$1,$8,$9,$2,$3,0*%
G04 Aperture macros list end*
%ADD10R,0.900000X1.500000*%
%ADD11R,1.500000X0.900000*%
%ADD12R,1.050000X1.050000*%
%ADD13R,2.200000X2.200000*%
%ADD14O,2.200000X2.200000*%
%ADD15RoundRect,0.250000X-1.075000X0.400000X-1.075000X-0.400000X1.075000X-0.400000X1.075000X0.400000X0*%
%ADD16RoundRect,0.250001X1.074999X-0.462499X1.074999X0.462499X-1.074999X0.462499X-1.074999X-0.462499X0*%
%ADD17R,2.600000X2.600000*%
%ADD18C,2.600000*%
%ADD19C,2.200000*%
%ADD20C,1.700000*%
%ADD21R,1.600000X1.600000*%
%ADD22O,1.600000X1.600000*%
%ADD23RoundRect,0.250000X0.400000X1.075000X-0.400000X1.075000X-0.400000X-1.075000X0.400000X-1.075000X0*%
%ADD24RoundRect,0.250000X-0.750000X-1.625000X0.750000X-1.625000X0.750000X1.625000X-0.750000X1.625000X0*%
%ADD25RoundRect,0.250000X-1.100000X0.412500X-1.100000X-0.412500X1.100000X-0.412500X1.100000X0.412500X0*%
%ADD26R,1.700000X1.700000*%
%ADD27O,1.700000X1.700000*%
%ADD28RoundRect,0.250000X1.075000X-0.400000X1.075000X0.400000X-1.075000X0.400000X-1.075000X-0.400000X0*%
%ADD29C,1.800000*%
%ADD30R,1.400000X1.500000*%
%ADD31RoundRect,0.250000X1.100000X-0.412500X1.100000X0.412500X-1.100000X0.412500X-1.100000X-0.412500X0*%
%ADD32RoundRect,0.150000X-0.587500X-0.150000X0.587500X-0.150000X0.587500X0.150000X-0.587500X0.150000X0*%
%ADD33RoundRect,0.250000X0.650000X-0.412500X0.650000X0.412500X-0.650000X0.412500X-0.650000X-0.412500X0*%
%ADD34R,2.500000X2.500000*%
%ADD35O,2.500000X2.500000*%
%ADD36RoundRect,0.249999X0.450001X1.425001X-0.450001X1.425001X-0.450001X-1.425001X0.450001X-1.425001X0*%
%ADD37RoundRect,0.225000X-0.375000X0.225000X-0.375000X-0.225000X0.375000X-0.225000X0.375000X0.225000X0*%
%ADD38RoundRect,0.250001X-0.462499X-1.074999X0.462499X-1.074999X0.462499X1.074999X-0.462499X1.074999X0*%
%ADD39RoundRect,0.250000X0.412500X1.100000X-0.412500X1.100000X-0.412500X-1.100000X0.412500X-1.100000X0*%
%ADD40RoundRect,0.250000X0.300000X-0.300000X0.300000X0.300000X-0.300000X0.300000X-0.300000X-0.300000X0*%
%ADD41RoundRect,0.250000X-0.400000X-1.075000X0.400000X-1.075000X0.400000X1.075000X-0.400000X1.075000X0*%
%ADD42R,1.500000X2.000000*%
%ADD43R,3.800000X2.000000*%
%ADD44C,1.650000*%
%ADD45RoundRect,0.225000X-0.225000X-0.375000X0.225000X-0.375000X0.225000X0.375000X-0.225000X0.375000X0*%
%ADD46RoundRect,0.250000X-0.300000X-0.300000X0.300000X-0.300000X0.300000X0.300000X-0.300000X0.300000X0*%
G04 #@! TA.AperFunction,Profile*
%ADD47C,0.100000*%
G04 #@! TD*
G04 APERTURE END LIST*
D10*
X96293000Y-82746000D03*
X97563000Y-82746000D03*
X98833000Y-82746000D03*
X100103000Y-82746000D03*
X101373000Y-82746000D03*
X102643000Y-82746000D03*
X103913000Y-82746000D03*
X105183000Y-82746000D03*
X106453000Y-82746000D03*
X107723000Y-82746000D03*
X108993000Y-82746000D03*
X110263000Y-82746000D03*
X111533000Y-82746000D03*
X112803000Y-82746000D03*
D11*
X114053000Y-79716000D03*
X114053000Y-78446000D03*
X114053000Y-77176000D03*
X114053000Y-75906000D03*
X114053000Y-74636000D03*
X114053000Y-73366000D03*
X114053000Y-72096000D03*
X114053000Y-70826000D03*
X114053000Y-69556000D03*
X114053000Y-68286000D03*
D10*
X112803000Y-65246000D03*
X111533000Y-65246000D03*
X110263000Y-65246000D03*
X108993000Y-65246000D03*
X107723000Y-65246000D03*
X106453000Y-65246000D03*
X105183000Y-65246000D03*
X103913000Y-65246000D03*
X102643000Y-65246000D03*
X101373000Y-65246000D03*
X100103000Y-65246000D03*
X98833000Y-65246000D03*
X97563000Y-65246000D03*
X96293000Y-65246000D03*
D12*
X102108000Y-76201000D03*
X103633000Y-76201000D03*
X105158000Y-76201000D03*
X102108000Y-74676000D03*
X103633000Y-74676000D03*
X105158000Y-74676000D03*
X102108000Y-73151000D03*
X103633000Y-73151000D03*
X105158000Y-73151000D03*
D13*
X172250000Y-55940000D03*
D14*
X172250000Y-63560000D03*
D13*
X160500000Y-63620000D03*
D14*
X160500000Y-56000000D03*
D15*
X119735600Y-58115200D03*
X119735600Y-61215200D03*
X114500000Y-58114000D03*
X114500000Y-61214000D03*
X104000000Y-58114000D03*
X104000000Y-61214000D03*
X111000000Y-58114000D03*
X111000000Y-61214000D03*
X107500000Y-58114000D03*
X107500000Y-61214000D03*
D16*
X119786400Y-54029000D03*
X119786400Y-51054000D03*
X114500000Y-54029000D03*
X114500000Y-51054000D03*
X104000000Y-54029000D03*
X104000000Y-51054000D03*
X111000000Y-54029000D03*
X111000000Y-51054000D03*
X107500000Y-54029000D03*
X107500000Y-51054000D03*
D17*
X179805000Y-63585000D03*
D18*
X179805000Y-58505000D03*
X179805000Y-53425000D03*
D19*
X100425000Y-98000000D03*
X100425000Y-91000000D03*
D20*
X97925000Y-96750000D03*
X97925000Y-92250000D03*
D19*
X100425000Y-59000000D03*
X100425000Y-52000000D03*
D20*
X97925000Y-57750000D03*
X97925000Y-53250000D03*
D21*
X163725000Y-63800000D03*
D22*
X166265000Y-63800000D03*
X168805000Y-63800000D03*
X168805000Y-56180000D03*
X166265000Y-56180000D03*
X163725000Y-56180000D03*
D21*
X152225000Y-63800000D03*
D22*
X154765000Y-63800000D03*
X157305000Y-63800000D03*
X157305000Y-56180000D03*
X154765000Y-56180000D03*
X152225000Y-56180000D03*
D23*
X121361200Y-81457800D03*
X118261200Y-81457800D03*
X121361200Y-78028800D03*
X118261200Y-78028800D03*
D24*
X157000000Y-52250000D03*
X165500000Y-52250000D03*
D25*
X100914200Y-85318600D03*
X100914200Y-88443600D03*
D26*
X111490600Y-97993200D03*
D27*
X114030600Y-97993200D03*
X116570600Y-97993200D03*
X119110600Y-97993200D03*
D28*
X107569000Y-98120800D03*
X107569000Y-95020800D03*
D29*
X138250000Y-51850000D03*
X145750000Y-54150000D03*
D30*
X109837600Y-86537800D03*
X107737600Y-86537800D03*
D26*
X124891800Y-97536000D03*
D27*
X124891800Y-94996000D03*
X127431800Y-97536000D03*
X127431800Y-94996000D03*
X129971800Y-97536000D03*
X129971800Y-94996000D03*
X132511800Y-97536000D03*
X132511800Y-94996000D03*
X135051800Y-97536000D03*
X135051800Y-94996000D03*
X137591800Y-97536000D03*
X137591800Y-94996000D03*
X140131800Y-97536000D03*
X140131800Y-94996000D03*
X142671800Y-97536000D03*
X142671800Y-94996000D03*
D15*
X136300000Y-88900000D03*
X136300000Y-92000000D03*
D31*
X104038400Y-98107900D03*
X104038400Y-94982900D03*
D23*
X133100000Y-91600000D03*
X130000000Y-91600000D03*
D32*
X147462500Y-84250000D03*
X147462500Y-86150000D03*
X149337500Y-85200000D03*
D33*
X104292400Y-89383400D03*
X104292400Y-86258400D03*
D32*
X145962500Y-96350000D03*
X145962500Y-98250000D03*
X147837500Y-97300000D03*
D34*
X153372500Y-73500000D03*
D35*
X155372500Y-79500000D03*
X167572500Y-79500000D03*
X167572500Y-67500000D03*
X155372500Y-67500000D03*
D36*
X133900000Y-52900000D03*
X127800000Y-52900000D03*
D37*
X149100000Y-91200000D03*
X149100000Y-94500000D03*
D17*
X179805000Y-96585000D03*
D18*
X179805000Y-91505000D03*
X179805000Y-86425000D03*
D38*
X125000000Y-88300000D03*
X127975000Y-88300000D03*
D15*
X139600000Y-88900000D03*
X139600000Y-92000000D03*
D23*
X100050000Y-62500000D03*
X96950000Y-62500000D03*
D39*
X128162500Y-85000000D03*
X125037500Y-85000000D03*
D40*
X120091200Y-74399600D03*
X120091200Y-71599600D03*
X116941600Y-74348800D03*
X116941600Y-71548800D03*
D28*
X146200000Y-94400000D03*
X146200000Y-91300000D03*
D41*
X107238200Y-89433400D03*
X110338200Y-89433400D03*
D23*
X133150000Y-88300000D03*
X130050000Y-88300000D03*
D33*
X113309400Y-89383400D03*
X113309400Y-86258400D03*
D23*
X140500000Y-85100000D03*
X137400000Y-85100000D03*
D42*
X121500000Y-88050000D03*
X119200000Y-88050000D03*
D43*
X119200000Y-94350000D03*
D42*
X116900000Y-88050000D03*
D44*
X146800000Y-59500000D03*
X141720000Y-59500000D03*
X136640000Y-79820000D03*
X146800000Y-79820000D03*
D45*
X142300000Y-84700000D03*
X145600000Y-84700000D03*
D25*
X97536000Y-85305500D03*
X97536000Y-88430500D03*
D17*
X179805000Y-80085000D03*
D18*
X179805000Y-75005000D03*
X179805000Y-69925000D03*
D15*
X142900000Y-88900000D03*
X142900000Y-92000000D03*
D34*
X153372500Y-91000000D03*
D35*
X155372500Y-97000000D03*
X167572500Y-97000000D03*
X167572500Y-85000000D03*
X155372500Y-85000000D03*
D46*
X118589600Y-84582000D03*
X121389600Y-84582000D03*
D38*
X125025000Y-91600000D03*
X128000000Y-91600000D03*
D47*
X95000000Y-50000000D02*
X185000000Y-50000000D01*
X95000000Y-100000000D02*
X95000000Y-50000000D01*
X185000000Y-100000000D02*
X95000000Y-100000000D01*
X185000000Y-50000000D02*
X185000000Y-100000000D01*
M02*
