M48
; DRILL file {KiCad 7.0.1} date Wed Jun  7 16:56:49 2023
; FORMAT={-:-/ absolute / inch / decimal}
; #@! TF.CreationDate,2023-06-07T16:56:49+02:00
; #@! TF.GenerationSoftware,Kicad,Pcbnew,7.0.1
; #@! TF.FileFunction,Plated,1,2,PTH
FMAT,2
INCH
; #@! TA.AperFunction,Plated,PTH,ViaDrill
T1C0.0118
; #@! TA.AperFunction,Plated,PTH,ComponentDrill
T2C0.0315
; #@! TA.AperFunction,Plated,PTH,ComponentDrill
T3C0.0394
; #@! TA.AperFunction,Plated,PTH,ComponentDrill
T4C0.0433
; #@! TA.AperFunction,Plated,PTH,ComponentDrill
T5C0.0512
%
G90
G05
T1
X3.78Y-3.75
X3.802Y-3.199
X3.8157Y-2.6597
X3.8386Y-3.1693
X3.8495Y-2.6223
X3.878Y-2.4803
X3.878Y-3.3071
X3.8988Y-2.6548
X3.968Y-3.131
X3.97Y-2.83
X3.97Y-3.05
X4.0158Y-3.1319
X4.0354Y-2.6181
X4.07Y-2.35
X4.0748Y-3.6417
X4.1403Y-3.3453
X4.141Y-2.615
X4.162Y-2.208
X4.1782Y-3.3318
X4.19Y-2.83
X4.19Y-3.05
X4.2575Y-2.4753
X4.2644Y-3.3095
X4.302Y-2.208
X4.3257Y-2.6587
X4.339Y-3.2028
X4.3898Y-2.4798
X4.3995Y-3.1865
X4.44Y-2.208
X4.44Y-2.736
X4.44Y-3.09
X4.4481Y-2.4803
X4.475Y-3.212
X4.4882Y-2.4803
X4.507Y-3.186
X4.545Y-3.431
X4.626Y-3.7402
X5.137Y-3.792
X5.217Y-3.4313
X5.237Y-3.791
X5.281Y-3.545
X5.297Y-3.391
X5.338Y-3.792
X5.419Y-3.545
X5.427Y-3.4314
X5.438Y-3.79
X5.534Y-3.545
X5.539Y-3.793
X5.6052Y-3.4252
X5.6102Y-2.9724
X5.727Y-3.358
X5.7677Y-3.0512
X5.769Y-2.718
X5.8465Y-3.2087
X5.847Y-3.08
X5.8661Y-3.3268
T2
X5.7667Y-2.1803
X5.7667Y-2.4803
X5.8667Y-2.1803
X5.8667Y-2.4803
X5.9667Y-2.1803
X5.9667Y-2.4803
X6.1014Y-2.1803
X6.1014Y-2.4803
X6.2014Y-2.1803
X6.2014Y-2.4803
X6.3014Y-2.1803
X6.3014Y-2.4803
T3
X3.8553Y-2.0965
X3.8553Y-2.2736
X3.8553Y-3.6319
X3.8553Y-3.8091
X4.6504Y-3.865
X4.7504Y-3.865
X4.8504Y-3.865
X4.936Y-3.718
X4.9504Y-3.865
X5.036Y-3.718
X5.095Y-3.865
X5.136Y-3.718
X5.195Y-3.865
X5.236Y-3.718
X5.295Y-3.865
X5.336Y-3.718
X5.395Y-3.865
X5.436Y-3.718
X5.495Y-3.865
X5.536Y-3.718
X5.595Y-3.865
X5.636Y-3.718
X5.695Y-3.865
T4
X5.1118Y-2.9197
X5.3118Y-2.1197
X5.5118Y-2.1197
X5.5118Y-2.9197
X6.4642Y-2.0669
X6.4642Y-2.2244
X6.7642Y-2.0669
X6.7642Y-2.2244
T5
X3.9537Y-2.0472
X3.9537Y-2.3228
X3.9537Y-3.5827
X3.9537Y-3.8583
X6.0383Y-2.8937
X6.0383Y-3.5827
X6.117Y-2.6575
X6.117Y-3.1299
X6.117Y-3.3465
X6.117Y-3.8189
X6.5973Y-2.6575
X6.5973Y-3.1299
X6.5973Y-3.3465
X6.5973Y-3.8189
X7.0789Y-2.1033
X7.0789Y-2.3033
X7.0789Y-2.5033
X7.0789Y-2.753
X7.0789Y-2.953
X7.0789Y-3.153
X7.0789Y-3.4026
X7.0789Y-3.6026
X7.0789Y-3.8026
T0
M30
