G04 #@! TF.GenerationSoftware,KiCad,Pcbnew,(6.0.9)*
G04 #@! TF.CreationDate,2023-01-20T12:03:02+01:00*
G04 #@! TF.ProjectId,CaptorBoard,43617074-6f72-4426-9f61-72642e6b6963,rev?*
G04 #@! TF.SameCoordinates,Original*
G04 #@! TF.FileFunction,Legend,Bot*
G04 #@! TF.FilePolarity,Positive*
%FSLAX46Y46*%
G04 Gerber Fmt 4.6, Leading zero omitted, Abs format (unit mm)*
G04 Created by KiCad (PCBNEW (6.0.9)) date 2023-01-20 12:03:02*
%MOMM*%
%LPD*%
G01*
G04 APERTURE LIST*
%ADD10C,0.150000*%
G04 #@! TA.AperFunction,Profile*
%ADD11C,0.100000*%
G04 #@! TD*
%ADD12C,0.200000*%
%ADD13C,0.010000*%
G04 APERTURE END LIST*
D10*
X165608000Y-77152500D02*
X178054000Y-77152500D01*
X178054000Y-77152500D02*
X178054000Y-93535500D01*
X178054000Y-93535500D02*
X165608000Y-93535500D01*
X165608000Y-93535500D02*
X165608000Y-77152500D01*
X146050000Y-99695000D02*
X127889000Y-99695000D01*
X127889000Y-99695000D02*
X127889000Y-96647000D01*
X127889000Y-96647000D02*
X146050000Y-96647000D01*
X146050000Y-96647000D02*
X146050000Y-99695000D01*
X147066000Y-84582000D02*
X149733000Y-84582000D01*
X149733000Y-84582000D02*
X149733000Y-99822000D01*
X149733000Y-99822000D02*
X147066000Y-99822000D01*
X147066000Y-99822000D02*
X147066000Y-84582000D01*
X127254000Y-99695000D02*
X116332000Y-99695000D01*
X116332000Y-99695000D02*
X116332000Y-96647000D01*
X116332000Y-96647000D02*
X127254000Y-96647000D01*
X127254000Y-96647000D02*
X127254000Y-99695000D01*
X149225000Y-72136000D02*
X137922000Y-76327000D01*
X137922000Y-76327000D02*
X136652000Y-96647000D01*
X131572000Y-50546000D02*
X116205000Y-50546000D01*
X116205000Y-50546000D02*
X116205000Y-60452000D01*
X116205000Y-60452000D02*
X131572000Y-60452000D01*
X131572000Y-60452000D02*
X131572000Y-50546000D01*
X148717000Y-50546000D02*
X133350000Y-50546000D01*
X133350000Y-50546000D02*
X133350000Y-60452000D01*
X133350000Y-60452000D02*
X148717000Y-60452000D01*
X148717000Y-60452000D02*
X148717000Y-50546000D01*
X114554000Y-82931000D02*
X129667000Y-82931000D01*
X129667000Y-82931000D02*
X129667000Y-93726000D01*
X129667000Y-93726000D02*
X114554000Y-93726000D01*
X114554000Y-93726000D02*
X114554000Y-82931000D01*
X165608000Y-90424000D02*
X149733000Y-92456000D01*
X121412000Y-96647000D02*
X123063000Y-93726000D01*
X149098000Y-78740000D02*
X165227000Y-78740000D01*
X165227000Y-78740000D02*
X165227000Y-59436000D01*
X165227000Y-59436000D02*
X149098000Y-59436000D01*
X149098000Y-59436000D02*
X149098000Y-78740000D01*
D11*
X95000000Y-50000000D02*
X190000000Y-50000000D01*
X95000000Y-100000000D02*
X95000000Y-50000000D01*
X190000000Y-100000000D02*
X95000000Y-100000000D01*
X190000000Y-50000000D02*
X190000000Y-100000000D01*
D10*
X127690714Y-51137428D02*
X127690714Y-52637428D01*
X128547857Y-51137428D01*
X128547857Y-52637428D01*
X129547857Y-52637428D02*
X129833571Y-52637428D01*
X129976428Y-52566000D01*
X130119285Y-52423142D01*
X130190714Y-52137428D01*
X130190714Y-51637428D01*
X130119285Y-51351714D01*
X129976428Y-51208857D01*
X129833571Y-51137428D01*
X129547857Y-51137428D01*
X129405000Y-51208857D01*
X129262142Y-51351714D01*
X129190714Y-51637428D01*
X129190714Y-52137428D01*
X129262142Y-52423142D01*
X129405000Y-52566000D01*
X129547857Y-52637428D01*
X138287476Y-58023238D02*
X137620809Y-58975619D01*
X137144619Y-58023238D02*
X137144619Y-60023238D01*
X137906523Y-60023238D01*
X138097000Y-59928000D01*
X138192238Y-59832761D01*
X138287476Y-59642285D01*
X138287476Y-59356571D01*
X138192238Y-59166095D01*
X138097000Y-59070857D01*
X137906523Y-58975619D01*
X137144619Y-58975619D01*
X139144619Y-59070857D02*
X139811285Y-59070857D01*
X140097000Y-58023238D02*
X139144619Y-58023238D01*
X139144619Y-60023238D01*
X140097000Y-60023238D01*
X141906523Y-58023238D02*
X140954142Y-58023238D01*
X140954142Y-60023238D01*
X144001761Y-59832761D02*
X144097000Y-59928000D01*
X144287476Y-60023238D01*
X144763666Y-60023238D01*
X144954142Y-59928000D01*
X145049380Y-59832761D01*
X145144619Y-59642285D01*
X145144619Y-59451809D01*
X145049380Y-59166095D01*
X143906523Y-58023238D01*
X145144619Y-58023238D01*
X150617738Y-76402952D02*
X149646309Y-76402952D01*
X150132023Y-76402952D02*
X150132023Y-78102952D01*
X149970119Y-77860095D01*
X149808214Y-77698190D01*
X149646309Y-77617238D01*
X152641547Y-77050571D02*
X153936785Y-77050571D01*
X155798690Y-78102952D02*
X156770119Y-78102952D01*
X156284404Y-76402952D02*
X156284404Y-78102952D01*
X157174880Y-78102952D02*
X158308214Y-76402952D01*
X158308214Y-78102952D02*
X157174880Y-76402952D01*
X149646309Y-75204047D02*
X149727261Y-75285000D01*
X149889166Y-75365952D01*
X150293928Y-75365952D01*
X150455833Y-75285000D01*
X150536785Y-75204047D01*
X150617738Y-75042142D01*
X150617738Y-74880238D01*
X150536785Y-74637380D01*
X149565357Y-73665952D01*
X150617738Y-73665952D01*
X152641547Y-74313571D02*
X153936785Y-74313571D01*
X157012976Y-73665952D02*
X156446309Y-74475476D01*
X156041547Y-73665952D02*
X156041547Y-75365952D01*
X156689166Y-75365952D01*
X156851071Y-75285000D01*
X156932023Y-75204047D01*
X157012976Y-75042142D01*
X157012976Y-74799285D01*
X156932023Y-74637380D01*
X156851071Y-74556428D01*
X156689166Y-74475476D01*
X156041547Y-74475476D01*
X157579642Y-75365952D02*
X158712976Y-73665952D01*
X158712976Y-75365952D02*
X157579642Y-73665952D01*
X149565357Y-72628952D02*
X150617738Y-72628952D01*
X150051071Y-71981333D01*
X150293928Y-71981333D01*
X150455833Y-71900380D01*
X150536785Y-71819428D01*
X150617738Y-71657523D01*
X150617738Y-71252761D01*
X150536785Y-71090857D01*
X150455833Y-71009904D01*
X150293928Y-70928952D01*
X149808214Y-70928952D01*
X149646309Y-71009904D01*
X149565357Y-71090857D01*
X152641547Y-71576571D02*
X153936785Y-71576571D01*
X156932023Y-72548000D02*
X156770119Y-72628952D01*
X156527261Y-72628952D01*
X156284404Y-72548000D01*
X156122500Y-72386095D01*
X156041547Y-72224190D01*
X155960595Y-71900380D01*
X155960595Y-71657523D01*
X156041547Y-71333714D01*
X156122500Y-71171809D01*
X156284404Y-71009904D01*
X156527261Y-70928952D01*
X156689166Y-70928952D01*
X156932023Y-71009904D01*
X157012976Y-71090857D01*
X157012976Y-71657523D01*
X156689166Y-71657523D01*
X157741547Y-70928952D02*
X157741547Y-72628952D01*
X158389166Y-72628952D01*
X158551071Y-72548000D01*
X158632023Y-72467047D01*
X158712976Y-72305142D01*
X158712976Y-72062285D01*
X158632023Y-71900380D01*
X158551071Y-71819428D01*
X158389166Y-71738476D01*
X157741547Y-71738476D01*
X159441547Y-70928952D02*
X159441547Y-72628952D01*
X160574880Y-72628952D02*
X160898690Y-72628952D01*
X161060595Y-72548000D01*
X161222500Y-72386095D01*
X161303452Y-72062285D01*
X161303452Y-71495619D01*
X161222500Y-71171809D01*
X161060595Y-71009904D01*
X160898690Y-70928952D01*
X160574880Y-70928952D01*
X160412976Y-71009904D01*
X160251071Y-71171809D01*
X160170119Y-71495619D01*
X160170119Y-72062285D01*
X160251071Y-72386095D01*
X160412976Y-72548000D01*
X160574880Y-72628952D01*
X162841547Y-72628952D02*
X162032023Y-72628952D01*
X161951071Y-71819428D01*
X162032023Y-71900380D01*
X162193928Y-71981333D01*
X162598690Y-71981333D01*
X162760595Y-71900380D01*
X162841547Y-71819428D01*
X162922500Y-71657523D01*
X162922500Y-71252761D01*
X162841547Y-71090857D01*
X162760595Y-71009904D01*
X162598690Y-70928952D01*
X162193928Y-70928952D01*
X162032023Y-71009904D01*
X161951071Y-71090857D01*
X150455833Y-69325285D02*
X150455833Y-68191952D01*
X150051071Y-69972904D02*
X149646309Y-68758619D01*
X150698690Y-68758619D01*
X152641547Y-68839571D02*
X153936785Y-68839571D01*
X156932023Y-69811000D02*
X156770119Y-69891952D01*
X156527261Y-69891952D01*
X156284404Y-69811000D01*
X156122500Y-69649095D01*
X156041547Y-69487190D01*
X155960595Y-69163380D01*
X155960595Y-68920523D01*
X156041547Y-68596714D01*
X156122500Y-68434809D01*
X156284404Y-68272904D01*
X156527261Y-68191952D01*
X156689166Y-68191952D01*
X156932023Y-68272904D01*
X157012976Y-68353857D01*
X157012976Y-68920523D01*
X156689166Y-68920523D01*
X157741547Y-68191952D02*
X157741547Y-69891952D01*
X158389166Y-69891952D01*
X158551071Y-69811000D01*
X158632023Y-69730047D01*
X158712976Y-69568142D01*
X158712976Y-69325285D01*
X158632023Y-69163380D01*
X158551071Y-69082428D01*
X158389166Y-69001476D01*
X157741547Y-69001476D01*
X159441547Y-68191952D02*
X159441547Y-69891952D01*
X160574880Y-69891952D02*
X160898690Y-69891952D01*
X161060595Y-69811000D01*
X161222500Y-69649095D01*
X161303452Y-69325285D01*
X161303452Y-68758619D01*
X161222500Y-68434809D01*
X161060595Y-68272904D01*
X160898690Y-68191952D01*
X160574880Y-68191952D01*
X160412976Y-68272904D01*
X160251071Y-68434809D01*
X160170119Y-68758619D01*
X160170119Y-69325285D01*
X160251071Y-69649095D01*
X160412976Y-69811000D01*
X160574880Y-69891952D01*
X162922500Y-68191952D02*
X161951071Y-68191952D01*
X162436785Y-68191952D02*
X162436785Y-69891952D01*
X162274880Y-69649095D01*
X162112976Y-69487190D01*
X161951071Y-69406238D01*
X163489166Y-69891952D02*
X164622500Y-69891952D01*
X163893928Y-68191952D01*
X150536785Y-67154952D02*
X149727261Y-67154952D01*
X149646309Y-66345428D01*
X149727261Y-66426380D01*
X149889166Y-66507333D01*
X150293928Y-66507333D01*
X150455833Y-66426380D01*
X150536785Y-66345428D01*
X150617738Y-66183523D01*
X150617738Y-65778761D01*
X150536785Y-65616857D01*
X150455833Y-65535904D01*
X150293928Y-65454952D01*
X149889166Y-65454952D01*
X149727261Y-65535904D01*
X149646309Y-65616857D01*
X152641547Y-66102571D02*
X153936785Y-66102571D01*
X156932023Y-67074000D02*
X156770119Y-67154952D01*
X156527261Y-67154952D01*
X156284404Y-67074000D01*
X156122500Y-66912095D01*
X156041547Y-66750190D01*
X155960595Y-66426380D01*
X155960595Y-66183523D01*
X156041547Y-65859714D01*
X156122500Y-65697809D01*
X156284404Y-65535904D01*
X156527261Y-65454952D01*
X156689166Y-65454952D01*
X156932023Y-65535904D01*
X157012976Y-65616857D01*
X157012976Y-66183523D01*
X156689166Y-66183523D01*
X157741547Y-65454952D02*
X157741547Y-67154952D01*
X158389166Y-67154952D01*
X158551071Y-67074000D01*
X158632023Y-66993047D01*
X158712976Y-66831142D01*
X158712976Y-66588285D01*
X158632023Y-66426380D01*
X158551071Y-66345428D01*
X158389166Y-66264476D01*
X157741547Y-66264476D01*
X159441547Y-65454952D02*
X159441547Y-67154952D01*
X160574880Y-67154952D02*
X160898690Y-67154952D01*
X161060595Y-67074000D01*
X161222500Y-66912095D01*
X161303452Y-66588285D01*
X161303452Y-66021619D01*
X161222500Y-65697809D01*
X161060595Y-65535904D01*
X160898690Y-65454952D01*
X160574880Y-65454952D01*
X160412976Y-65535904D01*
X160251071Y-65697809D01*
X160170119Y-66021619D01*
X160170119Y-66588285D01*
X160251071Y-66912095D01*
X160412976Y-67074000D01*
X160574880Y-67154952D01*
X161951071Y-66993047D02*
X162032023Y-67074000D01*
X162193928Y-67154952D01*
X162598690Y-67154952D01*
X162760595Y-67074000D01*
X162841547Y-66993047D01*
X162922500Y-66831142D01*
X162922500Y-66669238D01*
X162841547Y-66426380D01*
X161870119Y-65454952D01*
X162922500Y-65454952D01*
X163489166Y-67154952D02*
X164541547Y-67154952D01*
X163974880Y-66507333D01*
X164217738Y-66507333D01*
X164379642Y-66426380D01*
X164460595Y-66345428D01*
X164541547Y-66183523D01*
X164541547Y-65778761D01*
X164460595Y-65616857D01*
X164379642Y-65535904D01*
X164217738Y-65454952D01*
X163732023Y-65454952D01*
X163570119Y-65535904D01*
X163489166Y-65616857D01*
X150455833Y-64417952D02*
X150132023Y-64417952D01*
X149970119Y-64337000D01*
X149889166Y-64256047D01*
X149727261Y-64013190D01*
X149646309Y-63689380D01*
X149646309Y-63041761D01*
X149727261Y-62879857D01*
X149808214Y-62798904D01*
X149970119Y-62717952D01*
X150293928Y-62717952D01*
X150455833Y-62798904D01*
X150536785Y-62879857D01*
X150617738Y-63041761D01*
X150617738Y-63446523D01*
X150536785Y-63608428D01*
X150455833Y-63689380D01*
X150293928Y-63770333D01*
X149970119Y-63770333D01*
X149808214Y-63689380D01*
X149727261Y-63608428D01*
X149646309Y-63446523D01*
X152641547Y-63365571D02*
X153936785Y-63365571D01*
X156932023Y-64337000D02*
X156770119Y-64417952D01*
X156527261Y-64417952D01*
X156284404Y-64337000D01*
X156122500Y-64175095D01*
X156041547Y-64013190D01*
X155960595Y-63689380D01*
X155960595Y-63446523D01*
X156041547Y-63122714D01*
X156122500Y-62960809D01*
X156284404Y-62798904D01*
X156527261Y-62717952D01*
X156689166Y-62717952D01*
X156932023Y-62798904D01*
X157012976Y-62879857D01*
X157012976Y-63446523D01*
X156689166Y-63446523D01*
X157741547Y-62717952D02*
X157741547Y-64417952D01*
X158389166Y-64417952D01*
X158551071Y-64337000D01*
X158632023Y-64256047D01*
X158712976Y-64094142D01*
X158712976Y-63851285D01*
X158632023Y-63689380D01*
X158551071Y-63608428D01*
X158389166Y-63527476D01*
X157741547Y-63527476D01*
X159441547Y-62717952D02*
X159441547Y-64417952D01*
X160574880Y-64417952D02*
X160898690Y-64417952D01*
X161060595Y-64337000D01*
X161222500Y-64175095D01*
X161303452Y-63851285D01*
X161303452Y-63284619D01*
X161222500Y-62960809D01*
X161060595Y-62798904D01*
X160898690Y-62717952D01*
X160574880Y-62717952D01*
X160412976Y-62798904D01*
X160251071Y-62960809D01*
X160170119Y-63284619D01*
X160170119Y-63851285D01*
X160251071Y-64175095D01*
X160412976Y-64337000D01*
X160574880Y-64417952D01*
X161870119Y-64417952D02*
X162922500Y-64417952D01*
X162355833Y-63770333D01*
X162598690Y-63770333D01*
X162760595Y-63689380D01*
X162841547Y-63608428D01*
X162922500Y-63446523D01*
X162922500Y-63041761D01*
X162841547Y-62879857D01*
X162760595Y-62798904D01*
X162598690Y-62717952D01*
X162112976Y-62717952D01*
X161951071Y-62798904D01*
X161870119Y-62879857D01*
X164379642Y-63851285D02*
X164379642Y-62717952D01*
X163974880Y-64498904D02*
X163570119Y-63284619D01*
X164622500Y-63284619D01*
X149565357Y-61680952D02*
X150698690Y-61680952D01*
X149970119Y-59980952D01*
X152641547Y-60628571D02*
X153936785Y-60628571D01*
X156932023Y-61600000D02*
X156770119Y-61680952D01*
X156527261Y-61680952D01*
X156284404Y-61600000D01*
X156122500Y-61438095D01*
X156041547Y-61276190D01*
X155960595Y-60952380D01*
X155960595Y-60709523D01*
X156041547Y-60385714D01*
X156122500Y-60223809D01*
X156284404Y-60061904D01*
X156527261Y-59980952D01*
X156689166Y-59980952D01*
X156932023Y-60061904D01*
X157012976Y-60142857D01*
X157012976Y-60709523D01*
X156689166Y-60709523D01*
X157741547Y-59980952D02*
X157741547Y-61680952D01*
X158389166Y-61680952D01*
X158551071Y-61600000D01*
X158632023Y-61519047D01*
X158712976Y-61357142D01*
X158712976Y-61114285D01*
X158632023Y-60952380D01*
X158551071Y-60871428D01*
X158389166Y-60790476D01*
X157741547Y-60790476D01*
X159441547Y-59980952D02*
X159441547Y-61680952D01*
X160574880Y-61680952D02*
X160898690Y-61680952D01*
X161060595Y-61600000D01*
X161222500Y-61438095D01*
X161303452Y-61114285D01*
X161303452Y-60547619D01*
X161222500Y-60223809D01*
X161060595Y-60061904D01*
X160898690Y-59980952D01*
X160574880Y-59980952D01*
X160412976Y-60061904D01*
X160251071Y-60223809D01*
X160170119Y-60547619D01*
X160170119Y-61114285D01*
X160251071Y-61438095D01*
X160412976Y-61600000D01*
X160574880Y-61680952D01*
X161870119Y-61680952D02*
X162922500Y-61680952D01*
X162355833Y-61033333D01*
X162598690Y-61033333D01*
X162760595Y-60952380D01*
X162841547Y-60871428D01*
X162922500Y-60709523D01*
X162922500Y-60304761D01*
X162841547Y-60142857D01*
X162760595Y-60061904D01*
X162598690Y-59980952D01*
X162112976Y-59980952D01*
X161951071Y-60061904D01*
X161870119Y-60142857D01*
X164460595Y-61680952D02*
X163651071Y-61680952D01*
X163570119Y-60871428D01*
X163651071Y-60952380D01*
X163812976Y-61033333D01*
X164217738Y-61033333D01*
X164379642Y-60952380D01*
X164460595Y-60871428D01*
X164541547Y-60709523D01*
X164541547Y-60304761D01*
X164460595Y-60142857D01*
X164379642Y-60061904D01*
X164217738Y-59980952D01*
X163812976Y-59980952D01*
X163651071Y-60061904D01*
X163570119Y-60142857D01*
X188638571Y-96599428D02*
X187138571Y-96599428D01*
X188638571Y-97456571D01*
X187138571Y-97456571D01*
X167254738Y-91417452D02*
X166283309Y-91417452D01*
X166769023Y-91417452D02*
X166769023Y-93117452D01*
X166607119Y-92874595D01*
X166445214Y-92712690D01*
X166283309Y-92631738D01*
X169278547Y-92065071D02*
X170573785Y-92065071D01*
X173488071Y-93117452D02*
X172678547Y-93117452D01*
X172597595Y-92307928D01*
X172678547Y-92388880D01*
X172840452Y-92469833D01*
X173245214Y-92469833D01*
X173407119Y-92388880D01*
X173488071Y-92307928D01*
X173569023Y-92146023D01*
X173569023Y-91741261D01*
X173488071Y-91579357D01*
X173407119Y-91498404D01*
X173245214Y-91417452D01*
X172840452Y-91417452D01*
X172678547Y-91498404D01*
X172597595Y-91579357D01*
X174054738Y-93117452D02*
X174621404Y-91417452D01*
X175188071Y-93117452D01*
X166283309Y-90218547D02*
X166364261Y-90299500D01*
X166526166Y-90380452D01*
X166930928Y-90380452D01*
X167092833Y-90299500D01*
X167173785Y-90218547D01*
X167254738Y-90056642D01*
X167254738Y-89894738D01*
X167173785Y-89651880D01*
X166202357Y-88680452D01*
X167254738Y-88680452D01*
X169278547Y-89328071D02*
X170573785Y-89328071D01*
X172597595Y-88761404D02*
X172840452Y-88680452D01*
X173245214Y-88680452D01*
X173407119Y-88761404D01*
X173488071Y-88842357D01*
X173569023Y-89004261D01*
X173569023Y-89166166D01*
X173488071Y-89328071D01*
X173407119Y-89409023D01*
X173245214Y-89489976D01*
X172921404Y-89570928D01*
X172759500Y-89651880D01*
X172678547Y-89732833D01*
X172597595Y-89894738D01*
X172597595Y-90056642D01*
X172678547Y-90218547D01*
X172759500Y-90299500D01*
X172921404Y-90380452D01*
X173326166Y-90380452D01*
X173569023Y-90299500D01*
X174297595Y-88680452D02*
X174297595Y-90380452D01*
X174702357Y-90380452D01*
X174945214Y-90299500D01*
X175107119Y-90137595D01*
X175188071Y-89975690D01*
X175269023Y-89651880D01*
X175269023Y-89409023D01*
X175188071Y-89085214D01*
X175107119Y-88923309D01*
X174945214Y-88761404D01*
X174702357Y-88680452D01*
X174297595Y-88680452D01*
X176969023Y-88842357D02*
X176888071Y-88761404D01*
X176645214Y-88680452D01*
X176483309Y-88680452D01*
X176240452Y-88761404D01*
X176078547Y-88923309D01*
X175997595Y-89085214D01*
X175916642Y-89409023D01*
X175916642Y-89651880D01*
X175997595Y-89975690D01*
X176078547Y-90137595D01*
X176240452Y-90299500D01*
X176483309Y-90380452D01*
X176645214Y-90380452D01*
X176888071Y-90299500D01*
X176969023Y-90218547D01*
X166202357Y-87643452D02*
X167254738Y-87643452D01*
X166688071Y-86995833D01*
X166930928Y-86995833D01*
X167092833Y-86914880D01*
X167173785Y-86833928D01*
X167254738Y-86672023D01*
X167254738Y-86267261D01*
X167173785Y-86105357D01*
X167092833Y-86024404D01*
X166930928Y-85943452D01*
X166445214Y-85943452D01*
X166283309Y-86024404D01*
X166202357Y-86105357D01*
X169278547Y-86591071D02*
X170573785Y-86591071D01*
X172597595Y-86024404D02*
X172840452Y-85943452D01*
X173245214Y-85943452D01*
X173407119Y-86024404D01*
X173488071Y-86105357D01*
X173569023Y-86267261D01*
X173569023Y-86429166D01*
X173488071Y-86591071D01*
X173407119Y-86672023D01*
X173245214Y-86752976D01*
X172921404Y-86833928D01*
X172759500Y-86914880D01*
X172678547Y-86995833D01*
X172597595Y-87157738D01*
X172597595Y-87319642D01*
X172678547Y-87481547D01*
X172759500Y-87562500D01*
X172921404Y-87643452D01*
X173326166Y-87643452D01*
X173569023Y-87562500D01*
X174297595Y-85943452D02*
X174297595Y-87643452D01*
X174702357Y-87643452D01*
X174945214Y-87562500D01*
X175107119Y-87400595D01*
X175188071Y-87238690D01*
X175269023Y-86914880D01*
X175269023Y-86672023D01*
X175188071Y-86348214D01*
X175107119Y-86186309D01*
X174945214Y-86024404D01*
X174702357Y-85943452D01*
X174297595Y-85943452D01*
X175916642Y-86429166D02*
X176726166Y-86429166D01*
X175754738Y-85943452D02*
X176321404Y-87643452D01*
X176888071Y-85943452D01*
X167092833Y-84339785D02*
X167092833Y-83206452D01*
X166688071Y-84987404D02*
X166283309Y-83773119D01*
X167335690Y-83773119D01*
X169278547Y-83854071D02*
X170573785Y-83854071D01*
X173569023Y-84825500D02*
X173407119Y-84906452D01*
X173164261Y-84906452D01*
X172921404Y-84825500D01*
X172759500Y-84663595D01*
X172678547Y-84501690D01*
X172597595Y-84177880D01*
X172597595Y-83935023D01*
X172678547Y-83611214D01*
X172759500Y-83449309D01*
X172921404Y-83287404D01*
X173164261Y-83206452D01*
X173326166Y-83206452D01*
X173569023Y-83287404D01*
X173649976Y-83368357D01*
X173649976Y-83935023D01*
X173326166Y-83935023D01*
X174378547Y-83206452D02*
X174378547Y-84906452D01*
X175349976Y-83206452D01*
X175349976Y-84906452D01*
X176159500Y-83206452D02*
X176159500Y-84906452D01*
X176564261Y-84906452D01*
X176807119Y-84825500D01*
X176969023Y-84663595D01*
X177049976Y-84501690D01*
X177130928Y-84177880D01*
X177130928Y-83935023D01*
X177049976Y-83611214D01*
X176969023Y-83449309D01*
X176807119Y-83287404D01*
X176564261Y-83206452D01*
X176159500Y-83206452D01*
X167173785Y-82169452D02*
X166364261Y-82169452D01*
X166283309Y-81359928D01*
X166364261Y-81440880D01*
X166526166Y-81521833D01*
X166930928Y-81521833D01*
X167092833Y-81440880D01*
X167173785Y-81359928D01*
X167254738Y-81198023D01*
X167254738Y-80793261D01*
X167173785Y-80631357D01*
X167092833Y-80550404D01*
X166930928Y-80469452D01*
X166526166Y-80469452D01*
X166364261Y-80550404D01*
X166283309Y-80631357D01*
X169278547Y-81117071D02*
X170573785Y-81117071D01*
X172597595Y-80955166D02*
X173407119Y-80955166D01*
X172435690Y-80469452D02*
X173002357Y-82169452D01*
X173569023Y-80469452D01*
X174135690Y-81602785D02*
X174135690Y-80469452D01*
X174135690Y-81440880D02*
X174216642Y-81521833D01*
X174378547Y-81602785D01*
X174621404Y-81602785D01*
X174783309Y-81521833D01*
X174864261Y-81359928D01*
X174864261Y-80469452D01*
X176402357Y-80469452D02*
X176402357Y-81359928D01*
X176321404Y-81521833D01*
X176159500Y-81602785D01*
X175835690Y-81602785D01*
X175673785Y-81521833D01*
X176402357Y-80550404D02*
X176240452Y-80469452D01*
X175835690Y-80469452D01*
X175673785Y-80550404D01*
X175592833Y-80712309D01*
X175592833Y-80874214D01*
X175673785Y-81036119D01*
X175835690Y-81117071D01*
X176240452Y-81117071D01*
X176402357Y-81198023D01*
X167092833Y-79432452D02*
X166769023Y-79432452D01*
X166607119Y-79351500D01*
X166526166Y-79270547D01*
X166364261Y-79027690D01*
X166283309Y-78703880D01*
X166283309Y-78056261D01*
X166364261Y-77894357D01*
X166445214Y-77813404D01*
X166607119Y-77732452D01*
X166930928Y-77732452D01*
X167092833Y-77813404D01*
X167173785Y-77894357D01*
X167254738Y-78056261D01*
X167254738Y-78461023D01*
X167173785Y-78622928D01*
X167092833Y-78703880D01*
X166930928Y-78784833D01*
X166607119Y-78784833D01*
X166445214Y-78703880D01*
X166364261Y-78622928D01*
X166283309Y-78461023D01*
X169278547Y-78380071D02*
X170573785Y-78380071D01*
X172516642Y-79432452D02*
X173569023Y-79432452D01*
X173002357Y-78784833D01*
X173245214Y-78784833D01*
X173407119Y-78703880D01*
X173488071Y-78622928D01*
X173569023Y-78461023D01*
X173569023Y-78056261D01*
X173488071Y-77894357D01*
X173407119Y-77813404D01*
X173245214Y-77732452D01*
X172759500Y-77732452D01*
X172597595Y-77813404D01*
X172516642Y-77894357D01*
X174297595Y-77894357D02*
X174378547Y-77813404D01*
X174297595Y-77732452D01*
X174216642Y-77813404D01*
X174297595Y-77894357D01*
X174297595Y-77732452D01*
X174945214Y-79432452D02*
X175997595Y-79432452D01*
X175430928Y-78784833D01*
X175673785Y-78784833D01*
X175835690Y-78703880D01*
X175916642Y-78622928D01*
X175997595Y-78461023D01*
X175997595Y-78056261D01*
X175916642Y-77894357D01*
X175835690Y-77813404D01*
X175673785Y-77732452D01*
X175188071Y-77732452D01*
X175026166Y-77813404D01*
X174945214Y-77894357D01*
X176483309Y-79432452D02*
X177049976Y-77732452D01*
X177616642Y-79432452D01*
X139918428Y-51280285D02*
X139847000Y-51208857D01*
X139632714Y-51137428D01*
X139489857Y-51137428D01*
X139275571Y-51208857D01*
X139132714Y-51351714D01*
X139061285Y-51494571D01*
X138989857Y-51780285D01*
X138989857Y-51994571D01*
X139061285Y-52280285D01*
X139132714Y-52423142D01*
X139275571Y-52566000D01*
X139489857Y-52637428D01*
X139632714Y-52637428D01*
X139847000Y-52566000D01*
X139918428Y-52494571D01*
X140847000Y-52637428D02*
X141132714Y-52637428D01*
X141275571Y-52566000D01*
X141418428Y-52423142D01*
X141489857Y-52137428D01*
X141489857Y-51637428D01*
X141418428Y-51351714D01*
X141275571Y-51208857D01*
X141132714Y-51137428D01*
X140847000Y-51137428D01*
X140704142Y-51208857D01*
X140561285Y-51351714D01*
X140489857Y-51637428D01*
X140489857Y-52137428D01*
X140561285Y-52423142D01*
X140704142Y-52566000D01*
X140847000Y-52637428D01*
X142132714Y-51137428D02*
X142132714Y-52637428D01*
X142632714Y-51566000D01*
X143132714Y-52637428D01*
X143132714Y-51137428D01*
X144962714Y-51137428D02*
X144962714Y-52637428D01*
X145819857Y-51137428D01*
X145819857Y-52637428D01*
X146819857Y-52637428D02*
X147105571Y-52637428D01*
X147248428Y-52566000D01*
X147391285Y-52423142D01*
X147462714Y-52137428D01*
X147462714Y-51637428D01*
X147391285Y-51351714D01*
X147248428Y-51208857D01*
X147105571Y-51137428D01*
X146819857Y-51137428D01*
X146677000Y-51208857D01*
X146534142Y-51351714D01*
X146462714Y-51637428D01*
X146462714Y-52137428D01*
X146534142Y-52423142D01*
X146677000Y-52566000D01*
X146819857Y-52637428D01*
D12*
X99675857Y-70187428D02*
X99675857Y-71687428D01*
X100247285Y-71687428D01*
X100390142Y-71616000D01*
X100461571Y-71544571D01*
X100533000Y-71401714D01*
X100533000Y-71187428D01*
X100461571Y-71044571D01*
X100390142Y-70973142D01*
X100247285Y-70901714D01*
X99675857Y-70901714D01*
X101175857Y-70187428D02*
X101175857Y-71687428D01*
X101818714Y-70187428D02*
X101818714Y-70973142D01*
X101747285Y-71116000D01*
X101604428Y-71187428D01*
X101390142Y-71187428D01*
X101247285Y-71116000D01*
X101175857Y-71044571D01*
X102533000Y-70187428D02*
X102533000Y-71187428D01*
X102533000Y-71687428D02*
X102461571Y-71616000D01*
X102533000Y-71544571D01*
X102604428Y-71616000D01*
X102533000Y-71687428D01*
X102533000Y-71544571D01*
X103461571Y-70187428D02*
X103318714Y-70258857D01*
X103247285Y-70401714D01*
X103247285Y-71687428D01*
X104033000Y-70187428D02*
X104033000Y-71187428D01*
X104033000Y-71687428D02*
X103961571Y-71616000D01*
X104033000Y-71544571D01*
X104104428Y-71616000D01*
X104033000Y-71687428D01*
X104033000Y-71544571D01*
X104747285Y-71187428D02*
X104747285Y-69687428D01*
X104747285Y-71116000D02*
X104890142Y-71187428D01*
X105175857Y-71187428D01*
X105318714Y-71116000D01*
X105390142Y-71044571D01*
X105461571Y-70901714D01*
X105461571Y-70473142D01*
X105390142Y-70330285D01*
X105318714Y-70258857D01*
X105175857Y-70187428D01*
X104890142Y-70187428D01*
X104747285Y-70258857D01*
X106104428Y-71187428D02*
X106104428Y-69687428D01*
X106104428Y-71116000D02*
X106247285Y-71187428D01*
X106533000Y-71187428D01*
X106675857Y-71116000D01*
X106747285Y-71044571D01*
X106818714Y-70901714D01*
X106818714Y-70473142D01*
X106747285Y-70330285D01*
X106675857Y-70258857D01*
X106533000Y-70187428D01*
X106247285Y-70187428D01*
X106104428Y-70258857D01*
X108033000Y-70258857D02*
X107890142Y-70187428D01*
X107604428Y-70187428D01*
X107461571Y-70258857D01*
X107390142Y-70401714D01*
X107390142Y-70973142D01*
X107461571Y-71116000D01*
X107604428Y-71187428D01*
X107890142Y-71187428D01*
X108033000Y-71116000D01*
X108104428Y-70973142D01*
X108104428Y-70830285D01*
X107390142Y-70687428D01*
X109533000Y-70187428D02*
X108675857Y-70187428D01*
X109104428Y-70187428D02*
X109104428Y-71687428D01*
X108961571Y-71473142D01*
X108818714Y-71330285D01*
X108675857Y-71258857D01*
X110104428Y-71544571D02*
X110175857Y-71616000D01*
X110318714Y-71687428D01*
X110675857Y-71687428D01*
X110818714Y-71616000D01*
X110890142Y-71544571D01*
X110961571Y-71401714D01*
X110961571Y-71258857D01*
X110890142Y-71044571D01*
X110033000Y-70187428D01*
X110961571Y-70187428D01*
D10*
X116200738Y-91474452D02*
X115229309Y-91474452D01*
X115715023Y-91474452D02*
X115715023Y-93174452D01*
X115553119Y-92931595D01*
X115391214Y-92769690D01*
X115229309Y-92688738D01*
X118224547Y-92122071D02*
X119519785Y-92122071D01*
X121462642Y-93174452D02*
X122515023Y-93174452D01*
X121948357Y-92526833D01*
X122191214Y-92526833D01*
X122353119Y-92445880D01*
X122434071Y-92364928D01*
X122515023Y-92203023D01*
X122515023Y-91798261D01*
X122434071Y-91636357D01*
X122353119Y-91555404D01*
X122191214Y-91474452D01*
X121705500Y-91474452D01*
X121543595Y-91555404D01*
X121462642Y-91636357D01*
X123243595Y-91636357D02*
X123324547Y-91555404D01*
X123243595Y-91474452D01*
X123162642Y-91555404D01*
X123243595Y-91636357D01*
X123243595Y-91474452D01*
X123891214Y-93174452D02*
X124943595Y-93174452D01*
X124376928Y-92526833D01*
X124619785Y-92526833D01*
X124781690Y-92445880D01*
X124862642Y-92364928D01*
X124943595Y-92203023D01*
X124943595Y-91798261D01*
X124862642Y-91636357D01*
X124781690Y-91555404D01*
X124619785Y-91474452D01*
X124134071Y-91474452D01*
X123972166Y-91555404D01*
X123891214Y-91636357D01*
X125429309Y-93174452D02*
X125995976Y-91474452D01*
X126562642Y-93174452D01*
X115229309Y-90275547D02*
X115310261Y-90356500D01*
X115472166Y-90437452D01*
X115876928Y-90437452D01*
X116038833Y-90356500D01*
X116119785Y-90275547D01*
X116200738Y-90113642D01*
X116200738Y-89951738D01*
X116119785Y-89708880D01*
X115148357Y-88737452D01*
X116200738Y-88737452D01*
X118224547Y-89385071D02*
X119519785Y-89385071D01*
X122595976Y-88899357D02*
X122515023Y-88818404D01*
X122272166Y-88737452D01*
X122110261Y-88737452D01*
X121867404Y-88818404D01*
X121705500Y-88980309D01*
X121624547Y-89142214D01*
X121543595Y-89466023D01*
X121543595Y-89708880D01*
X121624547Y-90032690D01*
X121705500Y-90194595D01*
X121867404Y-90356500D01*
X122110261Y-90437452D01*
X122272166Y-90437452D01*
X122515023Y-90356500D01*
X122595976Y-90275547D01*
X124053119Y-88737452D02*
X124053119Y-89627928D01*
X123972166Y-89789833D01*
X123810261Y-89870785D01*
X123486452Y-89870785D01*
X123324547Y-89789833D01*
X124053119Y-88818404D02*
X123891214Y-88737452D01*
X123486452Y-88737452D01*
X123324547Y-88818404D01*
X123243595Y-88980309D01*
X123243595Y-89142214D01*
X123324547Y-89304119D01*
X123486452Y-89385071D01*
X123891214Y-89385071D01*
X124053119Y-89466023D01*
X124862642Y-89870785D02*
X124862642Y-88170785D01*
X124862642Y-89789833D02*
X125024547Y-89870785D01*
X125348357Y-89870785D01*
X125510261Y-89789833D01*
X125591214Y-89708880D01*
X125672166Y-89546976D01*
X125672166Y-89061261D01*
X125591214Y-88899357D01*
X125510261Y-88818404D01*
X125348357Y-88737452D01*
X125024547Y-88737452D01*
X124862642Y-88818404D01*
X126157880Y-89870785D02*
X126805500Y-89870785D01*
X126400738Y-90437452D02*
X126400738Y-88980309D01*
X126481690Y-88818404D01*
X126643595Y-88737452D01*
X126805500Y-88737452D01*
X127615023Y-88737452D02*
X127453119Y-88818404D01*
X127372166Y-88899357D01*
X127291214Y-89061261D01*
X127291214Y-89546976D01*
X127372166Y-89708880D01*
X127453119Y-89789833D01*
X127615023Y-89870785D01*
X127857880Y-89870785D01*
X128019785Y-89789833D01*
X128100738Y-89708880D01*
X128181690Y-89546976D01*
X128181690Y-89061261D01*
X128100738Y-88899357D01*
X128019785Y-88818404D01*
X127857880Y-88737452D01*
X127615023Y-88737452D01*
X128910261Y-88737452D02*
X128910261Y-89870785D01*
X128910261Y-89546976D02*
X128991214Y-89708880D01*
X129072166Y-89789833D01*
X129234071Y-89870785D01*
X129395976Y-89870785D01*
X115148357Y-87700452D02*
X116200738Y-87700452D01*
X115634071Y-87052833D01*
X115876928Y-87052833D01*
X116038833Y-86971880D01*
X116119785Y-86890928D01*
X116200738Y-86729023D01*
X116200738Y-86324261D01*
X116119785Y-86162357D01*
X116038833Y-86081404D01*
X115876928Y-86000452D01*
X115391214Y-86000452D01*
X115229309Y-86081404D01*
X115148357Y-86162357D01*
X118224547Y-86648071D02*
X119519785Y-86648071D01*
X116038833Y-84396785D02*
X116038833Y-83263452D01*
X115634071Y-85044404D02*
X115229309Y-83830119D01*
X116281690Y-83830119D01*
X118224547Y-83911071D02*
X119519785Y-83911071D01*
X122515023Y-84882500D02*
X122353119Y-84963452D01*
X122110261Y-84963452D01*
X121867404Y-84882500D01*
X121705500Y-84720595D01*
X121624547Y-84558690D01*
X121543595Y-84234880D01*
X121543595Y-83992023D01*
X121624547Y-83668214D01*
X121705500Y-83506309D01*
X121867404Y-83344404D01*
X122110261Y-83263452D01*
X122272166Y-83263452D01*
X122515023Y-83344404D01*
X122595976Y-83425357D01*
X122595976Y-83992023D01*
X122272166Y-83992023D01*
X123324547Y-83263452D02*
X123324547Y-84963452D01*
X124295976Y-83263452D01*
X124295976Y-84963452D01*
X125105500Y-83263452D02*
X125105500Y-84963452D01*
X125510261Y-84963452D01*
X125753119Y-84882500D01*
X125915023Y-84720595D01*
X125995976Y-84558690D01*
X126076928Y-84234880D01*
X126076928Y-83992023D01*
X125995976Y-83668214D01*
X125915023Y-83506309D01*
X125753119Y-83344404D01*
X125510261Y-83263452D01*
X125105500Y-83263452D01*
X98440761Y-83631547D02*
X97488380Y-82964880D01*
X98440761Y-82488690D02*
X96440761Y-82488690D01*
X96440761Y-83250595D01*
X96536000Y-83441071D01*
X96631238Y-83536309D01*
X96821714Y-83631547D01*
X97107428Y-83631547D01*
X97297904Y-83536309D01*
X97393142Y-83441071D01*
X97488380Y-83250595D01*
X97488380Y-82488690D01*
X98345523Y-85250595D02*
X98440761Y-85060119D01*
X98440761Y-84679166D01*
X98345523Y-84488690D01*
X98155047Y-84393452D01*
X97393142Y-84393452D01*
X97202666Y-84488690D01*
X97107428Y-84679166D01*
X97107428Y-85060119D01*
X97202666Y-85250595D01*
X97393142Y-85345833D01*
X97583619Y-85345833D01*
X97774095Y-84393452D01*
X98345523Y-86107738D02*
X98440761Y-86298214D01*
X98440761Y-86679166D01*
X98345523Y-86869642D01*
X98155047Y-86964880D01*
X98059809Y-86964880D01*
X97869333Y-86869642D01*
X97774095Y-86679166D01*
X97774095Y-86393452D01*
X97678857Y-86202976D01*
X97488380Y-86107738D01*
X97393142Y-86107738D01*
X97202666Y-86202976D01*
X97107428Y-86393452D01*
X97107428Y-86679166D01*
X97202666Y-86869642D01*
X98345523Y-88583928D02*
X98440761Y-88393452D01*
X98440761Y-88012500D01*
X98345523Y-87822023D01*
X98155047Y-87726785D01*
X97393142Y-87726785D01*
X97202666Y-87822023D01*
X97107428Y-88012500D01*
X97107428Y-88393452D01*
X97202666Y-88583928D01*
X97393142Y-88679166D01*
X97583619Y-88679166D01*
X97774095Y-87726785D01*
X97107428Y-89250595D02*
X97107428Y-90012500D01*
X96440761Y-89536309D02*
X98155047Y-89536309D01*
X98345523Y-89631547D01*
X98440761Y-89822023D01*
X98440761Y-90012500D01*
X134838428Y-51137428D02*
X134838428Y-52637428D01*
X135695571Y-51137428D01*
X135695571Y-52637428D01*
X137267000Y-51280285D02*
X137195571Y-51208857D01*
X136981285Y-51137428D01*
X136838428Y-51137428D01*
X136624142Y-51208857D01*
X136481285Y-51351714D01*
X136409857Y-51494571D01*
X136338428Y-51780285D01*
X136338428Y-51994571D01*
X136409857Y-52280285D01*
X136481285Y-52423142D01*
X136624142Y-52566000D01*
X136838428Y-52637428D01*
X136981285Y-52637428D01*
X137195571Y-52566000D01*
X137267000Y-52494571D01*
X114760285Y-51754547D02*
X114855523Y-51659309D01*
X114950761Y-51373595D01*
X114950761Y-51183119D01*
X114855523Y-50897404D01*
X114665047Y-50706928D01*
X114474571Y-50611690D01*
X114093619Y-50516452D01*
X113807904Y-50516452D01*
X113426952Y-50611690D01*
X113236476Y-50706928D01*
X113046000Y-50897404D01*
X112950761Y-51183119D01*
X112950761Y-51373595D01*
X113046000Y-51659309D01*
X113141238Y-51754547D01*
X114950761Y-52897404D02*
X114855523Y-52706928D01*
X114760285Y-52611690D01*
X114569809Y-52516452D01*
X113998380Y-52516452D01*
X113807904Y-52611690D01*
X113712666Y-52706928D01*
X113617428Y-52897404D01*
X113617428Y-53183119D01*
X113712666Y-53373595D01*
X113807904Y-53468833D01*
X113998380Y-53564071D01*
X114569809Y-53564071D01*
X114760285Y-53468833D01*
X114855523Y-53373595D01*
X114950761Y-53183119D01*
X114950761Y-52897404D01*
X113617428Y-54421214D02*
X114950761Y-54421214D01*
X113807904Y-54421214D02*
X113712666Y-54516452D01*
X113617428Y-54706928D01*
X113617428Y-54992642D01*
X113712666Y-55183119D01*
X113903142Y-55278357D01*
X114950761Y-55278357D01*
X113617428Y-55945023D02*
X113617428Y-56706928D01*
X114950761Y-56230738D02*
X113236476Y-56230738D01*
X113046000Y-56325976D01*
X112950761Y-56516452D01*
X112950761Y-56706928D01*
X98345523Y-59787452D02*
X98440761Y-60073166D01*
X98440761Y-60549357D01*
X98345523Y-60739833D01*
X98250285Y-60835071D01*
X98059809Y-60930309D01*
X97869333Y-60930309D01*
X97678857Y-60835071D01*
X97583619Y-60739833D01*
X97488380Y-60549357D01*
X97393142Y-60168404D01*
X97297904Y-59977928D01*
X97202666Y-59882690D01*
X97012190Y-59787452D01*
X96821714Y-59787452D01*
X96631238Y-59882690D01*
X96536000Y-59977928D01*
X96440761Y-60168404D01*
X96440761Y-60644595D01*
X96536000Y-60930309D01*
X98345523Y-62549357D02*
X98440761Y-62358880D01*
X98440761Y-61977928D01*
X98345523Y-61787452D01*
X98155047Y-61692214D01*
X97393142Y-61692214D01*
X97202666Y-61787452D01*
X97107428Y-61977928D01*
X97107428Y-62358880D01*
X97202666Y-62549357D01*
X97393142Y-62644595D01*
X97583619Y-62644595D01*
X97774095Y-61692214D01*
X98440761Y-63787452D02*
X98345523Y-63596976D01*
X98155047Y-63501738D01*
X96440761Y-63501738D01*
X98345523Y-65311261D02*
X98440761Y-65120785D01*
X98440761Y-64739833D01*
X98345523Y-64549357D01*
X98155047Y-64454119D01*
X97393142Y-64454119D01*
X97202666Y-64549357D01*
X97107428Y-64739833D01*
X97107428Y-65120785D01*
X97202666Y-65311261D01*
X97393142Y-65406500D01*
X97583619Y-65406500D01*
X97774095Y-64454119D01*
X98345523Y-67120785D02*
X98440761Y-66930309D01*
X98440761Y-66549357D01*
X98345523Y-66358880D01*
X98250285Y-66263642D01*
X98059809Y-66168404D01*
X97488380Y-66168404D01*
X97297904Y-66263642D01*
X97202666Y-66358880D01*
X97107428Y-66549357D01*
X97107428Y-66930309D01*
X97202666Y-67120785D01*
X97107428Y-67692214D02*
X97107428Y-68454119D01*
X96440761Y-67977928D02*
X98155047Y-67977928D01*
X98345523Y-68073166D01*
X98440761Y-68263642D01*
X98440761Y-68454119D01*
X117693428Y-51137428D02*
X117693428Y-52637428D01*
X118550571Y-51137428D01*
X118550571Y-52637428D01*
X120122000Y-51280285D02*
X120050571Y-51208857D01*
X119836285Y-51137428D01*
X119693428Y-51137428D01*
X119479142Y-51208857D01*
X119336285Y-51351714D01*
X119264857Y-51494571D01*
X119193428Y-51780285D01*
X119193428Y-51994571D01*
X119264857Y-52280285D01*
X119336285Y-52423142D01*
X119479142Y-52566000D01*
X119693428Y-52637428D01*
X119836285Y-52637428D01*
X120050571Y-52566000D01*
X120122000Y-52494571D01*
X188495714Y-85725142D02*
X188567142Y-85653714D01*
X188638571Y-85439428D01*
X188638571Y-85296571D01*
X188567142Y-85082285D01*
X188424285Y-84939428D01*
X188281428Y-84868000D01*
X187995714Y-84796571D01*
X187781428Y-84796571D01*
X187495714Y-84868000D01*
X187352857Y-84939428D01*
X187210000Y-85082285D01*
X187138571Y-85296571D01*
X187138571Y-85439428D01*
X187210000Y-85653714D01*
X187281428Y-85725142D01*
X188638571Y-86368000D02*
X187138571Y-86368000D01*
X188210000Y-86868000D01*
X187138571Y-87368000D01*
X188638571Y-87368000D01*
X188638571Y-88082285D02*
X187138571Y-88082285D01*
X187138571Y-88439428D01*
X187210000Y-88653714D01*
X187352857Y-88796571D01*
X187495714Y-88868000D01*
X187781428Y-88939428D01*
X187995714Y-88939428D01*
X188281428Y-88868000D01*
X188424285Y-88796571D01*
X188567142Y-88653714D01*
X188638571Y-88439428D01*
X188638571Y-88082285D01*
X107013333Y-88930785D02*
X107013333Y-89883166D01*
X107584761Y-88740309D02*
X105584761Y-89406976D01*
X107584761Y-90073642D01*
X107489523Y-91597452D02*
X107584761Y-91406976D01*
X107584761Y-91026023D01*
X107489523Y-90835547D01*
X107394285Y-90740309D01*
X107203809Y-90645071D01*
X106632380Y-90645071D01*
X106441904Y-90740309D01*
X106346666Y-90835547D01*
X106251428Y-91026023D01*
X106251428Y-91406976D01*
X106346666Y-91597452D01*
X106251428Y-92168880D02*
X106251428Y-92930785D01*
X105584761Y-92454595D02*
X107299047Y-92454595D01*
X107489523Y-92549833D01*
X107584761Y-92740309D01*
X107584761Y-92930785D01*
X107584761Y-93597452D02*
X106251428Y-93597452D01*
X105584761Y-93597452D02*
X105680000Y-93502214D01*
X105775238Y-93597452D01*
X105680000Y-93692690D01*
X105584761Y-93597452D01*
X105775238Y-93597452D01*
X106251428Y-94359357D02*
X107584761Y-94835547D01*
X106251428Y-95311738D01*
X107584761Y-96073642D02*
X106251428Y-96073642D01*
X105584761Y-96073642D02*
X105680000Y-95978404D01*
X105775238Y-96073642D01*
X105680000Y-96168880D01*
X105584761Y-96073642D01*
X105775238Y-96073642D01*
X106251428Y-96740309D02*
X106251428Y-97502214D01*
X105584761Y-97026023D02*
X107299047Y-97026023D01*
X107489523Y-97121261D01*
X107584761Y-97311738D01*
X107584761Y-97502214D01*
X106251428Y-97978404D02*
X107584761Y-98454595D01*
X106251428Y-98930785D02*
X107584761Y-98454595D01*
X108060952Y-98264119D01*
X108156190Y-98168880D01*
X108251428Y-97978404D01*
X122773428Y-51280285D02*
X122702000Y-51208857D01*
X122487714Y-51137428D01*
X122344857Y-51137428D01*
X122130571Y-51208857D01*
X121987714Y-51351714D01*
X121916285Y-51494571D01*
X121844857Y-51780285D01*
X121844857Y-51994571D01*
X121916285Y-52280285D01*
X121987714Y-52423142D01*
X122130571Y-52566000D01*
X122344857Y-52637428D01*
X122487714Y-52637428D01*
X122702000Y-52566000D01*
X122773428Y-52494571D01*
X123702000Y-52637428D02*
X123987714Y-52637428D01*
X124130571Y-52566000D01*
X124273428Y-52423142D01*
X124344857Y-52137428D01*
X124344857Y-51637428D01*
X124273428Y-51351714D01*
X124130571Y-51208857D01*
X123987714Y-51137428D01*
X123702000Y-51137428D01*
X123559142Y-51208857D01*
X123416285Y-51351714D01*
X123344857Y-51637428D01*
X123344857Y-52137428D01*
X123416285Y-52423142D01*
X123559142Y-52566000D01*
X123702000Y-52637428D01*
X124987714Y-51137428D02*
X124987714Y-52637428D01*
X125487714Y-51566000D01*
X125987714Y-52637428D01*
X125987714Y-51137428D01*
X107902285Y-51754547D02*
X107997523Y-51659309D01*
X108092761Y-51373595D01*
X108092761Y-51183119D01*
X107997523Y-50897404D01*
X107807047Y-50706928D01*
X107616571Y-50611690D01*
X107235619Y-50516452D01*
X106949904Y-50516452D01*
X106568952Y-50611690D01*
X106378476Y-50706928D01*
X106188000Y-50897404D01*
X106092761Y-51183119D01*
X106092761Y-51373595D01*
X106188000Y-51659309D01*
X106283238Y-51754547D01*
X108092761Y-52897404D02*
X107997523Y-52706928D01*
X107902285Y-52611690D01*
X107711809Y-52516452D01*
X107140380Y-52516452D01*
X106949904Y-52611690D01*
X106854666Y-52706928D01*
X106759428Y-52897404D01*
X106759428Y-53183119D01*
X106854666Y-53373595D01*
X106949904Y-53468833D01*
X107140380Y-53564071D01*
X107711809Y-53564071D01*
X107902285Y-53468833D01*
X107997523Y-53373595D01*
X108092761Y-53183119D01*
X108092761Y-52897404D01*
X106759428Y-54421214D02*
X108092761Y-54421214D01*
X106949904Y-54421214D02*
X106854666Y-54516452D01*
X106759428Y-54706928D01*
X106759428Y-54992642D01*
X106854666Y-55183119D01*
X107045142Y-55278357D01*
X108092761Y-55278357D01*
X106759428Y-55945023D02*
X106759428Y-56706928D01*
X108092761Y-56230738D02*
X106378476Y-56230738D01*
X106188000Y-56325976D01*
X106092761Y-56516452D01*
X106092761Y-56706928D01*
X107330857Y-58897404D02*
X107330857Y-60421214D01*
X106283238Y-61278357D02*
X106188000Y-61373595D01*
X106092761Y-61564071D01*
X106092761Y-62040261D01*
X106188000Y-62230738D01*
X106283238Y-62325976D01*
X106473714Y-62421214D01*
X106664190Y-62421214D01*
X106949904Y-62325976D01*
X108092761Y-61183119D01*
X108092761Y-62421214D01*
X106092761Y-63564071D02*
X106188000Y-63373595D01*
X106378476Y-63278357D01*
X106568952Y-63373595D01*
X106664190Y-63564071D01*
X106568952Y-63754547D01*
X106378476Y-63849785D01*
X106188000Y-63754547D01*
X106092761Y-63564071D01*
X107902285Y-65945023D02*
X107997523Y-65849785D01*
X108092761Y-65564071D01*
X108092761Y-65373595D01*
X107997523Y-65087880D01*
X107807047Y-64897404D01*
X107616571Y-64802166D01*
X107235619Y-64706928D01*
X106949904Y-64706928D01*
X106568952Y-64802166D01*
X106378476Y-64897404D01*
X106188000Y-65087880D01*
X106092761Y-65373595D01*
X106092761Y-65564071D01*
X106188000Y-65849785D01*
X106283238Y-65945023D01*
X111331285Y-51754547D02*
X111426523Y-51659309D01*
X111521761Y-51373595D01*
X111521761Y-51183119D01*
X111426523Y-50897404D01*
X111236047Y-50706928D01*
X111045571Y-50611690D01*
X110664619Y-50516452D01*
X110378904Y-50516452D01*
X109997952Y-50611690D01*
X109807476Y-50706928D01*
X109617000Y-50897404D01*
X109521761Y-51183119D01*
X109521761Y-51373595D01*
X109617000Y-51659309D01*
X109712238Y-51754547D01*
X111521761Y-52897404D02*
X111426523Y-52706928D01*
X111331285Y-52611690D01*
X111140809Y-52516452D01*
X110569380Y-52516452D01*
X110378904Y-52611690D01*
X110283666Y-52706928D01*
X110188428Y-52897404D01*
X110188428Y-53183119D01*
X110283666Y-53373595D01*
X110378904Y-53468833D01*
X110569380Y-53564071D01*
X111140809Y-53564071D01*
X111331285Y-53468833D01*
X111426523Y-53373595D01*
X111521761Y-53183119D01*
X111521761Y-52897404D01*
X110188428Y-54421214D02*
X111521761Y-54421214D01*
X110378904Y-54421214D02*
X110283666Y-54516452D01*
X110188428Y-54706928D01*
X110188428Y-54992642D01*
X110283666Y-55183119D01*
X110474142Y-55278357D01*
X111521761Y-55278357D01*
X110188428Y-55945023D02*
X110188428Y-56706928D01*
X111521761Y-56230738D02*
X109807476Y-56230738D01*
X109617000Y-56325976D01*
X109521761Y-56516452D01*
X109521761Y-56706928D01*
X110759857Y-58897404D02*
X110759857Y-60421214D01*
X111521761Y-62421214D02*
X111521761Y-61278357D01*
X111521761Y-61849785D02*
X109521761Y-61849785D01*
X109807476Y-61659309D01*
X109997952Y-61468833D01*
X110093190Y-61278357D01*
X109521761Y-63564071D02*
X109617000Y-63373595D01*
X109807476Y-63278357D01*
X109997952Y-63373595D01*
X110093190Y-63564071D01*
X109997952Y-63754547D01*
X109807476Y-63849785D01*
X109617000Y-63754547D01*
X109521761Y-63564071D01*
X111331285Y-65945023D02*
X111426523Y-65849785D01*
X111521761Y-65564071D01*
X111521761Y-65373595D01*
X111426523Y-65087880D01*
X111236047Y-64897404D01*
X111045571Y-64802166D01*
X110664619Y-64706928D01*
X110378904Y-64706928D01*
X109997952Y-64802166D01*
X109807476Y-64897404D01*
X109617000Y-65087880D01*
X109521761Y-65373595D01*
X109521761Y-65564071D01*
X109617000Y-65849785D01*
X109712238Y-65945023D01*
X188765571Y-92412285D02*
X188765571Y-91698000D01*
X187265571Y-91698000D01*
X121142476Y-57896238D02*
X120475809Y-58848619D01*
X119999619Y-57896238D02*
X119999619Y-59896238D01*
X120761523Y-59896238D01*
X120952000Y-59801000D01*
X121047238Y-59705761D01*
X121142476Y-59515285D01*
X121142476Y-59229571D01*
X121047238Y-59039095D01*
X120952000Y-58943857D01*
X120761523Y-58848619D01*
X119999619Y-58848619D01*
X121999619Y-58943857D02*
X122666285Y-58943857D01*
X122952000Y-57896238D02*
X121999619Y-57896238D01*
X121999619Y-59896238D01*
X122952000Y-59896238D01*
X124761523Y-57896238D02*
X123809142Y-57896238D01*
X123809142Y-59896238D01*
X127999619Y-57896238D02*
X126856761Y-57896238D01*
X127428190Y-57896238D02*
X127428190Y-59896238D01*
X127237714Y-59610523D01*
X127047238Y-59420047D01*
X126856761Y-59324809D01*
X103616142Y-50611690D02*
X103616142Y-51278357D01*
X104663761Y-51564071D02*
X104663761Y-50611690D01*
X102663761Y-50611690D01*
X102663761Y-51564071D01*
X104568523Y-53278357D02*
X104663761Y-53087880D01*
X104663761Y-52706928D01*
X104568523Y-52516452D01*
X104473285Y-52421214D01*
X104282809Y-52325976D01*
X103711380Y-52325976D01*
X103520904Y-52421214D01*
X103425666Y-52516452D01*
X103330428Y-52706928D01*
X103330428Y-53087880D01*
X103425666Y-53278357D01*
X104663761Y-54421214D02*
X104568523Y-54230738D01*
X104473285Y-54135500D01*
X104282809Y-54040261D01*
X103711380Y-54040261D01*
X103520904Y-54135500D01*
X103425666Y-54230738D01*
X103330428Y-54421214D01*
X103330428Y-54706928D01*
X103425666Y-54897404D01*
X103520904Y-54992642D01*
X103711380Y-55087880D01*
X104282809Y-55087880D01*
X104473285Y-54992642D01*
X104568523Y-54897404D01*
X104663761Y-54706928D01*
X104663761Y-54421214D01*
G36*
X105629682Y-74404252D02*
G01*
X105769255Y-74452370D01*
X105868050Y-74528805D01*
X105926299Y-74633746D01*
X105944238Y-74767383D01*
X105931253Y-74884946D01*
X105889569Y-74981197D01*
X105814523Y-75050127D01*
X105701365Y-75095970D01*
X105545346Y-75122958D01*
X105527426Y-75124912D01*
X105430286Y-75137370D01*
X105351486Y-75150408D01*
X105306656Y-75161501D01*
X105291696Y-75170433D01*
X105266404Y-75216491D01*
X105270512Y-75275447D01*
X105304312Y-75326627D01*
X105322061Y-75337790D01*
X105396019Y-75355674D01*
X105491549Y-75354471D01*
X105591164Y-75335439D01*
X105677379Y-75299832D01*
X105767969Y-75246382D01*
X105838237Y-75328495D01*
X105855288Y-75349356D01*
X105893702Y-75405239D01*
X105909517Y-75443113D01*
X105892910Y-75466336D01*
X105841531Y-75502588D01*
X105767343Y-75541598D01*
X105756890Y-75546367D01*
X105659059Y-75583771D01*
X105564759Y-75601655D01*
X105447738Y-75605246D01*
X105341190Y-75598180D01*
X105197371Y-75562134D01*
X105092309Y-75495323D01*
X105025406Y-75397298D01*
X104996060Y-75267613D01*
X105002001Y-75143456D01*
X105044886Y-75038734D01*
X105127124Y-74961307D01*
X105250365Y-74909663D01*
X105416256Y-74882290D01*
X105524048Y-74867943D01*
X105622434Y-74836901D01*
X105673229Y-74791947D01*
X105676296Y-74733162D01*
X105655854Y-74696507D01*
X105592546Y-74653065D01*
X105502551Y-74632517D01*
X105397087Y-74635327D01*
X105287374Y-74661958D01*
X105184632Y-74712872D01*
X105082196Y-74780661D01*
X104992098Y-74689492D01*
X104902000Y-74598324D01*
X104976705Y-74537345D01*
X105005754Y-74516158D01*
X105087483Y-74468022D01*
X105175921Y-74426543D01*
X105245913Y-74402738D01*
X105348398Y-74385496D01*
X105474745Y-74385268D01*
X105629682Y-74404252D01*
G37*
D13*
X105629682Y-74404252D02*
X105769255Y-74452370D01*
X105868050Y-74528805D01*
X105926299Y-74633746D01*
X105944238Y-74767383D01*
X105931253Y-74884946D01*
X105889569Y-74981197D01*
X105814523Y-75050127D01*
X105701365Y-75095970D01*
X105545346Y-75122958D01*
X105527426Y-75124912D01*
X105430286Y-75137370D01*
X105351486Y-75150408D01*
X105306656Y-75161501D01*
X105291696Y-75170433D01*
X105266404Y-75216491D01*
X105270512Y-75275447D01*
X105304312Y-75326627D01*
X105322061Y-75337790D01*
X105396019Y-75355674D01*
X105491549Y-75354471D01*
X105591164Y-75335439D01*
X105677379Y-75299832D01*
X105767969Y-75246382D01*
X105838237Y-75328495D01*
X105855288Y-75349356D01*
X105893702Y-75405239D01*
X105909517Y-75443113D01*
X105892910Y-75466336D01*
X105841531Y-75502588D01*
X105767343Y-75541598D01*
X105756890Y-75546367D01*
X105659059Y-75583771D01*
X105564759Y-75601655D01*
X105447738Y-75605246D01*
X105341190Y-75598180D01*
X105197371Y-75562134D01*
X105092309Y-75495323D01*
X105025406Y-75397298D01*
X104996060Y-75267613D01*
X105002001Y-75143456D01*
X105044886Y-75038734D01*
X105127124Y-74961307D01*
X105250365Y-74909663D01*
X105416256Y-74882290D01*
X105524048Y-74867943D01*
X105622434Y-74836901D01*
X105673229Y-74791947D01*
X105676296Y-74733162D01*
X105655854Y-74696507D01*
X105592546Y-74653065D01*
X105502551Y-74632517D01*
X105397087Y-74635327D01*
X105287374Y-74661958D01*
X105184632Y-74712872D01*
X105082196Y-74780661D01*
X104992098Y-74689492D01*
X104902000Y-74598324D01*
X104976705Y-74537345D01*
X105005754Y-74516158D01*
X105087483Y-74468022D01*
X105175921Y-74426543D01*
X105245913Y-74402738D01*
X105348398Y-74385496D01*
X105474745Y-74385268D01*
X105629682Y-74404252D01*
G36*
X107859476Y-74427029D02*
G01*
X107916865Y-74455143D01*
X107945336Y-74459346D01*
X107952490Y-74439480D01*
X107964368Y-74417174D01*
X108006884Y-74405424D01*
X108089451Y-74402078D01*
X108226411Y-74402078D01*
X108226411Y-75597372D01*
X107952490Y-75597372D01*
X107952490Y-75209755D01*
X107950389Y-75035376D01*
X107942167Y-74894540D01*
X107925509Y-74792175D01*
X107898109Y-74722542D01*
X107857657Y-74679907D01*
X107801848Y-74658532D01*
X107728372Y-74652682D01*
X107658217Y-74657903D01*
X107601557Y-74678341D01*
X107560374Y-74719746D01*
X107532360Y-74787853D01*
X107515207Y-74888400D01*
X107506608Y-75027121D01*
X107504254Y-75209755D01*
X107504254Y-75597372D01*
X107255235Y-75597372D01*
X107255235Y-75130072D01*
X107255662Y-75005341D01*
X107258982Y-74844045D01*
X107267313Y-74721035D01*
X107282674Y-74629271D01*
X107307081Y-74561709D01*
X107342553Y-74511309D01*
X107391108Y-74471029D01*
X107454765Y-74433826D01*
X107588438Y-74386730D01*
X107727945Y-74383658D01*
X107859476Y-74427029D01*
G37*
X107859476Y-74427029D02*
X107916865Y-74455143D01*
X107945336Y-74459346D01*
X107952490Y-74439480D01*
X107964368Y-74417174D01*
X108006884Y-74405424D01*
X108089451Y-74402078D01*
X108226411Y-74402078D01*
X108226411Y-75597372D01*
X107952490Y-75597372D01*
X107952490Y-75209755D01*
X107950389Y-75035376D01*
X107942167Y-74894540D01*
X107925509Y-74792175D01*
X107898109Y-74722542D01*
X107857657Y-74679907D01*
X107801848Y-74658532D01*
X107728372Y-74652682D01*
X107658217Y-74657903D01*
X107601557Y-74678341D01*
X107560374Y-74719746D01*
X107532360Y-74787853D01*
X107515207Y-74888400D01*
X107506608Y-75027121D01*
X107504254Y-75209755D01*
X107504254Y-75597372D01*
X107255235Y-75597372D01*
X107255235Y-75130072D01*
X107255662Y-75005341D01*
X107258982Y-74844045D01*
X107267313Y-74721035D01*
X107282674Y-74629271D01*
X107307081Y-74561709D01*
X107342553Y-74511309D01*
X107391108Y-74471029D01*
X107454765Y-74433826D01*
X107588438Y-74386730D01*
X107727945Y-74383658D01*
X107859476Y-74427029D01*
G36*
X102147714Y-74974892D02*
G01*
X102149891Y-74898776D01*
X102174441Y-74732430D01*
X102228540Y-74601272D01*
X102315018Y-74499899D01*
X102436705Y-74422904D01*
X102554751Y-74386961D01*
X102702839Y-74380085D01*
X102852252Y-74406532D01*
X102985528Y-74464963D01*
X103034917Y-74497468D01*
X103089332Y-74539132D01*
X103114160Y-74566548D01*
X103112753Y-74577860D01*
X103084961Y-74616403D01*
X103032728Y-74663099D01*
X102942209Y-74732142D01*
X102836142Y-74679169D01*
X102807460Y-74666057D01*
X102723029Y-74637559D01*
X102652263Y-74626196D01*
X102600081Y-74635559D01*
X102518194Y-74680649D01*
X102449363Y-74750645D01*
X102409993Y-74831637D01*
X102393953Y-74900118D01*
X103146411Y-74900118D01*
X103146272Y-75030853D01*
X103145133Y-75072287D01*
X103135749Y-75172624D01*
X103120012Y-75255651D01*
X103102764Y-75302132D01*
X103042121Y-75403231D01*
X102960906Y-75495049D01*
X102875019Y-75557963D01*
X102850204Y-75569646D01*
X102705710Y-75608400D01*
X102558158Y-75604314D01*
X102419433Y-75559118D01*
X102301421Y-75474539D01*
X102237590Y-75396539D01*
X102185399Y-75286657D01*
X102157497Y-75154389D01*
X102406827Y-75154389D01*
X102412683Y-75180265D01*
X102413577Y-75183198D01*
X102464027Y-75273241D01*
X102543558Y-75335234D01*
X102638397Y-75358314D01*
X102673453Y-75356468D01*
X102738519Y-75334389D01*
X102800939Y-75278234D01*
X102817753Y-75258379D01*
X102856863Y-75201674D01*
X102872490Y-75161195D01*
X102872005Y-75156101D01*
X102858313Y-75140240D01*
X102819622Y-75130495D01*
X102747683Y-75125587D01*
X102634243Y-75124235D01*
X102596958Y-75124251D01*
X102500127Y-75125146D01*
X102441917Y-75129012D01*
X102413694Y-75138032D01*
X102406827Y-75154389D01*
X102157497Y-75154389D01*
X102156427Y-75149315D01*
X102147714Y-74974892D01*
G37*
X102147714Y-74974892D02*
X102149891Y-74898776D01*
X102174441Y-74732430D01*
X102228540Y-74601272D01*
X102315018Y-74499899D01*
X102436705Y-74422904D01*
X102554751Y-74386961D01*
X102702839Y-74380085D01*
X102852252Y-74406532D01*
X102985528Y-74464963D01*
X103034917Y-74497468D01*
X103089332Y-74539132D01*
X103114160Y-74566548D01*
X103112753Y-74577860D01*
X103084961Y-74616403D01*
X103032728Y-74663099D01*
X102942209Y-74732142D01*
X102836142Y-74679169D01*
X102807460Y-74666057D01*
X102723029Y-74637559D01*
X102652263Y-74626196D01*
X102600081Y-74635559D01*
X102518194Y-74680649D01*
X102449363Y-74750645D01*
X102409993Y-74831637D01*
X102393953Y-74900118D01*
X103146411Y-74900118D01*
X103146272Y-75030853D01*
X103145133Y-75072287D01*
X103135749Y-75172624D01*
X103120012Y-75255651D01*
X103102764Y-75302132D01*
X103042121Y-75403231D01*
X102960906Y-75495049D01*
X102875019Y-75557963D01*
X102850204Y-75569646D01*
X102705710Y-75608400D01*
X102558158Y-75604314D01*
X102419433Y-75559118D01*
X102301421Y-75474539D01*
X102237590Y-75396539D01*
X102185399Y-75286657D01*
X102157497Y-75154389D01*
X102406827Y-75154389D01*
X102412683Y-75180265D01*
X102413577Y-75183198D01*
X102464027Y-75273241D01*
X102543558Y-75335234D01*
X102638397Y-75358314D01*
X102673453Y-75356468D01*
X102738519Y-75334389D01*
X102800939Y-75278234D01*
X102817753Y-75258379D01*
X102856863Y-75201674D01*
X102872490Y-75161195D01*
X102872005Y-75156101D01*
X102858313Y-75140240D01*
X102819622Y-75130495D01*
X102747683Y-75125587D01*
X102634243Y-75124235D01*
X102596958Y-75124251D01*
X102500127Y-75125146D01*
X102441917Y-75129012D01*
X102413694Y-75138032D01*
X102406827Y-75154389D01*
X102157497Y-75154389D01*
X102156427Y-75149315D01*
X102147714Y-74974892D01*
G36*
X106974281Y-72724211D02*
G01*
X107039568Y-72627495D01*
X107138602Y-72557923D01*
X107148321Y-72553695D01*
X107256680Y-72523233D01*
X107378777Y-72511358D01*
X107494862Y-72518618D01*
X107585186Y-72545559D01*
X107621266Y-72563135D01*
X107647744Y-72567326D01*
X107653666Y-72545406D01*
X107664884Y-72525134D01*
X107708287Y-72513062D01*
X107792531Y-72509529D01*
X107931396Y-72509529D01*
X107923266Y-72988892D01*
X107921057Y-73099742D01*
X107915239Y-73265695D01*
X107905433Y-73392591D01*
X107889701Y-73487346D01*
X107866106Y-73556880D01*
X107832709Y-73608110D01*
X107787573Y-73647954D01*
X107728761Y-73683331D01*
X107698420Y-73696837D01*
X107593459Y-73722331D01*
X107466866Y-73732871D01*
X107335983Y-73728650D01*
X107218155Y-73709860D01*
X107130725Y-73676695D01*
X107100313Y-73657438D01*
X107030295Y-73600364D01*
X107006597Y-73552573D01*
X107012352Y-73543338D01*
X107048218Y-73511081D01*
X107106119Y-73468050D01*
X107135721Y-73447909D01*
X107186132Y-73419371D01*
X107218890Y-73416646D01*
X107249305Y-73436343D01*
X107325108Y-73476234D01*
X107427105Y-73492639D01*
X107531339Y-73480080D01*
X107533311Y-73479511D01*
X107606829Y-73447569D01*
X107643219Y-73397572D01*
X107653285Y-73314884D01*
X107653666Y-73236220D01*
X107393770Y-73227727D01*
X107352364Y-73226330D01*
X107247973Y-73221472D01*
X107177990Y-73213839D01*
X107130687Y-73200575D01*
X107094332Y-73178819D01*
X107057196Y-73145715D01*
X106995880Y-73069145D01*
X106950941Y-72955843D01*
X106946535Y-72877878D01*
X107191633Y-72877878D01*
X107215631Y-72945372D01*
X107229633Y-72963036D01*
X107292173Y-73002655D01*
X107391153Y-73025278D01*
X107532269Y-73032470D01*
X107653666Y-73032470D01*
X107653666Y-72945314D01*
X107644287Y-72880171D01*
X107603862Y-72808353D01*
X107588941Y-72795152D01*
X107527782Y-72767380D01*
X107435774Y-72760234D01*
X107380565Y-72763026D01*
X107277259Y-72784048D01*
X107213229Y-72823218D01*
X107191633Y-72877878D01*
X106946535Y-72877878D01*
X106944240Y-72837262D01*
X106974281Y-72724211D01*
G37*
X106974281Y-72724211D02*
X107039568Y-72627495D01*
X107138602Y-72557923D01*
X107148321Y-72553695D01*
X107256680Y-72523233D01*
X107378777Y-72511358D01*
X107494862Y-72518618D01*
X107585186Y-72545559D01*
X107621266Y-72563135D01*
X107647744Y-72567326D01*
X107653666Y-72545406D01*
X107664884Y-72525134D01*
X107708287Y-72513062D01*
X107792531Y-72509529D01*
X107931396Y-72509529D01*
X107923266Y-72988892D01*
X107921057Y-73099742D01*
X107915239Y-73265695D01*
X107905433Y-73392591D01*
X107889701Y-73487346D01*
X107866106Y-73556880D01*
X107832709Y-73608110D01*
X107787573Y-73647954D01*
X107728761Y-73683331D01*
X107698420Y-73696837D01*
X107593459Y-73722331D01*
X107466866Y-73732871D01*
X107335983Y-73728650D01*
X107218155Y-73709860D01*
X107130725Y-73676695D01*
X107100313Y-73657438D01*
X107030295Y-73600364D01*
X107006597Y-73552573D01*
X107012352Y-73543338D01*
X107048218Y-73511081D01*
X107106119Y-73468050D01*
X107135721Y-73447909D01*
X107186132Y-73419371D01*
X107218890Y-73416646D01*
X107249305Y-73436343D01*
X107325108Y-73476234D01*
X107427105Y-73492639D01*
X107531339Y-73480080D01*
X107533311Y-73479511D01*
X107606829Y-73447569D01*
X107643219Y-73397572D01*
X107653285Y-73314884D01*
X107653666Y-73236220D01*
X107393770Y-73227727D01*
X107352364Y-73226330D01*
X107247973Y-73221472D01*
X107177990Y-73213839D01*
X107130687Y-73200575D01*
X107094332Y-73178819D01*
X107057196Y-73145715D01*
X106995880Y-73069145D01*
X106950941Y-72955843D01*
X106946535Y-72877878D01*
X107191633Y-72877878D01*
X107215631Y-72945372D01*
X107229633Y-72963036D01*
X107292173Y-73002655D01*
X107391153Y-73025278D01*
X107532269Y-73032470D01*
X107653666Y-73032470D01*
X107653666Y-72945314D01*
X107644287Y-72880171D01*
X107603862Y-72808353D01*
X107588941Y-72795152D01*
X107527782Y-72767380D01*
X107435774Y-72760234D01*
X107380565Y-72763026D01*
X107277259Y-72784048D01*
X107213229Y-72823218D01*
X107191633Y-72877878D01*
X106946535Y-72877878D01*
X106944240Y-72837262D01*
X106974281Y-72724211D01*
G36*
X104172178Y-72919968D02*
G01*
X104178526Y-72845808D01*
X104179614Y-72839011D01*
X104222340Y-72717445D01*
X104300366Y-72614381D01*
X104402726Y-72544556D01*
X104512646Y-72515654D01*
X104647849Y-72517897D01*
X104772224Y-72556649D01*
X104804621Y-72573002D01*
X104846280Y-72590525D01*
X104862133Y-72585073D01*
X104864647Y-72556649D01*
X104865801Y-72542475D01*
X104880708Y-72521512D01*
X104922111Y-72511860D01*
X105001607Y-72509529D01*
X105138568Y-72509529D01*
X105138568Y-74202863D01*
X104864647Y-74202863D01*
X104864647Y-73622399D01*
X104813910Y-73668315D01*
X104765058Y-73696854D01*
X104672598Y-73720710D01*
X104564515Y-73728397D01*
X104458964Y-73718960D01*
X104374100Y-73691443D01*
X104313359Y-73652301D01*
X104250793Y-73585621D01*
X104208685Y-73495947D01*
X104183373Y-73374645D01*
X104171194Y-73213082D01*
X104169404Y-73147775D01*
X104169275Y-73106948D01*
X104441289Y-73106948D01*
X104443274Y-73216716D01*
X104453801Y-73313173D01*
X104473124Y-73380257D01*
X104479297Y-73391258D01*
X104538807Y-73446547D01*
X104619454Y-73471041D01*
X104706067Y-73465344D01*
X104783478Y-73430060D01*
X104836514Y-73365792D01*
X104838706Y-73360387D01*
X104851857Y-73300079D01*
X104861134Y-73209961D01*
X104864647Y-73107393D01*
X104862684Y-73003819D01*
X104854717Y-72934862D01*
X104837708Y-72887621D01*
X104808617Y-72848032D01*
X104731804Y-72789169D01*
X104641914Y-72769436D01*
X104554746Y-72793838D01*
X104481331Y-72861910D01*
X104461925Y-72911722D01*
X104447590Y-72999930D01*
X104441289Y-73106948D01*
X104169275Y-73106948D01*
X104169021Y-73026430D01*
X104172178Y-72919968D01*
G37*
X104172178Y-72919968D02*
X104178526Y-72845808D01*
X104179614Y-72839011D01*
X104222340Y-72717445D01*
X104300366Y-72614381D01*
X104402726Y-72544556D01*
X104512646Y-72515654D01*
X104647849Y-72517897D01*
X104772224Y-72556649D01*
X104804621Y-72573002D01*
X104846280Y-72590525D01*
X104862133Y-72585073D01*
X104864647Y-72556649D01*
X104865801Y-72542475D01*
X104880708Y-72521512D01*
X104922111Y-72511860D01*
X105001607Y-72509529D01*
X105138568Y-72509529D01*
X105138568Y-74202863D01*
X104864647Y-74202863D01*
X104864647Y-73622399D01*
X104813910Y-73668315D01*
X104765058Y-73696854D01*
X104672598Y-73720710D01*
X104564515Y-73728397D01*
X104458964Y-73718960D01*
X104374100Y-73691443D01*
X104313359Y-73652301D01*
X104250793Y-73585621D01*
X104208685Y-73495947D01*
X104183373Y-73374645D01*
X104171194Y-73213082D01*
X104169404Y-73147775D01*
X104169275Y-73106948D01*
X104441289Y-73106948D01*
X104443274Y-73216716D01*
X104453801Y-73313173D01*
X104473124Y-73380257D01*
X104479297Y-73391258D01*
X104538807Y-73446547D01*
X104619454Y-73471041D01*
X104706067Y-73465344D01*
X104783478Y-73430060D01*
X104836514Y-73365792D01*
X104838706Y-73360387D01*
X104851857Y-73300079D01*
X104861134Y-73209961D01*
X104864647Y-73107393D01*
X104862684Y-73003819D01*
X104854717Y-72934862D01*
X104837708Y-72887621D01*
X104808617Y-72848032D01*
X104731804Y-72789169D01*
X104641914Y-72769436D01*
X104554746Y-72793838D01*
X104481331Y-72861910D01*
X104461925Y-72911722D01*
X104447590Y-72999930D01*
X104441289Y-73106948D01*
X104169275Y-73106948D01*
X104169021Y-73026430D01*
X104172178Y-72919968D01*
G36*
X108724451Y-75226221D02*
G01*
X108792546Y-75289330D01*
X108813820Y-75307265D01*
X108877189Y-75337909D01*
X108955224Y-75339137D01*
X109061480Y-75312097D01*
X109097299Y-75310385D01*
X109139317Y-75336617D01*
X109195243Y-75398965D01*
X109222372Y-75433453D01*
X109254457Y-75482148D01*
X109259401Y-75513145D01*
X109241437Y-75539293D01*
X109186290Y-75572359D01*
X109100637Y-75598528D01*
X109007708Y-75611504D01*
X108929158Y-75606619D01*
X108868111Y-75587561D01*
X108792931Y-75555885D01*
X108756531Y-75538862D01*
X108730260Y-75535785D01*
X108724451Y-75559380D01*
X108724445Y-75560048D01*
X108712144Y-75582574D01*
X108669719Y-75594121D01*
X108587490Y-75597372D01*
X108450529Y-75597372D01*
X108450529Y-74402078D01*
X108724451Y-74402078D01*
X108724451Y-75226221D01*
G37*
X108724451Y-75226221D02*
X108792546Y-75289330D01*
X108813820Y-75307265D01*
X108877189Y-75337909D01*
X108955224Y-75339137D01*
X109061480Y-75312097D01*
X109097299Y-75310385D01*
X109139317Y-75336617D01*
X109195243Y-75398965D01*
X109222372Y-75433453D01*
X109254457Y-75482148D01*
X109259401Y-75513145D01*
X109241437Y-75539293D01*
X109186290Y-75572359D01*
X109100637Y-75598528D01*
X109007708Y-75611504D01*
X108929158Y-75606619D01*
X108868111Y-75587561D01*
X108792931Y-75555885D01*
X108756531Y-75538862D01*
X108730260Y-75535785D01*
X108724451Y-75559380D01*
X108724445Y-75560048D01*
X108712144Y-75582574D01*
X108669719Y-75594121D01*
X108587490Y-75597372D01*
X108450529Y-75597372D01*
X108450529Y-74402078D01*
X108724451Y-74402078D01*
X108724451Y-75226221D01*
G36*
X110254640Y-74889368D02*
G01*
X110255057Y-74885620D01*
X110290861Y-74710729D01*
X110355551Y-74574753D01*
X110451141Y-74474704D01*
X110579647Y-74407595D01*
X110603236Y-74399921D01*
X110749449Y-74377304D01*
X110900666Y-74389916D01*
X111041250Y-74434983D01*
X111155563Y-74509731D01*
X111241188Y-74588843D01*
X111150173Y-74660809D01*
X111059158Y-74732776D01*
X110949472Y-74679486D01*
X110822555Y-74636305D01*
X110710512Y-74635013D01*
X110618843Y-74674686D01*
X110552877Y-74754317D01*
X110529229Y-74802032D01*
X110516028Y-74842811D01*
X110523666Y-74870359D01*
X110557937Y-74887269D01*
X110624632Y-74896136D01*
X110729546Y-74899555D01*
X110878470Y-74900118D01*
X111239549Y-74900118D01*
X111239549Y-75072810D01*
X111236298Y-75164147D01*
X111226754Y-75254516D01*
X111213119Y-75315604D01*
X111203180Y-75338926D01*
X111130834Y-75442798D01*
X111026300Y-75529431D01*
X110904051Y-75586155D01*
X110840287Y-75601645D01*
X110688355Y-75608696D01*
X110552978Y-75572826D01*
X110437878Y-75498026D01*
X110346773Y-75388289D01*
X110283385Y-75247605D01*
X110264393Y-75147965D01*
X110517392Y-75147965D01*
X110523337Y-75186544D01*
X110565238Y-75260366D01*
X110635062Y-75321010D01*
X110718301Y-75357638D01*
X110800446Y-75359411D01*
X110862279Y-75330040D01*
X110932344Y-75263200D01*
X110976894Y-75180265D01*
X110979504Y-75171438D01*
X110982615Y-75148624D01*
X110970405Y-75134679D01*
X110934252Y-75127422D01*
X110865537Y-75124668D01*
X110755638Y-75124235D01*
X110696706Y-75124927D01*
X110603710Y-75129500D01*
X110540627Y-75137509D01*
X110517392Y-75147965D01*
X110264393Y-75147965D01*
X110251434Y-75079968D01*
X110254640Y-74889368D01*
G37*
X110254640Y-74889368D02*
X110255057Y-74885620D01*
X110290861Y-74710729D01*
X110355551Y-74574753D01*
X110451141Y-74474704D01*
X110579647Y-74407595D01*
X110603236Y-74399921D01*
X110749449Y-74377304D01*
X110900666Y-74389916D01*
X111041250Y-74434983D01*
X111155563Y-74509731D01*
X111241188Y-74588843D01*
X111150173Y-74660809D01*
X111059158Y-74732776D01*
X110949472Y-74679486D01*
X110822555Y-74636305D01*
X110710512Y-74635013D01*
X110618843Y-74674686D01*
X110552877Y-74754317D01*
X110529229Y-74802032D01*
X110516028Y-74842811D01*
X110523666Y-74870359D01*
X110557937Y-74887269D01*
X110624632Y-74896136D01*
X110729546Y-74899555D01*
X110878470Y-74900118D01*
X111239549Y-74900118D01*
X111239549Y-75072810D01*
X111236298Y-75164147D01*
X111226754Y-75254516D01*
X111213119Y-75315604D01*
X111203180Y-75338926D01*
X111130834Y-75442798D01*
X111026300Y-75529431D01*
X110904051Y-75586155D01*
X110840287Y-75601645D01*
X110688355Y-75608696D01*
X110552978Y-75572826D01*
X110437878Y-75498026D01*
X110346773Y-75388289D01*
X110283385Y-75247605D01*
X110264393Y-75147965D01*
X110517392Y-75147965D01*
X110523337Y-75186544D01*
X110565238Y-75260366D01*
X110635062Y-75321010D01*
X110718301Y-75357638D01*
X110800446Y-75359411D01*
X110862279Y-75330040D01*
X110932344Y-75263200D01*
X110976894Y-75180265D01*
X110979504Y-75171438D01*
X110982615Y-75148624D01*
X110970405Y-75134679D01*
X110934252Y-75127422D01*
X110865537Y-75124668D01*
X110755638Y-75124235D01*
X110696706Y-75124927D01*
X110603710Y-75129500D01*
X110540627Y-75137509D01*
X110517392Y-75147965D01*
X110264393Y-75147965D01*
X110251434Y-75079968D01*
X110254640Y-74889368D01*
G36*
X101160480Y-72514453D02*
G01*
X101291215Y-72521980D01*
X101297431Y-72920412D01*
X101299270Y-73017296D01*
X101304490Y-73162854D01*
X101313450Y-73269666D01*
X101327797Y-73344913D01*
X101349179Y-73395773D01*
X101379241Y-73429426D01*
X101419633Y-73453053D01*
X101495422Y-73477182D01*
X101570793Y-73467806D01*
X101650383Y-73416237D01*
X101727000Y-73351769D01*
X101727000Y-72509529D01*
X102000921Y-72509529D01*
X102000921Y-72966299D01*
X102000658Y-73109469D01*
X101999201Y-73236691D01*
X101995699Y-73329816D01*
X101989303Y-73397287D01*
X101979165Y-73447546D01*
X101964437Y-73489034D01*
X101944271Y-73530195D01*
X101939490Y-73538934D01*
X101875899Y-73624046D01*
X101801473Y-73683524D01*
X101711745Y-73714755D01*
X101592928Y-73728658D01*
X101473941Y-73721128D01*
X101377135Y-73691733D01*
X101303666Y-73653741D01*
X101303666Y-74475985D01*
X101404333Y-74423514D01*
X101446384Y-74404451D01*
X101579114Y-74377494D01*
X101711021Y-74396126D01*
X101833295Y-74458071D01*
X101937128Y-74561057D01*
X101953394Y-74585262D01*
X101969027Y-74620744D01*
X101979224Y-74668985D01*
X101985112Y-74739243D01*
X101987818Y-74840779D01*
X101988470Y-74982851D01*
X101988247Y-75047676D01*
X101984430Y-75198462D01*
X101973797Y-75311104D01*
X101953665Y-75394115D01*
X101921347Y-75456009D01*
X101874158Y-75505300D01*
X101809412Y-75550501D01*
X101756909Y-75576440D01*
X101632429Y-75605047D01*
X101501219Y-75601149D01*
X101384598Y-75564065D01*
X101334547Y-75539824D01*
X101309374Y-75537319D01*
X101303666Y-75559380D01*
X101303661Y-75560048D01*
X101291360Y-75582574D01*
X101248935Y-75594121D01*
X101166705Y-75597372D01*
X101029745Y-75597372D01*
X101029745Y-74979418D01*
X101303666Y-74979418D01*
X101305472Y-75052746D01*
X101323499Y-75191167D01*
X101360692Y-75284767D01*
X101416841Y-75332884D01*
X101473551Y-75346421D01*
X101572314Y-75340075D01*
X101655760Y-75300777D01*
X101675732Y-75282756D01*
X101696895Y-75251578D01*
X101709979Y-75205167D01*
X101717749Y-75132000D01*
X101722968Y-75020552D01*
X101725241Y-74946572D01*
X101725019Y-74858221D01*
X101718265Y-74799300D01*
X101703084Y-74757248D01*
X101677583Y-74719501D01*
X101645189Y-74684406D01*
X101593386Y-74657846D01*
X101515333Y-74651098D01*
X101446382Y-74656971D01*
X101378135Y-74686359D01*
X101334182Y-74745893D01*
X101310650Y-74841577D01*
X101303666Y-74979418D01*
X101029745Y-74979418D01*
X101029745Y-72506927D01*
X101160480Y-72514453D01*
G37*
X101160480Y-72514453D02*
X101291215Y-72521980D01*
X101297431Y-72920412D01*
X101299270Y-73017296D01*
X101304490Y-73162854D01*
X101313450Y-73269666D01*
X101327797Y-73344913D01*
X101349179Y-73395773D01*
X101379241Y-73429426D01*
X101419633Y-73453053D01*
X101495422Y-73477182D01*
X101570793Y-73467806D01*
X101650383Y-73416237D01*
X101727000Y-73351769D01*
X101727000Y-72509529D01*
X102000921Y-72509529D01*
X102000921Y-72966299D01*
X102000658Y-73109469D01*
X101999201Y-73236691D01*
X101995699Y-73329816D01*
X101989303Y-73397287D01*
X101979165Y-73447546D01*
X101964437Y-73489034D01*
X101944271Y-73530195D01*
X101939490Y-73538934D01*
X101875899Y-73624046D01*
X101801473Y-73683524D01*
X101711745Y-73714755D01*
X101592928Y-73728658D01*
X101473941Y-73721128D01*
X101377135Y-73691733D01*
X101303666Y-73653741D01*
X101303666Y-74475985D01*
X101404333Y-74423514D01*
X101446384Y-74404451D01*
X101579114Y-74377494D01*
X101711021Y-74396126D01*
X101833295Y-74458071D01*
X101937128Y-74561057D01*
X101953394Y-74585262D01*
X101969027Y-74620744D01*
X101979224Y-74668985D01*
X101985112Y-74739243D01*
X101987818Y-74840779D01*
X101988470Y-74982851D01*
X101988247Y-75047676D01*
X101984430Y-75198462D01*
X101973797Y-75311104D01*
X101953665Y-75394115D01*
X101921347Y-75456009D01*
X101874158Y-75505300D01*
X101809412Y-75550501D01*
X101756909Y-75576440D01*
X101632429Y-75605047D01*
X101501219Y-75601149D01*
X101384598Y-75564065D01*
X101334547Y-75539824D01*
X101309374Y-75537319D01*
X101303666Y-75559380D01*
X101303661Y-75560048D01*
X101291360Y-75582574D01*
X101248935Y-75594121D01*
X101166705Y-75597372D01*
X101029745Y-75597372D01*
X101029745Y-74979418D01*
X101303666Y-74979418D01*
X101305472Y-75052746D01*
X101323499Y-75191167D01*
X101360692Y-75284767D01*
X101416841Y-75332884D01*
X101473551Y-75346421D01*
X101572314Y-75340075D01*
X101655760Y-75300777D01*
X101675732Y-75282756D01*
X101696895Y-75251578D01*
X101709979Y-75205167D01*
X101717749Y-75132000D01*
X101722968Y-75020552D01*
X101725241Y-74946572D01*
X101725019Y-74858221D01*
X101718265Y-74799300D01*
X101703084Y-74757248D01*
X101677583Y-74719501D01*
X101645189Y-74684406D01*
X101593386Y-74657846D01*
X101515333Y-74651098D01*
X101446382Y-74656971D01*
X101378135Y-74686359D01*
X101334182Y-74745893D01*
X101310650Y-74841577D01*
X101303666Y-74979418D01*
X101029745Y-74979418D01*
X101029745Y-72506927D01*
X101160480Y-72514453D01*
G36*
X109992236Y-74424451D02*
G01*
X110131749Y-74508454D01*
X110222046Y-74582884D01*
X110140716Y-74666795D01*
X110089335Y-74716504D01*
X110042859Y-74744180D01*
X109999765Y-74738086D01*
X109944647Y-74700902D01*
X109922669Y-74686345D01*
X109829822Y-74656551D01*
X109723105Y-74656569D01*
X109623192Y-74687277D01*
X109585571Y-74711936D01*
X109530387Y-74784755D01*
X109502722Y-74891710D01*
X109500942Y-75037483D01*
X109500947Y-75037565D01*
X109521530Y-75167986D01*
X109566872Y-75258413D01*
X109641482Y-75314348D01*
X109749872Y-75341296D01*
X109818129Y-75344921D01*
X109877769Y-75330079D01*
X109938935Y-75287082D01*
X110018088Y-75220480D01*
X110118328Y-75301035D01*
X110154950Y-75331895D01*
X110200693Y-75376111D01*
X110218568Y-75402168D01*
X110212238Y-75413911D01*
X110175779Y-75449964D01*
X110117699Y-75495815D01*
X110072256Y-75525652D01*
X109927976Y-75586944D01*
X109777417Y-75608346D01*
X109629659Y-75591671D01*
X109493782Y-75538733D01*
X109378865Y-75451345D01*
X109293987Y-75331320D01*
X109288255Y-75319082D01*
X109251865Y-75199719D01*
X109233684Y-75057136D01*
X109233827Y-74908682D01*
X109252410Y-74771703D01*
X109289548Y-74663549D01*
X109335401Y-74588169D01*
X109436331Y-74481380D01*
X109562531Y-74413500D01*
X109670503Y-74386050D01*
X109834912Y-74383053D01*
X109992236Y-74424451D01*
G37*
X109992236Y-74424451D02*
X110131749Y-74508454D01*
X110222046Y-74582884D01*
X110140716Y-74666795D01*
X110089335Y-74716504D01*
X110042859Y-74744180D01*
X109999765Y-74738086D01*
X109944647Y-74700902D01*
X109922669Y-74686345D01*
X109829822Y-74656551D01*
X109723105Y-74656569D01*
X109623192Y-74687277D01*
X109585571Y-74711936D01*
X109530387Y-74784755D01*
X109502722Y-74891710D01*
X109500942Y-75037483D01*
X109500947Y-75037565D01*
X109521530Y-75167986D01*
X109566872Y-75258413D01*
X109641482Y-75314348D01*
X109749872Y-75341296D01*
X109818129Y-75344921D01*
X109877769Y-75330079D01*
X109938935Y-75287082D01*
X110018088Y-75220480D01*
X110118328Y-75301035D01*
X110154950Y-75331895D01*
X110200693Y-75376111D01*
X110218568Y-75402168D01*
X110212238Y-75413911D01*
X110175779Y-75449964D01*
X110117699Y-75495815D01*
X110072256Y-75525652D01*
X109927976Y-75586944D01*
X109777417Y-75608346D01*
X109629659Y-75591671D01*
X109493782Y-75538733D01*
X109378865Y-75451345D01*
X109293987Y-75331320D01*
X109288255Y-75319082D01*
X109251865Y-75199719D01*
X109233684Y-75057136D01*
X109233827Y-74908682D01*
X109252410Y-74771703D01*
X109289548Y-74663549D01*
X109335401Y-74588169D01*
X109436331Y-74481380D01*
X109562531Y-74413500D01*
X109670503Y-74386050D01*
X109834912Y-74383053D01*
X109992236Y-74424451D01*
G36*
X102156159Y-72838156D02*
G01*
X102186503Y-72710228D01*
X102253998Y-72614014D01*
X102362000Y-72544682D01*
X102417811Y-72527814D01*
X102513407Y-72514667D01*
X102617945Y-72511528D01*
X102712262Y-72518763D01*
X102777192Y-72536738D01*
X102816630Y-72551136D01*
X102855242Y-72536738D01*
X102869366Y-72528396D01*
X102925739Y-72514869D01*
X103001980Y-72509529D01*
X103121509Y-72509529D01*
X103121509Y-72991435D01*
X103121500Y-73033110D01*
X103121046Y-73190190D01*
X103119342Y-73306971D01*
X103115615Y-73391212D01*
X103109089Y-73450671D01*
X103098992Y-73493109D01*
X103084548Y-73526284D01*
X103064984Y-73557955D01*
X103002051Y-73632163D01*
X102912870Y-73688820D01*
X102795720Y-73720078D01*
X102641347Y-73729687D01*
X102636329Y-73729677D01*
X102529020Y-73724830D01*
X102432972Y-73712748D01*
X102367425Y-73695809D01*
X102349455Y-73687321D01*
X102292260Y-73651373D01*
X102240501Y-73608648D01*
X102206447Y-73570200D01*
X102202365Y-73547084D01*
X102210331Y-73540836D01*
X102297125Y-73474145D01*
X102355161Y-73434812D01*
X102393535Y-73418943D01*
X102421341Y-73422641D01*
X102447673Y-73442010D01*
X102496270Y-73466191D01*
X102578167Y-73482313D01*
X102670727Y-73486495D01*
X102754481Y-73477985D01*
X102809965Y-73456028D01*
X102812884Y-73453356D01*
X102837817Y-73403164D01*
X102847588Y-73328245D01*
X102847588Y-73231686D01*
X102617245Y-73231593D01*
X102511435Y-73229918D01*
X102422368Y-73222632D01*
X102358655Y-73207643D01*
X102307179Y-73182890D01*
X102295200Y-73175288D01*
X102208534Y-73091718D01*
X102162436Y-72981210D01*
X102158540Y-72898192D01*
X102399353Y-72898192D01*
X102418023Y-72949361D01*
X102479741Y-72993852D01*
X102578953Y-73022395D01*
X102709827Y-73032470D01*
X102847588Y-73032470D01*
X102847588Y-72936722D01*
X102838381Y-72863857D01*
X102802049Y-72799761D01*
X102781256Y-72785890D01*
X102707042Y-72764269D01*
X102614390Y-72758871D01*
X102523532Y-72769838D01*
X102454697Y-72797314D01*
X102420405Y-72833642D01*
X102399353Y-72898192D01*
X102158540Y-72898192D01*
X102155877Y-72841441D01*
X102156159Y-72838156D01*
G37*
X102156159Y-72838156D02*
X102186503Y-72710228D01*
X102253998Y-72614014D01*
X102362000Y-72544682D01*
X102417811Y-72527814D01*
X102513407Y-72514667D01*
X102617945Y-72511528D01*
X102712262Y-72518763D01*
X102777192Y-72536738D01*
X102816630Y-72551136D01*
X102855242Y-72536738D01*
X102869366Y-72528396D01*
X102925739Y-72514869D01*
X103001980Y-72509529D01*
X103121509Y-72509529D01*
X103121509Y-72991435D01*
X103121500Y-73033110D01*
X103121046Y-73190190D01*
X103119342Y-73306971D01*
X103115615Y-73391212D01*
X103109089Y-73450671D01*
X103098992Y-73493109D01*
X103084548Y-73526284D01*
X103064984Y-73557955D01*
X103002051Y-73632163D01*
X102912870Y-73688820D01*
X102795720Y-73720078D01*
X102641347Y-73729687D01*
X102636329Y-73729677D01*
X102529020Y-73724830D01*
X102432972Y-73712748D01*
X102367425Y-73695809D01*
X102349455Y-73687321D01*
X102292260Y-73651373D01*
X102240501Y-73608648D01*
X102206447Y-73570200D01*
X102202365Y-73547084D01*
X102210331Y-73540836D01*
X102297125Y-73474145D01*
X102355161Y-73434812D01*
X102393535Y-73418943D01*
X102421341Y-73422641D01*
X102447673Y-73442010D01*
X102496270Y-73466191D01*
X102578167Y-73482313D01*
X102670727Y-73486495D01*
X102754481Y-73477985D01*
X102809965Y-73456028D01*
X102812884Y-73453356D01*
X102837817Y-73403164D01*
X102847588Y-73328245D01*
X102847588Y-73231686D01*
X102617245Y-73231593D01*
X102511435Y-73229918D01*
X102422368Y-73222632D01*
X102358655Y-73207643D01*
X102307179Y-73182890D01*
X102295200Y-73175288D01*
X102208534Y-73091718D01*
X102162436Y-72981210D01*
X102158540Y-72898192D01*
X102399353Y-72898192D01*
X102418023Y-72949361D01*
X102479741Y-72993852D01*
X102578953Y-73022395D01*
X102709827Y-73032470D01*
X102847588Y-73032470D01*
X102847588Y-72936722D01*
X102838381Y-72863857D01*
X102802049Y-72799761D01*
X102781256Y-72785890D01*
X102707042Y-72764269D01*
X102614390Y-72758871D01*
X102523532Y-72769838D01*
X102454697Y-72797314D01*
X102420405Y-72833642D01*
X102399353Y-72898192D01*
X102158540Y-72898192D01*
X102155877Y-72841441D01*
X102156159Y-72838156D01*
G36*
X106568589Y-72521980D02*
G01*
X106675530Y-72858157D01*
X106722481Y-73005872D01*
X106775074Y-73171542D01*
X106825435Y-73330362D01*
X106867122Y-73462029D01*
X106951773Y-73729725D01*
X106668571Y-73729725D01*
X106599928Y-73474480D01*
X106581679Y-73407037D01*
X106547167Y-73281303D01*
X106515207Y-73166917D01*
X106490911Y-73082274D01*
X106450537Y-72945314D01*
X106321776Y-73331294D01*
X106193014Y-73717274D01*
X106094528Y-73724668D01*
X105996041Y-73732061D01*
X105867730Y-73338703D01*
X105834064Y-73238259D01*
X105794239Y-73127065D01*
X105760983Y-73042828D01*
X105737046Y-72992413D01*
X105725176Y-72982682D01*
X105722312Y-72991144D01*
X105706809Y-73043047D01*
X105682117Y-73129735D01*
X105650977Y-73241503D01*
X105616130Y-73368647D01*
X105521326Y-73717274D01*
X105376574Y-73724837D01*
X105364355Y-73725443D01*
X105286297Y-73726245D01*
X105248788Y-73718232D01*
X105244011Y-73699935D01*
X105250045Y-73682066D01*
X105269897Y-73620905D01*
X105300977Y-73524040D01*
X105341070Y-73398398D01*
X105387963Y-73250909D01*
X105439439Y-73088500D01*
X105622679Y-72509529D01*
X105851895Y-72509529D01*
X105959899Y-72876833D01*
X105979842Y-72944280D01*
X106016700Y-73066899D01*
X106048195Y-73169070D01*
X106071490Y-73241664D01*
X106083750Y-73275554D01*
X106087243Y-73278082D01*
X106104242Y-73256222D01*
X106128511Y-73198414D01*
X106156018Y-73113691D01*
X106157472Y-73108715D01*
X106194300Y-72983678D01*
X106236438Y-72842104D01*
X106275050Y-72713684D01*
X106337661Y-72506956D01*
X106568589Y-72521980D01*
G37*
X106568589Y-72521980D02*
X106675530Y-72858157D01*
X106722481Y-73005872D01*
X106775074Y-73171542D01*
X106825435Y-73330362D01*
X106867122Y-73462029D01*
X106951773Y-73729725D01*
X106668571Y-73729725D01*
X106599928Y-73474480D01*
X106581679Y-73407037D01*
X106547167Y-73281303D01*
X106515207Y-73166917D01*
X106490911Y-73082274D01*
X106450537Y-72945314D01*
X106321776Y-73331294D01*
X106193014Y-73717274D01*
X106094528Y-73724668D01*
X105996041Y-73732061D01*
X105867730Y-73338703D01*
X105834064Y-73238259D01*
X105794239Y-73127065D01*
X105760983Y-73042828D01*
X105737046Y-72992413D01*
X105725176Y-72982682D01*
X105722312Y-72991144D01*
X105706809Y-73043047D01*
X105682117Y-73129735D01*
X105650977Y-73241503D01*
X105616130Y-73368647D01*
X105521326Y-73717274D01*
X105376574Y-73724837D01*
X105364355Y-73725443D01*
X105286297Y-73726245D01*
X105248788Y-73718232D01*
X105244011Y-73699935D01*
X105250045Y-73682066D01*
X105269897Y-73620905D01*
X105300977Y-73524040D01*
X105341070Y-73398398D01*
X105387963Y-73250909D01*
X105439439Y-73088500D01*
X105622679Y-72509529D01*
X105851895Y-72509529D01*
X105959899Y-72876833D01*
X105979842Y-72944280D01*
X106016700Y-73066899D01*
X106048195Y-73169070D01*
X106071490Y-73241664D01*
X106083750Y-73275554D01*
X106087243Y-73278082D01*
X106104242Y-73256222D01*
X106128511Y-73198414D01*
X106156018Y-73113691D01*
X106157472Y-73108715D01*
X106194300Y-72983678D01*
X106236438Y-72842104D01*
X106275050Y-72713684D01*
X106337661Y-72506956D01*
X106568589Y-72521980D01*
G36*
X108977498Y-73026670D02*
G01*
X109006990Y-72848895D01*
X109067671Y-72709108D01*
X109160078Y-72606311D01*
X109284745Y-72539504D01*
X109325024Y-72527700D01*
X109468847Y-72511214D01*
X109620711Y-72525127D01*
X109757882Y-72568065D01*
X109806206Y-72592435D01*
X109875493Y-72634181D01*
X109917483Y-72668532D01*
X109923683Y-72676380D01*
X109935281Y-72705083D01*
X109918570Y-72736286D01*
X109867679Y-72783541D01*
X109843120Y-72804113D01*
X109794740Y-72841758D01*
X109769373Y-72857145D01*
X109762106Y-72855560D01*
X109720456Y-72838426D01*
X109658274Y-72808353D01*
X109638000Y-72798460D01*
X109518400Y-72761725D01*
X109414494Y-72771195D01*
X109323379Y-72827029D01*
X109312778Y-72837346D01*
X109262091Y-72901969D01*
X109233130Y-72963990D01*
X109217091Y-73032470D01*
X109969549Y-73032470D01*
X109969410Y-73163206D01*
X109969330Y-73176208D01*
X109953752Y-73337050D01*
X109908408Y-73467894D01*
X109829288Y-73580687D01*
X109781021Y-73628400D01*
X109681337Y-73692269D01*
X109562307Y-73723216D01*
X109411957Y-73725393D01*
X109339332Y-73716861D01*
X109205273Y-73672560D01*
X109102635Y-73591931D01*
X109030520Y-73473729D01*
X108988028Y-73316709D01*
X108983714Y-73254967D01*
X109222490Y-73254967D01*
X109242186Y-73337323D01*
X109299849Y-73414189D01*
X109383016Y-73467516D01*
X109479089Y-73485962D01*
X109549822Y-73465168D01*
X109620529Y-73414336D01*
X109674278Y-73348108D01*
X109695627Y-73281097D01*
X109692515Y-73259343D01*
X109676538Y-73244351D01*
X109638457Y-73236030D01*
X109569040Y-73232451D01*
X109459058Y-73231686D01*
X109397914Y-73232479D01*
X109307662Y-73237112D01*
X109245584Y-73244962D01*
X109222490Y-73254967D01*
X108983714Y-73254967D01*
X108974260Y-73119627D01*
X108977498Y-73026670D01*
G37*
X108977498Y-73026670D02*
X109006990Y-72848895D01*
X109067671Y-72709108D01*
X109160078Y-72606311D01*
X109284745Y-72539504D01*
X109325024Y-72527700D01*
X109468847Y-72511214D01*
X109620711Y-72525127D01*
X109757882Y-72568065D01*
X109806206Y-72592435D01*
X109875493Y-72634181D01*
X109917483Y-72668532D01*
X109923683Y-72676380D01*
X109935281Y-72705083D01*
X109918570Y-72736286D01*
X109867679Y-72783541D01*
X109843120Y-72804113D01*
X109794740Y-72841758D01*
X109769373Y-72857145D01*
X109762106Y-72855560D01*
X109720456Y-72838426D01*
X109658274Y-72808353D01*
X109638000Y-72798460D01*
X109518400Y-72761725D01*
X109414494Y-72771195D01*
X109323379Y-72827029D01*
X109312778Y-72837346D01*
X109262091Y-72901969D01*
X109233130Y-72963990D01*
X109217091Y-73032470D01*
X109969549Y-73032470D01*
X109969410Y-73163206D01*
X109969330Y-73176208D01*
X109953752Y-73337050D01*
X109908408Y-73467894D01*
X109829288Y-73580687D01*
X109781021Y-73628400D01*
X109681337Y-73692269D01*
X109562307Y-73723216D01*
X109411957Y-73725393D01*
X109339332Y-73716861D01*
X109205273Y-73672560D01*
X109102635Y-73591931D01*
X109030520Y-73473729D01*
X108988028Y-73316709D01*
X108983714Y-73254967D01*
X109222490Y-73254967D01*
X109242186Y-73337323D01*
X109299849Y-73414189D01*
X109383016Y-73467516D01*
X109479089Y-73485962D01*
X109549822Y-73465168D01*
X109620529Y-73414336D01*
X109674278Y-73348108D01*
X109695627Y-73281097D01*
X109692515Y-73259343D01*
X109676538Y-73244351D01*
X109638457Y-73236030D01*
X109569040Y-73232451D01*
X109459058Y-73231686D01*
X109397914Y-73232479D01*
X109307662Y-73237112D01*
X109245584Y-73244962D01*
X109222490Y-73254967D01*
X108983714Y-73254967D01*
X108974260Y-73119627D01*
X108977498Y-73026670D01*
G36*
X106072995Y-74835018D02*
G01*
X106103701Y-74684562D01*
X106158624Y-74569754D01*
X106242220Y-74483034D01*
X106358942Y-74416845D01*
X106404261Y-74401092D01*
X106521627Y-74381438D01*
X106645134Y-74381973D01*
X106749349Y-74403561D01*
X106751397Y-74404345D01*
X106835382Y-74453749D01*
X106920230Y-74530230D01*
X106990634Y-74617689D01*
X107031286Y-74700031D01*
X107043337Y-74760221D01*
X107053654Y-74872916D01*
X107055863Y-75001262D01*
X107050328Y-75129007D01*
X107037412Y-75239899D01*
X107017478Y-75317685D01*
X106971047Y-75405755D01*
X106872502Y-75514041D01*
X106746547Y-75582636D01*
X106596926Y-75609787D01*
X106427385Y-75593741D01*
X106399175Y-75586906D01*
X106267799Y-75527960D01*
X106168802Y-75431186D01*
X106102180Y-75296577D01*
X106067930Y-75124126D01*
X106066933Y-75012855D01*
X106333862Y-75012855D01*
X106334006Y-75054451D01*
X106337130Y-75138736D01*
X106347518Y-75193719D01*
X106369312Y-75234345D01*
X106406653Y-75275563D01*
X106477707Y-75325519D01*
X106570209Y-75345943D01*
X106659582Y-75326491D01*
X106733790Y-75270229D01*
X106780799Y-75180225D01*
X106797172Y-75102506D01*
X106804498Y-74973368D01*
X106789500Y-74852881D01*
X106754265Y-74753877D01*
X106700883Y-74689185D01*
X106680650Y-74678078D01*
X106603494Y-74657889D01*
X106514251Y-74653735D01*
X106439172Y-74667765D01*
X106409868Y-74687884D01*
X106368736Y-74758240D01*
X106342854Y-74868355D01*
X106333862Y-75012855D01*
X106066933Y-75012855D01*
X106066047Y-74913827D01*
X106072995Y-74835018D01*
G37*
X106072995Y-74835018D02*
X106103701Y-74684562D01*
X106158624Y-74569754D01*
X106242220Y-74483034D01*
X106358942Y-74416845D01*
X106404261Y-74401092D01*
X106521627Y-74381438D01*
X106645134Y-74381973D01*
X106749349Y-74403561D01*
X106751397Y-74404345D01*
X106835382Y-74453749D01*
X106920230Y-74530230D01*
X106990634Y-74617689D01*
X107031286Y-74700031D01*
X107043337Y-74760221D01*
X107053654Y-74872916D01*
X107055863Y-75001262D01*
X107050328Y-75129007D01*
X107037412Y-75239899D01*
X107017478Y-75317685D01*
X106971047Y-75405755D01*
X106872502Y-75514041D01*
X106746547Y-75582636D01*
X106596926Y-75609787D01*
X106427385Y-75593741D01*
X106399175Y-75586906D01*
X106267799Y-75527960D01*
X106168802Y-75431186D01*
X106102180Y-75296577D01*
X106067930Y-75124126D01*
X106066933Y-75012855D01*
X106333862Y-75012855D01*
X106334006Y-75054451D01*
X106337130Y-75138736D01*
X106347518Y-75193719D01*
X106369312Y-75234345D01*
X106406653Y-75275563D01*
X106477707Y-75325519D01*
X106570209Y-75345943D01*
X106659582Y-75326491D01*
X106733790Y-75270229D01*
X106780799Y-75180225D01*
X106797172Y-75102506D01*
X106804498Y-74973368D01*
X106789500Y-74852881D01*
X106754265Y-74753877D01*
X106700883Y-74689185D01*
X106680650Y-74678078D01*
X106603494Y-74657889D01*
X106514251Y-74653735D01*
X106439172Y-74667765D01*
X106409868Y-74687884D01*
X106368736Y-74758240D01*
X106342854Y-74868355D01*
X106333862Y-75012855D01*
X106066933Y-75012855D01*
X106066047Y-74913827D01*
X106072995Y-74835018D01*
G36*
X108425627Y-72906789D02*
G01*
X108425660Y-72929595D01*
X108427997Y-73089911D01*
X108433732Y-73220500D01*
X108442456Y-73314686D01*
X108453759Y-73365792D01*
X108464138Y-73385085D01*
X108528032Y-73445594D01*
X108615063Y-73472378D01*
X108710096Y-73459883D01*
X108733406Y-73451414D01*
X108783063Y-73436445D01*
X108817001Y-73441093D01*
X108851150Y-73471521D01*
X108901441Y-73533889D01*
X108983008Y-73636877D01*
X108925677Y-73683301D01*
X108871177Y-73711245D01*
X108775446Y-73730117D01*
X108667544Y-73730735D01*
X108566475Y-73713325D01*
X108491240Y-73678114D01*
X108425627Y-73626503D01*
X108425627Y-73678114D01*
X108423992Y-73697710D01*
X108408779Y-73718487D01*
X108367638Y-73727663D01*
X108288666Y-73729725D01*
X108151705Y-73729725D01*
X108151705Y-72509529D01*
X108425627Y-72509529D01*
X108425627Y-72906789D01*
G37*
X108425627Y-72906789D02*
X108425660Y-72929595D01*
X108427997Y-73089911D01*
X108433732Y-73220500D01*
X108442456Y-73314686D01*
X108453759Y-73365792D01*
X108464138Y-73385085D01*
X108528032Y-73445594D01*
X108615063Y-73472378D01*
X108710096Y-73459883D01*
X108733406Y-73451414D01*
X108783063Y-73436445D01*
X108817001Y-73441093D01*
X108851150Y-73471521D01*
X108901441Y-73533889D01*
X108983008Y-73636877D01*
X108925677Y-73683301D01*
X108871177Y-73711245D01*
X108775446Y-73730117D01*
X108667544Y-73730735D01*
X108566475Y-73713325D01*
X108491240Y-73678114D01*
X108425627Y-73626503D01*
X108425627Y-73678114D01*
X108423992Y-73697710D01*
X108408779Y-73718487D01*
X108367638Y-73727663D01*
X108288666Y-73729725D01*
X108151705Y-73729725D01*
X108151705Y-72509529D01*
X108425627Y-72509529D01*
X108425627Y-72906789D01*
G36*
X99866397Y-74853347D02*
G01*
X99873695Y-74758246D01*
X99886127Y-74690840D01*
X99906657Y-74637430D01*
X99938249Y-74584315D01*
X99939594Y-74582301D01*
X100017384Y-74496245D01*
X100112562Y-74430609D01*
X100223240Y-74391661D01*
X100368837Y-74379015D01*
X100511537Y-74403881D01*
X100639091Y-74463802D01*
X100739247Y-74556319D01*
X100768001Y-74600033D01*
X100821699Y-74735927D01*
X100848330Y-74903592D01*
X100846276Y-75094874D01*
X100843655Y-75122004D01*
X100807082Y-75295771D01*
X100739419Y-75430666D01*
X100640522Y-75526837D01*
X100510247Y-75584432D01*
X100348450Y-75603598D01*
X100287321Y-75601799D01*
X100161961Y-75579789D01*
X100059454Y-75527254D01*
X99963885Y-75437314D01*
X99948600Y-75419263D01*
X99907376Y-75358470D01*
X99880283Y-75289633D01*
X99865260Y-75202400D01*
X99860246Y-75086418D01*
X99861844Y-75002056D01*
X100110814Y-75002056D01*
X100124144Y-75145832D01*
X100165053Y-75248769D01*
X100233719Y-75311433D01*
X100314211Y-75341440D01*
X100410206Y-75338914D01*
X100499189Y-75288254D01*
X100520462Y-75268969D01*
X100547307Y-75235226D01*
X100563234Y-75191080D01*
X100572071Y-75123399D01*
X100577645Y-75019050D01*
X100580237Y-74946003D01*
X100579733Y-74866686D01*
X100571323Y-74813733D01*
X100552162Y-74773044D01*
X100519402Y-74730521D01*
X100473942Y-74688324D01*
X100383020Y-74650667D01*
X100285392Y-74657662D01*
X100192086Y-74709998D01*
X100165766Y-74734994D01*
X100137664Y-74777786D01*
X100122080Y-74837932D01*
X100113247Y-74931652D01*
X100110814Y-75002056D01*
X99861844Y-75002056D01*
X99863182Y-74931334D01*
X99866397Y-74853347D01*
G37*
X99866397Y-74853347D02*
X99873695Y-74758246D01*
X99886127Y-74690840D01*
X99906657Y-74637430D01*
X99938249Y-74584315D01*
X99939594Y-74582301D01*
X100017384Y-74496245D01*
X100112562Y-74430609D01*
X100223240Y-74391661D01*
X100368837Y-74379015D01*
X100511537Y-74403881D01*
X100639091Y-74463802D01*
X100739247Y-74556319D01*
X100768001Y-74600033D01*
X100821699Y-74735927D01*
X100848330Y-74903592D01*
X100846276Y-75094874D01*
X100843655Y-75122004D01*
X100807082Y-75295771D01*
X100739419Y-75430666D01*
X100640522Y-75526837D01*
X100510247Y-75584432D01*
X100348450Y-75603598D01*
X100287321Y-75601799D01*
X100161961Y-75579789D01*
X100059454Y-75527254D01*
X99963885Y-75437314D01*
X99948600Y-75419263D01*
X99907376Y-75358470D01*
X99880283Y-75289633D01*
X99865260Y-75202400D01*
X99860246Y-75086418D01*
X99861844Y-75002056D01*
X100110814Y-75002056D01*
X100124144Y-75145832D01*
X100165053Y-75248769D01*
X100233719Y-75311433D01*
X100314211Y-75341440D01*
X100410206Y-75338914D01*
X100499189Y-75288254D01*
X100520462Y-75268969D01*
X100547307Y-75235226D01*
X100563234Y-75191080D01*
X100572071Y-75123399D01*
X100577645Y-75019050D01*
X100580237Y-74946003D01*
X100579733Y-74866686D01*
X100571323Y-74813733D01*
X100552162Y-74773044D01*
X100519402Y-74730521D01*
X100473942Y-74688324D01*
X100383020Y-74650667D01*
X100285392Y-74657662D01*
X100192086Y-74709998D01*
X100165766Y-74734994D01*
X100137664Y-74777786D01*
X100122080Y-74837932D01*
X100113247Y-74931652D01*
X100110814Y-75002056D01*
X99861844Y-75002056D01*
X99863182Y-74931334D01*
X99866397Y-74853347D01*
G36*
X103594647Y-74814093D02*
G01*
X103594834Y-74953221D01*
X103596115Y-75067507D01*
X103599542Y-75147481D01*
X103606168Y-75201292D01*
X103617046Y-75237088D01*
X103633229Y-75263018D01*
X103655770Y-75287230D01*
X103686473Y-75312983D01*
X103774761Y-75347584D01*
X103867435Y-75337429D01*
X103952329Y-75282702D01*
X103976594Y-75257232D01*
X103994013Y-75231455D01*
X104005696Y-75197152D01*
X104012788Y-75146067D01*
X104016436Y-75069944D01*
X104017785Y-74960529D01*
X104017980Y-74809565D01*
X104017980Y-74402078D01*
X104291902Y-74402078D01*
X104291355Y-74844088D01*
X104291318Y-74863777D01*
X104288942Y-75051791D01*
X104281647Y-75197841D01*
X104267555Y-75309029D01*
X104244793Y-75392456D01*
X104211486Y-75455225D01*
X104165759Y-75504439D01*
X104105736Y-75547198D01*
X104043760Y-75576801D01*
X103918945Y-75603695D01*
X103789094Y-75599729D01*
X103675578Y-75564063D01*
X103625527Y-75539823D01*
X103600354Y-75537319D01*
X103594647Y-75559380D01*
X103594641Y-75560048D01*
X103582340Y-75582574D01*
X103539916Y-75594121D01*
X103457686Y-75597372D01*
X103320725Y-75597372D01*
X103320725Y-74402078D01*
X103594647Y-74402078D01*
X103594647Y-74814093D01*
G37*
X103594647Y-74814093D02*
X103594834Y-74953221D01*
X103596115Y-75067507D01*
X103599542Y-75147481D01*
X103606168Y-75201292D01*
X103617046Y-75237088D01*
X103633229Y-75263018D01*
X103655770Y-75287230D01*
X103686473Y-75312983D01*
X103774761Y-75347584D01*
X103867435Y-75337429D01*
X103952329Y-75282702D01*
X103976594Y-75257232D01*
X103994013Y-75231455D01*
X104005696Y-75197152D01*
X104012788Y-75146067D01*
X104016436Y-75069944D01*
X104017785Y-74960529D01*
X104017980Y-74809565D01*
X104017980Y-74402078D01*
X104291902Y-74402078D01*
X104291355Y-74844088D01*
X104291318Y-74863777D01*
X104288942Y-75051791D01*
X104281647Y-75197841D01*
X104267555Y-75309029D01*
X104244793Y-75392456D01*
X104211486Y-75455225D01*
X104165759Y-75504439D01*
X104105736Y-75547198D01*
X104043760Y-75576801D01*
X103918945Y-75603695D01*
X103789094Y-75599729D01*
X103675578Y-75564063D01*
X103625527Y-75539823D01*
X103600354Y-75537319D01*
X103594647Y-75559380D01*
X103594641Y-75560048D01*
X103582340Y-75582574D01*
X103539916Y-75594121D01*
X103457686Y-75597372D01*
X103320725Y-75597372D01*
X103320725Y-74402078D01*
X103594647Y-74402078D01*
X103594647Y-74814093D01*
G36*
X108246047Y-76499529D02*
G01*
X108291733Y-76534355D01*
X108362162Y-76595671D01*
X108451204Y-76677446D01*
X108552728Y-76773649D01*
X108660606Y-76878249D01*
X108768705Y-76985214D01*
X108870897Y-77088515D01*
X108961050Y-77182118D01*
X109033036Y-77259994D01*
X109080722Y-77316111D01*
X109097980Y-77344438D01*
X109096985Y-77349828D01*
X109076445Y-77393696D01*
X109032566Y-77469593D01*
X108969588Y-77570664D01*
X108891753Y-77690052D01*
X108803299Y-77820902D01*
X108778491Y-77856995D01*
X108691382Y-77984000D01*
X108614653Y-78096282D01*
X108552776Y-78187270D01*
X108510223Y-78250394D01*
X108491466Y-78279083D01*
X108491005Y-78280313D01*
X108496541Y-78315412D01*
X108517680Y-78386516D01*
X108550995Y-78484690D01*
X108593055Y-78600998D01*
X108640430Y-78726507D01*
X108689692Y-78852282D01*
X108737411Y-78969388D01*
X108780158Y-79068890D01*
X108814503Y-79141855D01*
X108837017Y-79179347D01*
X108839272Y-79181675D01*
X108855392Y-79193451D01*
X108882617Y-79205327D01*
X108926367Y-79218519D01*
X108992065Y-79234246D01*
X109085130Y-79253726D01*
X109210984Y-79278176D01*
X109375047Y-79308814D01*
X109582741Y-79346857D01*
X109625819Y-79354864D01*
X109749223Y-79379616D01*
X109853028Y-79403067D01*
X109927399Y-79422890D01*
X109962496Y-79436755D01*
X109968368Y-79448323D01*
X109978158Y-79503890D01*
X109985915Y-79596010D01*
X109991635Y-79716049D01*
X109995311Y-79855378D01*
X109996938Y-80005365D01*
X109996509Y-80157379D01*
X109994018Y-80302788D01*
X109989460Y-80432963D01*
X109982829Y-80539270D01*
X109974119Y-80613081D01*
X109963323Y-80645762D01*
X109952301Y-80650590D01*
X109897469Y-80665809D01*
X109804787Y-80687334D01*
X109681649Y-80713561D01*
X109535452Y-80742886D01*
X109373594Y-80773704D01*
X109285216Y-80790169D01*
X109133741Y-80818721D01*
X109003360Y-80843723D01*
X108901046Y-80863815D01*
X108833772Y-80877638D01*
X108808511Y-80883835D01*
X108807562Y-80885112D01*
X108791474Y-80917563D01*
X108760806Y-80985548D01*
X108719389Y-81080046D01*
X108671059Y-81192036D01*
X108619646Y-81312500D01*
X108568986Y-81432416D01*
X108522911Y-81542765D01*
X108485254Y-81634527D01*
X108459849Y-81698681D01*
X108450529Y-81726208D01*
X108454640Y-81735894D01*
X108482000Y-81781982D01*
X108531630Y-81859560D01*
X108599540Y-81962539D01*
X108681745Y-82084833D01*
X108774254Y-82220354D01*
X108825009Y-82294571D01*
X108912597Y-82424691D01*
X108987694Y-82538888D01*
X109046293Y-82630934D01*
X109084391Y-82694602D01*
X109097980Y-82723663D01*
X109088538Y-82739427D01*
X109049040Y-82786529D01*
X108984242Y-82857814D01*
X108900091Y-82947240D01*
X108802536Y-83048768D01*
X108697526Y-83156357D01*
X108591007Y-83263966D01*
X108488929Y-83365555D01*
X108397240Y-83455083D01*
X108321888Y-83526511D01*
X108268820Y-83573797D01*
X108243986Y-83590902D01*
X108230201Y-83584251D01*
X108179582Y-83553408D01*
X108097895Y-83500917D01*
X107991028Y-83430625D01*
X107864868Y-83346378D01*
X107725302Y-83252022D01*
X107226944Y-82913143D01*
X106811531Y-83084390D01*
X106396117Y-83255637D01*
X106283535Y-83852828D01*
X106170952Y-84450020D01*
X104927949Y-84450020D01*
X104815366Y-83852828D01*
X104702784Y-83255637D01*
X104287371Y-83084390D01*
X103871957Y-82913143D01*
X103373600Y-83252022D01*
X103274964Y-83318830D01*
X103144203Y-83406521D01*
X103030992Y-83481420D01*
X102941211Y-83539680D01*
X102880739Y-83577455D01*
X102855456Y-83590902D01*
X102839928Y-83581339D01*
X102793513Y-83541270D01*
X102723270Y-83475513D01*
X102635152Y-83390105D01*
X102535111Y-83291085D01*
X102429098Y-83184491D01*
X102323065Y-83076360D01*
X102222965Y-82972732D01*
X102134749Y-82879642D01*
X102064368Y-82803131D01*
X102017775Y-82749235D01*
X102000921Y-82723993D01*
X102004842Y-82713148D01*
X102031988Y-82664772D01*
X102081561Y-82585158D01*
X102149541Y-82480546D01*
X102231909Y-82357178D01*
X102324647Y-82221294D01*
X102375540Y-82147185D01*
X102463088Y-82018165D01*
X102538147Y-81905566D01*
X102596715Y-81815495D01*
X102634791Y-81754058D01*
X102648372Y-81727360D01*
X102648149Y-81725881D01*
X102636169Y-81692038D01*
X102608684Y-81622929D01*
X102569526Y-81527584D01*
X102522526Y-81415028D01*
X102471515Y-81294290D01*
X102420324Y-81174398D01*
X102372785Y-81064378D01*
X102332729Y-80973260D01*
X102303987Y-80910069D01*
X102290390Y-80883835D01*
X102282345Y-80881508D01*
X102233465Y-80871012D01*
X102146348Y-80853624D01*
X102027967Y-80830705D01*
X101885296Y-80803611D01*
X101725308Y-80773704D01*
X101640985Y-80757847D01*
X101486217Y-80727593D01*
X101350896Y-80699653D01*
X101242418Y-80675631D01*
X101168180Y-80657132D01*
X101135578Y-80645762D01*
X101129722Y-80634489D01*
X101120008Y-80579414D01*
X101112376Y-80487683D01*
X101106820Y-80367927D01*
X101103334Y-80228779D01*
X101101913Y-80078869D01*
X101102550Y-79926828D01*
X101105240Y-79781288D01*
X101109976Y-79650879D01*
X101116753Y-79544234D01*
X101125564Y-79469982D01*
X101136405Y-79436755D01*
X101142983Y-79433007D01*
X101192045Y-79416931D01*
X101277153Y-79395662D01*
X101388471Y-79371528D01*
X101516160Y-79346857D01*
X101559243Y-79339000D01*
X101758227Y-79302458D01*
X101914612Y-79273090D01*
X102033817Y-79249679D01*
X102121263Y-79231006D01*
X102182372Y-79215854D01*
X102222565Y-79203005D01*
X102247262Y-79191242D01*
X102261884Y-79179347D01*
X102263584Y-79177351D01*
X102287496Y-79135729D01*
X102322881Y-79059570D01*
X102366308Y-78957807D01*
X102414349Y-78839376D01*
X102463575Y-78713211D01*
X102510555Y-78588246D01*
X102551860Y-78473416D01*
X102584061Y-78377656D01*
X102603729Y-78309900D01*
X102607435Y-78279083D01*
X102604957Y-78275085D01*
X102579311Y-78236416D01*
X102531080Y-78165093D01*
X102464738Y-78067686D01*
X102384755Y-77950766D01*
X102295603Y-77820902D01*
X102271135Y-77785172D01*
X102185097Y-77657010D01*
X102110742Y-77542392D01*
X102052312Y-77448113D01*
X102014053Y-77380971D01*
X102000208Y-77347765D01*
X102003191Y-77339035D01*
X102034289Y-77296018D01*
X102095645Y-77225770D01*
X102182863Y-77133021D01*
X102291551Y-77022498D01*
X102417315Y-76898929D01*
X102489200Y-76829765D01*
X102602861Y-76722043D01*
X102702343Y-76629775D01*
X102782305Y-76557819D01*
X102837405Y-76511032D01*
X102862302Y-76494273D01*
X102879407Y-76500485D01*
X102932071Y-76529874D01*
X103008551Y-76577937D01*
X103098871Y-76638588D01*
X103163089Y-76682847D01*
X103291295Y-76770739D01*
X103428106Y-76864085D01*
X103553068Y-76948909D01*
X103797863Y-77114485D01*
X104003351Y-77003380D01*
X104051737Y-76977735D01*
X104139730Y-76933870D01*
X104207777Y-76903586D01*
X104244144Y-76892294D01*
X104256046Y-76906795D01*
X104285600Y-76962008D01*
X104329252Y-77053038D01*
X104384574Y-77174108D01*
X104449137Y-77319441D01*
X104520511Y-77483259D01*
X104596268Y-77659787D01*
X104673978Y-77843247D01*
X104751214Y-78027862D01*
X104825544Y-78207854D01*
X104894542Y-78377448D01*
X104955777Y-78530865D01*
X105006821Y-78662330D01*
X105045245Y-78766064D01*
X105068620Y-78836291D01*
X105074517Y-78867234D01*
X105074117Y-78868138D01*
X105046651Y-78896743D01*
X104989201Y-78941543D01*
X104913627Y-78993249D01*
X104889773Y-79009038D01*
X104708266Y-79158826D01*
X104558047Y-79337233D01*
X104442673Y-79536835D01*
X104365701Y-79750203D01*
X104330686Y-79969913D01*
X104341187Y-80188538D01*
X104383723Y-80382989D01*
X104460097Y-80579343D01*
X104571435Y-80754516D01*
X104724226Y-80920918D01*
X104784261Y-80974076D01*
X104978342Y-81105049D01*
X105188001Y-81193256D01*
X105407163Y-81239488D01*
X105629753Y-81244533D01*
X105849693Y-81209180D01*
X106060910Y-81134221D01*
X106257327Y-81020443D01*
X106432868Y-80868637D01*
X106581458Y-80679591D01*
X106610026Y-80632776D01*
X106707127Y-80418796D01*
X106758697Y-80195974D01*
X106766086Y-79970078D01*
X106730645Y-79746881D01*
X106653724Y-79532153D01*
X106536674Y-79331664D01*
X106380845Y-79151186D01*
X106187587Y-78996490D01*
X106181311Y-78992321D01*
X106106539Y-78939630D01*
X106050496Y-78894831D01*
X106024900Y-78867234D01*
X106028130Y-78845598D01*
X106048210Y-78782601D01*
X106083816Y-78684962D01*
X106132520Y-78558458D01*
X106191892Y-78408868D01*
X106259506Y-78241970D01*
X106332934Y-78063543D01*
X106409746Y-77879364D01*
X106487516Y-77695213D01*
X106563815Y-77516867D01*
X106636216Y-77350105D01*
X106702290Y-77200706D01*
X106759609Y-77074446D01*
X106805745Y-76977106D01*
X106838270Y-76914462D01*
X106854757Y-76892294D01*
X106868467Y-76895297D01*
X106922330Y-76916874D01*
X107001936Y-76954707D01*
X107095551Y-77003380D01*
X107301038Y-77114485D01*
X107545833Y-76948909D01*
X107618155Y-76899880D01*
X107752674Y-76808271D01*
X107886785Y-76716515D01*
X108000030Y-76638588D01*
X108062530Y-76596119D01*
X108143761Y-76543356D01*
X108203991Y-76507235D01*
X108233409Y-76493843D01*
X108246047Y-76499529D01*
G37*
X108246047Y-76499529D02*
X108291733Y-76534355D01*
X108362162Y-76595671D01*
X108451204Y-76677446D01*
X108552728Y-76773649D01*
X108660606Y-76878249D01*
X108768705Y-76985214D01*
X108870897Y-77088515D01*
X108961050Y-77182118D01*
X109033036Y-77259994D01*
X109080722Y-77316111D01*
X109097980Y-77344438D01*
X109096985Y-77349828D01*
X109076445Y-77393696D01*
X109032566Y-77469593D01*
X108969588Y-77570664D01*
X108891753Y-77690052D01*
X108803299Y-77820902D01*
X108778491Y-77856995D01*
X108691382Y-77984000D01*
X108614653Y-78096282D01*
X108552776Y-78187270D01*
X108510223Y-78250394D01*
X108491466Y-78279083D01*
X108491005Y-78280313D01*
X108496541Y-78315412D01*
X108517680Y-78386516D01*
X108550995Y-78484690D01*
X108593055Y-78600998D01*
X108640430Y-78726507D01*
X108689692Y-78852282D01*
X108737411Y-78969388D01*
X108780158Y-79068890D01*
X108814503Y-79141855D01*
X108837017Y-79179347D01*
X108839272Y-79181675D01*
X108855392Y-79193451D01*
X108882617Y-79205327D01*
X108926367Y-79218519D01*
X108992065Y-79234246D01*
X109085130Y-79253726D01*
X109210984Y-79278176D01*
X109375047Y-79308814D01*
X109582741Y-79346857D01*
X109625819Y-79354864D01*
X109749223Y-79379616D01*
X109853028Y-79403067D01*
X109927399Y-79422890D01*
X109962496Y-79436755D01*
X109968368Y-79448323D01*
X109978158Y-79503890D01*
X109985915Y-79596010D01*
X109991635Y-79716049D01*
X109995311Y-79855378D01*
X109996938Y-80005365D01*
X109996509Y-80157379D01*
X109994018Y-80302788D01*
X109989460Y-80432963D01*
X109982829Y-80539270D01*
X109974119Y-80613081D01*
X109963323Y-80645762D01*
X109952301Y-80650590D01*
X109897469Y-80665809D01*
X109804787Y-80687334D01*
X109681649Y-80713561D01*
X109535452Y-80742886D01*
X109373594Y-80773704D01*
X109285216Y-80790169D01*
X109133741Y-80818721D01*
X109003360Y-80843723D01*
X108901046Y-80863815D01*
X108833772Y-80877638D01*
X108808511Y-80883835D01*
X108807562Y-80885112D01*
X108791474Y-80917563D01*
X108760806Y-80985548D01*
X108719389Y-81080046D01*
X108671059Y-81192036D01*
X108619646Y-81312500D01*
X108568986Y-81432416D01*
X108522911Y-81542765D01*
X108485254Y-81634527D01*
X108459849Y-81698681D01*
X108450529Y-81726208D01*
X108454640Y-81735894D01*
X108482000Y-81781982D01*
X108531630Y-81859560D01*
X108599540Y-81962539D01*
X108681745Y-82084833D01*
X108774254Y-82220354D01*
X108825009Y-82294571D01*
X108912597Y-82424691D01*
X108987694Y-82538888D01*
X109046293Y-82630934D01*
X109084391Y-82694602D01*
X109097980Y-82723663D01*
X109088538Y-82739427D01*
X109049040Y-82786529D01*
X108984242Y-82857814D01*
X108900091Y-82947240D01*
X108802536Y-83048768D01*
X108697526Y-83156357D01*
X108591007Y-83263966D01*
X108488929Y-83365555D01*
X108397240Y-83455083D01*
X108321888Y-83526511D01*
X108268820Y-83573797D01*
X108243986Y-83590902D01*
X108230201Y-83584251D01*
X108179582Y-83553408D01*
X108097895Y-83500917D01*
X107991028Y-83430625D01*
X107864868Y-83346378D01*
X107725302Y-83252022D01*
X107226944Y-82913143D01*
X106811531Y-83084390D01*
X106396117Y-83255637D01*
X106283535Y-83852828D01*
X106170952Y-84450020D01*
X104927949Y-84450020D01*
X104815366Y-83852828D01*
X104702784Y-83255637D01*
X104287371Y-83084390D01*
X103871957Y-82913143D01*
X103373600Y-83252022D01*
X103274964Y-83318830D01*
X103144203Y-83406521D01*
X103030992Y-83481420D01*
X102941211Y-83539680D01*
X102880739Y-83577455D01*
X102855456Y-83590902D01*
X102839928Y-83581339D01*
X102793513Y-83541270D01*
X102723270Y-83475513D01*
X102635152Y-83390105D01*
X102535111Y-83291085D01*
X102429098Y-83184491D01*
X102323065Y-83076360D01*
X102222965Y-82972732D01*
X102134749Y-82879642D01*
X102064368Y-82803131D01*
X102017775Y-82749235D01*
X102000921Y-82723993D01*
X102004842Y-82713148D01*
X102031988Y-82664772D01*
X102081561Y-82585158D01*
X102149541Y-82480546D01*
X102231909Y-82357178D01*
X102324647Y-82221294D01*
X102375540Y-82147185D01*
X102463088Y-82018165D01*
X102538147Y-81905566D01*
X102596715Y-81815495D01*
X102634791Y-81754058D01*
X102648372Y-81727360D01*
X102648149Y-81725881D01*
X102636169Y-81692038D01*
X102608684Y-81622929D01*
X102569526Y-81527584D01*
X102522526Y-81415028D01*
X102471515Y-81294290D01*
X102420324Y-81174398D01*
X102372785Y-81064378D01*
X102332729Y-80973260D01*
X102303987Y-80910069D01*
X102290390Y-80883835D01*
X102282345Y-80881508D01*
X102233465Y-80871012D01*
X102146348Y-80853624D01*
X102027967Y-80830705D01*
X101885296Y-80803611D01*
X101725308Y-80773704D01*
X101640985Y-80757847D01*
X101486217Y-80727593D01*
X101350896Y-80699653D01*
X101242418Y-80675631D01*
X101168180Y-80657132D01*
X101135578Y-80645762D01*
X101129722Y-80634489D01*
X101120008Y-80579414D01*
X101112376Y-80487683D01*
X101106820Y-80367927D01*
X101103334Y-80228779D01*
X101101913Y-80078869D01*
X101102550Y-79926828D01*
X101105240Y-79781288D01*
X101109976Y-79650879D01*
X101116753Y-79544234D01*
X101125564Y-79469982D01*
X101136405Y-79436755D01*
X101142983Y-79433007D01*
X101192045Y-79416931D01*
X101277153Y-79395662D01*
X101388471Y-79371528D01*
X101516160Y-79346857D01*
X101559243Y-79339000D01*
X101758227Y-79302458D01*
X101914612Y-79273090D01*
X102033817Y-79249679D01*
X102121263Y-79231006D01*
X102182372Y-79215854D01*
X102222565Y-79203005D01*
X102247262Y-79191242D01*
X102261884Y-79179347D01*
X102263584Y-79177351D01*
X102287496Y-79135729D01*
X102322881Y-79059570D01*
X102366308Y-78957807D01*
X102414349Y-78839376D01*
X102463575Y-78713211D01*
X102510555Y-78588246D01*
X102551860Y-78473416D01*
X102584061Y-78377656D01*
X102603729Y-78309900D01*
X102607435Y-78279083D01*
X102604957Y-78275085D01*
X102579311Y-78236416D01*
X102531080Y-78165093D01*
X102464738Y-78067686D01*
X102384755Y-77950766D01*
X102295603Y-77820902D01*
X102271135Y-77785172D01*
X102185097Y-77657010D01*
X102110742Y-77542392D01*
X102052312Y-77448113D01*
X102014053Y-77380971D01*
X102000208Y-77347765D01*
X102003191Y-77339035D01*
X102034289Y-77296018D01*
X102095645Y-77225770D01*
X102182863Y-77133021D01*
X102291551Y-77022498D01*
X102417315Y-76898929D01*
X102489200Y-76829765D01*
X102602861Y-76722043D01*
X102702343Y-76629775D01*
X102782305Y-76557819D01*
X102837405Y-76511032D01*
X102862302Y-76494273D01*
X102879407Y-76500485D01*
X102932071Y-76529874D01*
X103008551Y-76577937D01*
X103098871Y-76638588D01*
X103163089Y-76682847D01*
X103291295Y-76770739D01*
X103428106Y-76864085D01*
X103553068Y-76948909D01*
X103797863Y-77114485D01*
X104003351Y-77003380D01*
X104051737Y-76977735D01*
X104139730Y-76933870D01*
X104207777Y-76903586D01*
X104244144Y-76892294D01*
X104256046Y-76906795D01*
X104285600Y-76962008D01*
X104329252Y-77053038D01*
X104384574Y-77174108D01*
X104449137Y-77319441D01*
X104520511Y-77483259D01*
X104596268Y-77659787D01*
X104673978Y-77843247D01*
X104751214Y-78027862D01*
X104825544Y-78207854D01*
X104894542Y-78377448D01*
X104955777Y-78530865D01*
X105006821Y-78662330D01*
X105045245Y-78766064D01*
X105068620Y-78836291D01*
X105074517Y-78867234D01*
X105074117Y-78868138D01*
X105046651Y-78896743D01*
X104989201Y-78941543D01*
X104913627Y-78993249D01*
X104889773Y-79009038D01*
X104708266Y-79158826D01*
X104558047Y-79337233D01*
X104442673Y-79536835D01*
X104365701Y-79750203D01*
X104330686Y-79969913D01*
X104341187Y-80188538D01*
X104383723Y-80382989D01*
X104460097Y-80579343D01*
X104571435Y-80754516D01*
X104724226Y-80920918D01*
X104784261Y-80974076D01*
X104978342Y-81105049D01*
X105188001Y-81193256D01*
X105407163Y-81239488D01*
X105629753Y-81244533D01*
X105849693Y-81209180D01*
X106060910Y-81134221D01*
X106257327Y-81020443D01*
X106432868Y-80868637D01*
X106581458Y-80679591D01*
X106610026Y-80632776D01*
X106707127Y-80418796D01*
X106758697Y-80195974D01*
X106766086Y-79970078D01*
X106730645Y-79746881D01*
X106653724Y-79532153D01*
X106536674Y-79331664D01*
X106380845Y-79151186D01*
X106187587Y-78996490D01*
X106181311Y-78992321D01*
X106106539Y-78939630D01*
X106050496Y-78894831D01*
X106024900Y-78867234D01*
X106028130Y-78845598D01*
X106048210Y-78782601D01*
X106083816Y-78684962D01*
X106132520Y-78558458D01*
X106191892Y-78408868D01*
X106259506Y-78241970D01*
X106332934Y-78063543D01*
X106409746Y-77879364D01*
X106487516Y-77695213D01*
X106563815Y-77516867D01*
X106636216Y-77350105D01*
X106702290Y-77200706D01*
X106759609Y-77074446D01*
X106805745Y-76977106D01*
X106838270Y-76914462D01*
X106854757Y-76892294D01*
X106868467Y-76895297D01*
X106922330Y-76916874D01*
X107001936Y-76954707D01*
X107095551Y-77003380D01*
X107301038Y-77114485D01*
X107545833Y-76948909D01*
X107618155Y-76899880D01*
X107752674Y-76808271D01*
X107886785Y-76716515D01*
X108000030Y-76638588D01*
X108062530Y-76596119D01*
X108143761Y-76543356D01*
X108203991Y-76507235D01*
X108233409Y-76493843D01*
X108246047Y-76499529D01*
G36*
X103619549Y-72893889D02*
G01*
X103619824Y-72983294D01*
X103622656Y-73131371D01*
X103629824Y-73240997D01*
X103642884Y-73319748D01*
X103663392Y-73375202D01*
X103692902Y-73414939D01*
X103732969Y-73446535D01*
X103776710Y-73470079D01*
X103828504Y-73476754D01*
X103902169Y-73461910D01*
X103925841Y-73455729D01*
X103984931Y-73446428D01*
X104027182Y-73459755D01*
X104076152Y-73501004D01*
X104085445Y-73509974D01*
X104136821Y-73565466D01*
X104169953Y-73610585D01*
X104174498Y-73621455D01*
X104165492Y-73661591D01*
X104119826Y-73693680D01*
X104047754Y-73716201D01*
X103959529Y-73727633D01*
X103865406Y-73726456D01*
X103775638Y-73711150D01*
X103700480Y-73680194D01*
X103676657Y-73665740D01*
X103636551Y-73644583D01*
X103621704Y-73649428D01*
X103619549Y-73680288D01*
X103619043Y-73691367D01*
X103607030Y-73715909D01*
X103569764Y-73727079D01*
X103495039Y-73729725D01*
X103370529Y-73729725D01*
X103370529Y-72509529D01*
X103619549Y-72509529D01*
X103619549Y-72893889D01*
G37*
X103619549Y-72893889D02*
X103619824Y-72983294D01*
X103622656Y-73131371D01*
X103629824Y-73240997D01*
X103642884Y-73319748D01*
X103663392Y-73375202D01*
X103692902Y-73414939D01*
X103732969Y-73446535D01*
X103776710Y-73470079D01*
X103828504Y-73476754D01*
X103902169Y-73461910D01*
X103925841Y-73455729D01*
X103984931Y-73446428D01*
X104027182Y-73459755D01*
X104076152Y-73501004D01*
X104085445Y-73509974D01*
X104136821Y-73565466D01*
X104169953Y-73610585D01*
X104174498Y-73621455D01*
X104165492Y-73661591D01*
X104119826Y-73693680D01*
X104047754Y-73716201D01*
X103959529Y-73727633D01*
X103865406Y-73726456D01*
X103775638Y-73711150D01*
X103700480Y-73680194D01*
X103676657Y-73665740D01*
X103636551Y-73644583D01*
X103621704Y-73649428D01*
X103619549Y-73680288D01*
X103619043Y-73691367D01*
X103607030Y-73715909D01*
X103569764Y-73727079D01*
X103495039Y-73729725D01*
X103370529Y-73729725D01*
X103370529Y-72509529D01*
X103619549Y-72509529D01*
X103619549Y-72893889D01*
M02*
