G04 #@! TF.GenerationSoftware,KiCad,Pcbnew,7.0.1*
G04 #@! TF.CreationDate,2023-06-07T16:56:56+02:00*
G04 #@! TF.ProjectId,CaptorBoard,43617074-6f72-4426-9f61-72642e6b6963,rev?*
G04 #@! TF.SameCoordinates,Original*
G04 #@! TF.FileFunction,Copper,L1,Top*
G04 #@! TF.FilePolarity,Positive*
%FSLAX46Y46*%
G04 Gerber Fmt 4.6, Leading zero omitted, Abs format (unit mm)*
G04 Created by KiCad (PCBNEW 7.0.1) date 2023-06-07 16:56:56*
%MOMM*%
%LPD*%
G01*
G04 APERTURE LIST*
G04 Aperture macros list*
%AMRoundRect*
0 Rectangle with rounded corners*
0 $1 Rounding radius*
0 $2 $3 $4 $5 $6 $7 $8 $9 X,Y pos of 4 corners*
0 Add a 4 corners polygon primitive as box body*
4,1,4,$2,$3,$4,$5,$6,$7,$8,$9,$2,$3,0*
0 Add four circle primitives for the rounded corners*
1,1,$1+$1,$2,$3*
1,1,$1+$1,$4,$5*
1,1,$1+$1,$6,$7*
1,1,$1+$1,$8,$9*
0 Add four rect primitives between the rounded corners*
20,1,$1+$1,$2,$3,$4,$5,0*
20,1,$1+$1,$4,$5,$6,$7,0*
20,1,$1+$1,$6,$7,$8,$9,0*
20,1,$1+$1,$8,$9,$2,$3,0*%
G04 Aperture macros list end*
G04 #@! TA.AperFunction,SMDPad,CuDef*
%ADD10R,0.900000X1.500000*%
G04 #@! TD*
G04 #@! TA.AperFunction,SMDPad,CuDef*
%ADD11R,1.500000X0.900000*%
G04 #@! TD*
G04 #@! TA.AperFunction,SMDPad,CuDef*
%ADD12R,1.050000X1.050000*%
G04 #@! TD*
G04 #@! TA.AperFunction,ComponentPad*
%ADD13R,2.200000X2.200000*%
G04 #@! TD*
G04 #@! TA.AperFunction,ComponentPad*
%ADD14O,2.200000X2.200000*%
G04 #@! TD*
G04 #@! TA.AperFunction,SMDPad,CuDef*
%ADD15RoundRect,0.250000X1.075000X-0.400000X1.075000X0.400000X-1.075000X0.400000X-1.075000X-0.400000X0*%
G04 #@! TD*
G04 #@! TA.AperFunction,SMDPad,CuDef*
%ADD16RoundRect,0.250000X-1.075000X0.400000X-1.075000X-0.400000X1.075000X-0.400000X1.075000X0.400000X0*%
G04 #@! TD*
G04 #@! TA.AperFunction,SMDPad,CuDef*
%ADD17RoundRect,0.250001X1.074999X-0.462499X1.074999X0.462499X-1.074999X0.462499X-1.074999X-0.462499X0*%
G04 #@! TD*
G04 #@! TA.AperFunction,ComponentPad*
%ADD18R,2.600000X2.600000*%
G04 #@! TD*
G04 #@! TA.AperFunction,ComponentPad*
%ADD19C,2.600000*%
G04 #@! TD*
G04 #@! TA.AperFunction,ComponentPad*
%ADD20C,2.200000*%
G04 #@! TD*
G04 #@! TA.AperFunction,ComponentPad*
%ADD21C,1.700000*%
G04 #@! TD*
G04 #@! TA.AperFunction,ComponentPad*
%ADD22R,1.600000X1.600000*%
G04 #@! TD*
G04 #@! TA.AperFunction,ComponentPad*
%ADD23O,1.600000X1.600000*%
G04 #@! TD*
G04 #@! TA.AperFunction,SMDPad,CuDef*
%ADD24RoundRect,0.250000X0.400000X1.075000X-0.400000X1.075000X-0.400000X-1.075000X0.400000X-1.075000X0*%
G04 #@! TD*
G04 #@! TA.AperFunction,SMDPad,CuDef*
%ADD25R,2.400000X3.000000*%
G04 #@! TD*
G04 #@! TA.AperFunction,SMDPad,CuDef*
%ADD26RoundRect,0.250000X-1.100000X0.412500X-1.100000X-0.412500X1.100000X-0.412500X1.100000X0.412500X0*%
G04 #@! TD*
G04 #@! TA.AperFunction,ComponentPad*
%ADD27R,1.700000X1.700000*%
G04 #@! TD*
G04 #@! TA.AperFunction,ComponentPad*
%ADD28O,1.700000X1.700000*%
G04 #@! TD*
G04 #@! TA.AperFunction,SMDPad,CuDef*
%ADD29R,1.400000X1.500000*%
G04 #@! TD*
G04 #@! TA.AperFunction,SMDPad,CuDef*
%ADD30RoundRect,0.250000X1.100000X-0.412500X1.100000X0.412500X-1.100000X0.412500X-1.100000X-0.412500X0*%
G04 #@! TD*
G04 #@! TA.AperFunction,SMDPad,CuDef*
%ADD31RoundRect,0.250000X-0.400000X-1.075000X0.400000X-1.075000X0.400000X1.075000X-0.400000X1.075000X0*%
G04 #@! TD*
G04 #@! TA.AperFunction,SMDPad,CuDef*
%ADD32RoundRect,0.150000X-0.587500X-0.150000X0.587500X-0.150000X0.587500X0.150000X-0.587500X0.150000X0*%
G04 #@! TD*
G04 #@! TA.AperFunction,ComponentPad*
%ADD33R,2.500000X2.500000*%
G04 #@! TD*
G04 #@! TA.AperFunction,ComponentPad*
%ADD34O,2.500000X2.500000*%
G04 #@! TD*
G04 #@! TA.AperFunction,SMDPad,CuDef*
%ADD35RoundRect,0.225000X-0.225000X-0.375000X0.225000X-0.375000X0.225000X0.375000X-0.225000X0.375000X0*%
G04 #@! TD*
G04 #@! TA.AperFunction,SMDPad,CuDef*
%ADD36RoundRect,0.250001X-0.462499X-1.074999X0.462499X-1.074999X0.462499X1.074999X-0.462499X1.074999X0*%
G04 #@! TD*
G04 #@! TA.AperFunction,SMDPad,CuDef*
%ADD37RoundRect,0.250000X0.412500X1.100000X-0.412500X1.100000X-0.412500X-1.100000X0.412500X-1.100000X0*%
G04 #@! TD*
G04 #@! TA.AperFunction,SMDPad,CuDef*
%ADD38RoundRect,0.250000X0.300000X-0.300000X0.300000X0.300000X-0.300000X0.300000X-0.300000X-0.300000X0*%
G04 #@! TD*
G04 #@! TA.AperFunction,SMDPad,CuDef*
%ADD39R,1.500000X2.000000*%
G04 #@! TD*
G04 #@! TA.AperFunction,SMDPad,CuDef*
%ADD40R,3.800000X2.000000*%
G04 #@! TD*
G04 #@! TA.AperFunction,ComponentPad*
%ADD41C,1.650000*%
G04 #@! TD*
G04 #@! TA.AperFunction,ViaPad*
%ADD42C,0.820000*%
G04 #@! TD*
G04 #@! TA.AperFunction,Conductor*
%ADD43C,0.250000*%
G04 #@! TD*
G04 #@! TA.AperFunction,Conductor*
%ADD44C,2.000000*%
G04 #@! TD*
G04 #@! TA.AperFunction,Conductor*
%ADD45C,0.500000*%
G04 #@! TD*
G04 #@! TA.AperFunction,Conductor*
%ADD46C,4.000000*%
G04 #@! TD*
G04 #@! TA.AperFunction,Conductor*
%ADD47C,0.200000*%
G04 #@! TD*
G04 #@! TA.AperFunction,Profile*
%ADD48C,0.100000*%
G04 #@! TD*
G04 APERTURE END LIST*
D10*
X96293000Y-82746000D03*
X97563000Y-82746000D03*
X98833000Y-82746000D03*
X100103000Y-82746000D03*
X101373000Y-82746000D03*
X102643000Y-82746000D03*
X103913000Y-82746000D03*
X105183000Y-82746000D03*
X106453000Y-82746000D03*
X107723000Y-82746000D03*
X108993000Y-82746000D03*
X110263000Y-82746000D03*
X111533000Y-82746000D03*
X112803000Y-82746000D03*
D11*
X114053000Y-79716000D03*
X114053000Y-78446000D03*
X114053000Y-77176000D03*
X114053000Y-75906000D03*
X114053000Y-74636000D03*
X114053000Y-73366000D03*
X114053000Y-72096000D03*
X114053000Y-70826000D03*
X114053000Y-69556000D03*
X114053000Y-68286000D03*
D10*
X112803000Y-65246000D03*
X111533000Y-65246000D03*
X110263000Y-65246000D03*
X108993000Y-65246000D03*
X107723000Y-65246000D03*
X106453000Y-65246000D03*
X105183000Y-65246000D03*
X103913000Y-65246000D03*
X102643000Y-65246000D03*
X101373000Y-65246000D03*
X100103000Y-65246000D03*
X98833000Y-65246000D03*
X97563000Y-65246000D03*
X96293000Y-65246000D03*
D12*
X102108000Y-76201000D03*
X103633000Y-76201000D03*
X105158000Y-76201000D03*
X102108000Y-74676000D03*
X103633000Y-74676000D03*
X105158000Y-74676000D03*
X102108000Y-73151000D03*
X103633000Y-73151000D03*
X105158000Y-73151000D03*
D13*
X164190000Y-56500000D03*
D14*
X171810000Y-56500000D03*
D13*
X171810000Y-52500000D03*
D14*
X164190000Y-52500000D03*
D15*
X104000000Y-98604000D03*
X104000000Y-95504000D03*
D16*
X114500000Y-58114000D03*
X114500000Y-61214000D03*
X104000000Y-58114000D03*
X104000000Y-61214000D03*
X111000000Y-58114000D03*
X111000000Y-61214000D03*
X107500000Y-58114000D03*
X107500000Y-61214000D03*
D17*
X107500000Y-98515500D03*
X107500000Y-95540500D03*
X114500000Y-54029000D03*
X114500000Y-51054000D03*
X104000000Y-54029000D03*
X104000000Y-51054000D03*
X111000000Y-54029000D03*
X111000000Y-51054000D03*
X107500000Y-54029000D03*
X107500000Y-51054000D03*
D18*
X179805000Y-63585000D03*
D19*
X179805000Y-58505000D03*
X179805000Y-53425000D03*
D20*
X100425000Y-98000000D03*
X100425000Y-91000000D03*
D21*
X97925000Y-96750000D03*
X97925000Y-92250000D03*
D20*
X100425000Y-59000000D03*
X100425000Y-52000000D03*
D21*
X97925000Y-57750000D03*
X97925000Y-53250000D03*
D22*
X154975000Y-63000000D03*
D23*
X157515000Y-63000000D03*
X160055000Y-63000000D03*
X160055000Y-55380000D03*
X157515000Y-55380000D03*
X154975000Y-55380000D03*
D22*
X146475000Y-63000000D03*
D23*
X149015000Y-63000000D03*
X151555000Y-63000000D03*
X151555000Y-55380000D03*
X149015000Y-55380000D03*
X146475000Y-55380000D03*
D24*
X120500000Y-83500000D03*
X117400000Y-83500000D03*
X120550000Y-80000000D03*
X117450000Y-80000000D03*
D25*
X165500000Y-61500000D03*
X170360000Y-61500000D03*
D26*
X100914200Y-85318600D03*
X100914200Y-88443600D03*
D27*
X118120000Y-98171000D03*
D28*
X120660000Y-98171000D03*
X123200000Y-98171000D03*
X125740000Y-98171000D03*
D15*
X114500000Y-98604000D03*
X114500000Y-95504000D03*
D29*
X109837600Y-86537800D03*
X107737600Y-86537800D03*
D27*
X125374400Y-94437200D03*
D28*
X127914400Y-94437200D03*
X130454400Y-94437200D03*
X132994400Y-94437200D03*
X135534400Y-94437200D03*
X138074400Y-94437200D03*
X140614400Y-94437200D03*
X143154400Y-94437200D03*
D16*
X133299200Y-88467000D03*
X133299200Y-91567000D03*
D30*
X111048800Y-98603600D03*
X111048800Y-95478600D03*
D31*
X143900000Y-87000000D03*
X147000000Y-87000000D03*
D32*
X146562500Y-79050000D03*
X146562500Y-80950000D03*
X148437500Y-80000000D03*
D30*
X104292400Y-89383400D03*
X104292400Y-86258400D03*
D32*
X146562500Y-93500000D03*
X146562500Y-95400000D03*
X148437500Y-94450000D03*
D33*
X153372500Y-73500000D03*
D34*
X155372500Y-79500000D03*
X167572500Y-79500000D03*
X167572500Y-67500000D03*
X155372500Y-67500000D03*
D35*
X143850000Y-84000000D03*
X147150000Y-84000000D03*
D18*
X179805000Y-96585000D03*
D19*
X179805000Y-91505000D03*
X179805000Y-86425000D03*
D36*
X145012500Y-75500000D03*
X147987500Y-75500000D03*
D16*
X136956800Y-88441600D03*
X136956800Y-91541600D03*
D24*
X100050000Y-62500000D03*
X96950000Y-62500000D03*
D27*
X129413000Y-98171000D03*
D28*
X131953000Y-98171000D03*
X134493000Y-98171000D03*
X137033000Y-98171000D03*
X139573000Y-98171000D03*
X142113000Y-98171000D03*
X144653000Y-98171000D03*
D37*
X122073200Y-88773000D03*
X118948200Y-88773000D03*
D38*
X137083800Y-84531200D03*
X137083800Y-81731200D03*
X134594600Y-84531200D03*
X134594600Y-81731200D03*
D15*
X140970000Y-85243600D03*
X140970000Y-82143600D03*
D31*
X107238200Y-89433400D03*
X110338200Y-89433400D03*
X144950000Y-72000000D03*
X148050000Y-72000000D03*
D30*
X113309400Y-89383400D03*
X113309400Y-86258400D03*
D24*
X144100000Y-79500000D03*
X141000000Y-79500000D03*
D39*
X124750800Y-87326000D03*
X127050800Y-87326000D03*
D40*
X127050800Y-81026000D03*
D39*
X129350800Y-87326000D03*
D41*
X140000000Y-53840000D03*
X134920000Y-53840000D03*
X129840000Y-74160000D03*
X140000000Y-74160000D03*
D35*
X144850000Y-69000000D03*
X148150000Y-69000000D03*
D26*
X97536000Y-85305500D03*
X97536000Y-88430500D03*
D18*
X179805000Y-80085000D03*
D19*
X179805000Y-75005000D03*
X179805000Y-69925000D03*
D16*
X140538200Y-88441600D03*
X140538200Y-91541600D03*
D33*
X153372500Y-91000000D03*
D34*
X155372500Y-97000000D03*
X167572500Y-97000000D03*
X167572500Y-85000000D03*
X155372500Y-85000000D03*
D38*
X132029200Y-84534200D03*
X132029200Y-81734200D03*
D36*
X144000000Y-90500000D03*
X146975000Y-90500000D03*
D42*
X149000000Y-84500000D03*
X148513800Y-78232000D03*
X137642600Y-90043000D03*
X148500000Y-81500000D03*
X117500000Y-95000000D03*
X134137400Y-90043000D03*
X140690600Y-96342200D03*
X145465800Y-85293200D03*
X103378000Y-59690000D03*
X96012000Y-95250000D03*
X135585200Y-96316800D03*
X130479800Y-96316800D03*
X100838000Y-71882000D03*
X100838000Y-77470000D03*
X115443000Y-87147400D03*
X142500000Y-75500000D03*
X109270800Y-56083200D03*
X105714800Y-56083200D03*
X140563600Y-90043000D03*
X106426000Y-71882000D03*
X106426000Y-77470000D03*
X146532600Y-69037200D03*
X112776000Y-56083200D03*
X138125200Y-96266000D03*
X133019800Y-96291400D03*
X98500000Y-84000000D03*
X103500000Y-92500000D03*
X96570800Y-81254600D03*
X114000000Y-63000000D03*
X114477800Y-80924400D03*
X108141431Y-62871449D03*
X112776000Y-69494400D03*
X112980497Y-63000000D03*
X113665571Y-81583693D03*
X111500000Y-62986500D03*
X112776000Y-78486000D03*
X97777572Y-66605500D03*
X102500000Y-66500000D03*
X108316027Y-84061991D03*
X132511800Y-87156200D03*
X97500000Y-80500000D03*
X134543800Y-86131400D03*
X111746071Y-80936500D03*
X100787200Y-79527400D03*
X102002217Y-79550700D03*
X137845800Y-87156700D03*
X110210600Y-81350700D03*
X98500000Y-63000000D03*
X105164792Y-84970447D03*
X99029430Y-67431830D03*
X96919168Y-67556768D03*
X106125307Y-84628693D03*
X105181400Y-66421000D03*
X146500000Y-77500000D03*
X109873532Y-67530468D03*
X142372000Y-87000000D03*
D43*
X147000000Y-90475000D02*
X146975000Y-90500000D01*
X147000000Y-87000000D02*
X147000000Y-90475000D01*
X148056600Y-94069100D02*
X148437500Y-94450000D01*
X147150000Y-84000000D02*
X148056600Y-84906600D01*
X150987500Y-97000000D02*
X155372500Y-97000000D01*
X148437500Y-94450000D02*
X150987500Y-97000000D01*
X148056600Y-84906600D02*
X148056600Y-94069100D01*
X106934000Y-98479000D02*
X103757000Y-98479000D01*
X114500000Y-54610000D02*
X114500000Y-58114000D01*
X104000000Y-54029000D02*
X104000000Y-58114000D01*
D44*
X145500000Y-58500000D02*
X146500000Y-58500000D01*
X163885051Y-61500000D02*
X160885051Y-58500000D01*
X145500000Y-58500000D02*
X139500000Y-58500000D01*
X165500000Y-61500000D02*
X163885051Y-61500000D01*
X139500000Y-58500000D02*
X134840000Y-53840000D01*
X155000000Y-58500000D02*
X154975000Y-58475000D01*
X146500000Y-58500000D02*
X146500000Y-55405000D01*
X146500000Y-55405000D02*
X146475000Y-55380000D01*
X160885051Y-58500000D02*
X155000000Y-58500000D01*
X155000000Y-58500000D02*
X145500000Y-58500000D01*
X154975000Y-58475000D02*
X154975000Y-55380000D01*
D43*
X101568396Y-63721000D02*
X101025000Y-63177604D01*
X97703000Y-59595000D02*
X97703000Y-57805000D01*
X101025000Y-63177604D02*
X101025000Y-61186827D01*
X111858000Y-63721000D02*
X101568396Y-63721000D01*
X101025000Y-61186827D02*
X100417173Y-60579000D01*
X98687000Y-60579000D02*
X97703000Y-59595000D01*
X112803000Y-64666000D02*
X111858000Y-63721000D01*
X100417173Y-60579000D02*
X98687000Y-60579000D01*
X112803000Y-65246000D02*
X112803000Y-64666000D01*
D45*
X114053000Y-79763000D02*
X114053000Y-79716000D01*
D43*
X101147828Y-96500000D02*
X98175000Y-96500000D01*
X113792000Y-98604000D02*
X113767000Y-98629000D01*
X98833000Y-83667000D02*
X98833000Y-82746000D01*
X113767000Y-98629000D02*
X111000000Y-98629000D01*
X102125828Y-97478000D02*
X101147828Y-96500000D01*
X98175000Y-96500000D02*
X97925000Y-96750000D01*
X111000000Y-98629000D02*
X109849000Y-97478000D01*
X98500000Y-84000000D02*
X98833000Y-83667000D01*
X109849000Y-97478000D02*
X102125828Y-97478000D01*
X103500000Y-92500000D02*
X103500000Y-95372000D01*
X112041000Y-69798847D02*
X112041000Y-69188000D01*
X109149757Y-80735700D02*
X109719757Y-80165700D01*
X110056853Y-80165700D02*
X112877600Y-77344953D01*
X97631553Y-81671000D02*
X99384357Y-81671000D01*
X100319657Y-80735700D02*
X109149757Y-80735700D01*
X112943000Y-68286000D02*
X114053000Y-68286000D01*
X99384357Y-81671000D02*
X100319657Y-80735700D01*
X97215153Y-81254600D02*
X97631553Y-81671000D01*
X103500000Y-95372000D02*
X103632000Y-95504000D01*
X109719757Y-80165700D02*
X110056853Y-80165700D01*
X112877600Y-70635447D02*
X112041000Y-69798847D01*
X112877600Y-77344953D02*
X112877600Y-70635447D01*
X96570800Y-81254600D02*
X97215153Y-81254600D01*
X112041000Y-69188000D02*
X112943000Y-68286000D01*
X113359207Y-80849193D02*
X112537400Y-81671000D01*
X112537400Y-81671000D02*
X112028000Y-81671000D01*
X114000000Y-63000000D02*
X114000000Y-61714000D01*
X112028000Y-81671000D02*
X111533000Y-82166000D01*
X114402593Y-80849193D02*
X113359207Y-80849193D01*
X114000000Y-61714000D02*
X114500000Y-61214000D01*
X114477800Y-80924400D02*
X114402593Y-80849193D01*
X111533000Y-82166000D02*
X111533000Y-82746000D01*
X112776000Y-69494400D02*
X113411400Y-69494400D01*
X113411400Y-69494400D02*
X113473000Y-69556000D01*
X107499982Y-62230000D02*
X105457750Y-62230000D01*
X108141431Y-62871449D02*
X107499982Y-62230000D01*
X104441750Y-61214000D02*
X104000000Y-61214000D01*
X113473000Y-69556000D02*
X114053000Y-69556000D01*
X105457750Y-62230000D02*
X104441750Y-61214000D01*
X113665571Y-81583693D02*
X112803000Y-82446264D01*
X111000000Y-61214000D02*
X111194497Y-61214000D01*
X111194497Y-61214000D02*
X112980497Y-63000000D01*
X112803000Y-82446264D02*
X112803000Y-82746000D01*
X110768900Y-62255400D02*
X111500000Y-62986500D01*
X112776000Y-78486000D02*
X113013000Y-78486000D01*
X113013000Y-78486000D02*
X113053000Y-78446000D01*
X107500000Y-61214000D02*
X108541400Y-62255400D01*
X113053000Y-78446000D02*
X114053000Y-78446000D01*
X108541400Y-62255400D02*
X110768900Y-62255400D01*
X153475000Y-64500000D02*
X154975000Y-63000000D01*
X120500000Y-83500000D02*
X121666000Y-82334000D01*
X127136396Y-69500000D02*
X139186828Y-69500000D01*
X122450000Y-79686396D02*
X122450000Y-74186396D01*
X121666000Y-80470396D02*
X122450000Y-79686396D01*
X121666000Y-82334000D02*
X121666000Y-80470396D01*
X144186828Y-64500000D02*
X153475000Y-64500000D01*
X122450000Y-74186396D02*
X127136396Y-69500000D01*
X139186828Y-69500000D02*
X144186828Y-64500000D01*
X108993000Y-83493000D02*
X109771000Y-84271000D01*
X108993000Y-82746000D02*
X108993000Y-83493000D01*
X109771000Y-84271000D02*
X113815396Y-84271000D01*
X115307796Y-82778600D02*
X116678600Y-82778600D01*
X116678600Y-82778600D02*
X117400000Y-83500000D01*
X113815396Y-84271000D02*
X115307796Y-82778600D01*
X122000000Y-79500000D02*
X122000000Y-74000000D01*
X126950000Y-69050000D02*
X139000000Y-69050000D01*
X122000000Y-74000000D02*
X126950000Y-69050000D01*
X121500000Y-80000000D02*
X122000000Y-79500000D01*
X145025000Y-63000000D02*
X146475000Y-63000000D01*
X120550000Y-80000000D02*
X121500000Y-80000000D01*
X139000000Y-69025000D02*
X145025000Y-63000000D01*
X113629000Y-83821000D02*
X117450000Y-80000000D01*
X110758000Y-83821000D02*
X113629000Y-83821000D01*
X110263000Y-83326000D02*
X110758000Y-83821000D01*
X110263000Y-82746000D02*
X110263000Y-83326000D01*
D45*
X123520200Y-87326000D02*
X122073200Y-88773000D01*
X140000000Y-74620400D02*
X140000000Y-74160000D01*
X142163800Y-80872451D02*
X142163800Y-76784200D01*
X143850000Y-84000000D02*
X143850000Y-82558651D01*
X124750800Y-87326000D02*
X123520200Y-87326000D01*
X143850000Y-82558651D02*
X142163800Y-80872451D01*
X143282200Y-66217800D02*
X140000000Y-69500000D01*
X152872500Y-82500000D02*
X155372500Y-85000000D01*
X145000000Y-67500000D02*
X145000000Y-66217800D01*
X153480700Y-65608200D02*
X145796000Y-65608200D01*
X143593800Y-83743800D02*
X143850000Y-84000000D01*
X145000000Y-66404200D02*
X145000000Y-67500000D01*
X145000000Y-68850000D02*
X145000000Y-67500000D01*
X124053600Y-79400400D02*
X127457200Y-75996800D01*
X145350000Y-82500000D02*
X152872500Y-82500000D01*
X124750800Y-93813600D02*
X125374400Y-94437200D01*
X140000000Y-69500000D02*
X140000000Y-74160000D01*
X138163200Y-75996800D02*
X140000000Y-74160000D01*
X124053600Y-83108800D02*
X124053600Y-79400400D01*
X145796000Y-65608200D02*
X145000000Y-66404200D01*
X142163800Y-76784200D02*
X140000000Y-74620400D01*
X143850000Y-84000000D02*
X145350000Y-82500000D01*
X124750800Y-87326000D02*
X124750800Y-93813600D01*
X124700800Y-83756000D02*
X124053600Y-83108800D01*
X127457200Y-75996800D02*
X138163200Y-75996800D01*
X124750800Y-87326000D02*
X124700800Y-87276000D01*
X145000000Y-66217800D02*
X143282200Y-66217800D01*
X155372500Y-67500000D02*
X153480700Y-65608200D01*
X144850000Y-69000000D02*
X145000000Y-68850000D01*
X124700800Y-87276000D02*
X124700800Y-83756000D01*
D43*
X98062072Y-66321000D02*
X98338000Y-66321000D01*
X97777572Y-66605500D02*
X98062072Y-66321000D01*
X98833000Y-65826000D02*
X98833000Y-65246000D01*
X98338000Y-66321000D02*
X98833000Y-65826000D01*
X102643000Y-65826000D02*
X102643000Y-65246000D01*
X102500000Y-65969000D02*
X102643000Y-65826000D01*
X102500000Y-66500000D02*
X102500000Y-65969000D01*
X132511800Y-87679600D02*
X133299200Y-88467000D01*
X132029200Y-84534200D02*
X132029200Y-86673600D01*
X132511800Y-87156200D02*
X132511800Y-87679600D01*
X132029200Y-86673600D02*
X132511800Y-87156200D01*
X107723000Y-82746000D02*
X107723000Y-83468964D01*
X107723000Y-83468964D02*
X108316027Y-84061991D01*
X112427600Y-77158557D02*
X112427600Y-70821843D01*
X112427600Y-70821843D02*
X111533000Y-69927243D01*
X97500000Y-80500000D02*
X98221000Y-81221000D01*
X109533361Y-79715700D02*
X109870457Y-79715700D01*
X109870457Y-79715700D02*
X112427600Y-77158557D01*
X100133261Y-80285700D02*
X108963361Y-80285700D01*
X111533000Y-69927243D02*
X111533000Y-65246000D01*
X99197961Y-81221000D02*
X100133261Y-80285700D01*
X98221000Y-81221000D02*
X99197961Y-81221000D01*
X108963361Y-80285700D02*
X109533361Y-79715700D01*
D44*
X172735000Y-53425000D02*
X171810000Y-52500000D01*
X179805000Y-53425000D02*
X172735000Y-53425000D01*
X171810000Y-52500000D02*
X171810000Y-56500000D01*
X176995000Y-58505000D02*
X174000000Y-61500000D01*
X179805000Y-58505000D02*
X176995000Y-58505000D01*
X174000000Y-61500000D02*
X170360000Y-61500000D01*
D43*
X111000000Y-54029000D02*
X111000000Y-58114000D01*
X107500000Y-54029000D02*
X107500000Y-58114000D01*
X148000000Y-72500000D02*
X148000000Y-74975000D01*
X148437500Y-80000000D02*
X149500000Y-78937500D01*
X149500000Y-70850000D02*
X147650000Y-69000000D01*
X149500000Y-78937500D02*
X149500000Y-70850000D01*
X148437500Y-80000000D02*
X148937500Y-79500000D01*
X148937500Y-79500000D02*
X155372500Y-79500000D01*
D45*
X98552000Y-95504000D02*
X100965000Y-95504000D01*
X97536000Y-85305500D02*
X95736000Y-87105500D01*
X129350800Y-93000800D02*
X127914400Y-94437200D01*
X102235000Y-96774000D02*
X115168000Y-96774000D01*
X95736000Y-92688000D02*
X98552000Y-95504000D01*
X129350800Y-87326000D02*
X129350800Y-93000800D01*
X97536000Y-85305500D02*
X97536000Y-82773000D01*
X125857000Y-96494600D02*
X119796400Y-96494600D01*
X114500000Y-95504000D02*
X114500000Y-96106000D01*
X115168000Y-96774000D02*
X116565000Y-98171000D01*
X95736000Y-87105500D02*
X95736000Y-92688000D01*
X127914400Y-94437200D02*
X125857000Y-96494600D01*
X114500000Y-96106000D02*
X115168000Y-96774000D01*
X116565000Y-98171000D02*
X118120000Y-98171000D01*
X97536000Y-82773000D02*
X97563000Y-82746000D01*
X97549100Y-85318600D02*
X97536000Y-85305500D01*
X100965000Y-95504000D02*
X102235000Y-96774000D01*
X119796400Y-96494600D02*
X118120000Y-98171000D01*
X100914200Y-85318600D02*
X97549100Y-85318600D01*
D43*
X109891000Y-64171000D02*
X101382000Y-64171000D01*
X110236000Y-65219000D02*
X110236000Y-64516000D01*
X101382000Y-64171000D02*
X99568000Y-62357000D01*
X110236000Y-64516000D02*
X109891000Y-64171000D01*
X110263000Y-65246000D02*
X110236000Y-65219000D01*
X134543800Y-86131400D02*
X134442200Y-86233000D01*
X109906153Y-80615700D02*
X109336153Y-81185700D01*
X100103000Y-81746000D02*
X100103000Y-82746000D01*
X100663300Y-81185700D02*
X100103000Y-81746000D01*
X134543800Y-86131400D02*
X134646600Y-86131400D01*
X109336153Y-81185700D02*
X100663300Y-81185700D01*
X134594600Y-84531200D02*
X134594600Y-86080600D01*
X111746071Y-80936500D02*
X111425271Y-80615700D01*
X111425271Y-80615700D02*
X109906153Y-80615700D01*
X134646600Y-86131400D02*
X136956800Y-88441600D01*
X134594600Y-86080600D02*
X134543800Y-86131400D01*
X109301604Y-66771000D02*
X108851604Y-66321000D01*
X101267217Y-79246253D02*
X101697770Y-78815700D01*
X110633000Y-67251196D02*
X110152804Y-66771000D01*
X102306664Y-78815700D02*
X102876664Y-79385700D01*
X111500000Y-71167035D02*
X110633000Y-70300035D01*
X108590569Y-79385700D02*
X109160569Y-78815700D01*
X111500000Y-76813365D02*
X111500000Y-71167035D01*
X101697770Y-78815700D02*
X102306664Y-78815700D01*
X102876664Y-79385700D02*
X108590569Y-79385700D01*
X109160569Y-78815700D02*
X109497665Y-78815700D01*
X109497665Y-78815700D02*
X111500000Y-76813365D01*
X110633000Y-70300035D02*
X110633000Y-67251196D01*
X100787200Y-79527400D02*
X101068347Y-79246253D01*
X107723000Y-65826000D02*
X107723000Y-65246000D01*
X110152804Y-66771000D02*
X109301604Y-66771000D01*
X108851604Y-66321000D02*
X108218000Y-66321000D01*
X101068347Y-79246253D02*
X101267217Y-79246253D01*
X108218000Y-66321000D02*
X107723000Y-65826000D01*
X108776965Y-79835700D02*
X109346965Y-79265700D01*
X111977600Y-71008239D02*
X111083000Y-70113639D01*
X111083000Y-70113639D02*
X111083000Y-67064800D01*
X111083000Y-67064800D02*
X110339200Y-66321000D01*
X110339200Y-66321000D02*
X109488000Y-66321000D01*
X102287217Y-79835700D02*
X108776965Y-79835700D01*
X108993000Y-65826000D02*
X108993000Y-65246000D01*
X109488000Y-66321000D02*
X108993000Y-65826000D01*
X109684061Y-79265700D02*
X111977600Y-76972161D01*
X109346965Y-79265700D02*
X109684061Y-79265700D01*
X102002217Y-79550700D02*
X102287217Y-79835700D01*
X111977600Y-76972161D02*
X111977600Y-71008239D01*
D46*
X169000000Y-86425000D02*
X167575000Y-85000000D01*
X179807500Y-86425000D02*
X169000000Y-86425000D01*
X179805000Y-91505000D02*
X163387000Y-91505000D01*
X162839400Y-90957400D02*
X162796800Y-91000000D01*
X163387000Y-91505000D02*
X162839400Y-90957400D01*
X162796800Y-91000000D02*
X153372500Y-91000000D01*
X167987500Y-96585000D02*
X167572500Y-97000000D01*
X179720950Y-96697800D02*
X167903450Y-96697800D01*
X168757800Y-68757800D02*
X167575000Y-67575000D01*
X178565300Y-68757800D02*
X168757800Y-68757800D01*
X179807500Y-70000000D02*
X178565300Y-68757800D01*
D43*
X139253300Y-87156700D02*
X137845800Y-87156700D01*
X101373000Y-81746000D02*
X101483300Y-81635700D01*
X101373000Y-82746000D02*
X101373000Y-81746000D01*
X137083800Y-86394700D02*
X137845800Y-87156700D01*
X101483300Y-81635700D02*
X109925600Y-81635700D01*
X140538200Y-88441600D02*
X139253300Y-87156700D01*
X109925600Y-81635700D02*
X110210600Y-81350700D01*
X137083800Y-84531200D02*
X137083800Y-86394700D01*
D46*
X179805000Y-75000000D02*
X164005000Y-75000000D01*
X162500000Y-73495000D02*
X153372500Y-73495000D01*
X164005000Y-75000000D02*
X162500000Y-73495000D01*
X179805000Y-80085000D02*
X167952500Y-80085000D01*
X167952500Y-80085000D02*
X167572500Y-79705000D01*
D43*
X97925000Y-64884000D02*
X97563000Y-65246000D01*
X98500000Y-63000000D02*
X97925000Y-63575000D01*
X97925000Y-63575000D02*
X97925000Y-64884000D01*
X102643000Y-83326000D02*
X102643000Y-82746000D01*
X104287447Y-84970447D02*
X102643000Y-83326000D01*
X105164792Y-84970447D02*
X104287447Y-84970447D01*
X101373000Y-65826000D02*
X101373000Y-65246000D01*
X99405758Y-67055502D02*
X100143498Y-67055502D01*
X100143498Y-67055502D02*
X101373000Y-65826000D01*
X99029430Y-67431830D02*
X99405758Y-67055502D01*
X97228649Y-67556768D02*
X97373817Y-67411600D01*
X100103000Y-65826000D02*
X100103000Y-65246000D01*
X98816311Y-66605502D02*
X99323498Y-66605502D01*
X96919168Y-67556768D02*
X97228649Y-67556768D01*
X97373817Y-67411600D02*
X98010213Y-67411600D01*
X98010213Y-67411600D02*
X98816311Y-66605502D01*
X99323498Y-66605502D02*
X100103000Y-65826000D01*
X106125307Y-84628693D02*
X105717614Y-84221000D01*
X103913000Y-83589237D02*
X103913000Y-82746000D01*
X105717614Y-84221000D02*
X104544763Y-84221000D01*
X104544763Y-84221000D02*
X103913000Y-83589237D01*
D47*
X108000000Y-85700400D02*
X107162600Y-86537800D01*
X108000000Y-85500000D02*
X108000000Y-85700400D01*
X105703000Y-83796000D02*
X106296000Y-83796000D01*
X106296000Y-83796000D02*
X108000000Y-85500000D01*
X107188200Y-89383400D02*
X107238200Y-89433400D01*
X107162600Y-89357800D02*
X107238200Y-89433400D01*
X105183000Y-82746000D02*
X105183000Y-83276000D01*
X104292400Y-86258400D02*
X104571800Y-86537800D01*
X107162600Y-86537800D02*
X107162600Y-89357800D01*
X104571800Y-86537800D02*
X107162600Y-86537800D01*
X105183000Y-83276000D02*
X105703000Y-83796000D01*
X110388200Y-89383400D02*
X110338200Y-89433400D01*
X106453000Y-83202349D02*
X108022568Y-84771917D01*
X108771917Y-84771917D02*
X110412600Y-86412600D01*
X110412600Y-89359000D02*
X110338200Y-89433400D01*
X110412600Y-86537800D02*
X110412600Y-89359000D01*
X110412600Y-86412600D02*
X110412600Y-86537800D01*
X108022568Y-84771917D02*
X108771917Y-84771917D01*
X113309400Y-86258400D02*
X113030000Y-86537800D01*
X113030000Y-86537800D02*
X110412600Y-86537800D01*
X106453000Y-82746000D02*
X106453000Y-83202349D01*
D43*
X144600000Y-79000000D02*
X144100000Y-79500000D01*
X146562500Y-79050000D02*
X146512500Y-79000000D01*
X146500000Y-77500000D02*
X146500000Y-74100000D01*
X105181400Y-66421000D02*
X105183000Y-66419400D01*
X146512500Y-79000000D02*
X144600000Y-79000000D01*
X146562500Y-79050000D02*
X146500000Y-78987500D01*
X146500000Y-74100000D02*
X144400000Y-72000000D01*
X105183000Y-66419400D02*
X105183000Y-65246000D01*
X146500000Y-78987500D02*
X146500000Y-77500000D01*
X142372000Y-87000000D02*
X143900000Y-87000000D01*
X108665208Y-66771000D02*
X107398000Y-66771000D01*
X145542000Y-92479500D02*
X146562500Y-93500000D01*
X142372000Y-86645600D02*
X141172000Y-85445600D01*
X109115208Y-67221000D02*
X108665208Y-66771000D01*
X107398000Y-66771000D02*
X106453000Y-65826000D01*
X144810400Y-87000000D02*
X143900000Y-87000000D01*
X145542000Y-87731600D02*
X145542000Y-92479500D01*
X142372000Y-87000000D02*
X142372000Y-86645600D01*
X144810400Y-87000000D02*
X145542000Y-87731600D01*
X106453000Y-65826000D02*
X106453000Y-65246000D01*
X109873532Y-67530468D02*
X109564064Y-67221000D01*
X141172000Y-85445600D02*
X140817600Y-85445600D01*
X109564064Y-67221000D02*
X109115208Y-67221000D01*
X135534400Y-94437200D02*
X133299200Y-92202000D01*
X133299200Y-92202000D02*
X133299200Y-91567000D01*
X138074400Y-94437200D02*
X138074400Y-92659200D01*
X138074400Y-92659200D02*
X136956800Y-91541600D01*
X140614400Y-91617800D02*
X140538200Y-91541600D01*
X140614400Y-94437200D02*
X140614400Y-91617800D01*
G04 #@! TA.AperFunction,Conductor*
G36*
X139858894Y-75551975D02*
G01*
X141368395Y-77061476D01*
X141395709Y-77102353D01*
X141405300Y-77150571D01*
X141405300Y-77541000D01*
X141388419Y-77604000D01*
X141342300Y-77650119D01*
X141279300Y-77667000D01*
X141254000Y-77667000D01*
X141254000Y-81290809D01*
X141244409Y-81339027D01*
X141224000Y-81369570D01*
X141224000Y-83301600D01*
X142095503Y-83301600D01*
X142199328Y-83290993D01*
X142367522Y-83235259D01*
X142518342Y-83142232D01*
X142643632Y-83016942D01*
X142736657Y-82866124D01*
X142759050Y-82798546D01*
X142793530Y-82745281D01*
X142849597Y-82715574D01*
X142913032Y-82716957D01*
X142967750Y-82749082D01*
X143054595Y-82835927D01*
X143081909Y-82876804D01*
X143091500Y-82925022D01*
X143091500Y-83068984D01*
X143081909Y-83117202D01*
X143054595Y-83158079D01*
X143045717Y-83166956D01*
X142955695Y-83312902D01*
X142949045Y-83332972D01*
X142932658Y-83365603D01*
X142921621Y-83381365D01*
X142856158Y-83546147D01*
X142836444Y-83680732D01*
X142830459Y-83721589D01*
X142832263Y-83742204D01*
X142845913Y-83898227D01*
X142885105Y-84016501D01*
X142891500Y-84056133D01*
X142891500Y-84326870D01*
X142874984Y-84389234D01*
X142829765Y-84435249D01*
X142767699Y-84452851D01*
X142705056Y-84437426D01*
X142658259Y-84393017D01*
X142655926Y-84389234D01*
X142644030Y-84369948D01*
X142644028Y-84369946D01*
X142644027Y-84369944D01*
X142518655Y-84244572D01*
X142506770Y-84237241D01*
X142367738Y-84151485D01*
X142199426Y-84095713D01*
X142095545Y-84085100D01*
X142095540Y-84085100D01*
X139844459Y-84085100D01*
X139740573Y-84095713D01*
X139572262Y-84151485D01*
X139421344Y-84244572D01*
X139295972Y-84369944D01*
X139255692Y-84435249D01*
X139202885Y-84520862D01*
X139147113Y-84689174D01*
X139137092Y-84787267D01*
X139136500Y-84793059D01*
X139136500Y-85694140D01*
X139144309Y-85770574D01*
X139147113Y-85798026D01*
X139202885Y-85966338D01*
X139295970Y-86117252D01*
X139295972Y-86117255D01*
X139421344Y-86242627D01*
X139421346Y-86242628D01*
X139421348Y-86242630D01*
X139548273Y-86320918D01*
X139576277Y-86349895D01*
X139626114Y-86353559D01*
X139740574Y-86391487D01*
X139844455Y-86402100D01*
X141180405Y-86402099D01*
X141228623Y-86411690D01*
X141269500Y-86439004D01*
X141455679Y-86625183D01*
X141489103Y-86684864D01*
X141486417Y-86753214D01*
X141468622Y-86807979D01*
X141450450Y-86980885D01*
X141448441Y-87000000D01*
X141456257Y-87074367D01*
X141463569Y-87143929D01*
X141451507Y-87212335D01*
X141405029Y-87263954D01*
X141338259Y-87283100D01*
X140327795Y-87283100D01*
X140279577Y-87273509D01*
X140238700Y-87246195D01*
X139760544Y-86768039D01*
X139747471Y-86751721D01*
X139695648Y-86703056D01*
X139692836Y-86700331D01*
X139673070Y-86680565D01*
X139669875Y-86678086D01*
X139660853Y-86670381D01*
X139628620Y-86640113D01*
X139610867Y-86630353D01*
X139594341Y-86619497D01*
X139578341Y-86607086D01*
X139537766Y-86589528D01*
X139527112Y-86584309D01*
X139525793Y-86583584D01*
X139493590Y-86553634D01*
X139432084Y-86543795D01*
X139431446Y-86543519D01*
X139387775Y-86536602D01*
X139376153Y-86534195D01*
X139333330Y-86523200D01*
X139333329Y-86523200D01*
X139313076Y-86523200D01*
X139293366Y-86521649D01*
X139273357Y-86518479D01*
X139229339Y-86522641D01*
X139217481Y-86523200D01*
X138567456Y-86523200D01*
X138516206Y-86512306D01*
X138473819Y-86481509D01*
X138463782Y-86470362D01*
X138307580Y-86356874D01*
X138291905Y-86349895D01*
X138131195Y-86278343D01*
X137942338Y-86238200D01*
X137942336Y-86238200D01*
X137875395Y-86238200D01*
X137827177Y-86228609D01*
X137786300Y-86201295D01*
X137754205Y-86169200D01*
X137726891Y-86128323D01*
X137717300Y-86080105D01*
X137717300Y-85587000D01*
X137733276Y-85525594D01*
X137777153Y-85479759D01*
X137781443Y-85477113D01*
X137857452Y-85430230D01*
X137982830Y-85304852D01*
X138075915Y-85153938D01*
X138131687Y-84985626D01*
X138142300Y-84881745D01*
X138142299Y-84180656D01*
X138131687Y-84076774D01*
X138075915Y-83908462D01*
X137982830Y-83757548D01*
X137982828Y-83757546D01*
X137982827Y-83757544D01*
X137857455Y-83632172D01*
X137857452Y-83632170D01*
X137706538Y-83539085D01*
X137538226Y-83483313D01*
X137434345Y-83472700D01*
X137434340Y-83472700D01*
X136733259Y-83472700D01*
X136629373Y-83483313D01*
X136461062Y-83539085D01*
X136310144Y-83632172D01*
X136184772Y-83757544D01*
X136145977Y-83820441D01*
X136091685Y-83908462D01*
X136035913Y-84076774D01*
X136026760Y-84166371D01*
X136025300Y-84180659D01*
X136025300Y-84881740D01*
X136029621Y-84924036D01*
X136035913Y-84985626D01*
X136091685Y-85153938D01*
X136173551Y-85286663D01*
X136184772Y-85304855D01*
X136310144Y-85430227D01*
X136310146Y-85430228D01*
X136310148Y-85430230D01*
X136344386Y-85451348D01*
X136390447Y-85479759D01*
X136434324Y-85525594D01*
X136450300Y-85587000D01*
X136450300Y-86310847D01*
X136448004Y-86331635D01*
X136450238Y-86402686D01*
X136450300Y-86406645D01*
X136450300Y-86434557D01*
X136450807Y-86438573D01*
X136451737Y-86450396D01*
X136453126Y-86494592D01*
X136458777Y-86514041D01*
X136462786Y-86533396D01*
X136465325Y-86553494D01*
X136465325Y-86553496D01*
X136465326Y-86553497D01*
X136479591Y-86589528D01*
X136481601Y-86594603D01*
X136485444Y-86605830D01*
X136497780Y-86648290D01*
X136508094Y-86665730D01*
X136516787Y-86683474D01*
X136524010Y-86701715D01*
X136524249Y-86702319D01*
X136550231Y-86738080D01*
X136556748Y-86748001D01*
X136579258Y-86786063D01*
X136593578Y-86800383D01*
X136606418Y-86815416D01*
X136618326Y-86831805D01*
X136618327Y-86831806D01*
X136618328Y-86831807D01*
X136633444Y-86844312D01*
X136652398Y-86859992D01*
X136661178Y-86867982D01*
X136861201Y-87068005D01*
X136891939Y-87118164D01*
X136896555Y-87176811D01*
X136874042Y-87231161D01*
X136829309Y-87269367D01*
X136772106Y-87283100D01*
X136746395Y-87283100D01*
X136698177Y-87273509D01*
X136657300Y-87246195D01*
X135490084Y-86078979D01*
X135465453Y-86044128D01*
X135453869Y-86003054D01*
X135447177Y-85939379D01*
X135387513Y-85755755D01*
X135305060Y-85612942D01*
X135288185Y-85551163D01*
X135303859Y-85489069D01*
X135348030Y-85442703D01*
X135368252Y-85430230D01*
X135493630Y-85304852D01*
X135586715Y-85153938D01*
X135642487Y-84985626D01*
X135653100Y-84881745D01*
X135653099Y-84180656D01*
X135642487Y-84076774D01*
X135586715Y-83908462D01*
X135493630Y-83757548D01*
X135493628Y-83757546D01*
X135493627Y-83757544D01*
X135368255Y-83632172D01*
X135368252Y-83632170D01*
X135217338Y-83539085D01*
X135049026Y-83483313D01*
X134945145Y-83472700D01*
X134945140Y-83472700D01*
X134244059Y-83472700D01*
X134140173Y-83483313D01*
X133971862Y-83539085D01*
X133820944Y-83632172D01*
X133695572Y-83757544D01*
X133656777Y-83820441D01*
X133602485Y-83908462D01*
X133546713Y-84076774D01*
X133537560Y-84166371D01*
X133536100Y-84180659D01*
X133536100Y-84881740D01*
X133540421Y-84924036D01*
X133546713Y-84985626D01*
X133602485Y-85153938D01*
X133684351Y-85286663D01*
X133695572Y-85304855D01*
X133798609Y-85407892D01*
X133830632Y-85462254D01*
X133832286Y-85525326D01*
X133803155Y-85581292D01*
X133796626Y-85588543D01*
X133700086Y-85755754D01*
X133640423Y-85939379D01*
X133620241Y-86131399D01*
X133640423Y-86323420D01*
X133700086Y-86507045D01*
X133796625Y-86674255D01*
X133916507Y-86807397D01*
X133925818Y-86817738D01*
X134082020Y-86931226D01*
X134258405Y-87009757D01*
X134447262Y-87049900D01*
X134447264Y-87049900D01*
X134617006Y-87049900D01*
X134665224Y-87059491D01*
X134706101Y-87086805D01*
X134765567Y-87146271D01*
X134798550Y-87204173D01*
X134797387Y-87270800D01*
X134762404Y-87327516D01*
X134703386Y-87358458D01*
X134636840Y-87354971D01*
X134528627Y-87319113D01*
X134507849Y-87316990D01*
X134424745Y-87308500D01*
X134424741Y-87308500D01*
X133559289Y-87308500D01*
X133492519Y-87289354D01*
X133446041Y-87237735D01*
X133433979Y-87169331D01*
X133435359Y-87156200D01*
X133426089Y-87068005D01*
X133415177Y-86964181D01*
X133366840Y-86815416D01*
X133355513Y-86780554D01*
X133258974Y-86613344D01*
X133129783Y-86469863D01*
X133124309Y-86465886D01*
X132973580Y-86356374D01*
X132840735Y-86297228D01*
X132797191Y-86277841D01*
X132762502Y-86270468D01*
X132711126Y-86246511D01*
X132675452Y-86202456D01*
X132662700Y-86147222D01*
X132662700Y-85590000D01*
X132678676Y-85528594D01*
X132722553Y-85482759D01*
X132727417Y-85479759D01*
X132802852Y-85433230D01*
X132928230Y-85307852D01*
X133021315Y-85156938D01*
X133077087Y-84988626D01*
X133087700Y-84884745D01*
X133087699Y-84183656D01*
X133077087Y-84079774D01*
X133021315Y-83911462D01*
X132928230Y-83760548D01*
X132928228Y-83760546D01*
X132928227Y-83760544D01*
X132802855Y-83635172D01*
X132797988Y-83632170D01*
X132651938Y-83542085D01*
X132483626Y-83486313D01*
X132379745Y-83475700D01*
X132379740Y-83475700D01*
X131678659Y-83475700D01*
X131574773Y-83486313D01*
X131406462Y-83542085D01*
X131255544Y-83635172D01*
X131130172Y-83760544D01*
X131079029Y-83843459D01*
X131037085Y-83911462D01*
X130981313Y-84079774D01*
X130971007Y-84180656D01*
X130970700Y-84183659D01*
X130970700Y-84884740D01*
X130980083Y-84976587D01*
X130981313Y-84988626D01*
X131037085Y-85156938D01*
X131130170Y-85307852D01*
X131130172Y-85307855D01*
X131255544Y-85433227D01*
X131255546Y-85433228D01*
X131255548Y-85433230D01*
X131330983Y-85479759D01*
X131335847Y-85482759D01*
X131379724Y-85528594D01*
X131395700Y-85590000D01*
X131395700Y-86589747D01*
X131393404Y-86610535D01*
X131395638Y-86681586D01*
X131395700Y-86685545D01*
X131395700Y-86713457D01*
X131396207Y-86717473D01*
X131397137Y-86729296D01*
X131398526Y-86773492D01*
X131404177Y-86792941D01*
X131408186Y-86812296D01*
X131410725Y-86832394D01*
X131410725Y-86832396D01*
X131410726Y-86832397D01*
X131421651Y-86859992D01*
X131427001Y-86873503D01*
X131430844Y-86884730D01*
X131443180Y-86927190D01*
X131453494Y-86944630D01*
X131462187Y-86962374D01*
X131462902Y-86964179D01*
X131469649Y-86981219D01*
X131495631Y-87016980D01*
X131502148Y-87026901D01*
X131524656Y-87064960D01*
X131524657Y-87064961D01*
X131524658Y-87064962D01*
X131538983Y-87079287D01*
X131551820Y-87094317D01*
X131566951Y-87115143D01*
X131590325Y-87176033D01*
X131593283Y-87204173D01*
X131608423Y-87348219D01*
X131608424Y-87348222D01*
X131648784Y-87472440D01*
X131651472Y-87540780D01*
X131630044Y-87579051D01*
X131632901Y-87580814D01*
X131625169Y-87593348D01*
X131625170Y-87593348D01*
X131532085Y-87744262D01*
X131476313Y-87912574D01*
X131468562Y-87988447D01*
X131465700Y-88016459D01*
X131465700Y-88917540D01*
X131465992Y-88920397D01*
X131476313Y-89021426D01*
X131532085Y-89189738D01*
X131600074Y-89299965D01*
X131625172Y-89340655D01*
X131750544Y-89466027D01*
X131750546Y-89466028D01*
X131750548Y-89466030D01*
X131901462Y-89559115D01*
X132069774Y-89614887D01*
X132173655Y-89625500D01*
X134424744Y-89625499D01*
X134528626Y-89614887D01*
X134696938Y-89559115D01*
X134847852Y-89466030D01*
X134973230Y-89340652D01*
X135028594Y-89250892D01*
X135074426Y-89207017D01*
X135135833Y-89191041D01*
X135197239Y-89207017D01*
X135243072Y-89250892D01*
X135273341Y-89299965D01*
X135282772Y-89315255D01*
X135408144Y-89440627D01*
X135408146Y-89440628D01*
X135408148Y-89440630D01*
X135559062Y-89533715D01*
X135727374Y-89589487D01*
X135831255Y-89600100D01*
X138082344Y-89600099D01*
X138186226Y-89589487D01*
X138354538Y-89533715D01*
X138505452Y-89440630D01*
X138630830Y-89315252D01*
X138640260Y-89299962D01*
X138686093Y-89256087D01*
X138747500Y-89240111D01*
X138808907Y-89256087D01*
X138854739Y-89299962D01*
X138864170Y-89315252D01*
X138864171Y-89315253D01*
X138864173Y-89315256D01*
X138989544Y-89440627D01*
X138989546Y-89440628D01*
X138989548Y-89440630D01*
X139140462Y-89533715D01*
X139308774Y-89589487D01*
X139412655Y-89600100D01*
X141663744Y-89600099D01*
X141767626Y-89589487D01*
X141935938Y-89533715D01*
X142086852Y-89440630D01*
X142212230Y-89315252D01*
X142305315Y-89164338D01*
X142361087Y-88996026D01*
X142371700Y-88892145D01*
X142371699Y-88041115D01*
X142384451Y-87985882D01*
X142420125Y-87941827D01*
X142471502Y-87917870D01*
X142496417Y-87912574D01*
X142589305Y-87892830D01*
X142644913Y-87893557D01*
X142694794Y-87918155D01*
X142729225Y-87961831D01*
X142741500Y-88016075D01*
X142741500Y-88125539D01*
X142749513Y-88203973D01*
X142752113Y-88229426D01*
X142807885Y-88397738D01*
X142886241Y-88524773D01*
X142900972Y-88548655D01*
X143032326Y-88680009D01*
X143064938Y-88736493D01*
X143064938Y-88801715D01*
X143032327Y-88858199D01*
X142938864Y-88951662D01*
X142845844Y-89102470D01*
X142790106Y-89270676D01*
X142779500Y-89374498D01*
X142779500Y-90246000D01*
X144128000Y-90246000D01*
X144191000Y-90262881D01*
X144237119Y-90309000D01*
X144254000Y-90372000D01*
X144254000Y-92332999D01*
X144513003Y-92332999D01*
X144616827Y-92322393D01*
X144741760Y-92280994D01*
X144807373Y-92277306D01*
X144865920Y-92307157D01*
X144901472Y-92362427D01*
X144903281Y-92403577D01*
X144905798Y-92403498D01*
X144906298Y-92419408D01*
X144906298Y-92419409D01*
X144906870Y-92437616D01*
X144908438Y-92487486D01*
X144908500Y-92491445D01*
X144908500Y-92519357D01*
X144909007Y-92523373D01*
X144909937Y-92535196D01*
X144911326Y-92579392D01*
X144916977Y-92598841D01*
X144920986Y-92618196D01*
X144923525Y-92638294D01*
X144923525Y-92638296D01*
X144923526Y-92638297D01*
X144936174Y-92670244D01*
X144939801Y-92679403D01*
X144943644Y-92690630D01*
X144955980Y-92733090D01*
X144966294Y-92750530D01*
X144974987Y-92768274D01*
X144982448Y-92787117D01*
X144982449Y-92787119D01*
X145008431Y-92822880D01*
X145014948Y-92832801D01*
X145037458Y-92870863D01*
X145051778Y-92885183D01*
X145064618Y-92900216D01*
X145076526Y-92916605D01*
X145110592Y-92944787D01*
X145119373Y-92952777D01*
X145287757Y-93121162D01*
X145320702Y-93178920D01*
X145319849Y-93233252D01*
X145320451Y-93233300D01*
X145319699Y-93242854D01*
X145319659Y-93245406D01*
X145319438Y-93246164D01*
X145316500Y-93283503D01*
X145316500Y-93716497D01*
X145319438Y-93753833D01*
X145359200Y-93890695D01*
X145365855Y-93913601D01*
X145413845Y-93994748D01*
X145450549Y-94056810D01*
X145568189Y-94174450D01*
X145568191Y-94174451D01*
X145568193Y-94174453D01*
X145711399Y-94259145D01*
X145871169Y-94305562D01*
X145908498Y-94308500D01*
X147065500Y-94308500D01*
X147128500Y-94325381D01*
X147174619Y-94371500D01*
X147191500Y-94434500D01*
X147191500Y-94466000D01*
X147174619Y-94529000D01*
X147128500Y-94575119D01*
X147065500Y-94592000D01*
X146816500Y-94592000D01*
X146816500Y-95146000D01*
X147445158Y-95146000D01*
X147509297Y-95163547D01*
X147586399Y-95209145D01*
X147746169Y-95255562D01*
X147783498Y-95258500D01*
X148297906Y-95258500D01*
X148346124Y-95268091D01*
X148387001Y-95295405D01*
X149633074Y-96541478D01*
X149660388Y-96582355D01*
X149669979Y-96630572D01*
X149669999Y-99822999D01*
X149653118Y-99886000D01*
X149606999Y-99932119D01*
X149543999Y-99949000D01*
X115915398Y-99949000D01*
X115848008Y-99929464D01*
X115801515Y-99876913D01*
X115790337Y-99807644D01*
X115817941Y-99743137D01*
X115875764Y-99703396D01*
X115897738Y-99696115D01*
X116048652Y-99603030D01*
X116174030Y-99477652D01*
X116267115Y-99326738D01*
X116322887Y-99158426D01*
X116333500Y-99054545D01*
X116333499Y-99054539D01*
X116334152Y-99048158D01*
X116335050Y-99048249D01*
X116346085Y-99000104D01*
X116381347Y-98956164D01*
X116432233Y-98931983D01*
X116461616Y-98932199D01*
X116461616Y-98929500D01*
X116474633Y-98929500D01*
X116497111Y-98931796D01*
X116498438Y-98931757D01*
X116498442Y-98931758D01*
X116572697Y-98929597D01*
X116574224Y-98929553D01*
X116577888Y-98929500D01*
X116635500Y-98929500D01*
X116698500Y-98946381D01*
X116744619Y-98992500D01*
X116761500Y-99055500D01*
X116761500Y-99069638D01*
X116768011Y-99130201D01*
X116784173Y-99173533D01*
X116819111Y-99267205D01*
X116906738Y-99384261D01*
X117023794Y-99471888D01*
X117023795Y-99471888D01*
X117023796Y-99471889D01*
X117160799Y-99522989D01*
X117221362Y-99529500D01*
X119018638Y-99529500D01*
X119079201Y-99522989D01*
X119216204Y-99471889D01*
X119333261Y-99384261D01*
X119420889Y-99267204D01*
X119464999Y-99148941D01*
X119501530Y-99096903D01*
X119558821Y-99069327D01*
X119622282Y-99073237D01*
X119675753Y-99107636D01*
X119706373Y-99140897D01*
X119736762Y-99173908D01*
X119914421Y-99312187D01*
X119914424Y-99312189D01*
X120112426Y-99419342D01*
X120325365Y-99492444D01*
X120547431Y-99529500D01*
X120772566Y-99529500D01*
X120772569Y-99529500D01*
X120994635Y-99492444D01*
X121207574Y-99419342D01*
X121405576Y-99312189D01*
X121583240Y-99173906D01*
X121735722Y-99008268D01*
X121824518Y-98872354D01*
X121870031Y-98830458D01*
X121930000Y-98815272D01*
X121989969Y-98830458D01*
X122035481Y-98872354D01*
X122124278Y-99008268D01*
X122236525Y-99130200D01*
X122276762Y-99173908D01*
X122454421Y-99312187D01*
X122454424Y-99312189D01*
X122652426Y-99419342D01*
X122865365Y-99492444D01*
X123087431Y-99529500D01*
X123312566Y-99529500D01*
X123312569Y-99529500D01*
X123534635Y-99492444D01*
X123747574Y-99419342D01*
X123945576Y-99312189D01*
X124123240Y-99173906D01*
X124275722Y-99008268D01*
X124364818Y-98871896D01*
X124410329Y-98829999D01*
X124470299Y-98814813D01*
X124530268Y-98829999D01*
X124575782Y-98871897D01*
X124664678Y-99007962D01*
X124817096Y-99173533D01*
X124994697Y-99311766D01*
X125192631Y-99418883D01*
X125405485Y-99491955D01*
X125486000Y-99505391D01*
X125486000Y-98425000D01*
X125994000Y-98425000D01*
X125994000Y-99505391D01*
X126074514Y-99491955D01*
X126287368Y-99418883D01*
X126485302Y-99311766D01*
X126662903Y-99173533D01*
X126758545Y-99069638D01*
X128054500Y-99069638D01*
X128061011Y-99130201D01*
X128077173Y-99173533D01*
X128112111Y-99267205D01*
X128199738Y-99384261D01*
X128316794Y-99471888D01*
X128316795Y-99471888D01*
X128316796Y-99471889D01*
X128453799Y-99522989D01*
X128514362Y-99529500D01*
X130311638Y-99529500D01*
X130372201Y-99522989D01*
X130509204Y-99471889D01*
X130626261Y-99384261D01*
X130713889Y-99267204D01*
X130757999Y-99148941D01*
X130794530Y-99096903D01*
X130851821Y-99069327D01*
X130915282Y-99073237D01*
X130968753Y-99107636D01*
X130999373Y-99140897D01*
X131029762Y-99173908D01*
X131207421Y-99312187D01*
X131207424Y-99312189D01*
X131405426Y-99419342D01*
X131618365Y-99492444D01*
X131840431Y-99529500D01*
X132065566Y-99529500D01*
X132065569Y-99529500D01*
X132287635Y-99492444D01*
X132500574Y-99419342D01*
X132698576Y-99312189D01*
X132876240Y-99173906D01*
X133028722Y-99008268D01*
X133117518Y-98872354D01*
X133163031Y-98830458D01*
X133223000Y-98815272D01*
X133282969Y-98830458D01*
X133328481Y-98872354D01*
X133417278Y-99008268D01*
X133529525Y-99130200D01*
X133569762Y-99173908D01*
X133747421Y-99312187D01*
X133747424Y-99312189D01*
X133945426Y-99419342D01*
X134158365Y-99492444D01*
X134380431Y-99529500D01*
X134605566Y-99529500D01*
X134605569Y-99529500D01*
X134827635Y-99492444D01*
X135040574Y-99419342D01*
X135238576Y-99312189D01*
X135416240Y-99173906D01*
X135568722Y-99008268D01*
X135657518Y-98872354D01*
X135703031Y-98830458D01*
X135763000Y-98815272D01*
X135822969Y-98830458D01*
X135868481Y-98872354D01*
X135957278Y-99008268D01*
X136069525Y-99130200D01*
X136109762Y-99173908D01*
X136287421Y-99312187D01*
X136287424Y-99312189D01*
X136485426Y-99419342D01*
X136698365Y-99492444D01*
X136920431Y-99529500D01*
X137145566Y-99529500D01*
X137145569Y-99529500D01*
X137367635Y-99492444D01*
X137580574Y-99419342D01*
X137778576Y-99312189D01*
X137956240Y-99173906D01*
X138108722Y-99008268D01*
X138197518Y-98872354D01*
X138243031Y-98830458D01*
X138303000Y-98815272D01*
X138362969Y-98830458D01*
X138408481Y-98872354D01*
X138497278Y-99008268D01*
X138609525Y-99130200D01*
X138649762Y-99173908D01*
X138827421Y-99312187D01*
X138827424Y-99312189D01*
X139025426Y-99419342D01*
X139238365Y-99492444D01*
X139460431Y-99529500D01*
X139685566Y-99529500D01*
X139685569Y-99529500D01*
X139907635Y-99492444D01*
X140120574Y-99419342D01*
X140318576Y-99312189D01*
X140496240Y-99173906D01*
X140648722Y-99008268D01*
X140737518Y-98872354D01*
X140783031Y-98830458D01*
X140843000Y-98815272D01*
X140902969Y-98830458D01*
X140948481Y-98872354D01*
X141037278Y-99008268D01*
X141149525Y-99130200D01*
X141189762Y-99173908D01*
X141367421Y-99312187D01*
X141367424Y-99312189D01*
X141565426Y-99419342D01*
X141778365Y-99492444D01*
X142000431Y-99529500D01*
X142225566Y-99529500D01*
X142225569Y-99529500D01*
X142447635Y-99492444D01*
X142660574Y-99419342D01*
X142858576Y-99312189D01*
X143036240Y-99173906D01*
X143188722Y-99008268D01*
X143277518Y-98872354D01*
X143323031Y-98830458D01*
X143383000Y-98815272D01*
X143442969Y-98830458D01*
X143488481Y-98872354D01*
X143577278Y-99008268D01*
X143689525Y-99130200D01*
X143729762Y-99173908D01*
X143907421Y-99312187D01*
X143907424Y-99312189D01*
X144105426Y-99419342D01*
X144318365Y-99492444D01*
X144540431Y-99529500D01*
X144765566Y-99529500D01*
X144765569Y-99529500D01*
X144987635Y-99492444D01*
X145200574Y-99419342D01*
X145398576Y-99312189D01*
X145576240Y-99173906D01*
X145728722Y-99008268D01*
X145851860Y-98819791D01*
X145942296Y-98613616D01*
X145997564Y-98395368D01*
X146016156Y-98171000D01*
X145997564Y-97946632D01*
X145942296Y-97728384D01*
X145851860Y-97522209D01*
X145728722Y-97333732D01*
X145576240Y-97168094D01*
X145576239Y-97168093D01*
X145576237Y-97168091D01*
X145398578Y-97029812D01*
X145200573Y-96922657D01*
X145047510Y-96870111D01*
X144987635Y-96849556D01*
X144765569Y-96812500D01*
X144540431Y-96812500D01*
X144318365Y-96849556D01*
X144318362Y-96849556D01*
X144318362Y-96849557D01*
X144105426Y-96922657D01*
X143907421Y-97029812D01*
X143729762Y-97168091D01*
X143577278Y-97333731D01*
X143488483Y-97469643D01*
X143442969Y-97511541D01*
X143383000Y-97526727D01*
X143323031Y-97511541D01*
X143277517Y-97469643D01*
X143231226Y-97398790D01*
X143188722Y-97333732D01*
X143036240Y-97168094D01*
X143036239Y-97168093D01*
X143036237Y-97168091D01*
X142858578Y-97029812D01*
X142660573Y-96922657D01*
X142507510Y-96870111D01*
X142447635Y-96849556D01*
X142225569Y-96812500D01*
X142000431Y-96812500D01*
X141778365Y-96849556D01*
X141778362Y-96849556D01*
X141778362Y-96849557D01*
X141565426Y-96922657D01*
X141367421Y-97029812D01*
X141189762Y-97168091D01*
X141037278Y-97333731D01*
X140948483Y-97469643D01*
X140902969Y-97511541D01*
X140843000Y-97526727D01*
X140783031Y-97511541D01*
X140737517Y-97469643D01*
X140691226Y-97398790D01*
X140648722Y-97333732D01*
X140496240Y-97168094D01*
X140496239Y-97168093D01*
X140496237Y-97168091D01*
X140318578Y-97029812D01*
X140120573Y-96922657D01*
X139967510Y-96870111D01*
X139907635Y-96849556D01*
X139685569Y-96812500D01*
X139460431Y-96812500D01*
X139238365Y-96849556D01*
X139238362Y-96849556D01*
X139238362Y-96849557D01*
X139025426Y-96922657D01*
X138827421Y-97029812D01*
X138649762Y-97168091D01*
X138497278Y-97333731D01*
X138408483Y-97469643D01*
X138362969Y-97511541D01*
X138303000Y-97526727D01*
X138243031Y-97511541D01*
X138197517Y-97469643D01*
X138151226Y-97398790D01*
X138108722Y-97333732D01*
X137956240Y-97168094D01*
X137956239Y-97168093D01*
X137956237Y-97168091D01*
X137778578Y-97029812D01*
X137580573Y-96922657D01*
X137427510Y-96870111D01*
X137367635Y-96849556D01*
X137145569Y-96812500D01*
X136920431Y-96812500D01*
X136698365Y-96849556D01*
X136698362Y-96849556D01*
X136698362Y-96849557D01*
X136485426Y-96922657D01*
X136287421Y-97029812D01*
X136109762Y-97168091D01*
X135957278Y-97333731D01*
X135868483Y-97469643D01*
X135822969Y-97511541D01*
X135763000Y-97526727D01*
X135703031Y-97511541D01*
X135657517Y-97469643D01*
X135611226Y-97398790D01*
X135568722Y-97333732D01*
X135416240Y-97168094D01*
X135416239Y-97168093D01*
X135416237Y-97168091D01*
X135238578Y-97029812D01*
X135040573Y-96922657D01*
X134887510Y-96870111D01*
X134827635Y-96849556D01*
X134605569Y-96812500D01*
X134380431Y-96812500D01*
X134158365Y-96849556D01*
X134158362Y-96849556D01*
X134158362Y-96849557D01*
X133945426Y-96922657D01*
X133747421Y-97029812D01*
X133569762Y-97168091D01*
X133417278Y-97333731D01*
X133328483Y-97469643D01*
X133282969Y-97511541D01*
X133223000Y-97526727D01*
X133163031Y-97511541D01*
X133117517Y-97469643D01*
X133071226Y-97398790D01*
X133028722Y-97333732D01*
X132876240Y-97168094D01*
X132876239Y-97168093D01*
X132876237Y-97168091D01*
X132698578Y-97029812D01*
X132500573Y-96922657D01*
X132347510Y-96870111D01*
X132287635Y-96849556D01*
X132065569Y-96812500D01*
X131840431Y-96812500D01*
X131618365Y-96849556D01*
X131618362Y-96849556D01*
X131618362Y-96849557D01*
X131405426Y-96922657D01*
X131207421Y-97029812D01*
X131029758Y-97168094D01*
X130968754Y-97234362D01*
X130915282Y-97268762D01*
X130851820Y-97272672D01*
X130794530Y-97245096D01*
X130757998Y-97193056D01*
X130753447Y-97180854D01*
X130713889Y-97074796D01*
X130702882Y-97060092D01*
X130626261Y-96957738D01*
X130509205Y-96870111D01*
X130440702Y-96844560D01*
X130372201Y-96819011D01*
X130311638Y-96812500D01*
X128514362Y-96812500D01*
X128453799Y-96819011D01*
X128316794Y-96870111D01*
X128199738Y-96957738D01*
X128112111Y-97074794D01*
X128073977Y-97177035D01*
X128061011Y-97211799D01*
X128054500Y-97272362D01*
X128054500Y-99069638D01*
X126758545Y-99069638D01*
X126815321Y-99007962D01*
X126938419Y-98819548D01*
X127028822Y-98613451D01*
X127076544Y-98425000D01*
X125994000Y-98425000D01*
X125486000Y-98425000D01*
X125486000Y-98043000D01*
X125502881Y-97980000D01*
X125549000Y-97933881D01*
X125612000Y-97917000D01*
X127076544Y-97917000D01*
X127076544Y-97916999D01*
X127028822Y-97728548D01*
X126938419Y-97522451D01*
X126815321Y-97334037D01*
X126662900Y-97168462D01*
X126546581Y-97077927D01*
X126505374Y-97021046D01*
X126501022Y-96950942D01*
X126534874Y-96889405D01*
X127607496Y-95816783D01*
X127658149Y-95785887D01*
X127717328Y-95781599D01*
X127737164Y-95784909D01*
X127801829Y-95795700D01*
X127801831Y-95795700D01*
X128026966Y-95795700D01*
X128026969Y-95795700D01*
X128249035Y-95758644D01*
X128461974Y-95685542D01*
X128659976Y-95578389D01*
X128837640Y-95440106D01*
X128990122Y-95274468D01*
X129078918Y-95138554D01*
X129124431Y-95096658D01*
X129184400Y-95081472D01*
X129244369Y-95096658D01*
X129289881Y-95138554D01*
X129378678Y-95274468D01*
X129490925Y-95396400D01*
X129531162Y-95440108D01*
X129708821Y-95578387D01*
X129708824Y-95578389D01*
X129906826Y-95685542D01*
X130119765Y-95758644D01*
X130341831Y-95795700D01*
X130566966Y-95795700D01*
X130566969Y-95795700D01*
X130789035Y-95758644D01*
X131001974Y-95685542D01*
X131199976Y-95578389D01*
X131377640Y-95440106D01*
X131530122Y-95274468D01*
X131618918Y-95138554D01*
X131664431Y-95096658D01*
X131724400Y-95081472D01*
X131784369Y-95096658D01*
X131829881Y-95138554D01*
X131918678Y-95274468D01*
X132030925Y-95396400D01*
X132071162Y-95440108D01*
X132248821Y-95578387D01*
X132248824Y-95578389D01*
X132446826Y-95685542D01*
X132659765Y-95758644D01*
X132881831Y-95795700D01*
X133106966Y-95795700D01*
X133106969Y-95795700D01*
X133329035Y-95758644D01*
X133541974Y-95685542D01*
X133739976Y-95578389D01*
X133917640Y-95440106D01*
X134070122Y-95274468D01*
X134158918Y-95138554D01*
X134204431Y-95096658D01*
X134264400Y-95081472D01*
X134324369Y-95096658D01*
X134369881Y-95138554D01*
X134458678Y-95274468D01*
X134570925Y-95396400D01*
X134611162Y-95440108D01*
X134788821Y-95578387D01*
X134788824Y-95578389D01*
X134986826Y-95685542D01*
X135199765Y-95758644D01*
X135421831Y-95795700D01*
X135646966Y-95795700D01*
X135646969Y-95795700D01*
X135869035Y-95758644D01*
X136081974Y-95685542D01*
X136279976Y-95578389D01*
X136457640Y-95440106D01*
X136610122Y-95274468D01*
X136698918Y-95138554D01*
X136744431Y-95096658D01*
X136804400Y-95081472D01*
X136864369Y-95096658D01*
X136909881Y-95138554D01*
X136998678Y-95274468D01*
X137110925Y-95396400D01*
X137151162Y-95440108D01*
X137328821Y-95578387D01*
X137328824Y-95578389D01*
X137526826Y-95685542D01*
X137739765Y-95758644D01*
X137961831Y-95795700D01*
X138186966Y-95795700D01*
X138186969Y-95795700D01*
X138409035Y-95758644D01*
X138621974Y-95685542D01*
X138819976Y-95578389D01*
X138997640Y-95440106D01*
X139150122Y-95274468D01*
X139238918Y-95138554D01*
X139284431Y-95096658D01*
X139344400Y-95081472D01*
X139404369Y-95096658D01*
X139449881Y-95138554D01*
X139538678Y-95274468D01*
X139650925Y-95396400D01*
X139691162Y-95440108D01*
X139868821Y-95578387D01*
X139868824Y-95578389D01*
X140066826Y-95685542D01*
X140279765Y-95758644D01*
X140501831Y-95795700D01*
X140726966Y-95795700D01*
X140726969Y-95795700D01*
X140949035Y-95758644D01*
X141161974Y-95685542D01*
X141359976Y-95578389D01*
X141537640Y-95440106D01*
X141690122Y-95274468D01*
X141779218Y-95138096D01*
X141824729Y-95096199D01*
X141884699Y-95081013D01*
X141944668Y-95096199D01*
X141990182Y-95138097D01*
X142079078Y-95274162D01*
X142231496Y-95439733D01*
X142409097Y-95577966D01*
X142607031Y-95685083D01*
X142819885Y-95758155D01*
X142900400Y-95771591D01*
X142900400Y-94691200D01*
X143408400Y-94691200D01*
X143408400Y-95771591D01*
X143488914Y-95758155D01*
X143701768Y-95685083D01*
X143759204Y-95654000D01*
X145320007Y-95654000D01*
X145366318Y-95813399D01*
X145450947Y-95956501D01*
X145568498Y-96074052D01*
X145711600Y-96158681D01*
X145871247Y-96205064D01*
X145908547Y-96208000D01*
X146308500Y-96208000D01*
X146308500Y-95654000D01*
X146816500Y-95654000D01*
X146816500Y-96207999D01*
X147216454Y-96207999D01*
X147253752Y-96205064D01*
X147413398Y-96158682D01*
X147556501Y-96074052D01*
X147674052Y-95956501D01*
X147758681Y-95813399D01*
X147804993Y-95654000D01*
X146816500Y-95654000D01*
X146308500Y-95654000D01*
X145320007Y-95654000D01*
X143759204Y-95654000D01*
X143899702Y-95577966D01*
X144077303Y-95439733D01*
X144229721Y-95274162D01*
X144313454Y-95146000D01*
X145320007Y-95146000D01*
X146308500Y-95146000D01*
X146308500Y-94592001D01*
X145908546Y-94592001D01*
X145871247Y-94594935D01*
X145711601Y-94641317D01*
X145568498Y-94725947D01*
X145450947Y-94843498D01*
X145366318Y-94986600D01*
X145320007Y-95146000D01*
X144313454Y-95146000D01*
X144352819Y-95085748D01*
X144443222Y-94879651D01*
X144490944Y-94691200D01*
X143408400Y-94691200D01*
X142900400Y-94691200D01*
X142900400Y-93102809D01*
X143408400Y-93102809D01*
X143408400Y-94183200D01*
X144490944Y-94183200D01*
X144490944Y-94183199D01*
X144443222Y-93994748D01*
X144352819Y-93788651D01*
X144229721Y-93600237D01*
X144077303Y-93434666D01*
X143899702Y-93296433D01*
X143701768Y-93189316D01*
X143488914Y-93116244D01*
X143408400Y-93102809D01*
X142900400Y-93102809D01*
X142819885Y-93116244D01*
X142607031Y-93189316D01*
X142409097Y-93296433D01*
X142231496Y-93434666D01*
X142079078Y-93600237D01*
X141990182Y-93736302D01*
X141944668Y-93778200D01*
X141884699Y-93793386D01*
X141824729Y-93778200D01*
X141779216Y-93736301D01*
X141766281Y-93716502D01*
X141690122Y-93599932D01*
X141537640Y-93434294D01*
X141537639Y-93434293D01*
X141537637Y-93434291D01*
X141359981Y-93296014D01*
X141359977Y-93296011D01*
X141359976Y-93296011D01*
X141313928Y-93271091D01*
X141265659Y-93224776D01*
X141247900Y-93160279D01*
X141247900Y-92826099D01*
X141264781Y-92763099D01*
X141310900Y-92716980D01*
X141373900Y-92700099D01*
X141663740Y-92700099D01*
X141663744Y-92700099D01*
X141767626Y-92689487D01*
X141935938Y-92633715D01*
X142086852Y-92540630D01*
X142212230Y-92415252D01*
X142305315Y-92264338D01*
X142361087Y-92096026D01*
X142371700Y-91992145D01*
X142371699Y-91091056D01*
X142361087Y-90987174D01*
X142305315Y-90818862D01*
X142265308Y-90754000D01*
X142779501Y-90754000D01*
X142779501Y-91625503D01*
X142790106Y-91729323D01*
X142845844Y-91897529D01*
X142938865Y-92048339D01*
X143064160Y-92173634D01*
X143214970Y-92266655D01*
X143383176Y-92322393D01*
X143486998Y-92333000D01*
X143746000Y-92333000D01*
X143746000Y-90754000D01*
X142779501Y-90754000D01*
X142265308Y-90754000D01*
X142212230Y-90667948D01*
X142212228Y-90667946D01*
X142212227Y-90667944D01*
X142086855Y-90542572D01*
X142086852Y-90542570D01*
X141935938Y-90449485D01*
X141767626Y-90393713D01*
X141663745Y-90383100D01*
X141663740Y-90383100D01*
X139412659Y-90383100D01*
X139308773Y-90393713D01*
X139140462Y-90449485D01*
X138989544Y-90542572D01*
X138864169Y-90667947D01*
X138854740Y-90683235D01*
X138808906Y-90727112D01*
X138747500Y-90743088D01*
X138686094Y-90727112D01*
X138640260Y-90683235D01*
X138630830Y-90667947D01*
X138505455Y-90542572D01*
X138505452Y-90542570D01*
X138354538Y-90449485D01*
X138186226Y-90393713D01*
X138082345Y-90383100D01*
X138082340Y-90383100D01*
X135831259Y-90383100D01*
X135727373Y-90393713D01*
X135559062Y-90449485D01*
X135408144Y-90542572D01*
X135282772Y-90667944D01*
X135227407Y-90757705D01*
X135181572Y-90801582D01*
X135120165Y-90817558D01*
X135058759Y-90801582D01*
X135012925Y-90757704D01*
X135010640Y-90754000D01*
X134973230Y-90693348D01*
X134973229Y-90693347D01*
X134973228Y-90693345D01*
X134847855Y-90567972D01*
X134843223Y-90565115D01*
X134696938Y-90474885D01*
X134528626Y-90419113D01*
X134424745Y-90408500D01*
X134424740Y-90408500D01*
X132173659Y-90408500D01*
X132069773Y-90419113D01*
X131901462Y-90474885D01*
X131750544Y-90567972D01*
X131625172Y-90693344D01*
X131625170Y-90693348D01*
X131532085Y-90844262D01*
X131476313Y-91012574D01*
X131466623Y-91107427D01*
X131465700Y-91116459D01*
X131465700Y-92017540D01*
X131469103Y-92050846D01*
X131476313Y-92121426D01*
X131532085Y-92289738D01*
X131624638Y-92439789D01*
X131625172Y-92440655D01*
X131750544Y-92566027D01*
X131750546Y-92566028D01*
X131750548Y-92566030D01*
X131901462Y-92659115D01*
X132069774Y-92714887D01*
X132173655Y-92725500D01*
X132874605Y-92725499D01*
X132922823Y-92735090D01*
X132963700Y-92762404D01*
X133064901Y-92863605D01*
X133095639Y-92913764D01*
X133100255Y-92972411D01*
X133077742Y-93026761D01*
X133033009Y-93064967D01*
X132975806Y-93078700D01*
X132881831Y-93078700D01*
X132659765Y-93115756D01*
X132659762Y-93115756D01*
X132659762Y-93115757D01*
X132446826Y-93188857D01*
X132248821Y-93296012D01*
X132071162Y-93434291D01*
X131918678Y-93599931D01*
X131829883Y-93735843D01*
X131784369Y-93777741D01*
X131724400Y-93792927D01*
X131664431Y-93777741D01*
X131618917Y-93735843D01*
X131559199Y-93644438D01*
X131530122Y-93599932D01*
X131377640Y-93434294D01*
X131377639Y-93434293D01*
X131377637Y-93434291D01*
X131199978Y-93296012D01*
X131001973Y-93188857D01*
X130839725Y-93133158D01*
X130789035Y-93115756D01*
X130566969Y-93078700D01*
X130341831Y-93078700D01*
X130341828Y-93078700D01*
X130256039Y-93093016D01*
X130201851Y-93090214D01*
X130153866Y-93064884D01*
X130120983Y-93021723D01*
X130109300Y-92968735D01*
X130109300Y-88951995D01*
X130124001Y-88892931D01*
X130164673Y-88847650D01*
X130196144Y-88836123D01*
X130195173Y-88833519D01*
X130209998Y-88827989D01*
X130210001Y-88827989D01*
X130347004Y-88776889D01*
X130464061Y-88689261D01*
X130551689Y-88572204D01*
X130602789Y-88435201D01*
X130609300Y-88374638D01*
X130609300Y-86277362D01*
X130602789Y-86216799D01*
X130551689Y-86079796D01*
X130551688Y-86079794D01*
X130464061Y-85962738D01*
X130347005Y-85875111D01*
X130278502Y-85849560D01*
X130210001Y-85824011D01*
X130149438Y-85817500D01*
X128552162Y-85817500D01*
X128491599Y-85824011D01*
X128354594Y-85875111D01*
X128275891Y-85934028D01*
X128227165Y-85956281D01*
X128173598Y-85956280D01*
X128124872Y-85934028D01*
X128046760Y-85875553D01*
X127909893Y-85824505D01*
X127849389Y-85818000D01*
X127304800Y-85818000D01*
X127304800Y-88834000D01*
X127849389Y-88834000D01*
X127909893Y-88827494D01*
X128046762Y-88776445D01*
X128124874Y-88717972D01*
X128173600Y-88695719D01*
X128227167Y-88695720D01*
X128275891Y-88717971D01*
X128354596Y-88776889D01*
X128491599Y-88827989D01*
X128491601Y-88827989D01*
X128506427Y-88833519D01*
X128505455Y-88836123D01*
X128536927Y-88847650D01*
X128577599Y-88892931D01*
X128592300Y-88951995D01*
X128592300Y-92634429D01*
X128582709Y-92682647D01*
X128555395Y-92723525D01*
X128221303Y-93057614D01*
X128170649Y-93088511D01*
X128111471Y-93092800D01*
X128053663Y-93083154D01*
X128026969Y-93078700D01*
X127801831Y-93078700D01*
X127579765Y-93115756D01*
X127579762Y-93115756D01*
X127579762Y-93115757D01*
X127366826Y-93188857D01*
X127168821Y-93296012D01*
X126991158Y-93434294D01*
X126930154Y-93500562D01*
X126876682Y-93534962D01*
X126813220Y-93538872D01*
X126755930Y-93511296D01*
X126719398Y-93459256D01*
X126710088Y-93434294D01*
X126675289Y-93340996D01*
X126674073Y-93339371D01*
X126587661Y-93223938D01*
X126470605Y-93136311D01*
X126382568Y-93103475D01*
X126333601Y-93085211D01*
X126273038Y-93078700D01*
X125635300Y-93078700D01*
X125572300Y-93061819D01*
X125526181Y-93015700D01*
X125509300Y-92952700D01*
X125509300Y-88951995D01*
X125524001Y-88892931D01*
X125564673Y-88847650D01*
X125596144Y-88836123D01*
X125595173Y-88833519D01*
X125609998Y-88827989D01*
X125610001Y-88827989D01*
X125747004Y-88776889D01*
X125825708Y-88717971D01*
X125874433Y-88695719D01*
X125928000Y-88695719D01*
X125976727Y-88717971D01*
X126054839Y-88776446D01*
X126191706Y-88827494D01*
X126252211Y-88834000D01*
X126796800Y-88834000D01*
X126796800Y-85818000D01*
X126252211Y-85818000D01*
X126191706Y-85824505D01*
X126054837Y-85875554D01*
X125976725Y-85934028D01*
X125928000Y-85956280D01*
X125874434Y-85956279D01*
X125825708Y-85934027D01*
X125747005Y-85875111D01*
X125701336Y-85858077D01*
X125610001Y-85824011D01*
X125594559Y-85822350D01*
X125571830Y-85819907D01*
X125514675Y-85798975D01*
X125474001Y-85753694D01*
X125459300Y-85694629D01*
X125459300Y-83820441D01*
X125460630Y-83802180D01*
X125460867Y-83800556D01*
X125464141Y-83778211D01*
X125459779Y-83728353D01*
X125459300Y-83717372D01*
X125459300Y-83711824D01*
X125459300Y-83711820D01*
X125455660Y-83680684D01*
X125455296Y-83677123D01*
X125448687Y-83601574D01*
X125448685Y-83601569D01*
X125448570Y-83600250D01*
X125444334Y-83581138D01*
X125442512Y-83576132D01*
X125417947Y-83508641D01*
X125416752Y-83505203D01*
X125410493Y-83486313D01*
X125392914Y-83433262D01*
X125392912Y-83433260D01*
X125392492Y-83431990D01*
X125383970Y-83414386D01*
X125383235Y-83413268D01*
X125341556Y-83349900D01*
X125339612Y-83346846D01*
X125299130Y-83281213D01*
X125286764Y-83266034D01*
X125230625Y-83213069D01*
X125227997Y-83210516D01*
X124849005Y-82831524D01*
X124821691Y-82790647D01*
X124812100Y-82742429D01*
X124812100Y-82623331D01*
X124826452Y-82564929D01*
X124866239Y-82519832D01*
X124922397Y-82498313D01*
X124982132Y-82505275D01*
X125041706Y-82527494D01*
X125102211Y-82534000D01*
X126796800Y-82534000D01*
X126796800Y-81280000D01*
X127304800Y-81280000D01*
X127304800Y-82534000D01*
X128999389Y-82534000D01*
X129059893Y-82527494D01*
X129196762Y-82476445D01*
X129313704Y-82388904D01*
X129401245Y-82271962D01*
X129452294Y-82135093D01*
X129458800Y-82074589D01*
X129458800Y-81988200D01*
X130971200Y-81988200D01*
X130971200Y-82084703D01*
X130981806Y-82188528D01*
X131037540Y-82356722D01*
X131130567Y-82507542D01*
X131255857Y-82632832D01*
X131406677Y-82725859D01*
X131574871Y-82781593D01*
X131678697Y-82792200D01*
X131775200Y-82792200D01*
X131775200Y-81988200D01*
X132283200Y-81988200D01*
X132283200Y-82792200D01*
X132379703Y-82792200D01*
X132483528Y-82781593D01*
X132651722Y-82725859D01*
X132802542Y-82632832D01*
X132927832Y-82507542D01*
X133020859Y-82356722D01*
X133076593Y-82188528D01*
X133087200Y-82084703D01*
X133087200Y-81988200D01*
X132283200Y-81988200D01*
X131775200Y-81988200D01*
X130971200Y-81988200D01*
X129458800Y-81988200D01*
X129458800Y-81985200D01*
X133536600Y-81985200D01*
X133536600Y-82081703D01*
X133547206Y-82185528D01*
X133602940Y-82353722D01*
X133695967Y-82504542D01*
X133821257Y-82629832D01*
X133972077Y-82722859D01*
X134140271Y-82778593D01*
X134244097Y-82789200D01*
X134340600Y-82789200D01*
X134340600Y-81985200D01*
X134848600Y-81985200D01*
X134848600Y-82789200D01*
X134945103Y-82789200D01*
X135048928Y-82778593D01*
X135217122Y-82722859D01*
X135367942Y-82629832D01*
X135493232Y-82504542D01*
X135586259Y-82353722D01*
X135641993Y-82185528D01*
X135652600Y-82081703D01*
X135652600Y-81985200D01*
X136025800Y-81985200D01*
X136025800Y-82081703D01*
X136036406Y-82185528D01*
X136092140Y-82353722D01*
X136185167Y-82504542D01*
X136310457Y-82629832D01*
X136461277Y-82722859D01*
X136629471Y-82778593D01*
X136733297Y-82789200D01*
X136829800Y-82789200D01*
X136829800Y-81985200D01*
X137337800Y-81985200D01*
X137337800Y-82789200D01*
X137434303Y-82789200D01*
X137538128Y-82778593D01*
X137706322Y-82722859D01*
X137857142Y-82629832D01*
X137982432Y-82504542D01*
X138048395Y-82397600D01*
X139137000Y-82397600D01*
X139137000Y-82594103D01*
X139147606Y-82697928D01*
X139203340Y-82866122D01*
X139296367Y-83016942D01*
X139421657Y-83142232D01*
X139572477Y-83235259D01*
X139740671Y-83290993D01*
X139844497Y-83301600D01*
X140716000Y-83301600D01*
X140716000Y-82397600D01*
X139137000Y-82397600D01*
X138048395Y-82397600D01*
X138075459Y-82353722D01*
X138131193Y-82185528D01*
X138141800Y-82081703D01*
X138141800Y-81985200D01*
X137337800Y-81985200D01*
X136829800Y-81985200D01*
X136025800Y-81985200D01*
X135652600Y-81985200D01*
X134848600Y-81985200D01*
X134340600Y-81985200D01*
X133536600Y-81985200D01*
X129458800Y-81985200D01*
X129458800Y-81889600D01*
X139137000Y-81889600D01*
X140716000Y-81889600D01*
X140716000Y-81027791D01*
X140725591Y-80979573D01*
X140746000Y-80949030D01*
X140746000Y-79754000D01*
X139842000Y-79754000D01*
X139842000Y-80625503D01*
X139852606Y-80729323D01*
X139885099Y-80827381D01*
X139890475Y-80883006D01*
X139871267Y-80935484D01*
X139831252Y-80974494D01*
X139778302Y-80992361D01*
X139740676Y-80996205D01*
X139572477Y-81051940D01*
X139421657Y-81144967D01*
X139296367Y-81270257D01*
X139203340Y-81421077D01*
X139147606Y-81589271D01*
X139137000Y-81693097D01*
X139137000Y-81889600D01*
X129458800Y-81889600D01*
X129458800Y-81480200D01*
X130971200Y-81480200D01*
X131775200Y-81480200D01*
X131775200Y-80676200D01*
X132283200Y-80676200D01*
X132283200Y-81480200D01*
X133087200Y-81480200D01*
X133087200Y-81477200D01*
X133536600Y-81477200D01*
X134340600Y-81477200D01*
X134340600Y-80673200D01*
X134848600Y-80673200D01*
X134848600Y-81477200D01*
X135652600Y-81477200D01*
X136025800Y-81477200D01*
X136829800Y-81477200D01*
X136829800Y-80673200D01*
X137337800Y-80673200D01*
X137337800Y-81477200D01*
X138141800Y-81477200D01*
X138141800Y-81380697D01*
X138131193Y-81276871D01*
X138075459Y-81108677D01*
X137982432Y-80957857D01*
X137857142Y-80832567D01*
X137706322Y-80739540D01*
X137538128Y-80683806D01*
X137434303Y-80673200D01*
X137337800Y-80673200D01*
X136829800Y-80673200D01*
X136733297Y-80673200D01*
X136629471Y-80683806D01*
X136461277Y-80739540D01*
X136310457Y-80832567D01*
X136185167Y-80957857D01*
X136092140Y-81108677D01*
X136036406Y-81276871D01*
X136025800Y-81380697D01*
X136025800Y-81477200D01*
X135652600Y-81477200D01*
X135652600Y-81380697D01*
X135641993Y-81276871D01*
X135586259Y-81108677D01*
X135493232Y-80957857D01*
X135367942Y-80832567D01*
X135217122Y-80739540D01*
X135048928Y-80683806D01*
X134945103Y-80673200D01*
X134848600Y-80673200D01*
X134340600Y-80673200D01*
X134244097Y-80673200D01*
X134140271Y-80683806D01*
X133972077Y-80739540D01*
X133821257Y-80832567D01*
X133695967Y-80957857D01*
X133602940Y-81108677D01*
X133547206Y-81276871D01*
X133536600Y-81380697D01*
X133536600Y-81477200D01*
X133087200Y-81477200D01*
X133087200Y-81383697D01*
X133076593Y-81279871D01*
X133020859Y-81111677D01*
X132927832Y-80960857D01*
X132802542Y-80835567D01*
X132651722Y-80742540D01*
X132483528Y-80686806D01*
X132379703Y-80676200D01*
X132283200Y-80676200D01*
X131775200Y-80676200D01*
X131678697Y-80676200D01*
X131574871Y-80686806D01*
X131406677Y-80742540D01*
X131255857Y-80835567D01*
X131130567Y-80960857D01*
X131037540Y-81111677D01*
X130981806Y-81279871D01*
X130971200Y-81383697D01*
X130971200Y-81480200D01*
X129458800Y-81480200D01*
X129458800Y-81280000D01*
X127304800Y-81280000D01*
X126796800Y-81280000D01*
X126796800Y-79518000D01*
X127304800Y-79518000D01*
X127304800Y-80772000D01*
X129458800Y-80772000D01*
X129458800Y-79977411D01*
X129452294Y-79916906D01*
X129401245Y-79780037D01*
X129313704Y-79663095D01*
X129196762Y-79575554D01*
X129059893Y-79524505D01*
X128999389Y-79518000D01*
X127304800Y-79518000D01*
X126796800Y-79518000D01*
X125312870Y-79518000D01*
X125255667Y-79504267D01*
X125210934Y-79466061D01*
X125188421Y-79411711D01*
X125193037Y-79353064D01*
X125223773Y-79302907D01*
X125280680Y-79246000D01*
X139842000Y-79246000D01*
X140746000Y-79246000D01*
X140746000Y-77667000D01*
X140549497Y-77667000D01*
X140445671Y-77677606D01*
X140277477Y-77733340D01*
X140126657Y-77826367D01*
X140001367Y-77951657D01*
X139908340Y-78102477D01*
X139852606Y-78270671D01*
X139842000Y-78374497D01*
X139842000Y-79246000D01*
X125280680Y-79246000D01*
X127734476Y-76792205D01*
X127775353Y-76764891D01*
X127823571Y-76755300D01*
X138098759Y-76755300D01*
X138117020Y-76756630D01*
X138140989Y-76760141D01*
X138187453Y-76756075D01*
X138190847Y-76755779D01*
X138201828Y-76755300D01*
X138207377Y-76755300D01*
X138207380Y-76755300D01*
X138238501Y-76751661D01*
X138242089Y-76751295D01*
X138317626Y-76744687D01*
X138317630Y-76744685D01*
X138318951Y-76744570D01*
X138338056Y-76740335D01*
X138339306Y-76739879D01*
X138339313Y-76739879D01*
X138410600Y-76713932D01*
X138413969Y-76712761D01*
X138485938Y-76688914D01*
X138485939Y-76688912D01*
X138487207Y-76688493D01*
X138504813Y-76679969D01*
X138505925Y-76679237D01*
X138505932Y-76679235D01*
X138569338Y-76637530D01*
X138572361Y-76635606D01*
X138636851Y-76595830D01*
X138636852Y-76595828D01*
X138637988Y-76595128D01*
X138653159Y-76582770D01*
X138654071Y-76581802D01*
X138654074Y-76581801D01*
X138706129Y-76526624D01*
X138708648Y-76524031D01*
X139680706Y-75551973D01*
X139737188Y-75519363D01*
X139802410Y-75519363D01*
X139858894Y-75551975D01*
G37*
G04 #@! TD.AperFunction*
G04 #@! TA.AperFunction,Conductor*
G36*
X95175436Y-93219538D02*
G01*
X95225595Y-93250276D01*
X97322535Y-95347216D01*
X97353029Y-95396632D01*
X97358124Y-95454477D01*
X97336736Y-95508463D01*
X97293410Y-95547124D01*
X97179423Y-95608811D01*
X97001762Y-95747091D01*
X96849278Y-95912731D01*
X96726139Y-96101209D01*
X96635702Y-96307388D01*
X96584422Y-96509890D01*
X96580436Y-96525632D01*
X96561844Y-96750000D01*
X96580436Y-96974368D01*
X96580436Y-96974371D01*
X96580437Y-96974372D01*
X96635702Y-97192611D01*
X96726139Y-97398790D01*
X96726140Y-97398791D01*
X96849278Y-97587268D01*
X96979189Y-97728388D01*
X97001762Y-97752908D01*
X97179421Y-97891187D01*
X97179424Y-97891189D01*
X97377426Y-97998342D01*
X97590365Y-98071444D01*
X97812431Y-98108500D01*
X98037566Y-98108500D01*
X98037569Y-98108500D01*
X98259635Y-98071444D01*
X98472574Y-97998342D01*
X98627174Y-97914676D01*
X98687272Y-97899491D01*
X98747340Y-97914801D01*
X98792838Y-97956903D01*
X98812754Y-98015605D01*
X98831390Y-98252403D01*
X98890495Y-98498591D01*
X98938071Y-98613451D01*
X98987384Y-98732502D01*
X99119672Y-98948376D01*
X99284102Y-99140898D01*
X99476624Y-99305328D01*
X99692498Y-99437616D01*
X99926409Y-99534505D01*
X100103536Y-99577029D01*
X100172596Y-99593609D01*
X100191011Y-99595058D01*
X100425000Y-99613474D01*
X100677403Y-99593609D01*
X100923591Y-99534505D01*
X101157502Y-99437616D01*
X101373376Y-99305328D01*
X101565898Y-99140898D01*
X101730328Y-98948376D01*
X101862616Y-98732502D01*
X101924092Y-98584083D01*
X101966439Y-98530368D01*
X102030614Y-98506692D01*
X102097702Y-98520037D01*
X102147932Y-98566469D01*
X102166500Y-98632304D01*
X102166500Y-99054540D01*
X102174230Y-99130201D01*
X102177113Y-99158426D01*
X102232885Y-99326738D01*
X102325970Y-99477652D01*
X102325972Y-99477655D01*
X102451344Y-99603027D01*
X102451346Y-99603028D01*
X102451348Y-99603030D01*
X102602262Y-99696115D01*
X102624235Y-99703396D01*
X102682059Y-99743137D01*
X102709663Y-99807644D01*
X102698485Y-99876913D01*
X102651992Y-99929464D01*
X102584602Y-99949000D01*
X95136500Y-99949000D01*
X95073500Y-99932119D01*
X95027381Y-99886000D01*
X95010500Y-99823000D01*
X95010500Y-93339371D01*
X95024233Y-93282168D01*
X95062439Y-93237435D01*
X95116789Y-93214922D01*
X95175436Y-93219538D01*
G37*
G04 #@! TD.AperFunction*
G04 #@! TA.AperFunction,Conductor*
G36*
X102213843Y-50055342D02*
G01*
X102260075Y-50102594D01*
X102276021Y-50166749D01*
X102257291Y-50230148D01*
X102233343Y-50268972D01*
X102177606Y-50437176D01*
X102167000Y-50540998D01*
X102167000Y-50800000D01*
X116332999Y-50800000D01*
X116332999Y-50540997D01*
X116322393Y-50437176D01*
X116266656Y-50268972D01*
X116242709Y-50230148D01*
X116223979Y-50166749D01*
X116239925Y-50102594D01*
X116286157Y-50055342D01*
X116349949Y-50038000D01*
X122874290Y-50038000D01*
X122937206Y-50054832D01*
X122983312Y-50100832D01*
X123000289Y-50163709D01*
X123005671Y-52498591D01*
X123037599Y-66351799D01*
X123037600Y-66351800D01*
X140473105Y-66351800D01*
X140530308Y-66365533D01*
X140575041Y-66403739D01*
X140597554Y-66458089D01*
X140592938Y-66516736D01*
X140562200Y-66566895D01*
X138749500Y-68379595D01*
X138708623Y-68406909D01*
X138660405Y-68416500D01*
X127033853Y-68416500D01*
X127013064Y-68414204D01*
X126942014Y-68416438D01*
X126938055Y-68416500D01*
X126910139Y-68416500D01*
X126906123Y-68417007D01*
X126894303Y-68417937D01*
X126850110Y-68419326D01*
X126830657Y-68424978D01*
X126811303Y-68428986D01*
X126791202Y-68431525D01*
X126750098Y-68447800D01*
X126738869Y-68451645D01*
X126696405Y-68463982D01*
X126678964Y-68474296D01*
X126661217Y-68482990D01*
X126642384Y-68490447D01*
X126606611Y-68516437D01*
X126596693Y-68522951D01*
X126558639Y-68545457D01*
X126544312Y-68559783D01*
X126529283Y-68572618D01*
X126512894Y-68584525D01*
X126484701Y-68618604D01*
X126476713Y-68627381D01*
X121611336Y-73492757D01*
X121595016Y-73505833D01*
X121546370Y-73557635D01*
X121543620Y-73560473D01*
X121523868Y-73580226D01*
X121523864Y-73580230D01*
X121523865Y-73580230D01*
X121521379Y-73583433D01*
X121513687Y-73592439D01*
X121483413Y-73624678D01*
X121473652Y-73642434D01*
X121462801Y-73658952D01*
X121450385Y-73674959D01*
X121432824Y-73715539D01*
X121427604Y-73726195D01*
X121406304Y-73764940D01*
X121401267Y-73784559D01*
X121394864Y-73803261D01*
X121386818Y-73821855D01*
X121379901Y-73865524D01*
X121377495Y-73877144D01*
X121366500Y-73919970D01*
X121366500Y-73940224D01*
X121364949Y-73959934D01*
X121361779Y-73979942D01*
X121365941Y-74023961D01*
X121366500Y-74035819D01*
X121366500Y-78089465D01*
X121352684Y-78146831D01*
X121314264Y-78191616D01*
X121259668Y-78213998D01*
X121200868Y-78209070D01*
X121104427Y-78177113D01*
X121087112Y-78175344D01*
X121000545Y-78166500D01*
X121000540Y-78166500D01*
X120099459Y-78166500D01*
X119995573Y-78177113D01*
X119827262Y-78232885D01*
X119676344Y-78325972D01*
X119550972Y-78451344D01*
X119499829Y-78534259D01*
X119457885Y-78602262D01*
X119402113Y-78770574D01*
X119394517Y-78844931D01*
X119391500Y-78874459D01*
X119391500Y-81125540D01*
X119399586Y-81204688D01*
X119402113Y-81229426D01*
X119457885Y-81397738D01*
X119533788Y-81520796D01*
X119550972Y-81548655D01*
X119638568Y-81636251D01*
X119668487Y-81683973D01*
X119674622Y-81739963D01*
X119655749Y-81793032D01*
X119634844Y-81813639D01*
X119636761Y-81815556D01*
X119500972Y-81951344D01*
X119462025Y-82014487D01*
X119407885Y-82102262D01*
X119352113Y-82270574D01*
X119343619Y-82353722D01*
X119341500Y-82374459D01*
X119341500Y-84625540D01*
X119344306Y-84653007D01*
X119352113Y-84729426D01*
X119407885Y-84897738D01*
X119500970Y-85048652D01*
X119500972Y-85048655D01*
X119626344Y-85174027D01*
X119626346Y-85174028D01*
X119626348Y-85174030D01*
X119777262Y-85267115D01*
X119945574Y-85322887D01*
X120049455Y-85333500D01*
X120950544Y-85333499D01*
X121054426Y-85322887D01*
X121222738Y-85267115D01*
X121373652Y-85174030D01*
X121499030Y-85048652D01*
X121592115Y-84897738D01*
X121647887Y-84729426D01*
X121658500Y-84625545D01*
X121658499Y-83289593D01*
X121668090Y-83241376D01*
X121695401Y-83200502D01*
X122054659Y-82841244D01*
X122070980Y-82828169D01*
X122073014Y-82826001D01*
X122073018Y-82826000D01*
X122119661Y-82776328D01*
X122122352Y-82773551D01*
X122142135Y-82753770D01*
X122144621Y-82750564D01*
X122152310Y-82741561D01*
X122182586Y-82709321D01*
X122192342Y-82691571D01*
X122203195Y-82675050D01*
X122215614Y-82659041D01*
X122233175Y-82618454D01*
X122238388Y-82607813D01*
X122259695Y-82569060D01*
X122264733Y-82549434D01*
X122271137Y-82530732D01*
X122279181Y-82512144D01*
X122281372Y-82498313D01*
X122286096Y-82468481D01*
X122288504Y-82456853D01*
X122299500Y-82414029D01*
X122299500Y-82393776D01*
X122301051Y-82374066D01*
X122304220Y-82354057D01*
X122300059Y-82310039D01*
X122299500Y-82298181D01*
X122299500Y-80784991D01*
X122309091Y-80736773D01*
X122336404Y-80695896D01*
X122459549Y-80572751D01*
X122838660Y-80193638D01*
X122854981Y-80180564D01*
X122857015Y-80178397D01*
X122857018Y-80178396D01*
X122903677Y-80128707D01*
X122906368Y-80125930D01*
X122926134Y-80106166D01*
X122928605Y-80102979D01*
X122936312Y-80093955D01*
X122966586Y-80061717D01*
X122976343Y-80043966D01*
X122987199Y-80027439D01*
X122999613Y-80011437D01*
X123017172Y-79970857D01*
X123022392Y-79960205D01*
X123043694Y-79921458D01*
X123047058Y-79908357D01*
X123075463Y-79855381D01*
X123125179Y-79821594D01*
X123184892Y-79814685D01*
X123241010Y-79836226D01*
X123280762Y-79881316D01*
X123295100Y-79939691D01*
X123295100Y-83044359D01*
X123293770Y-83062620D01*
X123290259Y-83086588D01*
X123294621Y-83136447D01*
X123295100Y-83147428D01*
X123295100Y-83152984D01*
X123298735Y-83184090D01*
X123299107Y-83187732D01*
X123305828Y-83264544D01*
X123310069Y-83283673D01*
X123336446Y-83356142D01*
X123337649Y-83359604D01*
X123361904Y-83432800D01*
X123370437Y-83450427D01*
X123412832Y-83514884D01*
X123414771Y-83517927D01*
X123452989Y-83579887D01*
X123455274Y-83583592D01*
X123467638Y-83598767D01*
X123468598Y-83599673D01*
X123468599Y-83599674D01*
X123503043Y-83632170D01*
X123523755Y-83651711D01*
X123526384Y-83654265D01*
X123905395Y-84033276D01*
X123932709Y-84074153D01*
X123942300Y-84122371D01*
X123942300Y-85717617D01*
X123932127Y-85767217D01*
X123903250Y-85808807D01*
X123860334Y-85835672D01*
X123840049Y-85843238D01*
X123754593Y-85875111D01*
X123637538Y-85962738D01*
X123549911Y-86079794D01*
X123498811Y-86216799D01*
X123492300Y-86277362D01*
X123492300Y-86451586D01*
X123477205Y-86511385D01*
X123435539Y-86556857D01*
X123377282Y-86577106D01*
X123364460Y-86578227D01*
X123345323Y-86582470D01*
X123272834Y-86608853D01*
X123269376Y-86610055D01*
X123196200Y-86634303D01*
X123178572Y-86642838D01*
X123114118Y-86685229D01*
X123111031Y-86687196D01*
X123045418Y-86727667D01*
X123030232Y-86740038D01*
X122977287Y-86796156D01*
X122974734Y-86798783D01*
X122851521Y-86921996D01*
X122791484Y-86955505D01*
X122722794Y-86952506D01*
X122663753Y-86932942D01*
X122640127Y-86925113D01*
X122622812Y-86923344D01*
X122536245Y-86914500D01*
X122536240Y-86914500D01*
X121610159Y-86914500D01*
X121506273Y-86925113D01*
X121337962Y-86980885D01*
X121187044Y-87073972D01*
X121061672Y-87199344D01*
X121032774Y-87246195D01*
X120968585Y-87350262D01*
X120912813Y-87518574D01*
X120906635Y-87579051D01*
X120902200Y-87622459D01*
X120902200Y-89923540D01*
X120912803Y-90027328D01*
X120912813Y-90027426D01*
X120968585Y-90195738D01*
X121012848Y-90267499D01*
X121061672Y-90346655D01*
X121187044Y-90472027D01*
X121187046Y-90472028D01*
X121187048Y-90472030D01*
X121337962Y-90565115D01*
X121506274Y-90620887D01*
X121610155Y-90631500D01*
X122536244Y-90631499D01*
X122640126Y-90620887D01*
X122808438Y-90565115D01*
X122959352Y-90472030D01*
X123084730Y-90346652D01*
X123177815Y-90195738D01*
X123233587Y-90027426D01*
X123244200Y-89923545D01*
X123244199Y-88726869D01*
X123253790Y-88678652D01*
X123281101Y-88637778D01*
X123360083Y-88558796D01*
X123422393Y-88524773D01*
X123493208Y-88529837D01*
X123550044Y-88572383D01*
X123637540Y-88689262D01*
X123754594Y-88776888D01*
X123754595Y-88776888D01*
X123754596Y-88776889D01*
X123891599Y-88827989D01*
X123891601Y-88827989D01*
X123906427Y-88833519D01*
X123905455Y-88836123D01*
X123936927Y-88847650D01*
X123977599Y-88892931D01*
X123992300Y-88951995D01*
X123992300Y-93749159D01*
X123990970Y-93767420D01*
X123987459Y-93791388D01*
X123991821Y-93841247D01*
X123992300Y-93852228D01*
X123992300Y-93857784D01*
X123995935Y-93888890D01*
X123996307Y-93892532D01*
X124003028Y-93969344D01*
X124007269Y-93988476D01*
X124008301Y-93991309D01*
X124015900Y-94034403D01*
X124015900Y-95335838D01*
X124022411Y-95396401D01*
X124047960Y-95464902D01*
X124073511Y-95533405D01*
X124074398Y-95534590D01*
X124099029Y-95598868D01*
X124086204Y-95666499D01*
X124039749Y-95717297D01*
X123973531Y-95736100D01*
X119860842Y-95736100D01*
X119842582Y-95734770D01*
X119818612Y-95731259D01*
X119818611Y-95731259D01*
X119803284Y-95732600D01*
X119768753Y-95735621D01*
X119757772Y-95736100D01*
X119752216Y-95736100D01*
X119721112Y-95739735D01*
X119717470Y-95740107D01*
X119640660Y-95746827D01*
X119621523Y-95751070D01*
X119549034Y-95777453D01*
X119545576Y-95778655D01*
X119472400Y-95802903D01*
X119454772Y-95811438D01*
X119390318Y-95853829D01*
X119387231Y-95855796D01*
X119321618Y-95896267D01*
X119306432Y-95908638D01*
X119253504Y-95964738D01*
X119250952Y-95967365D01*
X118442724Y-96775595D01*
X118401846Y-96802909D01*
X118353628Y-96812500D01*
X117221362Y-96812500D01*
X117160799Y-96819011D01*
X117023794Y-96870111D01*
X116906738Y-96957738D01*
X116819109Y-97074796D01*
X116812204Y-97093311D01*
X116776661Y-97144503D01*
X116720932Y-97172399D01*
X116658650Y-97170174D01*
X116605054Y-97138373D01*
X116098277Y-96631596D01*
X116065665Y-96575112D01*
X116065665Y-96509890D01*
X116098277Y-96453406D01*
X116174027Y-96377655D01*
X116174030Y-96377652D01*
X116267115Y-96226738D01*
X116322887Y-96058426D01*
X116333500Y-95954545D01*
X116333499Y-95053456D01*
X116322887Y-94949574D01*
X116267115Y-94781262D01*
X116174030Y-94630348D01*
X116174028Y-94630346D01*
X116174027Y-94630344D01*
X116048655Y-94504972D01*
X116048652Y-94504970D01*
X115897738Y-94411885D01*
X115729426Y-94356113D01*
X115625545Y-94345500D01*
X115625540Y-94345500D01*
X113374459Y-94345500D01*
X113270573Y-94356113D01*
X113102262Y-94411885D01*
X112951346Y-94504971D01*
X112894590Y-94561727D01*
X112838105Y-94594338D01*
X112772883Y-94594337D01*
X112716399Y-94561726D01*
X112622139Y-94467465D01*
X112471322Y-94374440D01*
X112303128Y-94318706D01*
X112199303Y-94308100D01*
X111302800Y-94308100D01*
X111302800Y-95606600D01*
X111285919Y-95669600D01*
X111239800Y-95715719D01*
X111176800Y-95732600D01*
X109372999Y-95732600D01*
X109348004Y-95757595D01*
X109307127Y-95784909D01*
X109258909Y-95794500D01*
X107372000Y-95794500D01*
X107309000Y-95777619D01*
X107262881Y-95731500D01*
X107246000Y-95668500D01*
X107246000Y-95286500D01*
X107754000Y-95286500D01*
X109150801Y-95286500D01*
X109175796Y-95261505D01*
X109216673Y-95234191D01*
X109264891Y-95224600D01*
X110794800Y-95224600D01*
X110794800Y-94308100D01*
X109898297Y-94308100D01*
X109794471Y-94318706D01*
X109626277Y-94374440D01*
X109475459Y-94467466D01*
X109345044Y-94597881D01*
X109288560Y-94630492D01*
X109223338Y-94630492D01*
X109166854Y-94597880D01*
X109048339Y-94479365D01*
X108897529Y-94386344D01*
X108729323Y-94330606D01*
X108625502Y-94320000D01*
X107754000Y-94320000D01*
X107754000Y-95286500D01*
X107246000Y-95286500D01*
X107246000Y-94320001D01*
X106374497Y-94320001D01*
X106270676Y-94330606D01*
X106102470Y-94386344D01*
X105951662Y-94479364D01*
X105826449Y-94604577D01*
X105769965Y-94637188D01*
X105704743Y-94637188D01*
X105648259Y-94604576D01*
X105548655Y-94504972D01*
X105548652Y-94504970D01*
X105397738Y-94411885D01*
X105229426Y-94356113D01*
X105125545Y-94345500D01*
X105125541Y-94345500D01*
X104259500Y-94345500D01*
X104196500Y-94328619D01*
X104150381Y-94282500D01*
X104133500Y-94219500D01*
X104133500Y-93217469D01*
X104141869Y-93172314D01*
X104165861Y-93133161D01*
X104247175Y-93042854D01*
X104343713Y-92875645D01*
X104403377Y-92692019D01*
X104423559Y-92500000D01*
X104403377Y-92307981D01*
X104343713Y-92124355D01*
X104343713Y-92124354D01*
X104247174Y-91957144D01*
X104117983Y-91813663D01*
X103961780Y-91700174D01*
X103785395Y-91621643D01*
X103596538Y-91581500D01*
X103403462Y-91581500D01*
X103305296Y-91602366D01*
X103214604Y-91621643D01*
X103038219Y-91700175D01*
X102882016Y-91813663D01*
X102752825Y-91957144D01*
X102656286Y-92124354D01*
X102596623Y-92307979D01*
X102576441Y-92499999D01*
X102596623Y-92692020D01*
X102656286Y-92875645D01*
X102752823Y-93042852D01*
X102752825Y-93042854D01*
X102834138Y-93133161D01*
X102858131Y-93172314D01*
X102866500Y-93217469D01*
X102866500Y-94233341D01*
X102855706Y-94284367D01*
X102825173Y-94326650D01*
X102780133Y-94352946D01*
X102770576Y-94356112D01*
X102770574Y-94356113D01*
X102602262Y-94411885D01*
X102561220Y-94437200D01*
X102451344Y-94504972D01*
X102325972Y-94630344D01*
X102325970Y-94630348D01*
X102232885Y-94781262D01*
X102177113Y-94949574D01*
X102171274Y-95006733D01*
X102166500Y-95053459D01*
X102166500Y-95328629D01*
X102152767Y-95385832D01*
X102114561Y-95430565D01*
X102060211Y-95453078D01*
X102001564Y-95448462D01*
X101951405Y-95417724D01*
X101546909Y-95013228D01*
X101534937Y-94999375D01*
X101520470Y-94979943D01*
X101484278Y-94949574D01*
X101482127Y-94947769D01*
X101474032Y-94940351D01*
X101470101Y-94936420D01*
X101462081Y-94930078D01*
X101445528Y-94916989D01*
X101442690Y-94914677D01*
X101383622Y-94865113D01*
X101367110Y-94854594D01*
X101297205Y-94821996D01*
X101293909Y-94820401D01*
X101224996Y-94785792D01*
X101206504Y-94779365D01*
X101130942Y-94763762D01*
X101127367Y-94762969D01*
X101052356Y-94745191D01*
X101032885Y-94743202D01*
X100955741Y-94745447D01*
X100952077Y-94745500D01*
X98918371Y-94745500D01*
X98870153Y-94735909D01*
X98829276Y-94708595D01*
X97943776Y-93823095D01*
X97913038Y-93772936D01*
X97908422Y-93714289D01*
X97930935Y-93659939D01*
X97975668Y-93621733D01*
X98032871Y-93608000D01*
X98037530Y-93608000D01*
X98259508Y-93570957D01*
X98472368Y-93497883D01*
X98670305Y-93390764D01*
X98690688Y-93374899D01*
X97925000Y-92609211D01*
X97925000Y-92609210D01*
X96801922Y-91486132D01*
X96725983Y-91602366D01*
X96678629Y-91645240D01*
X96616334Y-91659381D01*
X96555110Y-91641154D01*
X96510693Y-91595243D01*
X96494500Y-91533450D01*
X96494500Y-91125100D01*
X97159310Y-91125100D01*
X97925000Y-91890789D01*
X97925000Y-91890790D01*
X99048076Y-93013867D01*
X99048077Y-93013866D01*
X99123418Y-92898551D01*
X99213819Y-92692457D01*
X99269068Y-92474284D01*
X99275544Y-92396132D01*
X99299408Y-92332160D01*
X99353137Y-92290029D01*
X99420954Y-92282109D01*
X99466373Y-92303076D01*
X99468169Y-92300146D01*
X99476620Y-92305325D01*
X99476624Y-92305328D01*
X99692498Y-92437616D01*
X99926409Y-92534505D01*
X100113366Y-92579389D01*
X100172596Y-92593609D01*
X100191011Y-92595058D01*
X100425000Y-92613474D01*
X100677403Y-92593609D01*
X100923591Y-92534505D01*
X101157502Y-92437616D01*
X101373376Y-92305328D01*
X101565898Y-92140898D01*
X101730328Y-91948376D01*
X101862616Y-91732502D01*
X101959505Y-91498591D01*
X102018609Y-91252403D01*
X102038474Y-91000000D01*
X102018609Y-90747597D01*
X102017526Y-90743088D01*
X101990737Y-90631500D01*
X101959505Y-90501409D01*
X101862616Y-90267498D01*
X101730328Y-90051624D01*
X101565898Y-89859102D01*
X101551029Y-89846403D01*
X101538745Y-89835911D01*
X101503424Y-89786483D01*
X101495337Y-89726273D01*
X101516364Y-89669277D01*
X101561617Y-89628745D01*
X101620576Y-89614100D01*
X102064703Y-89614100D01*
X102168528Y-89603493D01*
X102268767Y-89570277D01*
X102327567Y-89565347D01*
X102382164Y-89587730D01*
X102420583Y-89632515D01*
X102434400Y-89689881D01*
X102434400Y-89846403D01*
X102445006Y-89950228D01*
X102500740Y-90118422D01*
X102593767Y-90269242D01*
X102719057Y-90394532D01*
X102869877Y-90487559D01*
X103038071Y-90543293D01*
X103141897Y-90553900D01*
X104038400Y-90553900D01*
X104038400Y-88212900D01*
X103141897Y-88212900D01*
X103038071Y-88223506D01*
X102937833Y-88256723D01*
X102879033Y-88261653D01*
X102824436Y-88239270D01*
X102786017Y-88194485D01*
X102772200Y-88137119D01*
X102772200Y-87980597D01*
X102761593Y-87876771D01*
X102705859Y-87708577D01*
X102612832Y-87557757D01*
X102487542Y-87432467D01*
X102336722Y-87339440D01*
X102168528Y-87283706D01*
X102064703Y-87273100D01*
X101168200Y-87273100D01*
X101168200Y-88571600D01*
X101151319Y-88634600D01*
X101105200Y-88680719D01*
X101042200Y-88697600D01*
X99081491Y-88697600D01*
X99033273Y-88688009D01*
X99028022Y-88684500D01*
X97790000Y-88684500D01*
X97790000Y-89601000D01*
X98686503Y-89601000D01*
X98790328Y-89590393D01*
X98958522Y-89534659D01*
X99109339Y-89441634D01*
X99129453Y-89421520D01*
X99185938Y-89388908D01*
X99251161Y-89388907D01*
X99307646Y-89421520D01*
X99340858Y-89454732D01*
X99435663Y-89513209D01*
X99477092Y-89554849D01*
X99495142Y-89610747D01*
X99485890Y-89668753D01*
X99451347Y-89716261D01*
X99284102Y-89859102D01*
X99119673Y-90051623D01*
X98987383Y-90267499D01*
X98890495Y-90501408D01*
X98831390Y-90747596D01*
X98812711Y-90984941D01*
X98792795Y-91043643D01*
X98747297Y-91085745D01*
X98687229Y-91101055D01*
X98627130Y-91085869D01*
X98472371Y-91002117D01*
X98259508Y-90929042D01*
X98037530Y-90892000D01*
X97812470Y-90892000D01*
X97590491Y-90929042D01*
X97377628Y-91002117D01*
X97179700Y-91109231D01*
X97159310Y-91125099D01*
X97159310Y-91125100D01*
X96494500Y-91125100D01*
X96494500Y-89727000D01*
X96511381Y-89664000D01*
X96557500Y-89617881D01*
X96620500Y-89601000D01*
X97282000Y-89601000D01*
X97282000Y-87260000D01*
X97790000Y-87260000D01*
X97790000Y-88176500D01*
X99368709Y-88176500D01*
X99416927Y-88186091D01*
X99422178Y-88189600D01*
X100660200Y-88189600D01*
X100660200Y-87273100D01*
X99763697Y-87273100D01*
X99659871Y-87283706D01*
X99491677Y-87339440D01*
X99340859Y-87432466D01*
X99320743Y-87452582D01*
X99264258Y-87485192D01*
X99199036Y-87485191D01*
X99142553Y-87452579D01*
X99109341Y-87419367D01*
X98958522Y-87326340D01*
X98790328Y-87270606D01*
X98686503Y-87260000D01*
X97790000Y-87260000D01*
X97282000Y-87260000D01*
X96958372Y-87260000D01*
X96901169Y-87246267D01*
X96856436Y-87208061D01*
X96833923Y-87153711D01*
X96838539Y-87095064D01*
X96869276Y-87044905D01*
X97400776Y-86513404D01*
X97441654Y-86486090D01*
X97489872Y-86476499D01*
X98686540Y-86476499D01*
X98686544Y-86476499D01*
X98790426Y-86465887D01*
X98958738Y-86410115D01*
X99109652Y-86317030D01*
X99129455Y-86297226D01*
X99185938Y-86264616D01*
X99251161Y-86264615D01*
X99307646Y-86297228D01*
X99340548Y-86330130D01*
X99491462Y-86423215D01*
X99659774Y-86478987D01*
X99763655Y-86489600D01*
X102064744Y-86489599D01*
X102168626Y-86478987D01*
X102268270Y-86445968D01*
X102327068Y-86441040D01*
X102381664Y-86463423D01*
X102420083Y-86508208D01*
X102433900Y-86565573D01*
X102433900Y-86721439D01*
X102441965Y-86800383D01*
X102444513Y-86825326D01*
X102500285Y-86993638D01*
X102586246Y-87133002D01*
X102593372Y-87144555D01*
X102718744Y-87269927D01*
X102718746Y-87269928D01*
X102718748Y-87269930D01*
X102869662Y-87363015D01*
X103037974Y-87418787D01*
X103141855Y-87429400D01*
X105442944Y-87429399D01*
X105546826Y-87418787D01*
X105715138Y-87363015D01*
X105866052Y-87269930D01*
X105952779Y-87183202D01*
X105993654Y-87155891D01*
X106041872Y-87146300D01*
X106403100Y-87146300D01*
X106466100Y-87163181D01*
X106512219Y-87209300D01*
X106529100Y-87272300D01*
X106529100Y-87336438D01*
X106535611Y-87397001D01*
X106546155Y-87425270D01*
X106554100Y-87469303D01*
X106554100Y-87572130D01*
X106538124Y-87633536D01*
X106494247Y-87679369D01*
X106468483Y-87695262D01*
X106364544Y-87759372D01*
X106239172Y-87884744D01*
X106203963Y-87941827D01*
X106146085Y-88035662D01*
X106090313Y-88203974D01*
X106090312Y-88203978D01*
X106080845Y-88296640D01*
X106054618Y-88361623D01*
X105997730Y-88402545D01*
X105927779Y-88406746D01*
X105878517Y-88379602D01*
X105878274Y-88379997D01*
X105870248Y-88375047D01*
X105866403Y-88372928D01*
X105865742Y-88372267D01*
X105714922Y-88279240D01*
X105546728Y-88223506D01*
X105442903Y-88212900D01*
X104546400Y-88212900D01*
X104546400Y-90553900D01*
X105442903Y-90553900D01*
X105546728Y-90543293D01*
X105714922Y-90487559D01*
X105878274Y-90386803D01*
X105878493Y-90387158D01*
X105914758Y-90364933D01*
X105973406Y-90360315D01*
X106027758Y-90382826D01*
X106065966Y-90427559D01*
X106079700Y-90484762D01*
X106079700Y-90558939D01*
X106086029Y-90620887D01*
X106090313Y-90662826D01*
X106146085Y-90831138D01*
X106206473Y-90929042D01*
X106239172Y-90982055D01*
X106364544Y-91107427D01*
X106364546Y-91107428D01*
X106364548Y-91107430D01*
X106515462Y-91200515D01*
X106683774Y-91256287D01*
X106787655Y-91266900D01*
X107688744Y-91266899D01*
X107792626Y-91256287D01*
X107960938Y-91200515D01*
X108111852Y-91107430D01*
X108237230Y-90982052D01*
X108330315Y-90831138D01*
X108386087Y-90662826D01*
X108396700Y-90558945D01*
X108396699Y-88307856D01*
X108386087Y-88203974D01*
X108330315Y-88035662D01*
X108301191Y-87988445D01*
X108282463Y-87925048D01*
X108298409Y-87860893D01*
X108344641Y-87813642D01*
X108408433Y-87796300D01*
X108486238Y-87796300D01*
X108546801Y-87789789D01*
X108683804Y-87738689D01*
X108712090Y-87717513D01*
X108760816Y-87695262D01*
X108814384Y-87695262D01*
X108863109Y-87717513D01*
X108891396Y-87738689D01*
X109028399Y-87789789D01*
X109088962Y-87796300D01*
X109167967Y-87796300D01*
X109231759Y-87813642D01*
X109277991Y-87860893D01*
X109293937Y-87925048D01*
X109275208Y-87988445D01*
X109246085Y-88035662D01*
X109190313Y-88203974D01*
X109182624Y-88279240D01*
X109179700Y-88307859D01*
X109179700Y-90558940D01*
X109186029Y-90620887D01*
X109190313Y-90662826D01*
X109246085Y-90831138D01*
X109306473Y-90929042D01*
X109339172Y-90982055D01*
X109464544Y-91107427D01*
X109464546Y-91107428D01*
X109464548Y-91107430D01*
X109615462Y-91200515D01*
X109783774Y-91256287D01*
X109887655Y-91266900D01*
X110788744Y-91266899D01*
X110892626Y-91256287D01*
X111060938Y-91200515D01*
X111211852Y-91107430D01*
X111337230Y-90982052D01*
X111430315Y-90831138D01*
X111486087Y-90662826D01*
X111496700Y-90558945D01*
X111496699Y-90459361D01*
X111510432Y-90402162D01*
X111548637Y-90357428D01*
X111602988Y-90334915D01*
X111661635Y-90339531D01*
X111711794Y-90370269D01*
X111736057Y-90394532D01*
X111886877Y-90487559D01*
X112055071Y-90543293D01*
X112158897Y-90553900D01*
X113055400Y-90553900D01*
X113055400Y-89637400D01*
X113563400Y-89637400D01*
X113563400Y-90553900D01*
X114459903Y-90553900D01*
X114563728Y-90543293D01*
X114731922Y-90487559D01*
X114882742Y-90394532D01*
X115008032Y-90269242D01*
X115101059Y-90118422D01*
X115156793Y-89950228D01*
X115167400Y-89846403D01*
X115167400Y-89637400D01*
X113563400Y-89637400D01*
X113055400Y-89637400D01*
X113055400Y-88212900D01*
X113563400Y-88212900D01*
X113563400Y-89129400D01*
X115167400Y-89129400D01*
X115167400Y-89027000D01*
X117777700Y-89027000D01*
X117777700Y-89923503D01*
X117788306Y-90027328D01*
X117844040Y-90195522D01*
X117937067Y-90346342D01*
X118062357Y-90471632D01*
X118213177Y-90564659D01*
X118381371Y-90620393D01*
X118485197Y-90631000D01*
X118694200Y-90631000D01*
X118694200Y-89027000D01*
X119202200Y-89027000D01*
X119202200Y-90631000D01*
X119411203Y-90631000D01*
X119515028Y-90620393D01*
X119683222Y-90564659D01*
X119834042Y-90471632D01*
X119959332Y-90346342D01*
X120052359Y-90195522D01*
X120108093Y-90027328D01*
X120118700Y-89923503D01*
X120118700Y-89027000D01*
X119202200Y-89027000D01*
X118694200Y-89027000D01*
X117777700Y-89027000D01*
X115167400Y-89027000D01*
X115167400Y-88920397D01*
X115156793Y-88816571D01*
X115101059Y-88648377D01*
X115021258Y-88519000D01*
X117777700Y-88519000D01*
X118694200Y-88519000D01*
X118694200Y-86915000D01*
X119202200Y-86915000D01*
X119202200Y-88519000D01*
X120118700Y-88519000D01*
X120118700Y-87622497D01*
X120108093Y-87518671D01*
X120052359Y-87350477D01*
X119959332Y-87199657D01*
X119834042Y-87074367D01*
X119683222Y-86981340D01*
X119515028Y-86925606D01*
X119411203Y-86915000D01*
X119202200Y-86915000D01*
X118694200Y-86915000D01*
X118485197Y-86915000D01*
X118381371Y-86925606D01*
X118213177Y-86981340D01*
X118062357Y-87074367D01*
X117937067Y-87199657D01*
X117844040Y-87350477D01*
X117788306Y-87518671D01*
X117777700Y-87622497D01*
X117777700Y-88519000D01*
X115021258Y-88519000D01*
X115008032Y-88497557D01*
X114882742Y-88372267D01*
X114731922Y-88279240D01*
X114563728Y-88223506D01*
X114459903Y-88212900D01*
X113563400Y-88212900D01*
X113055400Y-88212900D01*
X112158897Y-88212900D01*
X112055071Y-88223506D01*
X111886877Y-88279240D01*
X111736057Y-88372267D01*
X111711794Y-88396531D01*
X111661635Y-88427269D01*
X111602988Y-88431885D01*
X111548638Y-88409372D01*
X111510432Y-88364639D01*
X111498309Y-88314144D01*
X111497351Y-88314242D01*
X111495553Y-88296640D01*
X111486087Y-88203974D01*
X111430315Y-88035662D01*
X111337230Y-87884748D01*
X111337228Y-87884746D01*
X111337227Y-87884744D01*
X111211855Y-87759372D01*
X111187358Y-87744262D01*
X111080951Y-87678629D01*
X111037076Y-87632796D01*
X111021100Y-87571390D01*
X111021100Y-87469303D01*
X111029045Y-87425270D01*
X111039589Y-87397001D01*
X111046100Y-87336438D01*
X111046100Y-87272300D01*
X111062981Y-87209300D01*
X111109100Y-87163181D01*
X111172100Y-87146300D01*
X111559928Y-87146300D01*
X111608146Y-87155891D01*
X111649020Y-87183202D01*
X111735748Y-87269930D01*
X111886662Y-87363015D01*
X112054974Y-87418787D01*
X112158855Y-87429400D01*
X114459944Y-87429399D01*
X114563826Y-87418787D01*
X114732138Y-87363015D01*
X114883052Y-87269930D01*
X115008430Y-87144552D01*
X115101515Y-86993638D01*
X115157287Y-86825326D01*
X115167900Y-86721445D01*
X115167899Y-85795356D01*
X115157287Y-85691474D01*
X115101515Y-85523162D01*
X115008430Y-85372248D01*
X115008428Y-85372246D01*
X115008427Y-85372244D01*
X114883055Y-85246872D01*
X114875797Y-85242395D01*
X114732138Y-85153785D01*
X114563826Y-85098013D01*
X114459945Y-85087400D01*
X114459941Y-85087400D01*
X114140011Y-85087400D01*
X114077240Y-85070651D01*
X114031157Y-85024856D01*
X114014013Y-84962192D01*
X114030368Y-84899316D01*
X114075868Y-84852949D01*
X114086436Y-84846699D01*
X114104176Y-84838009D01*
X114123013Y-84830552D01*
X114158788Y-84804558D01*
X114168699Y-84798048D01*
X114206758Y-84775542D01*
X114221087Y-84761212D01*
X114236115Y-84748377D01*
X114252503Y-84736472D01*
X114280699Y-84702386D01*
X114288658Y-84693640D01*
X115533297Y-83449002D01*
X115574172Y-83421691D01*
X115622390Y-83412100D01*
X116115500Y-83412100D01*
X116178500Y-83428981D01*
X116224619Y-83475100D01*
X116241500Y-83538100D01*
X116241500Y-84625540D01*
X116244306Y-84653007D01*
X116252113Y-84729426D01*
X116307885Y-84897738D01*
X116400970Y-85048652D01*
X116400972Y-85048655D01*
X116526344Y-85174027D01*
X116526346Y-85174028D01*
X116526348Y-85174030D01*
X116677262Y-85267115D01*
X116845574Y-85322887D01*
X116949455Y-85333500D01*
X117850544Y-85333499D01*
X117954426Y-85322887D01*
X118122738Y-85267115D01*
X118273652Y-85174030D01*
X118399030Y-85048652D01*
X118492115Y-84897738D01*
X118547887Y-84729426D01*
X118558500Y-84625545D01*
X118558499Y-82374456D01*
X118547887Y-82270574D01*
X118492115Y-82102262D01*
X118399030Y-81951348D01*
X118399028Y-81951346D01*
X118399027Y-81951344D01*
X118311431Y-81863748D01*
X118281506Y-81816007D01*
X118275381Y-81759995D01*
X118294283Y-81706915D01*
X118315155Y-81686360D01*
X118313239Y-81684444D01*
X118449027Y-81548655D01*
X118449027Y-81548654D01*
X118449030Y-81548652D01*
X118542115Y-81397738D01*
X118597887Y-81229426D01*
X118608500Y-81125545D01*
X118608499Y-78874456D01*
X118597887Y-78770574D01*
X118542115Y-78602262D01*
X118449030Y-78451348D01*
X118449028Y-78451346D01*
X118449027Y-78451344D01*
X118323655Y-78325972D01*
X118299636Y-78311157D01*
X118172738Y-78232885D01*
X118004426Y-78177113D01*
X117900545Y-78166500D01*
X117900540Y-78166500D01*
X116999459Y-78166500D01*
X116895573Y-78177113D01*
X116727262Y-78232885D01*
X116576344Y-78325972D01*
X116450972Y-78451344D01*
X116399829Y-78534259D01*
X116357885Y-78602262D01*
X116302113Y-78770574D01*
X116294517Y-78844931D01*
X116291500Y-78874459D01*
X116291500Y-80210405D01*
X116281909Y-80258623D01*
X116254597Y-80299497D01*
X115928592Y-80625503D01*
X115609867Y-80944228D01*
X115548580Y-80978025D01*
X115478712Y-80973905D01*
X115421822Y-80933138D01*
X115395463Y-80868304D01*
X115381177Y-80732381D01*
X115324605Y-80558270D01*
X115321513Y-80548754D01*
X115278846Y-80474853D01*
X115262402Y-80422337D01*
X115269909Y-80367820D01*
X115304494Y-80275091D01*
X115311000Y-80214589D01*
X115311000Y-79970000D01*
X112795000Y-79970000D01*
X112795000Y-80214589D01*
X112801505Y-80275095D01*
X112837289Y-80371038D01*
X112842354Y-80441852D01*
X112808329Y-80504163D01*
X112765139Y-80547354D01*
X112716545Y-80577573D01*
X112659597Y-80583182D01*
X112606041Y-80563025D01*
X112566924Y-80521260D01*
X112493245Y-80393644D01*
X112364054Y-80250163D01*
X112362698Y-80249178D01*
X112207851Y-80136674D01*
X112031466Y-80058143D01*
X111842609Y-80018000D01*
X111665284Y-80018000D01*
X111615241Y-80007636D01*
X111603417Y-80002519D01*
X111559746Y-79995602D01*
X111548124Y-79993195D01*
X111505301Y-79982200D01*
X111505300Y-79982200D01*
X111485047Y-79982200D01*
X111465337Y-79980649D01*
X111429607Y-79974990D01*
X111430060Y-79972128D01*
X111397182Y-79967131D01*
X111348181Y-79930577D01*
X111322153Y-79875261D01*
X111325226Y-79814204D01*
X111356673Y-79761782D01*
X111963735Y-79154720D01*
X112022348Y-79121560D01*
X112089669Y-79123323D01*
X112146467Y-79159509D01*
X112158017Y-79172338D01*
X112271505Y-79254791D01*
X112314220Y-79285826D01*
X112490605Y-79364357D01*
X112679462Y-79404500D01*
X112679464Y-79404500D01*
X112685309Y-79404500D01*
X112733527Y-79414091D01*
X112774404Y-79441405D01*
X112794999Y-79462000D01*
X115311000Y-79462000D01*
X115311000Y-79217410D01*
X115304494Y-79156905D01*
X115292873Y-79125746D01*
X115284929Y-79081712D01*
X115292872Y-79037685D01*
X115304989Y-79005201D01*
X115311500Y-78944638D01*
X115311500Y-77947362D01*
X115304989Y-77886799D01*
X115293139Y-77855030D01*
X115285196Y-77810998D01*
X115293141Y-77766965D01*
X115304989Y-77735201D01*
X115311500Y-77674638D01*
X115311500Y-76677362D01*
X115304989Y-76616799D01*
X115293139Y-76585030D01*
X115285196Y-76540998D01*
X115293141Y-76496965D01*
X115304989Y-76465201D01*
X115311500Y-76404638D01*
X115311500Y-75407362D01*
X115304989Y-75346799D01*
X115293139Y-75315029D01*
X115285195Y-75270998D01*
X115293138Y-75226973D01*
X115304989Y-75195201D01*
X115311500Y-75134638D01*
X115311500Y-74137362D01*
X115304989Y-74076799D01*
X115293139Y-74045029D01*
X115285195Y-74000998D01*
X115293138Y-73956973D01*
X115304989Y-73925201D01*
X115311500Y-73864638D01*
X115311500Y-72867362D01*
X115304989Y-72806799D01*
X115293139Y-72775029D01*
X115285195Y-72730998D01*
X115293138Y-72686973D01*
X115304989Y-72655201D01*
X115311500Y-72594638D01*
X115311500Y-71597362D01*
X115304989Y-71536799D01*
X115293139Y-71505030D01*
X115285196Y-71460998D01*
X115293141Y-71416965D01*
X115304989Y-71385201D01*
X115311500Y-71324638D01*
X115311500Y-70327362D01*
X115304989Y-70266799D01*
X115293138Y-70235027D01*
X115285195Y-70191000D01*
X115293138Y-70146972D01*
X115304989Y-70115201D01*
X115311500Y-70054638D01*
X115311500Y-69057362D01*
X115304989Y-68996799D01*
X115293138Y-68965027D01*
X115285195Y-68921000D01*
X115293138Y-68876972D01*
X115304989Y-68845201D01*
X115311500Y-68784638D01*
X115311500Y-67787362D01*
X115304989Y-67726799D01*
X115253889Y-67589796D01*
X115253888Y-67589794D01*
X115166261Y-67472738D01*
X115049205Y-67385111D01*
X114980702Y-67359561D01*
X114912201Y-67334011D01*
X114851638Y-67327500D01*
X113254362Y-67327500D01*
X113193799Y-67334011D01*
X113056794Y-67385111D01*
X112939738Y-67472738D01*
X112852109Y-67589798D01*
X112849438Y-67596959D01*
X112821364Y-67641123D01*
X112777768Y-67670072D01*
X112743097Y-67683799D01*
X112731870Y-67687643D01*
X112689405Y-67699981D01*
X112671960Y-67710297D01*
X112654217Y-67718989D01*
X112635384Y-67726446D01*
X112599616Y-67752433D01*
X112589697Y-67758949D01*
X112551636Y-67781458D01*
X112537311Y-67795783D01*
X112522284Y-67808617D01*
X112505894Y-67820525D01*
X112477706Y-67854598D01*
X112469719Y-67863375D01*
X112381596Y-67951499D01*
X112331437Y-67982237D01*
X112272790Y-67986853D01*
X112218439Y-67964340D01*
X112180233Y-67919607D01*
X112166500Y-67862404D01*
X112166500Y-66629951D01*
X112185698Y-66563098D01*
X112237443Y-66516617D01*
X112297608Y-66506130D01*
X112297608Y-66504500D01*
X113301638Y-66504500D01*
X113362201Y-66497989D01*
X113499204Y-66446889D01*
X113616261Y-66359261D01*
X113703889Y-66242204D01*
X113754989Y-66105201D01*
X113761500Y-66044638D01*
X113761500Y-64447362D01*
X113754989Y-64386799D01*
X113703889Y-64249796D01*
X113703888Y-64249794D01*
X113616261Y-64132738D01*
X113531359Y-64069181D01*
X113492971Y-64022196D01*
X113480992Y-63962717D01*
X113498202Y-63904535D01*
X113540608Y-63861142D01*
X113598378Y-63842599D01*
X113658112Y-63853205D01*
X113714605Y-63878357D01*
X113903462Y-63918500D01*
X114096536Y-63918500D01*
X114096538Y-63918500D01*
X114285395Y-63878357D01*
X114461780Y-63799826D01*
X114617982Y-63686338D01*
X114747175Y-63542854D01*
X114843713Y-63375645D01*
X114903377Y-63192019D01*
X114923559Y-63000000D01*
X114903377Y-62807981D01*
X114843713Y-62624355D01*
X114807423Y-62561498D01*
X114790543Y-62498498D01*
X114807424Y-62435499D01*
X114853543Y-62389380D01*
X114916543Y-62372499D01*
X115625540Y-62372499D01*
X115625544Y-62372499D01*
X115729426Y-62361887D01*
X115897738Y-62306115D01*
X116048652Y-62213030D01*
X116174030Y-62087652D01*
X116267115Y-61936738D01*
X116322887Y-61768426D01*
X116333500Y-61664545D01*
X116333499Y-60763456D01*
X116322887Y-60659574D01*
X116267115Y-60491262D01*
X116174030Y-60340348D01*
X116174028Y-60340346D01*
X116174027Y-60340344D01*
X116048655Y-60214972D01*
X116048652Y-60214970D01*
X115897738Y-60121885D01*
X115729426Y-60066113D01*
X115625545Y-60055500D01*
X115625540Y-60055500D01*
X113374459Y-60055500D01*
X113270573Y-60066113D01*
X113102262Y-60121885D01*
X112951344Y-60214972D01*
X112839095Y-60327222D01*
X112782611Y-60359834D01*
X112717389Y-60359834D01*
X112660905Y-60327222D01*
X112548655Y-60214972D01*
X112548652Y-60214970D01*
X112397738Y-60121885D01*
X112229426Y-60066113D01*
X112125545Y-60055500D01*
X112125540Y-60055500D01*
X109874459Y-60055500D01*
X109770573Y-60066113D01*
X109602262Y-60121885D01*
X109451344Y-60214972D01*
X109339095Y-60327222D01*
X109282611Y-60359834D01*
X109217389Y-60359834D01*
X109160905Y-60327222D01*
X109048655Y-60214972D01*
X109048652Y-60214970D01*
X108897738Y-60121885D01*
X108729426Y-60066113D01*
X108625545Y-60055500D01*
X108625540Y-60055500D01*
X106374459Y-60055500D01*
X106270573Y-60066113D01*
X106102262Y-60121885D01*
X105951344Y-60214972D01*
X105839095Y-60327222D01*
X105782611Y-60359834D01*
X105717389Y-60359834D01*
X105660905Y-60327222D01*
X105548655Y-60214972D01*
X105548652Y-60214970D01*
X105397738Y-60121885D01*
X105229426Y-60066113D01*
X105125545Y-60055500D01*
X105125540Y-60055500D01*
X102874459Y-60055500D01*
X102770573Y-60066113D01*
X102602262Y-60121885D01*
X102451344Y-60214972D01*
X102325972Y-60340344D01*
X102325970Y-60340348D01*
X102232885Y-60491262D01*
X102177113Y-60659574D01*
X102167904Y-60749720D01*
X102166500Y-60763459D01*
X102166500Y-61664540D01*
X102175140Y-61749111D01*
X102177113Y-61768426D01*
X102232885Y-61936738D01*
X102325271Y-62086519D01*
X102325972Y-62087655D01*
X102451344Y-62213027D01*
X102451346Y-62213028D01*
X102451348Y-62213030D01*
X102602262Y-62306115D01*
X102770574Y-62361887D01*
X102874455Y-62372500D01*
X104652153Y-62372499D01*
X104700371Y-62382090D01*
X104741248Y-62409403D01*
X104950504Y-62618658D01*
X104963581Y-62634981D01*
X105015400Y-62683642D01*
X105018211Y-62686366D01*
X105037980Y-62706135D01*
X105041193Y-62708627D01*
X105050183Y-62716306D01*
X105082429Y-62746586D01*
X105100176Y-62756342D01*
X105116700Y-62767196D01*
X105132709Y-62779614D01*
X105173292Y-62797175D01*
X105183943Y-62802393D01*
X105222690Y-62823695D01*
X105242310Y-62828732D01*
X105261017Y-62835137D01*
X105269221Y-62838687D01*
X105285806Y-62845865D01*
X105338622Y-62888729D01*
X105361460Y-62952801D01*
X105347665Y-63019409D01*
X105301257Y-63069139D01*
X105235761Y-63087500D01*
X101882991Y-63087500D01*
X101834773Y-63077909D01*
X101793895Y-63050595D01*
X101695404Y-62952103D01*
X101668091Y-62911226D01*
X101658500Y-62863008D01*
X101658500Y-61270680D01*
X101660795Y-61249891D01*
X101659637Y-61213059D01*
X101658562Y-61178841D01*
X101658500Y-61174882D01*
X101658500Y-61146976D01*
X101658500Y-61146971D01*
X101657992Y-61142958D01*
X101657061Y-61131124D01*
X101656251Y-61105343D01*
X101655673Y-61086937D01*
X101650020Y-61067483D01*
X101646012Y-61048125D01*
X101643474Y-61028030D01*
X101627190Y-60986904D01*
X101623359Y-60975715D01*
X101611018Y-60933234D01*
X101600704Y-60915795D01*
X101592008Y-60898043D01*
X101584552Y-60879210D01*
X101558571Y-60843451D01*
X101552050Y-60833525D01*
X101529542Y-60795464D01*
X101529541Y-60795463D01*
X101515213Y-60781135D01*
X101502376Y-60766104D01*
X101490473Y-60749720D01*
X101456406Y-60721538D01*
X101447626Y-60713548D01*
X101279318Y-60545240D01*
X101249367Y-60497426D01*
X101243286Y-60441335D01*
X101262294Y-60388213D01*
X101302575Y-60348714D01*
X101373376Y-60305328D01*
X101565898Y-60140898D01*
X101730328Y-59948376D01*
X101862616Y-59732502D01*
X101959505Y-59498591D01*
X102018609Y-59252403D01*
X102038474Y-59000000D01*
X102036227Y-58971450D01*
X102048655Y-58906199D01*
X102092540Y-58856334D01*
X102155684Y-58835715D01*
X102220539Y-58850074D01*
X102269078Y-58895416D01*
X102281035Y-58914801D01*
X102325972Y-58987655D01*
X102451344Y-59113027D01*
X102451346Y-59113028D01*
X102451348Y-59113030D01*
X102602262Y-59206115D01*
X102770574Y-59261887D01*
X102874455Y-59272500D01*
X105125544Y-59272499D01*
X105229426Y-59261887D01*
X105397738Y-59206115D01*
X105548652Y-59113030D01*
X105585193Y-59076489D01*
X105660905Y-59000778D01*
X105717389Y-58968166D01*
X105782611Y-58968166D01*
X105839095Y-59000778D01*
X105951344Y-59113027D01*
X105951346Y-59113028D01*
X105951348Y-59113030D01*
X106102262Y-59206115D01*
X106270574Y-59261887D01*
X106374455Y-59272500D01*
X108625544Y-59272499D01*
X108729426Y-59261887D01*
X108897738Y-59206115D01*
X109048652Y-59113030D01*
X109085193Y-59076489D01*
X109160905Y-59000778D01*
X109217389Y-58968166D01*
X109282611Y-58968166D01*
X109339095Y-59000778D01*
X109451344Y-59113027D01*
X109451346Y-59113028D01*
X109451348Y-59113030D01*
X109602262Y-59206115D01*
X109770574Y-59261887D01*
X109874455Y-59272500D01*
X112125544Y-59272499D01*
X112229426Y-59261887D01*
X112397738Y-59206115D01*
X112548652Y-59113030D01*
X112585193Y-59076489D01*
X112660905Y-59000778D01*
X112717389Y-58968166D01*
X112782611Y-58968166D01*
X112839095Y-59000778D01*
X112951344Y-59113027D01*
X112951346Y-59113028D01*
X112951348Y-59113030D01*
X113102262Y-59206115D01*
X113270574Y-59261887D01*
X113374455Y-59272500D01*
X115625544Y-59272499D01*
X115729426Y-59261887D01*
X115897738Y-59206115D01*
X116048652Y-59113030D01*
X116174030Y-58987652D01*
X116267115Y-58836738D01*
X116322887Y-58668426D01*
X116333500Y-58564545D01*
X116333499Y-57663456D01*
X116322887Y-57559574D01*
X116267115Y-57391262D01*
X116174030Y-57240348D01*
X116174028Y-57240346D01*
X116174027Y-57240344D01*
X116048655Y-57114972D01*
X116026342Y-57101209D01*
X115897738Y-57021885D01*
X115729426Y-56966113D01*
X115625545Y-56955500D01*
X115625541Y-56955500D01*
X115259500Y-56955500D01*
X115196500Y-56938619D01*
X115150381Y-56892500D01*
X115133500Y-56829500D01*
X115133500Y-55376000D01*
X115150381Y-55313000D01*
X115196500Y-55266881D01*
X115259500Y-55250000D01*
X115625540Y-55250000D01*
X115625544Y-55250000D01*
X115729425Y-55239387D01*
X115897738Y-55183615D01*
X116048651Y-55090530D01*
X116174030Y-54965151D01*
X116267115Y-54814238D01*
X116322887Y-54645925D01*
X116333500Y-54542044D01*
X116333500Y-53515956D01*
X116322887Y-53412075D01*
X116267115Y-53243762D01*
X116174030Y-53092849D01*
X116174028Y-53092847D01*
X116174027Y-53092845D01*
X116048654Y-52967472D01*
X115924334Y-52890790D01*
X115897738Y-52874385D01*
X115813581Y-52846499D01*
X115729426Y-52818613D01*
X115708648Y-52816490D01*
X115625544Y-52808000D01*
X113374456Y-52808000D01*
X113305201Y-52815075D01*
X113270573Y-52818613D01*
X113102262Y-52874385D01*
X112951345Y-52967472D01*
X112839095Y-53079723D01*
X112782611Y-53112335D01*
X112717389Y-53112335D01*
X112660905Y-53079723D01*
X112548654Y-52967472D01*
X112424334Y-52890790D01*
X112397738Y-52874385D01*
X112313581Y-52846499D01*
X112229426Y-52818613D01*
X112208648Y-52816490D01*
X112125544Y-52808000D01*
X109874456Y-52808000D01*
X109805201Y-52815075D01*
X109770573Y-52818613D01*
X109602262Y-52874385D01*
X109451345Y-52967472D01*
X109339095Y-53079723D01*
X109282611Y-53112335D01*
X109217389Y-53112335D01*
X109160905Y-53079723D01*
X109048654Y-52967472D01*
X108924334Y-52890790D01*
X108897738Y-52874385D01*
X108813581Y-52846499D01*
X108729426Y-52818613D01*
X108708648Y-52816490D01*
X108625544Y-52808000D01*
X106374456Y-52808000D01*
X106305201Y-52815075D01*
X106270573Y-52818613D01*
X106102262Y-52874385D01*
X105951345Y-52967472D01*
X105839095Y-53079723D01*
X105782611Y-53112335D01*
X105717389Y-53112335D01*
X105660905Y-53079723D01*
X105548654Y-52967472D01*
X105424334Y-52890790D01*
X105397738Y-52874385D01*
X105313581Y-52846499D01*
X105229426Y-52818613D01*
X105208648Y-52816490D01*
X105125544Y-52808000D01*
X102874456Y-52808000D01*
X102805201Y-52815075D01*
X102770573Y-52818613D01*
X102602262Y-52874385D01*
X102451345Y-52967472D01*
X102325972Y-53092845D01*
X102232885Y-53243762D01*
X102177113Y-53412073D01*
X102177112Y-53412075D01*
X102177113Y-53412075D01*
X102166500Y-53515956D01*
X102166500Y-54542044D01*
X102177113Y-54645925D01*
X102232885Y-54814238D01*
X102313951Y-54945665D01*
X102325972Y-54965154D01*
X102451345Y-55090527D01*
X102451347Y-55090528D01*
X102451349Y-55090530D01*
X102602262Y-55183615D01*
X102770575Y-55239387D01*
X102874456Y-55250000D01*
X103240500Y-55250000D01*
X103303500Y-55266881D01*
X103349619Y-55313000D01*
X103366500Y-55376000D01*
X103366500Y-56829501D01*
X103349619Y-56892501D01*
X103303500Y-56938620D01*
X103240500Y-56955501D01*
X102874456Y-56955501D01*
X102791350Y-56963990D01*
X102770573Y-56966113D01*
X102602262Y-57021885D01*
X102451344Y-57114972D01*
X102325972Y-57240344D01*
X102325970Y-57240348D01*
X102232885Y-57391262D01*
X102227872Y-57406391D01*
X102177113Y-57559574D01*
X102166500Y-57663459D01*
X102166500Y-58367695D01*
X102147933Y-58433530D01*
X102097703Y-58479962D01*
X102030614Y-58493307D01*
X101966439Y-58469631D01*
X101924091Y-58415913D01*
X101916998Y-58398790D01*
X101862616Y-58267498D01*
X101730328Y-58051624D01*
X101565898Y-57859102D01*
X101373376Y-57694672D01*
X101157502Y-57562384D01*
X100923591Y-57465495D01*
X100677403Y-57406390D01*
X100425000Y-57386526D01*
X100172596Y-57406390D01*
X99926408Y-57465495D01*
X99692499Y-57562383D01*
X99675267Y-57572943D01*
X99476624Y-57694672D01*
X99476621Y-57694674D01*
X99468169Y-57699854D01*
X99466288Y-57696784D01*
X99421393Y-57717495D01*
X99353587Y-57709563D01*
X99299871Y-57667431D01*
X99276013Y-57603469D01*
X99269564Y-57525632D01*
X99214296Y-57307384D01*
X99123860Y-57101209D01*
X99000722Y-56912732D01*
X98848240Y-56747094D01*
X98848239Y-56747093D01*
X98848237Y-56747091D01*
X98670578Y-56608812D01*
X98472573Y-56501657D01*
X98328427Y-56452172D01*
X98259635Y-56428556D01*
X98037569Y-56391500D01*
X97812431Y-56391500D01*
X97590365Y-56428556D01*
X97590362Y-56428556D01*
X97590362Y-56428557D01*
X97377426Y-56501657D01*
X97179421Y-56608812D01*
X97001762Y-56747091D01*
X96849278Y-56912731D01*
X96726139Y-57101209D01*
X96635702Y-57307388D01*
X96580437Y-57525627D01*
X96580436Y-57525632D01*
X96561844Y-57750000D01*
X96580436Y-57974368D01*
X96580436Y-57974371D01*
X96580437Y-57974372D01*
X96635702Y-58192611D01*
X96726139Y-58398790D01*
X96834429Y-58564540D01*
X96849278Y-58587268D01*
X97001760Y-58752906D01*
X97020892Y-58767797D01*
X97056697Y-58811889D01*
X97069500Y-58867228D01*
X97069500Y-59511147D01*
X97067204Y-59531935D01*
X97069438Y-59602986D01*
X97069500Y-59606945D01*
X97069500Y-59634857D01*
X97070007Y-59638873D01*
X97070937Y-59650696D01*
X97072326Y-59694892D01*
X97077977Y-59714341D01*
X97081986Y-59733696D01*
X97084525Y-59753794D01*
X97100801Y-59794903D01*
X97104644Y-59806130D01*
X97116980Y-59848590D01*
X97127294Y-59866030D01*
X97135987Y-59883774D01*
X97140425Y-59894982D01*
X97143449Y-59902619D01*
X97169431Y-59938380D01*
X97175948Y-59948301D01*
X97198458Y-59986363D01*
X97212778Y-60000683D01*
X97225618Y-60015716D01*
X97237526Y-60032105D01*
X97237527Y-60032106D01*
X97237528Y-60032107D01*
X97265807Y-60055501D01*
X97271598Y-60060292D01*
X97280378Y-60068282D01*
X97704766Y-60492670D01*
X97737749Y-60550572D01*
X97736586Y-60617199D01*
X97701603Y-60673916D01*
X97642584Y-60704857D01*
X97576038Y-60701370D01*
X97504323Y-60677606D01*
X97400503Y-60667000D01*
X97204000Y-60667000D01*
X97204000Y-62628000D01*
X97187119Y-62691000D01*
X97141000Y-62737119D01*
X97078000Y-62754000D01*
X95792000Y-62754000D01*
X95792000Y-63625503D01*
X95802606Y-63729325D01*
X95835977Y-63830032D01*
X95841374Y-63885490D01*
X95822326Y-63937853D01*
X95782557Y-63976881D01*
X95748566Y-63988526D01*
X95748734Y-63988975D01*
X95597037Y-64045554D01*
X95480095Y-64133095D01*
X95392554Y-64250037D01*
X95341505Y-64386906D01*
X95335000Y-64447411D01*
X95335000Y-64992000D01*
X96421000Y-64992000D01*
X96484000Y-65008881D01*
X96530119Y-65055000D01*
X96547000Y-65118000D01*
X96547000Y-66504001D01*
X96564777Y-66521778D01*
X96596014Y-66573509D01*
X96599572Y-66633834D01*
X96574632Y-66688878D01*
X96526931Y-66725979D01*
X96457391Y-66756940D01*
X96301184Y-66870431D01*
X96171993Y-67013912D01*
X96075454Y-67181122D01*
X96015791Y-67364747D01*
X95995609Y-67556768D01*
X96015791Y-67748788D01*
X96075454Y-67932413D01*
X96171993Y-68099623D01*
X96290876Y-68231656D01*
X96301186Y-68243106D01*
X96457388Y-68356594D01*
X96633773Y-68435125D01*
X96822630Y-68475268D01*
X97015704Y-68475268D01*
X97015706Y-68475268D01*
X97204563Y-68435125D01*
X97380948Y-68356594D01*
X97537150Y-68243106D01*
X97605712Y-68166960D01*
X97675205Y-68089781D01*
X97677605Y-68091942D01*
X97707570Y-68061980D01*
X97770568Y-68045100D01*
X97926360Y-68045100D01*
X97947148Y-68047395D01*
X97950120Y-68047301D01*
X97950122Y-68047302D01*
X98018198Y-68045162D01*
X98022158Y-68045100D01*
X98050065Y-68045100D01*
X98050069Y-68045100D01*
X98054078Y-68044593D01*
X98065912Y-68043661D01*
X98110102Y-68042273D01*
X98129551Y-68036621D01*
X98148911Y-68032612D01*
X98169010Y-68030074D01*
X98207838Y-68014699D01*
X98257736Y-68005901D01*
X98307070Y-68017472D01*
X98347855Y-68047540D01*
X98411448Y-68118168D01*
X98567650Y-68231656D01*
X98744035Y-68310187D01*
X98932892Y-68350330D01*
X99125966Y-68350330D01*
X99125968Y-68350330D01*
X99314825Y-68310187D01*
X99491210Y-68231656D01*
X99647412Y-68118168D01*
X99776605Y-67974684D01*
X99873143Y-67807475D01*
X99880009Y-67786343D01*
X99883349Y-67776065D01*
X99909546Y-67730691D01*
X99951933Y-67699895D01*
X100003182Y-67689002D01*
X100059645Y-67689002D01*
X100080433Y-67691297D01*
X100083405Y-67691203D01*
X100083407Y-67691204D01*
X100151483Y-67689064D01*
X100155443Y-67689002D01*
X100183350Y-67689002D01*
X100183354Y-67689002D01*
X100187363Y-67688495D01*
X100199197Y-67687563D01*
X100243387Y-67686175D01*
X100262836Y-67680523D01*
X100282196Y-67676514D01*
X100302295Y-67673976D01*
X100343413Y-67657695D01*
X100354615Y-67653859D01*
X100397091Y-67641520D01*
X100414537Y-67631201D01*
X100432278Y-67622511D01*
X100451115Y-67615054D01*
X100486890Y-67589060D01*
X100496801Y-67582550D01*
X100534860Y-67560044D01*
X100549189Y-67545714D01*
X100564217Y-67532879D01*
X100580605Y-67520974D01*
X100608801Y-67486888D01*
X100616770Y-67478132D01*
X101403722Y-66691180D01*
X101458613Y-66659008D01*
X101522229Y-66657758D01*
X101578344Y-66687752D01*
X101612648Y-66741340D01*
X101656287Y-66875646D01*
X101752825Y-67042855D01*
X101877322Y-67181123D01*
X101882018Y-67186338D01*
X102038220Y-67299826D01*
X102214605Y-67378357D01*
X102403462Y-67418500D01*
X102596536Y-67418500D01*
X102596538Y-67418500D01*
X102785395Y-67378357D01*
X102961780Y-67299826D01*
X103117982Y-67186338D01*
X103247175Y-67042854D01*
X103343713Y-66875645D01*
X103403377Y-66692019D01*
X103411227Y-66617328D01*
X103432079Y-66560041D01*
X103477384Y-66519248D01*
X103536537Y-66504500D01*
X104153167Y-66504500D01*
X104212321Y-66519249D01*
X104257627Y-66560043D01*
X104272493Y-66600891D01*
X104273931Y-66600424D01*
X104278022Y-66613017D01*
X104278023Y-66613019D01*
X104283525Y-66629951D01*
X104337686Y-66796645D01*
X104434225Y-66963855D01*
X104558882Y-67102300D01*
X104563418Y-67107338D01*
X104719620Y-67220826D01*
X104896005Y-67299357D01*
X105084862Y-67339500D01*
X105277936Y-67339500D01*
X105277938Y-67339500D01*
X105466795Y-67299357D01*
X105643180Y-67220826D01*
X105799382Y-67107338D01*
X105928575Y-66963854D01*
X106025113Y-66796645D01*
X106084777Y-66613019D01*
X106084777Y-66613015D01*
X106084838Y-66612829D01*
X106119142Y-66559241D01*
X106175257Y-66529246D01*
X106238872Y-66530496D01*
X106293766Y-66562670D01*
X106890752Y-67159656D01*
X106903831Y-67175981D01*
X106905999Y-67178017D01*
X106906000Y-67178018D01*
X106909307Y-67181123D01*
X106955650Y-67224642D01*
X106958461Y-67227366D01*
X106978230Y-67247135D01*
X106981443Y-67249627D01*
X106990433Y-67257306D01*
X107022679Y-67287586D01*
X107040426Y-67297342D01*
X107056950Y-67308196D01*
X107072959Y-67320614D01*
X107113542Y-67338175D01*
X107124193Y-67343393D01*
X107162940Y-67364695D01*
X107182560Y-67369732D01*
X107201267Y-67376137D01*
X107206397Y-67378357D01*
X107219854Y-67384181D01*
X107225727Y-67385111D01*
X107263530Y-67391098D01*
X107275125Y-67393498D01*
X107317970Y-67404500D01*
X107338224Y-67404500D01*
X107357934Y-67406051D01*
X107377942Y-67409220D01*
X107377942Y-67409219D01*
X107377943Y-67409220D01*
X107421961Y-67405058D01*
X107433819Y-67404500D01*
X108350613Y-67404500D01*
X108398831Y-67414091D01*
X108439708Y-67441404D01*
X108531177Y-67532874D01*
X108607965Y-67609662D01*
X108621042Y-67625984D01*
X108672858Y-67674642D01*
X108675669Y-67677366D01*
X108695438Y-67697135D01*
X108698651Y-67699627D01*
X108707641Y-67707306D01*
X108739887Y-67737586D01*
X108757634Y-67747342D01*
X108774158Y-67758196D01*
X108790167Y-67770614D01*
X108830750Y-67788175D01*
X108841401Y-67793393D01*
X108880148Y-67814695D01*
X108899768Y-67819732D01*
X108918475Y-67826137D01*
X108928203Y-67830347D01*
X108951675Y-67840505D01*
X108951592Y-67840694D01*
X108985740Y-67854317D01*
X109023494Y-67895158D01*
X109126357Y-68073323D01*
X109255548Y-68216804D01*
X109255550Y-68216806D01*
X109411752Y-68330294D01*
X109588137Y-68408825D01*
X109776994Y-68448968D01*
X109776996Y-68448968D01*
X109873500Y-68448968D01*
X109936500Y-68465849D01*
X109982619Y-68511968D01*
X109999500Y-68574968D01*
X109999500Y-70216182D01*
X109997204Y-70236970D01*
X109999438Y-70308021D01*
X109999500Y-70311980D01*
X109999500Y-70339892D01*
X110000007Y-70343908D01*
X110000937Y-70355731D01*
X110002326Y-70399927D01*
X110007977Y-70419376D01*
X110011986Y-70438731D01*
X110014525Y-70458829D01*
X110030801Y-70499938D01*
X110034644Y-70511165D01*
X110046980Y-70553625D01*
X110057294Y-70571065D01*
X110065987Y-70588809D01*
X110071314Y-70602262D01*
X110073449Y-70607654D01*
X110099431Y-70643415D01*
X110105948Y-70653336D01*
X110128458Y-70691398D01*
X110142778Y-70705718D01*
X110155618Y-70720751D01*
X110167526Y-70737140D01*
X110201598Y-70765327D01*
X110210378Y-70773317D01*
X110829595Y-71392534D01*
X110856909Y-71433411D01*
X110866500Y-71481629D01*
X110866500Y-76498770D01*
X110856909Y-76546988D01*
X110829595Y-76587865D01*
X109273283Y-78144176D01*
X109234230Y-78170717D01*
X109188149Y-78181019D01*
X109156580Y-78182011D01*
X109152567Y-78182138D01*
X109148613Y-78182200D01*
X109120711Y-78182200D01*
X109116703Y-78182706D01*
X109104882Y-78183636D01*
X109060677Y-78185025D01*
X109041220Y-78190678D01*
X109021870Y-78194686D01*
X109001771Y-78197225D01*
X108960662Y-78213502D01*
X108949434Y-78217346D01*
X108906977Y-78229681D01*
X108889533Y-78239997D01*
X108871786Y-78248690D01*
X108852953Y-78256146D01*
X108817180Y-78282137D01*
X108807262Y-78288651D01*
X108769208Y-78311157D01*
X108754881Y-78325483D01*
X108739852Y-78338318D01*
X108723463Y-78350225D01*
X108695270Y-78384304D01*
X108687283Y-78393080D01*
X108365066Y-78715297D01*
X108324192Y-78742609D01*
X108275974Y-78752200D01*
X103191259Y-78752200D01*
X103143041Y-78742609D01*
X103102163Y-78715295D01*
X102966083Y-78579215D01*
X102813906Y-78427037D01*
X102800833Y-78410719D01*
X102782050Y-78393081D01*
X102749011Y-78362055D01*
X102746200Y-78359331D01*
X102726434Y-78339565D01*
X102723239Y-78337086D01*
X102714217Y-78329381D01*
X102681984Y-78299113D01*
X102664231Y-78289353D01*
X102647705Y-78278497D01*
X102631705Y-78266086D01*
X102591130Y-78248528D01*
X102580468Y-78243304D01*
X102541727Y-78222005D01*
X102523578Y-78217346D01*
X102522101Y-78216966D01*
X102503395Y-78210562D01*
X102499947Y-78209070D01*
X102484809Y-78202519D01*
X102441138Y-78195601D01*
X102429517Y-78193195D01*
X102386694Y-78182200D01*
X102386693Y-78182200D01*
X102366440Y-78182200D01*
X102346730Y-78180649D01*
X102326721Y-78177479D01*
X102282703Y-78181641D01*
X102270845Y-78182200D01*
X101781623Y-78182200D01*
X101760833Y-78179904D01*
X101689771Y-78182138D01*
X101685813Y-78182200D01*
X101657912Y-78182200D01*
X101653904Y-78182706D01*
X101642083Y-78183636D01*
X101597878Y-78185025D01*
X101578421Y-78190678D01*
X101559071Y-78194686D01*
X101538972Y-78197225D01*
X101497863Y-78213502D01*
X101486635Y-78217346D01*
X101444178Y-78229681D01*
X101426734Y-78239997D01*
X101408987Y-78248690D01*
X101390154Y-78256146D01*
X101354381Y-78282137D01*
X101344463Y-78288651D01*
X101306409Y-78311157D01*
X101292082Y-78325483D01*
X101277053Y-78338318D01*
X101260664Y-78350225D01*
X101232471Y-78384304D01*
X101224483Y-78393081D01*
X101038349Y-78579215D01*
X100999309Y-78605751D01*
X100983214Y-78609351D01*
X100983734Y-78611141D01*
X100976321Y-78613294D01*
X100963492Y-78613763D01*
X100953243Y-78616057D01*
X100952580Y-78616078D01*
X100952519Y-78614165D01*
X100914982Y-78615541D01*
X100883738Y-78608900D01*
X100690662Y-78608900D01*
X100564757Y-78635661D01*
X100501804Y-78649043D01*
X100325419Y-78727575D01*
X100169216Y-78841063D01*
X100040025Y-78984544D01*
X99943486Y-79151754D01*
X99883823Y-79335379D01*
X99863641Y-79527400D01*
X99872748Y-79614053D01*
X99862544Y-79678473D01*
X99821497Y-79729161D01*
X99789872Y-79752137D01*
X99779954Y-79758651D01*
X99741900Y-79781157D01*
X99727573Y-79795483D01*
X99712544Y-79808318D01*
X99696155Y-79820225D01*
X99667962Y-79854304D01*
X99659975Y-79863081D01*
X98972458Y-80550597D01*
X98931584Y-80577909D01*
X98883366Y-80587500D01*
X98546206Y-80587500D01*
X98487053Y-80572751D01*
X98441747Y-80531958D01*
X98420897Y-80474674D01*
X98403377Y-80307981D01*
X98393809Y-80278535D01*
X98343713Y-80124354D01*
X98247174Y-79957144D01*
X98117983Y-79813663D01*
X98110626Y-79808318D01*
X97961780Y-79700174D01*
X97785395Y-79621643D01*
X97596538Y-79581500D01*
X97403462Y-79581500D01*
X97277557Y-79608262D01*
X97214604Y-79621643D01*
X97121502Y-79663095D01*
X97040645Y-79699095D01*
X97038219Y-79700175D01*
X96882016Y-79813663D01*
X96752825Y-79957144D01*
X96656286Y-80124354D01*
X96615775Y-80249036D01*
X96589578Y-80294411D01*
X96547191Y-80325207D01*
X96495942Y-80336100D01*
X96474262Y-80336100D01*
X96348357Y-80362862D01*
X96285404Y-80376243D01*
X96109019Y-80454775D01*
X95952816Y-80568263D01*
X95823625Y-80711744D01*
X95727086Y-80878954D01*
X95667423Y-81062579D01*
X95647241Y-81254600D01*
X95664568Y-81419456D01*
X95658264Y-81474021D01*
X95629344Y-81520720D01*
X95610335Y-81533088D01*
X95611540Y-81534698D01*
X95480095Y-81633095D01*
X95392554Y-81750037D01*
X95341505Y-81886906D01*
X95335000Y-81947411D01*
X95335000Y-82492000D01*
X96421000Y-82492000D01*
X96484000Y-82508881D01*
X96530119Y-82555000D01*
X96547000Y-82618000D01*
X96547000Y-82874000D01*
X96530119Y-82937000D01*
X96484000Y-82983119D01*
X96421000Y-83000000D01*
X95335000Y-83000000D01*
X95335000Y-83544589D01*
X95341505Y-83605093D01*
X95392554Y-83741962D01*
X95480095Y-83858904D01*
X95597037Y-83946445D01*
X95733906Y-83997494D01*
X95794411Y-84004000D01*
X95988174Y-84004000D01*
X96050538Y-84020516D01*
X96096553Y-84065735D01*
X96114155Y-84127801D01*
X96098729Y-84190444D01*
X96054322Y-84237239D01*
X95999003Y-84271360D01*
X95962344Y-84293972D01*
X95836972Y-84419344D01*
X95816305Y-84452851D01*
X95743885Y-84570262D01*
X95688113Y-84738574D01*
X95677582Y-84841659D01*
X95677500Y-84842459D01*
X95677500Y-85768540D01*
X95687487Y-85866300D01*
X95688113Y-85872426D01*
X95714846Y-85953104D01*
X95715506Y-85955094D01*
X95718505Y-86023784D01*
X95684996Y-86083821D01*
X95245225Y-86523592D01*
X95231378Y-86535560D01*
X95211942Y-86550031D01*
X95211939Y-86550034D01*
X95211749Y-86550176D01*
X95147488Y-86574633D01*
X95079955Y-86561713D01*
X95029260Y-86515262D01*
X95010500Y-86449113D01*
X95010500Y-76455000D01*
X101075000Y-76455000D01*
X101075000Y-76774589D01*
X101081505Y-76835093D01*
X101132554Y-76971962D01*
X101220095Y-77088904D01*
X101337037Y-77176445D01*
X101473906Y-77227494D01*
X101534411Y-77234000D01*
X101854000Y-77234000D01*
X101854000Y-76455000D01*
X102362000Y-76455000D01*
X102362000Y-77234000D01*
X102681589Y-77234000D01*
X102742093Y-77227494D01*
X102826467Y-77196025D01*
X102870499Y-77188081D01*
X102914531Y-77196025D01*
X102998906Y-77227494D01*
X103059411Y-77234000D01*
X103379000Y-77234000D01*
X103379000Y-76455000D01*
X103887000Y-76455000D01*
X103887000Y-77234000D01*
X104206589Y-77234000D01*
X104267093Y-77227494D01*
X104351467Y-77196025D01*
X104395499Y-77188081D01*
X104439531Y-77196025D01*
X104523906Y-77227494D01*
X104584411Y-77234000D01*
X104904000Y-77234000D01*
X104904000Y-76455000D01*
X105412000Y-76455000D01*
X105412000Y-77234000D01*
X105731589Y-77234000D01*
X105792093Y-77227494D01*
X105928962Y-77176445D01*
X106045904Y-77088904D01*
X106133445Y-76971962D01*
X106184494Y-76835093D01*
X106191000Y-76774589D01*
X106191000Y-76455000D01*
X105412000Y-76455000D01*
X104904000Y-76455000D01*
X103887000Y-76455000D01*
X103379000Y-76455000D01*
X102362000Y-76455000D01*
X101854000Y-76455000D01*
X101075000Y-76455000D01*
X95010500Y-76455000D01*
X95010500Y-74930000D01*
X101075000Y-74930000D01*
X101075000Y-75249589D01*
X101081505Y-75310095D01*
X101112974Y-75394469D01*
X101120918Y-75438500D01*
X101112974Y-75482531D01*
X101081505Y-75566904D01*
X101075000Y-75627411D01*
X101075000Y-75947000D01*
X101854000Y-75947000D01*
X101854000Y-74930000D01*
X102362000Y-74930000D01*
X102362000Y-75947000D01*
X103379000Y-75947000D01*
X103379000Y-74930000D01*
X103887000Y-74930000D01*
X103887000Y-75947000D01*
X104904000Y-75947000D01*
X104904000Y-74930000D01*
X105412000Y-74930000D01*
X105412000Y-75947000D01*
X106191000Y-75947000D01*
X106191000Y-75627411D01*
X106184494Y-75566906D01*
X106153025Y-75482532D01*
X106145081Y-75438500D01*
X106153025Y-75394468D01*
X106184494Y-75310093D01*
X106191000Y-75249589D01*
X106191000Y-74930000D01*
X105412000Y-74930000D01*
X104904000Y-74930000D01*
X103887000Y-74930000D01*
X103379000Y-74930000D01*
X102362000Y-74930000D01*
X101854000Y-74930000D01*
X101075000Y-74930000D01*
X95010500Y-74930000D01*
X95010500Y-73405000D01*
X101075000Y-73405000D01*
X101075000Y-73724589D01*
X101081505Y-73785095D01*
X101112974Y-73869469D01*
X101120918Y-73913500D01*
X101112974Y-73957531D01*
X101081505Y-74041904D01*
X101075000Y-74102411D01*
X101075000Y-74422000D01*
X101854000Y-74422000D01*
X101854000Y-73405000D01*
X102362000Y-73405000D01*
X102362000Y-74422000D01*
X103379000Y-74422000D01*
X103379000Y-73405000D01*
X103887000Y-73405000D01*
X103887000Y-74422000D01*
X104904000Y-74422000D01*
X104904000Y-73405000D01*
X105412000Y-73405000D01*
X105412000Y-74422000D01*
X106191000Y-74422000D01*
X106191000Y-74102411D01*
X106184494Y-74041906D01*
X106153025Y-73957532D01*
X106145081Y-73913500D01*
X106153025Y-73869468D01*
X106184494Y-73785093D01*
X106191000Y-73724589D01*
X106191000Y-73405000D01*
X105412000Y-73405000D01*
X104904000Y-73405000D01*
X103887000Y-73405000D01*
X103379000Y-73405000D01*
X102362000Y-73405000D01*
X101854000Y-73405000D01*
X101075000Y-73405000D01*
X95010500Y-73405000D01*
X95010500Y-72897000D01*
X101075000Y-72897000D01*
X101854000Y-72897000D01*
X101854000Y-72118000D01*
X102362000Y-72118000D01*
X102362000Y-72897000D01*
X103379000Y-72897000D01*
X103379000Y-72118000D01*
X103887000Y-72118000D01*
X103887000Y-72897000D01*
X104904000Y-72897000D01*
X104904000Y-72118000D01*
X105412000Y-72118000D01*
X105412000Y-72897000D01*
X106191000Y-72897000D01*
X106191000Y-72577411D01*
X106184494Y-72516906D01*
X106133445Y-72380037D01*
X106045904Y-72263095D01*
X105928962Y-72175554D01*
X105792093Y-72124505D01*
X105731589Y-72118000D01*
X105412000Y-72118000D01*
X104904000Y-72118000D01*
X104584411Y-72118000D01*
X104523904Y-72124505D01*
X104439531Y-72155974D01*
X104395500Y-72163918D01*
X104351469Y-72155974D01*
X104267095Y-72124505D01*
X104206589Y-72118000D01*
X103887000Y-72118000D01*
X103379000Y-72118000D01*
X103059411Y-72118000D01*
X102998904Y-72124505D01*
X102914531Y-72155974D01*
X102870500Y-72163918D01*
X102826469Y-72155974D01*
X102742095Y-72124505D01*
X102681589Y-72118000D01*
X102362000Y-72118000D01*
X101854000Y-72118000D01*
X101534411Y-72118000D01*
X101473906Y-72124505D01*
X101337037Y-72175554D01*
X101220095Y-72263095D01*
X101132554Y-72380037D01*
X101081505Y-72516906D01*
X101075000Y-72577411D01*
X101075000Y-72897000D01*
X95010500Y-72897000D01*
X95010500Y-65500000D01*
X95335000Y-65500000D01*
X95335000Y-66044589D01*
X95341505Y-66105093D01*
X95392554Y-66241962D01*
X95480095Y-66358904D01*
X95597037Y-66446445D01*
X95733906Y-66497494D01*
X95794411Y-66504000D01*
X96039000Y-66504000D01*
X96039000Y-65500000D01*
X95335000Y-65500000D01*
X95010500Y-65500000D01*
X95010500Y-62246000D01*
X95792000Y-62246000D01*
X96696000Y-62246000D01*
X96696000Y-60667000D01*
X96499497Y-60667000D01*
X96395671Y-60677606D01*
X96227477Y-60733340D01*
X96076657Y-60826367D01*
X95951367Y-60951657D01*
X95858340Y-61102477D01*
X95802606Y-61270671D01*
X95792000Y-61374497D01*
X95792000Y-62246000D01*
X95010500Y-62246000D01*
X95010500Y-54374899D01*
X97159310Y-54374899D01*
X97179697Y-54390767D01*
X97377628Y-54497882D01*
X97590491Y-54570957D01*
X97812470Y-54608000D01*
X98037530Y-54608000D01*
X98259508Y-54570957D01*
X98472368Y-54497883D01*
X98670305Y-54390764D01*
X98690688Y-54374899D01*
X98690689Y-54374898D01*
X97925001Y-53609210D01*
X97925000Y-53609210D01*
X97159310Y-54374899D01*
X95010500Y-54374899D01*
X95010500Y-53249999D01*
X96562346Y-53249999D01*
X96580931Y-53474283D01*
X96636180Y-53692456D01*
X96726580Y-53898548D01*
X96801922Y-54013866D01*
X97565790Y-53250000D01*
X96801922Y-52486133D01*
X96726580Y-52601451D01*
X96636180Y-52807543D01*
X96580931Y-53025716D01*
X96562346Y-53249999D01*
X95010500Y-53249999D01*
X95010500Y-52125100D01*
X97159310Y-52125100D01*
X97925000Y-52890789D01*
X97925000Y-52890790D01*
X99048076Y-54013867D01*
X99048077Y-54013866D01*
X99123418Y-53898551D01*
X99213819Y-53692457D01*
X99269068Y-53474284D01*
X99275544Y-53396132D01*
X99299408Y-53332160D01*
X99353137Y-53290029D01*
X99420954Y-53282109D01*
X99466373Y-53303076D01*
X99468169Y-53300146D01*
X99476620Y-53305325D01*
X99476624Y-53305328D01*
X99692498Y-53437616D01*
X99926409Y-53534505D01*
X100113491Y-53579419D01*
X100172596Y-53593609D01*
X100191011Y-53595058D01*
X100425000Y-53613474D01*
X100677403Y-53593609D01*
X100923591Y-53534505D01*
X101157502Y-53437616D01*
X101373376Y-53305328D01*
X101565898Y-53140898D01*
X101730328Y-52948376D01*
X101862616Y-52732502D01*
X101959505Y-52498591D01*
X102018609Y-52252403D01*
X102038474Y-52000000D01*
X102037674Y-51989839D01*
X102036367Y-51973225D01*
X102048794Y-51907972D01*
X102092678Y-51858107D01*
X102155822Y-51837487D01*
X102220677Y-51851845D01*
X102269218Y-51897190D01*
X102326365Y-51989839D01*
X102451660Y-52115134D01*
X102602470Y-52208155D01*
X102770676Y-52263893D01*
X102874498Y-52274500D01*
X103746000Y-52274500D01*
X103746000Y-51308000D01*
X104254000Y-51308000D01*
X104254000Y-52274499D01*
X105125503Y-52274499D01*
X105229323Y-52263893D01*
X105397529Y-52208155D01*
X105548339Y-52115134D01*
X105660905Y-52002569D01*
X105717389Y-51969957D01*
X105782611Y-51969957D01*
X105839095Y-52002569D01*
X105951660Y-52115134D01*
X106102470Y-52208155D01*
X106270676Y-52263893D01*
X106374498Y-52274500D01*
X107246000Y-52274500D01*
X107246000Y-51308000D01*
X107754000Y-51308000D01*
X107754000Y-52274499D01*
X108625503Y-52274499D01*
X108729323Y-52263893D01*
X108897529Y-52208155D01*
X109048339Y-52115134D01*
X109160905Y-52002569D01*
X109217389Y-51969957D01*
X109282611Y-51969957D01*
X109339095Y-52002569D01*
X109451660Y-52115134D01*
X109602470Y-52208155D01*
X109770676Y-52263893D01*
X109874498Y-52274500D01*
X110746000Y-52274500D01*
X110746000Y-51308000D01*
X111254000Y-51308000D01*
X111254000Y-52274499D01*
X112125503Y-52274499D01*
X112229323Y-52263893D01*
X112397529Y-52208155D01*
X112548339Y-52115134D01*
X112660905Y-52002569D01*
X112717389Y-51969957D01*
X112782611Y-51969957D01*
X112839095Y-52002569D01*
X112951660Y-52115134D01*
X113102470Y-52208155D01*
X113270676Y-52263893D01*
X113374498Y-52274500D01*
X114246000Y-52274500D01*
X114246000Y-51308000D01*
X114754000Y-51308000D01*
X114754000Y-52274499D01*
X115625503Y-52274499D01*
X115729323Y-52263893D01*
X115897529Y-52208155D01*
X116048339Y-52115134D01*
X116173634Y-51989839D01*
X116266655Y-51839029D01*
X116322393Y-51670823D01*
X116333000Y-51567002D01*
X116333000Y-51308000D01*
X114754000Y-51308000D01*
X114246000Y-51308000D01*
X111254000Y-51308000D01*
X110746000Y-51308000D01*
X107754000Y-51308000D01*
X107246000Y-51308000D01*
X104254000Y-51308000D01*
X103746000Y-51308000D01*
X102167001Y-51308000D01*
X102167001Y-51368903D01*
X102148434Y-51434738D01*
X102098204Y-51481170D01*
X102031115Y-51494515D01*
X101966940Y-51470839D01*
X101924592Y-51417121D01*
X101862616Y-51267499D01*
X101862616Y-51267498D01*
X101730328Y-51051624D01*
X101565898Y-50859102D01*
X101373376Y-50694672D01*
X101157502Y-50562384D01*
X100923591Y-50465495D01*
X100677403Y-50406390D01*
X100425000Y-50386526D01*
X100172596Y-50406390D01*
X99926408Y-50465495D01*
X99692499Y-50562383D01*
X99584560Y-50628528D01*
X99476624Y-50694672D01*
X99476622Y-50694673D01*
X99476623Y-50694673D01*
X99284102Y-50859102D01*
X99119673Y-51051623D01*
X98987383Y-51267499D01*
X98890495Y-51501408D01*
X98831390Y-51747596D01*
X98812711Y-51984941D01*
X98792795Y-52043643D01*
X98747297Y-52085745D01*
X98687229Y-52101055D01*
X98627130Y-52085869D01*
X98472371Y-52002117D01*
X98259508Y-51929042D01*
X98037530Y-51892000D01*
X97812470Y-51892000D01*
X97590491Y-51929042D01*
X97377628Y-52002117D01*
X97179700Y-52109231D01*
X97159310Y-52125099D01*
X97159310Y-52125100D01*
X95010500Y-52125100D01*
X95010500Y-50164000D01*
X95027381Y-50101000D01*
X95073500Y-50054881D01*
X95136500Y-50038000D01*
X102150051Y-50038000D01*
X102213843Y-50055342D01*
G37*
G04 #@! TD.AperFunction*
G04 #@! TA.AperFunction,Conductor*
G36*
X149606902Y-83275381D02*
G01*
X149653021Y-83321500D01*
X149669901Y-83384496D01*
X149669926Y-87452579D01*
X149669962Y-93709510D01*
X149656229Y-93766713D01*
X149618023Y-93811447D01*
X149563673Y-93833960D01*
X149505026Y-93829344D01*
X149454867Y-93798606D01*
X149431810Y-93775549D01*
X149416869Y-93766713D01*
X149288601Y-93690855D01*
X149288600Y-93690854D01*
X149288599Y-93690854D01*
X149128833Y-93644438D01*
X149118165Y-93643598D01*
X149091502Y-93641500D01*
X149091497Y-93641500D01*
X148816100Y-93641500D01*
X148753100Y-93624619D01*
X148706981Y-93578500D01*
X148690100Y-93515500D01*
X148690100Y-84990453D01*
X148692395Y-84969664D01*
X148692273Y-84965797D01*
X148690162Y-84898614D01*
X148690100Y-84894655D01*
X148690100Y-84866749D01*
X148690100Y-84866744D01*
X148689592Y-84862731D01*
X148688661Y-84850897D01*
X148687273Y-84806711D01*
X148681621Y-84787259D01*
X148677612Y-84767899D01*
X148675074Y-84747803D01*
X148658796Y-84706690D01*
X148654950Y-84695456D01*
X148642618Y-84653007D01*
X148632306Y-84635570D01*
X148623608Y-84617815D01*
X148616152Y-84598983D01*
X148590165Y-84563216D01*
X148583647Y-84553293D01*
X148566522Y-84524336D01*
X148561142Y-84515238D01*
X148546812Y-84500908D01*
X148533978Y-84485881D01*
X148522072Y-84469493D01*
X148522071Y-84469492D01*
X148487994Y-84441300D01*
X148479216Y-84433312D01*
X148145405Y-84099501D01*
X148118091Y-84058624D01*
X148108500Y-84010406D01*
X148108500Y-83576132D01*
X148105437Y-83546150D01*
X148098236Y-83475664D01*
X148081159Y-83424130D01*
X148076231Y-83365332D01*
X148098614Y-83310736D01*
X148143399Y-83272316D01*
X148200765Y-83258500D01*
X149543902Y-83258500D01*
X149606902Y-83275381D01*
G37*
G04 #@! TD.AperFunction*
G04 #@! TA.AperFunction,Conductor*
G36*
X146156601Y-83272316D02*
G01*
X146201386Y-83310736D01*
X146223769Y-83365332D01*
X146218840Y-83424130D01*
X146201764Y-83475664D01*
X146191500Y-83576128D01*
X146191500Y-84423872D01*
X146201764Y-84524336D01*
X146255698Y-84687101D01*
X146345715Y-84833040D01*
X146345717Y-84833043D01*
X146477373Y-84964699D01*
X146476274Y-84965797D01*
X146511777Y-85005115D01*
X146523516Y-85074648D01*
X146496057Y-85139598D01*
X146438000Y-85179622D01*
X146364738Y-85203899D01*
X146277262Y-85232885D01*
X146126344Y-85325972D01*
X146000972Y-85451344D01*
X145955340Y-85525326D01*
X145907885Y-85602262D01*
X145852113Y-85770574D01*
X145841708Y-85872426D01*
X145841500Y-85874459D01*
X145841500Y-86831006D01*
X145827767Y-86888209D01*
X145789561Y-86932942D01*
X145735211Y-86955455D01*
X145676564Y-86950839D01*
X145626405Y-86920101D01*
X145317648Y-86611344D01*
X145304571Y-86595021D01*
X145301969Y-86592578D01*
X145252747Y-86546355D01*
X145249936Y-86543631D01*
X145230170Y-86523865D01*
X145226975Y-86521386D01*
X145217953Y-86513681D01*
X145185720Y-86483413D01*
X145167967Y-86473653D01*
X145151441Y-86462797D01*
X145135441Y-86450386D01*
X145134457Y-86449960D01*
X145094475Y-86422480D01*
X145067839Y-86381931D01*
X145058499Y-86334323D01*
X145058499Y-85874460D01*
X145058499Y-85874456D01*
X145047887Y-85770574D01*
X144992115Y-85602262D01*
X144899030Y-85451348D01*
X144899028Y-85451346D01*
X144899027Y-85451344D01*
X144773655Y-85325972D01*
X144773652Y-85325970D01*
X144622738Y-85232885D01*
X144622736Y-85232884D01*
X144622734Y-85232883D01*
X144527051Y-85201177D01*
X144468994Y-85161151D01*
X144441536Y-85096200D01*
X144453276Y-85026667D01*
X144500534Y-84974334D01*
X144533040Y-84954285D01*
X144654285Y-84833040D01*
X144744302Y-84687101D01*
X144798236Y-84524336D01*
X144808500Y-84423872D01*
X144808500Y-84166371D01*
X144818091Y-84118153D01*
X144845405Y-84077276D01*
X145627276Y-83295405D01*
X145668153Y-83268091D01*
X145716371Y-83258500D01*
X146099235Y-83258500D01*
X146156601Y-83272316D01*
G37*
G04 #@! TD.AperFunction*
G04 #@! TA.AperFunction,Conductor*
G36*
X145473269Y-79643091D02*
G01*
X145514142Y-79670402D01*
X145568193Y-79724453D01*
X145711399Y-79809145D01*
X145871169Y-79855562D01*
X145908498Y-79858500D01*
X147065500Y-79858500D01*
X147128500Y-79875381D01*
X147174619Y-79921500D01*
X147191500Y-79984500D01*
X147191500Y-80016000D01*
X147174619Y-80079000D01*
X147128500Y-80125119D01*
X147065500Y-80142000D01*
X146816500Y-80142000D01*
X146816500Y-80696000D01*
X147445158Y-80696000D01*
X147509297Y-80713547D01*
X147558321Y-80742540D01*
X147586399Y-80759145D01*
X147746169Y-80805562D01*
X147783498Y-80808500D01*
X149091497Y-80808500D01*
X149091502Y-80808500D01*
X149128831Y-80805562D01*
X149288601Y-80759145D01*
X149431807Y-80674453D01*
X149454790Y-80651469D01*
X149504947Y-80620732D01*
X149563594Y-80616116D01*
X149617945Y-80638628D01*
X149656151Y-80683361D01*
X149669885Y-80740564D01*
X149669889Y-81254600D01*
X149669890Y-81548655D01*
X149669891Y-81615499D01*
X149653010Y-81678500D01*
X149606891Y-81724619D01*
X149543891Y-81741500D01*
X147743244Y-81741500D01*
X147686041Y-81727767D01*
X147641308Y-81689561D01*
X147618795Y-81635211D01*
X147623411Y-81576564D01*
X147654149Y-81526405D01*
X147674052Y-81506501D01*
X147758681Y-81363399D01*
X147804993Y-81204000D01*
X146434500Y-81204000D01*
X146371500Y-81187119D01*
X146325381Y-81141000D01*
X146308500Y-81078000D01*
X146308500Y-80142001D01*
X145908546Y-80142001D01*
X145871247Y-80144935D01*
X145711601Y-80191317D01*
X145568498Y-80275947D01*
X145473595Y-80370851D01*
X145423436Y-80401589D01*
X145364789Y-80406205D01*
X145310439Y-80383692D01*
X145272233Y-80338959D01*
X145258500Y-80281756D01*
X145258500Y-79759500D01*
X145275381Y-79696500D01*
X145321500Y-79650381D01*
X145384500Y-79633500D01*
X145425050Y-79633500D01*
X145473269Y-79643091D01*
G37*
G04 #@! TD.AperFunction*
G04 #@! TA.AperFunction,Conductor*
G36*
X139130463Y-70136535D02*
G01*
X139142273Y-70139175D01*
X139141344Y-70143330D01*
X139176249Y-70151730D01*
X139223968Y-70198003D01*
X139241500Y-70262118D01*
X139241500Y-72997614D01*
X139227263Y-73055795D01*
X139187770Y-73100827D01*
X139139570Y-73134576D01*
X138974578Y-73299567D01*
X138840744Y-73490702D01*
X138742132Y-73702174D01*
X138681742Y-73927555D01*
X138661406Y-74159999D01*
X138677678Y-74345988D01*
X138670558Y-74400064D01*
X138641253Y-74446064D01*
X137885924Y-75201395D01*
X137845046Y-75228709D01*
X137796828Y-75238300D01*
X130951038Y-75238300D01*
X130893835Y-75224567D01*
X130849102Y-75186361D01*
X130826589Y-75132011D01*
X130831205Y-75073364D01*
X130861943Y-75023205D01*
X130865035Y-75020112D01*
X130998821Y-74829047D01*
X131097395Y-74617654D01*
X131157762Y-74392358D01*
X131178091Y-74160000D01*
X131157762Y-73927641D01*
X131097395Y-73702345D01*
X130998821Y-73490952D01*
X130945050Y-73414160D01*
X130945048Y-73414160D01*
X129929094Y-74430114D01*
X129872610Y-74462726D01*
X129807388Y-74462726D01*
X129750904Y-74430114D01*
X128734949Y-73414159D01*
X128681180Y-73490950D01*
X128582604Y-73702345D01*
X128522237Y-73927641D01*
X128501908Y-74160000D01*
X128522237Y-74392358D01*
X128582604Y-74617654D01*
X128681178Y-74829047D01*
X128814964Y-75020112D01*
X128818057Y-75023205D01*
X128848795Y-75073364D01*
X128853411Y-75132011D01*
X128830898Y-75186361D01*
X128786165Y-75224567D01*
X128728962Y-75238300D01*
X127521641Y-75238300D01*
X127503380Y-75236970D01*
X127479411Y-75233459D01*
X127429553Y-75237821D01*
X127418572Y-75238300D01*
X127413015Y-75238300D01*
X127381908Y-75241935D01*
X127378267Y-75242307D01*
X127301451Y-75249028D01*
X127282339Y-75253265D01*
X127209853Y-75279646D01*
X127206398Y-75280847D01*
X127133195Y-75305105D01*
X127115572Y-75313637D01*
X127051132Y-75356020D01*
X127048043Y-75357988D01*
X126982421Y-75398465D01*
X126967236Y-75410834D01*
X126914287Y-75466956D01*
X126911734Y-75469583D01*
X123562825Y-78818492D01*
X123548977Y-78830461D01*
X123529541Y-78844931D01*
X123497371Y-78883269D01*
X123489957Y-78891361D01*
X123486022Y-78895295D01*
X123466597Y-78919861D01*
X123464288Y-78922694D01*
X123414719Y-78981769D01*
X123404189Y-78998299D01*
X123371595Y-79068194D01*
X123370001Y-79071487D01*
X123335395Y-79140396D01*
X123327983Y-79161722D01*
X123323702Y-79170906D01*
X123279970Y-79222123D01*
X123216105Y-79243499D01*
X123150353Y-79228927D01*
X123101499Y-79182570D01*
X123083500Y-79117672D01*
X123083500Y-74500990D01*
X123093091Y-74452772D01*
X123120405Y-74411895D01*
X124477351Y-73054949D01*
X129094159Y-73054949D01*
X129839999Y-73800789D01*
X129840000Y-73800789D01*
X130585838Y-73054948D01*
X130585838Y-73054947D01*
X130509049Y-73001180D01*
X130297654Y-72902604D01*
X130072358Y-72842237D01*
X129840000Y-72821908D01*
X129607641Y-72842237D01*
X129382345Y-72902604D01*
X129170950Y-73001180D01*
X129094159Y-73054949D01*
X124477351Y-73054949D01*
X127361896Y-70170405D01*
X127402773Y-70143091D01*
X127450991Y-70133500D01*
X139102975Y-70133500D01*
X139130463Y-70136535D01*
G37*
G04 #@! TD.AperFunction*
G04 #@! TA.AperFunction,Conductor*
G36*
X148814265Y-77308384D02*
G01*
X148852684Y-77353169D01*
X148866500Y-77410535D01*
X148866500Y-78622905D01*
X148856909Y-78671123D01*
X148829595Y-78712000D01*
X148745429Y-78796166D01*
X148531810Y-79009784D01*
X148516780Y-79022621D01*
X148500391Y-79034528D01*
X148472212Y-79068590D01*
X148464227Y-79077366D01*
X148387001Y-79154594D01*
X148346123Y-79181909D01*
X148297904Y-79191500D01*
X147934500Y-79191500D01*
X147871500Y-79174619D01*
X147825381Y-79128500D01*
X147808500Y-79065500D01*
X147808500Y-78833503D01*
X147807830Y-78824985D01*
X147805562Y-78796169D01*
X147759145Y-78636399D01*
X147674453Y-78493193D01*
X147674451Y-78493191D01*
X147674450Y-78493189D01*
X147556810Y-78375549D01*
X147556807Y-78375547D01*
X147413601Y-78290855D01*
X147344127Y-78270671D01*
X147297568Y-78257144D01*
X147243392Y-78225007D01*
X147211542Y-78170662D01*
X147209977Y-78107691D01*
X147239088Y-78051835D01*
X147247175Y-78042854D01*
X147321037Y-77914922D01*
X147343713Y-77875645D01*
X147389346Y-77735201D01*
X147403377Y-77692019D01*
X147423559Y-77500000D01*
X147420686Y-77472669D01*
X147432748Y-77404266D01*
X147479226Y-77352646D01*
X147545996Y-77333500D01*
X148500540Y-77333500D01*
X148500544Y-77333500D01*
X148604425Y-77322887D01*
X148675366Y-77299379D01*
X148700868Y-77290930D01*
X148759668Y-77286002D01*
X148814265Y-77308384D01*
G37*
G04 #@! TD.AperFunction*
G04 #@! TA.AperFunction,Conductor*
G36*
X144178500Y-66993181D02*
G01*
X144224619Y-67039300D01*
X144241500Y-67102300D01*
X144241500Y-67929415D01*
X144225524Y-67990821D01*
X144181648Y-68036655D01*
X144166957Y-68045716D01*
X144045717Y-68166956D01*
X144014969Y-68216806D01*
X143955698Y-68312899D01*
X143901764Y-68475664D01*
X143891500Y-68576128D01*
X143891500Y-69423872D01*
X143901764Y-69524336D01*
X143955698Y-69687101D01*
X144034083Y-69814181D01*
X144045717Y-69833043D01*
X144166956Y-69954282D01*
X144166958Y-69954283D01*
X144166960Y-69954285D01*
X144251886Y-70006668D01*
X144299144Y-70059000D01*
X144310886Y-70128531D01*
X144283430Y-70193481D01*
X144239109Y-70224040D01*
X144239797Y-70225154D01*
X144227264Y-70232884D01*
X144227262Y-70232885D01*
X144215818Y-70239944D01*
X144076344Y-70325972D01*
X143950972Y-70451344D01*
X143920999Y-70499938D01*
X143857885Y-70602262D01*
X143813192Y-70737140D01*
X143802113Y-70770574D01*
X143791500Y-70874459D01*
X143791500Y-71804307D01*
X143788465Y-71831794D01*
X143764298Y-71939906D01*
X143769326Y-72099888D01*
X143786497Y-72158989D01*
X143791500Y-72194142D01*
X143791500Y-73125540D01*
X143802112Y-73229425D01*
X143802113Y-73229426D01*
X143857885Y-73397738D01*
X143924559Y-73505833D01*
X143950972Y-73548655D01*
X144063576Y-73661259D01*
X144096188Y-73717743D01*
X144096188Y-73782965D01*
X144063577Y-73839449D01*
X143951364Y-73951662D01*
X143858344Y-74102470D01*
X143802606Y-74270676D01*
X143792000Y-74374498D01*
X143792000Y-75246000D01*
X145140500Y-75246000D01*
X145203500Y-75262881D01*
X145249619Y-75309000D01*
X145266500Y-75372000D01*
X145266500Y-77332999D01*
X145454056Y-77332999D01*
X145520826Y-77352145D01*
X145567304Y-77403764D01*
X145579366Y-77472168D01*
X145576441Y-77499998D01*
X145596623Y-77692020D01*
X145656286Y-77875645D01*
X145752823Y-78042852D01*
X145752825Y-78042854D01*
X145786832Y-78080623D01*
X145815942Y-78136481D01*
X145814376Y-78199450D01*
X145782526Y-78253794D01*
X145728351Y-78285929D01*
X145711400Y-78290853D01*
X145646255Y-78329381D01*
X145613160Y-78348953D01*
X145549022Y-78366500D01*
X145370659Y-78366500D01*
X145319633Y-78355706D01*
X145277350Y-78325173D01*
X145251054Y-78280133D01*
X145247887Y-78270576D01*
X145247887Y-78270574D01*
X145192115Y-78102262D01*
X145099030Y-77951348D01*
X145099028Y-77951346D01*
X145099027Y-77951344D01*
X144973655Y-77825972D01*
X144949380Y-77810999D01*
X144822738Y-77732885D01*
X144654426Y-77677113D01*
X144550545Y-77666500D01*
X144550540Y-77666500D01*
X143649459Y-77666500D01*
X143545573Y-77677113D01*
X143377262Y-77732885D01*
X143226344Y-77825972D01*
X143137395Y-77914922D01*
X143087236Y-77945660D01*
X143028589Y-77950276D01*
X142974239Y-77927763D01*
X142936033Y-77883030D01*
X142922300Y-77825827D01*
X142922300Y-76848641D01*
X142923630Y-76830380D01*
X142923867Y-76828756D01*
X142927141Y-76806411D01*
X142922779Y-76756553D01*
X142922300Y-76745572D01*
X142922300Y-76740023D01*
X142922300Y-76740020D01*
X142918662Y-76708905D01*
X142918292Y-76705279D01*
X142911687Y-76629773D01*
X142911686Y-76629770D01*
X142911570Y-76628442D01*
X142907337Y-76609347D01*
X142906879Y-76608089D01*
X142906879Y-76608087D01*
X142880937Y-76536811D01*
X142879777Y-76533477D01*
X142855914Y-76461461D01*
X142855911Y-76461456D01*
X142855491Y-76460188D01*
X142846967Y-76442580D01*
X142804575Y-76378125D01*
X142802607Y-76375036D01*
X142762128Y-76309411D01*
X142749764Y-76294234D01*
X142693625Y-76241269D01*
X142690997Y-76238716D01*
X142206281Y-75754000D01*
X143792001Y-75754000D01*
X143792001Y-76625503D01*
X143802606Y-76729323D01*
X143858344Y-76897529D01*
X143951365Y-77048339D01*
X144076660Y-77173634D01*
X144227470Y-77266655D01*
X144395676Y-77322393D01*
X144499498Y-77333000D01*
X144758500Y-77333000D01*
X144758500Y-75754000D01*
X143792001Y-75754000D01*
X142206281Y-75754000D01*
X141260541Y-74808260D01*
X141232538Y-74765685D01*
X141223689Y-74715499D01*
X141235441Y-74665917D01*
X141257867Y-74617826D01*
X141318258Y-74392444D01*
X141338594Y-74160000D01*
X141318258Y-73927556D01*
X141257867Y-73702174D01*
X141159256Y-73490703D01*
X141025422Y-73299568D01*
X140860432Y-73134578D01*
X140812229Y-73100826D01*
X140772737Y-73055795D01*
X140758500Y-72997614D01*
X140758500Y-69866371D01*
X140768091Y-69818153D01*
X140795405Y-69777276D01*
X143559476Y-67013205D01*
X143600353Y-66985891D01*
X143648571Y-66976300D01*
X144115500Y-66976300D01*
X144178500Y-66993181D01*
G37*
G04 #@! TD.AperFunction*
G04 #@! TA.AperFunction,Conductor*
G36*
X149606801Y-66383581D02*
G01*
X149652920Y-66429700D01*
X149669800Y-66492698D01*
X149669804Y-67158816D01*
X149669820Y-69819723D01*
X149656087Y-69876926D01*
X149617881Y-69921660D01*
X149563531Y-69944173D01*
X149504884Y-69939557D01*
X149454725Y-69908820D01*
X149323181Y-69777276D01*
X149137976Y-69592071D01*
X149108361Y-69545210D01*
X149101726Y-69490172D01*
X149108500Y-69423872D01*
X149108500Y-68576128D01*
X149098236Y-68475664D01*
X149044302Y-68312899D01*
X148954285Y-68166960D01*
X148954283Y-68166958D01*
X148954282Y-68166956D01*
X148833043Y-68045717D01*
X148832043Y-68045100D01*
X148687101Y-67955698D01*
X148524336Y-67901764D01*
X148423872Y-67891500D01*
X147876128Y-67891500D01*
X147775664Y-67901764D01*
X147612899Y-67955698D01*
X147582117Y-67974685D01*
X147466956Y-68045717D01*
X147345717Y-68166956D01*
X147314969Y-68216806D01*
X147255698Y-68312899D01*
X147201765Y-68475662D01*
X147201763Y-68475668D01*
X147197225Y-68520081D01*
X147187325Y-68557750D01*
X147166394Y-68590596D01*
X147121879Y-68641089D01*
X147049214Y-68783704D01*
X147014298Y-68939906D01*
X147019326Y-69099889D01*
X147063981Y-69253591D01*
X147145460Y-69391365D01*
X147161342Y-69407247D01*
X147186051Y-69442262D01*
X147197594Y-69483533D01*
X147201763Y-69524331D01*
X147201764Y-69524336D01*
X147255698Y-69687101D01*
X147334083Y-69814181D01*
X147345717Y-69833043D01*
X147466956Y-69954282D01*
X147466958Y-69954283D01*
X147466960Y-69954285D01*
X147481988Y-69963554D01*
X147529249Y-70015888D01*
X147540990Y-70085421D01*
X147513532Y-70150373D01*
X147455475Y-70190399D01*
X147327265Y-70232883D01*
X147176344Y-70325972D01*
X147050972Y-70451344D01*
X147020999Y-70499938D01*
X146957885Y-70602262D01*
X146913192Y-70737140D01*
X146902113Y-70770574D01*
X146891500Y-70874459D01*
X146891500Y-73125540D01*
X146902113Y-73229426D01*
X146921617Y-73288285D01*
X146925104Y-73354831D01*
X146894162Y-73413849D01*
X146837446Y-73448832D01*
X146770819Y-73449995D01*
X146712917Y-73417012D01*
X146145404Y-72849499D01*
X146118090Y-72808622D01*
X146108499Y-72760404D01*
X146108499Y-70874460D01*
X146108499Y-70874456D01*
X146097887Y-70770574D01*
X146042115Y-70602262D01*
X145949030Y-70451348D01*
X145949028Y-70451346D01*
X145949027Y-70451344D01*
X145823655Y-70325972D01*
X145672735Y-70232883D01*
X145544524Y-70190399D01*
X145486467Y-70150373D01*
X145459009Y-70085420D01*
X145470750Y-70015887D01*
X145518011Y-69963554D01*
X145533040Y-69954285D01*
X145654285Y-69833040D01*
X145744302Y-69687101D01*
X145798236Y-69524336D01*
X145808500Y-69423872D01*
X145808500Y-68576128D01*
X145798236Y-68475664D01*
X145764895Y-68375046D01*
X145758500Y-68335414D01*
X145758500Y-66770571D01*
X145768091Y-66722353D01*
X145795405Y-66681476D01*
X146073276Y-66403605D01*
X146114153Y-66376291D01*
X146162371Y-66366700D01*
X149543801Y-66366700D01*
X149606801Y-66383581D01*
G37*
G04 #@! TD.AperFunction*
G04 #@! TA.AperFunction,Conductor*
G36*
X112839095Y-54978277D02*
G01*
X112951345Y-55090527D01*
X112951347Y-55090528D01*
X112951349Y-55090530D01*
X113102262Y-55183615D01*
X113270575Y-55239387D01*
X113374456Y-55250000D01*
X113740500Y-55250000D01*
X113803500Y-55266881D01*
X113849619Y-55313000D01*
X113866500Y-55376000D01*
X113866500Y-56829501D01*
X113849619Y-56892501D01*
X113803500Y-56938620D01*
X113740500Y-56955501D01*
X113374456Y-56955501D01*
X113291350Y-56963990D01*
X113270573Y-56966113D01*
X113102262Y-57021885D01*
X112951344Y-57114972D01*
X112839095Y-57227222D01*
X112782611Y-57259834D01*
X112717389Y-57259834D01*
X112660905Y-57227222D01*
X112548655Y-57114972D01*
X112526342Y-57101209D01*
X112397738Y-57021885D01*
X112229426Y-56966113D01*
X112125545Y-56955500D01*
X112125541Y-56955500D01*
X111759500Y-56955500D01*
X111696500Y-56938619D01*
X111650381Y-56892500D01*
X111633500Y-56829500D01*
X111633500Y-55376000D01*
X111650381Y-55313000D01*
X111696500Y-55266881D01*
X111759500Y-55250000D01*
X112125540Y-55250000D01*
X112125544Y-55250000D01*
X112229425Y-55239387D01*
X112397738Y-55183615D01*
X112548651Y-55090530D01*
X112561209Y-55077972D01*
X112660905Y-54978277D01*
X112717389Y-54945665D01*
X112782611Y-54945665D01*
X112839095Y-54978277D01*
G37*
G04 #@! TD.AperFunction*
G04 #@! TA.AperFunction,Conductor*
G36*
X109339095Y-54978277D02*
G01*
X109451345Y-55090527D01*
X109451347Y-55090528D01*
X109451349Y-55090530D01*
X109602262Y-55183615D01*
X109770575Y-55239387D01*
X109874456Y-55250000D01*
X110240500Y-55250000D01*
X110303500Y-55266881D01*
X110349619Y-55313000D01*
X110366500Y-55376000D01*
X110366500Y-56829501D01*
X110349619Y-56892501D01*
X110303500Y-56938620D01*
X110240500Y-56955501D01*
X109874456Y-56955501D01*
X109791350Y-56963990D01*
X109770573Y-56966113D01*
X109602262Y-57021885D01*
X109451344Y-57114972D01*
X109339095Y-57227222D01*
X109282611Y-57259834D01*
X109217389Y-57259834D01*
X109160905Y-57227222D01*
X109048655Y-57114972D01*
X109026342Y-57101209D01*
X108897738Y-57021885D01*
X108729426Y-56966113D01*
X108625545Y-56955500D01*
X108625541Y-56955500D01*
X108259500Y-56955500D01*
X108196500Y-56938619D01*
X108150381Y-56892500D01*
X108133500Y-56829500D01*
X108133500Y-55376000D01*
X108150381Y-55313000D01*
X108196500Y-55266881D01*
X108259500Y-55250000D01*
X108625540Y-55250000D01*
X108625544Y-55250000D01*
X108729425Y-55239387D01*
X108897738Y-55183615D01*
X109048651Y-55090530D01*
X109061209Y-55077972D01*
X109160905Y-54978277D01*
X109217389Y-54945665D01*
X109282611Y-54945665D01*
X109339095Y-54978277D01*
G37*
G04 #@! TD.AperFunction*
G04 #@! TA.AperFunction,Conductor*
G36*
X105839095Y-54978277D02*
G01*
X105951345Y-55090527D01*
X105951347Y-55090528D01*
X105951349Y-55090530D01*
X106102262Y-55183615D01*
X106270575Y-55239387D01*
X106374456Y-55250000D01*
X106740500Y-55250000D01*
X106803500Y-55266881D01*
X106849619Y-55313000D01*
X106866500Y-55376000D01*
X106866500Y-56829501D01*
X106849619Y-56892501D01*
X106803500Y-56938620D01*
X106740500Y-56955501D01*
X106374456Y-56955501D01*
X106291350Y-56963990D01*
X106270573Y-56966113D01*
X106102262Y-57021885D01*
X105951344Y-57114972D01*
X105839095Y-57227222D01*
X105782611Y-57259834D01*
X105717389Y-57259834D01*
X105660905Y-57227222D01*
X105548655Y-57114972D01*
X105526342Y-57101209D01*
X105397738Y-57021885D01*
X105229426Y-56966113D01*
X105125545Y-56955500D01*
X105125541Y-56955500D01*
X104759500Y-56955500D01*
X104696500Y-56938619D01*
X104650381Y-56892500D01*
X104633500Y-56829500D01*
X104633500Y-55376000D01*
X104650381Y-55313000D01*
X104696500Y-55266881D01*
X104759500Y-55250000D01*
X105125540Y-55250000D01*
X105125544Y-55250000D01*
X105229425Y-55239387D01*
X105397738Y-55183615D01*
X105548651Y-55090530D01*
X105561209Y-55077972D01*
X105660905Y-54978277D01*
X105717389Y-54945665D01*
X105782611Y-54945665D01*
X105839095Y-54978277D01*
G37*
G04 #@! TD.AperFunction*
D48*
X95000000Y-50000000D02*
X185000000Y-50000000D01*
X165080300Y-77063600D02*
X182239300Y-77063600D01*
X182239300Y-77663600D01*
X165080300Y-77663600D01*
X165080300Y-77063600D01*
X95000000Y-100000000D02*
X95000000Y-50000000D01*
X185000000Y-100000000D02*
X95000000Y-100000000D01*
X165080300Y-82219800D02*
X182239300Y-82219800D01*
X182239300Y-82819800D01*
X165080300Y-82819800D01*
X165080300Y-82219800D01*
X185000000Y-50000000D02*
X185000000Y-100000000D01*
X165042200Y-72212200D02*
X182201200Y-72212200D01*
X182201200Y-72812200D01*
X165042200Y-72812200D01*
X165042200Y-72212200D01*
X165029500Y-88630200D02*
X182188500Y-88630200D01*
X182188500Y-89230200D01*
X165029500Y-89230200D01*
X165029500Y-88630200D01*
X165054900Y-93735600D02*
X182213900Y-93735600D01*
X182213900Y-94335600D01*
X165054900Y-94335600D01*
X165054900Y-93735600D01*
X165054900Y-64947800D02*
X182213900Y-64947800D01*
X182213900Y-65547800D01*
X165054900Y-65547800D01*
X165054900Y-64947800D01*
M02*
