G04 #@! TF.GenerationSoftware,KiCad,Pcbnew,(6.0.9)*
G04 #@! TF.CreationDate,2023-01-30T08:28:09+01:00*
G04 #@! TF.ProjectId,CaptorBoard,43617074-6f72-4426-9f61-72642e6b6963,rev?*
G04 #@! TF.SameCoordinates,Original*
G04 #@! TF.FileFunction,Copper,L1,Top*
G04 #@! TF.FilePolarity,Positive*
%FSLAX46Y46*%
G04 Gerber Fmt 4.6, Leading zero omitted, Abs format (unit mm)*
G04 Created by KiCad (PCBNEW (6.0.9)) date 2023-01-30 08:28:09*
%MOMM*%
%LPD*%
G01*
G04 APERTURE LIST*
G04 Aperture macros list*
%AMRoundRect*
0 Rectangle with rounded corners*
0 $1 Rounding radius*
0 $2 $3 $4 $5 $6 $7 $8 $9 X,Y pos of 4 corners*
0 Add a 4 corners polygon primitive as box body*
4,1,4,$2,$3,$4,$5,$6,$7,$8,$9,$2,$3,0*
0 Add four circle primitives for the rounded corners*
1,1,$1+$1,$2,$3*
1,1,$1+$1,$4,$5*
1,1,$1+$1,$6,$7*
1,1,$1+$1,$8,$9*
0 Add four rect primitives between the rounded corners*
20,1,$1+$1,$2,$3,$4,$5,0*
20,1,$1+$1,$4,$5,$6,$7,0*
20,1,$1+$1,$6,$7,$8,$9,0*
20,1,$1+$1,$8,$9,$2,$3,0*%
G04 Aperture macros list end*
G04 #@! TA.AperFunction,Profile*
%ADD10C,0.100000*%
G04 #@! TD*
G04 #@! TA.AperFunction,SMDPad,CuDef*
%ADD11R,0.900000X1.500000*%
G04 #@! TD*
G04 #@! TA.AperFunction,SMDPad,CuDef*
%ADD12R,1.500000X0.900000*%
G04 #@! TD*
G04 #@! TA.AperFunction,SMDPad,CuDef*
%ADD13R,1.050000X1.050000*%
G04 #@! TD*
G04 #@! TA.AperFunction,ComponentPad*
%ADD14R,2.200000X2.200000*%
G04 #@! TD*
G04 #@! TA.AperFunction,ComponentPad*
%ADD15O,2.200000X2.200000*%
G04 #@! TD*
G04 #@! TA.AperFunction,SMDPad,CuDef*
%ADD16RoundRect,0.250000X1.075000X-0.400000X1.075000X0.400000X-1.075000X0.400000X-1.075000X-0.400000X0*%
G04 #@! TD*
G04 #@! TA.AperFunction,SMDPad,CuDef*
%ADD17RoundRect,0.250000X-1.075000X0.400000X-1.075000X-0.400000X1.075000X-0.400000X1.075000X0.400000X0*%
G04 #@! TD*
G04 #@! TA.AperFunction,SMDPad,CuDef*
%ADD18RoundRect,0.250001X1.074999X-0.462499X1.074999X0.462499X-1.074999X0.462499X-1.074999X-0.462499X0*%
G04 #@! TD*
G04 #@! TA.AperFunction,ComponentPad*
%ADD19R,2.600000X2.600000*%
G04 #@! TD*
G04 #@! TA.AperFunction,ComponentPad*
%ADD20C,2.600000*%
G04 #@! TD*
G04 #@! TA.AperFunction,ComponentPad*
%ADD21C,2.200000*%
G04 #@! TD*
G04 #@! TA.AperFunction,ComponentPad*
%ADD22C,1.700000*%
G04 #@! TD*
G04 #@! TA.AperFunction,ComponentPad*
%ADD23R,1.600000X1.600000*%
G04 #@! TD*
G04 #@! TA.AperFunction,ComponentPad*
%ADD24O,1.600000X1.600000*%
G04 #@! TD*
G04 #@! TA.AperFunction,SMDPad,CuDef*
%ADD25RoundRect,0.250000X0.400000X1.075000X-0.400000X1.075000X-0.400000X-1.075000X0.400000X-1.075000X0*%
G04 #@! TD*
G04 #@! TA.AperFunction,ComponentPad*
%ADD26R,1.700000X1.700000*%
G04 #@! TD*
G04 #@! TA.AperFunction,ComponentPad*
%ADD27O,1.700000X1.700000*%
G04 #@! TD*
G04 #@! TA.AperFunction,SMDPad,CuDef*
%ADD28R,2.400000X3.000000*%
G04 #@! TD*
G04 #@! TA.AperFunction,SMDPad,CuDef*
%ADD29RoundRect,0.250000X-1.100000X0.412500X-1.100000X-0.412500X1.100000X-0.412500X1.100000X0.412500X0*%
G04 #@! TD*
G04 #@! TA.AperFunction,SMDPad,CuDef*
%ADD30R,1.750000X1.800000*%
G04 #@! TD*
G04 #@! TA.AperFunction,SMDPad,CuDef*
%ADD31RoundRect,0.150000X0.150000X-0.587500X0.150000X0.587500X-0.150000X0.587500X-0.150000X-0.587500X0*%
G04 #@! TD*
G04 #@! TA.AperFunction,ComponentPad*
%ADD32R,2.500000X2.500000*%
G04 #@! TD*
G04 #@! TA.AperFunction,ComponentPad*
%ADD33O,2.500000X2.500000*%
G04 #@! TD*
G04 #@! TA.AperFunction,SMDPad,CuDef*
%ADD34R,0.900000X1.200000*%
G04 #@! TD*
G04 #@! TA.AperFunction,SMDPad,CuDef*
%ADD35RoundRect,0.250001X-1.074999X0.462499X-1.074999X-0.462499X1.074999X-0.462499X1.074999X0.462499X0*%
G04 #@! TD*
G04 #@! TA.AperFunction,SMDPad,CuDef*
%ADD36RoundRect,0.250000X-0.412500X-1.100000X0.412500X-1.100000X0.412500X1.100000X-0.412500X1.100000X0*%
G04 #@! TD*
G04 #@! TA.AperFunction,SMDPad,CuDef*
%ADD37RoundRect,0.250000X-0.400000X-1.075000X0.400000X-1.075000X0.400000X1.075000X-0.400000X1.075000X0*%
G04 #@! TD*
G04 #@! TA.AperFunction,SMDPad,CuDef*
%ADD38R,2.000000X1.500000*%
G04 #@! TD*
G04 #@! TA.AperFunction,SMDPad,CuDef*
%ADD39R,2.000000X3.800000*%
G04 #@! TD*
G04 #@! TA.AperFunction,ComponentPad*
%ADD40R,3.000000X3.000000*%
G04 #@! TD*
G04 #@! TA.AperFunction,ComponentPad*
%ADD41C,3.000000*%
G04 #@! TD*
G04 #@! TA.AperFunction,SMDPad,CuDef*
%ADD42RoundRect,0.250000X1.100000X-0.412500X1.100000X0.412500X-1.100000X0.412500X-1.100000X-0.412500X0*%
G04 #@! TD*
G04 #@! TA.AperFunction,ViaPad*
%ADD43C,0.820000*%
G04 #@! TD*
G04 #@! TA.AperFunction,Conductor*
%ADD44C,0.250000*%
G04 #@! TD*
G04 #@! TA.AperFunction,Conductor*
%ADD45C,2.000000*%
G04 #@! TD*
G04 #@! TA.AperFunction,Conductor*
%ADD46C,0.500000*%
G04 #@! TD*
G04 #@! TA.AperFunction,Conductor*
%ADD47C,4.000000*%
G04 #@! TD*
G04 #@! TA.AperFunction,Conductor*
%ADD48C,0.200000*%
G04 #@! TD*
G04 APERTURE END LIST*
D10*
X95000000Y-50000000D02*
X190000000Y-50000000D01*
X95000000Y-100000000D02*
X95000000Y-50000000D01*
X190000000Y-100000000D02*
X95000000Y-100000000D01*
X190000000Y-50000000D02*
X190000000Y-100000000D01*
D11*
X96293000Y-82746000D03*
X97563000Y-82746000D03*
X98833000Y-82746000D03*
X100103000Y-82746000D03*
X101373000Y-82746000D03*
X102643000Y-82746000D03*
X103913000Y-82746000D03*
X105183000Y-82746000D03*
X106453000Y-82746000D03*
X107723000Y-82746000D03*
X108993000Y-82746000D03*
X110263000Y-82746000D03*
X111533000Y-82746000D03*
X112803000Y-82746000D03*
D12*
X114053000Y-79716000D03*
X114053000Y-78446000D03*
X114053000Y-77176000D03*
X114053000Y-75906000D03*
X114053000Y-74636000D03*
X114053000Y-73366000D03*
X114053000Y-72096000D03*
X114053000Y-70826000D03*
X114053000Y-69556000D03*
X114053000Y-68286000D03*
D11*
X112803000Y-65246000D03*
X111533000Y-65246000D03*
X110263000Y-65246000D03*
X108993000Y-65246000D03*
X107723000Y-65246000D03*
X106453000Y-65246000D03*
X105183000Y-65246000D03*
X103913000Y-65246000D03*
X102643000Y-65246000D03*
X101373000Y-65246000D03*
X100103000Y-65246000D03*
X98833000Y-65246000D03*
X97563000Y-65246000D03*
X96293000Y-65246000D03*
D13*
X105158000Y-76201000D03*
X102108000Y-74676000D03*
X102108000Y-76201000D03*
X103633000Y-74676000D03*
X105158000Y-74676000D03*
X103633000Y-73151000D03*
X103633000Y-76201000D03*
X105158000Y-73151000D03*
X102108000Y-73151000D03*
D14*
X179705000Y-75946000D03*
D15*
X187325000Y-75946000D03*
D14*
X187325000Y-71755000D03*
D15*
X179705000Y-71755000D03*
D16*
X103632000Y-98604000D03*
X103632000Y-95504000D03*
D17*
X113792000Y-58114000D03*
X113792000Y-61214000D03*
X103632000Y-58114000D03*
X103632000Y-61214000D03*
X110490000Y-58114000D03*
X110490000Y-61214000D03*
X107061000Y-58114000D03*
X107061000Y-61214000D03*
D18*
X106934000Y-98515500D03*
X106934000Y-95540500D03*
X113919000Y-54029000D03*
X113919000Y-51054000D03*
X103632000Y-54029000D03*
X103632000Y-51054000D03*
X110490000Y-54029000D03*
X110490000Y-51054000D03*
X107061000Y-54029000D03*
X107061000Y-51054000D03*
D19*
X184709000Y-97028000D03*
D20*
X184709000Y-91948000D03*
X184709000Y-86868000D03*
D21*
X100203000Y-52055000D03*
X100203000Y-59055000D03*
D22*
X97703000Y-57805000D03*
X97703000Y-53305000D03*
D21*
X100203000Y-90932000D03*
X100203000Y-97932000D03*
D22*
X97703000Y-96682000D03*
X97703000Y-92182000D03*
D23*
X177556000Y-61229000D03*
D24*
X177556000Y-63769000D03*
X177556000Y-66309000D03*
X185176000Y-66309000D03*
X185176000Y-63769000D03*
X185176000Y-61229000D03*
D23*
X177556000Y-52085000D03*
D24*
X177556000Y-54625000D03*
X177556000Y-57165000D03*
X185176000Y-57165000D03*
X185176000Y-54625000D03*
X185176000Y-52085000D03*
D25*
X162485000Y-51816000D03*
X159385000Y-51816000D03*
X155881000Y-51816000D03*
X152781000Y-51816000D03*
D26*
X148336000Y-85725000D03*
D27*
X148336000Y-88265000D03*
X148336000Y-90805000D03*
X148336000Y-93345000D03*
X148336000Y-95885000D03*
X148336000Y-98425000D03*
D28*
X181356000Y-80645000D03*
X186216000Y-80645000D03*
D29*
X100914200Y-85318600D03*
X100914200Y-88443600D03*
D26*
X118120000Y-98171000D03*
D27*
X120660000Y-98171000D03*
X123200000Y-98171000D03*
X125740000Y-98171000D03*
D16*
X113792000Y-98604000D03*
X113792000Y-95504000D03*
D30*
X110412600Y-86537800D03*
X107162600Y-86537800D03*
D17*
X118237000Y-90424000D03*
X118237000Y-93524000D03*
D31*
X141925000Y-87249000D03*
X143825000Y-87249000D03*
X142875000Y-85374000D03*
D29*
X104292400Y-86258400D03*
X104292400Y-89383400D03*
D31*
X127828000Y-87219000D03*
X129728000Y-87219000D03*
X128778000Y-85344000D03*
D32*
X141128000Y-81271500D03*
D33*
X147128000Y-79271500D03*
X147128000Y-67071500D03*
X135128000Y-67071500D03*
X135128000Y-79271500D03*
D34*
X121762000Y-86106000D03*
X125062000Y-86106000D03*
D19*
X129032000Y-55245000D03*
D20*
X123952000Y-55245000D03*
X118872000Y-55245000D03*
D35*
X135636000Y-89027000D03*
X135636000Y-92002000D03*
D25*
X99466400Y-62128400D03*
X96366400Y-62128400D03*
D26*
X129413000Y-98171000D03*
D27*
X131953000Y-98171000D03*
X134493000Y-98171000D03*
X137033000Y-98171000D03*
X139573000Y-98171000D03*
X142113000Y-98171000D03*
X144653000Y-98171000D03*
D36*
X167640000Y-51816000D03*
X170765000Y-51816000D03*
D16*
X118237000Y-88444000D03*
X118237000Y-85344000D03*
D37*
X107238200Y-89433400D03*
X110338200Y-89433400D03*
D17*
X132334000Y-90424000D03*
X132334000Y-93524000D03*
D29*
X113309400Y-86258400D03*
X113309400Y-89383400D03*
D16*
X132334000Y-88444000D03*
X132334000Y-85344000D03*
D38*
X138709000Y-89775000D03*
X138709000Y-92075000D03*
D39*
X145009000Y-92075000D03*
D38*
X138709000Y-94375000D03*
D40*
X161671000Y-95885000D03*
D41*
X172421000Y-95885000D03*
X172421000Y-57385000D03*
X164421000Y-57385000D03*
D34*
X135859000Y-86106000D03*
X139159000Y-86106000D03*
D29*
X97536000Y-85305500D03*
X97536000Y-88430500D03*
D19*
X146177000Y-55245000D03*
D20*
X141097000Y-55245000D03*
X136017000Y-55245000D03*
D32*
X123952000Y-81271500D03*
D33*
X129952000Y-79271500D03*
X129952000Y-67071500D03*
X117952000Y-67071500D03*
X117952000Y-79271500D03*
D42*
X110490000Y-98629000D03*
X110490000Y-95504000D03*
D35*
X121539000Y-89063500D03*
X121539000Y-92038500D03*
D43*
X112141000Y-93599000D03*
X96012000Y-81280000D03*
X151765000Y-84709000D03*
X103378000Y-59690000D03*
X143510000Y-95504000D03*
X96012000Y-95250000D03*
X115062000Y-83820000D03*
X130810000Y-95504000D03*
X100838000Y-71882000D03*
X100838000Y-77470000D03*
X129794000Y-85598000D03*
X152146000Y-96520000D03*
X133350000Y-95504000D03*
X108966000Y-56134000D03*
X138430000Y-96011500D03*
X145542000Y-85598000D03*
X123190000Y-95504000D03*
X114681000Y-63627000D03*
X145796000Y-95504000D03*
X151257000Y-88138000D03*
X96291400Y-66878200D03*
X105410000Y-56134000D03*
X106426000Y-71882000D03*
X132080000Y-92202000D03*
X99822000Y-86614000D03*
X106426000Y-77470000D03*
X104140000Y-92202000D03*
X112268000Y-56134000D03*
X136398000Y-90678000D03*
X127254000Y-95504000D03*
X152908000Y-89535000D03*
X135890000Y-95504000D03*
X140970000Y-95504000D03*
X98810683Y-84051438D03*
X101624000Y-94258000D03*
X97383600Y-81305400D03*
X113549370Y-62980630D03*
X113511000Y-80846600D03*
X103632000Y-62986500D03*
X112776000Y-69494400D03*
X110490000Y-62986500D03*
X112807196Y-81584193D03*
X107188000Y-62986500D03*
X112776000Y-78486000D03*
X164592000Y-52324000D03*
X174752000Y-52324000D03*
X110005581Y-84107321D03*
X155956000Y-80899000D03*
X157607000Y-51816000D03*
X111546778Y-84384141D03*
X154914000Y-79984000D03*
X135128000Y-84074000D03*
X121412000Y-84582000D03*
X98501200Y-63955100D03*
X102842500Y-66404500D03*
X108086081Y-84064759D03*
X98602800Y-80936500D03*
X100581900Y-80486500D03*
X101650800Y-80486000D03*
X99110800Y-66673400D03*
X103532028Y-84247712D03*
X101373000Y-66421000D03*
X97641300Y-67399531D03*
X104551519Y-84252694D03*
X133099503Y-86604000D03*
X105181400Y-66421000D03*
X141478000Y-86108500D03*
X109873532Y-67530468D03*
X116586000Y-87122000D03*
D44*
X103757000Y-98479000D02*
X103632000Y-98604000D01*
X106934000Y-98479000D02*
X103757000Y-98479000D01*
X113919000Y-54029000D02*
X113919000Y-57987000D01*
X113919000Y-57987000D02*
X113792000Y-58114000D01*
X103632000Y-54029000D02*
X103632000Y-58114000D01*
X110490000Y-54029000D02*
X110490000Y-58114000D01*
X107061000Y-54029000D02*
X107061000Y-58114000D01*
D45*
X184044630Y-61229000D02*
X185176000Y-61229000D01*
X181356000Y-80645000D02*
X177419000Y-80645000D01*
X183246000Y-52085000D02*
X181102000Y-54229000D01*
X172421000Y-85643000D02*
X172421000Y-95885000D01*
X181102000Y-67564000D02*
X181102000Y-64171630D01*
X182880000Y-79121000D02*
X182880000Y-69342000D01*
X181102000Y-64171630D02*
X184044630Y-61229000D01*
X181102000Y-54229000D02*
X181102000Y-64171630D01*
X185176000Y-52085000D02*
X183246000Y-52085000D01*
X177419000Y-80645000D02*
X172421000Y-85643000D01*
X182880000Y-69342000D02*
X181102000Y-67564000D01*
X181356000Y-80645000D02*
X182880000Y-79121000D01*
D44*
X100078173Y-60579000D02*
X98687000Y-60579000D01*
X100711000Y-62863604D02*
X100711000Y-61211827D01*
X112803000Y-64666000D02*
X111858000Y-63721000D01*
X97703000Y-59595000D02*
X97703000Y-57805000D01*
X111858000Y-63721000D02*
X101568396Y-63721000D01*
X98687000Y-60579000D02*
X97703000Y-59595000D01*
X101568396Y-63721000D02*
X100711000Y-62863604D01*
X100711000Y-61211827D02*
X100078173Y-60579000D01*
X112803000Y-65246000D02*
X112803000Y-64666000D01*
D46*
X115062000Y-80772000D02*
X114053000Y-79763000D01*
X135890000Y-94615000D02*
X135890000Y-95504000D01*
X172421000Y-57385000D02*
X157861000Y-71945000D01*
X172421000Y-57385000D02*
X170765000Y-55729000D01*
X114053000Y-79763000D02*
X114053000Y-79716000D01*
X138430000Y-92075000D02*
X135890000Y-94615000D01*
X170765000Y-55729000D02*
X170765000Y-51816000D01*
X157861000Y-84582000D02*
X152908000Y-89535000D01*
X115062000Y-83820000D02*
X115062000Y-80772000D01*
X138709000Y-92075000D02*
X138430000Y-92075000D01*
X157861000Y-82677000D02*
X157861000Y-84582000D01*
X157861000Y-71945000D02*
X157861000Y-82677000D01*
D44*
X109339000Y-97478000D02*
X102050000Y-97478000D01*
X110515000Y-98604000D02*
X110490000Y-98629000D01*
X98810683Y-84051438D02*
X98833000Y-84029121D01*
X100838000Y-96266000D02*
X98119000Y-96266000D01*
X110490000Y-98629000D02*
X109339000Y-97478000D01*
X102050000Y-97478000D02*
X100838000Y-96266000D01*
X98119000Y-96266000D02*
X97703000Y-96682000D01*
X113792000Y-98604000D02*
X110515000Y-98604000D01*
X98833000Y-84029121D02*
X98833000Y-82746000D01*
X112041000Y-69798847D02*
X112041000Y-69188000D01*
X97383600Y-81305400D02*
X97749200Y-81671000D01*
X102870000Y-95504000D02*
X103632000Y-95504000D01*
X112041000Y-80545988D02*
X112041000Y-78181553D01*
X112943000Y-68286000D02*
X114053000Y-68286000D01*
X97749200Y-81671000D02*
X110915988Y-81671000D01*
X112041000Y-78181553D02*
X112877600Y-77344953D01*
X110915988Y-81671000D02*
X112041000Y-80545988D01*
X112877600Y-70635447D02*
X112041000Y-69798847D01*
X112041000Y-69188000D02*
X112943000Y-68286000D01*
X101624000Y-94258000D02*
X102870000Y-95504000D01*
X112877600Y-77344953D02*
X112877600Y-70635447D01*
X111533000Y-81812653D02*
X111533000Y-82746000D01*
X112499053Y-80846600D02*
X111533000Y-81812653D01*
X113511000Y-80846600D02*
X112499053Y-80846600D01*
X113792000Y-62738000D02*
X113549370Y-62980630D01*
X113792000Y-61214000D02*
X113792000Y-62738000D01*
X112776000Y-69494400D02*
X113411400Y-69494400D01*
X113411400Y-69494400D02*
X113473000Y-69556000D01*
X103632000Y-61214000D02*
X103632000Y-62986500D01*
X113473000Y-69556000D02*
X114053000Y-69556000D01*
X112803000Y-81588389D02*
X112803000Y-82746000D01*
X112807196Y-81584193D02*
X112803000Y-81588389D01*
X110490000Y-61214000D02*
X110490000Y-62986500D01*
X107061000Y-62859500D02*
X107188000Y-62986500D01*
X107061000Y-61214000D02*
X107061000Y-62859500D01*
X112776000Y-78486000D02*
X113013000Y-78486000D01*
X113013000Y-78486000D02*
X113053000Y-78446000D01*
X113053000Y-78446000D02*
X114053000Y-78446000D01*
X175133000Y-59309000D02*
X177053000Y-61229000D01*
X175133000Y-53086000D02*
X175133000Y-59309000D01*
X177053000Y-61229000D02*
X177556000Y-61229000D01*
X162993000Y-52324000D02*
X162485000Y-51816000D01*
X175133000Y-53086000D02*
X175133000Y-52705000D01*
X175133000Y-52705000D02*
X174752000Y-52324000D01*
X164592000Y-52324000D02*
X162993000Y-52324000D01*
X155956000Y-80899000D02*
X155956000Y-55245000D01*
X109719260Y-83821000D02*
X109488000Y-83821000D01*
X155956000Y-55245000D02*
X159385000Y-51816000D01*
X110005581Y-84107321D02*
X109719260Y-83821000D01*
X109488000Y-83821000D02*
X108993000Y-83326000D01*
X108993000Y-83326000D02*
X108993000Y-82746000D01*
X155881000Y-51816000D02*
X157607000Y-51816000D01*
X110983637Y-83821000D02*
X110758000Y-83821000D01*
X111546778Y-84384141D02*
X110983637Y-83821000D01*
X154914000Y-79984000D02*
X154914000Y-53949000D01*
X110263000Y-83326000D02*
X110263000Y-82746000D01*
X110758000Y-83821000D02*
X110263000Y-83326000D01*
X154914000Y-53949000D02*
X152781000Y-51816000D01*
D46*
X135509000Y-84455000D02*
X135509000Y-86106000D01*
X145415000Y-88900000D02*
X148336000Y-85979000D01*
X141986000Y-88900000D02*
X145415000Y-88900000D01*
X141161000Y-89725000D02*
X141986000Y-88900000D01*
X138759000Y-89725000D02*
X141161000Y-89725000D01*
X167640000Y-54166000D02*
X167640000Y-51816000D01*
X138709000Y-89775000D02*
X138759000Y-89725000D01*
X164421000Y-57385000D02*
X167640000Y-54166000D01*
X148336000Y-85979000D02*
X148336000Y-85725000D01*
X121412000Y-86106000D02*
X121412000Y-84582000D01*
X135128000Y-84074000D02*
X135509000Y-84455000D01*
D44*
X98833000Y-64286900D02*
X98833000Y-65246000D01*
X98501200Y-63955100D02*
X98833000Y-64286900D01*
X102643000Y-66205000D02*
X102643000Y-65246000D01*
X102842500Y-66404500D02*
X102643000Y-66205000D01*
X108086081Y-84064759D02*
X108086081Y-83109081D01*
X108086081Y-83109081D02*
X107723000Y-82746000D01*
X112427600Y-77158557D02*
X112427600Y-70821843D01*
X98887300Y-81221000D02*
X110729592Y-81221000D01*
X111533000Y-69927243D02*
X111533000Y-65246000D01*
X110729592Y-81221000D02*
X111591000Y-80359592D01*
X111591000Y-80359592D02*
X111591000Y-77995157D01*
X112427600Y-70821843D02*
X111533000Y-69927243D01*
X111591000Y-77995157D02*
X112427600Y-77158557D01*
X98602800Y-80936500D02*
X98887300Y-81221000D01*
D45*
X188087000Y-90678000D02*
X188087000Y-82516000D01*
X184709000Y-91948000D02*
X186817000Y-91948000D01*
X188087000Y-82516000D02*
X186216000Y-80645000D01*
X186817000Y-91948000D02*
X188087000Y-90678000D01*
D46*
X95736000Y-92688000D02*
X95736000Y-87105500D01*
X98552000Y-95504000D02*
X95736000Y-92688000D01*
X118120000Y-98171000D02*
X118237000Y-98171000D01*
X113792000Y-95504000D02*
X116459000Y-98171000D01*
X97536000Y-85305500D02*
X97536000Y-82773000D01*
X140110000Y-95152000D02*
X140110000Y-95860224D01*
X113792000Y-95504000D02*
X112522000Y-96774000D01*
X141120776Y-96871000D02*
X141127000Y-96871000D01*
X118237000Y-98171000D02*
X119537000Y-96871000D01*
X139333000Y-94375000D02*
X140110000Y-95152000D01*
X141127000Y-96871000D02*
X146782000Y-96871000D01*
X119537000Y-96871000D02*
X125065000Y-96871000D01*
X146782000Y-96871000D02*
X148336000Y-98425000D01*
X116459000Y-98171000D02*
X118120000Y-98171000D01*
X140110000Y-95860224D02*
X141120776Y-96871000D01*
X112522000Y-96774000D02*
X102235000Y-96774000D01*
X97536000Y-82773000D02*
X97563000Y-82746000D01*
X97549100Y-85318600D02*
X97536000Y-85305500D01*
X95736000Y-87105500D02*
X97536000Y-85305500D01*
X138709000Y-94375000D02*
X139333000Y-94375000D01*
X100914200Y-85318600D02*
X97549100Y-85318600D01*
X100965000Y-95504000D02*
X98552000Y-95504000D01*
X125065000Y-96871000D02*
X141127000Y-96871000D01*
X102235000Y-96774000D02*
X100965000Y-95504000D01*
D44*
X111527600Y-71194635D02*
X110633000Y-70300035D01*
X110691000Y-79986800D02*
X110691000Y-77622365D01*
X108218000Y-66321000D02*
X107723000Y-65826000D01*
X100588766Y-80486500D02*
X101323766Y-79751500D01*
X108851604Y-66321000D02*
X108218000Y-66321000D01*
X110633000Y-70300035D02*
X110633000Y-67251196D01*
X111527600Y-76785765D02*
X111527600Y-71194635D01*
X109301604Y-66771000D02*
X108851604Y-66321000D01*
X110691000Y-77622365D02*
X111527600Y-76785765D01*
X110152804Y-66771000D02*
X109301604Y-66771000D01*
X110356800Y-80321000D02*
X110691000Y-79986800D01*
X101323766Y-79751500D02*
X101955747Y-79751500D01*
X100581900Y-80486500D02*
X100588766Y-80486500D01*
X101955747Y-79751500D02*
X102525247Y-80321000D01*
X110633000Y-67251196D02*
X110152804Y-66771000D01*
X102525247Y-80321000D02*
X110356800Y-80321000D01*
X107723000Y-65826000D02*
X107723000Y-65246000D01*
X101935800Y-80771000D02*
X110543196Y-80771000D01*
X111977600Y-76972161D02*
X111977600Y-71008239D01*
X111083000Y-67064800D02*
X110339200Y-66321000D01*
X109488000Y-66321000D02*
X108993000Y-65826000D01*
X111083000Y-70113639D02*
X111083000Y-67064800D01*
X111141000Y-77808761D02*
X111977600Y-76972161D01*
X111977600Y-71008239D02*
X111083000Y-70113639D01*
X108993000Y-65826000D02*
X108993000Y-65246000D01*
X101650800Y-80486000D02*
X101935800Y-80771000D01*
X110543196Y-80771000D02*
X111141000Y-80173196D01*
X110339200Y-66321000D02*
X109488000Y-66321000D01*
X111141000Y-80173196D02*
X111141000Y-77808761D01*
D47*
X117952000Y-61372000D02*
X118872000Y-60452000D01*
X117952000Y-67071500D02*
X117952000Y-61372000D01*
X118872000Y-60452000D02*
X118872000Y-55245000D01*
X123952000Y-55245000D02*
X123952000Y-81271500D01*
X129952000Y-60864000D02*
X129032000Y-59944000D01*
X129952000Y-67071500D02*
X129952000Y-60864000D01*
X129032000Y-59944000D02*
X129032000Y-55245000D01*
X136017000Y-59309000D02*
X136017000Y-55245000D01*
X135128000Y-67071500D02*
X135128000Y-60198000D01*
X135128000Y-60198000D02*
X136017000Y-59309000D01*
X141097000Y-55245000D02*
X141097000Y-81240500D01*
X141097000Y-81240500D02*
X141128000Y-81271500D01*
X146177000Y-58420000D02*
X146177000Y-55245000D01*
X147128000Y-67071500D02*
X147128000Y-59371000D01*
X147128000Y-59371000D02*
X146177000Y-58420000D01*
D44*
X99110800Y-66673400D02*
X98410400Y-66673400D01*
X97563000Y-65826000D02*
X97563000Y-65246000D01*
X98410400Y-66673400D02*
X97563000Y-65826000D01*
X103532028Y-84247712D02*
X102643000Y-83358684D01*
X102643000Y-83358684D02*
X102643000Y-82746000D01*
X101373000Y-66421000D02*
X101373000Y-65246000D01*
X99419300Y-67407900D02*
X100103000Y-66724200D01*
X98188384Y-67399531D02*
X98196753Y-67407900D01*
X100103000Y-66724200D02*
X100103000Y-65246000D01*
X98196753Y-67407900D02*
X99419300Y-67407900D01*
X97641300Y-67399531D02*
X98188384Y-67399531D01*
X103913000Y-83589237D02*
X103913000Y-82746000D01*
X104267028Y-83943265D02*
X103913000Y-83589237D01*
X104551519Y-84252694D02*
X104267028Y-83968203D01*
X104267028Y-83968203D02*
X104267028Y-83943265D01*
D48*
X104292400Y-89383400D02*
X107188200Y-89383400D01*
X107188200Y-89383400D02*
X107238200Y-89433400D01*
X107162600Y-89357800D02*
X107238200Y-89433400D01*
X105183000Y-82746000D02*
X105183000Y-83696000D01*
X107162600Y-86537800D02*
X107162600Y-89357800D01*
X105183000Y-83696000D02*
X107162600Y-85675600D01*
X107162600Y-85675600D02*
X107162600Y-86537800D01*
X109676600Y-90323600D02*
X109601600Y-90398600D01*
X109676600Y-87503000D02*
X109676600Y-90323600D01*
X110388200Y-89383400D02*
X110338200Y-89433400D01*
X110412600Y-89359000D02*
X110338200Y-89433400D01*
X110412600Y-86537800D02*
X110412600Y-89359000D01*
X106453000Y-83440600D02*
X109550200Y-86537800D01*
X113309400Y-89383400D02*
X110388200Y-89383400D01*
X109676600Y-86969000D02*
X109676600Y-87503000D01*
X106453000Y-82746000D02*
X106453000Y-83440600D01*
X109550200Y-86537800D02*
X110412600Y-86537800D01*
D44*
X109891000Y-64171000D02*
X101382000Y-64171000D01*
X110236000Y-65219000D02*
X110236000Y-64516000D01*
X101382000Y-64171000D02*
X99568000Y-62357000D01*
X110236000Y-64516000D02*
X109891000Y-64171000D01*
X110263000Y-65246000D02*
X110236000Y-65219000D01*
X133856000Y-92002000D02*
X132334000Y-93524000D01*
X135636000Y-92002000D02*
X133856000Y-92002000D01*
X119543500Y-92038500D02*
X121539000Y-92038500D01*
X118237000Y-93345000D02*
X119543500Y-92038500D01*
X118237000Y-93524000D02*
X118237000Y-93345000D01*
X141478000Y-86108500D02*
X141478000Y-86802000D01*
X105181400Y-66421000D02*
X105183000Y-66419400D01*
X132334000Y-87369503D02*
X133099503Y-86604000D01*
X132334000Y-90424000D02*
X132334000Y-88444000D01*
X132334000Y-88444000D02*
X132334000Y-87369503D01*
X141478000Y-86802000D02*
X141925000Y-87249000D01*
X105183000Y-66419400D02*
X105183000Y-65246000D01*
X119051000Y-87630000D02*
X118237000Y-88444000D01*
X118237000Y-90424000D02*
X118237000Y-88444000D01*
X108665208Y-66771000D02*
X107398000Y-66771000D01*
X116586000Y-87122000D02*
X116915000Y-87122000D01*
X116915000Y-87122000D02*
X118237000Y-88444000D01*
X127828000Y-87219000D02*
X127417000Y-87630000D01*
X109115208Y-67221000D02*
X108665208Y-66771000D01*
X107398000Y-66771000D02*
X106453000Y-65826000D01*
X106453000Y-65826000D02*
X106453000Y-65246000D01*
X109873532Y-67530468D02*
X109564064Y-67221000D01*
X109564064Y-67221000D02*
X109115208Y-67221000D01*
X127417000Y-87630000D02*
X119051000Y-87630000D01*
X126746000Y-85344000D02*
X128778000Y-85344000D01*
X128778000Y-85344000D02*
X129952000Y-84170000D01*
X125412000Y-86106000D02*
X125984000Y-86106000D01*
X129952000Y-84170000D02*
X129952000Y-79271500D01*
X125984000Y-86106000D02*
X126746000Y-85344000D01*
X142875000Y-85374000D02*
X147128000Y-81121000D01*
X140178000Y-85374000D02*
X142875000Y-85374000D01*
X139509000Y-86043000D02*
X140178000Y-85374000D01*
X147128000Y-81121000D02*
X147128000Y-79271500D01*
X139509000Y-86106000D02*
X139509000Y-86043000D01*
G04 #@! TA.AperFunction,Conductor*
G36*
X127996621Y-97649502D02*
G01*
X128043114Y-97703158D01*
X128054500Y-97755500D01*
X128054500Y-99069134D01*
X128061255Y-99131316D01*
X128112385Y-99267705D01*
X128124779Y-99284243D01*
X128129046Y-99289936D01*
X128153893Y-99356443D01*
X128138839Y-99425825D01*
X128088664Y-99476055D01*
X128028219Y-99491500D01*
X126621020Y-99491500D01*
X126552899Y-99471498D01*
X126506406Y-99417842D01*
X126496302Y-99347568D01*
X126525796Y-99282988D01*
X126547852Y-99262921D01*
X126615328Y-99214792D01*
X126623200Y-99208139D01*
X126774052Y-99057812D01*
X126780730Y-99049965D01*
X126905003Y-98877020D01*
X126910313Y-98868183D01*
X127004670Y-98677267D01*
X127008469Y-98667672D01*
X127070377Y-98463910D01*
X127072555Y-98453837D01*
X127073986Y-98442962D01*
X127071775Y-98428778D01*
X127058617Y-98425000D01*
X125612000Y-98425000D01*
X125543879Y-98404998D01*
X125497386Y-98351342D01*
X125486000Y-98299000D01*
X125486000Y-98043000D01*
X125506002Y-97974879D01*
X125559658Y-97928386D01*
X125612000Y-97917000D01*
X127058344Y-97917000D01*
X127071875Y-97913027D01*
X127073180Y-97903947D01*
X127043603Y-97786196D01*
X127046407Y-97715255D01*
X127087120Y-97657091D01*
X127152815Y-97630172D01*
X127165807Y-97629500D01*
X127928500Y-97629500D01*
X127996621Y-97649502D01*
G37*
G04 #@! TD.AperFunction*
G04 #@! TA.AperFunction,Conductor*
G36*
X95717012Y-93742147D02*
G01*
X95723595Y-93748276D01*
X97201822Y-95226503D01*
X97235848Y-95288815D01*
X97230783Y-95359630D01*
X97188236Y-95416466D01*
X97170910Y-95427359D01*
X96976607Y-95528507D01*
X96972474Y-95531610D01*
X96972471Y-95531612D01*
X96802100Y-95659530D01*
X96797965Y-95662635D01*
X96643629Y-95824138D01*
X96640715Y-95828410D01*
X96640714Y-95828411D01*
X96599816Y-95888365D01*
X96517743Y-96008680D01*
X96471222Y-96108901D01*
X96429797Y-96198145D01*
X96423688Y-96211305D01*
X96363989Y-96426570D01*
X96340251Y-96648695D01*
X96353110Y-96871715D01*
X96354247Y-96876761D01*
X96354248Y-96876767D01*
X96374115Y-96964919D01*
X96402222Y-97089639D01*
X96425482Y-97146921D01*
X96482404Y-97287104D01*
X96486266Y-97296616D01*
X96602987Y-97487088D01*
X96749250Y-97655938D01*
X96869173Y-97755500D01*
X96906146Y-97786195D01*
X96921126Y-97798632D01*
X97114000Y-97911338D01*
X97322692Y-97991030D01*
X97327760Y-97992061D01*
X97327763Y-97992062D01*
X97435017Y-98013883D01*
X97541597Y-98035567D01*
X97546772Y-98035757D01*
X97546774Y-98035757D01*
X97759673Y-98043564D01*
X97759677Y-98043564D01*
X97764837Y-98043753D01*
X97769957Y-98043097D01*
X97769959Y-98043097D01*
X97981288Y-98016025D01*
X97981289Y-98016025D01*
X97986416Y-98015368D01*
X97991366Y-98013883D01*
X98195429Y-97952661D01*
X98195434Y-97952659D01*
X98200384Y-97951174D01*
X98400994Y-97852896D01*
X98401993Y-97852183D01*
X98469639Y-97834772D01*
X98537047Y-97857057D01*
X98581706Y-97912249D01*
X98591007Y-97950814D01*
X98609391Y-98184403D01*
X98610545Y-98189210D01*
X98610546Y-98189216D01*
X98636903Y-98299000D01*
X98668495Y-98430591D01*
X98670388Y-98435162D01*
X98670389Y-98435164D01*
X98757824Y-98646250D01*
X98765384Y-98664502D01*
X98897672Y-98880376D01*
X98975404Y-98971388D01*
X99049035Y-99057598D01*
X99062102Y-99072898D01*
X99254624Y-99237328D01*
X99288467Y-99258067D01*
X99336098Y-99310715D01*
X99347705Y-99380756D01*
X99319602Y-99445954D01*
X99260712Y-99485608D01*
X99222632Y-99491500D01*
X95634500Y-99491500D01*
X95566379Y-99471498D01*
X95519886Y-99417842D01*
X95508500Y-99365500D01*
X95508500Y-93837371D01*
X95528502Y-93769250D01*
X95582158Y-93722757D01*
X95652432Y-93712653D01*
X95717012Y-93742147D01*
G37*
G04 #@! TD.AperFunction*
G04 #@! TA.AperFunction,Conductor*
G36*
X153612121Y-84094002D02*
G01*
X153658614Y-84147658D01*
X153670000Y-84200000D01*
X153670000Y-99365500D01*
X153649998Y-99433621D01*
X153596342Y-99480114D01*
X153544000Y-99491500D01*
X149488286Y-99491500D01*
X149420165Y-99471498D01*
X149373672Y-99417842D01*
X149363568Y-99347568D01*
X149385963Y-99291974D01*
X149387428Y-99289936D01*
X149504453Y-99127077D01*
X149520990Y-99093618D01*
X149601136Y-98931453D01*
X149601137Y-98931451D01*
X149603430Y-98926811D01*
X149645669Y-98787787D01*
X149666865Y-98718023D01*
X149666865Y-98718021D01*
X149668370Y-98713069D01*
X149697529Y-98491590D01*
X149698449Y-98453939D01*
X149699074Y-98428365D01*
X149699074Y-98428361D01*
X149699156Y-98425000D01*
X149680852Y-98202361D01*
X149626431Y-97985702D01*
X149537354Y-97780840D01*
X149494925Y-97715255D01*
X149418822Y-97597617D01*
X149418820Y-97597614D01*
X149416014Y-97593277D01*
X149265670Y-97428051D01*
X149261619Y-97424852D01*
X149261615Y-97424848D01*
X149094414Y-97292800D01*
X149094410Y-97292798D01*
X149090359Y-97289598D01*
X149049053Y-97266796D01*
X148999084Y-97216364D01*
X148984312Y-97146921D01*
X149009428Y-97080516D01*
X149036780Y-97053909D01*
X149080603Y-97022650D01*
X149215860Y-96926173D01*
X149266439Y-96875771D01*
X149370435Y-96772137D01*
X149374096Y-96768489D01*
X149504453Y-96587077D01*
X149603430Y-96386811D01*
X149656753Y-96211305D01*
X149666865Y-96178023D01*
X149666865Y-96178021D01*
X149668370Y-96173069D01*
X149697529Y-95951590D01*
X149697883Y-95937105D01*
X149699074Y-95888365D01*
X149699074Y-95888361D01*
X149699156Y-95885000D01*
X149680852Y-95662361D01*
X149626431Y-95445702D01*
X149537354Y-95240840D01*
X149463049Y-95125982D01*
X149418822Y-95057617D01*
X149418820Y-95057614D01*
X149416014Y-95053277D01*
X149265670Y-94888051D01*
X149261619Y-94884852D01*
X149261615Y-94884848D01*
X149094414Y-94752800D01*
X149094410Y-94752798D01*
X149090359Y-94749598D01*
X149082936Y-94745500D01*
X149048569Y-94726529D01*
X148998598Y-94676097D01*
X148983826Y-94606654D01*
X149008942Y-94540248D01*
X149036294Y-94513641D01*
X149211328Y-94388792D01*
X149219200Y-94382139D01*
X149370052Y-94231812D01*
X149376730Y-94223965D01*
X149501003Y-94051020D01*
X149506313Y-94042183D01*
X149600670Y-93851267D01*
X149604469Y-93841672D01*
X149666377Y-93637910D01*
X149668555Y-93627837D01*
X149669986Y-93616962D01*
X149667775Y-93602778D01*
X149654617Y-93599000D01*
X147019225Y-93599000D01*
X147005694Y-93602973D01*
X147004257Y-93612966D01*
X147034565Y-93747446D01*
X147037645Y-93757275D01*
X147117770Y-93954603D01*
X147122413Y-93963794D01*
X147233694Y-94145388D01*
X147239777Y-94153699D01*
X147379213Y-94314667D01*
X147386580Y-94321883D01*
X147550434Y-94457916D01*
X147558881Y-94463831D01*
X147627969Y-94504203D01*
X147676693Y-94555842D01*
X147689764Y-94625625D01*
X147663033Y-94691396D01*
X147622584Y-94724752D01*
X147609607Y-94731507D01*
X147605474Y-94734610D01*
X147605471Y-94734612D01*
X147435100Y-94862530D01*
X147430965Y-94865635D01*
X147427393Y-94869373D01*
X147300304Y-95002364D01*
X147276629Y-95027138D01*
X147150743Y-95211680D01*
X147136337Y-95242715D01*
X147073127Y-95378891D01*
X147056688Y-95414305D01*
X146996989Y-95629570D01*
X146973251Y-95851695D01*
X146973548Y-95856848D01*
X146973548Y-95856851D01*
X146980527Y-95977890D01*
X146964479Y-96047049D01*
X146913589Y-96096554D01*
X146849858Y-96109372D01*
X146849885Y-96110360D01*
X146844180Y-96110514D01*
X146844178Y-96110514D01*
X146786120Y-96112085D01*
X146772479Y-96112454D01*
X146769072Y-96112500D01*
X141487147Y-96112500D01*
X141419026Y-96092498D01*
X141398052Y-96075595D01*
X140905405Y-95582948D01*
X140871379Y-95520636D01*
X140868500Y-95493853D01*
X140868500Y-95219070D01*
X140869933Y-95200120D01*
X140872099Y-95185885D01*
X140872099Y-95185881D01*
X140873199Y-95178651D01*
X140872473Y-95169717D01*
X140868915Y-95125982D01*
X140868500Y-95115767D01*
X140868500Y-95107707D01*
X140865209Y-95079480D01*
X140864778Y-95075121D01*
X140863293Y-95056866D01*
X140858860Y-95002364D01*
X140856605Y-94995403D01*
X140855418Y-94989463D01*
X140854029Y-94983588D01*
X140853182Y-94976319D01*
X140828264Y-94907670D01*
X140826847Y-94903542D01*
X140806607Y-94841064D01*
X140806606Y-94841062D01*
X140804351Y-94834101D01*
X140800555Y-94827846D01*
X140798049Y-94822372D01*
X140795330Y-94816942D01*
X140792833Y-94810063D01*
X140788820Y-94803942D01*
X140752814Y-94749024D01*
X140750467Y-94745305D01*
X140749466Y-94743655D01*
X140712595Y-94682893D01*
X140705197Y-94674516D01*
X140705224Y-94674492D01*
X140702571Y-94671500D01*
X140699868Y-94668267D01*
X140695856Y-94662148D01*
X140639617Y-94608872D01*
X140637175Y-94606494D01*
X140254405Y-94223724D01*
X140220379Y-94161412D01*
X140217500Y-94134629D01*
X140217500Y-94019669D01*
X143501001Y-94019669D01*
X143501371Y-94026490D01*
X143506895Y-94077352D01*
X143510521Y-94092604D01*
X143555676Y-94213054D01*
X143564214Y-94228649D01*
X143640715Y-94330724D01*
X143653276Y-94343285D01*
X143755351Y-94419786D01*
X143770946Y-94428324D01*
X143891394Y-94473478D01*
X143906649Y-94477105D01*
X143957514Y-94482631D01*
X143964328Y-94483000D01*
X144736885Y-94483000D01*
X144752124Y-94478525D01*
X144753329Y-94477135D01*
X144755000Y-94469452D01*
X144755000Y-94464884D01*
X145263000Y-94464884D01*
X145267475Y-94480123D01*
X145268865Y-94481328D01*
X145276548Y-94482999D01*
X146053669Y-94482999D01*
X146060490Y-94482629D01*
X146111352Y-94477105D01*
X146126604Y-94473479D01*
X146247054Y-94428324D01*
X146262649Y-94419786D01*
X146364724Y-94343285D01*
X146377285Y-94330724D01*
X146453786Y-94228649D01*
X146462324Y-94213054D01*
X146507478Y-94092606D01*
X146511105Y-94077351D01*
X146516631Y-94026486D01*
X146517000Y-94019672D01*
X146517000Y-92347115D01*
X146512525Y-92331876D01*
X146511135Y-92330671D01*
X146503452Y-92329000D01*
X145281115Y-92329000D01*
X145265876Y-92333475D01*
X145264671Y-92334865D01*
X145263000Y-92342548D01*
X145263000Y-94464884D01*
X144755000Y-94464884D01*
X144755000Y-92347115D01*
X144750525Y-92331876D01*
X144749135Y-92330671D01*
X144741452Y-92329000D01*
X143519116Y-92329000D01*
X143503877Y-92333475D01*
X143502672Y-92334865D01*
X143501001Y-92342548D01*
X143501001Y-94019669D01*
X140217500Y-94019669D01*
X140217500Y-93576866D01*
X140210745Y-93514684D01*
X140159615Y-93378295D01*
X140101047Y-93300148D01*
X140076199Y-93233642D01*
X140091252Y-93164259D01*
X140101047Y-93149018D01*
X140153786Y-93078648D01*
X140162324Y-93063054D01*
X140207478Y-92942606D01*
X140211105Y-92927351D01*
X140216631Y-92876486D01*
X140217000Y-92869672D01*
X140217000Y-92347115D01*
X140212525Y-92331876D01*
X140211135Y-92330671D01*
X140203452Y-92329000D01*
X138581000Y-92329000D01*
X138512879Y-92308998D01*
X138466386Y-92255342D01*
X138455000Y-92203000D01*
X138455000Y-91947000D01*
X138475002Y-91878879D01*
X138528658Y-91832386D01*
X138581000Y-91821000D01*
X140198884Y-91821000D01*
X140214123Y-91816525D01*
X140215328Y-91815135D01*
X140216999Y-91807452D01*
X140216999Y-91280331D01*
X140216629Y-91273510D01*
X140211105Y-91222648D01*
X140207479Y-91207396D01*
X140162324Y-91086946D01*
X140153786Y-91071352D01*
X140101047Y-91000982D01*
X140076199Y-90934476D01*
X140091252Y-90865093D01*
X140101047Y-90849852D01*
X140117272Y-90828203D01*
X140159615Y-90771705D01*
X140210745Y-90635316D01*
X140215028Y-90595892D01*
X140242270Y-90530330D01*
X140300634Y-90489904D01*
X140340291Y-90483500D01*
X141093930Y-90483500D01*
X141112880Y-90484933D01*
X141127115Y-90487099D01*
X141127119Y-90487099D01*
X141134349Y-90488199D01*
X141141641Y-90487606D01*
X141141644Y-90487606D01*
X141187018Y-90483915D01*
X141197233Y-90483500D01*
X141205293Y-90483500D01*
X141218583Y-90481951D01*
X141233507Y-90480211D01*
X141237882Y-90479778D01*
X141303339Y-90474454D01*
X141303342Y-90474453D01*
X141310637Y-90473860D01*
X141317601Y-90471604D01*
X141323560Y-90470413D01*
X141329415Y-90469029D01*
X141336681Y-90468182D01*
X141405327Y-90443265D01*
X141409455Y-90441848D01*
X141471936Y-90421607D01*
X141471938Y-90421606D01*
X141478899Y-90419351D01*
X141485154Y-90415555D01*
X141490628Y-90413049D01*
X141496058Y-90410330D01*
X141502937Y-90407833D01*
X141509058Y-90403820D01*
X141563976Y-90367814D01*
X141567680Y-90365477D01*
X141630107Y-90327595D01*
X141638484Y-90320197D01*
X141638508Y-90320224D01*
X141641500Y-90317571D01*
X141644733Y-90314868D01*
X141650852Y-90310856D01*
X141704128Y-90254617D01*
X141706506Y-90252175D01*
X142263276Y-89695405D01*
X142325588Y-89661379D01*
X142352371Y-89658500D01*
X143509319Y-89658500D01*
X143577440Y-89678502D01*
X143623933Y-89732158D01*
X143634037Y-89802432D01*
X143610146Y-89860064D01*
X143564213Y-89921352D01*
X143555676Y-89936946D01*
X143510522Y-90057394D01*
X143506895Y-90072649D01*
X143501369Y-90123514D01*
X143501000Y-90130328D01*
X143501000Y-91802885D01*
X143505475Y-91818124D01*
X143506865Y-91819329D01*
X143514548Y-91821000D01*
X146498884Y-91821000D01*
X146514123Y-91816525D01*
X146515328Y-91815135D01*
X146516999Y-91807452D01*
X146516999Y-90130331D01*
X146516629Y-90123510D01*
X146511105Y-90072648D01*
X146507479Y-90057396D01*
X146462324Y-89936946D01*
X146453786Y-89921351D01*
X146377285Y-89819276D01*
X146364724Y-89806715D01*
X146262649Y-89730214D01*
X146247054Y-89721676D01*
X146126606Y-89676522D01*
X146111351Y-89672895D01*
X146060486Y-89667369D01*
X146053672Y-89667000D01*
X146026174Y-89667000D01*
X145958053Y-89646998D01*
X145911560Y-89593342D01*
X145901456Y-89523068D01*
X145934701Y-89454347D01*
X145958128Y-89429617D01*
X145960506Y-89427175D01*
X146814608Y-88573073D01*
X146876920Y-88539047D01*
X146947735Y-88544112D01*
X147004571Y-88586659D01*
X147026619Y-88634464D01*
X147035222Y-88672639D01*
X147119266Y-88879616D01*
X147235987Y-89070088D01*
X147382250Y-89238938D01*
X147554126Y-89381632D01*
X147597833Y-89407172D01*
X147627445Y-89424476D01*
X147676169Y-89476114D01*
X147689240Y-89545897D01*
X147662509Y-89611669D01*
X147622055Y-89645027D01*
X147609607Y-89651507D01*
X147605474Y-89654610D01*
X147605471Y-89654612D01*
X147435100Y-89782530D01*
X147430965Y-89785635D01*
X147276629Y-89947138D01*
X147150743Y-90131680D01*
X147135003Y-90165590D01*
X147059803Y-90327595D01*
X147056688Y-90334305D01*
X146996989Y-90549570D01*
X146973251Y-90771695D01*
X146973548Y-90776848D01*
X146973548Y-90776851D01*
X146985648Y-90986704D01*
X146986110Y-90994715D01*
X146987247Y-90999761D01*
X146987248Y-90999767D01*
X146997915Y-91047099D01*
X147035222Y-91212639D01*
X147119266Y-91419616D01*
X147126278Y-91431059D01*
X147211196Y-91569632D01*
X147235987Y-91610088D01*
X147382250Y-91778938D01*
X147554126Y-91921632D01*
X147627955Y-91964774D01*
X147676679Y-92016412D01*
X147689750Y-92086195D01*
X147663019Y-92151967D01*
X147622562Y-92185327D01*
X147614457Y-92189546D01*
X147605738Y-92195036D01*
X147435433Y-92322905D01*
X147427726Y-92329748D01*
X147280590Y-92483717D01*
X147274104Y-92491727D01*
X147154098Y-92667649D01*
X147149000Y-92676623D01*
X147059338Y-92869783D01*
X147055775Y-92879470D01*
X147000389Y-93079183D01*
X147001912Y-93087607D01*
X147014292Y-93091000D01*
X149654344Y-93091000D01*
X149667875Y-93087027D01*
X149669180Y-93077947D01*
X149627214Y-92910875D01*
X149623894Y-92901124D01*
X149538972Y-92705814D01*
X149534105Y-92696739D01*
X149418426Y-92517926D01*
X149412136Y-92509757D01*
X149268806Y-92352240D01*
X149261273Y-92345215D01*
X149094139Y-92213222D01*
X149085556Y-92207520D01*
X149048602Y-92187120D01*
X148998631Y-92136687D01*
X148983859Y-92067245D01*
X149008975Y-92000839D01*
X149036327Y-91974232D01*
X149074505Y-91947000D01*
X149215860Y-91846173D01*
X149374096Y-91688489D01*
X149433594Y-91605689D01*
X149501435Y-91511277D01*
X149504453Y-91507077D01*
X149539995Y-91435164D01*
X149601136Y-91311453D01*
X149601137Y-91311451D01*
X149603430Y-91306811D01*
X149663923Y-91107705D01*
X149666865Y-91098023D01*
X149666865Y-91098021D01*
X149668370Y-91093069D01*
X149697529Y-90871590D01*
X149698107Y-90847950D01*
X149699074Y-90808365D01*
X149699074Y-90808361D01*
X149699156Y-90805000D01*
X149680852Y-90582361D01*
X149626431Y-90365702D01*
X149537354Y-90160840D01*
X149436000Y-90004170D01*
X149418822Y-89977617D01*
X149418820Y-89977614D01*
X149416014Y-89973277D01*
X149265670Y-89808051D01*
X149261619Y-89804852D01*
X149261615Y-89804848D01*
X149094414Y-89672800D01*
X149094410Y-89672798D01*
X149090359Y-89669598D01*
X149049053Y-89646796D01*
X148999084Y-89596364D01*
X148984312Y-89526921D01*
X149009428Y-89460516D01*
X149036780Y-89433909D01*
X149080603Y-89402650D01*
X149215860Y-89306173D01*
X149374096Y-89148489D01*
X149433594Y-89065689D01*
X149501435Y-88971277D01*
X149504453Y-88967077D01*
X149525859Y-88923766D01*
X149601136Y-88771453D01*
X149601137Y-88771451D01*
X149603430Y-88766811D01*
X149668370Y-88553069D01*
X149697529Y-88331590D01*
X149698026Y-88311266D01*
X149699074Y-88268365D01*
X149699074Y-88268361D01*
X149699156Y-88265000D01*
X149680852Y-88042361D01*
X149626431Y-87825702D01*
X149537354Y-87620840D01*
X149472839Y-87521115D01*
X149418822Y-87437617D01*
X149418820Y-87437614D01*
X149416014Y-87433277D01*
X149412231Y-87429119D01*
X149268798Y-87271488D01*
X149237746Y-87207642D01*
X149246141Y-87137143D01*
X149291317Y-87082375D01*
X149317761Y-87068706D01*
X149424297Y-87028767D01*
X149432705Y-87025615D01*
X149549261Y-86938261D01*
X149636615Y-86821705D01*
X149687745Y-86685316D01*
X149694500Y-86623134D01*
X149694500Y-84826866D01*
X149687745Y-84764684D01*
X149636615Y-84628295D01*
X149549261Y-84511739D01*
X149432705Y-84424385D01*
X149296316Y-84373255D01*
X149234134Y-84366500D01*
X147437866Y-84366500D01*
X147375684Y-84373255D01*
X147239295Y-84424385D01*
X147122739Y-84511739D01*
X147035385Y-84628295D01*
X146984255Y-84764684D01*
X146977500Y-84826866D01*
X146977500Y-86212629D01*
X146957498Y-86280750D01*
X146940595Y-86301724D01*
X145137724Y-88104595D01*
X145075412Y-88138621D01*
X145048629Y-88141500D01*
X144739413Y-88141500D01*
X144671292Y-88121498D01*
X144624799Y-88067842D01*
X144614695Y-87997568D01*
X144618416Y-87980345D01*
X144628269Y-87946432D01*
X144630570Y-87933833D01*
X144632807Y-87905416D01*
X144633000Y-87900486D01*
X144633000Y-87521115D01*
X144628525Y-87505876D01*
X144627135Y-87504671D01*
X144619452Y-87503000D01*
X143035116Y-87503000D01*
X143019877Y-87507475D01*
X143018672Y-87508865D01*
X143017001Y-87516548D01*
X143017001Y-87900484D01*
X143017195Y-87905420D01*
X143019430Y-87933836D01*
X143021730Y-87946428D01*
X143031584Y-87980345D01*
X143031382Y-88051342D01*
X142992829Y-88110959D01*
X142928164Y-88140268D01*
X142910587Y-88141500D01*
X142839933Y-88141500D01*
X142771812Y-88121498D01*
X142725319Y-88067842D01*
X142715215Y-87997568D01*
X142718934Y-87980355D01*
X142730562Y-87940331D01*
X142731074Y-87933836D01*
X142733307Y-87905458D01*
X142733307Y-87905450D01*
X142733500Y-87903002D01*
X142733500Y-86746000D01*
X142753502Y-86677879D01*
X142807158Y-86631386D01*
X142859500Y-86620000D01*
X142891000Y-86620000D01*
X142959121Y-86640002D01*
X143005614Y-86693658D01*
X143017000Y-86746000D01*
X143017000Y-86976885D01*
X143021475Y-86992124D01*
X143022865Y-86993329D01*
X143030548Y-86995000D01*
X143552885Y-86995000D01*
X143568124Y-86990525D01*
X143569329Y-86989135D01*
X143571000Y-86981452D01*
X143571000Y-86976885D01*
X144079000Y-86976885D01*
X144083475Y-86992124D01*
X144084865Y-86993329D01*
X144092548Y-86995000D01*
X144614884Y-86995000D01*
X144630123Y-86990525D01*
X144631328Y-86989135D01*
X144632999Y-86981452D01*
X144632999Y-86597517D01*
X144632805Y-86592580D01*
X144630570Y-86564164D01*
X144628270Y-86551569D01*
X144585893Y-86405710D01*
X144579648Y-86391279D01*
X144503089Y-86261822D01*
X144493449Y-86249396D01*
X144387104Y-86143051D01*
X144374678Y-86133411D01*
X144245221Y-86056852D01*
X144230790Y-86050607D01*
X144096395Y-86011561D01*
X144082294Y-86011601D01*
X144079000Y-86018870D01*
X144079000Y-86976885D01*
X143571000Y-86976885D01*
X143571000Y-86366342D01*
X143588547Y-86302203D01*
X143630108Y-86231927D01*
X143634145Y-86225101D01*
X143637769Y-86212629D01*
X143654821Y-86153934D01*
X143680562Y-86065331D01*
X143681230Y-86056852D01*
X143683307Y-86030458D01*
X143683307Y-86030450D01*
X143683500Y-86028002D01*
X143683500Y-85513594D01*
X143703502Y-85445473D01*
X143720405Y-85424499D01*
X145033999Y-84110905D01*
X145096311Y-84076879D01*
X145123094Y-84074000D01*
X153544000Y-84074000D01*
X153612121Y-84094002D01*
G37*
G04 #@! TD.AperFunction*
G04 #@! TA.AperFunction,Conductor*
G36*
X115419407Y-80430653D02*
G01*
X115453397Y-80492985D01*
X115456261Y-80520165D01*
X115443000Y-84074000D01*
X116684318Y-84074000D01*
X116752439Y-84094002D01*
X116798932Y-84147658D01*
X116809036Y-84217932D01*
X116779542Y-84282512D01*
X116750621Y-84307144D01*
X116694193Y-84342063D01*
X116682792Y-84351099D01*
X116568261Y-84465829D01*
X116559249Y-84477240D01*
X116474184Y-84615243D01*
X116468037Y-84628424D01*
X116416862Y-84782710D01*
X116413995Y-84796086D01*
X116404328Y-84890438D01*
X116404000Y-84896855D01*
X116404000Y-85071885D01*
X116408475Y-85087124D01*
X116409865Y-85088329D01*
X116417548Y-85090000D01*
X120051884Y-85090000D01*
X120067123Y-85085525D01*
X120068328Y-85084135D01*
X120069999Y-85076452D01*
X120069999Y-84896905D01*
X120069662Y-84890386D01*
X120059743Y-84794794D01*
X120056851Y-84781400D01*
X120005412Y-84627216D01*
X119999239Y-84614038D01*
X119913937Y-84476193D01*
X119904901Y-84464792D01*
X119790171Y-84350261D01*
X119778760Y-84341249D01*
X119723619Y-84307260D01*
X119676126Y-84254488D01*
X119664702Y-84184417D01*
X119692976Y-84119293D01*
X119751970Y-84079793D01*
X119789735Y-84074000D01*
X120437868Y-84074000D01*
X120505989Y-84094002D01*
X120552482Y-84147658D01*
X120562586Y-84217932D01*
X120557702Y-84238931D01*
X120508623Y-84389981D01*
X120507933Y-84396544D01*
X120507933Y-84396545D01*
X120496732Y-84503114D01*
X120488441Y-84582000D01*
X120489131Y-84588565D01*
X120507729Y-84765509D01*
X120508623Y-84774019D01*
X120510662Y-84780295D01*
X120510663Y-84780298D01*
X120530203Y-84840436D01*
X120568287Y-84957645D01*
X120571590Y-84963367D01*
X120571591Y-84963368D01*
X120594705Y-85003402D01*
X120622898Y-85052233D01*
X120636619Y-85075999D01*
X120653500Y-85138999D01*
X120653500Y-86150293D01*
X120660249Y-86208179D01*
X120666503Y-86261822D01*
X120668818Y-86281681D01*
X120671313Y-86288556D01*
X120671314Y-86288558D01*
X120725547Y-86437963D01*
X120729167Y-86447937D01*
X120733178Y-86454054D01*
X120733179Y-86454057D01*
X120782872Y-86529851D01*
X120803500Y-86598936D01*
X120803500Y-86754134D01*
X120810255Y-86816316D01*
X120813029Y-86823715D01*
X120813029Y-86823716D01*
X120813985Y-86826266D01*
X120814141Y-86828392D01*
X120814856Y-86831400D01*
X120814369Y-86831516D01*
X120819171Y-86897073D01*
X120785252Y-86959443D01*
X120722998Y-86993575D01*
X120696005Y-86996500D01*
X119129767Y-86996500D01*
X119118584Y-86995973D01*
X119111091Y-86994298D01*
X119103165Y-86994547D01*
X119103164Y-86994547D01*
X119043001Y-86996438D01*
X119039043Y-86996500D01*
X119011144Y-86996500D01*
X119007154Y-86997004D01*
X118995320Y-86997936D01*
X118951111Y-86999326D01*
X118943497Y-87001538D01*
X118943492Y-87001539D01*
X118931659Y-87004977D01*
X118912296Y-87008988D01*
X118892203Y-87011526D01*
X118884836Y-87014443D01*
X118884831Y-87014444D01*
X118851092Y-87027802D01*
X118839865Y-87031646D01*
X118797407Y-87043982D01*
X118790581Y-87048019D01*
X118779972Y-87054293D01*
X118762224Y-87062988D01*
X118743383Y-87070448D01*
X118736967Y-87075110D01*
X118736966Y-87075110D01*
X118707613Y-87096436D01*
X118697693Y-87102952D01*
X118666465Y-87121420D01*
X118666462Y-87121422D01*
X118659638Y-87125458D01*
X118645317Y-87139779D01*
X118630284Y-87152619D01*
X118613893Y-87164528D01*
X118608842Y-87170633D01*
X118608837Y-87170638D01*
X118585706Y-87198598D01*
X118577720Y-87207375D01*
X118540938Y-87244158D01*
X118536502Y-87248594D01*
X118474190Y-87282620D01*
X118447405Y-87285500D01*
X118026595Y-87285500D01*
X117958474Y-87265498D01*
X117937500Y-87248595D01*
X117433867Y-86744962D01*
X117413843Y-86718867D01*
X117397754Y-86691000D01*
X117381016Y-86622005D01*
X117404236Y-86554913D01*
X117460044Y-86511026D01*
X117506873Y-86502000D01*
X117964885Y-86502000D01*
X117980124Y-86497525D01*
X117981329Y-86496135D01*
X117983000Y-86488452D01*
X117983000Y-86483884D01*
X118491000Y-86483884D01*
X118495475Y-86499123D01*
X118496865Y-86500328D01*
X118504548Y-86501999D01*
X119359095Y-86501999D01*
X119365614Y-86501662D01*
X119461206Y-86491743D01*
X119474600Y-86488851D01*
X119628784Y-86437412D01*
X119641962Y-86431239D01*
X119779807Y-86345937D01*
X119791208Y-86336901D01*
X119905739Y-86222171D01*
X119914751Y-86210760D01*
X119999816Y-86072757D01*
X120005963Y-86059576D01*
X120057138Y-85905290D01*
X120060005Y-85891914D01*
X120069672Y-85797562D01*
X120070000Y-85791146D01*
X120070000Y-85616115D01*
X120065525Y-85600876D01*
X120064135Y-85599671D01*
X120056452Y-85598000D01*
X118509115Y-85598000D01*
X118493876Y-85602475D01*
X118492671Y-85603865D01*
X118491000Y-85611548D01*
X118491000Y-86483884D01*
X117983000Y-86483884D01*
X117983000Y-85616115D01*
X117978525Y-85600876D01*
X117977135Y-85599671D01*
X117969452Y-85598000D01*
X116422116Y-85598000D01*
X116406877Y-85602475D01*
X116405672Y-85603865D01*
X116404001Y-85611548D01*
X116404001Y-85791095D01*
X116404338Y-85797614D01*
X116414257Y-85893206D01*
X116417149Y-85906600D01*
X116469793Y-86064395D01*
X116472377Y-86135345D01*
X116436193Y-86196429D01*
X116376466Y-86227518D01*
X116358908Y-86231250D01*
X116300605Y-86243643D01*
X116294575Y-86246328D01*
X116294574Y-86246328D01*
X116130251Y-86319489D01*
X116130249Y-86319490D01*
X116124221Y-86322174D01*
X116118880Y-86326054D01*
X116118879Y-86326055D01*
X115974106Y-86431239D01*
X115968018Y-86435662D01*
X115963597Y-86440572D01*
X115963596Y-86440573D01*
X115896334Y-86515276D01*
X115838825Y-86579146D01*
X115742287Y-86746355D01*
X115738656Y-86757531D01*
X115684943Y-86922842D01*
X115682623Y-86929981D01*
X115681933Y-86936544D01*
X115681933Y-86936545D01*
X115663131Y-87115435D01*
X115662441Y-87122000D01*
X115663131Y-87128565D01*
X115679626Y-87285500D01*
X115682623Y-87314019D01*
X115684663Y-87320296D01*
X115684663Y-87320298D01*
X115697146Y-87358716D01*
X115742287Y-87497645D01*
X115838825Y-87664854D01*
X115843243Y-87669761D01*
X115843244Y-87669762D01*
X115955001Y-87793881D01*
X115968018Y-87808338D01*
X116057020Y-87873002D01*
X116108399Y-87910331D01*
X116124220Y-87921826D01*
X116130249Y-87924510D01*
X116130252Y-87924512D01*
X116294569Y-87997670D01*
X116294572Y-87997671D01*
X116300605Y-88000357D01*
X116307064Y-88001730D01*
X116313346Y-88003771D01*
X116312667Y-88005860D01*
X116366164Y-88034736D01*
X116400490Y-88096883D01*
X116403500Y-88124261D01*
X116403500Y-88894400D01*
X116403837Y-88897646D01*
X116403837Y-88897650D01*
X116411477Y-88971277D01*
X116414474Y-89000166D01*
X116470450Y-89167946D01*
X116563522Y-89318348D01*
X116568704Y-89323521D01*
X116590109Y-89344889D01*
X116624188Y-89407172D01*
X116619185Y-89477992D01*
X116590264Y-89523079D01*
X116562695Y-89550697D01*
X116558855Y-89556927D01*
X116558854Y-89556928D01*
X116483915Y-89678502D01*
X116469885Y-89701262D01*
X116467581Y-89708209D01*
X116420718Y-89849498D01*
X116414203Y-89869139D01*
X116403500Y-89973600D01*
X116403500Y-90874400D01*
X116403837Y-90877646D01*
X116403837Y-90877650D01*
X116410327Y-90940195D01*
X116414474Y-90980166D01*
X116416655Y-90986702D01*
X116416655Y-90986704D01*
X116457083Y-91107880D01*
X116470450Y-91147946D01*
X116563522Y-91298348D01*
X116688697Y-91423305D01*
X116694927Y-91427145D01*
X116694928Y-91427146D01*
X116824600Y-91507077D01*
X116839262Y-91516115D01*
X116919005Y-91542564D01*
X117000611Y-91569632D01*
X117000613Y-91569632D01*
X117007139Y-91571797D01*
X117013975Y-91572497D01*
X117013978Y-91572498D01*
X117057031Y-91576909D01*
X117111600Y-91582500D01*
X118799405Y-91582500D01*
X118867526Y-91602502D01*
X118914019Y-91656158D01*
X118924123Y-91726432D01*
X118894629Y-91791012D01*
X118888503Y-91797592D01*
X118357499Y-92328596D01*
X118295187Y-92362621D01*
X118268404Y-92365500D01*
X117111600Y-92365500D01*
X117108354Y-92365837D01*
X117108350Y-92365837D01*
X117012692Y-92375762D01*
X117012688Y-92375763D01*
X117005834Y-92376474D01*
X116999298Y-92378655D01*
X116999296Y-92378655D01*
X116867194Y-92422728D01*
X116838054Y-92432450D01*
X116687652Y-92525522D01*
X116562695Y-92650697D01*
X116558855Y-92656927D01*
X116558854Y-92656928D01*
X116478530Y-92787238D01*
X116469885Y-92801262D01*
X116467581Y-92808209D01*
X116423004Y-92942606D01*
X116414203Y-92969139D01*
X116403500Y-93073600D01*
X116403500Y-93974400D01*
X116403837Y-93977646D01*
X116403837Y-93977650D01*
X116412351Y-94059702D01*
X116414474Y-94080166D01*
X116416655Y-94086702D01*
X116416655Y-94086704D01*
X116441580Y-94161412D01*
X116470450Y-94247946D01*
X116563522Y-94398348D01*
X116688697Y-94523305D01*
X116694927Y-94527145D01*
X116694928Y-94527146D01*
X116832090Y-94611694D01*
X116839262Y-94616115D01*
X116864479Y-94624479D01*
X117000611Y-94669632D01*
X117000613Y-94669632D01*
X117007139Y-94671797D01*
X117013975Y-94672497D01*
X117013978Y-94672498D01*
X117057031Y-94676909D01*
X117111600Y-94682500D01*
X119362400Y-94682500D01*
X119365646Y-94682163D01*
X119365650Y-94682163D01*
X119461308Y-94672238D01*
X119461312Y-94672237D01*
X119468166Y-94671526D01*
X119474702Y-94669345D01*
X119474704Y-94669345D01*
X119609183Y-94624479D01*
X119635946Y-94615550D01*
X119786348Y-94522478D01*
X119911305Y-94397303D01*
X119915337Y-94390762D01*
X120000275Y-94252968D01*
X120000276Y-94252966D01*
X120004115Y-94246738D01*
X120032416Y-94161412D01*
X120057632Y-94085389D01*
X120057632Y-94085387D01*
X120059797Y-94078861D01*
X120070500Y-93974400D01*
X120070500Y-93344186D01*
X120090502Y-93276065D01*
X120144158Y-93229572D01*
X120214432Y-93219468D01*
X120236160Y-93224591D01*
X120309139Y-93248797D01*
X120315975Y-93249497D01*
X120315978Y-93249498D01*
X120359031Y-93253909D01*
X120413600Y-93259500D01*
X122664400Y-93259500D01*
X122667646Y-93259163D01*
X122667650Y-93259163D01*
X122763307Y-93249238D01*
X122763311Y-93249237D01*
X122770165Y-93248526D01*
X122776701Y-93246345D01*
X122776703Y-93246345D01*
X122930997Y-93194868D01*
X122937945Y-93192550D01*
X123088348Y-93099478D01*
X123213305Y-92974303D01*
X123220512Y-92962611D01*
X123302275Y-92829968D01*
X123302276Y-92829966D01*
X123306115Y-92823738D01*
X123332564Y-92743995D01*
X123359632Y-92662389D01*
X123359632Y-92662387D01*
X123361797Y-92655861D01*
X123372500Y-92551400D01*
X123372500Y-91525600D01*
X123371516Y-91516115D01*
X123362238Y-91426693D01*
X123362237Y-91426689D01*
X123361526Y-91419835D01*
X123322721Y-91303521D01*
X123307868Y-91259003D01*
X123305550Y-91252055D01*
X123212478Y-91101652D01*
X123087303Y-90976695D01*
X123030367Y-90941599D01*
X122942968Y-90887725D01*
X122942966Y-90887724D01*
X122936738Y-90883885D01*
X122828397Y-90847950D01*
X122775389Y-90830368D01*
X122775387Y-90830368D01*
X122768861Y-90828203D01*
X122762025Y-90827503D01*
X122762022Y-90827502D01*
X122715425Y-90822728D01*
X122664400Y-90817500D01*
X120413600Y-90817500D01*
X120410354Y-90817837D01*
X120410350Y-90817837D01*
X120314693Y-90827762D01*
X120314689Y-90827763D01*
X120307835Y-90828474D01*
X120301293Y-90830657D01*
X120301291Y-90830657D01*
X120236377Y-90852314D01*
X120165427Y-90854900D01*
X120104343Y-90818716D01*
X120072518Y-90755252D01*
X120070500Y-90732791D01*
X120070500Y-90368659D01*
X120090502Y-90300538D01*
X120144158Y-90254045D01*
X120214432Y-90243941D01*
X120236167Y-90249066D01*
X120302716Y-90271139D01*
X120316081Y-90274005D01*
X120410439Y-90283672D01*
X120416855Y-90284000D01*
X121266885Y-90284000D01*
X121282124Y-90279525D01*
X121283329Y-90278135D01*
X121285000Y-90270452D01*
X121285000Y-90265885D01*
X121793000Y-90265885D01*
X121797475Y-90281124D01*
X121798865Y-90282329D01*
X121806548Y-90284000D01*
X122661096Y-90284000D01*
X122667611Y-90283663D01*
X122763203Y-90273744D01*
X122776602Y-90270850D01*
X122930783Y-90219412D01*
X122943962Y-90213238D01*
X123081807Y-90127937D01*
X123093208Y-90118901D01*
X123207739Y-90004170D01*
X123216751Y-89992759D01*
X123301818Y-89854755D01*
X123307962Y-89841577D01*
X123359139Y-89687284D01*
X123362005Y-89673919D01*
X123371672Y-89579561D01*
X123372000Y-89573145D01*
X123372000Y-89335615D01*
X123367525Y-89320376D01*
X123366135Y-89319171D01*
X123358452Y-89317500D01*
X121811115Y-89317500D01*
X121795876Y-89321975D01*
X121794671Y-89323365D01*
X121793000Y-89331048D01*
X121793000Y-90265885D01*
X121285000Y-90265885D01*
X121285000Y-88935500D01*
X121305002Y-88867379D01*
X121358658Y-88820886D01*
X121411000Y-88809500D01*
X123353885Y-88809500D01*
X123369124Y-88805025D01*
X123370329Y-88803635D01*
X123372000Y-88795952D01*
X123372000Y-88553904D01*
X123371663Y-88547389D01*
X123361744Y-88451797D01*
X123358849Y-88438393D01*
X123355841Y-88429377D01*
X123353255Y-88358427D01*
X123389439Y-88297343D01*
X123452903Y-88265518D01*
X123475364Y-88263500D01*
X127151550Y-88263500D01*
X127219671Y-88283502D01*
X127240645Y-88300405D01*
X127271193Y-88330953D01*
X127278017Y-88334989D01*
X127278020Y-88334991D01*
X127357994Y-88382287D01*
X127414399Y-88415645D01*
X127422010Y-88417856D01*
X127422012Y-88417857D01*
X127445856Y-88424784D01*
X127574169Y-88462062D01*
X127580574Y-88462566D01*
X127580579Y-88462567D01*
X127609042Y-88464807D01*
X127609050Y-88464807D01*
X127611498Y-88465000D01*
X128044502Y-88465000D01*
X128046950Y-88464807D01*
X128046958Y-88464807D01*
X128075421Y-88462567D01*
X128075426Y-88462566D01*
X128081831Y-88462062D01*
X128210144Y-88424784D01*
X128233988Y-88417857D01*
X128233990Y-88417856D01*
X128241601Y-88415645D01*
X128298006Y-88382287D01*
X128377980Y-88334991D01*
X128377983Y-88334989D01*
X128384807Y-88330953D01*
X128502453Y-88213307D01*
X128506489Y-88206483D01*
X128506491Y-88206480D01*
X128583108Y-88076927D01*
X128587145Y-88070101D01*
X128589415Y-88062290D01*
X128614052Y-87977486D01*
X128633562Y-87910331D01*
X128634074Y-87903836D01*
X128636307Y-87875458D01*
X128636307Y-87875450D01*
X128636500Y-87873002D01*
X128636500Y-87870484D01*
X128920001Y-87870484D01*
X128920195Y-87875420D01*
X128922430Y-87903836D01*
X128924730Y-87916431D01*
X128967107Y-88062290D01*
X128973352Y-88076721D01*
X129049911Y-88206178D01*
X129059551Y-88218604D01*
X129165896Y-88324949D01*
X129178322Y-88334589D01*
X129307779Y-88411148D01*
X129322210Y-88417393D01*
X129456605Y-88456439D01*
X129470706Y-88456399D01*
X129474000Y-88449130D01*
X129474000Y-87491115D01*
X129469525Y-87475876D01*
X129468135Y-87474671D01*
X129460452Y-87473000D01*
X128938116Y-87473000D01*
X128922877Y-87477475D01*
X128921672Y-87478865D01*
X128920001Y-87486548D01*
X128920001Y-87870484D01*
X128636500Y-87870484D01*
X128636500Y-86716000D01*
X128656502Y-86647879D01*
X128710158Y-86601386D01*
X128762500Y-86590000D01*
X128794000Y-86590000D01*
X128862121Y-86610002D01*
X128908614Y-86663658D01*
X128920000Y-86716000D01*
X128920000Y-86946885D01*
X128924475Y-86962124D01*
X128925865Y-86963329D01*
X128933548Y-86965000D01*
X129455885Y-86965000D01*
X129471124Y-86960525D01*
X129472329Y-86959135D01*
X129474000Y-86951452D01*
X129474000Y-86336342D01*
X129491547Y-86272203D01*
X129533108Y-86201927D01*
X129537145Y-86195101D01*
X129542511Y-86176633D01*
X129572982Y-86071748D01*
X129583562Y-86035331D01*
X129584230Y-86026852D01*
X129586307Y-86000458D01*
X129586307Y-86000450D01*
X129586500Y-85998002D01*
X129586500Y-85483595D01*
X129606502Y-85415474D01*
X129623405Y-85394499D01*
X130293451Y-84724454D01*
X130355763Y-84690429D01*
X130426579Y-84695494D01*
X130483414Y-84738041D01*
X130508225Y-84804561D01*
X130507890Y-84826393D01*
X130501328Y-84890440D01*
X130501000Y-84896855D01*
X130501000Y-85071885D01*
X130505475Y-85087124D01*
X130506865Y-85088329D01*
X130514548Y-85090000D01*
X134148884Y-85090000D01*
X134164123Y-85085525D01*
X134165328Y-85084135D01*
X134166999Y-85076452D01*
X134166999Y-84896905D01*
X134166662Y-84890386D01*
X134156743Y-84794794D01*
X134153850Y-84781397D01*
X134107399Y-84642162D01*
X134105516Y-84590468D01*
X134054742Y-84546981D01*
X134010934Y-84476190D01*
X134001901Y-84464792D01*
X133887171Y-84350261D01*
X133875760Y-84341249D01*
X133820619Y-84307260D01*
X133773126Y-84254488D01*
X133761702Y-84184417D01*
X133789976Y-84119293D01*
X133848970Y-84079793D01*
X133886735Y-84074000D01*
X134090990Y-84074000D01*
X134159111Y-84094002D01*
X134205604Y-84147658D01*
X134216300Y-84186829D01*
X134224623Y-84266019D01*
X134226663Y-84272296D01*
X134226663Y-84272298D01*
X134233884Y-84294522D01*
X134281285Y-84440404D01*
X134281719Y-84441741D01*
X134283166Y-84492367D01*
X134330371Y-84530353D01*
X134336039Y-84539283D01*
X134380825Y-84616854D01*
X134385243Y-84621761D01*
X134385244Y-84621762D01*
X134501281Y-84750635D01*
X134510018Y-84760338D01*
X134574234Y-84806994D01*
X134652897Y-84864146D01*
X134666220Y-84873826D01*
X134672250Y-84876511D01*
X134672254Y-84876513D01*
X134675753Y-84878071D01*
X134677448Y-84879512D01*
X134677973Y-84879815D01*
X134677918Y-84879911D01*
X134729847Y-84924053D01*
X134750500Y-84993176D01*
X134750500Y-86150293D01*
X134757249Y-86208179D01*
X134763503Y-86261822D01*
X134765818Y-86281681D01*
X134768313Y-86288556D01*
X134768314Y-86288558D01*
X134822547Y-86437963D01*
X134826167Y-86447937D01*
X134830178Y-86454054D01*
X134830179Y-86454057D01*
X134879872Y-86529851D01*
X134900500Y-86598936D01*
X134900500Y-86754134D01*
X134907255Y-86816316D01*
X134958385Y-86952705D01*
X135045739Y-87069261D01*
X135162295Y-87156615D01*
X135298684Y-87207745D01*
X135360866Y-87214500D01*
X136357134Y-87214500D01*
X136419316Y-87207745D01*
X136555705Y-87156615D01*
X136672261Y-87069261D01*
X136759615Y-86952705D01*
X136810745Y-86816316D01*
X136817500Y-86754134D01*
X136817500Y-85457866D01*
X136810745Y-85395684D01*
X136759615Y-85259295D01*
X136672261Y-85142739D01*
X136555705Y-85055385D01*
X136419316Y-85004255D01*
X136392086Y-85001297D01*
X136379892Y-84999972D01*
X136314330Y-84972730D01*
X136273904Y-84914366D01*
X136267500Y-84874709D01*
X136267500Y-84522063D01*
X136268933Y-84503114D01*
X136268964Y-84502907D01*
X136272198Y-84481651D01*
X136267915Y-84428990D01*
X136267500Y-84418777D01*
X136267500Y-84410707D01*
X136267079Y-84407093D01*
X136267078Y-84407081D01*
X136264205Y-84382437D01*
X136263773Y-84378063D01*
X136263734Y-84377576D01*
X136257860Y-84305363D01*
X136255604Y-84298399D01*
X136254413Y-84292440D01*
X136253029Y-84286584D01*
X136252182Y-84279319D01*
X136249688Y-84272448D01*
X136249686Y-84272440D01*
X136238996Y-84242990D01*
X136234555Y-84172132D01*
X136269128Y-84110123D01*
X136331738Y-84076648D01*
X136357435Y-84074000D01*
X142202050Y-84074000D01*
X142270171Y-84094002D01*
X142316664Y-84147658D01*
X142326768Y-84217932D01*
X142297274Y-84282512D01*
X142291145Y-84289095D01*
X142200547Y-84379693D01*
X142196511Y-84386517D01*
X142196509Y-84386520D01*
X142163852Y-84441741D01*
X142115855Y-84522899D01*
X142113644Y-84530509D01*
X142113642Y-84530514D01*
X142079030Y-84649652D01*
X142040817Y-84709488D01*
X141976321Y-84739166D01*
X141958033Y-84740500D01*
X140256767Y-84740500D01*
X140245584Y-84739973D01*
X140238091Y-84738298D01*
X140230165Y-84738547D01*
X140230164Y-84738547D01*
X140170001Y-84740438D01*
X140166043Y-84740500D01*
X140138144Y-84740500D01*
X140134154Y-84741004D01*
X140122320Y-84741936D01*
X140078111Y-84743326D01*
X140070497Y-84745538D01*
X140070492Y-84745539D01*
X140058659Y-84748977D01*
X140039296Y-84752988D01*
X140019203Y-84755526D01*
X140011836Y-84758443D01*
X140011831Y-84758444D01*
X139978092Y-84771802D01*
X139966865Y-84775646D01*
X139924407Y-84787982D01*
X139917581Y-84792019D01*
X139906972Y-84798293D01*
X139889224Y-84806988D01*
X139870383Y-84814448D01*
X139863967Y-84819110D01*
X139863966Y-84819110D01*
X139834613Y-84840436D01*
X139824693Y-84846952D01*
X139793465Y-84865420D01*
X139793462Y-84865422D01*
X139786638Y-84869458D01*
X139772317Y-84883779D01*
X139757284Y-84896619D01*
X139740893Y-84908528D01*
X139735840Y-84914636D01*
X139712708Y-84942598D01*
X139704718Y-84951378D01*
X139695501Y-84960595D01*
X139633189Y-84994621D01*
X139606406Y-84997500D01*
X138660866Y-84997500D01*
X138598684Y-85004255D01*
X138462295Y-85055385D01*
X138345739Y-85142739D01*
X138258385Y-85259295D01*
X138207255Y-85395684D01*
X138200500Y-85457866D01*
X138200500Y-86754134D01*
X138207255Y-86816316D01*
X138258385Y-86952705D01*
X138345739Y-87069261D01*
X138462295Y-87156615D01*
X138598684Y-87207745D01*
X138660866Y-87214500D01*
X139657134Y-87214500D01*
X139719316Y-87207745D01*
X139855705Y-87156615D01*
X139972261Y-87069261D01*
X140059615Y-86952705D01*
X140110745Y-86816316D01*
X140117500Y-86754134D01*
X140117500Y-86382595D01*
X140137502Y-86314474D01*
X140154405Y-86293499D01*
X140347197Y-86100708D01*
X140409509Y-86066683D01*
X140480325Y-86071748D01*
X140537160Y-86114295D01*
X140561602Y-86176633D01*
X140569476Y-86251544D01*
X140574623Y-86300519D01*
X140576663Y-86306796D01*
X140576663Y-86306798D01*
X140586901Y-86338307D01*
X140634287Y-86484145D01*
X140637590Y-86489867D01*
X140637591Y-86489868D01*
X140722003Y-86636073D01*
X140730825Y-86651354D01*
X140735245Y-86656263D01*
X140812137Y-86741661D01*
X140842854Y-86805669D01*
X140844500Y-86825971D01*
X140844500Y-86841856D01*
X140844997Y-86845790D01*
X140844997Y-86845791D01*
X140845005Y-86845856D01*
X140845938Y-86857693D01*
X140847327Y-86901889D01*
X140852978Y-86921339D01*
X140856987Y-86940700D01*
X140859526Y-86960797D01*
X140862445Y-86968168D01*
X140862445Y-86968170D01*
X140875804Y-87001912D01*
X140879649Y-87013142D01*
X140887966Y-87041770D01*
X140891982Y-87055593D01*
X140896015Y-87062412D01*
X140896017Y-87062417D01*
X140902293Y-87073028D01*
X140910988Y-87090776D01*
X140918448Y-87109617D01*
X140923110Y-87116033D01*
X140923110Y-87116034D01*
X140944436Y-87145387D01*
X140950952Y-87155307D01*
X140969307Y-87186343D01*
X140973458Y-87193362D01*
X140987779Y-87207683D01*
X141000619Y-87222716D01*
X141012528Y-87239107D01*
X141038180Y-87260328D01*
X141046605Y-87267298D01*
X141055384Y-87275288D01*
X141079595Y-87299499D01*
X141113621Y-87361811D01*
X141116500Y-87388594D01*
X141116500Y-87903002D01*
X141116693Y-87905450D01*
X141116693Y-87905458D01*
X141118927Y-87933836D01*
X141119438Y-87940331D01*
X141136877Y-88000357D01*
X141161553Y-88085292D01*
X141165855Y-88100101D01*
X141178509Y-88121498D01*
X141246509Y-88236480D01*
X141246511Y-88236483D01*
X141250547Y-88243307D01*
X141321185Y-88313945D01*
X141355211Y-88376257D01*
X141350146Y-88447072D01*
X141321189Y-88492130D01*
X140883722Y-88929597D01*
X140821412Y-88963621D01*
X140794629Y-88966500D01*
X140317498Y-88966500D01*
X140249377Y-88946498D01*
X140202884Y-88892842D01*
X140199516Y-88884730D01*
X140162767Y-88786703D01*
X140159615Y-88778295D01*
X140072261Y-88661739D01*
X139955705Y-88574385D01*
X139819316Y-88523255D01*
X139757134Y-88516500D01*
X137660866Y-88516500D01*
X137598684Y-88523255D01*
X137598347Y-88520156D01*
X137541912Y-88517212D01*
X137484266Y-88475769D01*
X137462448Y-88421545D01*
X137460198Y-88422031D01*
X137455850Y-88401898D01*
X137404412Y-88247717D01*
X137398238Y-88234538D01*
X137312937Y-88096693D01*
X137303901Y-88085292D01*
X137189170Y-87970761D01*
X137177759Y-87961749D01*
X137039755Y-87876682D01*
X137026577Y-87870538D01*
X136872284Y-87819361D01*
X136858919Y-87816495D01*
X136764561Y-87806828D01*
X136758144Y-87806500D01*
X135908115Y-87806500D01*
X135892876Y-87810975D01*
X135891671Y-87812365D01*
X135890000Y-87820048D01*
X135890000Y-90229385D01*
X135894475Y-90244624D01*
X135895865Y-90245829D01*
X135903548Y-90247500D01*
X136758096Y-90247500D01*
X136764611Y-90247163D01*
X136860203Y-90237244D01*
X136873602Y-90234350D01*
X137034624Y-90180630D01*
X137105574Y-90178046D01*
X137166658Y-90214230D01*
X137198482Y-90277694D01*
X137200500Y-90300154D01*
X137200500Y-90573134D01*
X137207255Y-90635316D01*
X137210027Y-90642712D01*
X137210029Y-90642718D01*
X137233610Y-90705619D01*
X137238793Y-90776426D01*
X137204872Y-90838795D01*
X137142617Y-90872924D01*
X137071793Y-90867977D01*
X137049513Y-90857109D01*
X137045930Y-90854900D01*
X137033738Y-90847385D01*
X136916096Y-90808365D01*
X136872389Y-90793868D01*
X136872387Y-90793868D01*
X136865861Y-90791703D01*
X136859025Y-90791003D01*
X136859022Y-90791002D01*
X136815969Y-90786591D01*
X136761400Y-90781000D01*
X134510600Y-90781000D01*
X134507354Y-90781337D01*
X134507350Y-90781337D01*
X134411693Y-90791262D01*
X134411689Y-90791263D01*
X134404835Y-90791974D01*
X134398293Y-90794157D01*
X134398291Y-90794157D01*
X134333377Y-90815814D01*
X134262427Y-90818400D01*
X134201343Y-90782216D01*
X134169518Y-90718752D01*
X134167500Y-90696291D01*
X134167500Y-90332159D01*
X134187502Y-90264038D01*
X134241158Y-90217545D01*
X134311432Y-90207441D01*
X134333167Y-90212566D01*
X134399716Y-90234639D01*
X134413081Y-90237505D01*
X134507439Y-90247172D01*
X134513855Y-90247500D01*
X135363885Y-90247500D01*
X135379124Y-90243025D01*
X135380329Y-90241635D01*
X135382000Y-90233952D01*
X135382000Y-87824615D01*
X135377525Y-87809376D01*
X135376135Y-87808171D01*
X135368452Y-87806500D01*
X134513904Y-87806500D01*
X134507389Y-87806837D01*
X134411797Y-87816756D01*
X134398398Y-87819650D01*
X134279805Y-87859215D01*
X134208855Y-87861799D01*
X134147771Y-87825615D01*
X134120405Y-87779567D01*
X134102868Y-87727002D01*
X134100550Y-87720054D01*
X134007478Y-87569652D01*
X133882303Y-87444695D01*
X133870821Y-87437617D01*
X133815557Y-87403552D01*
X133768064Y-87350780D01*
X133756640Y-87280708D01*
X133788035Y-87211984D01*
X133846678Y-87146854D01*
X133926275Y-87008988D01*
X133939912Y-86985368D01*
X133939913Y-86985367D01*
X133943216Y-86979645D01*
X133995054Y-86820106D01*
X134000840Y-86802298D01*
X134000840Y-86802296D01*
X134002880Y-86796019D01*
X134007642Y-86750717D01*
X134022372Y-86610565D01*
X134023062Y-86604000D01*
X134019556Y-86570645D01*
X134003570Y-86418545D01*
X134003570Y-86418544D01*
X134002880Y-86411981D01*
X134000837Y-86405694D01*
X133979977Y-86341492D01*
X133977950Y-86270524D01*
X134000928Y-86224464D01*
X134011751Y-86210760D01*
X134096816Y-86072757D01*
X134102963Y-86059576D01*
X134154138Y-85905290D01*
X134157005Y-85891914D01*
X134166672Y-85797562D01*
X134167000Y-85791146D01*
X134167000Y-85616115D01*
X134162525Y-85600876D01*
X134161135Y-85599671D01*
X134153452Y-85598000D01*
X130519116Y-85598000D01*
X130503877Y-85602475D01*
X130502672Y-85603865D01*
X130501001Y-85611548D01*
X130501001Y-85791095D01*
X130501338Y-85797614D01*
X130511257Y-85893206D01*
X130514149Y-85906600D01*
X130560662Y-86046019D01*
X130563246Y-86116969D01*
X130527062Y-86178053D01*
X130463598Y-86209877D01*
X130393003Y-86202338D01*
X130352043Y-86174990D01*
X130290104Y-86113051D01*
X130277678Y-86103411D01*
X130148221Y-86026852D01*
X130133790Y-86020607D01*
X129999395Y-85981561D01*
X129985294Y-85981601D01*
X129982000Y-85988870D01*
X129982000Y-86946885D01*
X129986475Y-86962124D01*
X129987865Y-86963329D01*
X129995548Y-86965000D01*
X130517884Y-86965000D01*
X130533123Y-86960525D01*
X130534328Y-86959135D01*
X130535999Y-86951452D01*
X130535999Y-86567517D01*
X130535805Y-86562580D01*
X130533570Y-86534164D01*
X130531270Y-86521569D01*
X130490766Y-86382157D01*
X130490969Y-86311160D01*
X130529522Y-86251544D01*
X130594187Y-86222235D01*
X130664432Y-86232539D01*
X130700781Y-86257830D01*
X130780829Y-86337739D01*
X130792240Y-86346751D01*
X130930243Y-86431816D01*
X130943424Y-86437963D01*
X131097710Y-86489138D01*
X131111086Y-86492005D01*
X131205438Y-86501672D01*
X131211854Y-86502000D01*
X132001408Y-86502000D01*
X132069529Y-86522002D01*
X132116022Y-86575658D01*
X132126126Y-86645932D01*
X132096632Y-86710512D01*
X132090503Y-86717095D01*
X131941747Y-86865851D01*
X131933461Y-86873391D01*
X131926982Y-86877503D01*
X131921557Y-86883280D01*
X131880357Y-86927154D01*
X131877617Y-86929981D01*
X131857865Y-86949733D01*
X131855385Y-86952930D01*
X131847682Y-86961950D01*
X131817414Y-86994182D01*
X131813595Y-87001128D01*
X131813593Y-87001131D01*
X131807652Y-87011937D01*
X131796801Y-87028456D01*
X131784386Y-87044462D01*
X131781241Y-87051731D01*
X131781238Y-87051735D01*
X131766826Y-87085040D01*
X131761609Y-87095690D01*
X131740305Y-87134443D01*
X131738334Y-87142118D01*
X131738334Y-87142119D01*
X131735267Y-87154065D01*
X131728863Y-87172769D01*
X131720819Y-87191358D01*
X131720099Y-87195903D01*
X131682680Y-87254491D01*
X131618183Y-87284166D01*
X131599899Y-87285500D01*
X131208600Y-87285500D01*
X131205354Y-87285837D01*
X131205350Y-87285837D01*
X131109692Y-87295762D01*
X131109688Y-87295763D01*
X131102834Y-87296474D01*
X131096298Y-87298655D01*
X131096296Y-87298655D01*
X130979301Y-87337688D01*
X130935054Y-87352450D01*
X130784652Y-87445522D01*
X130732350Y-87497915D01*
X130670069Y-87531994D01*
X130599249Y-87526991D01*
X130560971Y-87498390D01*
X130559486Y-87500104D01*
X130530135Y-87474671D01*
X130522452Y-87473000D01*
X130000115Y-87473000D01*
X129984876Y-87477475D01*
X129983671Y-87478865D01*
X129982000Y-87486548D01*
X129982000Y-88443378D01*
X129985973Y-88456909D01*
X129993871Y-88458044D01*
X130133790Y-88417393D01*
X130148221Y-88411148D01*
X130277678Y-88334589D01*
X130296364Y-88320093D01*
X130298310Y-88322601D01*
X130347717Y-88295622D01*
X130418532Y-88300687D01*
X130475368Y-88343234D01*
X130500179Y-88409754D01*
X130500500Y-88418743D01*
X130500500Y-88894400D01*
X130500837Y-88897646D01*
X130500837Y-88897650D01*
X130508477Y-88971277D01*
X130511474Y-89000166D01*
X130567450Y-89167946D01*
X130660522Y-89318348D01*
X130665704Y-89323521D01*
X130687109Y-89344889D01*
X130721188Y-89407172D01*
X130716185Y-89477992D01*
X130687264Y-89523079D01*
X130659695Y-89550697D01*
X130655855Y-89556927D01*
X130655854Y-89556928D01*
X130580915Y-89678502D01*
X130566885Y-89701262D01*
X130564581Y-89708209D01*
X130517718Y-89849498D01*
X130511203Y-89869139D01*
X130500500Y-89973600D01*
X130500500Y-90874400D01*
X130500837Y-90877646D01*
X130500837Y-90877650D01*
X130507327Y-90940195D01*
X130511474Y-90980166D01*
X130513655Y-90986702D01*
X130513655Y-90986704D01*
X130554083Y-91107880D01*
X130567450Y-91147946D01*
X130660522Y-91298348D01*
X130785697Y-91423305D01*
X130791927Y-91427145D01*
X130791928Y-91427146D01*
X130921600Y-91507077D01*
X130936262Y-91516115D01*
X131016005Y-91542564D01*
X131097611Y-91569632D01*
X131097613Y-91569632D01*
X131104139Y-91571797D01*
X131110975Y-91572497D01*
X131110978Y-91572498D01*
X131154031Y-91576909D01*
X131208600Y-91582500D01*
X133075405Y-91582500D01*
X133143526Y-91602502D01*
X133190019Y-91656158D01*
X133200123Y-91726432D01*
X133170629Y-91791012D01*
X133164504Y-91797592D01*
X132894850Y-92067245D01*
X132633499Y-92328596D01*
X132571187Y-92362621D01*
X132544404Y-92365500D01*
X131208600Y-92365500D01*
X131205354Y-92365837D01*
X131205350Y-92365837D01*
X131109692Y-92375762D01*
X131109688Y-92375763D01*
X131102834Y-92376474D01*
X131096298Y-92378655D01*
X131096296Y-92378655D01*
X130964194Y-92422728D01*
X130935054Y-92432450D01*
X130784652Y-92525522D01*
X130659695Y-92650697D01*
X130655855Y-92656927D01*
X130655854Y-92656928D01*
X130575530Y-92787238D01*
X130566885Y-92801262D01*
X130564581Y-92808209D01*
X130520004Y-92942606D01*
X130511203Y-92969139D01*
X130500500Y-93073600D01*
X130500500Y-93974400D01*
X130500837Y-93977646D01*
X130500837Y-93977650D01*
X130509351Y-94059702D01*
X130511474Y-94080166D01*
X130513655Y-94086702D01*
X130513655Y-94086704D01*
X130538580Y-94161412D01*
X130567450Y-94247946D01*
X130660522Y-94398348D01*
X130785697Y-94523305D01*
X130791927Y-94527145D01*
X130791928Y-94527146D01*
X130929090Y-94611694D01*
X130936262Y-94616115D01*
X130961479Y-94624479D01*
X131097611Y-94669632D01*
X131097613Y-94669632D01*
X131104139Y-94671797D01*
X131110975Y-94672497D01*
X131110978Y-94672498D01*
X131154031Y-94676909D01*
X131208600Y-94682500D01*
X133459400Y-94682500D01*
X133462646Y-94682163D01*
X133462650Y-94682163D01*
X133558308Y-94672238D01*
X133558312Y-94672237D01*
X133565166Y-94671526D01*
X133571702Y-94669345D01*
X133571704Y-94669345D01*
X133706183Y-94624479D01*
X133732946Y-94615550D01*
X133883348Y-94522478D01*
X134008305Y-94397303D01*
X134012337Y-94390762D01*
X134097275Y-94252968D01*
X134097276Y-94252966D01*
X134101115Y-94246738D01*
X134129416Y-94161412D01*
X134154632Y-94085389D01*
X134154632Y-94085387D01*
X134156797Y-94078861D01*
X134167500Y-93974400D01*
X134167500Y-93307686D01*
X134187502Y-93239565D01*
X134241158Y-93193072D01*
X134311432Y-93182968D01*
X134333160Y-93188091D01*
X134406139Y-93212297D01*
X134412975Y-93212997D01*
X134412978Y-93212998D01*
X134456031Y-93217409D01*
X134510600Y-93223000D01*
X136761400Y-93223000D01*
X136764646Y-93222663D01*
X136764650Y-93222663D01*
X136860307Y-93212738D01*
X136860311Y-93212737D01*
X136867165Y-93212026D01*
X136873701Y-93209845D01*
X136873703Y-93209845D01*
X137027997Y-93158368D01*
X137034945Y-93156050D01*
X137133196Y-93095251D01*
X137201647Y-93076413D01*
X137269417Y-93097574D01*
X137300324Y-93126830D01*
X137316953Y-93149018D01*
X137341801Y-93215524D01*
X137326748Y-93284907D01*
X137316953Y-93300148D01*
X137258385Y-93378295D01*
X137207255Y-93514684D01*
X137200500Y-93576866D01*
X137200500Y-95173134D01*
X137207255Y-95235316D01*
X137258385Y-95371705D01*
X137345739Y-95488261D01*
X137462295Y-95575615D01*
X137598684Y-95626745D01*
X137660866Y-95633500D01*
X139225500Y-95633500D01*
X139293621Y-95653502D01*
X139340114Y-95707158D01*
X139351500Y-95759500D01*
X139351500Y-95793154D01*
X139350067Y-95812104D01*
X139346801Y-95833573D01*
X139347394Y-95840865D01*
X139347394Y-95840868D01*
X139351085Y-95886242D01*
X139351500Y-95896457D01*
X139351500Y-95904517D01*
X139351925Y-95908161D01*
X139354789Y-95932731D01*
X139355222Y-95937105D01*
X139358409Y-95976284D01*
X139343996Y-96045803D01*
X139294286Y-96096493D01*
X139232824Y-96112500D01*
X119604070Y-96112500D01*
X119585120Y-96111067D01*
X119570885Y-96108901D01*
X119570881Y-96108901D01*
X119563651Y-96107801D01*
X119556359Y-96108394D01*
X119556356Y-96108394D01*
X119510982Y-96112085D01*
X119500767Y-96112500D01*
X119492707Y-96112500D01*
X119489073Y-96112924D01*
X119489067Y-96112924D01*
X119476042Y-96114443D01*
X119464480Y-96115791D01*
X119460132Y-96116221D01*
X119438059Y-96118016D01*
X119394662Y-96121546D01*
X119394659Y-96121547D01*
X119387364Y-96122140D01*
X119380400Y-96124396D01*
X119374461Y-96125583D01*
X119368590Y-96126970D01*
X119361319Y-96127818D01*
X119354443Y-96130314D01*
X119354434Y-96130316D01*
X119292702Y-96152725D01*
X119288598Y-96154135D01*
X119219101Y-96176648D01*
X119212846Y-96180444D01*
X119207387Y-96182943D01*
X119201939Y-96185671D01*
X119195063Y-96188167D01*
X119134010Y-96228195D01*
X119130327Y-96230519D01*
X119072686Y-96265496D01*
X119072682Y-96265499D01*
X119067893Y-96268405D01*
X119059517Y-96275803D01*
X119059493Y-96275776D01*
X119056511Y-96278421D01*
X119053274Y-96281128D01*
X119047148Y-96285144D01*
X119042112Y-96290460D01*
X119042111Y-96290461D01*
X118993855Y-96341401D01*
X118991477Y-96343843D01*
X118559725Y-96775595D01*
X118497413Y-96809621D01*
X118470630Y-96812500D01*
X117221866Y-96812500D01*
X117159684Y-96819255D01*
X117023295Y-96870385D01*
X116906739Y-96957739D01*
X116819385Y-97074295D01*
X116816233Y-97082704D01*
X116816232Y-97082705D01*
X116783266Y-97170642D01*
X116740625Y-97227407D01*
X116674063Y-97252107D01*
X116604714Y-97236900D01*
X116576189Y-97215508D01*
X115621138Y-96260457D01*
X115587112Y-96198145D01*
X115590639Y-96131696D01*
X115592440Y-96126267D01*
X115614797Y-96058861D01*
X115625500Y-95954400D01*
X115625500Y-95053600D01*
X115623198Y-95031411D01*
X115615238Y-94954692D01*
X115615237Y-94954688D01*
X115614526Y-94947834D01*
X115558550Y-94780054D01*
X115465478Y-94629652D01*
X115340303Y-94504695D01*
X115329051Y-94497759D01*
X115195968Y-94415725D01*
X115195966Y-94415724D01*
X115189738Y-94411885D01*
X115029254Y-94358655D01*
X115028389Y-94358368D01*
X115028387Y-94358368D01*
X115021861Y-94356203D01*
X115015025Y-94355503D01*
X115015022Y-94355502D01*
X114971969Y-94351091D01*
X114917400Y-94345500D01*
X112666600Y-94345500D01*
X112663354Y-94345837D01*
X112663350Y-94345837D01*
X112567692Y-94355762D01*
X112567688Y-94355763D01*
X112560834Y-94356474D01*
X112554298Y-94358655D01*
X112554296Y-94358655D01*
X112436102Y-94398088D01*
X112393054Y-94412450D01*
X112322197Y-94456298D01*
X112248879Y-94501668D01*
X112248876Y-94501671D01*
X112242652Y-94505522D01*
X112237968Y-94510215D01*
X112172421Y-94536745D01*
X112102656Y-94523574D01*
X112070944Y-94500530D01*
X112068169Y-94497759D01*
X112056760Y-94488749D01*
X111918757Y-94403684D01*
X111905576Y-94397537D01*
X111751290Y-94346362D01*
X111737914Y-94343495D01*
X111643562Y-94333828D01*
X111637145Y-94333500D01*
X110762115Y-94333500D01*
X110746876Y-94337975D01*
X110745671Y-94339365D01*
X110744000Y-94347048D01*
X110744000Y-95632000D01*
X110723998Y-95700121D01*
X110670342Y-95746614D01*
X110618000Y-95758000D01*
X108825115Y-95758000D01*
X108795324Y-95766747D01*
X108760080Y-95789397D01*
X108724583Y-95794500D01*
X106806000Y-95794500D01*
X106737879Y-95774498D01*
X106691386Y-95720842D01*
X106680000Y-95668500D01*
X106680000Y-95268385D01*
X107188000Y-95268385D01*
X107192475Y-95283624D01*
X107193865Y-95284829D01*
X107201548Y-95286500D01*
X108573885Y-95286500D01*
X108603676Y-95277753D01*
X108638920Y-95255103D01*
X108674417Y-95250000D01*
X110217885Y-95250000D01*
X110233124Y-95245525D01*
X110234329Y-95244135D01*
X110236000Y-95236452D01*
X110236000Y-94351616D01*
X110231525Y-94336377D01*
X110230135Y-94335172D01*
X110222452Y-94333501D01*
X109342905Y-94333501D01*
X109336386Y-94333838D01*
X109240794Y-94343757D01*
X109227400Y-94346649D01*
X109073216Y-94398088D01*
X109060038Y-94404261D01*
X108922193Y-94489563D01*
X108910792Y-94498599D01*
X108794342Y-94615251D01*
X108732059Y-94649330D01*
X108661239Y-94644327D01*
X108606424Y-94604497D01*
X108601907Y-94598798D01*
X108487170Y-94484261D01*
X108475759Y-94475249D01*
X108337755Y-94390182D01*
X108324577Y-94384038D01*
X108170284Y-94332861D01*
X108156919Y-94329995D01*
X108062561Y-94320328D01*
X108056144Y-94320000D01*
X107206115Y-94320000D01*
X107190876Y-94324475D01*
X107189671Y-94325865D01*
X107188000Y-94333548D01*
X107188000Y-95268385D01*
X106680000Y-95268385D01*
X106680000Y-94338115D01*
X106675525Y-94322876D01*
X106674135Y-94321671D01*
X106666452Y-94320000D01*
X105811904Y-94320000D01*
X105805389Y-94320337D01*
X105709797Y-94330256D01*
X105696398Y-94333150D01*
X105542217Y-94384588D01*
X105529038Y-94390762D01*
X105391193Y-94476063D01*
X105379791Y-94485100D01*
X105359440Y-94505486D01*
X105297157Y-94539564D01*
X105226337Y-94534561D01*
X105192465Y-94512839D01*
X105191229Y-94514404D01*
X105185483Y-94509866D01*
X105180303Y-94504695D01*
X105169051Y-94497759D01*
X105035968Y-94415725D01*
X105035966Y-94415724D01*
X105029738Y-94411885D01*
X104869254Y-94358655D01*
X104868389Y-94358368D01*
X104868387Y-94358368D01*
X104861861Y-94356203D01*
X104855025Y-94355503D01*
X104855022Y-94355502D01*
X104811969Y-94351091D01*
X104757400Y-94345500D01*
X102670207Y-94345500D01*
X102602086Y-94325498D01*
X102555593Y-94271842D01*
X102544897Y-94232671D01*
X102528067Y-94072545D01*
X102528067Y-94072544D01*
X102527377Y-94065981D01*
X102498660Y-93977598D01*
X102469755Y-93888640D01*
X102467713Y-93882355D01*
X102371175Y-93715146D01*
X102270175Y-93602973D01*
X102246404Y-93576573D01*
X102246403Y-93576572D01*
X102241982Y-93571662D01*
X102085780Y-93458174D01*
X102079751Y-93455490D01*
X102079748Y-93455488D01*
X101915431Y-93382330D01*
X101915428Y-93382329D01*
X101909395Y-93379643D01*
X101867462Y-93370730D01*
X101726995Y-93340872D01*
X101726990Y-93340872D01*
X101720538Y-93339500D01*
X101527462Y-93339500D01*
X101521010Y-93340872D01*
X101521005Y-93340872D01*
X101455773Y-93354738D01*
X101338605Y-93379643D01*
X101332575Y-93382328D01*
X101332574Y-93382328D01*
X101168251Y-93455489D01*
X101168249Y-93455490D01*
X101162221Y-93458174D01*
X101156880Y-93462054D01*
X101156879Y-93462055D01*
X101058983Y-93533181D01*
X101006018Y-93571662D01*
X101001597Y-93576572D01*
X101001596Y-93576573D01*
X100977826Y-93602973D01*
X100876825Y-93715146D01*
X100780287Y-93882355D01*
X100778245Y-93888640D01*
X100749341Y-93977598D01*
X100720623Y-94065981D01*
X100700441Y-94258000D01*
X100701131Y-94264565D01*
X100717019Y-94415725D01*
X100720623Y-94450019D01*
X100722663Y-94456296D01*
X100722663Y-94456298D01*
X100738388Y-94504695D01*
X100748093Y-94534561D01*
X100763040Y-94580564D01*
X100765068Y-94651531D01*
X100728405Y-94712329D01*
X100664693Y-94743655D01*
X100643207Y-94745500D01*
X98918371Y-94745500D01*
X98850250Y-94725498D01*
X98829276Y-94708595D01*
X97856853Y-93736172D01*
X97822827Y-93673860D01*
X97827892Y-93603045D01*
X97870439Y-93546209D01*
X97929939Y-93522098D01*
X97981184Y-93515534D01*
X97991262Y-93513392D01*
X98195255Y-93452191D01*
X98204842Y-93448433D01*
X98396098Y-93354738D01*
X98404944Y-93349465D01*
X98452247Y-93315723D01*
X98460648Y-93305023D01*
X98453660Y-93291870D01*
X96592849Y-91431059D01*
X96560113Y-91413183D01*
X96509912Y-91362980D01*
X96494500Y-91302596D01*
X96494500Y-89727000D01*
X96514502Y-89658879D01*
X96568158Y-89612386D01*
X96620500Y-89601000D01*
X97263885Y-89601000D01*
X97279124Y-89596525D01*
X97280329Y-89595135D01*
X97282000Y-89587452D01*
X97282000Y-88158385D01*
X97790000Y-88158385D01*
X97794475Y-88173624D01*
X97795865Y-88174829D01*
X97803548Y-88176500D01*
X99379680Y-88176500D01*
X99407653Y-88184714D01*
X99408441Y-88181093D01*
X99447548Y-88189600D01*
X100642085Y-88189600D01*
X100657324Y-88185125D01*
X100658529Y-88183735D01*
X100660200Y-88176052D01*
X100660200Y-87291216D01*
X100655725Y-87275977D01*
X100654335Y-87274772D01*
X100646652Y-87273101D01*
X99767105Y-87273101D01*
X99760586Y-87273438D01*
X99664994Y-87283357D01*
X99651600Y-87286249D01*
X99497416Y-87337688D01*
X99484238Y-87343861D01*
X99346393Y-87429163D01*
X99334991Y-87438200D01*
X99320758Y-87452457D01*
X99258475Y-87486535D01*
X99187655Y-87481530D01*
X99142569Y-87452609D01*
X99114176Y-87424265D01*
X99102760Y-87415249D01*
X98964757Y-87330184D01*
X98951576Y-87324037D01*
X98797290Y-87272862D01*
X98783914Y-87269995D01*
X98689562Y-87260328D01*
X98683145Y-87260000D01*
X97808115Y-87260000D01*
X97792876Y-87264475D01*
X97791671Y-87265865D01*
X97790000Y-87273548D01*
X97790000Y-88158385D01*
X97282000Y-88158385D01*
X97282000Y-87278116D01*
X97277525Y-87262877D01*
X97276135Y-87261672D01*
X97268452Y-87260001D01*
X96958370Y-87260001D01*
X96890249Y-87239999D01*
X96843756Y-87186343D01*
X96833652Y-87116069D01*
X96863146Y-87051489D01*
X96869275Y-87044906D01*
X97400776Y-86513405D01*
X97463088Y-86479379D01*
X97489871Y-86476500D01*
X98686400Y-86476500D01*
X98689646Y-86476163D01*
X98689650Y-86476163D01*
X98785308Y-86466238D01*
X98785312Y-86466237D01*
X98792166Y-86465526D01*
X98798702Y-86463345D01*
X98798704Y-86463345D01*
X98952998Y-86411868D01*
X98959946Y-86409550D01*
X99110348Y-86316478D01*
X99129439Y-86297353D01*
X99191720Y-86263273D01*
X99262540Y-86268275D01*
X99307631Y-86297197D01*
X99340897Y-86330405D01*
X99347127Y-86334245D01*
X99347128Y-86334246D01*
X99483886Y-86418545D01*
X99491462Y-86423215D01*
X99528989Y-86435662D01*
X99652811Y-86476732D01*
X99652813Y-86476732D01*
X99659339Y-86478897D01*
X99666175Y-86479597D01*
X99666178Y-86479598D01*
X99708012Y-86483884D01*
X99763800Y-86489600D01*
X102064600Y-86489600D01*
X102067846Y-86489263D01*
X102067850Y-86489263D01*
X102163508Y-86479338D01*
X102163512Y-86479337D01*
X102170366Y-86478626D01*
X102176899Y-86476446D01*
X102176910Y-86476444D01*
X102268524Y-86445878D01*
X102339474Y-86443292D01*
X102400558Y-86479476D01*
X102432383Y-86542940D01*
X102434401Y-86565401D01*
X102434401Y-86717995D01*
X102434738Y-86724514D01*
X102444657Y-86820106D01*
X102447549Y-86833500D01*
X102498988Y-86987684D01*
X102505161Y-87000862D01*
X102590463Y-87138707D01*
X102599499Y-87150108D01*
X102714229Y-87264639D01*
X102725640Y-87273651D01*
X102863643Y-87358716D01*
X102876824Y-87364863D01*
X103031110Y-87416038D01*
X103044486Y-87418905D01*
X103138838Y-87428572D01*
X103145254Y-87428900D01*
X104020285Y-87428900D01*
X104035524Y-87424425D01*
X104036729Y-87423035D01*
X104038400Y-87415352D01*
X104038400Y-86130400D01*
X104058402Y-86062279D01*
X104112058Y-86015786D01*
X104164400Y-86004400D01*
X104420400Y-86004400D01*
X104488521Y-86024402D01*
X104535014Y-86078058D01*
X104546400Y-86130400D01*
X104546400Y-87410784D01*
X104550875Y-87426023D01*
X104552265Y-87427228D01*
X104559948Y-87428899D01*
X105439495Y-87428899D01*
X105446014Y-87428562D01*
X105541606Y-87418643D01*
X105555003Y-87415750D01*
X105615646Y-87395519D01*
X105686595Y-87392935D01*
X105747679Y-87429119D01*
X105779503Y-87492584D01*
X105780784Y-87501436D01*
X105785001Y-87540260D01*
X105785002Y-87540264D01*
X105785855Y-87548116D01*
X105836985Y-87684505D01*
X105924339Y-87801061D01*
X106040895Y-87888415D01*
X106049306Y-87891568D01*
X106064356Y-87897210D01*
X106121120Y-87939852D01*
X106145819Y-88006414D01*
X106139718Y-88054857D01*
X106090403Y-88203539D01*
X106089702Y-88210377D01*
X106089702Y-88210379D01*
X106089402Y-88213307D01*
X106080969Y-88295622D01*
X106080918Y-88296115D01*
X106054077Y-88361842D01*
X105995962Y-88402625D01*
X105925024Y-88405513D01*
X105878350Y-88379125D01*
X105876629Y-88381304D01*
X105870883Y-88376766D01*
X105865703Y-88371595D01*
X105806186Y-88334908D01*
X105721368Y-88282625D01*
X105721366Y-88282624D01*
X105715138Y-88278785D01*
X105554654Y-88225555D01*
X105553789Y-88225268D01*
X105553787Y-88225268D01*
X105547261Y-88223103D01*
X105540425Y-88222403D01*
X105540422Y-88222402D01*
X105497369Y-88217991D01*
X105442800Y-88212400D01*
X103142000Y-88212400D01*
X103138754Y-88212737D01*
X103138750Y-88212737D01*
X103043092Y-88222662D01*
X103043088Y-88222663D01*
X103036234Y-88223374D01*
X103029701Y-88225554D01*
X103029690Y-88225556D01*
X102938076Y-88256122D01*
X102867126Y-88258708D01*
X102806042Y-88222524D01*
X102774217Y-88159060D01*
X102772199Y-88136599D01*
X102772199Y-87984005D01*
X102771862Y-87977486D01*
X102761943Y-87881894D01*
X102759051Y-87868500D01*
X102707612Y-87714316D01*
X102701439Y-87701138D01*
X102616137Y-87563293D01*
X102607101Y-87551892D01*
X102492371Y-87437361D01*
X102480960Y-87428349D01*
X102342957Y-87343284D01*
X102329776Y-87337137D01*
X102175490Y-87285962D01*
X102162114Y-87283095D01*
X102067762Y-87273428D01*
X102061345Y-87273100D01*
X101186315Y-87273100D01*
X101171076Y-87277575D01*
X101169871Y-87278965D01*
X101168200Y-87286648D01*
X101168200Y-88571600D01*
X101148198Y-88639721D01*
X101094542Y-88686214D01*
X101042200Y-88697600D01*
X99070520Y-88697600D01*
X99042547Y-88689386D01*
X99041759Y-88693007D01*
X99002652Y-88684500D01*
X97808115Y-88684500D01*
X97792876Y-88688975D01*
X97791671Y-88690365D01*
X97790000Y-88698048D01*
X97790000Y-89582884D01*
X97794475Y-89598123D01*
X97795865Y-89599328D01*
X97803548Y-89600999D01*
X98683095Y-89600999D01*
X98689614Y-89600662D01*
X98785206Y-89590743D01*
X98798600Y-89587851D01*
X98952784Y-89536412D01*
X98965958Y-89530241D01*
X99023348Y-89494726D01*
X99091800Y-89475888D01*
X99159570Y-89497049D01*
X99205141Y-89551489D01*
X99214046Y-89621925D01*
X99183456Y-89685994D01*
X99171483Y-89697681D01*
X99143389Y-89721676D01*
X99062102Y-89791102D01*
X98897672Y-89983624D01*
X98765384Y-90199498D01*
X98763491Y-90204068D01*
X98763489Y-90204072D01*
X98670389Y-90428836D01*
X98668495Y-90433409D01*
X98659611Y-90470413D01*
X98611430Y-90671104D01*
X98609391Y-90679597D01*
X98596141Y-90847950D01*
X98590676Y-90917387D01*
X98565390Y-90983728D01*
X98508252Y-91025868D01*
X98437402Y-91030427D01*
X98404170Y-91017809D01*
X98266116Y-90941599D01*
X98256705Y-90937369D01*
X98055959Y-90866280D01*
X98045989Y-90863646D01*
X97836327Y-90826301D01*
X97826073Y-90825331D01*
X97613116Y-90822728D01*
X97602832Y-90823448D01*
X97392321Y-90855661D01*
X97382293Y-90858050D01*
X97179868Y-90924212D01*
X97170359Y-90928209D01*
X96981466Y-91026540D01*
X96972734Y-91032039D01*
X96952677Y-91047099D01*
X96944223Y-91058427D01*
X96950968Y-91070758D01*
X98813474Y-92933264D01*
X98825484Y-92939823D01*
X98837223Y-92930855D01*
X98868004Y-92888019D01*
X98873315Y-92879180D01*
X98967670Y-92688267D01*
X98971469Y-92678672D01*
X99033376Y-92474915D01*
X99035555Y-92464834D01*
X99054431Y-92321459D01*
X99083153Y-92256531D01*
X99142419Y-92217440D01*
X99213410Y-92216595D01*
X99252536Y-92235545D01*
X99254624Y-92237328D01*
X99470498Y-92369616D01*
X99475068Y-92371509D01*
X99475072Y-92371511D01*
X99699836Y-92464611D01*
X99704409Y-92466505D01*
X99776103Y-92483717D01*
X99945784Y-92524454D01*
X99945790Y-92524455D01*
X99950597Y-92525609D01*
X100203000Y-92545474D01*
X100455403Y-92525609D01*
X100460210Y-92524455D01*
X100460216Y-92524454D01*
X100629897Y-92483717D01*
X100701591Y-92466505D01*
X100706164Y-92464611D01*
X100930928Y-92371511D01*
X100930932Y-92371509D01*
X100935502Y-92369616D01*
X101151376Y-92237328D01*
X101343898Y-92072898D01*
X101508328Y-91880376D01*
X101640616Y-91664502D01*
X101644073Y-91656158D01*
X101735611Y-91435164D01*
X101735612Y-91435162D01*
X101737505Y-91430591D01*
X101768411Y-91301857D01*
X101795454Y-91189216D01*
X101795455Y-91189210D01*
X101796609Y-91184403D01*
X101816474Y-90932000D01*
X101796609Y-90679597D01*
X101794571Y-90671104D01*
X101746389Y-90470413D01*
X101737505Y-90433409D01*
X101735611Y-90428836D01*
X101642511Y-90204072D01*
X101642509Y-90204068D01*
X101640616Y-90199498D01*
X101508328Y-89983624D01*
X101370228Y-89821930D01*
X101341197Y-89757140D01*
X101351802Y-89686940D01*
X101398677Y-89633617D01*
X101466039Y-89614099D01*
X102061295Y-89614099D01*
X102067814Y-89613762D01*
X102163406Y-89603843D01*
X102176800Y-89600951D01*
X102268024Y-89570517D01*
X102338974Y-89567933D01*
X102400058Y-89604117D01*
X102431882Y-89667581D01*
X102433900Y-89690041D01*
X102433900Y-89846300D01*
X102434237Y-89849546D01*
X102434237Y-89849550D01*
X102436270Y-89869139D01*
X102444874Y-89952066D01*
X102447055Y-89958602D01*
X102447055Y-89958604D01*
X102458450Y-89992759D01*
X102500850Y-90119846D01*
X102593922Y-90270248D01*
X102719097Y-90395205D01*
X102725327Y-90399045D01*
X102725328Y-90399046D01*
X102863011Y-90483915D01*
X102869662Y-90488015D01*
X102949405Y-90514464D01*
X103031011Y-90541532D01*
X103031013Y-90541532D01*
X103037539Y-90543697D01*
X103044375Y-90544397D01*
X103044378Y-90544398D01*
X103087431Y-90548809D01*
X103142000Y-90554400D01*
X105442800Y-90554400D01*
X105446046Y-90554063D01*
X105446050Y-90554063D01*
X105541708Y-90544138D01*
X105541712Y-90544137D01*
X105548566Y-90543426D01*
X105555102Y-90541245D01*
X105555104Y-90541245D01*
X105687206Y-90497172D01*
X105716346Y-90487450D01*
X105811065Y-90428836D01*
X105860521Y-90398232D01*
X105860524Y-90398229D01*
X105866748Y-90394378D01*
X105871921Y-90389196D01*
X105875436Y-90386410D01*
X105941246Y-90359773D01*
X106011010Y-90372944D01*
X106062579Y-90421742D01*
X106079700Y-90485156D01*
X106079700Y-90558800D01*
X106080037Y-90562046D01*
X106080037Y-90562050D01*
X106088407Y-90642715D01*
X106090674Y-90664566D01*
X106092855Y-90671102D01*
X106092855Y-90671104D01*
X106132943Y-90791262D01*
X106146650Y-90832346D01*
X106239722Y-90982748D01*
X106364897Y-91107705D01*
X106371127Y-91111545D01*
X106371128Y-91111546D01*
X106508290Y-91196094D01*
X106515462Y-91200515D01*
X106582191Y-91222648D01*
X106676811Y-91254032D01*
X106676813Y-91254032D01*
X106683339Y-91256197D01*
X106690175Y-91256897D01*
X106690178Y-91256898D01*
X106733231Y-91261309D01*
X106787800Y-91266900D01*
X107688600Y-91266900D01*
X107691846Y-91266563D01*
X107691850Y-91266563D01*
X107787508Y-91256638D01*
X107787512Y-91256637D01*
X107794366Y-91255926D01*
X107800902Y-91253745D01*
X107800904Y-91253745D01*
X107939828Y-91207396D01*
X107962146Y-91199950D01*
X108112548Y-91106878D01*
X108237505Y-90981703D01*
X108268143Y-90932000D01*
X108326475Y-90837368D01*
X108326476Y-90837366D01*
X108330315Y-90831138D01*
X108367592Y-90718752D01*
X108383832Y-90669789D01*
X108383832Y-90669787D01*
X108385997Y-90663261D01*
X108396700Y-90558800D01*
X108396700Y-88308000D01*
X108394158Y-88283502D01*
X108386438Y-88209092D01*
X108386437Y-88209088D01*
X108385726Y-88202234D01*
X108377141Y-88176500D01*
X108332068Y-88041402D01*
X108329750Y-88034454D01*
X108314261Y-88009424D01*
X108295424Y-87940971D01*
X108316586Y-87873202D01*
X108345841Y-87842296D01*
X108367983Y-87825702D01*
X108400861Y-87801061D01*
X108488215Y-87684505D01*
X108539345Y-87548116D01*
X108546100Y-87485934D01*
X108546100Y-86698439D01*
X108566102Y-86630318D01*
X108619758Y-86583825D01*
X108690032Y-86573721D01*
X108754612Y-86603215D01*
X108761195Y-86609344D01*
X108992195Y-86840344D01*
X109026221Y-86902656D01*
X109029100Y-86929439D01*
X109029100Y-87485934D01*
X109035855Y-87548116D01*
X109038629Y-87555515D01*
X109060082Y-87612741D01*
X109068100Y-87656971D01*
X109068100Y-90071431D01*
X109058509Y-90119649D01*
X109008762Y-90239749D01*
X109007684Y-90247936D01*
X109007684Y-90247937D01*
X109000810Y-90300154D01*
X108987850Y-90398600D01*
X108988928Y-90406789D01*
X109007010Y-90544138D01*
X109008762Y-90557450D01*
X109011921Y-90565077D01*
X109011922Y-90565080D01*
X109061400Y-90684531D01*
X109070076Y-90705476D01*
X109167613Y-90832587D01*
X109174159Y-90837610D01*
X109294724Y-90930124D01*
X109293663Y-90931507D01*
X109329554Y-90966317D01*
X109339722Y-90982748D01*
X109464897Y-91107705D01*
X109471127Y-91111545D01*
X109471128Y-91111546D01*
X109608290Y-91196094D01*
X109615462Y-91200515D01*
X109682191Y-91222648D01*
X109776811Y-91254032D01*
X109776813Y-91254032D01*
X109783339Y-91256197D01*
X109790175Y-91256897D01*
X109790178Y-91256898D01*
X109833231Y-91261309D01*
X109887800Y-91266900D01*
X110788600Y-91266900D01*
X110791846Y-91266563D01*
X110791850Y-91266563D01*
X110887508Y-91256638D01*
X110887512Y-91256637D01*
X110894366Y-91255926D01*
X110900902Y-91253745D01*
X110900904Y-91253745D01*
X111039828Y-91207396D01*
X111062146Y-91199950D01*
X111212548Y-91106878D01*
X111337505Y-90981703D01*
X111368143Y-90932000D01*
X111426475Y-90837368D01*
X111426476Y-90837366D01*
X111430315Y-90831138D01*
X111467592Y-90718752D01*
X111483832Y-90669789D01*
X111483832Y-90669787D01*
X111485997Y-90663261D01*
X111496700Y-90558800D01*
X111496700Y-90460041D01*
X111516702Y-90391920D01*
X111570358Y-90345427D01*
X111640632Y-90335323D01*
X111705212Y-90364817D01*
X111711712Y-90370863D01*
X111736097Y-90395205D01*
X111742327Y-90399045D01*
X111742328Y-90399046D01*
X111880011Y-90483915D01*
X111886662Y-90488015D01*
X111966405Y-90514464D01*
X112048011Y-90541532D01*
X112048013Y-90541532D01*
X112054539Y-90543697D01*
X112061375Y-90544397D01*
X112061378Y-90544398D01*
X112104431Y-90548809D01*
X112159000Y-90554400D01*
X114459800Y-90554400D01*
X114463046Y-90554063D01*
X114463050Y-90554063D01*
X114558708Y-90544138D01*
X114558712Y-90544137D01*
X114565566Y-90543426D01*
X114572102Y-90541245D01*
X114572104Y-90541245D01*
X114704206Y-90497172D01*
X114733346Y-90487450D01*
X114883748Y-90394378D01*
X115008705Y-90269203D01*
X115024277Y-90243941D01*
X115097675Y-90124868D01*
X115097676Y-90124866D01*
X115101515Y-90118638D01*
X115149729Y-89973277D01*
X115155032Y-89957289D01*
X115155032Y-89957287D01*
X115157197Y-89950761D01*
X115158613Y-89936946D01*
X115165560Y-89869139D01*
X115167900Y-89846300D01*
X115167900Y-88920500D01*
X115165192Y-88894400D01*
X115157638Y-88821592D01*
X115157637Y-88821588D01*
X115156926Y-88814734D01*
X115115107Y-88689386D01*
X115103268Y-88653902D01*
X115100950Y-88646954D01*
X115007878Y-88496552D01*
X114882703Y-88371595D01*
X114823186Y-88334908D01*
X114738368Y-88282625D01*
X114738366Y-88282624D01*
X114732138Y-88278785D01*
X114571654Y-88225555D01*
X114570789Y-88225268D01*
X114570787Y-88225268D01*
X114564261Y-88223103D01*
X114557425Y-88222403D01*
X114557422Y-88222402D01*
X114514369Y-88217991D01*
X114459800Y-88212400D01*
X112159000Y-88212400D01*
X112155754Y-88212737D01*
X112155750Y-88212737D01*
X112060092Y-88222662D01*
X112060088Y-88222663D01*
X112053234Y-88223374D01*
X112046698Y-88225555D01*
X112046696Y-88225555D01*
X111947325Y-88258708D01*
X111885454Y-88279350D01*
X111735052Y-88372422D01*
X111729878Y-88377605D01*
X111711804Y-88395710D01*
X111649521Y-88429788D01*
X111578701Y-88424784D01*
X111521829Y-88382287D01*
X111496800Y-88313200D01*
X111496700Y-88311266D01*
X111496700Y-88308000D01*
X111494158Y-88283502D01*
X111486438Y-88209092D01*
X111486437Y-88209088D01*
X111485726Y-88202234D01*
X111478673Y-88181093D01*
X111436508Y-88054709D01*
X111433924Y-87983760D01*
X111470108Y-87922676D01*
X111511803Y-87896851D01*
X111525895Y-87891568D01*
X111525896Y-87891567D01*
X111534305Y-87888415D01*
X111650861Y-87801061D01*
X111738215Y-87684505D01*
X111789345Y-87548116D01*
X111795344Y-87492889D01*
X111822585Y-87427328D01*
X111880948Y-87386901D01*
X111951902Y-87384445D01*
X111960274Y-87386904D01*
X112048107Y-87416037D01*
X112061486Y-87418905D01*
X112155838Y-87428572D01*
X112162254Y-87428900D01*
X113037285Y-87428900D01*
X113052524Y-87424425D01*
X113053729Y-87423035D01*
X113055400Y-87415352D01*
X113055400Y-87410784D01*
X113563400Y-87410784D01*
X113567875Y-87426023D01*
X113569265Y-87427228D01*
X113576948Y-87428899D01*
X114456495Y-87428899D01*
X114463014Y-87428562D01*
X114558606Y-87418643D01*
X114572000Y-87415751D01*
X114726184Y-87364312D01*
X114739362Y-87358139D01*
X114877207Y-87272837D01*
X114888608Y-87263801D01*
X115003139Y-87149071D01*
X115012151Y-87137660D01*
X115097216Y-86999657D01*
X115103363Y-86986476D01*
X115154538Y-86832190D01*
X115157405Y-86818814D01*
X115167072Y-86724462D01*
X115167400Y-86718046D01*
X115167400Y-86530515D01*
X115162925Y-86515276D01*
X115161535Y-86514071D01*
X115153852Y-86512400D01*
X113581515Y-86512400D01*
X113566276Y-86516875D01*
X113565071Y-86518265D01*
X113563400Y-86525948D01*
X113563400Y-87410784D01*
X113055400Y-87410784D01*
X113055400Y-85986285D01*
X113563400Y-85986285D01*
X113567875Y-86001524D01*
X113569265Y-86002729D01*
X113576948Y-86004400D01*
X115149284Y-86004400D01*
X115164523Y-85999925D01*
X115165728Y-85998535D01*
X115167399Y-85990852D01*
X115167399Y-85798805D01*
X115167062Y-85792286D01*
X115157143Y-85696694D01*
X115154251Y-85683300D01*
X115102812Y-85529116D01*
X115096639Y-85515938D01*
X115011337Y-85378093D01*
X115002301Y-85366692D01*
X114887571Y-85252161D01*
X114876160Y-85243149D01*
X114738157Y-85158084D01*
X114724976Y-85151937D01*
X114570690Y-85100762D01*
X114557314Y-85097895D01*
X114462962Y-85088228D01*
X114456545Y-85087900D01*
X113581515Y-85087900D01*
X113566276Y-85092375D01*
X113565071Y-85093765D01*
X113563400Y-85101448D01*
X113563400Y-85986285D01*
X113055400Y-85986285D01*
X113055400Y-85106016D01*
X113050925Y-85090777D01*
X113049535Y-85089572D01*
X113041852Y-85087901D01*
X112419292Y-85087901D01*
X112351171Y-85067899D01*
X112304678Y-85014243D01*
X112294574Y-84943969D01*
X112310173Y-84898901D01*
X112387187Y-84765509D01*
X112387188Y-84765508D01*
X112390491Y-84759786D01*
X112430483Y-84636703D01*
X112448115Y-84582439D01*
X112448115Y-84582437D01*
X112450155Y-84576160D01*
X112457492Y-84506358D01*
X112469647Y-84390706D01*
X112470337Y-84384141D01*
X112462824Y-84312661D01*
X112450845Y-84198686D01*
X112450845Y-84198685D01*
X112450155Y-84192122D01*
X112447652Y-84184417D01*
X112442784Y-84169436D01*
X112440757Y-84098468D01*
X112477419Y-84037670D01*
X112541132Y-84006345D01*
X112562617Y-84004500D01*
X113301134Y-84004500D01*
X113363316Y-83997745D01*
X113499705Y-83946615D01*
X113616261Y-83859261D01*
X113703615Y-83742705D01*
X113754745Y-83606316D01*
X113761500Y-83544134D01*
X113761500Y-81947866D01*
X113754745Y-81885684D01*
X113750710Y-81874920D01*
X113750504Y-81872113D01*
X113750145Y-81870602D01*
X113750389Y-81870544D01*
X113745527Y-81804116D01*
X113779447Y-81741746D01*
X113817442Y-81715586D01*
X113897038Y-81680148D01*
X113966748Y-81649112D01*
X113966751Y-81649110D01*
X113972780Y-81646426D01*
X114002780Y-81624630D01*
X114084133Y-81565523D01*
X114128982Y-81532938D01*
X114170996Y-81486277D01*
X114253756Y-81394362D01*
X114253757Y-81394361D01*
X114258175Y-81389454D01*
X114354713Y-81222245D01*
X114414377Y-81038619D01*
X114425159Y-80936040D01*
X114433869Y-80853165D01*
X114434559Y-80846600D01*
X114431045Y-80813169D01*
X114443817Y-80743332D01*
X114492318Y-80691485D01*
X114556355Y-80673999D01*
X114847669Y-80673999D01*
X114854490Y-80673629D01*
X114905352Y-80668105D01*
X114920604Y-80664479D01*
X115041054Y-80619324D01*
X115056649Y-80610786D01*
X115158724Y-80534285D01*
X115171286Y-80521723D01*
X115229436Y-80444134D01*
X115286296Y-80401619D01*
X115357114Y-80396593D01*
X115419407Y-80430653D01*
G37*
G04 #@! TD.AperFunction*
G04 #@! TA.AperFunction,Conductor*
G36*
X99269539Y-50528502D02*
G01*
X99316032Y-50582158D01*
X99326136Y-50652432D01*
X99296642Y-50717012D01*
X99267252Y-50741933D01*
X99258843Y-50747086D01*
X99258838Y-50747090D01*
X99254624Y-50749672D01*
X99062102Y-50914102D01*
X98897672Y-51106624D01*
X98765384Y-51322498D01*
X98668495Y-51556409D01*
X98609391Y-51802597D01*
X98609003Y-51807531D01*
X98590676Y-52040387D01*
X98565390Y-52106728D01*
X98508252Y-52148868D01*
X98437402Y-52153427D01*
X98404170Y-52140809D01*
X98266116Y-52064599D01*
X98256705Y-52060369D01*
X98055959Y-51989280D01*
X98045989Y-51986646D01*
X97836327Y-51949301D01*
X97826073Y-51948331D01*
X97613116Y-51945728D01*
X97602832Y-51946448D01*
X97392321Y-51978661D01*
X97382293Y-51981050D01*
X97179868Y-52047212D01*
X97170359Y-52051209D01*
X96981466Y-52149540D01*
X96972734Y-52155039D01*
X96952677Y-52170099D01*
X96944223Y-52181427D01*
X96950968Y-52193758D01*
X98813474Y-54056264D01*
X98825484Y-54062823D01*
X98837223Y-54053855D01*
X98868004Y-54011019D01*
X98873315Y-54002180D01*
X98967670Y-53811267D01*
X98971469Y-53801672D01*
X99033376Y-53597915D01*
X99035555Y-53587834D01*
X99054431Y-53444459D01*
X99083153Y-53379531D01*
X99142419Y-53340440D01*
X99213410Y-53339595D01*
X99252536Y-53358545D01*
X99254624Y-53360328D01*
X99470498Y-53492616D01*
X99475068Y-53494509D01*
X99475072Y-53494511D01*
X99552231Y-53526471D01*
X99704409Y-53589505D01*
X99789032Y-53609821D01*
X99945784Y-53647454D01*
X99945790Y-53647455D01*
X99950597Y-53648609D01*
X100203000Y-53668474D01*
X100455403Y-53648609D01*
X100460210Y-53647455D01*
X100460216Y-53647454D01*
X100616968Y-53609821D01*
X100701591Y-53589505D01*
X100853769Y-53526471D01*
X100930928Y-53494511D01*
X100930932Y-53494509D01*
X100935502Y-53492616D01*
X101151376Y-53360328D01*
X101343898Y-53195898D01*
X101508328Y-53003376D01*
X101640616Y-52787502D01*
X101673032Y-52709244D01*
X101735611Y-52558164D01*
X101735612Y-52558162D01*
X101737505Y-52553591D01*
X101796609Y-52307403D01*
X101810134Y-52135554D01*
X101835420Y-52069213D01*
X101892558Y-52027073D01*
X101963408Y-52022514D01*
X102024764Y-52056267D01*
X102078830Y-52110239D01*
X102090241Y-52119251D01*
X102228245Y-52204318D01*
X102241423Y-52210462D01*
X102395716Y-52261639D01*
X102409081Y-52264505D01*
X102503439Y-52274172D01*
X102509855Y-52274500D01*
X103359885Y-52274500D01*
X103375124Y-52270025D01*
X103376329Y-52268635D01*
X103378000Y-52260952D01*
X103378000Y-52256385D01*
X103886000Y-52256385D01*
X103890475Y-52271624D01*
X103891865Y-52272829D01*
X103899548Y-52274500D01*
X104754096Y-52274500D01*
X104760611Y-52274163D01*
X104856203Y-52264244D01*
X104869602Y-52261350D01*
X105023783Y-52209912D01*
X105036962Y-52203738D01*
X105174807Y-52118437D01*
X105186208Y-52109401D01*
X105257302Y-52038183D01*
X105319585Y-52004104D01*
X105390405Y-52009107D01*
X105435493Y-52038028D01*
X105507830Y-52110239D01*
X105519241Y-52119251D01*
X105657245Y-52204318D01*
X105670423Y-52210462D01*
X105824716Y-52261639D01*
X105838081Y-52264505D01*
X105932439Y-52274172D01*
X105938855Y-52274500D01*
X106788885Y-52274500D01*
X106804124Y-52270025D01*
X106805329Y-52268635D01*
X106807000Y-52260952D01*
X106807000Y-52256385D01*
X107315000Y-52256385D01*
X107319475Y-52271624D01*
X107320865Y-52272829D01*
X107328548Y-52274500D01*
X108183096Y-52274500D01*
X108189611Y-52274163D01*
X108285203Y-52264244D01*
X108298602Y-52261350D01*
X108452783Y-52209912D01*
X108465962Y-52203738D01*
X108603807Y-52118437D01*
X108615208Y-52109401D01*
X108686302Y-52038183D01*
X108748585Y-52004104D01*
X108819405Y-52009107D01*
X108864493Y-52038028D01*
X108936830Y-52110239D01*
X108948241Y-52119251D01*
X109086245Y-52204318D01*
X109099423Y-52210462D01*
X109253716Y-52261639D01*
X109267081Y-52264505D01*
X109361439Y-52274172D01*
X109367855Y-52274500D01*
X110217885Y-52274500D01*
X110233124Y-52270025D01*
X110234329Y-52268635D01*
X110236000Y-52260952D01*
X110236000Y-52256385D01*
X110744000Y-52256385D01*
X110748475Y-52271624D01*
X110749865Y-52272829D01*
X110757548Y-52274500D01*
X111612096Y-52274500D01*
X111618611Y-52274163D01*
X111714203Y-52264244D01*
X111727602Y-52261350D01*
X111881783Y-52209912D01*
X111894962Y-52203738D01*
X112032807Y-52118437D01*
X112044208Y-52109401D01*
X112115302Y-52038183D01*
X112177585Y-52004104D01*
X112248405Y-52009107D01*
X112293493Y-52038028D01*
X112365830Y-52110239D01*
X112377241Y-52119251D01*
X112515245Y-52204318D01*
X112528423Y-52210462D01*
X112682716Y-52261639D01*
X112696081Y-52264505D01*
X112790439Y-52274172D01*
X112796855Y-52274500D01*
X113646885Y-52274500D01*
X113662124Y-52270025D01*
X113663329Y-52268635D01*
X113665000Y-52260952D01*
X113665000Y-51326115D01*
X113660525Y-51310876D01*
X113659135Y-51309671D01*
X113651452Y-51308000D01*
X110762115Y-51308000D01*
X110746876Y-51312475D01*
X110745672Y-51313864D01*
X110744000Y-51321548D01*
X110744000Y-52256385D01*
X110236000Y-52256385D01*
X110236000Y-51326115D01*
X110231525Y-51310876D01*
X110230135Y-51309671D01*
X110222452Y-51308000D01*
X107333115Y-51308000D01*
X107317876Y-51312475D01*
X107316672Y-51313864D01*
X107315000Y-51321548D01*
X107315000Y-52256385D01*
X106807000Y-52256385D01*
X106807000Y-51326115D01*
X106802525Y-51310876D01*
X106801135Y-51309671D01*
X106793452Y-51308000D01*
X103904115Y-51308000D01*
X103888876Y-51312475D01*
X103887672Y-51313864D01*
X103886000Y-51321548D01*
X103886000Y-52256385D01*
X103378000Y-52256385D01*
X103378000Y-51326115D01*
X103373525Y-51310876D01*
X103372135Y-51309671D01*
X103364452Y-51308000D01*
X101817115Y-51308000D01*
X101780392Y-51318783D01*
X101756818Y-51333934D01*
X101685822Y-51333936D01*
X101626094Y-51295554D01*
X101613883Y-51278874D01*
X101510910Y-51110838D01*
X101508328Y-51106624D01*
X101343898Y-50914102D01*
X101151376Y-50749672D01*
X101147162Y-50747090D01*
X101147157Y-50747086D01*
X101138748Y-50741933D01*
X101091116Y-50689286D01*
X101079509Y-50619244D01*
X101107612Y-50554046D01*
X101166502Y-50514392D01*
X101204582Y-50508500D01*
X101673000Y-50508500D01*
X101741121Y-50528502D01*
X101787614Y-50582158D01*
X101799000Y-50634500D01*
X101799000Y-50781885D01*
X101803475Y-50797124D01*
X101804865Y-50798329D01*
X101812548Y-50800000D01*
X114047000Y-50800000D01*
X114115121Y-50820002D01*
X114161614Y-50873658D01*
X114173000Y-50926000D01*
X114173000Y-52256385D01*
X114177475Y-52271624D01*
X114178865Y-52272829D01*
X114186548Y-52274500D01*
X115041096Y-52274500D01*
X115047611Y-52274163D01*
X115143203Y-52264244D01*
X115156602Y-52261350D01*
X115310783Y-52209912D01*
X115323955Y-52203741D01*
X115369320Y-52175669D01*
X115437772Y-52156832D01*
X115505542Y-52177994D01*
X115551113Y-52232435D01*
X115561622Y-52283284D01*
X115559698Y-52798937D01*
X115539442Y-52866983D01*
X115485613Y-52913275D01*
X115415302Y-52923117D01*
X115367582Y-52905726D01*
X115322970Y-52878226D01*
X115322967Y-52878225D01*
X115316738Y-52874385D01*
X115211472Y-52839470D01*
X115155389Y-52820868D01*
X115155387Y-52820868D01*
X115148861Y-52818703D01*
X115142025Y-52818003D01*
X115142022Y-52818002D01*
X115098969Y-52813591D01*
X115044400Y-52808000D01*
X112793600Y-52808000D01*
X112790354Y-52808337D01*
X112790350Y-52808337D01*
X112694693Y-52818262D01*
X112694689Y-52818263D01*
X112687835Y-52818974D01*
X112681299Y-52821155D01*
X112681297Y-52821155D01*
X112549195Y-52865228D01*
X112520055Y-52874950D01*
X112369652Y-52968022D01*
X112364479Y-52973204D01*
X112293697Y-53044109D01*
X112231414Y-53078188D01*
X112160594Y-53073185D01*
X112115506Y-53044264D01*
X112078313Y-53007135D01*
X112038303Y-52967195D01*
X111950829Y-52913275D01*
X111893968Y-52878225D01*
X111893966Y-52878224D01*
X111887738Y-52874385D01*
X111782472Y-52839470D01*
X111726389Y-52820868D01*
X111726387Y-52820868D01*
X111719861Y-52818703D01*
X111713025Y-52818003D01*
X111713022Y-52818002D01*
X111669969Y-52813591D01*
X111615400Y-52808000D01*
X109364600Y-52808000D01*
X109361354Y-52808337D01*
X109361350Y-52808337D01*
X109265693Y-52818262D01*
X109265689Y-52818263D01*
X109258835Y-52818974D01*
X109252299Y-52821155D01*
X109252297Y-52821155D01*
X109120195Y-52865228D01*
X109091055Y-52874950D01*
X108940652Y-52968022D01*
X108935479Y-52973204D01*
X108864697Y-53044109D01*
X108802414Y-53078188D01*
X108731594Y-53073185D01*
X108686506Y-53044264D01*
X108649313Y-53007135D01*
X108609303Y-52967195D01*
X108521829Y-52913275D01*
X108464968Y-52878225D01*
X108464966Y-52878224D01*
X108458738Y-52874385D01*
X108353472Y-52839470D01*
X108297389Y-52820868D01*
X108297387Y-52820868D01*
X108290861Y-52818703D01*
X108284025Y-52818003D01*
X108284022Y-52818002D01*
X108240969Y-52813591D01*
X108186400Y-52808000D01*
X105935600Y-52808000D01*
X105932354Y-52808337D01*
X105932350Y-52808337D01*
X105836693Y-52818262D01*
X105836689Y-52818263D01*
X105829835Y-52818974D01*
X105823299Y-52821155D01*
X105823297Y-52821155D01*
X105691195Y-52865228D01*
X105662055Y-52874950D01*
X105511652Y-52968022D01*
X105506479Y-52973204D01*
X105435697Y-53044109D01*
X105373414Y-53078188D01*
X105302594Y-53073185D01*
X105257506Y-53044264D01*
X105220313Y-53007135D01*
X105180303Y-52967195D01*
X105092829Y-52913275D01*
X105035968Y-52878225D01*
X105035966Y-52878224D01*
X105029738Y-52874385D01*
X104924472Y-52839470D01*
X104868389Y-52820868D01*
X104868387Y-52820868D01*
X104861861Y-52818703D01*
X104855025Y-52818003D01*
X104855022Y-52818002D01*
X104811969Y-52813591D01*
X104757400Y-52808000D01*
X102506600Y-52808000D01*
X102503354Y-52808337D01*
X102503350Y-52808337D01*
X102407693Y-52818262D01*
X102407689Y-52818263D01*
X102400835Y-52818974D01*
X102394299Y-52821155D01*
X102394297Y-52821155D01*
X102262195Y-52865228D01*
X102233055Y-52874950D01*
X102082652Y-52968022D01*
X102077479Y-52973204D01*
X102015839Y-53034951D01*
X101957695Y-53093197D01*
X101953855Y-53099427D01*
X101953854Y-53099428D01*
X101882648Y-53214946D01*
X101864885Y-53243762D01*
X101862581Y-53250709D01*
X101825366Y-53362910D01*
X101809203Y-53411639D01*
X101798500Y-53516100D01*
X101798500Y-54541900D01*
X101798837Y-54545146D01*
X101798837Y-54545150D01*
X101808527Y-54638534D01*
X101809474Y-54647665D01*
X101865450Y-54815445D01*
X101958522Y-54965848D01*
X102083697Y-55090805D01*
X102089927Y-55094645D01*
X102089928Y-55094646D01*
X102227090Y-55179194D01*
X102234262Y-55183615D01*
X102314005Y-55210064D01*
X102395611Y-55237132D01*
X102395613Y-55237132D01*
X102402139Y-55239297D01*
X102408975Y-55239997D01*
X102408978Y-55239998D01*
X102452031Y-55244409D01*
X102506600Y-55250000D01*
X102872500Y-55250000D01*
X102940621Y-55270002D01*
X102987114Y-55323658D01*
X102998500Y-55376000D01*
X102998500Y-56829500D01*
X102978498Y-56897621D01*
X102924842Y-56944114D01*
X102872500Y-56955500D01*
X102506600Y-56955500D01*
X102503354Y-56955837D01*
X102503350Y-56955837D01*
X102407692Y-56965762D01*
X102407688Y-56965763D01*
X102400834Y-56966474D01*
X102394298Y-56968655D01*
X102394296Y-56968655D01*
X102367434Y-56977617D01*
X102233054Y-57022450D01*
X102082652Y-57115522D01*
X101957695Y-57240697D01*
X101864885Y-57391262D01*
X101862581Y-57398209D01*
X101822021Y-57520495D01*
X101809203Y-57559139D01*
X101798500Y-57663600D01*
X101798500Y-58133378D01*
X101778498Y-58201499D01*
X101724842Y-58247992D01*
X101654568Y-58258096D01*
X101589988Y-58228602D01*
X101565068Y-58199213D01*
X101510917Y-58110847D01*
X101510910Y-58110837D01*
X101508328Y-58106624D01*
X101343898Y-57914102D01*
X101151376Y-57749672D01*
X100935502Y-57617384D01*
X100930932Y-57615491D01*
X100930928Y-57615489D01*
X100706164Y-57522389D01*
X100706162Y-57522388D01*
X100701591Y-57520495D01*
X100616968Y-57500179D01*
X100460216Y-57462546D01*
X100460210Y-57462545D01*
X100455403Y-57461391D01*
X100203000Y-57441526D01*
X99950597Y-57461391D01*
X99945790Y-57462545D01*
X99945784Y-57462546D01*
X99789032Y-57500179D01*
X99704409Y-57520495D01*
X99699838Y-57522388D01*
X99699836Y-57522389D01*
X99475072Y-57615489D01*
X99475068Y-57615491D01*
X99470498Y-57617384D01*
X99254624Y-57749672D01*
X99253050Y-57751016D01*
X99186938Y-57774608D01*
X99117786Y-57758530D01*
X99068304Y-57707618D01*
X99054164Y-57659138D01*
X99050731Y-57617384D01*
X99047852Y-57582361D01*
X98993431Y-57365702D01*
X98904354Y-57160840D01*
X98816944Y-57025725D01*
X98785822Y-56977617D01*
X98785820Y-56977614D01*
X98783014Y-56973277D01*
X98632670Y-56808051D01*
X98628619Y-56804852D01*
X98628615Y-56804848D01*
X98461414Y-56672800D01*
X98461410Y-56672798D01*
X98457359Y-56669598D01*
X98261789Y-56561638D01*
X98256920Y-56559914D01*
X98256916Y-56559912D01*
X98056087Y-56488795D01*
X98056083Y-56488794D01*
X98051212Y-56487069D01*
X98046119Y-56486162D01*
X98046116Y-56486161D01*
X97836373Y-56448800D01*
X97836367Y-56448799D01*
X97831284Y-56447894D01*
X97757452Y-56446992D01*
X97613081Y-56445228D01*
X97613079Y-56445228D01*
X97607911Y-56445165D01*
X97387091Y-56478955D01*
X97174756Y-56548357D01*
X96976607Y-56651507D01*
X96972474Y-56654610D01*
X96972471Y-56654612D01*
X96948247Y-56672800D01*
X96797965Y-56785635D01*
X96643629Y-56947138D01*
X96640715Y-56951410D01*
X96640714Y-56951411D01*
X96630624Y-56966203D01*
X96517743Y-57131680D01*
X96503582Y-57162188D01*
X96438955Y-57301416D01*
X96423688Y-57334305D01*
X96363989Y-57549570D01*
X96340251Y-57771695D01*
X96340548Y-57776848D01*
X96340548Y-57776851D01*
X96348715Y-57918490D01*
X96353110Y-57994715D01*
X96354247Y-57999761D01*
X96354248Y-57999767D01*
X96367119Y-58056879D01*
X96402222Y-58212639D01*
X96486266Y-58419616D01*
X96488965Y-58424020D01*
X96590091Y-58589043D01*
X96602987Y-58610088D01*
X96749250Y-58778938D01*
X96921126Y-58921632D01*
X97007070Y-58971853D01*
X97055794Y-59023491D01*
X97069500Y-59080641D01*
X97069500Y-59516233D01*
X97068973Y-59527416D01*
X97067298Y-59534909D01*
X97067547Y-59542835D01*
X97067547Y-59542836D01*
X97069438Y-59602986D01*
X97069500Y-59606945D01*
X97069500Y-59634856D01*
X97069997Y-59638790D01*
X97069997Y-59638791D01*
X97070005Y-59638856D01*
X97070938Y-59650693D01*
X97072327Y-59694889D01*
X97075257Y-59704973D01*
X97077978Y-59714339D01*
X97081987Y-59733700D01*
X97084526Y-59753797D01*
X97087445Y-59761168D01*
X97087445Y-59761170D01*
X97100804Y-59794912D01*
X97104649Y-59806142D01*
X97114771Y-59840983D01*
X97116982Y-59848593D01*
X97121015Y-59855412D01*
X97121017Y-59855417D01*
X97127293Y-59866028D01*
X97135988Y-59883776D01*
X97143448Y-59902617D01*
X97148110Y-59909033D01*
X97148110Y-59909034D01*
X97169436Y-59938387D01*
X97175952Y-59948307D01*
X97189084Y-59970511D01*
X97198458Y-59986362D01*
X97212779Y-60000683D01*
X97225619Y-60015716D01*
X97237528Y-60032107D01*
X97243634Y-60037158D01*
X97271605Y-60060298D01*
X97280384Y-60068288D01*
X98183343Y-60971247D01*
X98190887Y-60979537D01*
X98195000Y-60986018D01*
X98200777Y-60991443D01*
X98244667Y-61032658D01*
X98247509Y-61035413D01*
X98267230Y-61055134D01*
X98266812Y-61055552D01*
X98303094Y-61113081D01*
X98307900Y-61147548D01*
X98307900Y-62956001D01*
X98287898Y-63024122D01*
X98234242Y-63070615D01*
X98221744Y-63075481D01*
X98215805Y-63076743D01*
X98209772Y-63079429D01*
X98045451Y-63152589D01*
X98045449Y-63152590D01*
X98039421Y-63155274D01*
X98034080Y-63159154D01*
X98034079Y-63159155D01*
X97888944Y-63264602D01*
X97883218Y-63268762D01*
X97878797Y-63273672D01*
X97878796Y-63273673D01*
X97834831Y-63322502D01*
X97754025Y-63412246D01*
X97749613Y-63419888D01*
X97748678Y-63420779D01*
X97746841Y-63423308D01*
X97746379Y-63422972D01*
X97698232Y-63468881D01*
X97628518Y-63482318D01*
X97562607Y-63455932D01*
X97521424Y-63398100D01*
X97515150Y-63344046D01*
X97524072Y-63256962D01*
X97524400Y-63250546D01*
X97524400Y-62400515D01*
X97519925Y-62385276D01*
X97518535Y-62384071D01*
X97510852Y-62382400D01*
X96638515Y-62382400D01*
X96623276Y-62386875D01*
X96622071Y-62388265D01*
X96620400Y-62395948D01*
X96620400Y-63890845D01*
X96600398Y-63958966D01*
X96560765Y-63993308D01*
X96548671Y-64007265D01*
X96547000Y-64014948D01*
X96547000Y-66485884D01*
X96551475Y-66501123D01*
X96552865Y-66502328D01*
X96560548Y-66503999D01*
X96787669Y-66503999D01*
X96794490Y-66503629D01*
X96845352Y-66498105D01*
X96860600Y-66494480D01*
X96883057Y-66486061D01*
X96953864Y-66480878D01*
X96971520Y-66486062D01*
X96992688Y-66493998D01*
X97049452Y-66536640D01*
X97074150Y-66603203D01*
X97058941Y-66672551D01*
X97032766Y-66705616D01*
X97028666Y-66709307D01*
X97023318Y-66713193D01*
X96894125Y-66856677D01*
X96797587Y-67023886D01*
X96777429Y-67085927D01*
X96745743Y-67183446D01*
X96737923Y-67207512D01*
X96737233Y-67214075D01*
X96737233Y-67214076D01*
X96723942Y-67340533D01*
X96717741Y-67399531D01*
X96737923Y-67591550D01*
X96797587Y-67775176D01*
X96800890Y-67780898D01*
X96800891Y-67780899D01*
X96805091Y-67788174D01*
X96894125Y-67942385D01*
X96898543Y-67947292D01*
X96898544Y-67947293D01*
X97016440Y-68078230D01*
X97023318Y-68085869D01*
X97179520Y-68199357D01*
X97185549Y-68202041D01*
X97185552Y-68202043D01*
X97349869Y-68275201D01*
X97349872Y-68275202D01*
X97355905Y-68277888D01*
X97397838Y-68286801D01*
X97538305Y-68316659D01*
X97538310Y-68316659D01*
X97544762Y-68318031D01*
X97737838Y-68318031D01*
X97744290Y-68316659D01*
X97744295Y-68316659D01*
X97884762Y-68286801D01*
X97926695Y-68277888D01*
X97932728Y-68275202D01*
X97932731Y-68275201D01*
X98097048Y-68202043D01*
X98097051Y-68202041D01*
X98103080Y-68199357D01*
X98259282Y-68085869D01*
X98263704Y-68080957D01*
X98268606Y-68076544D01*
X98269964Y-68078052D01*
X98322224Y-68045851D01*
X98355420Y-68041400D01*
X99340533Y-68041400D01*
X99351716Y-68041927D01*
X99359209Y-68043602D01*
X99367135Y-68043353D01*
X99367136Y-68043353D01*
X99427286Y-68041462D01*
X99431245Y-68041400D01*
X99459156Y-68041400D01*
X99463091Y-68040903D01*
X99463156Y-68040895D01*
X99474993Y-68039962D01*
X99507251Y-68038948D01*
X99511270Y-68038822D01*
X99519189Y-68038573D01*
X99538643Y-68032921D01*
X99558000Y-68028913D01*
X99570230Y-68027368D01*
X99570231Y-68027368D01*
X99578097Y-68026374D01*
X99585468Y-68023455D01*
X99585470Y-68023455D01*
X99619212Y-68010096D01*
X99630442Y-68006251D01*
X99665283Y-67996129D01*
X99665284Y-67996129D01*
X99672893Y-67993918D01*
X99679712Y-67989885D01*
X99679717Y-67989883D01*
X99690328Y-67983607D01*
X99708076Y-67974912D01*
X99726917Y-67967452D01*
X99762687Y-67941464D01*
X99772607Y-67934948D01*
X99803835Y-67916480D01*
X99803838Y-67916478D01*
X99810662Y-67912442D01*
X99824983Y-67898121D01*
X99840017Y-67885280D01*
X99849993Y-67878032D01*
X99856407Y-67873372D01*
X99884588Y-67839307D01*
X99892578Y-67830526D01*
X100495258Y-67227847D01*
X100503537Y-67220313D01*
X100510018Y-67216200D01*
X100556644Y-67166548D01*
X100559398Y-67163707D01*
X100579135Y-67143970D01*
X100581615Y-67140773D01*
X100589317Y-67131755D01*
X100594112Y-67126648D01*
X100655327Y-67090687D01*
X100726267Y-67093529D01*
X100760018Y-67110971D01*
X100892895Y-67207512D01*
X100911220Y-67220826D01*
X100917249Y-67223510D01*
X100917252Y-67223512D01*
X101081569Y-67296670D01*
X101081572Y-67296671D01*
X101087605Y-67299357D01*
X101100609Y-67302121D01*
X101270005Y-67338128D01*
X101270010Y-67338128D01*
X101276462Y-67339500D01*
X101469538Y-67339500D01*
X101475990Y-67338128D01*
X101475995Y-67338128D01*
X101645391Y-67302121D01*
X101658395Y-67299357D01*
X101664428Y-67296671D01*
X101664431Y-67296670D01*
X101828748Y-67223512D01*
X101828751Y-67223510D01*
X101834780Y-67220826D01*
X101853105Y-67207512D01*
X101985638Y-67111221D01*
X101985640Y-67111219D01*
X101990982Y-67107338D01*
X102005839Y-67090838D01*
X102021543Y-67073397D01*
X102081989Y-67036158D01*
X102152973Y-67037510D01*
X102208815Y-67073398D01*
X102224518Y-67090838D01*
X102380720Y-67204326D01*
X102386749Y-67207010D01*
X102386752Y-67207012D01*
X102551069Y-67280170D01*
X102551072Y-67280171D01*
X102557105Y-67282857D01*
X102579353Y-67287586D01*
X102739505Y-67321628D01*
X102739510Y-67321628D01*
X102745962Y-67323000D01*
X102939038Y-67323000D01*
X102945490Y-67321628D01*
X102945495Y-67321628D01*
X103105647Y-67287586D01*
X103127895Y-67282857D01*
X103133928Y-67280171D01*
X103133931Y-67280170D01*
X103298248Y-67207012D01*
X103298251Y-67207010D01*
X103304280Y-67204326D01*
X103460482Y-67090838D01*
X103525919Y-67018163D01*
X103585256Y-66952262D01*
X103585257Y-66952261D01*
X103589675Y-66947354D01*
X103676687Y-66796645D01*
X103682909Y-66785868D01*
X103682910Y-66785867D01*
X103686213Y-66780145D01*
X103745877Y-66596519D01*
X103747445Y-66597028D01*
X103777241Y-66541833D01*
X103839389Y-66507510D01*
X103866763Y-66504500D01*
X104153629Y-66504500D01*
X104221750Y-66524502D01*
X104268243Y-66578158D01*
X104276875Y-66604300D01*
X104277333Y-66606454D01*
X104278023Y-66613019D01*
X104337687Y-66796645D01*
X104434225Y-66963854D01*
X104438643Y-66968761D01*
X104438644Y-66968762D01*
X104558996Y-67102427D01*
X104563418Y-67107338D01*
X104719620Y-67220826D01*
X104725649Y-67223510D01*
X104725652Y-67223512D01*
X104889969Y-67296670D01*
X104889972Y-67296671D01*
X104896005Y-67299357D01*
X104909009Y-67302121D01*
X105078405Y-67338128D01*
X105078410Y-67338128D01*
X105084862Y-67339500D01*
X105277938Y-67339500D01*
X105284390Y-67338128D01*
X105284395Y-67338128D01*
X105453791Y-67302121D01*
X105466795Y-67299357D01*
X105472828Y-67296671D01*
X105472831Y-67296670D01*
X105637148Y-67223512D01*
X105637151Y-67223510D01*
X105643180Y-67220826D01*
X105799382Y-67107338D01*
X105803804Y-67102427D01*
X105924156Y-66968762D01*
X105924157Y-66968761D01*
X105928575Y-66963854D01*
X106025113Y-66796645D01*
X106084777Y-66613019D01*
X106087645Y-66613951D01*
X106115223Y-66562990D01*
X106177407Y-66528730D01*
X106248241Y-66533528D01*
X106293750Y-66562654D01*
X106672731Y-66941636D01*
X106894353Y-67163258D01*
X106901887Y-67171537D01*
X106906000Y-67178018D01*
X106951586Y-67220826D01*
X106955651Y-67224643D01*
X106958493Y-67227398D01*
X106978230Y-67247135D01*
X106981427Y-67249615D01*
X106990447Y-67257318D01*
X107022679Y-67287586D01*
X107029625Y-67291405D01*
X107029628Y-67291407D01*
X107040434Y-67297348D01*
X107056953Y-67308199D01*
X107072959Y-67320614D01*
X107080228Y-67323759D01*
X107080232Y-67323762D01*
X107113537Y-67338174D01*
X107124187Y-67343391D01*
X107162940Y-67364695D01*
X107170615Y-67366666D01*
X107170616Y-67366666D01*
X107182562Y-67369733D01*
X107201267Y-67376137D01*
X107219855Y-67384181D01*
X107227678Y-67385420D01*
X107227688Y-67385423D01*
X107263524Y-67391099D01*
X107275144Y-67393505D01*
X107298616Y-67399531D01*
X107317970Y-67404500D01*
X107338224Y-67404500D01*
X107357934Y-67406051D01*
X107377943Y-67409220D01*
X107385835Y-67408474D01*
X107421961Y-67405059D01*
X107433819Y-67404500D01*
X108350613Y-67404500D01*
X108418734Y-67424502D01*
X108439709Y-67441405D01*
X108611562Y-67613259D01*
X108619095Y-67621537D01*
X108623208Y-67628018D01*
X108628987Y-67633445D01*
X108628989Y-67633447D01*
X108672843Y-67674627D01*
X108675689Y-67677385D01*
X108684290Y-67685986D01*
X108695438Y-67697135D01*
X108698635Y-67699615D01*
X108707655Y-67707318D01*
X108739887Y-67737586D01*
X108746833Y-67741405D01*
X108746836Y-67741407D01*
X108757642Y-67747348D01*
X108774161Y-67758199D01*
X108790167Y-67770614D01*
X108797436Y-67773759D01*
X108797440Y-67773762D01*
X108830745Y-67788174D01*
X108841395Y-67793391D01*
X108880148Y-67814695D01*
X108887823Y-67816666D01*
X108887824Y-67816666D01*
X108899770Y-67819733D01*
X108918474Y-67826137D01*
X108929787Y-67831033D01*
X108929791Y-67831034D01*
X108937063Y-67834181D01*
X108944889Y-67835421D01*
X108950993Y-67837194D01*
X109010827Y-67875408D01*
X109029200Y-67904208D01*
X109029819Y-67906113D01*
X109033123Y-67911836D01*
X109033124Y-67911838D01*
X109062541Y-67962790D01*
X109126357Y-68073322D01*
X109130775Y-68078229D01*
X109130776Y-68078230D01*
X109210341Y-68166596D01*
X109255550Y-68216806D01*
X109355388Y-68289343D01*
X109404353Y-68324918D01*
X109411752Y-68330294D01*
X109417781Y-68332978D01*
X109417784Y-68332980D01*
X109582101Y-68406138D01*
X109582104Y-68406139D01*
X109588137Y-68408825D01*
X109630070Y-68417738D01*
X109770537Y-68447596D01*
X109770542Y-68447596D01*
X109776994Y-68448968D01*
X109873500Y-68448968D01*
X109941621Y-68468970D01*
X109988114Y-68522626D01*
X109999500Y-68574968D01*
X109999500Y-70221268D01*
X109998973Y-70232451D01*
X109997298Y-70239944D01*
X109997547Y-70247870D01*
X109997547Y-70247871D01*
X109999438Y-70308021D01*
X109999500Y-70311980D01*
X109999500Y-70339891D01*
X109999997Y-70343825D01*
X109999997Y-70343826D01*
X110000005Y-70343891D01*
X110000938Y-70355728D01*
X110002327Y-70399924D01*
X110007978Y-70419374D01*
X110011987Y-70438735D01*
X110014526Y-70458832D01*
X110017445Y-70466203D01*
X110017445Y-70466205D01*
X110030804Y-70499947D01*
X110034649Y-70511177D01*
X110046982Y-70553628D01*
X110051015Y-70560447D01*
X110051017Y-70560452D01*
X110057293Y-70571063D01*
X110065988Y-70588811D01*
X110073448Y-70607652D01*
X110078110Y-70614068D01*
X110078110Y-70614069D01*
X110099436Y-70643422D01*
X110105952Y-70653342D01*
X110128458Y-70691397D01*
X110142779Y-70705718D01*
X110155619Y-70720751D01*
X110167528Y-70737142D01*
X110173634Y-70742193D01*
X110201605Y-70765333D01*
X110210384Y-70773323D01*
X110857195Y-71420134D01*
X110891221Y-71482446D01*
X110894100Y-71509229D01*
X110894100Y-76471170D01*
X110874098Y-76539291D01*
X110857195Y-76560266D01*
X110573856Y-76843604D01*
X110298742Y-77118718D01*
X110290463Y-77126252D01*
X110283982Y-77130365D01*
X110238007Y-77179324D01*
X110237357Y-77180016D01*
X110234602Y-77182858D01*
X110214865Y-77202595D01*
X110212385Y-77205792D01*
X110204682Y-77214812D01*
X110174414Y-77247044D01*
X110170595Y-77253990D01*
X110170593Y-77253993D01*
X110164652Y-77264799D01*
X110153801Y-77281318D01*
X110141386Y-77297324D01*
X110138241Y-77304593D01*
X110138238Y-77304597D01*
X110123826Y-77337902D01*
X110118609Y-77348552D01*
X110097305Y-77387305D01*
X110095334Y-77394980D01*
X110095334Y-77394981D01*
X110092267Y-77406927D01*
X110085863Y-77425631D01*
X110077819Y-77444220D01*
X110076580Y-77452043D01*
X110076577Y-77452053D01*
X110070901Y-77487889D01*
X110068495Y-77499509D01*
X110057500Y-77542335D01*
X110057500Y-77562589D01*
X110055949Y-77582299D01*
X110052780Y-77602308D01*
X110053526Y-77610200D01*
X110056941Y-77646326D01*
X110057500Y-77658184D01*
X110057500Y-79561500D01*
X110037498Y-79629621D01*
X109983842Y-79676114D01*
X109931500Y-79687500D01*
X102839842Y-79687500D01*
X102771721Y-79667498D01*
X102750746Y-79650595D01*
X102459394Y-79359242D01*
X102451860Y-79350963D01*
X102447747Y-79344482D01*
X102398095Y-79297856D01*
X102395254Y-79295102D01*
X102375517Y-79275365D01*
X102372320Y-79272885D01*
X102363298Y-79265180D01*
X102349869Y-79252569D01*
X102331068Y-79234914D01*
X102324122Y-79231095D01*
X102324119Y-79231093D01*
X102313313Y-79225152D01*
X102296794Y-79214301D01*
X102296330Y-79213941D01*
X102280788Y-79201886D01*
X102273519Y-79198741D01*
X102273515Y-79198738D01*
X102240210Y-79184326D01*
X102229560Y-79179109D01*
X102190807Y-79157805D01*
X102171184Y-79152767D01*
X102152481Y-79146363D01*
X102141167Y-79141467D01*
X102141166Y-79141467D01*
X102133892Y-79138319D01*
X102126069Y-79137080D01*
X102126059Y-79137077D01*
X102090223Y-79131401D01*
X102078603Y-79128995D01*
X102043458Y-79119972D01*
X102043457Y-79119972D01*
X102035777Y-79118000D01*
X102015523Y-79118000D01*
X101995812Y-79116449D01*
X101983633Y-79114520D01*
X101975804Y-79113280D01*
X101946533Y-79116047D01*
X101931786Y-79117441D01*
X101919928Y-79118000D01*
X101402533Y-79118000D01*
X101391350Y-79117473D01*
X101383857Y-79115798D01*
X101375931Y-79116047D01*
X101375930Y-79116047D01*
X101315767Y-79117938D01*
X101311809Y-79118000D01*
X101283910Y-79118000D01*
X101279920Y-79118504D01*
X101268086Y-79119436D01*
X101223877Y-79120826D01*
X101216263Y-79123038D01*
X101216258Y-79123039D01*
X101204425Y-79126477D01*
X101185062Y-79130488D01*
X101164969Y-79133026D01*
X101157602Y-79135943D01*
X101157597Y-79135944D01*
X101123858Y-79149302D01*
X101112631Y-79153146D01*
X101070173Y-79165482D01*
X101063347Y-79169519D01*
X101052738Y-79175793D01*
X101034990Y-79184488D01*
X101016149Y-79191948D01*
X101009733Y-79196610D01*
X101009732Y-79196610D01*
X100980379Y-79217936D01*
X100970459Y-79224452D01*
X100939231Y-79242920D01*
X100939228Y-79242922D01*
X100932404Y-79246958D01*
X100918083Y-79261279D01*
X100903050Y-79274119D01*
X100886659Y-79286028D01*
X100881606Y-79292136D01*
X100858474Y-79320098D01*
X100850484Y-79328878D01*
X100648267Y-79531095D01*
X100585955Y-79565121D01*
X100559172Y-79568000D01*
X100485362Y-79568000D01*
X100478910Y-79569372D01*
X100478905Y-79569372D01*
X100390933Y-79588072D01*
X100296505Y-79608143D01*
X100290475Y-79610828D01*
X100290474Y-79610828D01*
X100126151Y-79683989D01*
X100126149Y-79683990D01*
X100120121Y-79686674D01*
X100114780Y-79690554D01*
X100114779Y-79690555D01*
X100042931Y-79742756D01*
X99963918Y-79800162D01*
X99959497Y-79805072D01*
X99959496Y-79805073D01*
X99848723Y-79928100D01*
X99834725Y-79943646D01*
X99738187Y-80110855D01*
X99678523Y-80294481D01*
X99677833Y-80301044D01*
X99677833Y-80301045D01*
X99659641Y-80474131D01*
X99632628Y-80539787D01*
X99574406Y-80580417D01*
X99503461Y-80583120D01*
X99442317Y-80547038D01*
X99425212Y-80523960D01*
X99369257Y-80427043D01*
X99349975Y-80393646D01*
X99220782Y-80250162D01*
X99064580Y-80136674D01*
X99058551Y-80133990D01*
X99058548Y-80133988D01*
X98894231Y-80060830D01*
X98894228Y-80060829D01*
X98888195Y-80058143D01*
X98846262Y-80049230D01*
X98705795Y-80019372D01*
X98705790Y-80019372D01*
X98699338Y-80018000D01*
X98506262Y-80018000D01*
X98499810Y-80019372D01*
X98499805Y-80019372D01*
X98411833Y-80038072D01*
X98317405Y-80058143D01*
X98311375Y-80060828D01*
X98311374Y-80060828D01*
X98147051Y-80133989D01*
X98147049Y-80133990D01*
X98141021Y-80136674D01*
X98135680Y-80140554D01*
X98135679Y-80140555D01*
X98035830Y-80213100D01*
X97984818Y-80250162D01*
X97855625Y-80393646D01*
X97852324Y-80399364D01*
X97852293Y-80399407D01*
X97796069Y-80442760D01*
X97725333Y-80448834D01*
X97699108Y-80440450D01*
X97675030Y-80429729D01*
X97675022Y-80429726D01*
X97668995Y-80427043D01*
X97574567Y-80406972D01*
X97486595Y-80388272D01*
X97486590Y-80388272D01*
X97480138Y-80386900D01*
X97287062Y-80386900D01*
X97280610Y-80388272D01*
X97280605Y-80388272D01*
X97192633Y-80406972D01*
X97098205Y-80427043D01*
X97092175Y-80429728D01*
X97092174Y-80429728D01*
X96927851Y-80502889D01*
X96927849Y-80502890D01*
X96921821Y-80505574D01*
X96916480Y-80509454D01*
X96916479Y-80509455D01*
X96774756Y-80612423D01*
X96765618Y-80619062D01*
X96761197Y-80623972D01*
X96761196Y-80623973D01*
X96724725Y-80664479D01*
X96636425Y-80762546D01*
X96539887Y-80929755D01*
X96480223Y-81113381D01*
X96479533Y-81119944D01*
X96479533Y-81119945D01*
X96468781Y-81222245D01*
X96460041Y-81305400D01*
X96460731Y-81311965D01*
X96472509Y-81424021D01*
X96480223Y-81497419D01*
X96482263Y-81503696D01*
X96482263Y-81503698D01*
X96539887Y-81681045D01*
X96538377Y-81681535D01*
X96547000Y-81722106D01*
X96547000Y-82874000D01*
X96526998Y-82942121D01*
X96473342Y-82988614D01*
X96421000Y-83000000D01*
X96165000Y-83000000D01*
X96096879Y-82979998D01*
X96050386Y-82926342D01*
X96039000Y-82874000D01*
X96039000Y-81506116D01*
X96034525Y-81490877D01*
X96033135Y-81489672D01*
X96025452Y-81488001D01*
X95798331Y-81488001D01*
X95791510Y-81488371D01*
X95740648Y-81493895D01*
X95725393Y-81497522D01*
X95678729Y-81515015D01*
X95607922Y-81520198D01*
X95545553Y-81486277D01*
X95511424Y-81424021D01*
X95508500Y-81397033D01*
X95508500Y-76770669D01*
X101075001Y-76770669D01*
X101075371Y-76777490D01*
X101080895Y-76828352D01*
X101084521Y-76843604D01*
X101129676Y-76964054D01*
X101138214Y-76979649D01*
X101214715Y-77081724D01*
X101227276Y-77094285D01*
X101329351Y-77170786D01*
X101344946Y-77179324D01*
X101465394Y-77224478D01*
X101480649Y-77228105D01*
X101531514Y-77233631D01*
X101538328Y-77234000D01*
X101835885Y-77234000D01*
X101851124Y-77229525D01*
X101852329Y-77228135D01*
X101854000Y-77220452D01*
X101854000Y-77215884D01*
X102362000Y-77215884D01*
X102366475Y-77231123D01*
X102367865Y-77232328D01*
X102375548Y-77233999D01*
X102677669Y-77233999D01*
X102684490Y-77233629D01*
X102735350Y-77228105D01*
X102750607Y-77224478D01*
X102826271Y-77196113D01*
X102897078Y-77190930D01*
X102914729Y-77196113D01*
X102990398Y-77224480D01*
X103005643Y-77228105D01*
X103056514Y-77233631D01*
X103063328Y-77234000D01*
X103360885Y-77234000D01*
X103376124Y-77229525D01*
X103377329Y-77228135D01*
X103379000Y-77220452D01*
X103379000Y-77215884D01*
X103887000Y-77215884D01*
X103891475Y-77231123D01*
X103892865Y-77232328D01*
X103900548Y-77233999D01*
X104202669Y-77233999D01*
X104209490Y-77233629D01*
X104260350Y-77228105D01*
X104275607Y-77224478D01*
X104351271Y-77196113D01*
X104422078Y-77190930D01*
X104439729Y-77196113D01*
X104515398Y-77224480D01*
X104530643Y-77228105D01*
X104581514Y-77233631D01*
X104588328Y-77234000D01*
X104885885Y-77234000D01*
X104901124Y-77229525D01*
X104902329Y-77228135D01*
X104904000Y-77220452D01*
X104904000Y-77215884D01*
X105412000Y-77215884D01*
X105416475Y-77231123D01*
X105417865Y-77232328D01*
X105425548Y-77233999D01*
X105727669Y-77233999D01*
X105734490Y-77233629D01*
X105785352Y-77228105D01*
X105800604Y-77224479D01*
X105921054Y-77179324D01*
X105936649Y-77170786D01*
X106038724Y-77094285D01*
X106051285Y-77081724D01*
X106127786Y-76979649D01*
X106136324Y-76964054D01*
X106181478Y-76843606D01*
X106185105Y-76828351D01*
X106190631Y-76777486D01*
X106191000Y-76770672D01*
X106191000Y-76473115D01*
X106186525Y-76457876D01*
X106185135Y-76456671D01*
X106177452Y-76455000D01*
X105430115Y-76455000D01*
X105414876Y-76459475D01*
X105413671Y-76460865D01*
X105412000Y-76468548D01*
X105412000Y-77215884D01*
X104904000Y-77215884D01*
X104904000Y-76473115D01*
X104899525Y-76457876D01*
X104898135Y-76456671D01*
X104890452Y-76455000D01*
X103905115Y-76455000D01*
X103889876Y-76459475D01*
X103888671Y-76460865D01*
X103887000Y-76468548D01*
X103887000Y-77215884D01*
X103379000Y-77215884D01*
X103379000Y-76473115D01*
X103374525Y-76457876D01*
X103373135Y-76456671D01*
X103365452Y-76455000D01*
X102380115Y-76455000D01*
X102364876Y-76459475D01*
X102363671Y-76460865D01*
X102362000Y-76468548D01*
X102362000Y-77215884D01*
X101854000Y-77215884D01*
X101854000Y-76473115D01*
X101849525Y-76457876D01*
X101848135Y-76456671D01*
X101840452Y-76455000D01*
X101093116Y-76455000D01*
X101077877Y-76459475D01*
X101076672Y-76460865D01*
X101075001Y-76468548D01*
X101075001Y-76770669D01*
X95508500Y-76770669D01*
X95508500Y-75928885D01*
X101075000Y-75928885D01*
X101079475Y-75944124D01*
X101080865Y-75945329D01*
X101088548Y-75947000D01*
X101835885Y-75947000D01*
X101851124Y-75942525D01*
X101852329Y-75941135D01*
X101854000Y-75933452D01*
X101854000Y-75928885D01*
X102362000Y-75928885D01*
X102366475Y-75944124D01*
X102367865Y-75945329D01*
X102375548Y-75947000D01*
X103360885Y-75947000D01*
X103376124Y-75942525D01*
X103377329Y-75941135D01*
X103379000Y-75933452D01*
X103379000Y-75928885D01*
X103887000Y-75928885D01*
X103891475Y-75944124D01*
X103892865Y-75945329D01*
X103900548Y-75947000D01*
X104885885Y-75947000D01*
X104901124Y-75942525D01*
X104902329Y-75941135D01*
X104904000Y-75933452D01*
X104904000Y-75928885D01*
X105412000Y-75928885D01*
X105416475Y-75944124D01*
X105417865Y-75945329D01*
X105425548Y-75947000D01*
X106172884Y-75947000D01*
X106188123Y-75942525D01*
X106189328Y-75941135D01*
X106190999Y-75933452D01*
X106190999Y-75631331D01*
X106190629Y-75624510D01*
X106185105Y-75573650D01*
X106181478Y-75558393D01*
X106153113Y-75482729D01*
X106147930Y-75411922D01*
X106153113Y-75394271D01*
X106181480Y-75318602D01*
X106185105Y-75303357D01*
X106190631Y-75252486D01*
X106191000Y-75245672D01*
X106191000Y-74948115D01*
X106186525Y-74932876D01*
X106185135Y-74931671D01*
X106177452Y-74930000D01*
X105430115Y-74930000D01*
X105414876Y-74934475D01*
X105413671Y-74935865D01*
X105412000Y-74943548D01*
X105412000Y-75928885D01*
X104904000Y-75928885D01*
X104904000Y-74948115D01*
X104899525Y-74932876D01*
X104898135Y-74931671D01*
X104890452Y-74930000D01*
X103905115Y-74930000D01*
X103889876Y-74934475D01*
X103888671Y-74935865D01*
X103887000Y-74943548D01*
X103887000Y-75928885D01*
X103379000Y-75928885D01*
X103379000Y-74948115D01*
X103374525Y-74932876D01*
X103373135Y-74931671D01*
X103365452Y-74930000D01*
X102380115Y-74930000D01*
X102364876Y-74934475D01*
X102363671Y-74935865D01*
X102362000Y-74943548D01*
X102362000Y-75928885D01*
X101854000Y-75928885D01*
X101854000Y-74948115D01*
X101849525Y-74932876D01*
X101848135Y-74931671D01*
X101840452Y-74930000D01*
X101093116Y-74930000D01*
X101077877Y-74934475D01*
X101076672Y-74935865D01*
X101075001Y-74943548D01*
X101075001Y-75245669D01*
X101075371Y-75252490D01*
X101080895Y-75303350D01*
X101084522Y-75318607D01*
X101112887Y-75394271D01*
X101118070Y-75465078D01*
X101112887Y-75482729D01*
X101084520Y-75558398D01*
X101080895Y-75573643D01*
X101075369Y-75624514D01*
X101075000Y-75631328D01*
X101075000Y-75928885D01*
X95508500Y-75928885D01*
X95508500Y-74403885D01*
X101075000Y-74403885D01*
X101079475Y-74419124D01*
X101080865Y-74420329D01*
X101088548Y-74422000D01*
X101835885Y-74422000D01*
X101851124Y-74417525D01*
X101852329Y-74416135D01*
X101854000Y-74408452D01*
X101854000Y-74403885D01*
X102362000Y-74403885D01*
X102366475Y-74419124D01*
X102367865Y-74420329D01*
X102375548Y-74422000D01*
X103360885Y-74422000D01*
X103376124Y-74417525D01*
X103377329Y-74416135D01*
X103379000Y-74408452D01*
X103379000Y-74403885D01*
X103887000Y-74403885D01*
X103891475Y-74419124D01*
X103892865Y-74420329D01*
X103900548Y-74422000D01*
X104885885Y-74422000D01*
X104901124Y-74417525D01*
X104902329Y-74416135D01*
X104904000Y-74408452D01*
X104904000Y-74403885D01*
X105412000Y-74403885D01*
X105416475Y-74419124D01*
X105417865Y-74420329D01*
X105425548Y-74422000D01*
X106172884Y-74422000D01*
X106188123Y-74417525D01*
X106189328Y-74416135D01*
X106190999Y-74408452D01*
X106190999Y-74106331D01*
X106190629Y-74099510D01*
X106185105Y-74048650D01*
X106181478Y-74033393D01*
X106153113Y-73957729D01*
X106147930Y-73886922D01*
X106153113Y-73869271D01*
X106181480Y-73793602D01*
X106185105Y-73778357D01*
X106190631Y-73727486D01*
X106191000Y-73720672D01*
X106191000Y-73423115D01*
X106186525Y-73407876D01*
X106185135Y-73406671D01*
X106177452Y-73405000D01*
X105430115Y-73405000D01*
X105414876Y-73409475D01*
X105413671Y-73410865D01*
X105412000Y-73418548D01*
X105412000Y-74403885D01*
X104904000Y-74403885D01*
X104904000Y-73423115D01*
X104899525Y-73407876D01*
X104898135Y-73406671D01*
X104890452Y-73405000D01*
X103905115Y-73405000D01*
X103889876Y-73409475D01*
X103888671Y-73410865D01*
X103887000Y-73418548D01*
X103887000Y-74403885D01*
X103379000Y-74403885D01*
X103379000Y-73423115D01*
X103374525Y-73407876D01*
X103373135Y-73406671D01*
X103365452Y-73405000D01*
X102380115Y-73405000D01*
X102364876Y-73409475D01*
X102363671Y-73410865D01*
X102362000Y-73418548D01*
X102362000Y-74403885D01*
X101854000Y-74403885D01*
X101854000Y-73423115D01*
X101849525Y-73407876D01*
X101848135Y-73406671D01*
X101840452Y-73405000D01*
X101093116Y-73405000D01*
X101077877Y-73409475D01*
X101076672Y-73410865D01*
X101075001Y-73418548D01*
X101075001Y-73720669D01*
X101075371Y-73727490D01*
X101080895Y-73778350D01*
X101084522Y-73793607D01*
X101112887Y-73869271D01*
X101118070Y-73940078D01*
X101112887Y-73957729D01*
X101084520Y-74033398D01*
X101080895Y-74048643D01*
X101075369Y-74099514D01*
X101075000Y-74106328D01*
X101075000Y-74403885D01*
X95508500Y-74403885D01*
X95508500Y-72878885D01*
X101075000Y-72878885D01*
X101079475Y-72894124D01*
X101080865Y-72895329D01*
X101088548Y-72897000D01*
X101835885Y-72897000D01*
X101851124Y-72892525D01*
X101852329Y-72891135D01*
X101854000Y-72883452D01*
X101854000Y-72878885D01*
X102362000Y-72878885D01*
X102366475Y-72894124D01*
X102367865Y-72895329D01*
X102375548Y-72897000D01*
X103360885Y-72897000D01*
X103376124Y-72892525D01*
X103377329Y-72891135D01*
X103379000Y-72883452D01*
X103379000Y-72878885D01*
X103887000Y-72878885D01*
X103891475Y-72894124D01*
X103892865Y-72895329D01*
X103900548Y-72897000D01*
X104885885Y-72897000D01*
X104901124Y-72892525D01*
X104902329Y-72891135D01*
X104904000Y-72883452D01*
X104904000Y-72878885D01*
X105412000Y-72878885D01*
X105416475Y-72894124D01*
X105417865Y-72895329D01*
X105425548Y-72897000D01*
X106172884Y-72897000D01*
X106188123Y-72892525D01*
X106189328Y-72891135D01*
X106190999Y-72883452D01*
X106190999Y-72581331D01*
X106190629Y-72574510D01*
X106185105Y-72523648D01*
X106181479Y-72508396D01*
X106136324Y-72387946D01*
X106127786Y-72372351D01*
X106051285Y-72270276D01*
X106038724Y-72257715D01*
X105936649Y-72181214D01*
X105921054Y-72172676D01*
X105800606Y-72127522D01*
X105785351Y-72123895D01*
X105734486Y-72118369D01*
X105727672Y-72118000D01*
X105430115Y-72118000D01*
X105414876Y-72122475D01*
X105413671Y-72123865D01*
X105412000Y-72131548D01*
X105412000Y-72878885D01*
X104904000Y-72878885D01*
X104904000Y-72136116D01*
X104899525Y-72120877D01*
X104898135Y-72119672D01*
X104890452Y-72118001D01*
X104588331Y-72118001D01*
X104581510Y-72118371D01*
X104530650Y-72123895D01*
X104515393Y-72127522D01*
X104439729Y-72155887D01*
X104368922Y-72161070D01*
X104351271Y-72155887D01*
X104275602Y-72127520D01*
X104260357Y-72123895D01*
X104209486Y-72118369D01*
X104202672Y-72118000D01*
X103905115Y-72118000D01*
X103889876Y-72122475D01*
X103888671Y-72123865D01*
X103887000Y-72131548D01*
X103887000Y-72878885D01*
X103379000Y-72878885D01*
X103379000Y-72136116D01*
X103374525Y-72120877D01*
X103373135Y-72119672D01*
X103365452Y-72118001D01*
X103063331Y-72118001D01*
X103056510Y-72118371D01*
X103005650Y-72123895D01*
X102990393Y-72127522D01*
X102914729Y-72155887D01*
X102843922Y-72161070D01*
X102826271Y-72155887D01*
X102750602Y-72127520D01*
X102735357Y-72123895D01*
X102684486Y-72118369D01*
X102677672Y-72118000D01*
X102380115Y-72118000D01*
X102364876Y-72122475D01*
X102363671Y-72123865D01*
X102362000Y-72131548D01*
X102362000Y-72878885D01*
X101854000Y-72878885D01*
X101854000Y-72136116D01*
X101849525Y-72120877D01*
X101848135Y-72119672D01*
X101840452Y-72118001D01*
X101538331Y-72118001D01*
X101531510Y-72118371D01*
X101480648Y-72123895D01*
X101465396Y-72127521D01*
X101344946Y-72172676D01*
X101329351Y-72181214D01*
X101227276Y-72257715D01*
X101214715Y-72270276D01*
X101138214Y-72372351D01*
X101129676Y-72387946D01*
X101084522Y-72508394D01*
X101080895Y-72523649D01*
X101075369Y-72574514D01*
X101075000Y-72581328D01*
X101075000Y-72878885D01*
X95508500Y-72878885D01*
X95508500Y-66594967D01*
X95528502Y-66526846D01*
X95582158Y-66480353D01*
X95652432Y-66470249D01*
X95678729Y-66476985D01*
X95725391Y-66494478D01*
X95740649Y-66498105D01*
X95791514Y-66503631D01*
X95798328Y-66504000D01*
X96020885Y-66504000D01*
X96036124Y-66499525D01*
X96037329Y-66498135D01*
X96039000Y-66490452D01*
X96039000Y-64058555D01*
X96059002Y-63990434D01*
X96098635Y-63956092D01*
X96110729Y-63942135D01*
X96112400Y-63934452D01*
X96112400Y-61856285D01*
X96620400Y-61856285D01*
X96624875Y-61871524D01*
X96626265Y-61872729D01*
X96633948Y-61874400D01*
X97506284Y-61874400D01*
X97521523Y-61869925D01*
X97522728Y-61868535D01*
X97524399Y-61860852D01*
X97524399Y-61006305D01*
X97524062Y-60999786D01*
X97514143Y-60904194D01*
X97511251Y-60890800D01*
X97459812Y-60736616D01*
X97453639Y-60723438D01*
X97368337Y-60585593D01*
X97359301Y-60574192D01*
X97244571Y-60459661D01*
X97233160Y-60450649D01*
X97095157Y-60365584D01*
X97081976Y-60359437D01*
X96927690Y-60308262D01*
X96914314Y-60305395D01*
X96819962Y-60295728D01*
X96813545Y-60295400D01*
X96638515Y-60295400D01*
X96623276Y-60299875D01*
X96622071Y-60301265D01*
X96620400Y-60308948D01*
X96620400Y-61856285D01*
X96112400Y-61856285D01*
X96112400Y-60313516D01*
X96107925Y-60298277D01*
X96106535Y-60297072D01*
X96098852Y-60295401D01*
X95919305Y-60295401D01*
X95912786Y-60295738D01*
X95817194Y-60305657D01*
X95803800Y-60308549D01*
X95674376Y-60351728D01*
X95603427Y-60354312D01*
X95542343Y-60318128D01*
X95510518Y-60254664D01*
X95508500Y-60232204D01*
X95508500Y-54429853D01*
X96942977Y-54429853D01*
X96948258Y-54436907D01*
X97109756Y-54531279D01*
X97119042Y-54535729D01*
X97318001Y-54611703D01*
X97327899Y-54614579D01*
X97536595Y-54657038D01*
X97546823Y-54658257D01*
X97759650Y-54666062D01*
X97769936Y-54665595D01*
X97981185Y-54638534D01*
X97991262Y-54636392D01*
X98195255Y-54575191D01*
X98204842Y-54571433D01*
X98396098Y-54477738D01*
X98404944Y-54472465D01*
X98452247Y-54438723D01*
X98460648Y-54428023D01*
X98453660Y-54414870D01*
X97715812Y-53677022D01*
X97701868Y-53669408D01*
X97700035Y-53669539D01*
X97693420Y-53673790D01*
X96949737Y-54417473D01*
X96942977Y-54429853D01*
X95508500Y-54429853D01*
X95508500Y-53276863D01*
X96341050Y-53276863D01*
X96353309Y-53489477D01*
X96354745Y-53499697D01*
X96401565Y-53707446D01*
X96404645Y-53717275D01*
X96484770Y-53914603D01*
X96489413Y-53923794D01*
X96569460Y-54054420D01*
X96579916Y-54063880D01*
X96588694Y-54060096D01*
X97330978Y-53317812D01*
X97338592Y-53303868D01*
X97338461Y-53302035D01*
X97334210Y-53295420D01*
X96592849Y-52554059D01*
X96581313Y-52547759D01*
X96569031Y-52557382D01*
X96521089Y-52627662D01*
X96516004Y-52636613D01*
X96426338Y-52829783D01*
X96422775Y-52839470D01*
X96365864Y-53044681D01*
X96363933Y-53054800D01*
X96341302Y-53266574D01*
X96341050Y-53276863D01*
X95508500Y-53276863D01*
X95508500Y-50634500D01*
X95528502Y-50566379D01*
X95582158Y-50519886D01*
X95634500Y-50508500D01*
X99201418Y-50508500D01*
X99269539Y-50528502D01*
G37*
G04 #@! TD.AperFunction*
G04 #@! TA.AperFunction,Conductor*
G36*
X115217657Y-62374287D02*
G01*
X115249482Y-62437751D01*
X115251500Y-62460212D01*
X115251500Y-67153374D01*
X115255797Y-67224643D01*
X115259326Y-67283186D01*
X115243459Y-67352386D01*
X115192699Y-67402024D01*
X115123160Y-67416339D01*
X115065175Y-67394321D01*
X115064760Y-67395079D01*
X115059304Y-67392092D01*
X115057986Y-67391591D01*
X115049705Y-67385385D01*
X114913316Y-67334255D01*
X114851134Y-67327500D01*
X113254866Y-67327500D01*
X113192684Y-67334255D01*
X113056295Y-67385385D01*
X112939739Y-67472739D01*
X112852385Y-67589295D01*
X112849233Y-67597703D01*
X112844923Y-67605575D01*
X112843631Y-67604868D01*
X112806807Y-67653885D01*
X112777852Y-67670040D01*
X112743097Y-67683800D01*
X112731868Y-67687645D01*
X112708844Y-67694334D01*
X112689407Y-67699981D01*
X112682584Y-67704016D01*
X112671966Y-67710295D01*
X112654213Y-67718992D01*
X112646568Y-67722019D01*
X112635383Y-67726448D01*
X112620053Y-67737586D01*
X112599612Y-67752437D01*
X112589695Y-67758951D01*
X112551638Y-67781458D01*
X112537317Y-67795779D01*
X112522284Y-67808619D01*
X112505893Y-67820528D01*
X112500842Y-67826633D01*
X112500837Y-67826638D01*
X112477706Y-67854598D01*
X112469718Y-67863376D01*
X112381595Y-67951499D01*
X112319283Y-67985525D01*
X112248468Y-67980460D01*
X112191632Y-67937913D01*
X112166821Y-67871393D01*
X112166500Y-67862404D01*
X112166500Y-66629830D01*
X112186502Y-66561709D01*
X112240158Y-66515216D01*
X112299317Y-66504015D01*
X112301480Y-66504132D01*
X112304866Y-66504500D01*
X113301134Y-66504500D01*
X113363316Y-66497745D01*
X113499705Y-66446615D01*
X113616261Y-66359261D01*
X113703615Y-66242705D01*
X113754745Y-66106316D01*
X113761500Y-66044134D01*
X113761500Y-64447866D01*
X113754745Y-64385684D01*
X113703615Y-64249295D01*
X113616261Y-64132739D01*
X113609081Y-64127358D01*
X113609079Y-64127356D01*
X113601990Y-64122043D01*
X113559475Y-64065184D01*
X113554451Y-63994365D01*
X113588511Y-63932072D01*
X113651358Y-63897972D01*
X113834765Y-63858987D01*
X113840798Y-63856301D01*
X113840801Y-63856300D01*
X114005118Y-63783142D01*
X114005121Y-63783140D01*
X114011150Y-63780456D01*
X114167352Y-63666968D01*
X114296545Y-63523484D01*
X114393083Y-63356275D01*
X114428371Y-63247669D01*
X114450707Y-63178928D01*
X114450707Y-63178926D01*
X114452747Y-63172649D01*
X114458716Y-63115863D01*
X114472239Y-62987195D01*
X114472929Y-62980630D01*
X114452747Y-62788611D01*
X114431667Y-62723734D01*
X114425500Y-62684798D01*
X114425500Y-62498500D01*
X114445502Y-62430379D01*
X114499158Y-62383886D01*
X114551500Y-62372500D01*
X114917400Y-62372500D01*
X114920646Y-62372163D01*
X114920650Y-62372163D01*
X115016308Y-62362238D01*
X115016312Y-62362237D01*
X115023166Y-62361526D01*
X115029699Y-62359346D01*
X115029710Y-62359344D01*
X115085623Y-62340689D01*
X115156573Y-62338103D01*
X115217657Y-62374287D01*
G37*
G04 #@! TD.AperFunction*
G04 #@! TA.AperFunction,Conductor*
G36*
X108819406Y-59007315D02*
G01*
X108864493Y-59036235D01*
X108941697Y-59113305D01*
X108947927Y-59117145D01*
X108947928Y-59117146D01*
X109085090Y-59201694D01*
X109092262Y-59206115D01*
X109125182Y-59217034D01*
X109253611Y-59259632D01*
X109253613Y-59259632D01*
X109260139Y-59261797D01*
X109266975Y-59262497D01*
X109266978Y-59262498D01*
X109310031Y-59266909D01*
X109364600Y-59272500D01*
X111615400Y-59272500D01*
X111618646Y-59272163D01*
X111618650Y-59272163D01*
X111714308Y-59262238D01*
X111714312Y-59262237D01*
X111721166Y-59261526D01*
X111727702Y-59259345D01*
X111727704Y-59259345D01*
X111859881Y-59215247D01*
X111888946Y-59205550D01*
X112039348Y-59112478D01*
X112044521Y-59107296D01*
X112044526Y-59107292D01*
X112051913Y-59099892D01*
X112114195Y-59065812D01*
X112185015Y-59070815D01*
X112230103Y-59099735D01*
X112237678Y-59107296D01*
X112243697Y-59113305D01*
X112249927Y-59117145D01*
X112249928Y-59117146D01*
X112387090Y-59201694D01*
X112394262Y-59206115D01*
X112427182Y-59217034D01*
X112555611Y-59259632D01*
X112555613Y-59259632D01*
X112562139Y-59261797D01*
X112568975Y-59262497D01*
X112568978Y-59262498D01*
X112612031Y-59266909D01*
X112666600Y-59272500D01*
X114917400Y-59272500D01*
X114920646Y-59272163D01*
X114920650Y-59272163D01*
X115016308Y-59262238D01*
X115016312Y-59262237D01*
X115023166Y-59261526D01*
X115029702Y-59259345D01*
X115029704Y-59259345D01*
X115161881Y-59215247D01*
X115190946Y-59205550D01*
X115341348Y-59112478D01*
X115342707Y-59114675D01*
X115397279Y-59092580D01*
X115467044Y-59105744D01*
X115518618Y-59154537D01*
X115535744Y-59218432D01*
X115533594Y-59794912D01*
X115532574Y-60068368D01*
X115532426Y-60107911D01*
X115512170Y-60175957D01*
X115458341Y-60222249D01*
X115388030Y-60232091D01*
X115341530Y-60212704D01*
X115340303Y-60214695D01*
X115195968Y-60125725D01*
X115195966Y-60125724D01*
X115189738Y-60121885D01*
X115029254Y-60068655D01*
X115028389Y-60068368D01*
X115028387Y-60068368D01*
X115021861Y-60066203D01*
X115015025Y-60065503D01*
X115015022Y-60065502D01*
X114964228Y-60060298D01*
X114917400Y-60055500D01*
X112666600Y-60055500D01*
X112663354Y-60055837D01*
X112663350Y-60055837D01*
X112567692Y-60065762D01*
X112567688Y-60065763D01*
X112560834Y-60066474D01*
X112554298Y-60068655D01*
X112554296Y-60068655D01*
X112422194Y-60112728D01*
X112393054Y-60122450D01*
X112242652Y-60215522D01*
X112237479Y-60220704D01*
X112237474Y-60220708D01*
X112230087Y-60228108D01*
X112167805Y-60262188D01*
X112096985Y-60257185D01*
X112051897Y-60228265D01*
X112043484Y-60219867D01*
X112043483Y-60219866D01*
X112038303Y-60214695D01*
X112032072Y-60210854D01*
X111893968Y-60125725D01*
X111893966Y-60125724D01*
X111887738Y-60121885D01*
X111727254Y-60068655D01*
X111726389Y-60068368D01*
X111726387Y-60068368D01*
X111719861Y-60066203D01*
X111713025Y-60065503D01*
X111713022Y-60065502D01*
X111662228Y-60060298D01*
X111615400Y-60055500D01*
X109364600Y-60055500D01*
X109361354Y-60055837D01*
X109361350Y-60055837D01*
X109265692Y-60065762D01*
X109265688Y-60065763D01*
X109258834Y-60066474D01*
X109252298Y-60068655D01*
X109252296Y-60068655D01*
X109120194Y-60112728D01*
X109091054Y-60122450D01*
X108940652Y-60215522D01*
X108935479Y-60220704D01*
X108864697Y-60291609D01*
X108802414Y-60325688D01*
X108731594Y-60320685D01*
X108686506Y-60291764D01*
X108653360Y-60258675D01*
X108609303Y-60214695D01*
X108603072Y-60210854D01*
X108464968Y-60125725D01*
X108464966Y-60125724D01*
X108458738Y-60121885D01*
X108298254Y-60068655D01*
X108297389Y-60068368D01*
X108297387Y-60068368D01*
X108290861Y-60066203D01*
X108284025Y-60065503D01*
X108284022Y-60065502D01*
X108233228Y-60060298D01*
X108186400Y-60055500D01*
X105935600Y-60055500D01*
X105932354Y-60055837D01*
X105932350Y-60055837D01*
X105836692Y-60065762D01*
X105836688Y-60065763D01*
X105829834Y-60066474D01*
X105823298Y-60068655D01*
X105823296Y-60068655D01*
X105691194Y-60112728D01*
X105662054Y-60122450D01*
X105511652Y-60215522D01*
X105506479Y-60220704D01*
X105435697Y-60291609D01*
X105373414Y-60325688D01*
X105302594Y-60320685D01*
X105257506Y-60291764D01*
X105224360Y-60258675D01*
X105180303Y-60214695D01*
X105174072Y-60210854D01*
X105035968Y-60125725D01*
X105035966Y-60125724D01*
X105029738Y-60121885D01*
X104869254Y-60068655D01*
X104868389Y-60068368D01*
X104868387Y-60068368D01*
X104861861Y-60066203D01*
X104855025Y-60065503D01*
X104855022Y-60065502D01*
X104804228Y-60060298D01*
X104757400Y-60055500D01*
X102506600Y-60055500D01*
X102503354Y-60055837D01*
X102503350Y-60055837D01*
X102407692Y-60065762D01*
X102407688Y-60065763D01*
X102400834Y-60066474D01*
X102394298Y-60068655D01*
X102394296Y-60068655D01*
X102262194Y-60112728D01*
X102233054Y-60122450D01*
X102082652Y-60215522D01*
X101957695Y-60340697D01*
X101953855Y-60346927D01*
X101953854Y-60346928D01*
X101896495Y-60439982D01*
X101864885Y-60491262D01*
X101841593Y-60561487D01*
X101812974Y-60647771D01*
X101809203Y-60659139D01*
X101798500Y-60763600D01*
X101798500Y-61664400D01*
X101809474Y-61770166D01*
X101865450Y-61937946D01*
X101958522Y-62088348D01*
X102083697Y-62213305D01*
X102089927Y-62217145D01*
X102089928Y-62217146D01*
X102227090Y-62301694D01*
X102234262Y-62306115D01*
X102314005Y-62332564D01*
X102395611Y-62359632D01*
X102395613Y-62359632D01*
X102402139Y-62361797D01*
X102408975Y-62362497D01*
X102408978Y-62362498D01*
X102452031Y-62366909D01*
X102506600Y-62372500D01*
X102707663Y-62372500D01*
X102775784Y-62392502D01*
X102822277Y-62446158D01*
X102832381Y-62516432D01*
X102816782Y-62561500D01*
X102788287Y-62610855D01*
X102728623Y-62794481D01*
X102727933Y-62801044D01*
X102727933Y-62801045D01*
X102709684Y-62974671D01*
X102682671Y-63040328D01*
X102624449Y-63080957D01*
X102584374Y-63087500D01*
X101882991Y-63087500D01*
X101814870Y-63067498D01*
X101793895Y-63050595D01*
X101381404Y-62638103D01*
X101347379Y-62575791D01*
X101344500Y-62549008D01*
X101344500Y-61290595D01*
X101345027Y-61279412D01*
X101346702Y-61271919D01*
X101344562Y-61203828D01*
X101344500Y-61199871D01*
X101344500Y-61171971D01*
X101343996Y-61167980D01*
X101343063Y-61156138D01*
X101341923Y-61119863D01*
X101341674Y-61111938D01*
X101336021Y-61092479D01*
X101332012Y-61073120D01*
X101330512Y-61061249D01*
X101329474Y-61053030D01*
X101326558Y-61045664D01*
X101326556Y-61045658D01*
X101313200Y-61011925D01*
X101309355Y-61000695D01*
X101299230Y-60965844D01*
X101299230Y-60965843D01*
X101297019Y-60958234D01*
X101286705Y-60940793D01*
X101278008Y-60923040D01*
X101273472Y-60911585D01*
X101270552Y-60904210D01*
X101244563Y-60868439D01*
X101238047Y-60858519D01*
X101219578Y-60827290D01*
X101215542Y-60820465D01*
X101201221Y-60806144D01*
X101188380Y-60791110D01*
X101181132Y-60781134D01*
X101176472Y-60774720D01*
X101142401Y-60746534D01*
X101133622Y-60738545D01*
X101018876Y-60623799D01*
X100984850Y-60561487D01*
X100989915Y-60490672D01*
X101032462Y-60433836D01*
X101042136Y-60427272D01*
X101147153Y-60362917D01*
X101147163Y-60362910D01*
X101151376Y-60360328D01*
X101343898Y-60195898D01*
X101508328Y-60003376D01*
X101640616Y-59787502D01*
X101645670Y-59775302D01*
X101735611Y-59558164D01*
X101735612Y-59558162D01*
X101737505Y-59553591D01*
X101777793Y-59385779D01*
X101795454Y-59312216D01*
X101795455Y-59312210D01*
X101796609Y-59307403D01*
X101809196Y-59147479D01*
X101810265Y-59133892D01*
X101835551Y-59067551D01*
X101892689Y-59025411D01*
X101963539Y-59020852D01*
X102024894Y-59054604D01*
X102083697Y-59113305D01*
X102089927Y-59117145D01*
X102089928Y-59117146D01*
X102227090Y-59201694D01*
X102234262Y-59206115D01*
X102267182Y-59217034D01*
X102395611Y-59259632D01*
X102395613Y-59259632D01*
X102402139Y-59261797D01*
X102408975Y-59262497D01*
X102408978Y-59262498D01*
X102452031Y-59266909D01*
X102506600Y-59272500D01*
X104757400Y-59272500D01*
X104760646Y-59272163D01*
X104760650Y-59272163D01*
X104856308Y-59262238D01*
X104856312Y-59262237D01*
X104863166Y-59261526D01*
X104869702Y-59259345D01*
X104869704Y-59259345D01*
X105001881Y-59215247D01*
X105030946Y-59205550D01*
X105181348Y-59112478D01*
X105213130Y-59080641D01*
X105257303Y-59036391D01*
X105319586Y-59002312D01*
X105390406Y-59007315D01*
X105435493Y-59036235D01*
X105512697Y-59113305D01*
X105518927Y-59117145D01*
X105518928Y-59117146D01*
X105656090Y-59201694D01*
X105663262Y-59206115D01*
X105696182Y-59217034D01*
X105824611Y-59259632D01*
X105824613Y-59259632D01*
X105831139Y-59261797D01*
X105837975Y-59262497D01*
X105837978Y-59262498D01*
X105881031Y-59266909D01*
X105935600Y-59272500D01*
X108186400Y-59272500D01*
X108189646Y-59272163D01*
X108189650Y-59272163D01*
X108285308Y-59262238D01*
X108285312Y-59262237D01*
X108292166Y-59261526D01*
X108298702Y-59259345D01*
X108298704Y-59259345D01*
X108430881Y-59215247D01*
X108459946Y-59205550D01*
X108610348Y-59112478D01*
X108642130Y-59080641D01*
X108686303Y-59036391D01*
X108748586Y-59002312D01*
X108819406Y-59007315D01*
G37*
G04 #@! TD.AperFunction*
G04 #@! TA.AperFunction,Conductor*
G36*
X108819406Y-54984815D02*
G01*
X108864493Y-55013735D01*
X108941697Y-55090805D01*
X108947927Y-55094645D01*
X108947928Y-55094646D01*
X109085090Y-55179194D01*
X109092262Y-55183615D01*
X109172005Y-55210064D01*
X109253611Y-55237132D01*
X109253613Y-55237132D01*
X109260139Y-55239297D01*
X109266975Y-55239997D01*
X109266978Y-55239998D01*
X109310031Y-55244409D01*
X109364600Y-55250000D01*
X109730500Y-55250000D01*
X109798621Y-55270002D01*
X109845114Y-55323658D01*
X109856500Y-55376000D01*
X109856500Y-56829500D01*
X109836498Y-56897621D01*
X109782842Y-56944114D01*
X109730500Y-56955500D01*
X109364600Y-56955500D01*
X109361354Y-56955837D01*
X109361350Y-56955837D01*
X109265692Y-56965762D01*
X109265688Y-56965763D01*
X109258834Y-56966474D01*
X109252298Y-56968655D01*
X109252296Y-56968655D01*
X109225434Y-56977617D01*
X109091054Y-57022450D01*
X108940652Y-57115522D01*
X108935479Y-57120704D01*
X108864697Y-57191609D01*
X108802414Y-57225688D01*
X108731594Y-57220685D01*
X108686506Y-57191764D01*
X108660287Y-57165590D01*
X108609303Y-57114695D01*
X108561236Y-57085066D01*
X108464968Y-57025725D01*
X108464966Y-57025724D01*
X108458738Y-57021885D01*
X108378995Y-56995436D01*
X108297389Y-56968368D01*
X108297387Y-56968368D01*
X108290861Y-56966203D01*
X108284025Y-56965503D01*
X108284022Y-56965502D01*
X108240969Y-56961091D01*
X108186400Y-56955500D01*
X107820500Y-56955500D01*
X107752379Y-56935498D01*
X107705886Y-56881842D01*
X107694500Y-56829500D01*
X107694500Y-55376000D01*
X107714502Y-55307879D01*
X107768158Y-55261386D01*
X107820500Y-55250000D01*
X108186400Y-55250000D01*
X108189646Y-55249663D01*
X108189650Y-55249663D01*
X108285307Y-55239738D01*
X108285311Y-55239737D01*
X108292165Y-55239026D01*
X108298701Y-55236845D01*
X108298703Y-55236845D01*
X108430805Y-55192772D01*
X108459945Y-55183050D01*
X108610348Y-55089978D01*
X108615521Y-55084796D01*
X108686303Y-55013891D01*
X108748586Y-54979812D01*
X108819406Y-54984815D01*
G37*
G04 #@! TD.AperFunction*
G04 #@! TA.AperFunction,Conductor*
G36*
X105390406Y-54984815D02*
G01*
X105435493Y-55013735D01*
X105512697Y-55090805D01*
X105518927Y-55094645D01*
X105518928Y-55094646D01*
X105656090Y-55179194D01*
X105663262Y-55183615D01*
X105743005Y-55210064D01*
X105824611Y-55237132D01*
X105824613Y-55237132D01*
X105831139Y-55239297D01*
X105837975Y-55239997D01*
X105837978Y-55239998D01*
X105881031Y-55244409D01*
X105935600Y-55250000D01*
X106301500Y-55250000D01*
X106369621Y-55270002D01*
X106416114Y-55323658D01*
X106427500Y-55376000D01*
X106427500Y-56829500D01*
X106407498Y-56897621D01*
X106353842Y-56944114D01*
X106301500Y-56955500D01*
X105935600Y-56955500D01*
X105932354Y-56955837D01*
X105932350Y-56955837D01*
X105836692Y-56965762D01*
X105836688Y-56965763D01*
X105829834Y-56966474D01*
X105823298Y-56968655D01*
X105823296Y-56968655D01*
X105796434Y-56977617D01*
X105662054Y-57022450D01*
X105511652Y-57115522D01*
X105506479Y-57120704D01*
X105435697Y-57191609D01*
X105373414Y-57225688D01*
X105302594Y-57220685D01*
X105257506Y-57191764D01*
X105231287Y-57165590D01*
X105180303Y-57114695D01*
X105132236Y-57085066D01*
X105035968Y-57025725D01*
X105035966Y-57025724D01*
X105029738Y-57021885D01*
X104949995Y-56995436D01*
X104868389Y-56968368D01*
X104868387Y-56968368D01*
X104861861Y-56966203D01*
X104855025Y-56965503D01*
X104855022Y-56965502D01*
X104811969Y-56961091D01*
X104757400Y-56955500D01*
X104391500Y-56955500D01*
X104323379Y-56935498D01*
X104276886Y-56881842D01*
X104265500Y-56829500D01*
X104265500Y-55376000D01*
X104285502Y-55307879D01*
X104339158Y-55261386D01*
X104391500Y-55250000D01*
X104757400Y-55250000D01*
X104760646Y-55249663D01*
X104760650Y-55249663D01*
X104856307Y-55239738D01*
X104856311Y-55239737D01*
X104863165Y-55239026D01*
X104869701Y-55236845D01*
X104869703Y-55236845D01*
X105001805Y-55192772D01*
X105030945Y-55183050D01*
X105181348Y-55089978D01*
X105186521Y-55084796D01*
X105257303Y-55013891D01*
X105319586Y-54979812D01*
X105390406Y-54984815D01*
G37*
G04 #@! TD.AperFunction*
G04 #@! TA.AperFunction,Conductor*
G36*
X112248406Y-54984815D02*
G01*
X112293493Y-55013735D01*
X112370697Y-55090805D01*
X112376927Y-55094645D01*
X112376928Y-55094646D01*
X112514090Y-55179194D01*
X112521262Y-55183615D01*
X112601005Y-55210064D01*
X112682611Y-55237132D01*
X112682613Y-55237132D01*
X112689139Y-55239297D01*
X112695975Y-55239997D01*
X112695978Y-55239998D01*
X112739031Y-55244409D01*
X112793600Y-55250000D01*
X113159500Y-55250000D01*
X113227621Y-55270002D01*
X113274114Y-55323658D01*
X113285500Y-55376000D01*
X113285500Y-56829500D01*
X113265498Y-56897621D01*
X113211842Y-56944114D01*
X113159500Y-56955500D01*
X112666600Y-56955500D01*
X112663354Y-56955837D01*
X112663350Y-56955837D01*
X112567692Y-56965762D01*
X112567688Y-56965763D01*
X112560834Y-56966474D01*
X112554298Y-56968655D01*
X112554296Y-56968655D01*
X112527434Y-56977617D01*
X112393054Y-57022450D01*
X112242652Y-57115522D01*
X112237479Y-57120704D01*
X112237474Y-57120708D01*
X112230087Y-57128108D01*
X112167805Y-57162188D01*
X112096985Y-57157185D01*
X112051897Y-57128265D01*
X112043484Y-57119867D01*
X112043483Y-57119866D01*
X112038303Y-57114695D01*
X111990236Y-57085066D01*
X111893968Y-57025725D01*
X111893966Y-57025724D01*
X111887738Y-57021885D01*
X111807995Y-56995436D01*
X111726389Y-56968368D01*
X111726387Y-56968368D01*
X111719861Y-56966203D01*
X111713025Y-56965503D01*
X111713022Y-56965502D01*
X111669969Y-56961091D01*
X111615400Y-56955500D01*
X111249500Y-56955500D01*
X111181379Y-56935498D01*
X111134886Y-56881842D01*
X111123500Y-56829500D01*
X111123500Y-55376000D01*
X111143502Y-55307879D01*
X111197158Y-55261386D01*
X111249500Y-55250000D01*
X111615400Y-55250000D01*
X111618646Y-55249663D01*
X111618650Y-55249663D01*
X111714307Y-55239738D01*
X111714311Y-55239737D01*
X111721165Y-55239026D01*
X111727701Y-55236845D01*
X111727703Y-55236845D01*
X111859805Y-55192772D01*
X111888945Y-55183050D01*
X112039348Y-55089978D01*
X112044521Y-55084796D01*
X112115303Y-55013891D01*
X112177586Y-54979812D01*
X112248406Y-54984815D01*
G37*
G04 #@! TD.AperFunction*
M02*
