G04 #@! TF.GenerationSoftware,KiCad,Pcbnew,7.0.1*
G04 #@! TF.CreationDate,2023-04-13T12:05:20+02:00*
G04 #@! TF.ProjectId,CaptorBoard,43617074-6f72-4426-9f61-72642e6b6963,rev?*
G04 #@! TF.SameCoordinates,Original*
G04 #@! TF.FileFunction,Legend,Bot*
G04 #@! TF.FilePolarity,Positive*
%FSLAX46Y46*%
G04 Gerber Fmt 4.6, Leading zero omitted, Abs format (unit mm)*
G04 Created by KiCad (PCBNEW 7.0.1) date 2023-04-13 12:05:20*
%MOMM*%
%LPD*%
G01*
G04 APERTURE LIST*
%ADD10C,0.150000*%
%ADD11C,0.200000*%
%ADD12C,0.010000*%
G04 #@! TA.AperFunction,Profile*
%ADD13C,0.100000*%
G04 #@! TD*
G04 APERTURE END LIST*
D10*
X136117000Y-76000000D02*
X152500000Y-76000000D01*
X152500000Y-88446000D01*
X136117000Y-88446000D01*
X136117000Y-76000000D01*
X129000000Y-93000000D02*
X145000000Y-93000000D01*
X145000000Y-96000000D01*
X129000000Y-96000000D01*
X129000000Y-93000000D01*
X127889000Y-96647000D02*
X146050000Y-96647000D01*
X146050000Y-99695000D01*
X127889000Y-99695000D01*
X127889000Y-96647000D01*
X116332000Y-96647000D02*
X127254000Y-96647000D01*
X127254000Y-99695000D01*
X116332000Y-99695000D01*
X116332000Y-96647000D01*
X126500000Y-72129000D02*
X127889000Y-96647000D01*
X174594000Y-83633000D02*
X184500000Y-83633000D01*
X184500000Y-99000000D01*
X174594000Y-99000000D01*
X174594000Y-83633000D01*
X174547000Y-67633000D02*
X184453000Y-67633000D01*
X184453000Y-83000000D01*
X174547000Y-83000000D01*
X174547000Y-67633000D01*
X174500000Y-51000000D02*
X184406000Y-51000000D01*
X184406000Y-66367000D01*
X174500000Y-66367000D01*
X174500000Y-51000000D01*
X114705000Y-78443500D02*
X125500000Y-78443500D01*
X125500000Y-93556500D01*
X114705000Y-93556500D01*
X114705000Y-78443500D01*
X144308500Y-88446000D02*
X137000000Y-93000000D01*
X121412000Y-96647000D02*
X120102500Y-93556500D01*
X124196000Y-56000000D02*
X143500000Y-56000000D01*
X143500000Y-72129000D01*
X124196000Y-72129000D01*
X124196000Y-56000000D01*
X183693928Y-95285713D02*
X182193928Y-95285713D01*
X182193928Y-95285713D02*
X183693928Y-96142856D01*
X183693928Y-96142856D02*
X182193928Y-96142856D01*
X182193928Y-97142857D02*
X182193928Y-97428571D01*
X182193928Y-97428571D02*
X182265357Y-97571428D01*
X182265357Y-97571428D02*
X182408214Y-97714285D01*
X182408214Y-97714285D02*
X182693928Y-97785714D01*
X182693928Y-97785714D02*
X183193928Y-97785714D01*
X183193928Y-97785714D02*
X183479642Y-97714285D01*
X183479642Y-97714285D02*
X183622500Y-97571428D01*
X183622500Y-97571428D02*
X183693928Y-97428571D01*
X183693928Y-97428571D02*
X183693928Y-97142857D01*
X183693928Y-97142857D02*
X183622500Y-97000000D01*
X183622500Y-97000000D02*
X183479642Y-96857142D01*
X183479642Y-96857142D02*
X183193928Y-96785714D01*
X183193928Y-96785714D02*
X182693928Y-96785714D01*
X182693928Y-96785714D02*
X182408214Y-96857142D01*
X182408214Y-96857142D02*
X182265357Y-97000000D01*
X182265357Y-97000000D02*
X182193928Y-97142857D01*
X176461928Y-69089057D02*
X175747642Y-68589057D01*
X176461928Y-68231914D02*
X174961928Y-68231914D01*
X174961928Y-68231914D02*
X174961928Y-68803343D01*
X174961928Y-68803343D02*
X175033357Y-68946200D01*
X175033357Y-68946200D02*
X175104785Y-69017629D01*
X175104785Y-69017629D02*
X175247642Y-69089057D01*
X175247642Y-69089057D02*
X175461928Y-69089057D01*
X175461928Y-69089057D02*
X175604785Y-69017629D01*
X175604785Y-69017629D02*
X175676214Y-68946200D01*
X175676214Y-68946200D02*
X175747642Y-68803343D01*
X175747642Y-68803343D02*
X175747642Y-68231914D01*
X175676214Y-69731914D02*
X175676214Y-70231914D01*
X176461928Y-70446200D02*
X176461928Y-69731914D01*
X176461928Y-69731914D02*
X174961928Y-69731914D01*
X174961928Y-69731914D02*
X174961928Y-70446200D01*
X176461928Y-71803343D02*
X176461928Y-71089057D01*
X176461928Y-71089057D02*
X174961928Y-71089057D01*
X175104785Y-73374772D02*
X175033357Y-73446200D01*
X175033357Y-73446200D02*
X174961928Y-73589058D01*
X174961928Y-73589058D02*
X174961928Y-73946200D01*
X174961928Y-73946200D02*
X175033357Y-74089058D01*
X175033357Y-74089058D02*
X175104785Y-74160486D01*
X175104785Y-74160486D02*
X175247642Y-74231915D01*
X175247642Y-74231915D02*
X175390500Y-74231915D01*
X175390500Y-74231915D02*
X175604785Y-74160486D01*
X175604785Y-74160486D02*
X176461928Y-73303343D01*
X176461928Y-73303343D02*
X176461928Y-74231915D01*
X126372453Y-57295238D02*
X126372453Y-56323809D01*
X126372453Y-56809523D02*
X124672453Y-56809523D01*
X124672453Y-56809523D02*
X124915310Y-56647619D01*
X124915310Y-56647619D02*
X125077215Y-56485714D01*
X125077215Y-56485714D02*
X125158167Y-56323809D01*
X125724834Y-59319047D02*
X125724834Y-60614286D01*
X124672453Y-62476190D02*
X124672453Y-63447619D01*
X126372453Y-62961905D02*
X124672453Y-62961905D01*
X124672453Y-63852381D02*
X126372453Y-64985714D01*
X124672453Y-64985714D02*
X126372453Y-63852381D01*
X127588358Y-56323809D02*
X127507405Y-56404761D01*
X127507405Y-56404761D02*
X127426453Y-56566666D01*
X127426453Y-56566666D02*
X127426453Y-56971428D01*
X127426453Y-56971428D02*
X127507405Y-57133333D01*
X127507405Y-57133333D02*
X127588358Y-57214285D01*
X127588358Y-57214285D02*
X127750262Y-57295238D01*
X127750262Y-57295238D02*
X127912167Y-57295238D01*
X127912167Y-57295238D02*
X128155024Y-57214285D01*
X128155024Y-57214285D02*
X129126453Y-56242857D01*
X129126453Y-56242857D02*
X129126453Y-57295238D01*
X128478834Y-59319047D02*
X128478834Y-60614286D01*
X129126453Y-63690476D02*
X128316929Y-63123809D01*
X129126453Y-62719047D02*
X127426453Y-62719047D01*
X127426453Y-62719047D02*
X127426453Y-63366666D01*
X127426453Y-63366666D02*
X127507405Y-63528571D01*
X127507405Y-63528571D02*
X127588358Y-63609524D01*
X127588358Y-63609524D02*
X127750262Y-63690476D01*
X127750262Y-63690476D02*
X127993120Y-63690476D01*
X127993120Y-63690476D02*
X128155024Y-63609524D01*
X128155024Y-63609524D02*
X128235977Y-63528571D01*
X128235977Y-63528571D02*
X128316929Y-63366666D01*
X128316929Y-63366666D02*
X128316929Y-62719047D01*
X127426453Y-64257143D02*
X129126453Y-65390476D01*
X127426453Y-65390476D02*
X129126453Y-64257143D01*
X130180453Y-56242857D02*
X130180453Y-57295238D01*
X130180453Y-57295238D02*
X130828072Y-56728571D01*
X130828072Y-56728571D02*
X130828072Y-56971428D01*
X130828072Y-56971428D02*
X130909024Y-57133333D01*
X130909024Y-57133333D02*
X130989977Y-57214285D01*
X130989977Y-57214285D02*
X131151881Y-57295238D01*
X131151881Y-57295238D02*
X131556643Y-57295238D01*
X131556643Y-57295238D02*
X131718548Y-57214285D01*
X131718548Y-57214285D02*
X131799501Y-57133333D01*
X131799501Y-57133333D02*
X131880453Y-56971428D01*
X131880453Y-56971428D02*
X131880453Y-56485714D01*
X131880453Y-56485714D02*
X131799501Y-56323809D01*
X131799501Y-56323809D02*
X131718548Y-56242857D01*
X131232834Y-59319047D02*
X131232834Y-60614286D01*
X130261405Y-63609524D02*
X130180453Y-63447619D01*
X130180453Y-63447619D02*
X130180453Y-63204762D01*
X130180453Y-63204762D02*
X130261405Y-62961905D01*
X130261405Y-62961905D02*
X130423310Y-62800000D01*
X130423310Y-62800000D02*
X130585215Y-62719047D01*
X130585215Y-62719047D02*
X130909024Y-62638095D01*
X130909024Y-62638095D02*
X131151881Y-62638095D01*
X131151881Y-62638095D02*
X131475691Y-62719047D01*
X131475691Y-62719047D02*
X131637596Y-62800000D01*
X131637596Y-62800000D02*
X131799501Y-62961905D01*
X131799501Y-62961905D02*
X131880453Y-63204762D01*
X131880453Y-63204762D02*
X131880453Y-63366666D01*
X131880453Y-63366666D02*
X131799501Y-63609524D01*
X131799501Y-63609524D02*
X131718548Y-63690476D01*
X131718548Y-63690476D02*
X131151881Y-63690476D01*
X131151881Y-63690476D02*
X131151881Y-63366666D01*
X131880453Y-64419047D02*
X130180453Y-64419047D01*
X130180453Y-64419047D02*
X130180453Y-65066666D01*
X130180453Y-65066666D02*
X130261405Y-65228571D01*
X130261405Y-65228571D02*
X130342358Y-65309524D01*
X130342358Y-65309524D02*
X130504262Y-65390476D01*
X130504262Y-65390476D02*
X130747120Y-65390476D01*
X130747120Y-65390476D02*
X130909024Y-65309524D01*
X130909024Y-65309524D02*
X130989977Y-65228571D01*
X130989977Y-65228571D02*
X131070929Y-65066666D01*
X131070929Y-65066666D02*
X131070929Y-64419047D01*
X131880453Y-66119047D02*
X130180453Y-66119047D01*
X130180453Y-67252381D02*
X130180453Y-67576190D01*
X130180453Y-67576190D02*
X130261405Y-67738095D01*
X130261405Y-67738095D02*
X130423310Y-67900000D01*
X130423310Y-67900000D02*
X130747120Y-67980952D01*
X130747120Y-67980952D02*
X131313786Y-67980952D01*
X131313786Y-67980952D02*
X131637596Y-67900000D01*
X131637596Y-67900000D02*
X131799501Y-67738095D01*
X131799501Y-67738095D02*
X131880453Y-67576190D01*
X131880453Y-67576190D02*
X131880453Y-67252381D01*
X131880453Y-67252381D02*
X131799501Y-67090476D01*
X131799501Y-67090476D02*
X131637596Y-66928571D01*
X131637596Y-66928571D02*
X131313786Y-66847619D01*
X131313786Y-66847619D02*
X130747120Y-66847619D01*
X130747120Y-66847619D02*
X130423310Y-66928571D01*
X130423310Y-66928571D02*
X130261405Y-67090476D01*
X130261405Y-67090476D02*
X130180453Y-67252381D01*
X130180453Y-69519047D02*
X130180453Y-68709523D01*
X130180453Y-68709523D02*
X130989977Y-68628571D01*
X130989977Y-68628571D02*
X130909024Y-68709523D01*
X130909024Y-68709523D02*
X130828072Y-68871428D01*
X130828072Y-68871428D02*
X130828072Y-69276190D01*
X130828072Y-69276190D02*
X130909024Y-69438095D01*
X130909024Y-69438095D02*
X130989977Y-69519047D01*
X130989977Y-69519047D02*
X131151881Y-69600000D01*
X131151881Y-69600000D02*
X131556643Y-69600000D01*
X131556643Y-69600000D02*
X131718548Y-69519047D01*
X131718548Y-69519047D02*
X131799501Y-69438095D01*
X131799501Y-69438095D02*
X131880453Y-69276190D01*
X131880453Y-69276190D02*
X131880453Y-68871428D01*
X131880453Y-68871428D02*
X131799501Y-68709523D01*
X131799501Y-68709523D02*
X131718548Y-68628571D01*
X133501120Y-57133333D02*
X134634453Y-57133333D01*
X132853501Y-56728571D02*
X134067786Y-56323809D01*
X134067786Y-56323809D02*
X134067786Y-57376190D01*
X133986834Y-59319047D02*
X133986834Y-60614286D01*
X133015405Y-63609524D02*
X132934453Y-63447619D01*
X132934453Y-63447619D02*
X132934453Y-63204762D01*
X132934453Y-63204762D02*
X133015405Y-62961905D01*
X133015405Y-62961905D02*
X133177310Y-62800000D01*
X133177310Y-62800000D02*
X133339215Y-62719047D01*
X133339215Y-62719047D02*
X133663024Y-62638095D01*
X133663024Y-62638095D02*
X133905881Y-62638095D01*
X133905881Y-62638095D02*
X134229691Y-62719047D01*
X134229691Y-62719047D02*
X134391596Y-62800000D01*
X134391596Y-62800000D02*
X134553501Y-62961905D01*
X134553501Y-62961905D02*
X134634453Y-63204762D01*
X134634453Y-63204762D02*
X134634453Y-63366666D01*
X134634453Y-63366666D02*
X134553501Y-63609524D01*
X134553501Y-63609524D02*
X134472548Y-63690476D01*
X134472548Y-63690476D02*
X133905881Y-63690476D01*
X133905881Y-63690476D02*
X133905881Y-63366666D01*
X134634453Y-64419047D02*
X132934453Y-64419047D01*
X132934453Y-64419047D02*
X132934453Y-65066666D01*
X132934453Y-65066666D02*
X133015405Y-65228571D01*
X133015405Y-65228571D02*
X133096358Y-65309524D01*
X133096358Y-65309524D02*
X133258262Y-65390476D01*
X133258262Y-65390476D02*
X133501120Y-65390476D01*
X133501120Y-65390476D02*
X133663024Y-65309524D01*
X133663024Y-65309524D02*
X133743977Y-65228571D01*
X133743977Y-65228571D02*
X133824929Y-65066666D01*
X133824929Y-65066666D02*
X133824929Y-64419047D01*
X134634453Y-66119047D02*
X132934453Y-66119047D01*
X132934453Y-67252381D02*
X132934453Y-67576190D01*
X132934453Y-67576190D02*
X133015405Y-67738095D01*
X133015405Y-67738095D02*
X133177310Y-67900000D01*
X133177310Y-67900000D02*
X133501120Y-67980952D01*
X133501120Y-67980952D02*
X134067786Y-67980952D01*
X134067786Y-67980952D02*
X134391596Y-67900000D01*
X134391596Y-67900000D02*
X134553501Y-67738095D01*
X134553501Y-67738095D02*
X134634453Y-67576190D01*
X134634453Y-67576190D02*
X134634453Y-67252381D01*
X134634453Y-67252381D02*
X134553501Y-67090476D01*
X134553501Y-67090476D02*
X134391596Y-66928571D01*
X134391596Y-66928571D02*
X134067786Y-66847619D01*
X134067786Y-66847619D02*
X133501120Y-66847619D01*
X133501120Y-66847619D02*
X133177310Y-66928571D01*
X133177310Y-66928571D02*
X133015405Y-67090476D01*
X133015405Y-67090476D02*
X132934453Y-67252381D01*
X134634453Y-69600000D02*
X134634453Y-68628571D01*
X134634453Y-69114285D02*
X132934453Y-69114285D01*
X132934453Y-69114285D02*
X133177310Y-68952381D01*
X133177310Y-68952381D02*
X133339215Y-68790476D01*
X133339215Y-68790476D02*
X133420167Y-68628571D01*
X132934453Y-70166667D02*
X132934453Y-71300000D01*
X132934453Y-71300000D02*
X134634453Y-70571429D01*
X135688453Y-57214285D02*
X135688453Y-56404761D01*
X135688453Y-56404761D02*
X136497977Y-56323809D01*
X136497977Y-56323809D02*
X136417024Y-56404761D01*
X136417024Y-56404761D02*
X136336072Y-56566666D01*
X136336072Y-56566666D02*
X136336072Y-56971428D01*
X136336072Y-56971428D02*
X136417024Y-57133333D01*
X136417024Y-57133333D02*
X136497977Y-57214285D01*
X136497977Y-57214285D02*
X136659881Y-57295238D01*
X136659881Y-57295238D02*
X137064643Y-57295238D01*
X137064643Y-57295238D02*
X137226548Y-57214285D01*
X137226548Y-57214285D02*
X137307501Y-57133333D01*
X137307501Y-57133333D02*
X137388453Y-56971428D01*
X137388453Y-56971428D02*
X137388453Y-56566666D01*
X137388453Y-56566666D02*
X137307501Y-56404761D01*
X137307501Y-56404761D02*
X137226548Y-56323809D01*
X136740834Y-59319047D02*
X136740834Y-60614286D01*
X135769405Y-63609524D02*
X135688453Y-63447619D01*
X135688453Y-63447619D02*
X135688453Y-63204762D01*
X135688453Y-63204762D02*
X135769405Y-62961905D01*
X135769405Y-62961905D02*
X135931310Y-62800000D01*
X135931310Y-62800000D02*
X136093215Y-62719047D01*
X136093215Y-62719047D02*
X136417024Y-62638095D01*
X136417024Y-62638095D02*
X136659881Y-62638095D01*
X136659881Y-62638095D02*
X136983691Y-62719047D01*
X136983691Y-62719047D02*
X137145596Y-62800000D01*
X137145596Y-62800000D02*
X137307501Y-62961905D01*
X137307501Y-62961905D02*
X137388453Y-63204762D01*
X137388453Y-63204762D02*
X137388453Y-63366666D01*
X137388453Y-63366666D02*
X137307501Y-63609524D01*
X137307501Y-63609524D02*
X137226548Y-63690476D01*
X137226548Y-63690476D02*
X136659881Y-63690476D01*
X136659881Y-63690476D02*
X136659881Y-63366666D01*
X137388453Y-64419047D02*
X135688453Y-64419047D01*
X135688453Y-64419047D02*
X135688453Y-65066666D01*
X135688453Y-65066666D02*
X135769405Y-65228571D01*
X135769405Y-65228571D02*
X135850358Y-65309524D01*
X135850358Y-65309524D02*
X136012262Y-65390476D01*
X136012262Y-65390476D02*
X136255120Y-65390476D01*
X136255120Y-65390476D02*
X136417024Y-65309524D01*
X136417024Y-65309524D02*
X136497977Y-65228571D01*
X136497977Y-65228571D02*
X136578929Y-65066666D01*
X136578929Y-65066666D02*
X136578929Y-64419047D01*
X137388453Y-66119047D02*
X135688453Y-66119047D01*
X135688453Y-67252381D02*
X135688453Y-67576190D01*
X135688453Y-67576190D02*
X135769405Y-67738095D01*
X135769405Y-67738095D02*
X135931310Y-67900000D01*
X135931310Y-67900000D02*
X136255120Y-67980952D01*
X136255120Y-67980952D02*
X136821786Y-67980952D01*
X136821786Y-67980952D02*
X137145596Y-67900000D01*
X137145596Y-67900000D02*
X137307501Y-67738095D01*
X137307501Y-67738095D02*
X137388453Y-67576190D01*
X137388453Y-67576190D02*
X137388453Y-67252381D01*
X137388453Y-67252381D02*
X137307501Y-67090476D01*
X137307501Y-67090476D02*
X137145596Y-66928571D01*
X137145596Y-66928571D02*
X136821786Y-66847619D01*
X136821786Y-66847619D02*
X136255120Y-66847619D01*
X136255120Y-66847619D02*
X135931310Y-66928571D01*
X135931310Y-66928571D02*
X135769405Y-67090476D01*
X135769405Y-67090476D02*
X135688453Y-67252381D01*
X135850358Y-68628571D02*
X135769405Y-68709523D01*
X135769405Y-68709523D02*
X135688453Y-68871428D01*
X135688453Y-68871428D02*
X135688453Y-69276190D01*
X135688453Y-69276190D02*
X135769405Y-69438095D01*
X135769405Y-69438095D02*
X135850358Y-69519047D01*
X135850358Y-69519047D02*
X136012262Y-69600000D01*
X136012262Y-69600000D02*
X136174167Y-69600000D01*
X136174167Y-69600000D02*
X136417024Y-69519047D01*
X136417024Y-69519047D02*
X137388453Y-68547619D01*
X137388453Y-68547619D02*
X137388453Y-69600000D01*
X135688453Y-70166667D02*
X135688453Y-71219048D01*
X135688453Y-71219048D02*
X136336072Y-70652381D01*
X136336072Y-70652381D02*
X136336072Y-70895238D01*
X136336072Y-70895238D02*
X136417024Y-71057143D01*
X136417024Y-71057143D02*
X136497977Y-71138095D01*
X136497977Y-71138095D02*
X136659881Y-71219048D01*
X136659881Y-71219048D02*
X137064643Y-71219048D01*
X137064643Y-71219048D02*
X137226548Y-71138095D01*
X137226548Y-71138095D02*
X137307501Y-71057143D01*
X137307501Y-71057143D02*
X137388453Y-70895238D01*
X137388453Y-70895238D02*
X137388453Y-70409524D01*
X137388453Y-70409524D02*
X137307501Y-70247619D01*
X137307501Y-70247619D02*
X137226548Y-70166667D01*
X138442453Y-57133333D02*
X138442453Y-56809523D01*
X138442453Y-56809523D02*
X138523405Y-56647619D01*
X138523405Y-56647619D02*
X138604358Y-56566666D01*
X138604358Y-56566666D02*
X138847215Y-56404761D01*
X138847215Y-56404761D02*
X139171024Y-56323809D01*
X139171024Y-56323809D02*
X139818643Y-56323809D01*
X139818643Y-56323809D02*
X139980548Y-56404761D01*
X139980548Y-56404761D02*
X140061501Y-56485714D01*
X140061501Y-56485714D02*
X140142453Y-56647619D01*
X140142453Y-56647619D02*
X140142453Y-56971428D01*
X140142453Y-56971428D02*
X140061501Y-57133333D01*
X140061501Y-57133333D02*
X139980548Y-57214285D01*
X139980548Y-57214285D02*
X139818643Y-57295238D01*
X139818643Y-57295238D02*
X139413881Y-57295238D01*
X139413881Y-57295238D02*
X139251977Y-57214285D01*
X139251977Y-57214285D02*
X139171024Y-57133333D01*
X139171024Y-57133333D02*
X139090072Y-56971428D01*
X139090072Y-56971428D02*
X139090072Y-56647619D01*
X139090072Y-56647619D02*
X139171024Y-56485714D01*
X139171024Y-56485714D02*
X139251977Y-56404761D01*
X139251977Y-56404761D02*
X139413881Y-56323809D01*
X139494834Y-59319047D02*
X139494834Y-60614286D01*
X138523405Y-63609524D02*
X138442453Y-63447619D01*
X138442453Y-63447619D02*
X138442453Y-63204762D01*
X138442453Y-63204762D02*
X138523405Y-62961905D01*
X138523405Y-62961905D02*
X138685310Y-62800000D01*
X138685310Y-62800000D02*
X138847215Y-62719047D01*
X138847215Y-62719047D02*
X139171024Y-62638095D01*
X139171024Y-62638095D02*
X139413881Y-62638095D01*
X139413881Y-62638095D02*
X139737691Y-62719047D01*
X139737691Y-62719047D02*
X139899596Y-62800000D01*
X139899596Y-62800000D02*
X140061501Y-62961905D01*
X140061501Y-62961905D02*
X140142453Y-63204762D01*
X140142453Y-63204762D02*
X140142453Y-63366666D01*
X140142453Y-63366666D02*
X140061501Y-63609524D01*
X140061501Y-63609524D02*
X139980548Y-63690476D01*
X139980548Y-63690476D02*
X139413881Y-63690476D01*
X139413881Y-63690476D02*
X139413881Y-63366666D01*
X140142453Y-64419047D02*
X138442453Y-64419047D01*
X138442453Y-64419047D02*
X138442453Y-65066666D01*
X138442453Y-65066666D02*
X138523405Y-65228571D01*
X138523405Y-65228571D02*
X138604358Y-65309524D01*
X138604358Y-65309524D02*
X138766262Y-65390476D01*
X138766262Y-65390476D02*
X139009120Y-65390476D01*
X139009120Y-65390476D02*
X139171024Y-65309524D01*
X139171024Y-65309524D02*
X139251977Y-65228571D01*
X139251977Y-65228571D02*
X139332929Y-65066666D01*
X139332929Y-65066666D02*
X139332929Y-64419047D01*
X140142453Y-66119047D02*
X138442453Y-66119047D01*
X138442453Y-67252381D02*
X138442453Y-67576190D01*
X138442453Y-67576190D02*
X138523405Y-67738095D01*
X138523405Y-67738095D02*
X138685310Y-67900000D01*
X138685310Y-67900000D02*
X139009120Y-67980952D01*
X139009120Y-67980952D02*
X139575786Y-67980952D01*
X139575786Y-67980952D02*
X139899596Y-67900000D01*
X139899596Y-67900000D02*
X140061501Y-67738095D01*
X140061501Y-67738095D02*
X140142453Y-67576190D01*
X140142453Y-67576190D02*
X140142453Y-67252381D01*
X140142453Y-67252381D02*
X140061501Y-67090476D01*
X140061501Y-67090476D02*
X139899596Y-66928571D01*
X139899596Y-66928571D02*
X139575786Y-66847619D01*
X139575786Y-66847619D02*
X139009120Y-66847619D01*
X139009120Y-66847619D02*
X138685310Y-66928571D01*
X138685310Y-66928571D02*
X138523405Y-67090476D01*
X138523405Y-67090476D02*
X138442453Y-67252381D01*
X138442453Y-68547619D02*
X138442453Y-69600000D01*
X138442453Y-69600000D02*
X139090072Y-69033333D01*
X139090072Y-69033333D02*
X139090072Y-69276190D01*
X139090072Y-69276190D02*
X139171024Y-69438095D01*
X139171024Y-69438095D02*
X139251977Y-69519047D01*
X139251977Y-69519047D02*
X139413881Y-69600000D01*
X139413881Y-69600000D02*
X139818643Y-69600000D01*
X139818643Y-69600000D02*
X139980548Y-69519047D01*
X139980548Y-69519047D02*
X140061501Y-69438095D01*
X140061501Y-69438095D02*
X140142453Y-69276190D01*
X140142453Y-69276190D02*
X140142453Y-68790476D01*
X140142453Y-68790476D02*
X140061501Y-68628571D01*
X140061501Y-68628571D02*
X139980548Y-68547619D01*
X139009120Y-71057143D02*
X140142453Y-71057143D01*
X138361501Y-70652381D02*
X139575786Y-70247619D01*
X139575786Y-70247619D02*
X139575786Y-71300000D01*
X141196453Y-56242857D02*
X141196453Y-57376190D01*
X141196453Y-57376190D02*
X142896453Y-56647619D01*
X142248834Y-59319047D02*
X142248834Y-60614286D01*
X141277405Y-63609524D02*
X141196453Y-63447619D01*
X141196453Y-63447619D02*
X141196453Y-63204762D01*
X141196453Y-63204762D02*
X141277405Y-62961905D01*
X141277405Y-62961905D02*
X141439310Y-62800000D01*
X141439310Y-62800000D02*
X141601215Y-62719047D01*
X141601215Y-62719047D02*
X141925024Y-62638095D01*
X141925024Y-62638095D02*
X142167881Y-62638095D01*
X142167881Y-62638095D02*
X142491691Y-62719047D01*
X142491691Y-62719047D02*
X142653596Y-62800000D01*
X142653596Y-62800000D02*
X142815501Y-62961905D01*
X142815501Y-62961905D02*
X142896453Y-63204762D01*
X142896453Y-63204762D02*
X142896453Y-63366666D01*
X142896453Y-63366666D02*
X142815501Y-63609524D01*
X142815501Y-63609524D02*
X142734548Y-63690476D01*
X142734548Y-63690476D02*
X142167881Y-63690476D01*
X142167881Y-63690476D02*
X142167881Y-63366666D01*
X142896453Y-64419047D02*
X141196453Y-64419047D01*
X141196453Y-64419047D02*
X141196453Y-65066666D01*
X141196453Y-65066666D02*
X141277405Y-65228571D01*
X141277405Y-65228571D02*
X141358358Y-65309524D01*
X141358358Y-65309524D02*
X141520262Y-65390476D01*
X141520262Y-65390476D02*
X141763120Y-65390476D01*
X141763120Y-65390476D02*
X141925024Y-65309524D01*
X141925024Y-65309524D02*
X142005977Y-65228571D01*
X142005977Y-65228571D02*
X142086929Y-65066666D01*
X142086929Y-65066666D02*
X142086929Y-64419047D01*
X142896453Y-66119047D02*
X141196453Y-66119047D01*
X141196453Y-67252381D02*
X141196453Y-67576190D01*
X141196453Y-67576190D02*
X141277405Y-67738095D01*
X141277405Y-67738095D02*
X141439310Y-67900000D01*
X141439310Y-67900000D02*
X141763120Y-67980952D01*
X141763120Y-67980952D02*
X142329786Y-67980952D01*
X142329786Y-67980952D02*
X142653596Y-67900000D01*
X142653596Y-67900000D02*
X142815501Y-67738095D01*
X142815501Y-67738095D02*
X142896453Y-67576190D01*
X142896453Y-67576190D02*
X142896453Y-67252381D01*
X142896453Y-67252381D02*
X142815501Y-67090476D01*
X142815501Y-67090476D02*
X142653596Y-66928571D01*
X142653596Y-66928571D02*
X142329786Y-66847619D01*
X142329786Y-66847619D02*
X141763120Y-66847619D01*
X141763120Y-66847619D02*
X141439310Y-66928571D01*
X141439310Y-66928571D02*
X141277405Y-67090476D01*
X141277405Y-67090476D02*
X141196453Y-67252381D01*
X141196453Y-68547619D02*
X141196453Y-69600000D01*
X141196453Y-69600000D02*
X141844072Y-69033333D01*
X141844072Y-69033333D02*
X141844072Y-69276190D01*
X141844072Y-69276190D02*
X141925024Y-69438095D01*
X141925024Y-69438095D02*
X142005977Y-69519047D01*
X142005977Y-69519047D02*
X142167881Y-69600000D01*
X142167881Y-69600000D02*
X142572643Y-69600000D01*
X142572643Y-69600000D02*
X142734548Y-69519047D01*
X142734548Y-69519047D02*
X142815501Y-69438095D01*
X142815501Y-69438095D02*
X142896453Y-69276190D01*
X142896453Y-69276190D02*
X142896453Y-68790476D01*
X142896453Y-68790476D02*
X142815501Y-68628571D01*
X142815501Y-68628571D02*
X142734548Y-68547619D01*
X141196453Y-71138095D02*
X141196453Y-70328571D01*
X141196453Y-70328571D02*
X142005977Y-70247619D01*
X142005977Y-70247619D02*
X141925024Y-70328571D01*
X141925024Y-70328571D02*
X141844072Y-70490476D01*
X141844072Y-70490476D02*
X141844072Y-70895238D01*
X141844072Y-70895238D02*
X141925024Y-71057143D01*
X141925024Y-71057143D02*
X142005977Y-71138095D01*
X142005977Y-71138095D02*
X142167881Y-71219048D01*
X142167881Y-71219048D02*
X142572643Y-71219048D01*
X142572643Y-71219048D02*
X142734548Y-71138095D01*
X142734548Y-71138095D02*
X142815501Y-71057143D01*
X142815501Y-71057143D02*
X142896453Y-70895238D01*
X142896453Y-70895238D02*
X142896453Y-70490476D01*
X142896453Y-70490476D02*
X142815501Y-70328571D01*
X142815501Y-70328571D02*
X142734548Y-70247619D01*
X183693928Y-63071428D02*
X182193928Y-63071428D01*
X182193928Y-63071428D02*
X183693928Y-63928571D01*
X183693928Y-63928571D02*
X182193928Y-63928571D01*
X138209953Y-77295238D02*
X138209953Y-76323809D01*
X138209953Y-76809523D02*
X136509953Y-76809523D01*
X136509953Y-76809523D02*
X136752810Y-76647619D01*
X136752810Y-76647619D02*
X136914715Y-76485714D01*
X136914715Y-76485714D02*
X136995667Y-76323809D01*
X137562334Y-79319047D02*
X137562334Y-80614286D01*
X136509953Y-83528571D02*
X136509953Y-82719047D01*
X136509953Y-82719047D02*
X137319477Y-82638095D01*
X137319477Y-82638095D02*
X137238524Y-82719047D01*
X137238524Y-82719047D02*
X137157572Y-82880952D01*
X137157572Y-82880952D02*
X137157572Y-83285714D01*
X137157572Y-83285714D02*
X137238524Y-83447619D01*
X137238524Y-83447619D02*
X137319477Y-83528571D01*
X137319477Y-83528571D02*
X137481381Y-83609524D01*
X137481381Y-83609524D02*
X137886143Y-83609524D01*
X137886143Y-83609524D02*
X138048048Y-83528571D01*
X138048048Y-83528571D02*
X138129001Y-83447619D01*
X138129001Y-83447619D02*
X138209953Y-83285714D01*
X138209953Y-83285714D02*
X138209953Y-82880952D01*
X138209953Y-82880952D02*
X138129001Y-82719047D01*
X138129001Y-82719047D02*
X138048048Y-82638095D01*
X136509953Y-84095238D02*
X138209953Y-84661905D01*
X138209953Y-84661905D02*
X136509953Y-85228572D01*
X139425858Y-76323809D02*
X139344905Y-76404761D01*
X139344905Y-76404761D02*
X139263953Y-76566666D01*
X139263953Y-76566666D02*
X139263953Y-76971428D01*
X139263953Y-76971428D02*
X139344905Y-77133333D01*
X139344905Y-77133333D02*
X139425858Y-77214285D01*
X139425858Y-77214285D02*
X139587762Y-77295238D01*
X139587762Y-77295238D02*
X139749667Y-77295238D01*
X139749667Y-77295238D02*
X139992524Y-77214285D01*
X139992524Y-77214285D02*
X140963953Y-76242857D01*
X140963953Y-76242857D02*
X140963953Y-77295238D01*
X140316334Y-79319047D02*
X140316334Y-80614286D01*
X140883001Y-82638095D02*
X140963953Y-82880952D01*
X140963953Y-82880952D02*
X140963953Y-83285714D01*
X140963953Y-83285714D02*
X140883001Y-83447619D01*
X140883001Y-83447619D02*
X140802048Y-83528571D01*
X140802048Y-83528571D02*
X140640143Y-83609524D01*
X140640143Y-83609524D02*
X140478239Y-83609524D01*
X140478239Y-83609524D02*
X140316334Y-83528571D01*
X140316334Y-83528571D02*
X140235381Y-83447619D01*
X140235381Y-83447619D02*
X140154429Y-83285714D01*
X140154429Y-83285714D02*
X140073477Y-82961905D01*
X140073477Y-82961905D02*
X139992524Y-82800000D01*
X139992524Y-82800000D02*
X139911572Y-82719047D01*
X139911572Y-82719047D02*
X139749667Y-82638095D01*
X139749667Y-82638095D02*
X139587762Y-82638095D01*
X139587762Y-82638095D02*
X139425858Y-82719047D01*
X139425858Y-82719047D02*
X139344905Y-82800000D01*
X139344905Y-82800000D02*
X139263953Y-82961905D01*
X139263953Y-82961905D02*
X139263953Y-83366666D01*
X139263953Y-83366666D02*
X139344905Y-83609524D01*
X140963953Y-84338095D02*
X139263953Y-84338095D01*
X139263953Y-84338095D02*
X139263953Y-84742857D01*
X139263953Y-84742857D02*
X139344905Y-84985714D01*
X139344905Y-84985714D02*
X139506810Y-85147619D01*
X139506810Y-85147619D02*
X139668715Y-85228572D01*
X139668715Y-85228572D02*
X139992524Y-85309524D01*
X139992524Y-85309524D02*
X140235381Y-85309524D01*
X140235381Y-85309524D02*
X140559191Y-85228572D01*
X140559191Y-85228572D02*
X140721096Y-85147619D01*
X140721096Y-85147619D02*
X140883001Y-84985714D01*
X140883001Y-84985714D02*
X140963953Y-84742857D01*
X140963953Y-84742857D02*
X140963953Y-84338095D01*
X140802048Y-87009524D02*
X140883001Y-86928572D01*
X140883001Y-86928572D02*
X140963953Y-86685714D01*
X140963953Y-86685714D02*
X140963953Y-86523810D01*
X140963953Y-86523810D02*
X140883001Y-86280953D01*
X140883001Y-86280953D02*
X140721096Y-86119048D01*
X140721096Y-86119048D02*
X140559191Y-86038095D01*
X140559191Y-86038095D02*
X140235381Y-85957143D01*
X140235381Y-85957143D02*
X139992524Y-85957143D01*
X139992524Y-85957143D02*
X139668715Y-86038095D01*
X139668715Y-86038095D02*
X139506810Y-86119048D01*
X139506810Y-86119048D02*
X139344905Y-86280953D01*
X139344905Y-86280953D02*
X139263953Y-86523810D01*
X139263953Y-86523810D02*
X139263953Y-86685714D01*
X139263953Y-86685714D02*
X139344905Y-86928572D01*
X139344905Y-86928572D02*
X139425858Y-87009524D01*
X142017953Y-76242857D02*
X142017953Y-77295238D01*
X142017953Y-77295238D02*
X142665572Y-76728571D01*
X142665572Y-76728571D02*
X142665572Y-76971428D01*
X142665572Y-76971428D02*
X142746524Y-77133333D01*
X142746524Y-77133333D02*
X142827477Y-77214285D01*
X142827477Y-77214285D02*
X142989381Y-77295238D01*
X142989381Y-77295238D02*
X143394143Y-77295238D01*
X143394143Y-77295238D02*
X143556048Y-77214285D01*
X143556048Y-77214285D02*
X143637001Y-77133333D01*
X143637001Y-77133333D02*
X143717953Y-76971428D01*
X143717953Y-76971428D02*
X143717953Y-76485714D01*
X143717953Y-76485714D02*
X143637001Y-76323809D01*
X143637001Y-76323809D02*
X143556048Y-76242857D01*
X143070334Y-79319047D02*
X143070334Y-80614286D01*
X143637001Y-82638095D02*
X143717953Y-82880952D01*
X143717953Y-82880952D02*
X143717953Y-83285714D01*
X143717953Y-83285714D02*
X143637001Y-83447619D01*
X143637001Y-83447619D02*
X143556048Y-83528571D01*
X143556048Y-83528571D02*
X143394143Y-83609524D01*
X143394143Y-83609524D02*
X143232239Y-83609524D01*
X143232239Y-83609524D02*
X143070334Y-83528571D01*
X143070334Y-83528571D02*
X142989381Y-83447619D01*
X142989381Y-83447619D02*
X142908429Y-83285714D01*
X142908429Y-83285714D02*
X142827477Y-82961905D01*
X142827477Y-82961905D02*
X142746524Y-82800000D01*
X142746524Y-82800000D02*
X142665572Y-82719047D01*
X142665572Y-82719047D02*
X142503667Y-82638095D01*
X142503667Y-82638095D02*
X142341762Y-82638095D01*
X142341762Y-82638095D02*
X142179858Y-82719047D01*
X142179858Y-82719047D02*
X142098905Y-82800000D01*
X142098905Y-82800000D02*
X142017953Y-82961905D01*
X142017953Y-82961905D02*
X142017953Y-83366666D01*
X142017953Y-83366666D02*
X142098905Y-83609524D01*
X143717953Y-84338095D02*
X142017953Y-84338095D01*
X142017953Y-84338095D02*
X142017953Y-84742857D01*
X142017953Y-84742857D02*
X142098905Y-84985714D01*
X142098905Y-84985714D02*
X142260810Y-85147619D01*
X142260810Y-85147619D02*
X142422715Y-85228572D01*
X142422715Y-85228572D02*
X142746524Y-85309524D01*
X142746524Y-85309524D02*
X142989381Y-85309524D01*
X142989381Y-85309524D02*
X143313191Y-85228572D01*
X143313191Y-85228572D02*
X143475096Y-85147619D01*
X143475096Y-85147619D02*
X143637001Y-84985714D01*
X143637001Y-84985714D02*
X143717953Y-84742857D01*
X143717953Y-84742857D02*
X143717953Y-84338095D01*
X143232239Y-85957143D02*
X143232239Y-86766667D01*
X143717953Y-85795238D02*
X142017953Y-86361905D01*
X142017953Y-86361905D02*
X143717953Y-86928572D01*
X145338620Y-77133333D02*
X146471953Y-77133333D01*
X144691001Y-76728571D02*
X145905286Y-76323809D01*
X145905286Y-76323809D02*
X145905286Y-77376190D01*
X145824334Y-79319047D02*
X145824334Y-80614286D01*
X144852905Y-83609524D02*
X144771953Y-83447619D01*
X144771953Y-83447619D02*
X144771953Y-83204762D01*
X144771953Y-83204762D02*
X144852905Y-82961905D01*
X144852905Y-82961905D02*
X145014810Y-82800000D01*
X145014810Y-82800000D02*
X145176715Y-82719047D01*
X145176715Y-82719047D02*
X145500524Y-82638095D01*
X145500524Y-82638095D02*
X145743381Y-82638095D01*
X145743381Y-82638095D02*
X146067191Y-82719047D01*
X146067191Y-82719047D02*
X146229096Y-82800000D01*
X146229096Y-82800000D02*
X146391001Y-82961905D01*
X146391001Y-82961905D02*
X146471953Y-83204762D01*
X146471953Y-83204762D02*
X146471953Y-83366666D01*
X146471953Y-83366666D02*
X146391001Y-83609524D01*
X146391001Y-83609524D02*
X146310048Y-83690476D01*
X146310048Y-83690476D02*
X145743381Y-83690476D01*
X145743381Y-83690476D02*
X145743381Y-83366666D01*
X146471953Y-84419047D02*
X144771953Y-84419047D01*
X144771953Y-84419047D02*
X146471953Y-85390476D01*
X146471953Y-85390476D02*
X144771953Y-85390476D01*
X146471953Y-86199999D02*
X144771953Y-86199999D01*
X144771953Y-86199999D02*
X144771953Y-86604761D01*
X144771953Y-86604761D02*
X144852905Y-86847618D01*
X144852905Y-86847618D02*
X145014810Y-87009523D01*
X145014810Y-87009523D02*
X145176715Y-87090476D01*
X145176715Y-87090476D02*
X145500524Y-87171428D01*
X145500524Y-87171428D02*
X145743381Y-87171428D01*
X145743381Y-87171428D02*
X146067191Y-87090476D01*
X146067191Y-87090476D02*
X146229096Y-87009523D01*
X146229096Y-87009523D02*
X146391001Y-86847618D01*
X146391001Y-86847618D02*
X146471953Y-86604761D01*
X146471953Y-86604761D02*
X146471953Y-86199999D01*
X147525953Y-77214285D02*
X147525953Y-76404761D01*
X147525953Y-76404761D02*
X148335477Y-76323809D01*
X148335477Y-76323809D02*
X148254524Y-76404761D01*
X148254524Y-76404761D02*
X148173572Y-76566666D01*
X148173572Y-76566666D02*
X148173572Y-76971428D01*
X148173572Y-76971428D02*
X148254524Y-77133333D01*
X148254524Y-77133333D02*
X148335477Y-77214285D01*
X148335477Y-77214285D02*
X148497381Y-77295238D01*
X148497381Y-77295238D02*
X148902143Y-77295238D01*
X148902143Y-77295238D02*
X149064048Y-77214285D01*
X149064048Y-77214285D02*
X149145001Y-77133333D01*
X149145001Y-77133333D02*
X149225953Y-76971428D01*
X149225953Y-76971428D02*
X149225953Y-76566666D01*
X149225953Y-76566666D02*
X149145001Y-76404761D01*
X149145001Y-76404761D02*
X149064048Y-76323809D01*
X148578334Y-79319047D02*
X148578334Y-80614286D01*
X148740239Y-82638095D02*
X148740239Y-83447619D01*
X149225953Y-82476190D02*
X147525953Y-83042857D01*
X147525953Y-83042857D02*
X149225953Y-83609524D01*
X148092620Y-84176190D02*
X149225953Y-84176190D01*
X148254524Y-84176190D02*
X148173572Y-84257143D01*
X148173572Y-84257143D02*
X148092620Y-84419048D01*
X148092620Y-84419048D02*
X148092620Y-84661905D01*
X148092620Y-84661905D02*
X148173572Y-84823809D01*
X148173572Y-84823809D02*
X148335477Y-84904762D01*
X148335477Y-84904762D02*
X149225953Y-84904762D01*
X149225953Y-86442857D02*
X148335477Y-86442857D01*
X148335477Y-86442857D02*
X148173572Y-86361904D01*
X148173572Y-86361904D02*
X148092620Y-86200000D01*
X148092620Y-86200000D02*
X148092620Y-85876190D01*
X148092620Y-85876190D02*
X148173572Y-85714285D01*
X149145001Y-86442857D02*
X149225953Y-86280952D01*
X149225953Y-86280952D02*
X149225953Y-85876190D01*
X149225953Y-85876190D02*
X149145001Y-85714285D01*
X149145001Y-85714285D02*
X148983096Y-85633333D01*
X148983096Y-85633333D02*
X148821191Y-85633333D01*
X148821191Y-85633333D02*
X148659286Y-85714285D01*
X148659286Y-85714285D02*
X148578334Y-85876190D01*
X148578334Y-85876190D02*
X148578334Y-86280952D01*
X148578334Y-86280952D02*
X148497381Y-86442857D01*
X150279953Y-77133333D02*
X150279953Y-76809523D01*
X150279953Y-76809523D02*
X150360905Y-76647619D01*
X150360905Y-76647619D02*
X150441858Y-76566666D01*
X150441858Y-76566666D02*
X150684715Y-76404761D01*
X150684715Y-76404761D02*
X151008524Y-76323809D01*
X151008524Y-76323809D02*
X151656143Y-76323809D01*
X151656143Y-76323809D02*
X151818048Y-76404761D01*
X151818048Y-76404761D02*
X151899001Y-76485714D01*
X151899001Y-76485714D02*
X151979953Y-76647619D01*
X151979953Y-76647619D02*
X151979953Y-76971428D01*
X151979953Y-76971428D02*
X151899001Y-77133333D01*
X151899001Y-77133333D02*
X151818048Y-77214285D01*
X151818048Y-77214285D02*
X151656143Y-77295238D01*
X151656143Y-77295238D02*
X151251381Y-77295238D01*
X151251381Y-77295238D02*
X151089477Y-77214285D01*
X151089477Y-77214285D02*
X151008524Y-77133333D01*
X151008524Y-77133333D02*
X150927572Y-76971428D01*
X150927572Y-76971428D02*
X150927572Y-76647619D01*
X150927572Y-76647619D02*
X151008524Y-76485714D01*
X151008524Y-76485714D02*
X151089477Y-76404761D01*
X151089477Y-76404761D02*
X151251381Y-76323809D01*
X151332334Y-79319047D02*
X151332334Y-80614286D01*
X150279953Y-82557143D02*
X150279953Y-83609524D01*
X150279953Y-83609524D02*
X150927572Y-83042857D01*
X150927572Y-83042857D02*
X150927572Y-83285714D01*
X150927572Y-83285714D02*
X151008524Y-83447619D01*
X151008524Y-83447619D02*
X151089477Y-83528571D01*
X151089477Y-83528571D02*
X151251381Y-83609524D01*
X151251381Y-83609524D02*
X151656143Y-83609524D01*
X151656143Y-83609524D02*
X151818048Y-83528571D01*
X151818048Y-83528571D02*
X151899001Y-83447619D01*
X151899001Y-83447619D02*
X151979953Y-83285714D01*
X151979953Y-83285714D02*
X151979953Y-82800000D01*
X151979953Y-82800000D02*
X151899001Y-82638095D01*
X151899001Y-82638095D02*
X151818048Y-82557143D01*
X151818048Y-84338095D02*
X151899001Y-84419048D01*
X151899001Y-84419048D02*
X151979953Y-84338095D01*
X151979953Y-84338095D02*
X151899001Y-84257143D01*
X151899001Y-84257143D02*
X151818048Y-84338095D01*
X151818048Y-84338095D02*
X151979953Y-84338095D01*
X150279953Y-84985715D02*
X150279953Y-86038096D01*
X150279953Y-86038096D02*
X150927572Y-85471429D01*
X150927572Y-85471429D02*
X150927572Y-85714286D01*
X150927572Y-85714286D02*
X151008524Y-85876191D01*
X151008524Y-85876191D02*
X151089477Y-85957143D01*
X151089477Y-85957143D02*
X151251381Y-86038096D01*
X151251381Y-86038096D02*
X151656143Y-86038096D01*
X151656143Y-86038096D02*
X151818048Y-85957143D01*
X151818048Y-85957143D02*
X151899001Y-85876191D01*
X151899001Y-85876191D02*
X151979953Y-85714286D01*
X151979953Y-85714286D02*
X151979953Y-85228572D01*
X151979953Y-85228572D02*
X151899001Y-85066667D01*
X151899001Y-85066667D02*
X151818048Y-84985715D01*
X150279953Y-86523810D02*
X151979953Y-87090477D01*
X151979953Y-87090477D02*
X150279953Y-87657144D01*
X183551071Y-73821428D02*
X183622500Y-73750000D01*
X183622500Y-73750000D02*
X183693928Y-73535714D01*
X183693928Y-73535714D02*
X183693928Y-73392857D01*
X183693928Y-73392857D02*
X183622500Y-73178571D01*
X183622500Y-73178571D02*
X183479642Y-73035714D01*
X183479642Y-73035714D02*
X183336785Y-72964285D01*
X183336785Y-72964285D02*
X183051071Y-72892857D01*
X183051071Y-72892857D02*
X182836785Y-72892857D01*
X182836785Y-72892857D02*
X182551071Y-72964285D01*
X182551071Y-72964285D02*
X182408214Y-73035714D01*
X182408214Y-73035714D02*
X182265357Y-73178571D01*
X182265357Y-73178571D02*
X182193928Y-73392857D01*
X182193928Y-73392857D02*
X182193928Y-73535714D01*
X182193928Y-73535714D02*
X182265357Y-73750000D01*
X182265357Y-73750000D02*
X182336785Y-73821428D01*
X182193928Y-74750000D02*
X182193928Y-75035714D01*
X182193928Y-75035714D02*
X182265357Y-75178571D01*
X182265357Y-75178571D02*
X182408214Y-75321428D01*
X182408214Y-75321428D02*
X182693928Y-75392857D01*
X182693928Y-75392857D02*
X183193928Y-75392857D01*
X183193928Y-75392857D02*
X183479642Y-75321428D01*
X183479642Y-75321428D02*
X183622500Y-75178571D01*
X183622500Y-75178571D02*
X183693928Y-75035714D01*
X183693928Y-75035714D02*
X183693928Y-74750000D01*
X183693928Y-74750000D02*
X183622500Y-74607143D01*
X183622500Y-74607143D02*
X183479642Y-74464285D01*
X183479642Y-74464285D02*
X183193928Y-74392857D01*
X183193928Y-74392857D02*
X182693928Y-74392857D01*
X182693928Y-74392857D02*
X182408214Y-74464285D01*
X182408214Y-74464285D02*
X182265357Y-74607143D01*
X182265357Y-74607143D02*
X182193928Y-74750000D01*
X183693928Y-76035714D02*
X182193928Y-76035714D01*
X182193928Y-76035714D02*
X183265357Y-76535714D01*
X183265357Y-76535714D02*
X182193928Y-77035714D01*
X182193928Y-77035714D02*
X183693928Y-77035714D01*
X183693928Y-78785713D02*
X182193928Y-78785713D01*
X182193928Y-78785713D02*
X183693928Y-79642856D01*
X183693928Y-79642856D02*
X182193928Y-79642856D01*
X182193928Y-80642857D02*
X182193928Y-80928571D01*
X182193928Y-80928571D02*
X182265357Y-81071428D01*
X182265357Y-81071428D02*
X182408214Y-81214285D01*
X182408214Y-81214285D02*
X182693928Y-81285714D01*
X182693928Y-81285714D02*
X183193928Y-81285714D01*
X183193928Y-81285714D02*
X183479642Y-81214285D01*
X183479642Y-81214285D02*
X183622500Y-81071428D01*
X183622500Y-81071428D02*
X183693928Y-80928571D01*
X183693928Y-80928571D02*
X183693928Y-80642857D01*
X183693928Y-80642857D02*
X183622500Y-80500000D01*
X183622500Y-80500000D02*
X183479642Y-80357142D01*
X183479642Y-80357142D02*
X183193928Y-80285714D01*
X183193928Y-80285714D02*
X182693928Y-80285714D01*
X182693928Y-80285714D02*
X182408214Y-80357142D01*
X182408214Y-80357142D02*
X182265357Y-80500000D01*
X182265357Y-80500000D02*
X182193928Y-80642857D01*
D11*
X158022542Y-66403917D02*
X158993971Y-66403917D01*
X158993971Y-66403917D02*
X159108257Y-66346774D01*
X159108257Y-66346774D02*
X159165400Y-66289631D01*
X159165400Y-66289631D02*
X159222542Y-66175345D01*
X159222542Y-66175345D02*
X159222542Y-66003917D01*
X159222542Y-66003917D02*
X159165400Y-65889631D01*
X158765400Y-66403917D02*
X158822542Y-66289631D01*
X158822542Y-66289631D02*
X158822542Y-66061059D01*
X158822542Y-66061059D02*
X158765400Y-65946774D01*
X158765400Y-65946774D02*
X158708257Y-65889631D01*
X158708257Y-65889631D02*
X158593971Y-65832488D01*
X158593971Y-65832488D02*
X158251114Y-65832488D01*
X158251114Y-65832488D02*
X158136828Y-65889631D01*
X158136828Y-65889631D02*
X158079685Y-65946774D01*
X158079685Y-65946774D02*
X158022542Y-66061059D01*
X158022542Y-66061059D02*
X158022542Y-66289631D01*
X158022542Y-66289631D02*
X158079685Y-66403917D01*
X158822542Y-66975345D02*
X158022542Y-66975345D01*
X157622542Y-66975345D02*
X157679685Y-66918202D01*
X157679685Y-66918202D02*
X157736828Y-66975345D01*
X157736828Y-66975345D02*
X157679685Y-67032488D01*
X157679685Y-67032488D02*
X157622542Y-66975345D01*
X157622542Y-66975345D02*
X157736828Y-66975345D01*
X158022542Y-67375345D02*
X158022542Y-67832488D01*
X157622542Y-67546774D02*
X158651114Y-67546774D01*
X158651114Y-67546774D02*
X158765400Y-67603917D01*
X158765400Y-67603917D02*
X158822542Y-67718202D01*
X158822542Y-67718202D02*
X158822542Y-67832488D01*
X158822542Y-68232488D02*
X157622542Y-68232488D01*
X158822542Y-68746774D02*
X158193971Y-68746774D01*
X158193971Y-68746774D02*
X158079685Y-68689631D01*
X158079685Y-68689631D02*
X158022542Y-68575345D01*
X158022542Y-68575345D02*
X158022542Y-68403916D01*
X158022542Y-68403916D02*
X158079685Y-68289631D01*
X158079685Y-68289631D02*
X158136828Y-68232488D01*
X158022542Y-69832488D02*
X158822542Y-69832488D01*
X158022542Y-69318202D02*
X158651114Y-69318202D01*
X158651114Y-69318202D02*
X158765400Y-69375345D01*
X158765400Y-69375345D02*
X158822542Y-69489630D01*
X158822542Y-69489630D02*
X158822542Y-69661059D01*
X158822542Y-69661059D02*
X158765400Y-69775345D01*
X158765400Y-69775345D02*
X158708257Y-69832488D01*
X158822542Y-70403916D02*
X157622542Y-70403916D01*
X158079685Y-70403916D02*
X158022542Y-70518202D01*
X158022542Y-70518202D02*
X158022542Y-70746773D01*
X158022542Y-70746773D02*
X158079685Y-70861059D01*
X158079685Y-70861059D02*
X158136828Y-70918202D01*
X158136828Y-70918202D02*
X158251114Y-70975344D01*
X158251114Y-70975344D02*
X158593971Y-70975344D01*
X158593971Y-70975344D02*
X158708257Y-70918202D01*
X158708257Y-70918202D02*
X158765400Y-70861059D01*
X158765400Y-70861059D02*
X158822542Y-70746773D01*
X158822542Y-70746773D02*
X158822542Y-70518202D01*
X158822542Y-70518202D02*
X158765400Y-70403916D01*
X158708257Y-71489630D02*
X158765400Y-71546773D01*
X158765400Y-71546773D02*
X158822542Y-71489630D01*
X158822542Y-71489630D02*
X158765400Y-71432487D01*
X158765400Y-71432487D02*
X158708257Y-71489630D01*
X158708257Y-71489630D02*
X158822542Y-71489630D01*
X158765400Y-72575345D02*
X158822542Y-72461059D01*
X158822542Y-72461059D02*
X158822542Y-72232487D01*
X158822542Y-72232487D02*
X158765400Y-72118202D01*
X158765400Y-72118202D02*
X158708257Y-72061059D01*
X158708257Y-72061059D02*
X158593971Y-72003916D01*
X158593971Y-72003916D02*
X158251114Y-72003916D01*
X158251114Y-72003916D02*
X158136828Y-72061059D01*
X158136828Y-72061059D02*
X158079685Y-72118202D01*
X158079685Y-72118202D02*
X158022542Y-72232487D01*
X158022542Y-72232487D02*
X158022542Y-72461059D01*
X158022542Y-72461059D02*
X158079685Y-72575345D01*
X158822542Y-73261058D02*
X158765400Y-73146773D01*
X158765400Y-73146773D02*
X158708257Y-73089630D01*
X158708257Y-73089630D02*
X158593971Y-73032487D01*
X158593971Y-73032487D02*
X158251114Y-73032487D01*
X158251114Y-73032487D02*
X158136828Y-73089630D01*
X158136828Y-73089630D02*
X158079685Y-73146773D01*
X158079685Y-73146773D02*
X158022542Y-73261058D01*
X158022542Y-73261058D02*
X158022542Y-73432487D01*
X158022542Y-73432487D02*
X158079685Y-73546773D01*
X158079685Y-73546773D02*
X158136828Y-73603916D01*
X158136828Y-73603916D02*
X158251114Y-73661058D01*
X158251114Y-73661058D02*
X158593971Y-73661058D01*
X158593971Y-73661058D02*
X158708257Y-73603916D01*
X158708257Y-73603916D02*
X158765400Y-73546773D01*
X158765400Y-73546773D02*
X158822542Y-73432487D01*
X158822542Y-73432487D02*
X158822542Y-73261058D01*
X158822542Y-74175344D02*
X158022542Y-74175344D01*
X158136828Y-74175344D02*
X158079685Y-74232487D01*
X158079685Y-74232487D02*
X158022542Y-74346772D01*
X158022542Y-74346772D02*
X158022542Y-74518201D01*
X158022542Y-74518201D02*
X158079685Y-74632487D01*
X158079685Y-74632487D02*
X158193971Y-74689630D01*
X158193971Y-74689630D02*
X158822542Y-74689630D01*
X158193971Y-74689630D02*
X158079685Y-74746772D01*
X158079685Y-74746772D02*
X158022542Y-74861058D01*
X158022542Y-74861058D02*
X158022542Y-75032487D01*
X158022542Y-75032487D02*
X158079685Y-75146772D01*
X158079685Y-75146772D02*
X158193971Y-75203915D01*
X158193971Y-75203915D02*
X158822542Y-75203915D01*
X157565400Y-76632487D02*
X159108257Y-75603915D01*
X158822542Y-77032487D02*
X157622542Y-77032487D01*
X157622542Y-77032487D02*
X157622542Y-77489630D01*
X157622542Y-77489630D02*
X157679685Y-77603915D01*
X157679685Y-77603915D02*
X157736828Y-77661058D01*
X157736828Y-77661058D02*
X157851114Y-77718201D01*
X157851114Y-77718201D02*
X158022542Y-77718201D01*
X158022542Y-77718201D02*
X158136828Y-77661058D01*
X158136828Y-77661058D02*
X158193971Y-77603915D01*
X158193971Y-77603915D02*
X158251114Y-77489630D01*
X158251114Y-77489630D02*
X158251114Y-77032487D01*
X158822542Y-78232487D02*
X157622542Y-78232487D01*
X158822542Y-78746773D02*
X158193971Y-78746773D01*
X158193971Y-78746773D02*
X158079685Y-78689630D01*
X158079685Y-78689630D02*
X158022542Y-78575344D01*
X158022542Y-78575344D02*
X158022542Y-78403915D01*
X158022542Y-78403915D02*
X158079685Y-78289630D01*
X158079685Y-78289630D02*
X158136828Y-78232487D01*
X158822542Y-79318201D02*
X158022542Y-79318201D01*
X157622542Y-79318201D02*
X157679685Y-79261058D01*
X157679685Y-79261058D02*
X157736828Y-79318201D01*
X157736828Y-79318201D02*
X157679685Y-79375344D01*
X157679685Y-79375344D02*
X157622542Y-79318201D01*
X157622542Y-79318201D02*
X157736828Y-79318201D01*
X158822542Y-80061058D02*
X158765400Y-79946773D01*
X158765400Y-79946773D02*
X158651114Y-79889630D01*
X158651114Y-79889630D02*
X157622542Y-79889630D01*
X158822542Y-80518201D02*
X158022542Y-80518201D01*
X157622542Y-80518201D02*
X157679685Y-80461058D01*
X157679685Y-80461058D02*
X157736828Y-80518201D01*
X157736828Y-80518201D02*
X157679685Y-80575344D01*
X157679685Y-80575344D02*
X157622542Y-80518201D01*
X157622542Y-80518201D02*
X157736828Y-80518201D01*
X158022542Y-81089630D02*
X159222542Y-81089630D01*
X158079685Y-81089630D02*
X158022542Y-81203916D01*
X158022542Y-81203916D02*
X158022542Y-81432487D01*
X158022542Y-81432487D02*
X158079685Y-81546773D01*
X158079685Y-81546773D02*
X158136828Y-81603916D01*
X158136828Y-81603916D02*
X158251114Y-81661058D01*
X158251114Y-81661058D02*
X158593971Y-81661058D01*
X158593971Y-81661058D02*
X158708257Y-81603916D01*
X158708257Y-81603916D02*
X158765400Y-81546773D01*
X158765400Y-81546773D02*
X158822542Y-81432487D01*
X158822542Y-81432487D02*
X158822542Y-81203916D01*
X158822542Y-81203916D02*
X158765400Y-81089630D01*
X158022542Y-82175344D02*
X159222542Y-82175344D01*
X158079685Y-82175344D02*
X158022542Y-82289630D01*
X158022542Y-82289630D02*
X158022542Y-82518201D01*
X158022542Y-82518201D02*
X158079685Y-82632487D01*
X158079685Y-82632487D02*
X158136828Y-82689630D01*
X158136828Y-82689630D02*
X158251114Y-82746772D01*
X158251114Y-82746772D02*
X158593971Y-82746772D01*
X158593971Y-82746772D02*
X158708257Y-82689630D01*
X158708257Y-82689630D02*
X158765400Y-82632487D01*
X158765400Y-82632487D02*
X158822542Y-82518201D01*
X158822542Y-82518201D02*
X158822542Y-82289630D01*
X158822542Y-82289630D02*
X158765400Y-82175344D01*
X158765400Y-83718201D02*
X158822542Y-83603915D01*
X158822542Y-83603915D02*
X158822542Y-83375344D01*
X158822542Y-83375344D02*
X158765400Y-83261058D01*
X158765400Y-83261058D02*
X158651114Y-83203915D01*
X158651114Y-83203915D02*
X158193971Y-83203915D01*
X158193971Y-83203915D02*
X158079685Y-83261058D01*
X158079685Y-83261058D02*
X158022542Y-83375344D01*
X158022542Y-83375344D02*
X158022542Y-83603915D01*
X158022542Y-83603915D02*
X158079685Y-83718201D01*
X158079685Y-83718201D02*
X158193971Y-83775344D01*
X158193971Y-83775344D02*
X158308257Y-83775344D01*
X158308257Y-83775344D02*
X158422542Y-83203915D01*
X158822542Y-84918200D02*
X158822542Y-84232486D01*
X158822542Y-84575343D02*
X157622542Y-84575343D01*
X157622542Y-84575343D02*
X157793971Y-84461057D01*
X157793971Y-84461057D02*
X157908257Y-84346772D01*
X157908257Y-84346772D02*
X157965400Y-84232486D01*
X157736828Y-85375343D02*
X157679685Y-85432486D01*
X157679685Y-85432486D02*
X157622542Y-85546772D01*
X157622542Y-85546772D02*
X157622542Y-85832486D01*
X157622542Y-85832486D02*
X157679685Y-85946772D01*
X157679685Y-85946772D02*
X157736828Y-86003914D01*
X157736828Y-86003914D02*
X157851114Y-86061057D01*
X157851114Y-86061057D02*
X157965400Y-86061057D01*
X157965400Y-86061057D02*
X158136828Y-86003914D01*
X158136828Y-86003914D02*
X158822542Y-85318200D01*
X158822542Y-85318200D02*
X158822542Y-86061057D01*
X157565400Y-87432486D02*
X159108257Y-86403914D01*
X158708257Y-88518200D02*
X158765400Y-88461057D01*
X158765400Y-88461057D02*
X158822542Y-88289629D01*
X158822542Y-88289629D02*
X158822542Y-88175343D01*
X158822542Y-88175343D02*
X158765400Y-88003914D01*
X158765400Y-88003914D02*
X158651114Y-87889629D01*
X158651114Y-87889629D02*
X158536828Y-87832486D01*
X158536828Y-87832486D02*
X158308257Y-87775343D01*
X158308257Y-87775343D02*
X158136828Y-87775343D01*
X158136828Y-87775343D02*
X157908257Y-87832486D01*
X157908257Y-87832486D02*
X157793971Y-87889629D01*
X157793971Y-87889629D02*
X157679685Y-88003914D01*
X157679685Y-88003914D02*
X157622542Y-88175343D01*
X157622542Y-88175343D02*
X157622542Y-88289629D01*
X157622542Y-88289629D02*
X157679685Y-88461057D01*
X157679685Y-88461057D02*
X157736828Y-88518200D01*
X158822542Y-89546772D02*
X158193971Y-89546772D01*
X158193971Y-89546772D02*
X158079685Y-89489629D01*
X158079685Y-89489629D02*
X158022542Y-89375343D01*
X158022542Y-89375343D02*
X158022542Y-89146772D01*
X158022542Y-89146772D02*
X158079685Y-89032486D01*
X158765400Y-89546772D02*
X158822542Y-89432486D01*
X158822542Y-89432486D02*
X158822542Y-89146772D01*
X158822542Y-89146772D02*
X158765400Y-89032486D01*
X158765400Y-89032486D02*
X158651114Y-88975343D01*
X158651114Y-88975343D02*
X158536828Y-88975343D01*
X158536828Y-88975343D02*
X158422542Y-89032486D01*
X158422542Y-89032486D02*
X158365400Y-89146772D01*
X158365400Y-89146772D02*
X158365400Y-89432486D01*
X158365400Y-89432486D02*
X158308257Y-89546772D01*
X158022542Y-90118200D02*
X159222542Y-90118200D01*
X158079685Y-90118200D02*
X158022542Y-90232486D01*
X158022542Y-90232486D02*
X158022542Y-90461057D01*
X158022542Y-90461057D02*
X158079685Y-90575343D01*
X158079685Y-90575343D02*
X158136828Y-90632486D01*
X158136828Y-90632486D02*
X158251114Y-90689628D01*
X158251114Y-90689628D02*
X158593971Y-90689628D01*
X158593971Y-90689628D02*
X158708257Y-90632486D01*
X158708257Y-90632486D02*
X158765400Y-90575343D01*
X158765400Y-90575343D02*
X158822542Y-90461057D01*
X158822542Y-90461057D02*
X158822542Y-90232486D01*
X158822542Y-90232486D02*
X158765400Y-90118200D01*
X158022542Y-91032485D02*
X158022542Y-91489628D01*
X157622542Y-91203914D02*
X158651114Y-91203914D01*
X158651114Y-91203914D02*
X158765400Y-91261057D01*
X158765400Y-91261057D02*
X158822542Y-91375342D01*
X158822542Y-91375342D02*
X158822542Y-91489628D01*
X158822542Y-92061056D02*
X158765400Y-91946771D01*
X158765400Y-91946771D02*
X158708257Y-91889628D01*
X158708257Y-91889628D02*
X158593971Y-91832485D01*
X158593971Y-91832485D02*
X158251114Y-91832485D01*
X158251114Y-91832485D02*
X158136828Y-91889628D01*
X158136828Y-91889628D02*
X158079685Y-91946771D01*
X158079685Y-91946771D02*
X158022542Y-92061056D01*
X158022542Y-92061056D02*
X158022542Y-92232485D01*
X158022542Y-92232485D02*
X158079685Y-92346771D01*
X158079685Y-92346771D02*
X158136828Y-92403914D01*
X158136828Y-92403914D02*
X158251114Y-92461056D01*
X158251114Y-92461056D02*
X158593971Y-92461056D01*
X158593971Y-92461056D02*
X158708257Y-92403914D01*
X158708257Y-92403914D02*
X158765400Y-92346771D01*
X158765400Y-92346771D02*
X158822542Y-92232485D01*
X158822542Y-92232485D02*
X158822542Y-92061056D01*
X158822542Y-92975342D02*
X158022542Y-92975342D01*
X158251114Y-92975342D02*
X158136828Y-93032485D01*
X158136828Y-93032485D02*
X158079685Y-93089628D01*
X158079685Y-93089628D02*
X158022542Y-93203913D01*
X158022542Y-93203913D02*
X158022542Y-93318199D01*
X158193971Y-94118199D02*
X158251114Y-94289627D01*
X158251114Y-94289627D02*
X158308257Y-94346770D01*
X158308257Y-94346770D02*
X158422542Y-94403913D01*
X158422542Y-94403913D02*
X158593971Y-94403913D01*
X158593971Y-94403913D02*
X158708257Y-94346770D01*
X158708257Y-94346770D02*
X158765400Y-94289627D01*
X158765400Y-94289627D02*
X158822542Y-94175342D01*
X158822542Y-94175342D02*
X158822542Y-93718199D01*
X158822542Y-93718199D02*
X157622542Y-93718199D01*
X157622542Y-93718199D02*
X157622542Y-94118199D01*
X157622542Y-94118199D02*
X157679685Y-94232485D01*
X157679685Y-94232485D02*
X157736828Y-94289627D01*
X157736828Y-94289627D02*
X157851114Y-94346770D01*
X157851114Y-94346770D02*
X157965400Y-94346770D01*
X157965400Y-94346770D02*
X158079685Y-94289627D01*
X158079685Y-94289627D02*
X158136828Y-94232485D01*
X158136828Y-94232485D02*
X158193971Y-94118199D01*
X158193971Y-94118199D02*
X158193971Y-93718199D01*
X158822542Y-95089627D02*
X158765400Y-94975342D01*
X158765400Y-94975342D02*
X158708257Y-94918199D01*
X158708257Y-94918199D02*
X158593971Y-94861056D01*
X158593971Y-94861056D02*
X158251114Y-94861056D01*
X158251114Y-94861056D02*
X158136828Y-94918199D01*
X158136828Y-94918199D02*
X158079685Y-94975342D01*
X158079685Y-94975342D02*
X158022542Y-95089627D01*
X158022542Y-95089627D02*
X158022542Y-95261056D01*
X158022542Y-95261056D02*
X158079685Y-95375342D01*
X158079685Y-95375342D02*
X158136828Y-95432485D01*
X158136828Y-95432485D02*
X158251114Y-95489627D01*
X158251114Y-95489627D02*
X158593971Y-95489627D01*
X158593971Y-95489627D02*
X158708257Y-95432485D01*
X158708257Y-95432485D02*
X158765400Y-95375342D01*
X158765400Y-95375342D02*
X158822542Y-95261056D01*
X158822542Y-95261056D02*
X158822542Y-95089627D01*
X158822542Y-96518199D02*
X158193971Y-96518199D01*
X158193971Y-96518199D02*
X158079685Y-96461056D01*
X158079685Y-96461056D02*
X158022542Y-96346770D01*
X158022542Y-96346770D02*
X158022542Y-96118199D01*
X158022542Y-96118199D02*
X158079685Y-96003913D01*
X158765400Y-96518199D02*
X158822542Y-96403913D01*
X158822542Y-96403913D02*
X158822542Y-96118199D01*
X158822542Y-96118199D02*
X158765400Y-96003913D01*
X158765400Y-96003913D02*
X158651114Y-95946770D01*
X158651114Y-95946770D02*
X158536828Y-95946770D01*
X158536828Y-95946770D02*
X158422542Y-96003913D01*
X158422542Y-96003913D02*
X158365400Y-96118199D01*
X158365400Y-96118199D02*
X158365400Y-96403913D01*
X158365400Y-96403913D02*
X158308257Y-96518199D01*
X158822542Y-97089627D02*
X158022542Y-97089627D01*
X158251114Y-97089627D02*
X158136828Y-97146770D01*
X158136828Y-97146770D02*
X158079685Y-97203913D01*
X158079685Y-97203913D02*
X158022542Y-97318198D01*
X158022542Y-97318198D02*
X158022542Y-97432484D01*
X158822542Y-98346770D02*
X157622542Y-98346770D01*
X158765400Y-98346770D02*
X158822542Y-98232484D01*
X158822542Y-98232484D02*
X158822542Y-98003912D01*
X158822542Y-98003912D02*
X158765400Y-97889627D01*
X158765400Y-97889627D02*
X158708257Y-97832484D01*
X158708257Y-97832484D02*
X158593971Y-97775341D01*
X158593971Y-97775341D02*
X158251114Y-97775341D01*
X158251114Y-97775341D02*
X158136828Y-97832484D01*
X158136828Y-97832484D02*
X158079685Y-97889627D01*
X158079685Y-97889627D02*
X158022542Y-98003912D01*
X158022542Y-98003912D02*
X158022542Y-98232484D01*
X158022542Y-98232484D02*
X158079685Y-98346770D01*
D10*
X116757953Y-79738738D02*
X116757953Y-78767309D01*
X116757953Y-79253023D02*
X115057953Y-79253023D01*
X115057953Y-79253023D02*
X115300810Y-79091119D01*
X115300810Y-79091119D02*
X115462715Y-78929214D01*
X115462715Y-78929214D02*
X115543667Y-78767309D01*
X116110334Y-81762547D02*
X116110334Y-83057786D01*
X115057953Y-85000643D02*
X115057953Y-86053024D01*
X115057953Y-86053024D02*
X115705572Y-85486357D01*
X115705572Y-85486357D02*
X115705572Y-85729214D01*
X115705572Y-85729214D02*
X115786524Y-85891119D01*
X115786524Y-85891119D02*
X115867477Y-85972071D01*
X115867477Y-85972071D02*
X116029381Y-86053024D01*
X116029381Y-86053024D02*
X116434143Y-86053024D01*
X116434143Y-86053024D02*
X116596048Y-85972071D01*
X116596048Y-85972071D02*
X116677001Y-85891119D01*
X116677001Y-85891119D02*
X116757953Y-85729214D01*
X116757953Y-85729214D02*
X116757953Y-85243500D01*
X116757953Y-85243500D02*
X116677001Y-85081595D01*
X116677001Y-85081595D02*
X116596048Y-85000643D01*
X116596048Y-86781595D02*
X116677001Y-86862548D01*
X116677001Y-86862548D02*
X116757953Y-86781595D01*
X116757953Y-86781595D02*
X116677001Y-86700643D01*
X116677001Y-86700643D02*
X116596048Y-86781595D01*
X116596048Y-86781595D02*
X116757953Y-86781595D01*
X115057953Y-87429215D02*
X115057953Y-88481596D01*
X115057953Y-88481596D02*
X115705572Y-87914929D01*
X115705572Y-87914929D02*
X115705572Y-88157786D01*
X115705572Y-88157786D02*
X115786524Y-88319691D01*
X115786524Y-88319691D02*
X115867477Y-88400643D01*
X115867477Y-88400643D02*
X116029381Y-88481596D01*
X116029381Y-88481596D02*
X116434143Y-88481596D01*
X116434143Y-88481596D02*
X116596048Y-88400643D01*
X116596048Y-88400643D02*
X116677001Y-88319691D01*
X116677001Y-88319691D02*
X116757953Y-88157786D01*
X116757953Y-88157786D02*
X116757953Y-87672072D01*
X116757953Y-87672072D02*
X116677001Y-87510167D01*
X116677001Y-87510167D02*
X116596048Y-87429215D01*
X115057953Y-88967310D02*
X116757953Y-89533977D01*
X116757953Y-89533977D02*
X115057953Y-90100644D01*
X117973858Y-78767309D02*
X117892905Y-78848261D01*
X117892905Y-78848261D02*
X117811953Y-79010166D01*
X117811953Y-79010166D02*
X117811953Y-79414928D01*
X117811953Y-79414928D02*
X117892905Y-79576833D01*
X117892905Y-79576833D02*
X117973858Y-79657785D01*
X117973858Y-79657785D02*
X118135762Y-79738738D01*
X118135762Y-79738738D02*
X118297667Y-79738738D01*
X118297667Y-79738738D02*
X118540524Y-79657785D01*
X118540524Y-79657785D02*
X119511953Y-78686357D01*
X119511953Y-78686357D02*
X119511953Y-79738738D01*
X118864334Y-81762547D02*
X118864334Y-83057786D01*
X119350048Y-86133976D02*
X119431001Y-86053024D01*
X119431001Y-86053024D02*
X119511953Y-85810166D01*
X119511953Y-85810166D02*
X119511953Y-85648262D01*
X119511953Y-85648262D02*
X119431001Y-85405405D01*
X119431001Y-85405405D02*
X119269096Y-85243500D01*
X119269096Y-85243500D02*
X119107191Y-85162547D01*
X119107191Y-85162547D02*
X118783381Y-85081595D01*
X118783381Y-85081595D02*
X118540524Y-85081595D01*
X118540524Y-85081595D02*
X118216715Y-85162547D01*
X118216715Y-85162547D02*
X118054810Y-85243500D01*
X118054810Y-85243500D02*
X117892905Y-85405405D01*
X117892905Y-85405405D02*
X117811953Y-85648262D01*
X117811953Y-85648262D02*
X117811953Y-85810166D01*
X117811953Y-85810166D02*
X117892905Y-86053024D01*
X117892905Y-86053024D02*
X117973858Y-86133976D01*
X119511953Y-87591119D02*
X118621477Y-87591119D01*
X118621477Y-87591119D02*
X118459572Y-87510166D01*
X118459572Y-87510166D02*
X118378620Y-87348262D01*
X118378620Y-87348262D02*
X118378620Y-87024452D01*
X118378620Y-87024452D02*
X118459572Y-86862547D01*
X119431001Y-87591119D02*
X119511953Y-87429214D01*
X119511953Y-87429214D02*
X119511953Y-87024452D01*
X119511953Y-87024452D02*
X119431001Y-86862547D01*
X119431001Y-86862547D02*
X119269096Y-86781595D01*
X119269096Y-86781595D02*
X119107191Y-86781595D01*
X119107191Y-86781595D02*
X118945286Y-86862547D01*
X118945286Y-86862547D02*
X118864334Y-87024452D01*
X118864334Y-87024452D02*
X118864334Y-87429214D01*
X118864334Y-87429214D02*
X118783381Y-87591119D01*
X118378620Y-88400642D02*
X120078620Y-88400642D01*
X118459572Y-88400642D02*
X118378620Y-88562547D01*
X118378620Y-88562547D02*
X118378620Y-88886357D01*
X118378620Y-88886357D02*
X118459572Y-89048261D01*
X118459572Y-89048261D02*
X118540524Y-89129214D01*
X118540524Y-89129214D02*
X118702429Y-89210166D01*
X118702429Y-89210166D02*
X119188143Y-89210166D01*
X119188143Y-89210166D02*
X119350048Y-89129214D01*
X119350048Y-89129214D02*
X119431001Y-89048261D01*
X119431001Y-89048261D02*
X119511953Y-88886357D01*
X119511953Y-88886357D02*
X119511953Y-88562547D01*
X119511953Y-88562547D02*
X119431001Y-88400642D01*
X118378620Y-89695880D02*
X118378620Y-90343499D01*
X117811953Y-89938737D02*
X119269096Y-89938737D01*
X119269096Y-89938737D02*
X119431001Y-90019690D01*
X119431001Y-90019690D02*
X119511953Y-90181595D01*
X119511953Y-90181595D02*
X119511953Y-90343499D01*
X119511953Y-91153024D02*
X119431001Y-90991119D01*
X119431001Y-90991119D02*
X119350048Y-90910166D01*
X119350048Y-90910166D02*
X119188143Y-90829214D01*
X119188143Y-90829214D02*
X118702429Y-90829214D01*
X118702429Y-90829214D02*
X118540524Y-90910166D01*
X118540524Y-90910166D02*
X118459572Y-90991119D01*
X118459572Y-90991119D02*
X118378620Y-91153024D01*
X118378620Y-91153024D02*
X118378620Y-91395881D01*
X118378620Y-91395881D02*
X118459572Y-91557785D01*
X118459572Y-91557785D02*
X118540524Y-91638738D01*
X118540524Y-91638738D02*
X118702429Y-91719690D01*
X118702429Y-91719690D02*
X119188143Y-91719690D01*
X119188143Y-91719690D02*
X119350048Y-91638738D01*
X119350048Y-91638738D02*
X119431001Y-91557785D01*
X119431001Y-91557785D02*
X119511953Y-91395881D01*
X119511953Y-91395881D02*
X119511953Y-91153024D01*
X119511953Y-92448261D02*
X118378620Y-92448261D01*
X118702429Y-92448261D02*
X118540524Y-92529214D01*
X118540524Y-92529214D02*
X118459572Y-92610166D01*
X118459572Y-92610166D02*
X118378620Y-92772071D01*
X118378620Y-92772071D02*
X118378620Y-92933976D01*
X120565953Y-78686357D02*
X120565953Y-79738738D01*
X120565953Y-79738738D02*
X121213572Y-79172071D01*
X121213572Y-79172071D02*
X121213572Y-79414928D01*
X121213572Y-79414928D02*
X121294524Y-79576833D01*
X121294524Y-79576833D02*
X121375477Y-79657785D01*
X121375477Y-79657785D02*
X121537381Y-79738738D01*
X121537381Y-79738738D02*
X121942143Y-79738738D01*
X121942143Y-79738738D02*
X122104048Y-79657785D01*
X122104048Y-79657785D02*
X122185001Y-79576833D01*
X122185001Y-79576833D02*
X122265953Y-79414928D01*
X122265953Y-79414928D02*
X122265953Y-78929214D01*
X122265953Y-78929214D02*
X122185001Y-78767309D01*
X122185001Y-78767309D02*
X122104048Y-78686357D01*
X121618334Y-81762547D02*
X121618334Y-83057786D01*
X123886620Y-79576833D02*
X125019953Y-79576833D01*
X123239001Y-79172071D02*
X124453286Y-78767309D01*
X124453286Y-78767309D02*
X124453286Y-79819690D01*
X124372334Y-81762547D02*
X124372334Y-83057786D01*
X123400905Y-86053024D02*
X123319953Y-85891119D01*
X123319953Y-85891119D02*
X123319953Y-85648262D01*
X123319953Y-85648262D02*
X123400905Y-85405405D01*
X123400905Y-85405405D02*
X123562810Y-85243500D01*
X123562810Y-85243500D02*
X123724715Y-85162547D01*
X123724715Y-85162547D02*
X124048524Y-85081595D01*
X124048524Y-85081595D02*
X124291381Y-85081595D01*
X124291381Y-85081595D02*
X124615191Y-85162547D01*
X124615191Y-85162547D02*
X124777096Y-85243500D01*
X124777096Y-85243500D02*
X124939001Y-85405405D01*
X124939001Y-85405405D02*
X125019953Y-85648262D01*
X125019953Y-85648262D02*
X125019953Y-85810166D01*
X125019953Y-85810166D02*
X124939001Y-86053024D01*
X124939001Y-86053024D02*
X124858048Y-86133976D01*
X124858048Y-86133976D02*
X124291381Y-86133976D01*
X124291381Y-86133976D02*
X124291381Y-85810166D01*
X125019953Y-86862547D02*
X123319953Y-86862547D01*
X123319953Y-86862547D02*
X125019953Y-87833976D01*
X125019953Y-87833976D02*
X123319953Y-87833976D01*
X125019953Y-88643499D02*
X123319953Y-88643499D01*
X123319953Y-88643499D02*
X123319953Y-89048261D01*
X123319953Y-89048261D02*
X123400905Y-89291118D01*
X123400905Y-89291118D02*
X123562810Y-89453023D01*
X123562810Y-89453023D02*
X123724715Y-89533976D01*
X123724715Y-89533976D02*
X124048524Y-89614928D01*
X124048524Y-89614928D02*
X124291381Y-89614928D01*
X124291381Y-89614928D02*
X124615191Y-89533976D01*
X124615191Y-89533976D02*
X124777096Y-89453023D01*
X124777096Y-89453023D02*
X124939001Y-89291118D01*
X124939001Y-89291118D02*
X125019953Y-89048261D01*
X125019953Y-89048261D02*
X125019953Y-88643499D01*
X98461238Y-83534047D02*
X97508857Y-82867380D01*
X98461238Y-82391190D02*
X96461238Y-82391190D01*
X96461238Y-82391190D02*
X96461238Y-83153095D01*
X96461238Y-83153095D02*
X96556476Y-83343571D01*
X96556476Y-83343571D02*
X96651714Y-83438809D01*
X96651714Y-83438809D02*
X96842190Y-83534047D01*
X96842190Y-83534047D02*
X97127904Y-83534047D01*
X97127904Y-83534047D02*
X97318380Y-83438809D01*
X97318380Y-83438809D02*
X97413619Y-83343571D01*
X97413619Y-83343571D02*
X97508857Y-83153095D01*
X97508857Y-83153095D02*
X97508857Y-82391190D01*
X98366000Y-85153095D02*
X98461238Y-84962619D01*
X98461238Y-84962619D02*
X98461238Y-84581666D01*
X98461238Y-84581666D02*
X98366000Y-84391190D01*
X98366000Y-84391190D02*
X98175523Y-84295952D01*
X98175523Y-84295952D02*
X97413619Y-84295952D01*
X97413619Y-84295952D02*
X97223142Y-84391190D01*
X97223142Y-84391190D02*
X97127904Y-84581666D01*
X97127904Y-84581666D02*
X97127904Y-84962619D01*
X97127904Y-84962619D02*
X97223142Y-85153095D01*
X97223142Y-85153095D02*
X97413619Y-85248333D01*
X97413619Y-85248333D02*
X97604095Y-85248333D01*
X97604095Y-85248333D02*
X97794571Y-84295952D01*
X98366000Y-86010238D02*
X98461238Y-86200714D01*
X98461238Y-86200714D02*
X98461238Y-86581666D01*
X98461238Y-86581666D02*
X98366000Y-86772143D01*
X98366000Y-86772143D02*
X98175523Y-86867381D01*
X98175523Y-86867381D02*
X98080285Y-86867381D01*
X98080285Y-86867381D02*
X97889809Y-86772143D01*
X97889809Y-86772143D02*
X97794571Y-86581666D01*
X97794571Y-86581666D02*
X97794571Y-86295952D01*
X97794571Y-86295952D02*
X97699333Y-86105476D01*
X97699333Y-86105476D02*
X97508857Y-86010238D01*
X97508857Y-86010238D02*
X97413619Y-86010238D01*
X97413619Y-86010238D02*
X97223142Y-86105476D01*
X97223142Y-86105476D02*
X97127904Y-86295952D01*
X97127904Y-86295952D02*
X97127904Y-86581666D01*
X97127904Y-86581666D02*
X97223142Y-86772143D01*
X98366000Y-88486429D02*
X98461238Y-88295953D01*
X98461238Y-88295953D02*
X98461238Y-87915000D01*
X98461238Y-87915000D02*
X98366000Y-87724524D01*
X98366000Y-87724524D02*
X98175523Y-87629286D01*
X98175523Y-87629286D02*
X97413619Y-87629286D01*
X97413619Y-87629286D02*
X97223142Y-87724524D01*
X97223142Y-87724524D02*
X97127904Y-87915000D01*
X97127904Y-87915000D02*
X97127904Y-88295953D01*
X97127904Y-88295953D02*
X97223142Y-88486429D01*
X97223142Y-88486429D02*
X97413619Y-88581667D01*
X97413619Y-88581667D02*
X97604095Y-88581667D01*
X97604095Y-88581667D02*
X97794571Y-87629286D01*
X97127904Y-89153096D02*
X97127904Y-89915000D01*
X96461238Y-89438810D02*
X98175523Y-89438810D01*
X98175523Y-89438810D02*
X98366000Y-89534048D01*
X98366000Y-89534048D02*
X98461238Y-89724524D01*
X98461238Y-89724524D02*
X98461238Y-89915000D01*
X183693928Y-68821428D02*
X182193928Y-68821428D01*
X182193928Y-68821428D02*
X183693928Y-69678571D01*
X183693928Y-69678571D02*
X182193928Y-69678571D01*
X183551071Y-71250000D02*
X183622500Y-71178572D01*
X183622500Y-71178572D02*
X183693928Y-70964286D01*
X183693928Y-70964286D02*
X183693928Y-70821429D01*
X183693928Y-70821429D02*
X183622500Y-70607143D01*
X183622500Y-70607143D02*
X183479642Y-70464286D01*
X183479642Y-70464286D02*
X183336785Y-70392857D01*
X183336785Y-70392857D02*
X183051071Y-70321429D01*
X183051071Y-70321429D02*
X182836785Y-70321429D01*
X182836785Y-70321429D02*
X182551071Y-70392857D01*
X182551071Y-70392857D02*
X182408214Y-70464286D01*
X182408214Y-70464286D02*
X182265357Y-70607143D01*
X182265357Y-70607143D02*
X182193928Y-70821429D01*
X182193928Y-70821429D02*
X182193928Y-70964286D01*
X182193928Y-70964286D02*
X182265357Y-71178572D01*
X182265357Y-71178572D02*
X182336785Y-71250000D01*
X115234761Y-52619047D02*
X115330000Y-52523809D01*
X115330000Y-52523809D02*
X115425238Y-52238095D01*
X115425238Y-52238095D02*
X115425238Y-52047619D01*
X115425238Y-52047619D02*
X115330000Y-51761904D01*
X115330000Y-51761904D02*
X115139523Y-51571428D01*
X115139523Y-51571428D02*
X114949047Y-51476190D01*
X114949047Y-51476190D02*
X114568095Y-51380952D01*
X114568095Y-51380952D02*
X114282380Y-51380952D01*
X114282380Y-51380952D02*
X113901428Y-51476190D01*
X113901428Y-51476190D02*
X113710952Y-51571428D01*
X113710952Y-51571428D02*
X113520476Y-51761904D01*
X113520476Y-51761904D02*
X113425238Y-52047619D01*
X113425238Y-52047619D02*
X113425238Y-52238095D01*
X113425238Y-52238095D02*
X113520476Y-52523809D01*
X113520476Y-52523809D02*
X113615714Y-52619047D01*
X115425238Y-53761904D02*
X115330000Y-53571428D01*
X115330000Y-53571428D02*
X115234761Y-53476190D01*
X115234761Y-53476190D02*
X115044285Y-53380952D01*
X115044285Y-53380952D02*
X114472857Y-53380952D01*
X114472857Y-53380952D02*
X114282380Y-53476190D01*
X114282380Y-53476190D02*
X114187142Y-53571428D01*
X114187142Y-53571428D02*
X114091904Y-53761904D01*
X114091904Y-53761904D02*
X114091904Y-54047619D01*
X114091904Y-54047619D02*
X114187142Y-54238095D01*
X114187142Y-54238095D02*
X114282380Y-54333333D01*
X114282380Y-54333333D02*
X114472857Y-54428571D01*
X114472857Y-54428571D02*
X115044285Y-54428571D01*
X115044285Y-54428571D02*
X115234761Y-54333333D01*
X115234761Y-54333333D02*
X115330000Y-54238095D01*
X115330000Y-54238095D02*
X115425238Y-54047619D01*
X115425238Y-54047619D02*
X115425238Y-53761904D01*
X114091904Y-55285714D02*
X115425238Y-55285714D01*
X114282380Y-55285714D02*
X114187142Y-55380952D01*
X114187142Y-55380952D02*
X114091904Y-55571428D01*
X114091904Y-55571428D02*
X114091904Y-55857143D01*
X114091904Y-55857143D02*
X114187142Y-56047619D01*
X114187142Y-56047619D02*
X114377619Y-56142857D01*
X114377619Y-56142857D02*
X115425238Y-56142857D01*
X114091904Y-56809524D02*
X114091904Y-57571428D01*
X115425238Y-57095238D02*
X113710952Y-57095238D01*
X113710952Y-57095238D02*
X113520476Y-57190476D01*
X113520476Y-57190476D02*
X113425238Y-57380952D01*
X113425238Y-57380952D02*
X113425238Y-57571428D01*
X98366000Y-59689952D02*
X98461238Y-59975666D01*
X98461238Y-59975666D02*
X98461238Y-60451857D01*
X98461238Y-60451857D02*
X98366000Y-60642333D01*
X98366000Y-60642333D02*
X98270761Y-60737571D01*
X98270761Y-60737571D02*
X98080285Y-60832809D01*
X98080285Y-60832809D02*
X97889809Y-60832809D01*
X97889809Y-60832809D02*
X97699333Y-60737571D01*
X97699333Y-60737571D02*
X97604095Y-60642333D01*
X97604095Y-60642333D02*
X97508857Y-60451857D01*
X97508857Y-60451857D02*
X97413619Y-60070904D01*
X97413619Y-60070904D02*
X97318380Y-59880428D01*
X97318380Y-59880428D02*
X97223142Y-59785190D01*
X97223142Y-59785190D02*
X97032666Y-59689952D01*
X97032666Y-59689952D02*
X96842190Y-59689952D01*
X96842190Y-59689952D02*
X96651714Y-59785190D01*
X96651714Y-59785190D02*
X96556476Y-59880428D01*
X96556476Y-59880428D02*
X96461238Y-60070904D01*
X96461238Y-60070904D02*
X96461238Y-60547095D01*
X96461238Y-60547095D02*
X96556476Y-60832809D01*
X98366000Y-62451857D02*
X98461238Y-62261381D01*
X98461238Y-62261381D02*
X98461238Y-61880428D01*
X98461238Y-61880428D02*
X98366000Y-61689952D01*
X98366000Y-61689952D02*
X98175523Y-61594714D01*
X98175523Y-61594714D02*
X97413619Y-61594714D01*
X97413619Y-61594714D02*
X97223142Y-61689952D01*
X97223142Y-61689952D02*
X97127904Y-61880428D01*
X97127904Y-61880428D02*
X97127904Y-62261381D01*
X97127904Y-62261381D02*
X97223142Y-62451857D01*
X97223142Y-62451857D02*
X97413619Y-62547095D01*
X97413619Y-62547095D02*
X97604095Y-62547095D01*
X97604095Y-62547095D02*
X97794571Y-61594714D01*
X98461238Y-63689952D02*
X98366000Y-63499476D01*
X98366000Y-63499476D02*
X98175523Y-63404238D01*
X98175523Y-63404238D02*
X96461238Y-63404238D01*
X98366000Y-65213762D02*
X98461238Y-65023286D01*
X98461238Y-65023286D02*
X98461238Y-64642333D01*
X98461238Y-64642333D02*
X98366000Y-64451857D01*
X98366000Y-64451857D02*
X98175523Y-64356619D01*
X98175523Y-64356619D02*
X97413619Y-64356619D01*
X97413619Y-64356619D02*
X97223142Y-64451857D01*
X97223142Y-64451857D02*
X97127904Y-64642333D01*
X97127904Y-64642333D02*
X97127904Y-65023286D01*
X97127904Y-65023286D02*
X97223142Y-65213762D01*
X97223142Y-65213762D02*
X97413619Y-65309000D01*
X97413619Y-65309000D02*
X97604095Y-65309000D01*
X97604095Y-65309000D02*
X97794571Y-64356619D01*
X98366000Y-67023286D02*
X98461238Y-66832810D01*
X98461238Y-66832810D02*
X98461238Y-66451857D01*
X98461238Y-66451857D02*
X98366000Y-66261381D01*
X98366000Y-66261381D02*
X98270761Y-66166143D01*
X98270761Y-66166143D02*
X98080285Y-66070905D01*
X98080285Y-66070905D02*
X97508857Y-66070905D01*
X97508857Y-66070905D02*
X97318380Y-66166143D01*
X97318380Y-66166143D02*
X97223142Y-66261381D01*
X97223142Y-66261381D02*
X97127904Y-66451857D01*
X97127904Y-66451857D02*
X97127904Y-66832810D01*
X97127904Y-66832810D02*
X97223142Y-67023286D01*
X97127904Y-67594715D02*
X97127904Y-68356619D01*
X96461238Y-67880429D02*
X98175523Y-67880429D01*
X98175523Y-67880429D02*
X98366000Y-67975667D01*
X98366000Y-67975667D02*
X98461238Y-68166143D01*
X98461238Y-68166143D02*
X98461238Y-68356619D01*
X183693928Y-85321428D02*
X182193928Y-85321428D01*
X182193928Y-85321428D02*
X183693928Y-86178571D01*
X183693928Y-86178571D02*
X182193928Y-86178571D01*
X183551071Y-87750000D02*
X183622500Y-87678572D01*
X183622500Y-87678572D02*
X183693928Y-87464286D01*
X183693928Y-87464286D02*
X183693928Y-87321429D01*
X183693928Y-87321429D02*
X183622500Y-87107143D01*
X183622500Y-87107143D02*
X183479642Y-86964286D01*
X183479642Y-86964286D02*
X183336785Y-86892857D01*
X183336785Y-86892857D02*
X183051071Y-86821429D01*
X183051071Y-86821429D02*
X182836785Y-86821429D01*
X182836785Y-86821429D02*
X182551071Y-86892857D01*
X182551071Y-86892857D02*
X182408214Y-86964286D01*
X182408214Y-86964286D02*
X182265357Y-87107143D01*
X182265357Y-87107143D02*
X182193928Y-87321429D01*
X182193928Y-87321429D02*
X182193928Y-87464286D01*
X182193928Y-87464286D02*
X182265357Y-87678572D01*
X182265357Y-87678572D02*
X182336785Y-87750000D01*
X183551071Y-52357142D02*
X183622500Y-52285714D01*
X183622500Y-52285714D02*
X183693928Y-52071428D01*
X183693928Y-52071428D02*
X183693928Y-51928571D01*
X183693928Y-51928571D02*
X183622500Y-51714285D01*
X183622500Y-51714285D02*
X183479642Y-51571428D01*
X183479642Y-51571428D02*
X183336785Y-51499999D01*
X183336785Y-51499999D02*
X183051071Y-51428571D01*
X183051071Y-51428571D02*
X182836785Y-51428571D01*
X182836785Y-51428571D02*
X182551071Y-51499999D01*
X182551071Y-51499999D02*
X182408214Y-51571428D01*
X182408214Y-51571428D02*
X182265357Y-51714285D01*
X182265357Y-51714285D02*
X182193928Y-51928571D01*
X182193928Y-51928571D02*
X182193928Y-52071428D01*
X182193928Y-52071428D02*
X182265357Y-52285714D01*
X182265357Y-52285714D02*
X182336785Y-52357142D01*
X183693928Y-52999999D02*
X182193928Y-52999999D01*
X182193928Y-52999999D02*
X183265357Y-53499999D01*
X183265357Y-53499999D02*
X182193928Y-53999999D01*
X182193928Y-53999999D02*
X183693928Y-53999999D01*
X183693928Y-54714285D02*
X182193928Y-54714285D01*
X182193928Y-54714285D02*
X182193928Y-55071428D01*
X182193928Y-55071428D02*
X182265357Y-55285714D01*
X182265357Y-55285714D02*
X182408214Y-55428571D01*
X182408214Y-55428571D02*
X182551071Y-55500000D01*
X182551071Y-55500000D02*
X182836785Y-55571428D01*
X182836785Y-55571428D02*
X183051071Y-55571428D01*
X183051071Y-55571428D02*
X183336785Y-55500000D01*
X183336785Y-55500000D02*
X183479642Y-55428571D01*
X183479642Y-55428571D02*
X183622500Y-55285714D01*
X183622500Y-55285714D02*
X183693928Y-55071428D01*
X183693928Y-55071428D02*
X183693928Y-54714285D01*
X107033809Y-88214284D02*
X107033809Y-89166665D01*
X107605238Y-88023808D02*
X105605238Y-88690474D01*
X105605238Y-88690474D02*
X107605238Y-89357141D01*
X107510000Y-90880951D02*
X107605238Y-90690475D01*
X107605238Y-90690475D02*
X107605238Y-90309522D01*
X107605238Y-90309522D02*
X107510000Y-90119046D01*
X107510000Y-90119046D02*
X107414761Y-90023808D01*
X107414761Y-90023808D02*
X107224285Y-89928570D01*
X107224285Y-89928570D02*
X106652857Y-89928570D01*
X106652857Y-89928570D02*
X106462380Y-90023808D01*
X106462380Y-90023808D02*
X106367142Y-90119046D01*
X106367142Y-90119046D02*
X106271904Y-90309522D01*
X106271904Y-90309522D02*
X106271904Y-90690475D01*
X106271904Y-90690475D02*
X106367142Y-90880951D01*
X106271904Y-91452380D02*
X106271904Y-92214284D01*
X105605238Y-91738094D02*
X107319523Y-91738094D01*
X107319523Y-91738094D02*
X107510000Y-91833332D01*
X107510000Y-91833332D02*
X107605238Y-92023808D01*
X107605238Y-92023808D02*
X107605238Y-92214284D01*
X107605238Y-92880951D02*
X106271904Y-92880951D01*
X105605238Y-92880951D02*
X105700476Y-92785713D01*
X105700476Y-92785713D02*
X105795714Y-92880951D01*
X105795714Y-92880951D02*
X105700476Y-92976189D01*
X105700476Y-92976189D02*
X105605238Y-92880951D01*
X105605238Y-92880951D02*
X105795714Y-92880951D01*
X106271904Y-93642856D02*
X107605238Y-94119046D01*
X107605238Y-94119046D02*
X106271904Y-94595237D01*
X107605238Y-95357142D02*
X106271904Y-95357142D01*
X105605238Y-95357142D02*
X105700476Y-95261904D01*
X105700476Y-95261904D02*
X105795714Y-95357142D01*
X105795714Y-95357142D02*
X105700476Y-95452380D01*
X105700476Y-95452380D02*
X105605238Y-95357142D01*
X105605238Y-95357142D02*
X105795714Y-95357142D01*
X106271904Y-96023809D02*
X106271904Y-96785713D01*
X105605238Y-96309523D02*
X107319523Y-96309523D01*
X107319523Y-96309523D02*
X107510000Y-96404761D01*
X107510000Y-96404761D02*
X107605238Y-96595237D01*
X107605238Y-96595237D02*
X107605238Y-96785713D01*
X106271904Y-97261904D02*
X107605238Y-97738094D01*
X106271904Y-98214285D02*
X107605238Y-97738094D01*
X107605238Y-97738094D02*
X108081428Y-97547618D01*
X108081428Y-97547618D02*
X108176666Y-97452380D01*
X108176666Y-97452380D02*
X108271904Y-97261904D01*
X183551071Y-90321428D02*
X183622500Y-90250000D01*
X183622500Y-90250000D02*
X183693928Y-90035714D01*
X183693928Y-90035714D02*
X183693928Y-89892857D01*
X183693928Y-89892857D02*
X183622500Y-89678571D01*
X183622500Y-89678571D02*
X183479642Y-89535714D01*
X183479642Y-89535714D02*
X183336785Y-89464285D01*
X183336785Y-89464285D02*
X183051071Y-89392857D01*
X183051071Y-89392857D02*
X182836785Y-89392857D01*
X182836785Y-89392857D02*
X182551071Y-89464285D01*
X182551071Y-89464285D02*
X182408214Y-89535714D01*
X182408214Y-89535714D02*
X182265357Y-89678571D01*
X182265357Y-89678571D02*
X182193928Y-89892857D01*
X182193928Y-89892857D02*
X182193928Y-90035714D01*
X182193928Y-90035714D02*
X182265357Y-90250000D01*
X182265357Y-90250000D02*
X182336785Y-90321428D01*
X182193928Y-91250000D02*
X182193928Y-91535714D01*
X182193928Y-91535714D02*
X182265357Y-91678571D01*
X182265357Y-91678571D02*
X182408214Y-91821428D01*
X182408214Y-91821428D02*
X182693928Y-91892857D01*
X182693928Y-91892857D02*
X183193928Y-91892857D01*
X183193928Y-91892857D02*
X183479642Y-91821428D01*
X183479642Y-91821428D02*
X183622500Y-91678571D01*
X183622500Y-91678571D02*
X183693928Y-91535714D01*
X183693928Y-91535714D02*
X183693928Y-91250000D01*
X183693928Y-91250000D02*
X183622500Y-91107143D01*
X183622500Y-91107143D02*
X183479642Y-90964285D01*
X183479642Y-90964285D02*
X183193928Y-90892857D01*
X183193928Y-90892857D02*
X182693928Y-90892857D01*
X182693928Y-90892857D02*
X182408214Y-90964285D01*
X182408214Y-90964285D02*
X182265357Y-91107143D01*
X182265357Y-91107143D02*
X182193928Y-91250000D01*
X183693928Y-92535714D02*
X182193928Y-92535714D01*
X182193928Y-92535714D02*
X183265357Y-93035714D01*
X183265357Y-93035714D02*
X182193928Y-93535714D01*
X182193928Y-93535714D02*
X183693928Y-93535714D01*
X108234761Y-52619047D02*
X108330000Y-52523809D01*
X108330000Y-52523809D02*
X108425238Y-52238095D01*
X108425238Y-52238095D02*
X108425238Y-52047619D01*
X108425238Y-52047619D02*
X108330000Y-51761904D01*
X108330000Y-51761904D02*
X108139523Y-51571428D01*
X108139523Y-51571428D02*
X107949047Y-51476190D01*
X107949047Y-51476190D02*
X107568095Y-51380952D01*
X107568095Y-51380952D02*
X107282380Y-51380952D01*
X107282380Y-51380952D02*
X106901428Y-51476190D01*
X106901428Y-51476190D02*
X106710952Y-51571428D01*
X106710952Y-51571428D02*
X106520476Y-51761904D01*
X106520476Y-51761904D02*
X106425238Y-52047619D01*
X106425238Y-52047619D02*
X106425238Y-52238095D01*
X106425238Y-52238095D02*
X106520476Y-52523809D01*
X106520476Y-52523809D02*
X106615714Y-52619047D01*
X108425238Y-53761904D02*
X108330000Y-53571428D01*
X108330000Y-53571428D02*
X108234761Y-53476190D01*
X108234761Y-53476190D02*
X108044285Y-53380952D01*
X108044285Y-53380952D02*
X107472857Y-53380952D01*
X107472857Y-53380952D02*
X107282380Y-53476190D01*
X107282380Y-53476190D02*
X107187142Y-53571428D01*
X107187142Y-53571428D02*
X107091904Y-53761904D01*
X107091904Y-53761904D02*
X107091904Y-54047619D01*
X107091904Y-54047619D02*
X107187142Y-54238095D01*
X107187142Y-54238095D02*
X107282380Y-54333333D01*
X107282380Y-54333333D02*
X107472857Y-54428571D01*
X107472857Y-54428571D02*
X108044285Y-54428571D01*
X108044285Y-54428571D02*
X108234761Y-54333333D01*
X108234761Y-54333333D02*
X108330000Y-54238095D01*
X108330000Y-54238095D02*
X108425238Y-54047619D01*
X108425238Y-54047619D02*
X108425238Y-53761904D01*
X107091904Y-55285714D02*
X108425238Y-55285714D01*
X107282380Y-55285714D02*
X107187142Y-55380952D01*
X107187142Y-55380952D02*
X107091904Y-55571428D01*
X107091904Y-55571428D02*
X107091904Y-55857143D01*
X107091904Y-55857143D02*
X107187142Y-56047619D01*
X107187142Y-56047619D02*
X107377619Y-56142857D01*
X107377619Y-56142857D02*
X108425238Y-56142857D01*
X107091904Y-56809524D02*
X107091904Y-57571428D01*
X108425238Y-57095238D02*
X106710952Y-57095238D01*
X106710952Y-57095238D02*
X106520476Y-57190476D01*
X106520476Y-57190476D02*
X106425238Y-57380952D01*
X106425238Y-57380952D02*
X106425238Y-57571428D01*
X107663333Y-59761905D02*
X107663333Y-61285715D01*
X106615714Y-62142857D02*
X106520476Y-62238095D01*
X106520476Y-62238095D02*
X106425238Y-62428571D01*
X106425238Y-62428571D02*
X106425238Y-62904762D01*
X106425238Y-62904762D02*
X106520476Y-63095238D01*
X106520476Y-63095238D02*
X106615714Y-63190476D01*
X106615714Y-63190476D02*
X106806190Y-63285714D01*
X106806190Y-63285714D02*
X106996666Y-63285714D01*
X106996666Y-63285714D02*
X107282380Y-63190476D01*
X107282380Y-63190476D02*
X108425238Y-62047619D01*
X108425238Y-62047619D02*
X108425238Y-63285714D01*
X106425238Y-64428571D02*
X106520476Y-64238095D01*
X106520476Y-64238095D02*
X106710952Y-64142857D01*
X106710952Y-64142857D02*
X106901428Y-64238095D01*
X106901428Y-64238095D02*
X106996666Y-64428571D01*
X106996666Y-64428571D02*
X106901428Y-64619047D01*
X106901428Y-64619047D02*
X106710952Y-64714286D01*
X106710952Y-64714286D02*
X106520476Y-64619047D01*
X106520476Y-64619047D02*
X106425238Y-64428571D01*
X108234761Y-66809524D02*
X108330000Y-66714286D01*
X108330000Y-66714286D02*
X108425238Y-66428572D01*
X108425238Y-66428572D02*
X108425238Y-66238096D01*
X108425238Y-66238096D02*
X108330000Y-65952381D01*
X108330000Y-65952381D02*
X108139523Y-65761905D01*
X108139523Y-65761905D02*
X107949047Y-65666667D01*
X107949047Y-65666667D02*
X107568095Y-65571429D01*
X107568095Y-65571429D02*
X107282380Y-65571429D01*
X107282380Y-65571429D02*
X106901428Y-65666667D01*
X106901428Y-65666667D02*
X106710952Y-65761905D01*
X106710952Y-65761905D02*
X106520476Y-65952381D01*
X106520476Y-65952381D02*
X106425238Y-66238096D01*
X106425238Y-66238096D02*
X106425238Y-66428572D01*
X106425238Y-66428572D02*
X106520476Y-66714286D01*
X106520476Y-66714286D02*
X106615714Y-66809524D01*
X111734761Y-52619047D02*
X111830000Y-52523809D01*
X111830000Y-52523809D02*
X111925238Y-52238095D01*
X111925238Y-52238095D02*
X111925238Y-52047619D01*
X111925238Y-52047619D02*
X111830000Y-51761904D01*
X111830000Y-51761904D02*
X111639523Y-51571428D01*
X111639523Y-51571428D02*
X111449047Y-51476190D01*
X111449047Y-51476190D02*
X111068095Y-51380952D01*
X111068095Y-51380952D02*
X110782380Y-51380952D01*
X110782380Y-51380952D02*
X110401428Y-51476190D01*
X110401428Y-51476190D02*
X110210952Y-51571428D01*
X110210952Y-51571428D02*
X110020476Y-51761904D01*
X110020476Y-51761904D02*
X109925238Y-52047619D01*
X109925238Y-52047619D02*
X109925238Y-52238095D01*
X109925238Y-52238095D02*
X110020476Y-52523809D01*
X110020476Y-52523809D02*
X110115714Y-52619047D01*
X111925238Y-53761904D02*
X111830000Y-53571428D01*
X111830000Y-53571428D02*
X111734761Y-53476190D01*
X111734761Y-53476190D02*
X111544285Y-53380952D01*
X111544285Y-53380952D02*
X110972857Y-53380952D01*
X110972857Y-53380952D02*
X110782380Y-53476190D01*
X110782380Y-53476190D02*
X110687142Y-53571428D01*
X110687142Y-53571428D02*
X110591904Y-53761904D01*
X110591904Y-53761904D02*
X110591904Y-54047619D01*
X110591904Y-54047619D02*
X110687142Y-54238095D01*
X110687142Y-54238095D02*
X110782380Y-54333333D01*
X110782380Y-54333333D02*
X110972857Y-54428571D01*
X110972857Y-54428571D02*
X111544285Y-54428571D01*
X111544285Y-54428571D02*
X111734761Y-54333333D01*
X111734761Y-54333333D02*
X111830000Y-54238095D01*
X111830000Y-54238095D02*
X111925238Y-54047619D01*
X111925238Y-54047619D02*
X111925238Y-53761904D01*
X110591904Y-55285714D02*
X111925238Y-55285714D01*
X110782380Y-55285714D02*
X110687142Y-55380952D01*
X110687142Y-55380952D02*
X110591904Y-55571428D01*
X110591904Y-55571428D02*
X110591904Y-55857143D01*
X110591904Y-55857143D02*
X110687142Y-56047619D01*
X110687142Y-56047619D02*
X110877619Y-56142857D01*
X110877619Y-56142857D02*
X111925238Y-56142857D01*
X110591904Y-56809524D02*
X110591904Y-57571428D01*
X111925238Y-57095238D02*
X110210952Y-57095238D01*
X110210952Y-57095238D02*
X110020476Y-57190476D01*
X110020476Y-57190476D02*
X109925238Y-57380952D01*
X109925238Y-57380952D02*
X109925238Y-57571428D01*
X111163333Y-59761905D02*
X111163333Y-61285715D01*
X111925238Y-63285714D02*
X111925238Y-62142857D01*
X111925238Y-62714285D02*
X109925238Y-62714285D01*
X109925238Y-62714285D02*
X110210952Y-62523809D01*
X110210952Y-62523809D02*
X110401428Y-62333333D01*
X110401428Y-62333333D02*
X110496666Y-62142857D01*
X109925238Y-64428571D02*
X110020476Y-64238095D01*
X110020476Y-64238095D02*
X110210952Y-64142857D01*
X110210952Y-64142857D02*
X110401428Y-64238095D01*
X110401428Y-64238095D02*
X110496666Y-64428571D01*
X110496666Y-64428571D02*
X110401428Y-64619047D01*
X110401428Y-64619047D02*
X110210952Y-64714286D01*
X110210952Y-64714286D02*
X110020476Y-64619047D01*
X110020476Y-64619047D02*
X109925238Y-64428571D01*
X111734761Y-66809524D02*
X111830000Y-66714286D01*
X111830000Y-66714286D02*
X111925238Y-66428572D01*
X111925238Y-66428572D02*
X111925238Y-66238096D01*
X111925238Y-66238096D02*
X111830000Y-65952381D01*
X111830000Y-65952381D02*
X111639523Y-65761905D01*
X111639523Y-65761905D02*
X111449047Y-65666667D01*
X111449047Y-65666667D02*
X111068095Y-65571429D01*
X111068095Y-65571429D02*
X110782380Y-65571429D01*
X110782380Y-65571429D02*
X110401428Y-65666667D01*
X110401428Y-65666667D02*
X110210952Y-65761905D01*
X110210952Y-65761905D02*
X110020476Y-65952381D01*
X110020476Y-65952381D02*
X109925238Y-66238096D01*
X109925238Y-66238096D02*
X109925238Y-66428572D01*
X109925238Y-66428572D02*
X110020476Y-66714286D01*
X110020476Y-66714286D02*
X110115714Y-66809524D01*
X183693928Y-58964285D02*
X183693928Y-58249999D01*
X183693928Y-58249999D02*
X182193928Y-58249999D01*
X176487328Y-85649857D02*
X175773042Y-85149857D01*
X176487328Y-84792714D02*
X174987328Y-84792714D01*
X174987328Y-84792714D02*
X174987328Y-85364143D01*
X174987328Y-85364143D02*
X175058757Y-85507000D01*
X175058757Y-85507000D02*
X175130185Y-85578429D01*
X175130185Y-85578429D02*
X175273042Y-85649857D01*
X175273042Y-85649857D02*
X175487328Y-85649857D01*
X175487328Y-85649857D02*
X175630185Y-85578429D01*
X175630185Y-85578429D02*
X175701614Y-85507000D01*
X175701614Y-85507000D02*
X175773042Y-85364143D01*
X175773042Y-85364143D02*
X175773042Y-84792714D01*
X175701614Y-86292714D02*
X175701614Y-86792714D01*
X176487328Y-87007000D02*
X176487328Y-86292714D01*
X176487328Y-86292714D02*
X174987328Y-86292714D01*
X174987328Y-86292714D02*
X174987328Y-87007000D01*
X176487328Y-88364143D02*
X176487328Y-87649857D01*
X176487328Y-87649857D02*
X174987328Y-87649857D01*
X176487328Y-90792715D02*
X176487328Y-89935572D01*
X176487328Y-90364143D02*
X174987328Y-90364143D01*
X174987328Y-90364143D02*
X175201614Y-90221286D01*
X175201614Y-90221286D02*
X175344471Y-90078429D01*
X175344471Y-90078429D02*
X175415900Y-89935572D01*
X176538128Y-51475913D02*
X175038128Y-51475913D01*
X175038128Y-51475913D02*
X175038128Y-52047342D01*
X175038128Y-52047342D02*
X175109557Y-52190199D01*
X175109557Y-52190199D02*
X175180985Y-52261628D01*
X175180985Y-52261628D02*
X175323842Y-52333056D01*
X175323842Y-52333056D02*
X175538128Y-52333056D01*
X175538128Y-52333056D02*
X175680985Y-52261628D01*
X175680985Y-52261628D02*
X175752414Y-52190199D01*
X175752414Y-52190199D02*
X175823842Y-52047342D01*
X175823842Y-52047342D02*
X175823842Y-51475913D01*
X175038128Y-53261628D02*
X175038128Y-53547342D01*
X175038128Y-53547342D02*
X175109557Y-53690199D01*
X175109557Y-53690199D02*
X175252414Y-53833056D01*
X175252414Y-53833056D02*
X175538128Y-53904485D01*
X175538128Y-53904485D02*
X176038128Y-53904485D01*
X176038128Y-53904485D02*
X176323842Y-53833056D01*
X176323842Y-53833056D02*
X176466700Y-53690199D01*
X176466700Y-53690199D02*
X176538128Y-53547342D01*
X176538128Y-53547342D02*
X176538128Y-53261628D01*
X176538128Y-53261628D02*
X176466700Y-53118771D01*
X176466700Y-53118771D02*
X176323842Y-52975913D01*
X176323842Y-52975913D02*
X176038128Y-52904485D01*
X176038128Y-52904485D02*
X175538128Y-52904485D01*
X175538128Y-52904485D02*
X175252414Y-52975913D01*
X175252414Y-52975913D02*
X175109557Y-53118771D01*
X175109557Y-53118771D02*
X175038128Y-53261628D01*
X175038128Y-54404485D02*
X176538128Y-54761628D01*
X176538128Y-54761628D02*
X175466700Y-55047342D01*
X175466700Y-55047342D02*
X176538128Y-55333057D01*
X176538128Y-55333057D02*
X175038128Y-55690200D01*
X175752414Y-56261628D02*
X175752414Y-56761628D01*
X176538128Y-56975914D02*
X176538128Y-56261628D01*
X176538128Y-56261628D02*
X175038128Y-56261628D01*
X175038128Y-56261628D02*
X175038128Y-56975914D01*
X176538128Y-58475914D02*
X175823842Y-57975914D01*
X176538128Y-57618771D02*
X175038128Y-57618771D01*
X175038128Y-57618771D02*
X175038128Y-58190200D01*
X175038128Y-58190200D02*
X175109557Y-58333057D01*
X175109557Y-58333057D02*
X175180985Y-58404486D01*
X175180985Y-58404486D02*
X175323842Y-58475914D01*
X175323842Y-58475914D02*
X175538128Y-58475914D01*
X175538128Y-58475914D02*
X175680985Y-58404486D01*
X175680985Y-58404486D02*
X175752414Y-58333057D01*
X175752414Y-58333057D02*
X175823842Y-58190200D01*
X175823842Y-58190200D02*
X175823842Y-57618771D01*
X103636619Y-51476190D02*
X103636619Y-52142857D01*
X104684238Y-52428571D02*
X104684238Y-51476190D01*
X104684238Y-51476190D02*
X102684238Y-51476190D01*
X102684238Y-51476190D02*
X102684238Y-52428571D01*
X104589000Y-54142857D02*
X104684238Y-53952381D01*
X104684238Y-53952381D02*
X104684238Y-53571428D01*
X104684238Y-53571428D02*
X104589000Y-53380952D01*
X104589000Y-53380952D02*
X104493761Y-53285714D01*
X104493761Y-53285714D02*
X104303285Y-53190476D01*
X104303285Y-53190476D02*
X103731857Y-53190476D01*
X103731857Y-53190476D02*
X103541380Y-53285714D01*
X103541380Y-53285714D02*
X103446142Y-53380952D01*
X103446142Y-53380952D02*
X103350904Y-53571428D01*
X103350904Y-53571428D02*
X103350904Y-53952381D01*
X103350904Y-53952381D02*
X103446142Y-54142857D01*
X104684238Y-55285714D02*
X104589000Y-55095238D01*
X104589000Y-55095238D02*
X104493761Y-55000000D01*
X104493761Y-55000000D02*
X104303285Y-54904762D01*
X104303285Y-54904762D02*
X103731857Y-54904762D01*
X103731857Y-54904762D02*
X103541380Y-55000000D01*
X103541380Y-55000000D02*
X103446142Y-55095238D01*
X103446142Y-55095238D02*
X103350904Y-55285714D01*
X103350904Y-55285714D02*
X103350904Y-55571429D01*
X103350904Y-55571429D02*
X103446142Y-55761905D01*
X103446142Y-55761905D02*
X103541380Y-55857143D01*
X103541380Y-55857143D02*
X103731857Y-55952381D01*
X103731857Y-55952381D02*
X104303285Y-55952381D01*
X104303285Y-55952381D02*
X104493761Y-55857143D01*
X104493761Y-55857143D02*
X104589000Y-55761905D01*
X104589000Y-55761905D02*
X104684238Y-55571429D01*
X104684238Y-55571429D02*
X104684238Y-55285714D01*
D12*
X110794941Y-82051391D02*
X110939141Y-82053099D01*
X111054220Y-82055999D01*
X111130422Y-82059816D01*
X111157991Y-82064275D01*
X111148872Y-82093291D01*
X111124109Y-82151861D01*
X111123307Y-82153619D01*
X111107385Y-82184033D01*
X111085538Y-82204488D01*
X111047272Y-82216960D01*
X110982095Y-82223423D01*
X110879513Y-82225852D01*
X110729033Y-82226223D01*
X110633574Y-82226971D01*
X110454171Y-82234944D01*
X110322763Y-82253202D01*
X110232459Y-82283674D01*
X110176367Y-82328288D01*
X110147594Y-82388974D01*
X110145589Y-82397393D01*
X110144023Y-82511061D01*
X110194948Y-82599708D01*
X110297045Y-82660935D01*
X110326561Y-82671854D01*
X110391883Y-82696742D01*
X110421900Y-82709346D01*
X110417764Y-82735231D01*
X110395317Y-82791761D01*
X110358247Y-82844485D01*
X110288187Y-82868522D01*
X110238006Y-82861353D01*
X110136218Y-82817303D01*
X110040835Y-82746077D01*
X109974869Y-82662785D01*
X109959618Y-82627890D01*
X109934121Y-82495757D01*
X109944219Y-82355475D01*
X109988993Y-82234939D01*
X110022634Y-82184812D01*
X110070836Y-82134048D01*
X110132151Y-82097838D01*
X110215624Y-82073807D01*
X110330297Y-82059582D01*
X110485213Y-82052788D01*
X110689414Y-82051051D01*
X110794941Y-82051391D01*
G36*
X110794941Y-82051391D02*
G01*
X110939141Y-82053099D01*
X111054220Y-82055999D01*
X111130422Y-82059816D01*
X111157991Y-82064275D01*
X111148872Y-82093291D01*
X111124109Y-82151861D01*
X111123307Y-82153619D01*
X111107385Y-82184033D01*
X111085538Y-82204488D01*
X111047272Y-82216960D01*
X110982095Y-82223423D01*
X110879513Y-82225852D01*
X110729033Y-82226223D01*
X110633574Y-82226971D01*
X110454171Y-82234944D01*
X110322763Y-82253202D01*
X110232459Y-82283674D01*
X110176367Y-82328288D01*
X110147594Y-82388974D01*
X110145589Y-82397393D01*
X110144023Y-82511061D01*
X110194948Y-82599708D01*
X110297045Y-82660935D01*
X110326561Y-82671854D01*
X110391883Y-82696742D01*
X110421900Y-82709346D01*
X110417764Y-82735231D01*
X110395317Y-82791761D01*
X110358247Y-82844485D01*
X110288187Y-82868522D01*
X110238006Y-82861353D01*
X110136218Y-82817303D01*
X110040835Y-82746077D01*
X109974869Y-82662785D01*
X109959618Y-82627890D01*
X109934121Y-82495757D01*
X109944219Y-82355475D01*
X109988993Y-82234939D01*
X110022634Y-82184812D01*
X110070836Y-82134048D01*
X110132151Y-82097838D01*
X110215624Y-82073807D01*
X110330297Y-82059582D01*
X110485213Y-82052788D01*
X110689414Y-82051051D01*
X110794941Y-82051391D01*
G37*
X111157944Y-74153817D02*
X111131120Y-74224132D01*
X111105306Y-74276776D01*
X111072031Y-74311140D01*
X111021110Y-74331107D01*
X110942361Y-74340561D01*
X110825599Y-74343386D01*
X110660642Y-74343464D01*
X110529158Y-74343864D01*
X110402994Y-74346249D01*
X110316823Y-74351941D01*
X110260272Y-74362239D01*
X110222970Y-74378445D01*
X110194543Y-74401855D01*
X110154427Y-74459407D01*
X110139306Y-74556088D01*
X110177517Y-74651735D01*
X110182410Y-74658048D01*
X110205013Y-74677723D01*
X110241264Y-74692237D01*
X110300111Y-74702806D01*
X110390501Y-74710645D01*
X110521379Y-74716973D01*
X110701695Y-74723005D01*
X111184507Y-74737602D01*
X111128883Y-74861683D01*
X111073259Y-74985763D01*
X110632451Y-74985763D01*
X110512698Y-74985249D01*
X110346106Y-74980820D01*
X110222068Y-74969606D01*
X110130587Y-74948928D01*
X110061666Y-74916107D01*
X110005307Y-74868464D01*
X109951514Y-74803323D01*
X109897319Y-74709629D01*
X109861939Y-74562025D01*
X109877289Y-74413713D01*
X109941370Y-74277352D01*
X110052184Y-74165602D01*
X110086873Y-74142439D01*
X110126190Y-74123227D01*
X110175745Y-74109602D01*
X110245168Y-74100323D01*
X110344090Y-74094150D01*
X110482139Y-74089843D01*
X110668946Y-74086162D01*
X111187142Y-74077020D01*
X111157944Y-74153817D01*
G36*
X111157944Y-74153817D02*
G01*
X111131120Y-74224132D01*
X111105306Y-74276776D01*
X111072031Y-74311140D01*
X111021110Y-74331107D01*
X110942361Y-74340561D01*
X110825599Y-74343386D01*
X110660642Y-74343464D01*
X110529158Y-74343864D01*
X110402994Y-74346249D01*
X110316823Y-74351941D01*
X110260272Y-74362239D01*
X110222970Y-74378445D01*
X110194543Y-74401855D01*
X110154427Y-74459407D01*
X110139306Y-74556088D01*
X110177517Y-74651735D01*
X110182410Y-74658048D01*
X110205013Y-74677723D01*
X110241264Y-74692237D01*
X110300111Y-74702806D01*
X110390501Y-74710645D01*
X110521379Y-74716973D01*
X110701695Y-74723005D01*
X111184507Y-74737602D01*
X111128883Y-74861683D01*
X111073259Y-74985763D01*
X110632451Y-74985763D01*
X110512698Y-74985249D01*
X110346106Y-74980820D01*
X110222068Y-74969606D01*
X110130587Y-74948928D01*
X110061666Y-74916107D01*
X110005307Y-74868464D01*
X109951514Y-74803323D01*
X109897319Y-74709629D01*
X109861939Y-74562025D01*
X109877289Y-74413713D01*
X109941370Y-74277352D01*
X110052184Y-74165602D01*
X110086873Y-74142439D01*
X110126190Y-74123227D01*
X110175745Y-74109602D01*
X110245168Y-74100323D01*
X110344090Y-74094150D01*
X110482139Y-74089843D01*
X110668946Y-74086162D01*
X111187142Y-74077020D01*
X111157944Y-74153817D01*
G37*
X111048203Y-77851408D02*
X111130703Y-77859112D01*
X111157991Y-77871734D01*
X111149820Y-77909933D01*
X111125063Y-77974826D01*
X111117823Y-77990106D01*
X111101435Y-78013973D01*
X111074493Y-78030431D01*
X111027433Y-78041195D01*
X110950688Y-78047981D01*
X110834695Y-78052507D01*
X110669887Y-78056487D01*
X110621712Y-78057578D01*
X110469560Y-78061793D01*
X110363076Y-78067264D01*
X110292165Y-78075646D01*
X110246729Y-78088594D01*
X110216672Y-78107761D01*
X110191896Y-78134802D01*
X110148461Y-78214863D01*
X110140098Y-78313354D01*
X110173334Y-78401481D01*
X110242148Y-78464886D01*
X110340520Y-78489212D01*
X110367258Y-78489889D01*
X110415665Y-78503176D01*
X110423050Y-78542404D01*
X110394224Y-78619217D01*
X110384978Y-78637008D01*
X110330606Y-78685091D01*
X110249761Y-78686043D01*
X110137952Y-78640232D01*
X110077019Y-78598210D01*
X109990459Y-78490765D01*
X109941520Y-78358143D01*
X109934860Y-78216333D01*
X109975136Y-78081328D01*
X109980238Y-78072110D01*
X110038680Y-77996819D01*
X110113815Y-77929502D01*
X110130796Y-77917761D01*
X110170425Y-77895317D01*
X110217458Y-77879282D01*
X110282092Y-77868255D01*
X110374523Y-77860835D01*
X110504949Y-77855621D01*
X110683565Y-77851211D01*
X110713762Y-77850586D01*
X110909541Y-77848580D01*
X111048203Y-77851408D01*
G36*
X111048203Y-77851408D02*
G01*
X111130703Y-77859112D01*
X111157991Y-77871734D01*
X111149820Y-77909933D01*
X111125063Y-77974826D01*
X111117823Y-77990106D01*
X111101435Y-78013973D01*
X111074493Y-78030431D01*
X111027433Y-78041195D01*
X110950688Y-78047981D01*
X110834695Y-78052507D01*
X110669887Y-78056487D01*
X110621712Y-78057578D01*
X110469560Y-78061793D01*
X110363076Y-78067264D01*
X110292165Y-78075646D01*
X110246729Y-78088594D01*
X110216672Y-78107761D01*
X110191896Y-78134802D01*
X110148461Y-78214863D01*
X110140098Y-78313354D01*
X110173334Y-78401481D01*
X110242148Y-78464886D01*
X110340520Y-78489212D01*
X110367258Y-78489889D01*
X110415665Y-78503176D01*
X110423050Y-78542404D01*
X110394224Y-78619217D01*
X110384978Y-78637008D01*
X110330606Y-78685091D01*
X110249761Y-78686043D01*
X110137952Y-78640232D01*
X110077019Y-78598210D01*
X109990459Y-78490765D01*
X109941520Y-78358143D01*
X109934860Y-78216333D01*
X109975136Y-78081328D01*
X109980238Y-78072110D01*
X110038680Y-77996819D01*
X110113815Y-77929502D01*
X110130796Y-77917761D01*
X110170425Y-77895317D01*
X110217458Y-77879282D01*
X110282092Y-77868255D01*
X110374523Y-77860835D01*
X110504949Y-77855621D01*
X110683565Y-77851211D01*
X110713762Y-77850586D01*
X110909541Y-77848580D01*
X111048203Y-77851408D01*
G37*
X111070717Y-79953785D02*
X111091435Y-79974890D01*
X111137485Y-80033353D01*
X111152401Y-80092314D01*
X111145534Y-80180050D01*
X111141094Y-80215771D01*
X111131702Y-80307899D01*
X111127961Y-80372315D01*
X111128533Y-80391422D01*
X111134726Y-80469810D01*
X111145534Y-80564580D01*
X111149247Y-80594902D01*
X111150707Y-80671289D01*
X111127647Y-80727178D01*
X111070717Y-80790845D01*
X110978327Y-80883235D01*
X110455055Y-80883235D01*
X110300421Y-80882515D01*
X110152991Y-80880271D01*
X110036253Y-80876779D01*
X109959440Y-80872324D01*
X109931784Y-80867187D01*
X109931858Y-80866110D01*
X109945619Y-80828793D01*
X109975944Y-80765743D01*
X110020105Y-80680346D01*
X110479565Y-80672307D01*
X110939025Y-80664269D01*
X110939025Y-80489097D01*
X110435405Y-80481108D01*
X110298504Y-80478576D01*
X110152179Y-80474951D01*
X110036011Y-80471023D01*
X109959409Y-80467120D01*
X109931784Y-80463568D01*
X109931881Y-80462547D01*
X109942043Y-80427149D01*
X109963835Y-80362074D01*
X109995887Y-80270131D01*
X110438261Y-80269684D01*
X110515107Y-80269236D01*
X110664434Y-80266131D01*
X110789144Y-80260578D01*
X110877979Y-80253167D01*
X110919683Y-80244486D01*
X110941989Y-80213429D01*
X110948878Y-80150048D01*
X110939025Y-80080361D01*
X110435405Y-80072373D01*
X110307428Y-80069514D01*
X110155948Y-80063586D01*
X110037130Y-80055835D01*
X109959550Y-80046857D01*
X109931784Y-80037252D01*
X109940570Y-79999790D01*
X109965666Y-79935758D01*
X109999547Y-79861395D01*
X110978327Y-79861395D01*
X111070717Y-79953785D01*
G36*
X111070717Y-79953785D02*
G01*
X111091435Y-79974890D01*
X111137485Y-80033353D01*
X111152401Y-80092314D01*
X111145534Y-80180050D01*
X111141094Y-80215771D01*
X111131702Y-80307899D01*
X111127961Y-80372315D01*
X111128533Y-80391422D01*
X111134726Y-80469810D01*
X111145534Y-80564580D01*
X111149247Y-80594902D01*
X111150707Y-80671289D01*
X111127647Y-80727178D01*
X111070717Y-80790845D01*
X110978327Y-80883235D01*
X110455055Y-80883235D01*
X110300421Y-80882515D01*
X110152991Y-80880271D01*
X110036253Y-80876779D01*
X109959440Y-80872324D01*
X109931784Y-80867187D01*
X109931858Y-80866110D01*
X109945619Y-80828793D01*
X109975944Y-80765743D01*
X110020105Y-80680346D01*
X110479565Y-80672307D01*
X110939025Y-80664269D01*
X110939025Y-80489097D01*
X110435405Y-80481108D01*
X110298504Y-80478576D01*
X110152179Y-80474951D01*
X110036011Y-80471023D01*
X109959409Y-80467120D01*
X109931784Y-80463568D01*
X109931881Y-80462547D01*
X109942043Y-80427149D01*
X109963835Y-80362074D01*
X109995887Y-80270131D01*
X110438261Y-80269684D01*
X110515107Y-80269236D01*
X110664434Y-80266131D01*
X110789144Y-80260578D01*
X110877979Y-80253167D01*
X110919683Y-80244486D01*
X110941989Y-80213429D01*
X110948878Y-80150048D01*
X110939025Y-80080361D01*
X110435405Y-80072373D01*
X110307428Y-80069514D01*
X110155948Y-80063586D01*
X110037130Y-80055835D01*
X109959550Y-80046857D01*
X109931784Y-80037252D01*
X109940570Y-79999790D01*
X109965666Y-79935758D01*
X109999547Y-79861395D01*
X110978327Y-79861395D01*
X111070717Y-79953785D01*
G37*
X110377520Y-75832431D02*
X110584683Y-75832823D01*
X110771032Y-75833871D01*
X110929053Y-75835478D01*
X111051230Y-75837545D01*
X111130048Y-75839975D01*
X111157991Y-75842671D01*
X111157897Y-75843725D01*
X111147744Y-75879553D01*
X111125939Y-75944855D01*
X111093888Y-76036798D01*
X110682591Y-76036798D01*
X110520985Y-76037382D01*
X110403777Y-76040096D01*
X110324015Y-76046342D01*
X110271131Y-76057520D01*
X110234557Y-76075032D01*
X110203723Y-76100278D01*
X110187325Y-76117490D01*
X110141907Y-76210564D01*
X110145928Y-76313149D01*
X110199632Y-76407157D01*
X110212959Y-76420842D01*
X110240632Y-76442761D01*
X110277214Y-76457760D01*
X110332600Y-76467147D01*
X110416688Y-76472232D01*
X110539373Y-76474323D01*
X110710551Y-76474729D01*
X110797369Y-76474924D01*
X110940165Y-76476190D01*
X111054523Y-76478439D01*
X111130460Y-76481442D01*
X111157991Y-76484970D01*
X111157897Y-76486024D01*
X111147744Y-76521852D01*
X111125939Y-76587154D01*
X111093888Y-76679097D01*
X110680709Y-76679051D01*
X110643926Y-76678982D01*
X110452180Y-76675119D01*
X110307186Y-76663250D01*
X110199110Y-76640475D01*
X110118119Y-76603893D01*
X110054378Y-76550605D01*
X109998055Y-76477710D01*
X109962799Y-76406614D01*
X109935546Y-76292945D01*
X109933998Y-76181140D01*
X109960510Y-76095189D01*
X109964171Y-76088727D01*
X109963779Y-76068799D01*
X109933106Y-76055181D01*
X109862788Y-76045354D01*
X109743457Y-76036798D01*
X109498573Y-76022200D01*
X109538597Y-75927315D01*
X109578620Y-75832430D01*
X110368306Y-75832430D01*
X110377520Y-75832431D01*
G36*
X110377520Y-75832431D02*
G01*
X110584683Y-75832823D01*
X110771032Y-75833871D01*
X110929053Y-75835478D01*
X111051230Y-75837545D01*
X111130048Y-75839975D01*
X111157991Y-75842671D01*
X111157897Y-75843725D01*
X111147744Y-75879553D01*
X111125939Y-75944855D01*
X111093888Y-76036798D01*
X110682591Y-76036798D01*
X110520985Y-76037382D01*
X110403777Y-76040096D01*
X110324015Y-76046342D01*
X110271131Y-76057520D01*
X110234557Y-76075032D01*
X110203723Y-76100278D01*
X110187325Y-76117490D01*
X110141907Y-76210564D01*
X110145928Y-76313149D01*
X110199632Y-76407157D01*
X110212959Y-76420842D01*
X110240632Y-76442761D01*
X110277214Y-76457760D01*
X110332600Y-76467147D01*
X110416688Y-76472232D01*
X110539373Y-76474323D01*
X110710551Y-76474729D01*
X110797369Y-76474924D01*
X110940165Y-76476190D01*
X111054523Y-76478439D01*
X111130460Y-76481442D01*
X111157991Y-76484970D01*
X111157897Y-76486024D01*
X111147744Y-76521852D01*
X111125939Y-76587154D01*
X111093888Y-76679097D01*
X110680709Y-76679051D01*
X110643926Y-76678982D01*
X110452180Y-76675119D01*
X110307186Y-76663250D01*
X110199110Y-76640475D01*
X110118119Y-76603893D01*
X110054378Y-76550605D01*
X109998055Y-76477710D01*
X109962799Y-76406614D01*
X109935546Y-76292945D01*
X109933998Y-76181140D01*
X109960510Y-76095189D01*
X109964171Y-76088727D01*
X109963779Y-76068799D01*
X109933106Y-76055181D01*
X109862788Y-76045354D01*
X109743457Y-76036798D01*
X109498573Y-76022200D01*
X109538597Y-75927315D01*
X109578620Y-75832430D01*
X110368306Y-75832430D01*
X110377520Y-75832431D01*
G37*
X110505619Y-70723307D02*
X110515692Y-70723235D01*
X110547344Y-70723262D01*
X110688518Y-70724845D01*
X110786885Y-70730284D01*
X110855590Y-70741557D01*
X110907781Y-70760639D01*
X110956604Y-70789506D01*
X110966735Y-70796608D01*
X111046612Y-70871756D01*
X111106853Y-70957380D01*
X111126402Y-71001348D01*
X111159008Y-71159339D01*
X111137917Y-71315587D01*
X111065849Y-71459582D01*
X110945522Y-71580815D01*
X110929403Y-71591050D01*
X110835805Y-71624353D01*
X110705479Y-71646795D01*
X110554971Y-71657684D01*
X110400827Y-71656329D01*
X110259592Y-71642039D01*
X110147813Y-71614125D01*
X110073366Y-71578251D01*
X109957568Y-71477261D01*
X109885615Y-71340421D01*
X109862411Y-71183276D01*
X110136152Y-71183276D01*
X110138407Y-71210568D01*
X110179760Y-71287024D01*
X110272500Y-71337550D01*
X110415747Y-71361816D01*
X110608620Y-71359494D01*
X110621033Y-71358561D01*
X110727457Y-71344958D01*
X110794946Y-71320735D01*
X110841184Y-71279835D01*
X110884495Y-71211259D01*
X110886772Y-71143436D01*
X110836841Y-71073579D01*
X110823702Y-71061429D01*
X110784385Y-71037625D01*
X110727274Y-71023572D01*
X110638856Y-71016887D01*
X110505619Y-71015189D01*
X110380822Y-71018099D01*
X110261926Y-71032618D01*
X110186784Y-71062590D01*
X110147493Y-71111611D01*
X110136152Y-71183276D01*
X109862411Y-71183276D01*
X109860881Y-71172917D01*
X109862219Y-71128181D01*
X109889608Y-70996442D01*
X109958607Y-70888232D01*
X110077464Y-70788924D01*
X110086281Y-70783016D01*
X110133708Y-70756279D01*
X110187314Y-70738888D01*
X110260149Y-70728888D01*
X110365259Y-70724322D01*
X110505619Y-70723307D01*
G36*
X110505619Y-70723307D02*
G01*
X110515692Y-70723235D01*
X110547344Y-70723262D01*
X110688518Y-70724845D01*
X110786885Y-70730284D01*
X110855590Y-70741557D01*
X110907781Y-70760639D01*
X110956604Y-70789506D01*
X110966735Y-70796608D01*
X111046612Y-70871756D01*
X111106853Y-70957380D01*
X111126402Y-71001348D01*
X111159008Y-71159339D01*
X111137917Y-71315587D01*
X111065849Y-71459582D01*
X110945522Y-71580815D01*
X110929403Y-71591050D01*
X110835805Y-71624353D01*
X110705479Y-71646795D01*
X110554971Y-71657684D01*
X110400827Y-71656329D01*
X110259592Y-71642039D01*
X110147813Y-71614125D01*
X110073366Y-71578251D01*
X109957568Y-71477261D01*
X109885615Y-71340421D01*
X109862411Y-71183276D01*
X110136152Y-71183276D01*
X110138407Y-71210568D01*
X110179760Y-71287024D01*
X110272500Y-71337550D01*
X110415747Y-71361816D01*
X110608620Y-71359494D01*
X110621033Y-71358561D01*
X110727457Y-71344958D01*
X110794946Y-71320735D01*
X110841184Y-71279835D01*
X110884495Y-71211259D01*
X110886772Y-71143436D01*
X110836841Y-71073579D01*
X110823702Y-71061429D01*
X110784385Y-71037625D01*
X110727274Y-71023572D01*
X110638856Y-71016887D01*
X110505619Y-71015189D01*
X110380822Y-71018099D01*
X110261926Y-71032618D01*
X110186784Y-71062590D01*
X110147493Y-71111611D01*
X110136152Y-71183276D01*
X109862411Y-71183276D01*
X109860881Y-71172917D01*
X109862219Y-71128181D01*
X109889608Y-70996442D01*
X109958607Y-70888232D01*
X110077464Y-70788924D01*
X110086281Y-70783016D01*
X110133708Y-70756279D01*
X110187314Y-70738888D01*
X110260149Y-70728888D01*
X110365259Y-70724322D01*
X110505619Y-70723307D01*
G37*
X110457453Y-83045822D02*
X110550736Y-83043887D01*
X110628546Y-83044456D01*
X110781854Y-83051588D01*
X110894041Y-83070252D01*
X110977154Y-83104663D01*
X111043241Y-83159038D01*
X111104347Y-83237590D01*
X111132135Y-83287570D01*
X111150851Y-83367687D01*
X111149374Y-83480230D01*
X111143445Y-83543150D01*
X111125342Y-83619047D01*
X111085991Y-83679713D01*
X111012666Y-83750288D01*
X111001956Y-83759718D01*
X110919538Y-83823166D01*
X110847756Y-83853438D01*
X110762634Y-83861166D01*
X110637546Y-83861166D01*
X110670540Y-83773753D01*
X110709109Y-83710025D01*
X110799608Y-83654633D01*
X110828583Y-83643069D01*
X110910641Y-83578412D01*
X110951947Y-83490396D01*
X110948233Y-83394563D01*
X110895232Y-83306453D01*
X110862182Y-83276172D01*
X110812320Y-83248711D01*
X110767016Y-83257301D01*
X110720390Y-83306737D01*
X110666558Y-83401811D01*
X110599639Y-83547315D01*
X110468656Y-83846568D01*
X110338898Y-83854509D01*
X110241855Y-83851004D01*
X110119217Y-83806864D01*
X110051634Y-83751150D01*
X109976140Y-83635639D01*
X109938003Y-83498612D01*
X109938263Y-83486416D01*
X110135850Y-83486416D01*
X110181600Y-83591911D01*
X110204476Y-83621147D01*
X110256249Y-83656548D01*
X110307415Y-83641747D01*
X110362042Y-83574403D01*
X110424197Y-83452173D01*
X110433201Y-83431947D01*
X110475093Y-83335230D01*
X110504558Y-83262866D01*
X110515692Y-83229239D01*
X110507496Y-83224144D01*
X110457453Y-83222099D01*
X110377014Y-83229388D01*
X110298353Y-83247748D01*
X110199251Y-83305012D01*
X110143408Y-83387676D01*
X110135850Y-83486416D01*
X109938263Y-83486416D01*
X109941022Y-83356963D01*
X109988993Y-83227583D01*
X110007413Y-83199101D01*
X110064411Y-83133772D01*
X110136516Y-83089094D01*
X110234453Y-83061559D01*
X110368951Y-83047659D01*
X110457453Y-83045822D01*
G36*
X110457453Y-83045822D02*
G01*
X110550736Y-83043887D01*
X110628546Y-83044456D01*
X110781854Y-83051588D01*
X110894041Y-83070252D01*
X110977154Y-83104663D01*
X111043241Y-83159038D01*
X111104347Y-83237590D01*
X111132135Y-83287570D01*
X111150851Y-83367687D01*
X111149374Y-83480230D01*
X111143445Y-83543150D01*
X111125342Y-83619047D01*
X111085991Y-83679713D01*
X111012666Y-83750288D01*
X111001956Y-83759718D01*
X110919538Y-83823166D01*
X110847756Y-83853438D01*
X110762634Y-83861166D01*
X110637546Y-83861166D01*
X110670540Y-83773753D01*
X110709109Y-83710025D01*
X110799608Y-83654633D01*
X110828583Y-83643069D01*
X110910641Y-83578412D01*
X110951947Y-83490396D01*
X110948233Y-83394563D01*
X110895232Y-83306453D01*
X110862182Y-83276172D01*
X110812320Y-83248711D01*
X110767016Y-83257301D01*
X110720390Y-83306737D01*
X110666558Y-83401811D01*
X110599639Y-83547315D01*
X110468656Y-83846568D01*
X110338898Y-83854509D01*
X110241855Y-83851004D01*
X110119217Y-83806864D01*
X110051634Y-83751150D01*
X109976140Y-83635639D01*
X109938003Y-83498612D01*
X109938263Y-83486416D01*
X110135850Y-83486416D01*
X110181600Y-83591911D01*
X110204476Y-83621147D01*
X110256249Y-83656548D01*
X110307415Y-83641747D01*
X110362042Y-83574403D01*
X110424197Y-83452173D01*
X110433201Y-83431947D01*
X110475093Y-83335230D01*
X110504558Y-83262866D01*
X110515692Y-83229239D01*
X110507496Y-83224144D01*
X110457453Y-83222099D01*
X110377014Y-83229388D01*
X110298353Y-83247748D01*
X110199251Y-83305012D01*
X110143408Y-83387676D01*
X110135850Y-83486416D01*
X109938263Y-83486416D01*
X109941022Y-83356963D01*
X109988993Y-83227583D01*
X110007413Y-83199101D01*
X110064411Y-83133772D01*
X110136516Y-83089094D01*
X110234453Y-83061559D01*
X110368951Y-83047659D01*
X110457453Y-83045822D01*
G37*
X110536706Y-78839961D02*
X110544887Y-78839647D01*
X110658735Y-78841981D01*
X110813920Y-78858461D01*
X110930212Y-78894317D01*
X111019011Y-78953745D01*
X111091719Y-79040943D01*
X111133750Y-79124005D01*
X111157138Y-79263491D01*
X111131565Y-79402788D01*
X111060294Y-79528690D01*
X110946591Y-79627990D01*
X110925624Y-79639981D01*
X110888891Y-79655816D01*
X110842015Y-79667562D01*
X110776955Y-79675822D01*
X110685670Y-79681202D01*
X110560119Y-79684308D01*
X110392261Y-79685743D01*
X110174055Y-79686114D01*
X109496672Y-79686223D01*
X109536419Y-79591338D01*
X109547299Y-79566251D01*
X109571868Y-79526319D01*
X109609075Y-79503461D01*
X109674141Y-79490899D01*
X109782287Y-79481855D01*
X109879388Y-79473595D01*
X109943135Y-79462677D01*
X109966923Y-79447035D01*
X109960543Y-79423464D01*
X109938125Y-79363399D01*
X109932567Y-79256055D01*
X109937663Y-79227708D01*
X110140835Y-79227708D01*
X110147585Y-79329763D01*
X110203723Y-79418375D01*
X110225982Y-79437451D01*
X110267893Y-79460714D01*
X110326422Y-79474164D01*
X110415480Y-79480359D01*
X110548979Y-79481855D01*
X110655244Y-79481165D01*
X110751362Y-79476800D01*
X110813411Y-79466008D01*
X110855102Y-79446074D01*
X110890143Y-79414284D01*
X110896879Y-79406836D01*
X110946592Y-79311140D01*
X110941505Y-79209888D01*
X110881962Y-79115586D01*
X110851114Y-79087506D01*
X110810218Y-79064004D01*
X110753680Y-79050878D01*
X110667257Y-79045170D01*
X110536706Y-79043924D01*
X110437087Y-79044539D01*
X110339851Y-79048793D01*
X110277102Y-79059518D01*
X110234982Y-79079493D01*
X110199632Y-79111496D01*
X110183714Y-79130295D01*
X110140835Y-79227708D01*
X109937663Y-79227708D01*
X109953328Y-79140576D01*
X109998055Y-79040943D01*
X110039456Y-78986128D01*
X110120232Y-78915748D01*
X110223795Y-78870672D01*
X110361547Y-78846704D01*
X110536706Y-78839961D01*
G36*
X110536706Y-78839961D02*
G01*
X110544887Y-78839647D01*
X110658735Y-78841981D01*
X110813920Y-78858461D01*
X110930212Y-78894317D01*
X111019011Y-78953745D01*
X111091719Y-79040943D01*
X111133750Y-79124005D01*
X111157138Y-79263491D01*
X111131565Y-79402788D01*
X111060294Y-79528690D01*
X110946591Y-79627990D01*
X110925624Y-79639981D01*
X110888891Y-79655816D01*
X110842015Y-79667562D01*
X110776955Y-79675822D01*
X110685670Y-79681202D01*
X110560119Y-79684308D01*
X110392261Y-79685743D01*
X110174055Y-79686114D01*
X109496672Y-79686223D01*
X109536419Y-79591338D01*
X109547299Y-79566251D01*
X109571868Y-79526319D01*
X109609075Y-79503461D01*
X109674141Y-79490899D01*
X109782287Y-79481855D01*
X109879388Y-79473595D01*
X109943135Y-79462677D01*
X109966923Y-79447035D01*
X109960543Y-79423464D01*
X109938125Y-79363399D01*
X109932567Y-79256055D01*
X109937663Y-79227708D01*
X110140835Y-79227708D01*
X110147585Y-79329763D01*
X110203723Y-79418375D01*
X110225982Y-79437451D01*
X110267893Y-79460714D01*
X110326422Y-79474164D01*
X110415480Y-79480359D01*
X110548979Y-79481855D01*
X110655244Y-79481165D01*
X110751362Y-79476800D01*
X110813411Y-79466008D01*
X110855102Y-79446074D01*
X110890143Y-79414284D01*
X110896879Y-79406836D01*
X110946592Y-79311140D01*
X110941505Y-79209888D01*
X110881962Y-79115586D01*
X110851114Y-79087506D01*
X110810218Y-79064004D01*
X110753680Y-79050878D01*
X110667257Y-79045170D01*
X110536706Y-79043924D01*
X110437087Y-79044539D01*
X110339851Y-79048793D01*
X110277102Y-79059518D01*
X110234982Y-79079493D01*
X110199632Y-79111496D01*
X110183714Y-79130295D01*
X110140835Y-79227708D01*
X109937663Y-79227708D01*
X109953328Y-79140576D01*
X109998055Y-79040943D01*
X110039456Y-78986128D01*
X110120232Y-78915748D01*
X110223795Y-78870672D01*
X110361547Y-78846704D01*
X110536706Y-78839961D01*
G37*
X110329724Y-72953878D02*
X110432929Y-72942748D01*
X110654239Y-72952032D01*
X110701126Y-72957274D01*
X110868009Y-72996332D01*
X110994926Y-73066910D01*
X111092202Y-73174245D01*
X111096216Y-73180312D01*
X111153306Y-73316760D01*
X111158386Y-73459227D01*
X111114911Y-73596504D01*
X111026334Y-73717381D01*
X110896109Y-73810648D01*
X110892969Y-73812214D01*
X110812101Y-73843207D01*
X110720193Y-73865908D01*
X110633911Y-73877950D01*
X110569921Y-73876963D01*
X110544887Y-73860577D01*
X110546409Y-73846021D01*
X110574096Y-73776408D01*
X110625009Y-73697503D01*
X110683943Y-73630380D01*
X110735694Y-73596113D01*
X110805891Y-73560493D01*
X110869738Y-73487489D01*
X110895232Y-73402715D01*
X110887861Y-73371642D01*
X110850754Y-73310309D01*
X110799244Y-73256885D01*
X110752513Y-73234039D01*
X110752340Y-73234046D01*
X110730880Y-73259967D01*
X110692165Y-73329073D01*
X110641637Y-73430951D01*
X110584734Y-73555189D01*
X110584433Y-73555872D01*
X110524338Y-73690845D01*
X110481040Y-73781316D01*
X110447779Y-73836161D01*
X110417794Y-73864256D01*
X110384326Y-73874476D01*
X110340615Y-73875697D01*
X110235865Y-73864949D01*
X110093549Y-73811811D01*
X109981711Y-73722858D01*
X109904276Y-73607752D01*
X109865168Y-73476155D01*
X109867407Y-73377523D01*
X110139039Y-73377523D01*
X110142851Y-73462160D01*
X110194721Y-73540753D01*
X110230565Y-73571645D01*
X110257844Y-73578981D01*
X110283865Y-73549230D01*
X110322856Y-73475099D01*
X110323959Y-73472926D01*
X110365609Y-73385467D01*
X110398835Y-73307226D01*
X110412891Y-73257589D01*
X110394103Y-73237679D01*
X110329724Y-73234039D01*
X110249601Y-73249165D01*
X110176789Y-73301603D01*
X110139039Y-73377523D01*
X109867407Y-73377523D01*
X109868311Y-73337728D01*
X109917630Y-73202135D01*
X110017047Y-73079036D01*
X110115429Y-73010834D01*
X110255861Y-72961844D01*
X110329724Y-72953878D01*
G36*
X110329724Y-72953878D02*
G01*
X110432929Y-72942748D01*
X110654239Y-72952032D01*
X110701126Y-72957274D01*
X110868009Y-72996332D01*
X110994926Y-73066910D01*
X111092202Y-73174245D01*
X111096216Y-73180312D01*
X111153306Y-73316760D01*
X111158386Y-73459227D01*
X111114911Y-73596504D01*
X111026334Y-73717381D01*
X110896109Y-73810648D01*
X110892969Y-73812214D01*
X110812101Y-73843207D01*
X110720193Y-73865908D01*
X110633911Y-73877950D01*
X110569921Y-73876963D01*
X110544887Y-73860577D01*
X110546409Y-73846021D01*
X110574096Y-73776408D01*
X110625009Y-73697503D01*
X110683943Y-73630380D01*
X110735694Y-73596113D01*
X110805891Y-73560493D01*
X110869738Y-73487489D01*
X110895232Y-73402715D01*
X110887861Y-73371642D01*
X110850754Y-73310309D01*
X110799244Y-73256885D01*
X110752513Y-73234039D01*
X110752340Y-73234046D01*
X110730880Y-73259967D01*
X110692165Y-73329073D01*
X110641637Y-73430951D01*
X110584734Y-73555189D01*
X110584433Y-73555872D01*
X110524338Y-73690845D01*
X110481040Y-73781316D01*
X110447779Y-73836161D01*
X110417794Y-73864256D01*
X110384326Y-73874476D01*
X110340615Y-73875697D01*
X110235865Y-73864949D01*
X110093549Y-73811811D01*
X109981711Y-73722858D01*
X109904276Y-73607752D01*
X109865168Y-73476155D01*
X109867407Y-73377523D01*
X110139039Y-73377523D01*
X110142851Y-73462160D01*
X110194721Y-73540753D01*
X110230565Y-73571645D01*
X110257844Y-73578981D01*
X110283865Y-73549230D01*
X110322856Y-73475099D01*
X110323959Y-73472926D01*
X110365609Y-73385467D01*
X110398835Y-73307226D01*
X110412891Y-73257589D01*
X110394103Y-73237679D01*
X110329724Y-73234039D01*
X110249601Y-73249165D01*
X110176789Y-73301603D01*
X110139039Y-73377523D01*
X109867407Y-73377523D01*
X109868311Y-73337728D01*
X109917630Y-73202135D01*
X110017047Y-73079036D01*
X110115429Y-73010834D01*
X110255861Y-72961844D01*
X110329724Y-72953878D01*
G37*
X110414972Y-76948237D02*
X110375104Y-77013223D01*
X110292334Y-77064437D01*
X110275269Y-77069696D01*
X110188324Y-77126297D01*
X110141358Y-77211606D01*
X110139341Y-77309559D01*
X110187244Y-77404094D01*
X110199598Y-77418207D01*
X110253283Y-77465403D01*
X110300088Y-77473197D01*
X110346046Y-77437494D01*
X110397188Y-77354197D01*
X110459548Y-77219212D01*
X110463497Y-77210082D01*
X110533372Y-77060231D01*
X110595272Y-76957884D01*
X110657076Y-76894880D01*
X110726662Y-76863062D01*
X110811908Y-76854269D01*
X110906416Y-76865791D01*
X111027385Y-76923972D01*
X111114288Y-77026325D01*
X111140378Y-77100357D01*
X111154655Y-77204833D01*
X111151606Y-77306283D01*
X111130067Y-77378728D01*
X111124704Y-77386423D01*
X111087232Y-77406859D01*
X111021191Y-77392678D01*
X110969353Y-77368039D01*
X110947772Y-77328530D01*
X110948846Y-77253598D01*
X110942655Y-77149570D01*
X110899911Y-77081595D01*
X110820789Y-77058637D01*
X110818516Y-77058658D01*
X110772586Y-77072571D01*
X110730445Y-77119897D01*
X110681872Y-77211913D01*
X110623390Y-77337049D01*
X110591575Y-77419932D01*
X110593625Y-77467780D01*
X110635651Y-77490137D01*
X110723762Y-77496551D01*
X110864069Y-77496568D01*
X110950681Y-77497283D01*
X111057641Y-77500565D01*
X111130850Y-77505900D01*
X111157991Y-77512615D01*
X111157806Y-77514410D01*
X111143098Y-77553218D01*
X111112056Y-77617491D01*
X111066121Y-77706320D01*
X110652228Y-77695764D01*
X110624779Y-77695029D01*
X110432117Y-77686645D01*
X110286909Y-77671834D01*
X110179487Y-77647571D01*
X110100184Y-77610836D01*
X110039330Y-77558603D01*
X109987258Y-77487852D01*
X109986442Y-77486543D01*
X109943960Y-77372144D01*
X109936784Y-77239835D01*
X109963274Y-77112205D01*
X110021791Y-77011845D01*
X110067384Y-76967695D01*
X110203672Y-76882853D01*
X110352258Y-76854269D01*
X110454482Y-76854269D01*
X110414972Y-76948237D01*
G36*
X110414972Y-76948237D02*
G01*
X110375104Y-77013223D01*
X110292334Y-77064437D01*
X110275269Y-77069696D01*
X110188324Y-77126297D01*
X110141358Y-77211606D01*
X110139341Y-77309559D01*
X110187244Y-77404094D01*
X110199598Y-77418207D01*
X110253283Y-77465403D01*
X110300088Y-77473197D01*
X110346046Y-77437494D01*
X110397188Y-77354197D01*
X110459548Y-77219212D01*
X110463497Y-77210082D01*
X110533372Y-77060231D01*
X110595272Y-76957884D01*
X110657076Y-76894880D01*
X110726662Y-76863062D01*
X110811908Y-76854269D01*
X110906416Y-76865791D01*
X111027385Y-76923972D01*
X111114288Y-77026325D01*
X111140378Y-77100357D01*
X111154655Y-77204833D01*
X111151606Y-77306283D01*
X111130067Y-77378728D01*
X111124704Y-77386423D01*
X111087232Y-77406859D01*
X111021191Y-77392678D01*
X110969353Y-77368039D01*
X110947772Y-77328530D01*
X110948846Y-77253598D01*
X110942655Y-77149570D01*
X110899911Y-77081595D01*
X110820789Y-77058637D01*
X110818516Y-77058658D01*
X110772586Y-77072571D01*
X110730445Y-77119897D01*
X110681872Y-77211913D01*
X110623390Y-77337049D01*
X110591575Y-77419932D01*
X110593625Y-77467780D01*
X110635651Y-77490137D01*
X110723762Y-77496551D01*
X110864069Y-77496568D01*
X110950681Y-77497283D01*
X111057641Y-77500565D01*
X111130850Y-77505900D01*
X111157991Y-77512615D01*
X111157806Y-77514410D01*
X111143098Y-77553218D01*
X111112056Y-77617491D01*
X111066121Y-77706320D01*
X110652228Y-77695764D01*
X110624779Y-77695029D01*
X110432117Y-77686645D01*
X110286909Y-77671834D01*
X110179487Y-77647571D01*
X110100184Y-77610836D01*
X110039330Y-77558603D01*
X109987258Y-77487852D01*
X109986442Y-77486543D01*
X109943960Y-77372144D01*
X109936784Y-77239835D01*
X109963274Y-77112205D01*
X110021791Y-77011845D01*
X110067384Y-76967695D01*
X110203672Y-76882853D01*
X110352258Y-76854269D01*
X110454482Y-76854269D01*
X110414972Y-76948237D01*
G37*
X110502421Y-71844012D02*
X110649102Y-71841422D01*
X110873336Y-71838532D01*
X110938385Y-71837729D01*
X111155860Y-71835160D01*
X111322272Y-71834644D01*
X111443446Y-71837763D01*
X111525207Y-71846100D01*
X111573381Y-71861238D01*
X111593794Y-71884759D01*
X111592272Y-71918244D01*
X111574639Y-71963277D01*
X111546721Y-72021439D01*
X111540764Y-72033868D01*
X111511606Y-72085622D01*
X111476914Y-72112650D01*
X111419070Y-72122993D01*
X111320457Y-72124691D01*
X111143393Y-72124767D01*
X111143393Y-72307162D01*
X111138480Y-72419360D01*
X111118553Y-72507580D01*
X111078278Y-72580842D01*
X111074341Y-72586304D01*
X111007843Y-72660642D01*
X110927508Y-72712377D01*
X110822358Y-72745004D01*
X110681415Y-72762018D01*
X110493701Y-72766913D01*
X110356722Y-72765829D01*
X110252964Y-72760893D01*
X110181012Y-72749928D01*
X110127100Y-72730762D01*
X110077464Y-72701223D01*
X110039531Y-72674108D01*
X109937122Y-72575650D01*
X109881503Y-72464100D01*
X109863897Y-72323954D01*
X109865125Y-72312728D01*
X110136152Y-72312728D01*
X110139329Y-72347244D01*
X110170854Y-72406965D01*
X110241105Y-72446448D01*
X110356183Y-72468258D01*
X110522188Y-72474959D01*
X110548876Y-72474909D01*
X110669338Y-72472136D01*
X110748084Y-72463233D01*
X110799218Y-72445583D01*
X110836841Y-72416568D01*
X110838638Y-72414760D01*
X110887320Y-72343447D01*
X110882521Y-72274335D01*
X110823571Y-72196275D01*
X110803423Y-72177181D01*
X110762115Y-72149058D01*
X110708387Y-72133200D01*
X110626926Y-72126191D01*
X110502421Y-72124614D01*
X110427045Y-72125980D01*
X110289962Y-72140798D01*
X110200148Y-72174621D01*
X110151060Y-72230811D01*
X110136152Y-72312728D01*
X109865125Y-72312728D01*
X109881447Y-72163565D01*
X109944397Y-72024912D01*
X110055424Y-71915249D01*
X110067178Y-71906982D01*
X110098413Y-71887701D01*
X110134107Y-71872931D01*
X110181964Y-71861946D01*
X110249687Y-71854026D01*
X110344982Y-71848447D01*
X110475552Y-71844487D01*
X110502421Y-71844012D01*
G36*
X110502421Y-71844012D02*
G01*
X110649102Y-71841422D01*
X110873336Y-71838532D01*
X110938385Y-71837729D01*
X111155860Y-71835160D01*
X111322272Y-71834644D01*
X111443446Y-71837763D01*
X111525207Y-71846100D01*
X111573381Y-71861238D01*
X111593794Y-71884759D01*
X111592272Y-71918244D01*
X111574639Y-71963277D01*
X111546721Y-72021439D01*
X111540764Y-72033868D01*
X111511606Y-72085622D01*
X111476914Y-72112650D01*
X111419070Y-72122993D01*
X111320457Y-72124691D01*
X111143393Y-72124767D01*
X111143393Y-72307162D01*
X111138480Y-72419360D01*
X111118553Y-72507580D01*
X111078278Y-72580842D01*
X111074341Y-72586304D01*
X111007843Y-72660642D01*
X110927508Y-72712377D01*
X110822358Y-72745004D01*
X110681415Y-72762018D01*
X110493701Y-72766913D01*
X110356722Y-72765829D01*
X110252964Y-72760893D01*
X110181012Y-72749928D01*
X110127100Y-72730762D01*
X110077464Y-72701223D01*
X110039531Y-72674108D01*
X109937122Y-72575650D01*
X109881503Y-72464100D01*
X109863897Y-72323954D01*
X109865125Y-72312728D01*
X110136152Y-72312728D01*
X110139329Y-72347244D01*
X110170854Y-72406965D01*
X110241105Y-72446448D01*
X110356183Y-72468258D01*
X110522188Y-72474959D01*
X110548876Y-72474909D01*
X110669338Y-72472136D01*
X110748084Y-72463233D01*
X110799218Y-72445583D01*
X110836841Y-72416568D01*
X110838638Y-72414760D01*
X110887320Y-72343447D01*
X110882521Y-72274335D01*
X110823571Y-72196275D01*
X110803423Y-72177181D01*
X110762115Y-72149058D01*
X110708387Y-72133200D01*
X110626926Y-72126191D01*
X110502421Y-72124614D01*
X110427045Y-72125980D01*
X110289962Y-72140798D01*
X110200148Y-72174621D01*
X110151060Y-72230811D01*
X110136152Y-72312728D01*
X109865125Y-72312728D01*
X109881447Y-72163565D01*
X109944397Y-72024912D01*
X110055424Y-71915249D01*
X110067178Y-71906982D01*
X110098413Y-71887701D01*
X110134107Y-71872931D01*
X110181964Y-71861946D01*
X110249687Y-71854026D01*
X110344982Y-71848447D01*
X110475552Y-71844487D01*
X110502421Y-71844012D01*
G37*
X110887382Y-81060243D02*
X110999748Y-81109163D01*
X111091290Y-81201403D01*
X111130258Y-81276090D01*
X111157544Y-81420368D01*
X111153863Y-81500544D01*
X111133960Y-81574765D01*
X111092198Y-81603240D01*
X111023420Y-81592592D01*
X111014326Y-81589495D01*
X110966098Y-81564932D01*
X110947845Y-81524035D01*
X110949066Y-81446121D01*
X110950726Y-81391109D01*
X110936481Y-81326741D01*
X110893892Y-81282639D01*
X110841457Y-81257520D01*
X110786529Y-81254719D01*
X110786208Y-81254848D01*
X110756528Y-81287415D01*
X110713335Y-81357117D01*
X110665061Y-81447302D01*
X110620139Y-81541317D01*
X110587002Y-81622511D01*
X110574083Y-81674232D01*
X110586734Y-81681926D01*
X110646268Y-81691612D01*
X110743487Y-81698246D01*
X110866037Y-81700706D01*
X110950863Y-81701278D01*
X111057694Y-81703975D01*
X111130857Y-81708379D01*
X111157991Y-81713930D01*
X111148872Y-81742946D01*
X111124109Y-81801516D01*
X111090227Y-81875878D01*
X110655533Y-81875878D01*
X110544108Y-81875403D01*
X110374901Y-81870907D01*
X110249369Y-81859453D01*
X110157963Y-81838372D01*
X110091132Y-81804994D01*
X110039326Y-81756650D01*
X109992993Y-81690669D01*
X109954756Y-81606606D01*
X109931784Y-81451393D01*
X109934410Y-81380572D01*
X109950302Y-81318006D01*
X109989922Y-81259754D01*
X110063676Y-81184782D01*
X110115763Y-81136567D01*
X110183386Y-81086342D01*
X110246768Y-81063690D01*
X110327184Y-81058407D01*
X110458801Y-81058407D01*
X110412385Y-81148165D01*
X110355825Y-81219296D01*
X110279640Y-81268017D01*
X110258926Y-81276386D01*
X110178641Y-81340144D01*
X110138384Y-81428730D01*
X110142302Y-81525327D01*
X110194543Y-81613120D01*
X110236970Y-81650264D01*
X110291247Y-81671900D01*
X110339554Y-81648739D01*
X110388145Y-81576721D01*
X110443277Y-81451790D01*
X110450892Y-81432832D01*
X110500725Y-81319095D01*
X110549865Y-81221494D01*
X110588680Y-81159397D01*
X110658011Y-81097201D01*
X110768651Y-81055854D01*
X110887382Y-81060243D01*
G36*
X110887382Y-81060243D02*
G01*
X110999748Y-81109163D01*
X111091290Y-81201403D01*
X111130258Y-81276090D01*
X111157544Y-81420368D01*
X111153863Y-81500544D01*
X111133960Y-81574765D01*
X111092198Y-81603240D01*
X111023420Y-81592592D01*
X111014326Y-81589495D01*
X110966098Y-81564932D01*
X110947845Y-81524035D01*
X110949066Y-81446121D01*
X110950726Y-81391109D01*
X110936481Y-81326741D01*
X110893892Y-81282639D01*
X110841457Y-81257520D01*
X110786529Y-81254719D01*
X110786208Y-81254848D01*
X110756528Y-81287415D01*
X110713335Y-81357117D01*
X110665061Y-81447302D01*
X110620139Y-81541317D01*
X110587002Y-81622511D01*
X110574083Y-81674232D01*
X110586734Y-81681926D01*
X110646268Y-81691612D01*
X110743487Y-81698246D01*
X110866037Y-81700706D01*
X110950863Y-81701278D01*
X111057694Y-81703975D01*
X111130857Y-81708379D01*
X111157991Y-81713930D01*
X111148872Y-81742946D01*
X111124109Y-81801516D01*
X111090227Y-81875878D01*
X110655533Y-81875878D01*
X110544108Y-81875403D01*
X110374901Y-81870907D01*
X110249369Y-81859453D01*
X110157963Y-81838372D01*
X110091132Y-81804994D01*
X110039326Y-81756650D01*
X109992993Y-81690669D01*
X109954756Y-81606606D01*
X109931784Y-81451393D01*
X109934410Y-81380572D01*
X109950302Y-81318006D01*
X109989922Y-81259754D01*
X110063676Y-81184782D01*
X110115763Y-81136567D01*
X110183386Y-81086342D01*
X110246768Y-81063690D01*
X110327184Y-81058407D01*
X110458801Y-81058407D01*
X110412385Y-81148165D01*
X110355825Y-81219296D01*
X110279640Y-81268017D01*
X110258926Y-81276386D01*
X110178641Y-81340144D01*
X110138384Y-81428730D01*
X110142302Y-81525327D01*
X110194543Y-81613120D01*
X110236970Y-81650264D01*
X110291247Y-81671900D01*
X110339554Y-81648739D01*
X110388145Y-81576721D01*
X110443277Y-81451790D01*
X110450892Y-81432832D01*
X110500725Y-81319095D01*
X110549865Y-81221494D01*
X110588680Y-81159397D01*
X110658011Y-81097201D01*
X110768651Y-81055854D01*
X110887382Y-81060243D01*
G37*
X105753760Y-72832602D02*
X105757385Y-72851143D01*
X105776169Y-72949604D01*
X105801693Y-73085752D01*
X105831068Y-73244113D01*
X105861406Y-73409212D01*
X105873609Y-73474227D01*
X105903297Y-73619503D01*
X105931370Y-73740574D01*
X105955136Y-73826314D01*
X105971901Y-73865599D01*
X105999294Y-73883401D01*
X106071774Y-73915811D01*
X106165577Y-73948966D01*
X106200703Y-73960636D01*
X106316009Y-74003596D01*
X106452476Y-74059008D01*
X106587554Y-74117847D01*
X106658109Y-74149316D01*
X106763495Y-74194149D01*
X106842418Y-74224960D01*
X106881653Y-74236415D01*
X106884614Y-74235778D01*
X106926239Y-74214050D01*
X107006569Y-74165054D01*
X107117820Y-74093762D01*
X107252205Y-74005146D01*
X107401940Y-73904177D01*
X107889531Y-73571939D01*
X108326749Y-74008429D01*
X108368821Y-74050645D01*
X108494753Y-74179730D01*
X108603354Y-74295093D01*
X108688503Y-74389976D01*
X108744082Y-74457618D01*
X108763968Y-74491262D01*
X108748838Y-74527798D01*
X108705401Y-74604310D01*
X108638870Y-74712004D01*
X108554467Y-74842433D01*
X108457416Y-74987148D01*
X108361564Y-75129290D01*
X108277157Y-75257522D01*
X108210450Y-75362146D01*
X108166624Y-75435029D01*
X108150864Y-75468042D01*
X108151008Y-75469977D01*
X108166545Y-75513831D01*
X108202721Y-75591602D01*
X108252385Y-75687808D01*
X108252929Y-75688819D01*
X108316926Y-75816595D01*
X108348191Y-75904149D01*
X108348277Y-75958474D01*
X108318738Y-75986559D01*
X108289661Y-75998448D01*
X108211788Y-76030532D01*
X108092075Y-76079953D01*
X107936886Y-76144082D01*
X107752584Y-76220289D01*
X107545533Y-76305945D01*
X107322096Y-76398419D01*
X107118826Y-76482238D01*
X106910249Y-76567522D01*
X106723863Y-76642978D01*
X106566007Y-76706074D01*
X106443019Y-76754277D01*
X106361239Y-76785056D01*
X106327006Y-76795878D01*
X106295615Y-76775209D01*
X106243202Y-76717791D01*
X106182304Y-76636512D01*
X106022987Y-76441380D01*
X105819407Y-76266755D01*
X105595408Y-76138965D01*
X105357603Y-76058798D01*
X105112607Y-76027040D01*
X104867033Y-76044478D01*
X104627495Y-76111899D01*
X104400607Y-76230089D01*
X104192983Y-76399836D01*
X104112127Y-76488344D01*
X103969159Y-76700396D01*
X103875952Y-76927295D01*
X103830287Y-77162409D01*
X103829944Y-77399106D01*
X103872705Y-77630754D01*
X103956350Y-77850722D01*
X104078661Y-78052378D01*
X104237417Y-78229089D01*
X104430401Y-78374223D01*
X104655393Y-78481150D01*
X104910175Y-78543236D01*
X105032977Y-78554631D01*
X105299034Y-78538954D01*
X105551456Y-78468354D01*
X105785782Y-78344918D01*
X105997552Y-78170734D01*
X106182304Y-77947889D01*
X106240723Y-77869639D01*
X106293710Y-77810956D01*
X106326956Y-77788522D01*
X106355939Y-77797468D01*
X106433596Y-77826497D01*
X106553051Y-77873174D01*
X106707962Y-77934969D01*
X106891992Y-78009350D01*
X107098800Y-78093788D01*
X107322046Y-78185751D01*
X107524342Y-78269429D01*
X107733286Y-78355834D01*
X107920098Y-78433062D01*
X108078414Y-78498484D01*
X108201869Y-78549469D01*
X108284098Y-78583388D01*
X108318738Y-78597610D01*
X108319148Y-78597775D01*
X108348398Y-78626228D01*
X108348063Y-78680818D01*
X108316580Y-78768591D01*
X108252385Y-78896592D01*
X108246980Y-78906668D01*
X108198350Y-79001719D01*
X108163928Y-79076776D01*
X108150864Y-79116358D01*
X108166302Y-79148800D01*
X108209858Y-79221305D01*
X108276351Y-79325635D01*
X108360598Y-79453661D01*
X108457416Y-79597252D01*
X108552334Y-79738732D01*
X108637090Y-79869589D01*
X108704096Y-79977908D01*
X108748129Y-80055240D01*
X108763968Y-80093138D01*
X108761957Y-80099593D01*
X108730258Y-80144591D01*
X108664781Y-80221473D01*
X108571648Y-80323479D01*
X108456981Y-80443849D01*
X108326900Y-80575821D01*
X107889832Y-81012161D01*
X106890040Y-80332467D01*
X106666486Y-80435798D01*
X106665825Y-80436104D01*
X106523314Y-80498154D01*
X106364618Y-80561560D01*
X106223968Y-80612642D01*
X106201283Y-80620373D01*
X106095970Y-80659348D01*
X106014134Y-80694493D01*
X105971901Y-80719005D01*
X105965937Y-80728988D01*
X105945929Y-80788914D01*
X105920042Y-80890668D01*
X105890970Y-81023132D01*
X105861406Y-81175189D01*
X105853067Y-81220734D01*
X105822707Y-81385515D01*
X105794109Y-81539270D01*
X105770164Y-81666522D01*
X105753760Y-81751798D01*
X105723506Y-81905074D01*
X105085245Y-81905074D01*
X105006765Y-81905040D01*
X104815303Y-81904392D01*
X104672412Y-81902480D01*
X104570789Y-81898731D01*
X104503131Y-81892578D01*
X104462136Y-81883449D01*
X104440500Y-81870773D01*
X104430920Y-81853982D01*
X104427039Y-81837726D01*
X104413310Y-81771452D01*
X104392345Y-81665721D01*
X104366188Y-81531285D01*
X104336883Y-81378898D01*
X104306477Y-81219310D01*
X104277013Y-81063275D01*
X104250537Y-80921543D01*
X104229094Y-80804869D01*
X104214728Y-80724003D01*
X104209485Y-80689697D01*
X104206320Y-80687378D01*
X104165242Y-80668726D01*
X104086644Y-80636447D01*
X103983221Y-80595809D01*
X103843873Y-80539412D01*
X103682826Y-80469986D01*
X103540891Y-80404912D01*
X103509032Y-80389998D01*
X103409269Y-80348153D01*
X103332321Y-80323082D01*
X103292730Y-80319774D01*
X103289925Y-80321480D01*
X103248605Y-80348569D01*
X103168340Y-80402273D01*
X103056950Y-80477323D01*
X102922255Y-80568454D01*
X102772076Y-80670400D01*
X102601451Y-80785270D01*
X102468911Y-80871439D01*
X102371712Y-80930069D01*
X102303834Y-80964550D01*
X102259256Y-80978274D01*
X102231961Y-80974632D01*
X102229913Y-80973406D01*
X102190136Y-80940453D01*
X102117652Y-80873273D01*
X102019646Y-80778781D01*
X101903302Y-80663894D01*
X101775805Y-80535528D01*
X101646421Y-80402369D01*
X101524809Y-80271931D01*
X101442756Y-80176081D01*
X101398160Y-80112334D01*
X101388917Y-80078204D01*
X101390993Y-80073744D01*
X101418985Y-80026779D01*
X101473684Y-79941515D01*
X101549837Y-79825941D01*
X101642192Y-79688046D01*
X101745497Y-79535819D01*
X102084365Y-79039590D01*
X101982656Y-78815493D01*
X101979709Y-78808981D01*
X101920104Y-78671396D01*
X101860822Y-78525433D01*
X101814285Y-78401625D01*
X101814093Y-78401078D01*
X101778097Y-78302786D01*
X101747695Y-78227119D01*
X101729452Y-78190420D01*
X101728790Y-78189826D01*
X101691431Y-78177367D01*
X101606471Y-78156864D01*
X101483069Y-78130293D01*
X101330382Y-78099633D01*
X101157567Y-78066864D01*
X101151374Y-78065722D01*
X100975031Y-78033007D01*
X100815343Y-78003045D01*
X100682505Y-77977775D01*
X100586713Y-77959135D01*
X100538163Y-77949065D01*
X100535473Y-77948421D01*
X100514688Y-77941792D01*
X100499066Y-77928359D01*
X100487870Y-77900754D01*
X100480362Y-77851607D01*
X100475805Y-77773547D01*
X100473463Y-77659206D01*
X100472598Y-77501214D01*
X100472474Y-77292200D01*
X100472474Y-77265938D01*
X100472645Y-77063025D01*
X100473639Y-76910305D01*
X100476193Y-76800408D01*
X100481045Y-76725965D01*
X100488931Y-76679606D01*
X100500588Y-76653961D01*
X100516753Y-76641661D01*
X100538163Y-76635335D01*
X100538932Y-76635153D01*
X100589263Y-76624759D01*
X100686488Y-76605861D01*
X100820410Y-76580398D01*
X100980835Y-76550310D01*
X101157567Y-76517536D01*
X101172028Y-76514863D01*
X101343559Y-76482190D01*
X101494225Y-76451787D01*
X101614867Y-76425632D01*
X101696329Y-76405704D01*
X101729452Y-76393980D01*
X101729505Y-76393918D01*
X101747829Y-76356971D01*
X101778277Y-76281143D01*
X101814285Y-76182775D01*
X101816240Y-76177235D01*
X101863770Y-76051476D01*
X101923383Y-75905189D01*
X101982656Y-75768907D01*
X102084365Y-75544810D01*
X101745497Y-75048582D01*
X101721663Y-75013630D01*
X101620355Y-74863920D01*
X101531175Y-74730333D01*
X101459373Y-74620857D01*
X101410203Y-74543482D01*
X101388917Y-74506196D01*
X101393796Y-74480648D01*
X101431602Y-74422645D01*
X101506470Y-74333005D01*
X101620503Y-74209243D01*
X101775805Y-74048872D01*
X101789941Y-74034521D01*
X101916599Y-73907267D01*
X102031345Y-73794231D01*
X102126991Y-73702333D01*
X102196346Y-73638493D01*
X102232220Y-73609630D01*
X102232394Y-73609536D01*
X102259706Y-73605869D01*
X102304008Y-73619392D01*
X102371361Y-73653516D01*
X102467826Y-73711652D01*
X102599463Y-73797212D01*
X102772334Y-73913606D01*
X102801512Y-73933441D01*
X102949326Y-74033755D01*
X103080177Y-74122277D01*
X103186243Y-74193735D01*
X103259702Y-74242857D01*
X103292730Y-74264369D01*
X103299726Y-74265992D01*
X103351926Y-74255813D01*
X103437161Y-74225321D01*
X103540891Y-74179488D01*
X103676551Y-74117200D01*
X103837521Y-74047652D01*
X103983221Y-73988591D01*
X104020933Y-73973948D01*
X104117222Y-73935600D01*
X104184304Y-73907430D01*
X104209485Y-73894703D01*
X104211367Y-73880655D01*
X104222251Y-73817519D01*
X104241049Y-73714181D01*
X104265715Y-73581391D01*
X104294204Y-73429903D01*
X104324473Y-73270468D01*
X104354475Y-73113839D01*
X104382166Y-72970767D01*
X104405500Y-72852005D01*
X104422433Y-72768304D01*
X104430920Y-72730418D01*
X104433313Y-72724137D01*
X104446219Y-72708827D01*
X104473696Y-72697437D01*
X104523046Y-72689397D01*
X104601573Y-72684136D01*
X104716580Y-72681084D01*
X104875370Y-72679671D01*
X105085245Y-72679327D01*
X105723506Y-72679327D01*
X105753760Y-72832602D01*
G36*
X105753760Y-72832602D02*
G01*
X105757385Y-72851143D01*
X105776169Y-72949604D01*
X105801693Y-73085752D01*
X105831068Y-73244113D01*
X105861406Y-73409212D01*
X105873609Y-73474227D01*
X105903297Y-73619503D01*
X105931370Y-73740574D01*
X105955136Y-73826314D01*
X105971901Y-73865599D01*
X105999294Y-73883401D01*
X106071774Y-73915811D01*
X106165577Y-73948966D01*
X106200703Y-73960636D01*
X106316009Y-74003596D01*
X106452476Y-74059008D01*
X106587554Y-74117847D01*
X106658109Y-74149316D01*
X106763495Y-74194149D01*
X106842418Y-74224960D01*
X106881653Y-74236415D01*
X106884614Y-74235778D01*
X106926239Y-74214050D01*
X107006569Y-74165054D01*
X107117820Y-74093762D01*
X107252205Y-74005146D01*
X107401940Y-73904177D01*
X107889531Y-73571939D01*
X108326749Y-74008429D01*
X108368821Y-74050645D01*
X108494753Y-74179730D01*
X108603354Y-74295093D01*
X108688503Y-74389976D01*
X108744082Y-74457618D01*
X108763968Y-74491262D01*
X108748838Y-74527798D01*
X108705401Y-74604310D01*
X108638870Y-74712004D01*
X108554467Y-74842433D01*
X108457416Y-74987148D01*
X108361564Y-75129290D01*
X108277157Y-75257522D01*
X108210450Y-75362146D01*
X108166624Y-75435029D01*
X108150864Y-75468042D01*
X108151008Y-75469977D01*
X108166545Y-75513831D01*
X108202721Y-75591602D01*
X108252385Y-75687808D01*
X108252929Y-75688819D01*
X108316926Y-75816595D01*
X108348191Y-75904149D01*
X108348277Y-75958474D01*
X108318738Y-75986559D01*
X108289661Y-75998448D01*
X108211788Y-76030532D01*
X108092075Y-76079953D01*
X107936886Y-76144082D01*
X107752584Y-76220289D01*
X107545533Y-76305945D01*
X107322096Y-76398419D01*
X107118826Y-76482238D01*
X106910249Y-76567522D01*
X106723863Y-76642978D01*
X106566007Y-76706074D01*
X106443019Y-76754277D01*
X106361239Y-76785056D01*
X106327006Y-76795878D01*
X106295615Y-76775209D01*
X106243202Y-76717791D01*
X106182304Y-76636512D01*
X106022987Y-76441380D01*
X105819407Y-76266755D01*
X105595408Y-76138965D01*
X105357603Y-76058798D01*
X105112607Y-76027040D01*
X104867033Y-76044478D01*
X104627495Y-76111899D01*
X104400607Y-76230089D01*
X104192983Y-76399836D01*
X104112127Y-76488344D01*
X103969159Y-76700396D01*
X103875952Y-76927295D01*
X103830287Y-77162409D01*
X103829944Y-77399106D01*
X103872705Y-77630754D01*
X103956350Y-77850722D01*
X104078661Y-78052378D01*
X104237417Y-78229089D01*
X104430401Y-78374223D01*
X104655393Y-78481150D01*
X104910175Y-78543236D01*
X105032977Y-78554631D01*
X105299034Y-78538954D01*
X105551456Y-78468354D01*
X105785782Y-78344918D01*
X105997552Y-78170734D01*
X106182304Y-77947889D01*
X106240723Y-77869639D01*
X106293710Y-77810956D01*
X106326956Y-77788522D01*
X106355939Y-77797468D01*
X106433596Y-77826497D01*
X106553051Y-77873174D01*
X106707962Y-77934969D01*
X106891992Y-78009350D01*
X107098800Y-78093788D01*
X107322046Y-78185751D01*
X107524342Y-78269429D01*
X107733286Y-78355834D01*
X107920098Y-78433062D01*
X108078414Y-78498484D01*
X108201869Y-78549469D01*
X108284098Y-78583388D01*
X108318738Y-78597610D01*
X108319148Y-78597775D01*
X108348398Y-78626228D01*
X108348063Y-78680818D01*
X108316580Y-78768591D01*
X108252385Y-78896592D01*
X108246980Y-78906668D01*
X108198350Y-79001719D01*
X108163928Y-79076776D01*
X108150864Y-79116358D01*
X108166302Y-79148800D01*
X108209858Y-79221305D01*
X108276351Y-79325635D01*
X108360598Y-79453661D01*
X108457416Y-79597252D01*
X108552334Y-79738732D01*
X108637090Y-79869589D01*
X108704096Y-79977908D01*
X108748129Y-80055240D01*
X108763968Y-80093138D01*
X108761957Y-80099593D01*
X108730258Y-80144591D01*
X108664781Y-80221473D01*
X108571648Y-80323479D01*
X108456981Y-80443849D01*
X108326900Y-80575821D01*
X107889832Y-81012161D01*
X106890040Y-80332467D01*
X106666486Y-80435798D01*
X106665825Y-80436104D01*
X106523314Y-80498154D01*
X106364618Y-80561560D01*
X106223968Y-80612642D01*
X106201283Y-80620373D01*
X106095970Y-80659348D01*
X106014134Y-80694493D01*
X105971901Y-80719005D01*
X105965937Y-80728988D01*
X105945929Y-80788914D01*
X105920042Y-80890668D01*
X105890970Y-81023132D01*
X105861406Y-81175189D01*
X105853067Y-81220734D01*
X105822707Y-81385515D01*
X105794109Y-81539270D01*
X105770164Y-81666522D01*
X105753760Y-81751798D01*
X105723506Y-81905074D01*
X105085245Y-81905074D01*
X105006765Y-81905040D01*
X104815303Y-81904392D01*
X104672412Y-81902480D01*
X104570789Y-81898731D01*
X104503131Y-81892578D01*
X104462136Y-81883449D01*
X104440500Y-81870773D01*
X104430920Y-81853982D01*
X104427039Y-81837726D01*
X104413310Y-81771452D01*
X104392345Y-81665721D01*
X104366188Y-81531285D01*
X104336883Y-81378898D01*
X104306477Y-81219310D01*
X104277013Y-81063275D01*
X104250537Y-80921543D01*
X104229094Y-80804869D01*
X104214728Y-80724003D01*
X104209485Y-80689697D01*
X104206320Y-80687378D01*
X104165242Y-80668726D01*
X104086644Y-80636447D01*
X103983221Y-80595809D01*
X103843873Y-80539412D01*
X103682826Y-80469986D01*
X103540891Y-80404912D01*
X103509032Y-80389998D01*
X103409269Y-80348153D01*
X103332321Y-80323082D01*
X103292730Y-80319774D01*
X103289925Y-80321480D01*
X103248605Y-80348569D01*
X103168340Y-80402273D01*
X103056950Y-80477323D01*
X102922255Y-80568454D01*
X102772076Y-80670400D01*
X102601451Y-80785270D01*
X102468911Y-80871439D01*
X102371712Y-80930069D01*
X102303834Y-80964550D01*
X102259256Y-80978274D01*
X102231961Y-80974632D01*
X102229913Y-80973406D01*
X102190136Y-80940453D01*
X102117652Y-80873273D01*
X102019646Y-80778781D01*
X101903302Y-80663894D01*
X101775805Y-80535528D01*
X101646421Y-80402369D01*
X101524809Y-80271931D01*
X101442756Y-80176081D01*
X101398160Y-80112334D01*
X101388917Y-80078204D01*
X101390993Y-80073744D01*
X101418985Y-80026779D01*
X101473684Y-79941515D01*
X101549837Y-79825941D01*
X101642192Y-79688046D01*
X101745497Y-79535819D01*
X102084365Y-79039590D01*
X101982656Y-78815493D01*
X101979709Y-78808981D01*
X101920104Y-78671396D01*
X101860822Y-78525433D01*
X101814285Y-78401625D01*
X101814093Y-78401078D01*
X101778097Y-78302786D01*
X101747695Y-78227119D01*
X101729452Y-78190420D01*
X101728790Y-78189826D01*
X101691431Y-78177367D01*
X101606471Y-78156864D01*
X101483069Y-78130293D01*
X101330382Y-78099633D01*
X101157567Y-78066864D01*
X101151374Y-78065722D01*
X100975031Y-78033007D01*
X100815343Y-78003045D01*
X100682505Y-77977775D01*
X100586713Y-77959135D01*
X100538163Y-77949065D01*
X100535473Y-77948421D01*
X100514688Y-77941792D01*
X100499066Y-77928359D01*
X100487870Y-77900754D01*
X100480362Y-77851607D01*
X100475805Y-77773547D01*
X100473463Y-77659206D01*
X100472598Y-77501214D01*
X100472474Y-77292200D01*
X100472474Y-77265938D01*
X100472645Y-77063025D01*
X100473639Y-76910305D01*
X100476193Y-76800408D01*
X100481045Y-76725965D01*
X100488931Y-76679606D01*
X100500588Y-76653961D01*
X100516753Y-76641661D01*
X100538163Y-76635335D01*
X100538932Y-76635153D01*
X100589263Y-76624759D01*
X100686488Y-76605861D01*
X100820410Y-76580398D01*
X100980835Y-76550310D01*
X101157567Y-76517536D01*
X101172028Y-76514863D01*
X101343559Y-76482190D01*
X101494225Y-76451787D01*
X101614867Y-76425632D01*
X101696329Y-76405704D01*
X101729452Y-76393980D01*
X101729505Y-76393918D01*
X101747829Y-76356971D01*
X101778277Y-76281143D01*
X101814285Y-76182775D01*
X101816240Y-76177235D01*
X101863770Y-76051476D01*
X101923383Y-75905189D01*
X101982656Y-75768907D01*
X102084365Y-75544810D01*
X101745497Y-75048582D01*
X101721663Y-75013630D01*
X101620355Y-74863920D01*
X101531175Y-74730333D01*
X101459373Y-74620857D01*
X101410203Y-74543482D01*
X101388917Y-74506196D01*
X101393796Y-74480648D01*
X101431602Y-74422645D01*
X101506470Y-74333005D01*
X101620503Y-74209243D01*
X101775805Y-74048872D01*
X101789941Y-74034521D01*
X101916599Y-73907267D01*
X102031345Y-73794231D01*
X102126991Y-73702333D01*
X102196346Y-73638493D01*
X102232220Y-73609630D01*
X102232394Y-73609536D01*
X102259706Y-73605869D01*
X102304008Y-73619392D01*
X102371361Y-73653516D01*
X102467826Y-73711652D01*
X102599463Y-73797212D01*
X102772334Y-73913606D01*
X102801512Y-73933441D01*
X102949326Y-74033755D01*
X103080177Y-74122277D01*
X103186243Y-74193735D01*
X103259702Y-74242857D01*
X103292730Y-74264369D01*
X103299726Y-74265992D01*
X103351926Y-74255813D01*
X103437161Y-74225321D01*
X103540891Y-74179488D01*
X103676551Y-74117200D01*
X103837521Y-74047652D01*
X103983221Y-73988591D01*
X104020933Y-73973948D01*
X104117222Y-73935600D01*
X104184304Y-73907430D01*
X104209485Y-73894703D01*
X104211367Y-73880655D01*
X104222251Y-73817519D01*
X104241049Y-73714181D01*
X104265715Y-73581391D01*
X104294204Y-73429903D01*
X104324473Y-73270468D01*
X104354475Y-73113839D01*
X104382166Y-72970767D01*
X104405500Y-72852005D01*
X104422433Y-72768304D01*
X104430920Y-72730418D01*
X104433313Y-72724137D01*
X104446219Y-72708827D01*
X104473696Y-72697437D01*
X104523046Y-72689397D01*
X104601573Y-72684136D01*
X104716580Y-72681084D01*
X104875370Y-72679671D01*
X105085245Y-72679327D01*
X105723506Y-72679327D01*
X105753760Y-72832602D01*
G37*
D13*
X165054900Y-64947800D02*
X182213900Y-64947800D01*
X182213900Y-65547800D01*
X165054900Y-65547800D01*
X165054900Y-64947800D01*
X165054900Y-93735600D02*
X182213900Y-93735600D01*
X182213900Y-94335600D01*
X165054900Y-94335600D01*
X165054900Y-93735600D01*
X165029500Y-88630200D02*
X182188500Y-88630200D01*
X182188500Y-89230200D01*
X165029500Y-89230200D01*
X165029500Y-88630200D01*
X165080300Y-82219800D02*
X182239300Y-82219800D01*
X182239300Y-82819800D01*
X165080300Y-82819800D01*
X165080300Y-82219800D01*
X165080300Y-77063600D02*
X182239300Y-77063600D01*
X182239300Y-77663600D01*
X165080300Y-77663600D01*
X165080300Y-77063600D01*
X165042200Y-72212200D02*
X182201200Y-72212200D01*
X182201200Y-72812200D01*
X165042200Y-72812200D01*
X165042200Y-72212200D01*
X95000000Y-50000000D02*
X185000000Y-50000000D01*
X95000000Y-100000000D02*
X95000000Y-50000000D01*
X185000000Y-100000000D02*
X95000000Y-100000000D01*
X185000000Y-50000000D02*
X185000000Y-100000000D01*
M02*
