G04 #@! TF.GenerationSoftware,KiCad,Pcbnew,7.0.5-0*
G04 #@! TF.CreationDate,2023-08-26T07:58:29+02:00*
G04 #@! TF.ProjectId,CaptorBoard,43617074-6f72-4426-9f61-72642e6b6963,rev?*
G04 #@! TF.SameCoordinates,Original*
G04 #@! TF.FileFunction,Legend,Top*
G04 #@! TF.FilePolarity,Positive*
%FSLAX46Y46*%
G04 Gerber Fmt 4.6, Leading zero omitted, Abs format (unit mm)*
G04 Created by KiCad (PCBNEW 7.0.5-0) date 2023-08-26 07:58:29*
%MOMM*%
%LPD*%
G01*
G04 APERTURE LIST*
%ADD10C,0.150000*%
%ADD11C,0.254000*%
%ADD12C,0.120000*%
%ADD13C,0.200000*%
G04 #@! TA.AperFunction,Profile*
%ADD14C,0.100000*%
G04 #@! TD*
G04 APERTURE END LIST*
D10*
X112522095Y-84036819D02*
X112522095Y-84846342D01*
X112522095Y-84846342D02*
X112569714Y-84941580D01*
X112569714Y-84941580D02*
X112617333Y-84989200D01*
X112617333Y-84989200D02*
X112712571Y-85036819D01*
X112712571Y-85036819D02*
X112903047Y-85036819D01*
X112903047Y-85036819D02*
X112998285Y-84989200D01*
X112998285Y-84989200D02*
X113045904Y-84941580D01*
X113045904Y-84941580D02*
X113093523Y-84846342D01*
X113093523Y-84846342D02*
X113093523Y-84036819D01*
X114093523Y-85036819D02*
X113522095Y-85036819D01*
X113807809Y-85036819D02*
X113807809Y-84036819D01*
X113807809Y-84036819D02*
X113712571Y-84179676D01*
X113712571Y-84179676D02*
X113617333Y-84274914D01*
X113617333Y-84274914D02*
X113522095Y-84322533D01*
X91972104Y-78757905D02*
X91972104Y-78281715D01*
X92257819Y-78853143D02*
X91257819Y-78519810D01*
X91257819Y-78519810D02*
X92257819Y-78186477D01*
X91591152Y-77853143D02*
X92257819Y-77853143D01*
X91686390Y-77853143D02*
X91638771Y-77805524D01*
X91638771Y-77805524D02*
X91591152Y-77710286D01*
X91591152Y-77710286D02*
X91591152Y-77567429D01*
X91591152Y-77567429D02*
X91638771Y-77472191D01*
X91638771Y-77472191D02*
X91734009Y-77424572D01*
X91734009Y-77424572D02*
X92257819Y-77424572D01*
X91591152Y-77091238D02*
X91591152Y-76710286D01*
X91257819Y-76948381D02*
X92114961Y-76948381D01*
X92114961Y-76948381D02*
X92210200Y-76900762D01*
X92210200Y-76900762D02*
X92257819Y-76805524D01*
X92257819Y-76805524D02*
X92257819Y-76710286D01*
X92210200Y-75996000D02*
X92257819Y-76091238D01*
X92257819Y-76091238D02*
X92257819Y-76281714D01*
X92257819Y-76281714D02*
X92210200Y-76376952D01*
X92210200Y-76376952D02*
X92114961Y-76424571D01*
X92114961Y-76424571D02*
X91734009Y-76424571D01*
X91734009Y-76424571D02*
X91638771Y-76376952D01*
X91638771Y-76376952D02*
X91591152Y-76281714D01*
X91591152Y-76281714D02*
X91591152Y-76091238D01*
X91591152Y-76091238D02*
X91638771Y-75996000D01*
X91638771Y-75996000D02*
X91734009Y-75948381D01*
X91734009Y-75948381D02*
X91829247Y-75948381D01*
X91829247Y-75948381D02*
X91924485Y-76424571D01*
X91591152Y-75519809D02*
X92257819Y-75519809D01*
X91686390Y-75519809D02*
X91638771Y-75472190D01*
X91638771Y-75472190D02*
X91591152Y-75376952D01*
X91591152Y-75376952D02*
X91591152Y-75234095D01*
X91591152Y-75234095D02*
X91638771Y-75138857D01*
X91638771Y-75138857D02*
X91734009Y-75091238D01*
X91734009Y-75091238D02*
X92257819Y-75091238D01*
X91591152Y-74615047D02*
X92257819Y-74615047D01*
X91686390Y-74615047D02*
X91638771Y-74567428D01*
X91638771Y-74567428D02*
X91591152Y-74472190D01*
X91591152Y-74472190D02*
X91591152Y-74329333D01*
X91591152Y-74329333D02*
X91638771Y-74234095D01*
X91638771Y-74234095D02*
X91734009Y-74186476D01*
X91734009Y-74186476D02*
X92257819Y-74186476D01*
X92257819Y-73281714D02*
X91734009Y-73281714D01*
X91734009Y-73281714D02*
X91638771Y-73329333D01*
X91638771Y-73329333D02*
X91591152Y-73424571D01*
X91591152Y-73424571D02*
X91591152Y-73615047D01*
X91591152Y-73615047D02*
X91638771Y-73710285D01*
X92210200Y-73281714D02*
X92257819Y-73376952D01*
X92257819Y-73376952D02*
X92257819Y-73615047D01*
X92257819Y-73615047D02*
X92210200Y-73710285D01*
X92210200Y-73710285D02*
X92114961Y-73757904D01*
X92114961Y-73757904D02*
X92019723Y-73757904D01*
X92019723Y-73757904D02*
X91924485Y-73710285D01*
X91924485Y-73710285D02*
X91876866Y-73615047D01*
X91876866Y-73615047D02*
X91876866Y-73376952D01*
X91876866Y-73376952D02*
X91829247Y-73281714D01*
X91972104Y-72091237D02*
X91972104Y-71615047D01*
X92257819Y-72186475D02*
X91257819Y-71853142D01*
X91257819Y-71853142D02*
X92257819Y-71519809D01*
X92257819Y-71186475D02*
X91591152Y-71186475D01*
X91781628Y-71186475D02*
X91686390Y-71138856D01*
X91686390Y-71138856D02*
X91638771Y-71091237D01*
X91638771Y-71091237D02*
X91591152Y-70995999D01*
X91591152Y-70995999D02*
X91591152Y-70900761D01*
X92210200Y-70186475D02*
X92257819Y-70281713D01*
X92257819Y-70281713D02*
X92257819Y-70472189D01*
X92257819Y-70472189D02*
X92210200Y-70567427D01*
X92210200Y-70567427D02*
X92114961Y-70615046D01*
X92114961Y-70615046D02*
X91734009Y-70615046D01*
X91734009Y-70615046D02*
X91638771Y-70567427D01*
X91638771Y-70567427D02*
X91591152Y-70472189D01*
X91591152Y-70472189D02*
X91591152Y-70281713D01*
X91591152Y-70281713D02*
X91638771Y-70186475D01*
X91638771Y-70186475D02*
X91734009Y-70138856D01*
X91734009Y-70138856D02*
X91829247Y-70138856D01*
X91829247Y-70138856D02*
X91924485Y-70615046D01*
X92257819Y-69281713D02*
X91734009Y-69281713D01*
X91734009Y-69281713D02*
X91638771Y-69329332D01*
X91638771Y-69329332D02*
X91591152Y-69424570D01*
X91591152Y-69424570D02*
X91591152Y-69615046D01*
X91591152Y-69615046D02*
X91638771Y-69710284D01*
X92210200Y-69281713D02*
X92257819Y-69376951D01*
X92257819Y-69376951D02*
X92257819Y-69615046D01*
X92257819Y-69615046D02*
X92210200Y-69710284D01*
X92210200Y-69710284D02*
X92114961Y-69757903D01*
X92114961Y-69757903D02*
X92019723Y-69757903D01*
X92019723Y-69757903D02*
X91924485Y-69710284D01*
X91924485Y-69710284D02*
X91876866Y-69615046D01*
X91876866Y-69615046D02*
X91876866Y-69376951D01*
X91876866Y-69376951D02*
X91829247Y-69281713D01*
X170511905Y-53954819D02*
X170511905Y-52954819D01*
X170511905Y-52954819D02*
X170750000Y-52954819D01*
X170750000Y-52954819D02*
X170892857Y-53002438D01*
X170892857Y-53002438D02*
X170988095Y-53097676D01*
X170988095Y-53097676D02*
X171035714Y-53192914D01*
X171035714Y-53192914D02*
X171083333Y-53383390D01*
X171083333Y-53383390D02*
X171083333Y-53526247D01*
X171083333Y-53526247D02*
X171035714Y-53716723D01*
X171035714Y-53716723D02*
X170988095Y-53811961D01*
X170988095Y-53811961D02*
X170892857Y-53907200D01*
X170892857Y-53907200D02*
X170750000Y-53954819D01*
X170750000Y-53954819D02*
X170511905Y-53954819D01*
X171559524Y-53954819D02*
X171750000Y-53954819D01*
X171750000Y-53954819D02*
X171845238Y-53907200D01*
X171845238Y-53907200D02*
X171892857Y-53859580D01*
X171892857Y-53859580D02*
X171988095Y-53716723D01*
X171988095Y-53716723D02*
X172035714Y-53526247D01*
X172035714Y-53526247D02*
X172035714Y-53145295D01*
X172035714Y-53145295D02*
X171988095Y-53050057D01*
X171988095Y-53050057D02*
X171940476Y-53002438D01*
X171940476Y-53002438D02*
X171845238Y-52954819D01*
X171845238Y-52954819D02*
X171654762Y-52954819D01*
X171654762Y-52954819D02*
X171559524Y-53002438D01*
X171559524Y-53002438D02*
X171511905Y-53050057D01*
X171511905Y-53050057D02*
X171464286Y-53145295D01*
X171464286Y-53145295D02*
X171464286Y-53383390D01*
X171464286Y-53383390D02*
X171511905Y-53478628D01*
X171511905Y-53478628D02*
X171559524Y-53526247D01*
X171559524Y-53526247D02*
X171654762Y-53573866D01*
X171654762Y-53573866D02*
X171845238Y-53573866D01*
X171845238Y-53573866D02*
X171940476Y-53526247D01*
X171940476Y-53526247D02*
X171988095Y-53478628D01*
X171988095Y-53478628D02*
X172035714Y-53383390D01*
X172704819Y-59011904D02*
X171704819Y-59011904D01*
X172704819Y-58440476D02*
X172133390Y-58869047D01*
X171704819Y-58440476D02*
X172276247Y-59011904D01*
X152785714Y-54204819D02*
X152785714Y-53204819D01*
X152785714Y-53204819D02*
X153023809Y-53204819D01*
X153023809Y-53204819D02*
X153166666Y-53252438D01*
X153166666Y-53252438D02*
X153261904Y-53347676D01*
X153261904Y-53347676D02*
X153309523Y-53442914D01*
X153309523Y-53442914D02*
X153357142Y-53633390D01*
X153357142Y-53633390D02*
X153357142Y-53776247D01*
X153357142Y-53776247D02*
X153309523Y-53966723D01*
X153309523Y-53966723D02*
X153261904Y-54061961D01*
X153261904Y-54061961D02*
X153166666Y-54157200D01*
X153166666Y-54157200D02*
X153023809Y-54204819D01*
X153023809Y-54204819D02*
X152785714Y-54204819D01*
X154309523Y-54204819D02*
X153738095Y-54204819D01*
X154023809Y-54204819D02*
X154023809Y-53204819D01*
X154023809Y-53204819D02*
X153928571Y-53347676D01*
X153928571Y-53347676D02*
X153833333Y-53442914D01*
X153833333Y-53442914D02*
X153738095Y-53490533D01*
X154928571Y-53204819D02*
X155023809Y-53204819D01*
X155023809Y-53204819D02*
X155119047Y-53252438D01*
X155119047Y-53252438D02*
X155166666Y-53300057D01*
X155166666Y-53300057D02*
X155214285Y-53395295D01*
X155214285Y-53395295D02*
X155261904Y-53585771D01*
X155261904Y-53585771D02*
X155261904Y-53823866D01*
X155261904Y-53823866D02*
X155214285Y-54014342D01*
X155214285Y-54014342D02*
X155166666Y-54109580D01*
X155166666Y-54109580D02*
X155119047Y-54157200D01*
X155119047Y-54157200D02*
X155023809Y-54204819D01*
X155023809Y-54204819D02*
X154928571Y-54204819D01*
X154928571Y-54204819D02*
X154833333Y-54157200D01*
X154833333Y-54157200D02*
X154785714Y-54109580D01*
X154785714Y-54109580D02*
X154738095Y-54014342D01*
X154738095Y-54014342D02*
X154690476Y-53823866D01*
X154690476Y-53823866D02*
X154690476Y-53585771D01*
X154690476Y-53585771D02*
X154738095Y-53395295D01*
X154738095Y-53395295D02*
X154785714Y-53300057D01*
X154785714Y-53300057D02*
X154833333Y-53252438D01*
X154833333Y-53252438D02*
X154928571Y-53204819D01*
X160954819Y-61261904D02*
X159954819Y-61261904D01*
X160954819Y-60690476D02*
X160383390Y-61119047D01*
X159954819Y-60690476D02*
X160526247Y-61261904D01*
X119568933Y-63472219D02*
X119235600Y-62996028D01*
X118997505Y-63472219D02*
X118997505Y-62472219D01*
X118997505Y-62472219D02*
X119378457Y-62472219D01*
X119378457Y-62472219D02*
X119473695Y-62519838D01*
X119473695Y-62519838D02*
X119521314Y-62567457D01*
X119521314Y-62567457D02*
X119568933Y-62662695D01*
X119568933Y-62662695D02*
X119568933Y-62805552D01*
X119568933Y-62805552D02*
X119521314Y-62900790D01*
X119521314Y-62900790D02*
X119473695Y-62948409D01*
X119473695Y-62948409D02*
X119378457Y-62996028D01*
X119378457Y-62996028D02*
X118997505Y-62996028D01*
X119902267Y-62472219D02*
X120568933Y-62472219D01*
X120568933Y-62472219D02*
X120140362Y-63472219D01*
X114333333Y-63446819D02*
X114000000Y-62970628D01*
X113761905Y-63446819D02*
X113761905Y-62446819D01*
X113761905Y-62446819D02*
X114142857Y-62446819D01*
X114142857Y-62446819D02*
X114238095Y-62494438D01*
X114238095Y-62494438D02*
X114285714Y-62542057D01*
X114285714Y-62542057D02*
X114333333Y-62637295D01*
X114333333Y-62637295D02*
X114333333Y-62780152D01*
X114333333Y-62780152D02*
X114285714Y-62875390D01*
X114285714Y-62875390D02*
X114238095Y-62923009D01*
X114238095Y-62923009D02*
X114142857Y-62970628D01*
X114142857Y-62970628D02*
X113761905Y-62970628D01*
X114904762Y-62875390D02*
X114809524Y-62827771D01*
X114809524Y-62827771D02*
X114761905Y-62780152D01*
X114761905Y-62780152D02*
X114714286Y-62684914D01*
X114714286Y-62684914D02*
X114714286Y-62637295D01*
X114714286Y-62637295D02*
X114761905Y-62542057D01*
X114761905Y-62542057D02*
X114809524Y-62494438D01*
X114809524Y-62494438D02*
X114904762Y-62446819D01*
X114904762Y-62446819D02*
X115095238Y-62446819D01*
X115095238Y-62446819D02*
X115190476Y-62494438D01*
X115190476Y-62494438D02*
X115238095Y-62542057D01*
X115238095Y-62542057D02*
X115285714Y-62637295D01*
X115285714Y-62637295D02*
X115285714Y-62684914D01*
X115285714Y-62684914D02*
X115238095Y-62780152D01*
X115238095Y-62780152D02*
X115190476Y-62827771D01*
X115190476Y-62827771D02*
X115095238Y-62875390D01*
X115095238Y-62875390D02*
X114904762Y-62875390D01*
X114904762Y-62875390D02*
X114809524Y-62923009D01*
X114809524Y-62923009D02*
X114761905Y-62970628D01*
X114761905Y-62970628D02*
X114714286Y-63065866D01*
X114714286Y-63065866D02*
X114714286Y-63256342D01*
X114714286Y-63256342D02*
X114761905Y-63351580D01*
X114761905Y-63351580D02*
X114809524Y-63399200D01*
X114809524Y-63399200D02*
X114904762Y-63446819D01*
X114904762Y-63446819D02*
X115095238Y-63446819D01*
X115095238Y-63446819D02*
X115190476Y-63399200D01*
X115190476Y-63399200D02*
X115238095Y-63351580D01*
X115238095Y-63351580D02*
X115285714Y-63256342D01*
X115285714Y-63256342D02*
X115285714Y-63065866D01*
X115285714Y-63065866D02*
X115238095Y-62970628D01*
X115238095Y-62970628D02*
X115190476Y-62923009D01*
X115190476Y-62923009D02*
X115095238Y-62875390D01*
X103833333Y-63446819D02*
X103500000Y-62970628D01*
X103261905Y-63446819D02*
X103261905Y-62446819D01*
X103261905Y-62446819D02*
X103642857Y-62446819D01*
X103642857Y-62446819D02*
X103738095Y-62494438D01*
X103738095Y-62494438D02*
X103785714Y-62542057D01*
X103785714Y-62542057D02*
X103833333Y-62637295D01*
X103833333Y-62637295D02*
X103833333Y-62780152D01*
X103833333Y-62780152D02*
X103785714Y-62875390D01*
X103785714Y-62875390D02*
X103738095Y-62923009D01*
X103738095Y-62923009D02*
X103642857Y-62970628D01*
X103642857Y-62970628D02*
X103261905Y-62970628D01*
X104309524Y-63446819D02*
X104500000Y-63446819D01*
X104500000Y-63446819D02*
X104595238Y-63399200D01*
X104595238Y-63399200D02*
X104642857Y-63351580D01*
X104642857Y-63351580D02*
X104738095Y-63208723D01*
X104738095Y-63208723D02*
X104785714Y-63018247D01*
X104785714Y-63018247D02*
X104785714Y-62637295D01*
X104785714Y-62637295D02*
X104738095Y-62542057D01*
X104738095Y-62542057D02*
X104690476Y-62494438D01*
X104690476Y-62494438D02*
X104595238Y-62446819D01*
X104595238Y-62446819D02*
X104404762Y-62446819D01*
X104404762Y-62446819D02*
X104309524Y-62494438D01*
X104309524Y-62494438D02*
X104261905Y-62542057D01*
X104261905Y-62542057D02*
X104214286Y-62637295D01*
X104214286Y-62637295D02*
X104214286Y-62875390D01*
X104214286Y-62875390D02*
X104261905Y-62970628D01*
X104261905Y-62970628D02*
X104309524Y-63018247D01*
X104309524Y-63018247D02*
X104404762Y-63065866D01*
X104404762Y-63065866D02*
X104595238Y-63065866D01*
X104595238Y-63065866D02*
X104690476Y-63018247D01*
X104690476Y-63018247D02*
X104738095Y-62970628D01*
X104738095Y-62970628D02*
X104785714Y-62875390D01*
X110357142Y-63446819D02*
X110023809Y-62970628D01*
X109785714Y-63446819D02*
X109785714Y-62446819D01*
X109785714Y-62446819D02*
X110166666Y-62446819D01*
X110166666Y-62446819D02*
X110261904Y-62494438D01*
X110261904Y-62494438D02*
X110309523Y-62542057D01*
X110309523Y-62542057D02*
X110357142Y-62637295D01*
X110357142Y-62637295D02*
X110357142Y-62780152D01*
X110357142Y-62780152D02*
X110309523Y-62875390D01*
X110309523Y-62875390D02*
X110261904Y-62923009D01*
X110261904Y-62923009D02*
X110166666Y-62970628D01*
X110166666Y-62970628D02*
X109785714Y-62970628D01*
X111309523Y-63446819D02*
X110738095Y-63446819D01*
X111023809Y-63446819D02*
X111023809Y-62446819D01*
X111023809Y-62446819D02*
X110928571Y-62589676D01*
X110928571Y-62589676D02*
X110833333Y-62684914D01*
X110833333Y-62684914D02*
X110738095Y-62732533D01*
X111928571Y-62446819D02*
X112023809Y-62446819D01*
X112023809Y-62446819D02*
X112119047Y-62494438D01*
X112119047Y-62494438D02*
X112166666Y-62542057D01*
X112166666Y-62542057D02*
X112214285Y-62637295D01*
X112214285Y-62637295D02*
X112261904Y-62827771D01*
X112261904Y-62827771D02*
X112261904Y-63065866D01*
X112261904Y-63065866D02*
X112214285Y-63256342D01*
X112214285Y-63256342D02*
X112166666Y-63351580D01*
X112166666Y-63351580D02*
X112119047Y-63399200D01*
X112119047Y-63399200D02*
X112023809Y-63446819D01*
X112023809Y-63446819D02*
X111928571Y-63446819D01*
X111928571Y-63446819D02*
X111833333Y-63399200D01*
X111833333Y-63399200D02*
X111785714Y-63351580D01*
X111785714Y-63351580D02*
X111738095Y-63256342D01*
X111738095Y-63256342D02*
X111690476Y-63065866D01*
X111690476Y-63065866D02*
X111690476Y-62827771D01*
X111690476Y-62827771D02*
X111738095Y-62637295D01*
X111738095Y-62637295D02*
X111785714Y-62542057D01*
X111785714Y-62542057D02*
X111833333Y-62494438D01*
X111833333Y-62494438D02*
X111928571Y-62446819D01*
X106984142Y-63446819D02*
X106650809Y-62970628D01*
X106412714Y-63446819D02*
X106412714Y-62446819D01*
X106412714Y-62446819D02*
X106793666Y-62446819D01*
X106793666Y-62446819D02*
X106888904Y-62494438D01*
X106888904Y-62494438D02*
X106936523Y-62542057D01*
X106936523Y-62542057D02*
X106984142Y-62637295D01*
X106984142Y-62637295D02*
X106984142Y-62780152D01*
X106984142Y-62780152D02*
X106936523Y-62875390D01*
X106936523Y-62875390D02*
X106888904Y-62923009D01*
X106888904Y-62923009D02*
X106793666Y-62970628D01*
X106793666Y-62970628D02*
X106412714Y-62970628D01*
X107936523Y-63446819D02*
X107365095Y-63446819D01*
X107650809Y-63446819D02*
X107650809Y-62446819D01*
X107650809Y-62446819D02*
X107555571Y-62589676D01*
X107555571Y-62589676D02*
X107460333Y-62684914D01*
X107460333Y-62684914D02*
X107365095Y-62732533D01*
X108888904Y-63446819D02*
X108317476Y-63446819D01*
X108603190Y-63446819D02*
X108603190Y-62446819D01*
X108603190Y-62446819D02*
X108507952Y-62589676D01*
X108507952Y-62589676D02*
X108412714Y-62684914D01*
X108412714Y-62684914D02*
X108317476Y-62732533D01*
X119048305Y-56454819D02*
X119048305Y-55454819D01*
X119048305Y-55454819D02*
X119286400Y-55454819D01*
X119286400Y-55454819D02*
X119429257Y-55502438D01*
X119429257Y-55502438D02*
X119524495Y-55597676D01*
X119524495Y-55597676D02*
X119572114Y-55692914D01*
X119572114Y-55692914D02*
X119619733Y-55883390D01*
X119619733Y-55883390D02*
X119619733Y-56026247D01*
X119619733Y-56026247D02*
X119572114Y-56216723D01*
X119572114Y-56216723D02*
X119524495Y-56311961D01*
X119524495Y-56311961D02*
X119429257Y-56407200D01*
X119429257Y-56407200D02*
X119286400Y-56454819D01*
X119286400Y-56454819D02*
X119048305Y-56454819D01*
X119953067Y-55454819D02*
X120572114Y-55454819D01*
X120572114Y-55454819D02*
X120238781Y-55835771D01*
X120238781Y-55835771D02*
X120381638Y-55835771D01*
X120381638Y-55835771D02*
X120476876Y-55883390D01*
X120476876Y-55883390D02*
X120524495Y-55931009D01*
X120524495Y-55931009D02*
X120572114Y-56026247D01*
X120572114Y-56026247D02*
X120572114Y-56264342D01*
X120572114Y-56264342D02*
X120524495Y-56359580D01*
X120524495Y-56359580D02*
X120476876Y-56407200D01*
X120476876Y-56407200D02*
X120381638Y-56454819D01*
X120381638Y-56454819D02*
X120095924Y-56454819D01*
X120095924Y-56454819D02*
X120000686Y-56407200D01*
X120000686Y-56407200D02*
X119953067Y-56359580D01*
X113888905Y-56429419D02*
X113888905Y-55429419D01*
X113888905Y-55429419D02*
X114127000Y-55429419D01*
X114127000Y-55429419D02*
X114269857Y-55477038D01*
X114269857Y-55477038D02*
X114365095Y-55572276D01*
X114365095Y-55572276D02*
X114412714Y-55667514D01*
X114412714Y-55667514D02*
X114460333Y-55857990D01*
X114460333Y-55857990D02*
X114460333Y-56000847D01*
X114460333Y-56000847D02*
X114412714Y-56191323D01*
X114412714Y-56191323D02*
X114365095Y-56286561D01*
X114365095Y-56286561D02*
X114269857Y-56381800D01*
X114269857Y-56381800D02*
X114127000Y-56429419D01*
X114127000Y-56429419D02*
X113888905Y-56429419D01*
X115317476Y-55762752D02*
X115317476Y-56429419D01*
X115079381Y-55381800D02*
X114841286Y-56096085D01*
X114841286Y-56096085D02*
X115460333Y-56096085D01*
X103261905Y-56429419D02*
X103261905Y-55429419D01*
X103261905Y-55429419D02*
X103500000Y-55429419D01*
X103500000Y-55429419D02*
X103642857Y-55477038D01*
X103642857Y-55477038D02*
X103738095Y-55572276D01*
X103738095Y-55572276D02*
X103785714Y-55667514D01*
X103785714Y-55667514D02*
X103833333Y-55857990D01*
X103833333Y-55857990D02*
X103833333Y-56000847D01*
X103833333Y-56000847D02*
X103785714Y-56191323D01*
X103785714Y-56191323D02*
X103738095Y-56286561D01*
X103738095Y-56286561D02*
X103642857Y-56381800D01*
X103642857Y-56381800D02*
X103500000Y-56429419D01*
X103500000Y-56429419D02*
X103261905Y-56429419D01*
X104738095Y-55429419D02*
X104261905Y-55429419D01*
X104261905Y-55429419D02*
X104214286Y-55905609D01*
X104214286Y-55905609D02*
X104261905Y-55857990D01*
X104261905Y-55857990D02*
X104357143Y-55810371D01*
X104357143Y-55810371D02*
X104595238Y-55810371D01*
X104595238Y-55810371D02*
X104690476Y-55857990D01*
X104690476Y-55857990D02*
X104738095Y-55905609D01*
X104738095Y-55905609D02*
X104785714Y-56000847D01*
X104785714Y-56000847D02*
X104785714Y-56238942D01*
X104785714Y-56238942D02*
X104738095Y-56334180D01*
X104738095Y-56334180D02*
X104690476Y-56381800D01*
X104690476Y-56381800D02*
X104595238Y-56429419D01*
X104595238Y-56429419D02*
X104357143Y-56429419D01*
X104357143Y-56429419D02*
X104261905Y-56381800D01*
X104261905Y-56381800D02*
X104214286Y-56334180D01*
X110261905Y-56429419D02*
X110261905Y-55429419D01*
X110261905Y-55429419D02*
X110500000Y-55429419D01*
X110500000Y-55429419D02*
X110642857Y-55477038D01*
X110642857Y-55477038D02*
X110738095Y-55572276D01*
X110738095Y-55572276D02*
X110785714Y-55667514D01*
X110785714Y-55667514D02*
X110833333Y-55857990D01*
X110833333Y-55857990D02*
X110833333Y-56000847D01*
X110833333Y-56000847D02*
X110785714Y-56191323D01*
X110785714Y-56191323D02*
X110738095Y-56286561D01*
X110738095Y-56286561D02*
X110642857Y-56381800D01*
X110642857Y-56381800D02*
X110500000Y-56429419D01*
X110500000Y-56429419D02*
X110261905Y-56429419D01*
X111690476Y-55429419D02*
X111500000Y-55429419D01*
X111500000Y-55429419D02*
X111404762Y-55477038D01*
X111404762Y-55477038D02*
X111357143Y-55524657D01*
X111357143Y-55524657D02*
X111261905Y-55667514D01*
X111261905Y-55667514D02*
X111214286Y-55857990D01*
X111214286Y-55857990D02*
X111214286Y-56238942D01*
X111214286Y-56238942D02*
X111261905Y-56334180D01*
X111261905Y-56334180D02*
X111309524Y-56381800D01*
X111309524Y-56381800D02*
X111404762Y-56429419D01*
X111404762Y-56429419D02*
X111595238Y-56429419D01*
X111595238Y-56429419D02*
X111690476Y-56381800D01*
X111690476Y-56381800D02*
X111738095Y-56334180D01*
X111738095Y-56334180D02*
X111785714Y-56238942D01*
X111785714Y-56238942D02*
X111785714Y-56000847D01*
X111785714Y-56000847D02*
X111738095Y-55905609D01*
X111738095Y-55905609D02*
X111690476Y-55857990D01*
X111690476Y-55857990D02*
X111595238Y-55810371D01*
X111595238Y-55810371D02*
X111404762Y-55810371D01*
X111404762Y-55810371D02*
X111309524Y-55857990D01*
X111309524Y-55857990D02*
X111261905Y-55905609D01*
X111261905Y-55905609D02*
X111214286Y-56000847D01*
X106888905Y-56429419D02*
X106888905Y-55429419D01*
X106888905Y-55429419D02*
X107127000Y-55429419D01*
X107127000Y-55429419D02*
X107269857Y-55477038D01*
X107269857Y-55477038D02*
X107365095Y-55572276D01*
X107365095Y-55572276D02*
X107412714Y-55667514D01*
X107412714Y-55667514D02*
X107460333Y-55857990D01*
X107460333Y-55857990D02*
X107460333Y-56000847D01*
X107460333Y-56000847D02*
X107412714Y-56191323D01*
X107412714Y-56191323D02*
X107365095Y-56286561D01*
X107365095Y-56286561D02*
X107269857Y-56381800D01*
X107269857Y-56381800D02*
X107127000Y-56429419D01*
X107127000Y-56429419D02*
X106888905Y-56429419D01*
X107793667Y-55429419D02*
X108460333Y-55429419D01*
X108460333Y-55429419D02*
X108031762Y-56429419D01*
X172704819Y-51333333D02*
X173419104Y-51333333D01*
X173419104Y-51333333D02*
X173561961Y-51380952D01*
X173561961Y-51380952D02*
X173657200Y-51476190D01*
X173657200Y-51476190D02*
X173704819Y-51619047D01*
X173704819Y-51619047D02*
X173704819Y-51714285D01*
X172800057Y-50904761D02*
X172752438Y-50857142D01*
X172752438Y-50857142D02*
X172704819Y-50761904D01*
X172704819Y-50761904D02*
X172704819Y-50523809D01*
X172704819Y-50523809D02*
X172752438Y-50428571D01*
X172752438Y-50428571D02*
X172800057Y-50380952D01*
X172800057Y-50380952D02*
X172895295Y-50333333D01*
X172895295Y-50333333D02*
X172990533Y-50333333D01*
X172990533Y-50333333D02*
X173133390Y-50380952D01*
X173133390Y-50380952D02*
X173704819Y-50952380D01*
X173704819Y-50952380D02*
X173704819Y-50333333D01*
X100832200Y-95833332D02*
X100879819Y-95690475D01*
X100879819Y-95690475D02*
X100879819Y-95452380D01*
X100879819Y-95452380D02*
X100832200Y-95357142D01*
X100832200Y-95357142D02*
X100784580Y-95309523D01*
X100784580Y-95309523D02*
X100689342Y-95261904D01*
X100689342Y-95261904D02*
X100594104Y-95261904D01*
X100594104Y-95261904D02*
X100498866Y-95309523D01*
X100498866Y-95309523D02*
X100451247Y-95357142D01*
X100451247Y-95357142D02*
X100403628Y-95452380D01*
X100403628Y-95452380D02*
X100356009Y-95642856D01*
X100356009Y-95642856D02*
X100308390Y-95738094D01*
X100308390Y-95738094D02*
X100260771Y-95785713D01*
X100260771Y-95785713D02*
X100165533Y-95833332D01*
X100165533Y-95833332D02*
X100070295Y-95833332D01*
X100070295Y-95833332D02*
X99975057Y-95785713D01*
X99975057Y-95785713D02*
X99927438Y-95738094D01*
X99927438Y-95738094D02*
X99879819Y-95642856D01*
X99879819Y-95642856D02*
X99879819Y-95404761D01*
X99879819Y-95404761D02*
X99927438Y-95261904D01*
X99879819Y-94928570D02*
X100879819Y-94690475D01*
X100879819Y-94690475D02*
X100165533Y-94499999D01*
X100165533Y-94499999D02*
X100879819Y-94309523D01*
X100879819Y-94309523D02*
X99879819Y-94071428D01*
X100879819Y-93166666D02*
X100879819Y-93738094D01*
X100879819Y-93452380D02*
X99879819Y-93452380D01*
X99879819Y-93452380D02*
X100022676Y-93547618D01*
X100022676Y-93547618D02*
X100117914Y-93642856D01*
X100117914Y-93642856D02*
X100165533Y-93738094D01*
X100832200Y-56833332D02*
X100879819Y-56690475D01*
X100879819Y-56690475D02*
X100879819Y-56452380D01*
X100879819Y-56452380D02*
X100832200Y-56357142D01*
X100832200Y-56357142D02*
X100784580Y-56309523D01*
X100784580Y-56309523D02*
X100689342Y-56261904D01*
X100689342Y-56261904D02*
X100594104Y-56261904D01*
X100594104Y-56261904D02*
X100498866Y-56309523D01*
X100498866Y-56309523D02*
X100451247Y-56357142D01*
X100451247Y-56357142D02*
X100403628Y-56452380D01*
X100403628Y-56452380D02*
X100356009Y-56642856D01*
X100356009Y-56642856D02*
X100308390Y-56738094D01*
X100308390Y-56738094D02*
X100260771Y-56785713D01*
X100260771Y-56785713D02*
X100165533Y-56833332D01*
X100165533Y-56833332D02*
X100070295Y-56833332D01*
X100070295Y-56833332D02*
X99975057Y-56785713D01*
X99975057Y-56785713D02*
X99927438Y-56738094D01*
X99927438Y-56738094D02*
X99879819Y-56642856D01*
X99879819Y-56642856D02*
X99879819Y-56404761D01*
X99879819Y-56404761D02*
X99927438Y-56261904D01*
X99879819Y-55928570D02*
X100879819Y-55690475D01*
X100879819Y-55690475D02*
X100165533Y-55499999D01*
X100165533Y-55499999D02*
X100879819Y-55309523D01*
X100879819Y-55309523D02*
X99879819Y-55071428D01*
X99975057Y-54738094D02*
X99927438Y-54690475D01*
X99927438Y-54690475D02*
X99879819Y-54595237D01*
X99879819Y-54595237D02*
X99879819Y-54357142D01*
X99879819Y-54357142D02*
X99927438Y-54261904D01*
X99927438Y-54261904D02*
X99975057Y-54214285D01*
X99975057Y-54214285D02*
X100070295Y-54166666D01*
X100070295Y-54166666D02*
X100165533Y-54166666D01*
X100165533Y-54166666D02*
X100308390Y-54214285D01*
X100308390Y-54214285D02*
X100879819Y-54785713D01*
X100879819Y-54785713D02*
X100879819Y-54166666D01*
X167488095Y-53454819D02*
X167488095Y-54264342D01*
X167488095Y-54264342D02*
X167535714Y-54359580D01*
X167535714Y-54359580D02*
X167583333Y-54407200D01*
X167583333Y-54407200D02*
X167678571Y-54454819D01*
X167678571Y-54454819D02*
X167869047Y-54454819D01*
X167869047Y-54454819D02*
X167964285Y-54407200D01*
X167964285Y-54407200D02*
X168011904Y-54359580D01*
X168011904Y-54359580D02*
X168059523Y-54264342D01*
X168059523Y-54264342D02*
X168059523Y-53454819D01*
X168440476Y-53454819D02*
X169059523Y-53454819D01*
X169059523Y-53454819D02*
X168726190Y-53835771D01*
X168726190Y-53835771D02*
X168869047Y-53835771D01*
X168869047Y-53835771D02*
X168964285Y-53883390D01*
X168964285Y-53883390D02*
X169011904Y-53931009D01*
X169011904Y-53931009D02*
X169059523Y-54026247D01*
X169059523Y-54026247D02*
X169059523Y-54264342D01*
X169059523Y-54264342D02*
X169011904Y-54359580D01*
X169011904Y-54359580D02*
X168964285Y-54407200D01*
X168964285Y-54407200D02*
X168869047Y-54454819D01*
X168869047Y-54454819D02*
X168583333Y-54454819D01*
X168583333Y-54454819D02*
X168488095Y-54407200D01*
X168488095Y-54407200D02*
X168440476Y-54359580D01*
X150238095Y-53204819D02*
X150238095Y-54014342D01*
X150238095Y-54014342D02*
X150285714Y-54109580D01*
X150285714Y-54109580D02*
X150333333Y-54157200D01*
X150333333Y-54157200D02*
X150428571Y-54204819D01*
X150428571Y-54204819D02*
X150619047Y-54204819D01*
X150619047Y-54204819D02*
X150714285Y-54157200D01*
X150714285Y-54157200D02*
X150761904Y-54109580D01*
X150761904Y-54109580D02*
X150809523Y-54014342D01*
X150809523Y-54014342D02*
X150809523Y-53204819D01*
X151714285Y-53538152D02*
X151714285Y-54204819D01*
X151476190Y-53157200D02*
X151238095Y-53871485D01*
X151238095Y-53871485D02*
X151857142Y-53871485D01*
X117015419Y-82227657D02*
X116539228Y-82560990D01*
X117015419Y-82799085D02*
X116015419Y-82799085D01*
X116015419Y-82799085D02*
X116015419Y-82418133D01*
X116015419Y-82418133D02*
X116063038Y-82322895D01*
X116063038Y-82322895D02*
X116110657Y-82275276D01*
X116110657Y-82275276D02*
X116205895Y-82227657D01*
X116205895Y-82227657D02*
X116348752Y-82227657D01*
X116348752Y-82227657D02*
X116443990Y-82275276D01*
X116443990Y-82275276D02*
X116491609Y-82322895D01*
X116491609Y-82322895D02*
X116539228Y-82418133D01*
X116539228Y-82418133D02*
X116539228Y-82799085D01*
X117015419Y-81275276D02*
X117015419Y-81846704D01*
X117015419Y-81560990D02*
X116015419Y-81560990D01*
X116015419Y-81560990D02*
X116158276Y-81656228D01*
X116158276Y-81656228D02*
X116253514Y-81751466D01*
X116253514Y-81751466D02*
X116301133Y-81846704D01*
X116110657Y-80894323D02*
X116063038Y-80846704D01*
X116063038Y-80846704D02*
X116015419Y-80751466D01*
X116015419Y-80751466D02*
X116015419Y-80513371D01*
X116015419Y-80513371D02*
X116063038Y-80418133D01*
X116063038Y-80418133D02*
X116110657Y-80370514D01*
X116110657Y-80370514D02*
X116205895Y-80322895D01*
X116205895Y-80322895D02*
X116301133Y-80322895D01*
X116301133Y-80322895D02*
X116443990Y-80370514D01*
X116443990Y-80370514D02*
X117015419Y-80941942D01*
X117015419Y-80941942D02*
X117015419Y-80322895D01*
X116863019Y-78544657D02*
X116386828Y-78877990D01*
X116863019Y-79116085D02*
X115863019Y-79116085D01*
X115863019Y-79116085D02*
X115863019Y-78735133D01*
X115863019Y-78735133D02*
X115910638Y-78639895D01*
X115910638Y-78639895D02*
X115958257Y-78592276D01*
X115958257Y-78592276D02*
X116053495Y-78544657D01*
X116053495Y-78544657D02*
X116196352Y-78544657D01*
X116196352Y-78544657D02*
X116291590Y-78592276D01*
X116291590Y-78592276D02*
X116339209Y-78639895D01*
X116339209Y-78639895D02*
X116386828Y-78735133D01*
X116386828Y-78735133D02*
X116386828Y-79116085D01*
X116863019Y-77592276D02*
X116863019Y-78163704D01*
X116863019Y-77877990D02*
X115863019Y-77877990D01*
X115863019Y-77877990D02*
X116005876Y-77973228D01*
X116005876Y-77973228D02*
X116101114Y-78068466D01*
X116101114Y-78068466D02*
X116148733Y-78163704D01*
X115863019Y-77258942D02*
X115863019Y-76639895D01*
X115863019Y-76639895D02*
X116243971Y-76973228D01*
X116243971Y-76973228D02*
X116243971Y-76830371D01*
X116243971Y-76830371D02*
X116291590Y-76735133D01*
X116291590Y-76735133D02*
X116339209Y-76687514D01*
X116339209Y-76687514D02*
X116434447Y-76639895D01*
X116434447Y-76639895D02*
X116672542Y-76639895D01*
X116672542Y-76639895D02*
X116767780Y-76687514D01*
X116767780Y-76687514D02*
X116815400Y-76735133D01*
X116815400Y-76735133D02*
X116863019Y-76830371D01*
X116863019Y-76830371D02*
X116863019Y-77116085D01*
X116863019Y-77116085D02*
X116815400Y-77211323D01*
X116815400Y-77211323D02*
X116767780Y-77258942D01*
X167916666Y-50931009D02*
X167583333Y-50931009D01*
X167583333Y-51454819D02*
X167583333Y-50454819D01*
X167583333Y-50454819D02*
X168059523Y-50454819D01*
X168964285Y-51454819D02*
X168392857Y-51454819D01*
X168678571Y-51454819D02*
X168678571Y-50454819D01*
X168678571Y-50454819D02*
X168583333Y-50597676D01*
X168583333Y-50597676D02*
X168488095Y-50692914D01*
X168488095Y-50692914D02*
X168392857Y-50740533D01*
X103333333Y-84859580D02*
X103285714Y-84907200D01*
X103285714Y-84907200D02*
X103142857Y-84954819D01*
X103142857Y-84954819D02*
X103047619Y-84954819D01*
X103047619Y-84954819D02*
X102904762Y-84907200D01*
X102904762Y-84907200D02*
X102809524Y-84811961D01*
X102809524Y-84811961D02*
X102761905Y-84716723D01*
X102761905Y-84716723D02*
X102714286Y-84526247D01*
X102714286Y-84526247D02*
X102714286Y-84383390D01*
X102714286Y-84383390D02*
X102761905Y-84192914D01*
X102761905Y-84192914D02*
X102809524Y-84097676D01*
X102809524Y-84097676D02*
X102904762Y-84002438D01*
X102904762Y-84002438D02*
X103047619Y-83954819D01*
X103047619Y-83954819D02*
X103142857Y-83954819D01*
X103142857Y-83954819D02*
X103285714Y-84002438D01*
X103285714Y-84002438D02*
X103333333Y-84050057D01*
X104190476Y-84288152D02*
X104190476Y-84954819D01*
X103952381Y-83907200D02*
X103714286Y-84621485D01*
X103714286Y-84621485D02*
X104333333Y-84621485D01*
X121666666Y-97754819D02*
X121666666Y-98469104D01*
X121666666Y-98469104D02*
X121619047Y-98611961D01*
X121619047Y-98611961D02*
X121523809Y-98707200D01*
X121523809Y-98707200D02*
X121380952Y-98754819D01*
X121380952Y-98754819D02*
X121285714Y-98754819D01*
X122619047Y-97754819D02*
X122142857Y-97754819D01*
X122142857Y-97754819D02*
X122095238Y-98231009D01*
X122095238Y-98231009D02*
X122142857Y-98183390D01*
X122142857Y-98183390D02*
X122238095Y-98135771D01*
X122238095Y-98135771D02*
X122476190Y-98135771D01*
X122476190Y-98135771D02*
X122571428Y-98183390D01*
X122571428Y-98183390D02*
X122619047Y-98231009D01*
X122619047Y-98231009D02*
X122666666Y-98326247D01*
X122666666Y-98326247D02*
X122666666Y-98564342D01*
X122666666Y-98564342D02*
X122619047Y-98659580D01*
X122619047Y-98659580D02*
X122571428Y-98707200D01*
X122571428Y-98707200D02*
X122476190Y-98754819D01*
X122476190Y-98754819D02*
X122238095Y-98754819D01*
X122238095Y-98754819D02*
X122142857Y-98707200D01*
X122142857Y-98707200D02*
X122095238Y-98659580D01*
X107376933Y-93749019D02*
X107043600Y-93272828D01*
X106805505Y-93749019D02*
X106805505Y-92749019D01*
X106805505Y-92749019D02*
X107186457Y-92749019D01*
X107186457Y-92749019D02*
X107281695Y-92796638D01*
X107281695Y-92796638D02*
X107329314Y-92844257D01*
X107329314Y-92844257D02*
X107376933Y-92939495D01*
X107376933Y-92939495D02*
X107376933Y-93082352D01*
X107376933Y-93082352D02*
X107329314Y-93177590D01*
X107329314Y-93177590D02*
X107281695Y-93225209D01*
X107281695Y-93225209D02*
X107186457Y-93272828D01*
X107186457Y-93272828D02*
X106805505Y-93272828D01*
X108329314Y-93749019D02*
X107757886Y-93749019D01*
X108043600Y-93749019D02*
X108043600Y-92749019D01*
X108043600Y-92749019D02*
X107948362Y-92891876D01*
X107948362Y-92891876D02*
X107853124Y-92987114D01*
X107853124Y-92987114D02*
X107757886Y-93034733D01*
X149404761Y-51954819D02*
X149071428Y-51478628D01*
X148833333Y-51954819D02*
X148833333Y-50954819D01*
X148833333Y-50954819D02*
X149214285Y-50954819D01*
X149214285Y-50954819D02*
X149309523Y-51002438D01*
X149309523Y-51002438D02*
X149357142Y-51050057D01*
X149357142Y-51050057D02*
X149404761Y-51145295D01*
X149404761Y-51145295D02*
X149404761Y-51288152D01*
X149404761Y-51288152D02*
X149357142Y-51383390D01*
X149357142Y-51383390D02*
X149309523Y-51431009D01*
X149309523Y-51431009D02*
X149214285Y-51478628D01*
X149214285Y-51478628D02*
X148833333Y-51478628D01*
X149690476Y-50954819D02*
X150023809Y-51954819D01*
X150023809Y-51954819D02*
X150357142Y-50954819D01*
X151214285Y-51954819D02*
X150642857Y-51954819D01*
X150928571Y-51954819D02*
X150928571Y-50954819D01*
X150928571Y-50954819D02*
X150833333Y-51097676D01*
X150833333Y-51097676D02*
X150738095Y-51192914D01*
X150738095Y-51192914D02*
X150642857Y-51240533D01*
X109523809Y-84978628D02*
X109523809Y-85454819D01*
X109190476Y-84454819D02*
X109523809Y-84978628D01*
X109523809Y-84978628D02*
X109857142Y-84454819D01*
X110714285Y-85454819D02*
X110142857Y-85454819D01*
X110428571Y-85454819D02*
X110428571Y-84454819D01*
X110428571Y-84454819D02*
X110333333Y-84597676D01*
X110333333Y-84597676D02*
X110238095Y-84692914D01*
X110238095Y-84692914D02*
X110142857Y-84740533D01*
X121766666Y-95954819D02*
X121766666Y-96669104D01*
X121766666Y-96669104D02*
X121719047Y-96811961D01*
X121719047Y-96811961D02*
X121623809Y-96907200D01*
X121623809Y-96907200D02*
X121480952Y-96954819D01*
X121480952Y-96954819D02*
X121385714Y-96954819D01*
X122147619Y-95954819D02*
X122814285Y-95954819D01*
X122814285Y-95954819D02*
X122385714Y-96954819D01*
X135699142Y-87808819D02*
X135365809Y-87332628D01*
X135127714Y-87808819D02*
X135127714Y-86808819D01*
X135127714Y-86808819D02*
X135508666Y-86808819D01*
X135508666Y-86808819D02*
X135603904Y-86856438D01*
X135603904Y-86856438D02*
X135651523Y-86904057D01*
X135651523Y-86904057D02*
X135699142Y-86999295D01*
X135699142Y-86999295D02*
X135699142Y-87142152D01*
X135699142Y-87142152D02*
X135651523Y-87237390D01*
X135651523Y-87237390D02*
X135603904Y-87285009D01*
X135603904Y-87285009D02*
X135508666Y-87332628D01*
X135508666Y-87332628D02*
X135127714Y-87332628D01*
X136651523Y-87808819D02*
X136080095Y-87808819D01*
X136365809Y-87808819D02*
X136365809Y-86808819D01*
X136365809Y-86808819D02*
X136270571Y-86951676D01*
X136270571Y-86951676D02*
X136175333Y-87046914D01*
X136175333Y-87046914D02*
X136080095Y-87094533D01*
X137556285Y-86808819D02*
X137080095Y-86808819D01*
X137080095Y-86808819D02*
X137032476Y-87285009D01*
X137032476Y-87285009D02*
X137080095Y-87237390D01*
X137080095Y-87237390D02*
X137175333Y-87189771D01*
X137175333Y-87189771D02*
X137413428Y-87189771D01*
X137413428Y-87189771D02*
X137508666Y-87237390D01*
X137508666Y-87237390D02*
X137556285Y-87285009D01*
X137556285Y-87285009D02*
X137603904Y-87380247D01*
X137603904Y-87380247D02*
X137603904Y-87618342D01*
X137603904Y-87618342D02*
X137556285Y-87713580D01*
X137556285Y-87713580D02*
X137508666Y-87761200D01*
X137508666Y-87761200D02*
X137413428Y-87808819D01*
X137413428Y-87808819D02*
X137175333Y-87808819D01*
X137175333Y-87808819D02*
X137080095Y-87761200D01*
X137080095Y-87761200D02*
X137032476Y-87713580D01*
X103871733Y-93653780D02*
X103824114Y-93701400D01*
X103824114Y-93701400D02*
X103681257Y-93749019D01*
X103681257Y-93749019D02*
X103586019Y-93749019D01*
X103586019Y-93749019D02*
X103443162Y-93701400D01*
X103443162Y-93701400D02*
X103347924Y-93606161D01*
X103347924Y-93606161D02*
X103300305Y-93510923D01*
X103300305Y-93510923D02*
X103252686Y-93320447D01*
X103252686Y-93320447D02*
X103252686Y-93177590D01*
X103252686Y-93177590D02*
X103300305Y-92987114D01*
X103300305Y-92987114D02*
X103347924Y-92891876D01*
X103347924Y-92891876D02*
X103443162Y-92796638D01*
X103443162Y-92796638D02*
X103586019Y-92749019D01*
X103586019Y-92749019D02*
X103681257Y-92749019D01*
X103681257Y-92749019D02*
X103824114Y-92796638D01*
X103824114Y-92796638D02*
X103871733Y-92844257D01*
X104824114Y-93749019D02*
X104252686Y-93749019D01*
X104538400Y-93749019D02*
X104538400Y-92749019D01*
X104538400Y-92749019D02*
X104443162Y-92891876D01*
X104443162Y-92891876D02*
X104347924Y-92987114D01*
X104347924Y-92987114D02*
X104252686Y-93034733D01*
X131333333Y-86454819D02*
X131000000Y-85978628D01*
X130761905Y-86454819D02*
X130761905Y-85454819D01*
X130761905Y-85454819D02*
X131142857Y-85454819D01*
X131142857Y-85454819D02*
X131238095Y-85502438D01*
X131238095Y-85502438D02*
X131285714Y-85550057D01*
X131285714Y-85550057D02*
X131333333Y-85645295D01*
X131333333Y-85645295D02*
X131333333Y-85788152D01*
X131333333Y-85788152D02*
X131285714Y-85883390D01*
X131285714Y-85883390D02*
X131238095Y-85931009D01*
X131238095Y-85931009D02*
X131142857Y-85978628D01*
X131142857Y-85978628D02*
X130761905Y-85978628D01*
X132238095Y-85454819D02*
X131761905Y-85454819D01*
X131761905Y-85454819D02*
X131714286Y-85931009D01*
X131714286Y-85931009D02*
X131761905Y-85883390D01*
X131761905Y-85883390D02*
X131857143Y-85835771D01*
X131857143Y-85835771D02*
X132095238Y-85835771D01*
X132095238Y-85835771D02*
X132190476Y-85883390D01*
X132190476Y-85883390D02*
X132238095Y-85931009D01*
X132238095Y-85931009D02*
X132285714Y-86026247D01*
X132285714Y-86026247D02*
X132285714Y-86264342D01*
X132285714Y-86264342D02*
X132238095Y-86359580D01*
X132238095Y-86359580D02*
X132190476Y-86407200D01*
X132190476Y-86407200D02*
X132095238Y-86454819D01*
X132095238Y-86454819D02*
X131857143Y-86454819D01*
X131857143Y-86454819D02*
X131761905Y-86407200D01*
X131761905Y-86407200D02*
X131714286Y-86359580D01*
X149042261Y-88350057D02*
X148947023Y-88302438D01*
X148947023Y-88302438D02*
X148851785Y-88207200D01*
X148851785Y-88207200D02*
X148708928Y-88064342D01*
X148708928Y-88064342D02*
X148613690Y-88016723D01*
X148613690Y-88016723D02*
X148518452Y-88016723D01*
X148566071Y-88254819D02*
X148470833Y-88207200D01*
X148470833Y-88207200D02*
X148375595Y-88111961D01*
X148375595Y-88111961D02*
X148327976Y-87921485D01*
X148327976Y-87921485D02*
X148327976Y-87588152D01*
X148327976Y-87588152D02*
X148375595Y-87397676D01*
X148375595Y-87397676D02*
X148470833Y-87302438D01*
X148470833Y-87302438D02*
X148566071Y-87254819D01*
X148566071Y-87254819D02*
X148756547Y-87254819D01*
X148756547Y-87254819D02*
X148851785Y-87302438D01*
X148851785Y-87302438D02*
X148947023Y-87397676D01*
X148947023Y-87397676D02*
X148994642Y-87588152D01*
X148994642Y-87588152D02*
X148994642Y-87921485D01*
X148994642Y-87921485D02*
X148947023Y-88111961D01*
X148947023Y-88111961D02*
X148851785Y-88207200D01*
X148851785Y-88207200D02*
X148756547Y-88254819D01*
X148756547Y-88254819D02*
X148566071Y-88254819D01*
X149375595Y-87350057D02*
X149423214Y-87302438D01*
X149423214Y-87302438D02*
X149518452Y-87254819D01*
X149518452Y-87254819D02*
X149756547Y-87254819D01*
X149756547Y-87254819D02*
X149851785Y-87302438D01*
X149851785Y-87302438D02*
X149899404Y-87350057D01*
X149899404Y-87350057D02*
X149947023Y-87445295D01*
X149947023Y-87445295D02*
X149947023Y-87540533D01*
X149947023Y-87540533D02*
X149899404Y-87683390D01*
X149899404Y-87683390D02*
X149327976Y-88254819D01*
X149327976Y-88254819D02*
X149947023Y-88254819D01*
X104133333Y-91359580D02*
X104085714Y-91407200D01*
X104085714Y-91407200D02*
X103942857Y-91454819D01*
X103942857Y-91454819D02*
X103847619Y-91454819D01*
X103847619Y-91454819D02*
X103704762Y-91407200D01*
X103704762Y-91407200D02*
X103609524Y-91311961D01*
X103609524Y-91311961D02*
X103561905Y-91216723D01*
X103561905Y-91216723D02*
X103514286Y-91026247D01*
X103514286Y-91026247D02*
X103514286Y-90883390D01*
X103514286Y-90883390D02*
X103561905Y-90692914D01*
X103561905Y-90692914D02*
X103609524Y-90597676D01*
X103609524Y-90597676D02*
X103704762Y-90502438D01*
X103704762Y-90502438D02*
X103847619Y-90454819D01*
X103847619Y-90454819D02*
X103942857Y-90454819D01*
X103942857Y-90454819D02*
X104085714Y-90502438D01*
X104085714Y-90502438D02*
X104133333Y-90550057D01*
X104514286Y-90550057D02*
X104561905Y-90502438D01*
X104561905Y-90502438D02*
X104657143Y-90454819D01*
X104657143Y-90454819D02*
X104895238Y-90454819D01*
X104895238Y-90454819D02*
X104990476Y-90502438D01*
X104990476Y-90502438D02*
X105038095Y-90550057D01*
X105038095Y-90550057D02*
X105085714Y-90645295D01*
X105085714Y-90645295D02*
X105085714Y-90740533D01*
X105085714Y-90740533D02*
X105038095Y-90883390D01*
X105038095Y-90883390D02*
X104466667Y-91454819D01*
X104466667Y-91454819D02*
X105085714Y-91454819D01*
X150050057Y-96395238D02*
X150002438Y-96490476D01*
X150002438Y-96490476D02*
X149907200Y-96585714D01*
X149907200Y-96585714D02*
X149764342Y-96728571D01*
X149764342Y-96728571D02*
X149716723Y-96823809D01*
X149716723Y-96823809D02*
X149716723Y-96919047D01*
X149954819Y-96871428D02*
X149907200Y-96966666D01*
X149907200Y-96966666D02*
X149811961Y-97061904D01*
X149811961Y-97061904D02*
X149621485Y-97109523D01*
X149621485Y-97109523D02*
X149288152Y-97109523D01*
X149288152Y-97109523D02*
X149097676Y-97061904D01*
X149097676Y-97061904D02*
X149002438Y-96966666D01*
X149002438Y-96966666D02*
X148954819Y-96871428D01*
X148954819Y-96871428D02*
X148954819Y-96680952D01*
X148954819Y-96680952D02*
X149002438Y-96585714D01*
X149002438Y-96585714D02*
X149097676Y-96490476D01*
X149097676Y-96490476D02*
X149288152Y-96442857D01*
X149288152Y-96442857D02*
X149621485Y-96442857D01*
X149621485Y-96442857D02*
X149811961Y-96490476D01*
X149811961Y-96490476D02*
X149907200Y-96585714D01*
X149907200Y-96585714D02*
X149954819Y-96680952D01*
X149954819Y-96680952D02*
X149954819Y-96871428D01*
X149954819Y-95490476D02*
X149954819Y-96061904D01*
X149954819Y-95776190D02*
X148954819Y-95776190D01*
X148954819Y-95776190D02*
X149097676Y-95871428D01*
X149097676Y-95871428D02*
X149192914Y-95966666D01*
X149192914Y-95966666D02*
X149240533Y-96061904D01*
X148761905Y-55704819D02*
X148761905Y-54704819D01*
X149333333Y-55704819D02*
X148904762Y-55133390D01*
X149333333Y-54704819D02*
X148761905Y-55276247D01*
X149714286Y-54800057D02*
X149761905Y-54752438D01*
X149761905Y-54752438D02*
X149857143Y-54704819D01*
X149857143Y-54704819D02*
X150095238Y-54704819D01*
X150095238Y-54704819D02*
X150190476Y-54752438D01*
X150190476Y-54752438D02*
X150238095Y-54800057D01*
X150238095Y-54800057D02*
X150285714Y-54895295D01*
X150285714Y-54895295D02*
X150285714Y-54990533D01*
X150285714Y-54990533D02*
X150238095Y-55133390D01*
X150238095Y-55133390D02*
X149666667Y-55704819D01*
X149666667Y-55704819D02*
X150285714Y-55704819D01*
X124157142Y-53354819D02*
X123823809Y-52878628D01*
X123585714Y-53354819D02*
X123585714Y-52354819D01*
X123585714Y-52354819D02*
X123966666Y-52354819D01*
X123966666Y-52354819D02*
X124061904Y-52402438D01*
X124061904Y-52402438D02*
X124109523Y-52450057D01*
X124109523Y-52450057D02*
X124157142Y-52545295D01*
X124157142Y-52545295D02*
X124157142Y-52688152D01*
X124157142Y-52688152D02*
X124109523Y-52783390D01*
X124109523Y-52783390D02*
X124061904Y-52831009D01*
X124061904Y-52831009D02*
X123966666Y-52878628D01*
X123966666Y-52878628D02*
X123585714Y-52878628D01*
X125109523Y-53354819D02*
X124538095Y-53354819D01*
X124823809Y-53354819D02*
X124823809Y-52354819D01*
X124823809Y-52354819D02*
X124728571Y-52497676D01*
X124728571Y-52497676D02*
X124633333Y-52592914D01*
X124633333Y-52592914D02*
X124538095Y-52640533D01*
X125680952Y-52783390D02*
X125585714Y-52735771D01*
X125585714Y-52735771D02*
X125538095Y-52688152D01*
X125538095Y-52688152D02*
X125490476Y-52592914D01*
X125490476Y-52592914D02*
X125490476Y-52545295D01*
X125490476Y-52545295D02*
X125538095Y-52450057D01*
X125538095Y-52450057D02*
X125585714Y-52402438D01*
X125585714Y-52402438D02*
X125680952Y-52354819D01*
X125680952Y-52354819D02*
X125871428Y-52354819D01*
X125871428Y-52354819D02*
X125966666Y-52402438D01*
X125966666Y-52402438D02*
X126014285Y-52450057D01*
X126014285Y-52450057D02*
X126061904Y-52545295D01*
X126061904Y-52545295D02*
X126061904Y-52592914D01*
X126061904Y-52592914D02*
X126014285Y-52688152D01*
X126014285Y-52688152D02*
X125966666Y-52735771D01*
X125966666Y-52735771D02*
X125871428Y-52783390D01*
X125871428Y-52783390D02*
X125680952Y-52783390D01*
X125680952Y-52783390D02*
X125585714Y-52831009D01*
X125585714Y-52831009D02*
X125538095Y-52878628D01*
X125538095Y-52878628D02*
X125490476Y-52973866D01*
X125490476Y-52973866D02*
X125490476Y-53164342D01*
X125490476Y-53164342D02*
X125538095Y-53259580D01*
X125538095Y-53259580D02*
X125585714Y-53307200D01*
X125585714Y-53307200D02*
X125680952Y-53354819D01*
X125680952Y-53354819D02*
X125871428Y-53354819D01*
X125871428Y-53354819D02*
X125966666Y-53307200D01*
X125966666Y-53307200D02*
X126014285Y-53259580D01*
X126014285Y-53259580D02*
X126061904Y-53164342D01*
X126061904Y-53164342D02*
X126061904Y-52973866D01*
X126061904Y-52973866D02*
X126014285Y-52878628D01*
X126014285Y-52878628D02*
X125966666Y-52831009D01*
X125966666Y-52831009D02*
X125871428Y-52783390D01*
X148261905Y-90054819D02*
X148261905Y-89054819D01*
X148261905Y-89054819D02*
X148500000Y-89054819D01*
X148500000Y-89054819D02*
X148642857Y-89102438D01*
X148642857Y-89102438D02*
X148738095Y-89197676D01*
X148738095Y-89197676D02*
X148785714Y-89292914D01*
X148785714Y-89292914D02*
X148833333Y-89483390D01*
X148833333Y-89483390D02*
X148833333Y-89626247D01*
X148833333Y-89626247D02*
X148785714Y-89816723D01*
X148785714Y-89816723D02*
X148738095Y-89911961D01*
X148738095Y-89911961D02*
X148642857Y-90007200D01*
X148642857Y-90007200D02*
X148500000Y-90054819D01*
X148500000Y-90054819D02*
X148261905Y-90054819D01*
X149214286Y-89150057D02*
X149261905Y-89102438D01*
X149261905Y-89102438D02*
X149357143Y-89054819D01*
X149357143Y-89054819D02*
X149595238Y-89054819D01*
X149595238Y-89054819D02*
X149690476Y-89102438D01*
X149690476Y-89102438D02*
X149738095Y-89150057D01*
X149738095Y-89150057D02*
X149785714Y-89245295D01*
X149785714Y-89245295D02*
X149785714Y-89340533D01*
X149785714Y-89340533D02*
X149738095Y-89483390D01*
X149738095Y-89483390D02*
X149166667Y-90054819D01*
X149166667Y-90054819D02*
X149785714Y-90054819D01*
X171204819Y-51333333D02*
X171919104Y-51333333D01*
X171919104Y-51333333D02*
X172061961Y-51380952D01*
X172061961Y-51380952D02*
X172157200Y-51476190D01*
X172157200Y-51476190D02*
X172204819Y-51619047D01*
X172204819Y-51619047D02*
X172204819Y-51714285D01*
X171204819Y-50428571D02*
X171204819Y-50619047D01*
X171204819Y-50619047D02*
X171252438Y-50714285D01*
X171252438Y-50714285D02*
X171300057Y-50761904D01*
X171300057Y-50761904D02*
X171442914Y-50857142D01*
X171442914Y-50857142D02*
X171633390Y-50904761D01*
X171633390Y-50904761D02*
X172014342Y-50904761D01*
X172014342Y-50904761D02*
X172109580Y-50857142D01*
X172109580Y-50857142D02*
X172157200Y-50809523D01*
X172157200Y-50809523D02*
X172204819Y-50714285D01*
X172204819Y-50714285D02*
X172204819Y-50523809D01*
X172204819Y-50523809D02*
X172157200Y-50428571D01*
X172157200Y-50428571D02*
X172109580Y-50380952D01*
X172109580Y-50380952D02*
X172014342Y-50333333D01*
X172014342Y-50333333D02*
X171776247Y-50333333D01*
X171776247Y-50333333D02*
X171681009Y-50380952D01*
X171681009Y-50380952D02*
X171633390Y-50428571D01*
X171633390Y-50428571D02*
X171585771Y-50523809D01*
X171585771Y-50523809D02*
X171585771Y-50714285D01*
X171585771Y-50714285D02*
X171633390Y-50809523D01*
X171633390Y-50809523D02*
X171681009Y-50857142D01*
X171681009Y-50857142D02*
X171776247Y-50904761D01*
X123854819Y-89038094D02*
X122854819Y-89038094D01*
X122854819Y-89038094D02*
X122854819Y-88799999D01*
X122854819Y-88799999D02*
X122902438Y-88657142D01*
X122902438Y-88657142D02*
X122997676Y-88561904D01*
X122997676Y-88561904D02*
X123092914Y-88514285D01*
X123092914Y-88514285D02*
X123283390Y-88466666D01*
X123283390Y-88466666D02*
X123426247Y-88466666D01*
X123426247Y-88466666D02*
X123616723Y-88514285D01*
X123616723Y-88514285D02*
X123711961Y-88561904D01*
X123711961Y-88561904D02*
X123807200Y-88657142D01*
X123807200Y-88657142D02*
X123854819Y-88799999D01*
X123854819Y-88799999D02*
X123854819Y-89038094D01*
X123283390Y-87895237D02*
X123235771Y-87990475D01*
X123235771Y-87990475D02*
X123188152Y-88038094D01*
X123188152Y-88038094D02*
X123092914Y-88085713D01*
X123092914Y-88085713D02*
X123045295Y-88085713D01*
X123045295Y-88085713D02*
X122950057Y-88038094D01*
X122950057Y-88038094D02*
X122902438Y-87990475D01*
X122902438Y-87990475D02*
X122854819Y-87895237D01*
X122854819Y-87895237D02*
X122854819Y-87704761D01*
X122854819Y-87704761D02*
X122902438Y-87609523D01*
X122902438Y-87609523D02*
X122950057Y-87561904D01*
X122950057Y-87561904D02*
X123045295Y-87514285D01*
X123045295Y-87514285D02*
X123092914Y-87514285D01*
X123092914Y-87514285D02*
X123188152Y-87561904D01*
X123188152Y-87561904D02*
X123235771Y-87609523D01*
X123235771Y-87609523D02*
X123283390Y-87704761D01*
X123283390Y-87704761D02*
X123283390Y-87895237D01*
X123283390Y-87895237D02*
X123331009Y-87990475D01*
X123331009Y-87990475D02*
X123378628Y-88038094D01*
X123378628Y-88038094D02*
X123473866Y-88085713D01*
X123473866Y-88085713D02*
X123664342Y-88085713D01*
X123664342Y-88085713D02*
X123759580Y-88038094D01*
X123759580Y-88038094D02*
X123807200Y-87990475D01*
X123807200Y-87990475D02*
X123854819Y-87895237D01*
X123854819Y-87895237D02*
X123854819Y-87704761D01*
X123854819Y-87704761D02*
X123807200Y-87609523D01*
X123807200Y-87609523D02*
X123759580Y-87561904D01*
X123759580Y-87561904D02*
X123664342Y-87514285D01*
X123664342Y-87514285D02*
X123473866Y-87514285D01*
X123473866Y-87514285D02*
X123378628Y-87561904D01*
X123378628Y-87561904D02*
X123331009Y-87609523D01*
X123331009Y-87609523D02*
X123283390Y-87704761D01*
X138971742Y-87808819D02*
X138638409Y-87332628D01*
X138400314Y-87808819D02*
X138400314Y-86808819D01*
X138400314Y-86808819D02*
X138781266Y-86808819D01*
X138781266Y-86808819D02*
X138876504Y-86856438D01*
X138876504Y-86856438D02*
X138924123Y-86904057D01*
X138924123Y-86904057D02*
X138971742Y-86999295D01*
X138971742Y-86999295D02*
X138971742Y-87142152D01*
X138971742Y-87142152D02*
X138924123Y-87237390D01*
X138924123Y-87237390D02*
X138876504Y-87285009D01*
X138876504Y-87285009D02*
X138781266Y-87332628D01*
X138781266Y-87332628D02*
X138400314Y-87332628D01*
X139924123Y-87808819D02*
X139352695Y-87808819D01*
X139638409Y-87808819D02*
X139638409Y-86808819D01*
X139638409Y-86808819D02*
X139543171Y-86951676D01*
X139543171Y-86951676D02*
X139447933Y-87046914D01*
X139447933Y-87046914D02*
X139352695Y-87094533D01*
X140781266Y-86808819D02*
X140590790Y-86808819D01*
X140590790Y-86808819D02*
X140495552Y-86856438D01*
X140495552Y-86856438D02*
X140447933Y-86904057D01*
X140447933Y-86904057D02*
X140352695Y-87046914D01*
X140352695Y-87046914D02*
X140305076Y-87237390D01*
X140305076Y-87237390D02*
X140305076Y-87618342D01*
X140305076Y-87618342D02*
X140352695Y-87713580D01*
X140352695Y-87713580D02*
X140400314Y-87761200D01*
X140400314Y-87761200D02*
X140495552Y-87808819D01*
X140495552Y-87808819D02*
X140686028Y-87808819D01*
X140686028Y-87808819D02*
X140781266Y-87761200D01*
X140781266Y-87761200D02*
X140828885Y-87713580D01*
X140828885Y-87713580D02*
X140876504Y-87618342D01*
X140876504Y-87618342D02*
X140876504Y-87380247D01*
X140876504Y-87380247D02*
X140828885Y-87285009D01*
X140828885Y-87285009D02*
X140781266Y-87237390D01*
X140781266Y-87237390D02*
X140686028Y-87189771D01*
X140686028Y-87189771D02*
X140495552Y-87189771D01*
X140495552Y-87189771D02*
X140400314Y-87237390D01*
X140400314Y-87237390D02*
X140352695Y-87285009D01*
X140352695Y-87285009D02*
X140305076Y-87380247D01*
X102282819Y-62666666D02*
X101806628Y-62999999D01*
X102282819Y-63238094D02*
X101282819Y-63238094D01*
X101282819Y-63238094D02*
X101282819Y-62857142D01*
X101282819Y-62857142D02*
X101330438Y-62761904D01*
X101330438Y-62761904D02*
X101378057Y-62714285D01*
X101378057Y-62714285D02*
X101473295Y-62666666D01*
X101473295Y-62666666D02*
X101616152Y-62666666D01*
X101616152Y-62666666D02*
X101711390Y-62714285D01*
X101711390Y-62714285D02*
X101759009Y-62761904D01*
X101759009Y-62761904D02*
X101806628Y-62857142D01*
X101806628Y-62857142D02*
X101806628Y-63238094D01*
X101282819Y-62333332D02*
X101282819Y-61714285D01*
X101282819Y-61714285D02*
X101663771Y-62047618D01*
X101663771Y-62047618D02*
X101663771Y-61904761D01*
X101663771Y-61904761D02*
X101711390Y-61809523D01*
X101711390Y-61809523D02*
X101759009Y-61761904D01*
X101759009Y-61761904D02*
X101854247Y-61714285D01*
X101854247Y-61714285D02*
X102092342Y-61714285D01*
X102092342Y-61714285D02*
X102187580Y-61761904D01*
X102187580Y-61761904D02*
X102235200Y-61809523D01*
X102235200Y-61809523D02*
X102282819Y-61904761D01*
X102282819Y-61904761D02*
X102282819Y-62190475D01*
X102282819Y-62190475D02*
X102235200Y-62285713D01*
X102235200Y-62285713D02*
X102187580Y-62333332D01*
X123759580Y-85166666D02*
X123807200Y-85214285D01*
X123807200Y-85214285D02*
X123854819Y-85357142D01*
X123854819Y-85357142D02*
X123854819Y-85452380D01*
X123854819Y-85452380D02*
X123807200Y-85595237D01*
X123807200Y-85595237D02*
X123711961Y-85690475D01*
X123711961Y-85690475D02*
X123616723Y-85738094D01*
X123616723Y-85738094D02*
X123426247Y-85785713D01*
X123426247Y-85785713D02*
X123283390Y-85785713D01*
X123283390Y-85785713D02*
X123092914Y-85738094D01*
X123092914Y-85738094D02*
X122997676Y-85690475D01*
X122997676Y-85690475D02*
X122902438Y-85595237D01*
X122902438Y-85595237D02*
X122854819Y-85452380D01*
X122854819Y-85452380D02*
X122854819Y-85357142D01*
X122854819Y-85357142D02*
X122902438Y-85214285D01*
X122902438Y-85214285D02*
X122950057Y-85166666D01*
X122854819Y-84309523D02*
X122854819Y-84499999D01*
X122854819Y-84499999D02*
X122902438Y-84595237D01*
X122902438Y-84595237D02*
X122950057Y-84642856D01*
X122950057Y-84642856D02*
X123092914Y-84738094D01*
X123092914Y-84738094D02*
X123283390Y-84785713D01*
X123283390Y-84785713D02*
X123664342Y-84785713D01*
X123664342Y-84785713D02*
X123759580Y-84738094D01*
X123759580Y-84738094D02*
X123807200Y-84690475D01*
X123807200Y-84690475D02*
X123854819Y-84595237D01*
X123854819Y-84595237D02*
X123854819Y-84404761D01*
X123854819Y-84404761D02*
X123807200Y-84309523D01*
X123807200Y-84309523D02*
X123759580Y-84261904D01*
X123759580Y-84261904D02*
X123664342Y-84214285D01*
X123664342Y-84214285D02*
X123426247Y-84214285D01*
X123426247Y-84214285D02*
X123331009Y-84261904D01*
X123331009Y-84261904D02*
X123283390Y-84309523D01*
X123283390Y-84309523D02*
X123235771Y-84404761D01*
X123235771Y-84404761D02*
X123235771Y-84595237D01*
X123235771Y-84595237D02*
X123283390Y-84690475D01*
X123283390Y-84690475D02*
X123331009Y-84738094D01*
X123331009Y-84738094D02*
X123426247Y-84785713D01*
X120546019Y-70483085D02*
X119546019Y-70483085D01*
X119546019Y-70483085D02*
X119546019Y-70244990D01*
X119546019Y-70244990D02*
X119593638Y-70102133D01*
X119593638Y-70102133D02*
X119688876Y-70006895D01*
X119688876Y-70006895D02*
X119784114Y-69959276D01*
X119784114Y-69959276D02*
X119974590Y-69911657D01*
X119974590Y-69911657D02*
X120117447Y-69911657D01*
X120117447Y-69911657D02*
X120307923Y-69959276D01*
X120307923Y-69959276D02*
X120403161Y-70006895D01*
X120403161Y-70006895D02*
X120498400Y-70102133D01*
X120498400Y-70102133D02*
X120546019Y-70244990D01*
X120546019Y-70244990D02*
X120546019Y-70483085D01*
X120546019Y-68959276D02*
X120546019Y-69530704D01*
X120546019Y-69244990D02*
X119546019Y-69244990D01*
X119546019Y-69244990D02*
X119688876Y-69340228D01*
X119688876Y-69340228D02*
X119784114Y-69435466D01*
X119784114Y-69435466D02*
X119831733Y-69530704D01*
X119879352Y-68102133D02*
X120546019Y-68102133D01*
X119498400Y-68340228D02*
X120212685Y-68578323D01*
X120212685Y-68578323D02*
X120212685Y-67959276D01*
X117345619Y-70356085D02*
X116345619Y-70356085D01*
X116345619Y-70356085D02*
X116345619Y-70117990D01*
X116345619Y-70117990D02*
X116393238Y-69975133D01*
X116393238Y-69975133D02*
X116488476Y-69879895D01*
X116488476Y-69879895D02*
X116583714Y-69832276D01*
X116583714Y-69832276D02*
X116774190Y-69784657D01*
X116774190Y-69784657D02*
X116917047Y-69784657D01*
X116917047Y-69784657D02*
X117107523Y-69832276D01*
X117107523Y-69832276D02*
X117202761Y-69879895D01*
X117202761Y-69879895D02*
X117298000Y-69975133D01*
X117298000Y-69975133D02*
X117345619Y-70117990D01*
X117345619Y-70117990D02*
X117345619Y-70356085D01*
X117345619Y-68832276D02*
X117345619Y-69403704D01*
X117345619Y-69117990D02*
X116345619Y-69117990D01*
X116345619Y-69117990D02*
X116488476Y-69213228D01*
X116488476Y-69213228D02*
X116583714Y-69308466D01*
X116583714Y-69308466D02*
X116631333Y-69403704D01*
X116345619Y-68498942D02*
X116345619Y-67879895D01*
X116345619Y-67879895D02*
X116726571Y-68213228D01*
X116726571Y-68213228D02*
X116726571Y-68070371D01*
X116726571Y-68070371D02*
X116774190Y-67975133D01*
X116774190Y-67975133D02*
X116821809Y-67927514D01*
X116821809Y-67927514D02*
X116917047Y-67879895D01*
X116917047Y-67879895D02*
X117155142Y-67879895D01*
X117155142Y-67879895D02*
X117250380Y-67927514D01*
X117250380Y-67927514D02*
X117298000Y-67975133D01*
X117298000Y-67975133D02*
X117345619Y-68070371D01*
X117345619Y-68070371D02*
X117345619Y-68356085D01*
X117345619Y-68356085D02*
X117298000Y-68451323D01*
X117298000Y-68451323D02*
X117250380Y-68498942D01*
X145933333Y-90054819D02*
X145600000Y-89578628D01*
X145361905Y-90054819D02*
X145361905Y-89054819D01*
X145361905Y-89054819D02*
X145742857Y-89054819D01*
X145742857Y-89054819D02*
X145838095Y-89102438D01*
X145838095Y-89102438D02*
X145885714Y-89150057D01*
X145885714Y-89150057D02*
X145933333Y-89245295D01*
X145933333Y-89245295D02*
X145933333Y-89388152D01*
X145933333Y-89388152D02*
X145885714Y-89483390D01*
X145885714Y-89483390D02*
X145838095Y-89531009D01*
X145838095Y-89531009D02*
X145742857Y-89578628D01*
X145742857Y-89578628D02*
X145361905Y-89578628D01*
X146790476Y-89388152D02*
X146790476Y-90054819D01*
X146552381Y-89007200D02*
X146314286Y-89721485D01*
X146314286Y-89721485D02*
X146933333Y-89721485D01*
X108621533Y-92148819D02*
X108288200Y-91672628D01*
X108050105Y-92148819D02*
X108050105Y-91148819D01*
X108050105Y-91148819D02*
X108431057Y-91148819D01*
X108431057Y-91148819D02*
X108526295Y-91196438D01*
X108526295Y-91196438D02*
X108573914Y-91244057D01*
X108573914Y-91244057D02*
X108621533Y-91339295D01*
X108621533Y-91339295D02*
X108621533Y-91482152D01*
X108621533Y-91482152D02*
X108573914Y-91577390D01*
X108573914Y-91577390D02*
X108526295Y-91625009D01*
X108526295Y-91625009D02*
X108431057Y-91672628D01*
X108431057Y-91672628D02*
X108050105Y-91672628D01*
X109002486Y-91244057D02*
X109050105Y-91196438D01*
X109050105Y-91196438D02*
X109145343Y-91148819D01*
X109145343Y-91148819D02*
X109383438Y-91148819D01*
X109383438Y-91148819D02*
X109478676Y-91196438D01*
X109478676Y-91196438D02*
X109526295Y-91244057D01*
X109526295Y-91244057D02*
X109573914Y-91339295D01*
X109573914Y-91339295D02*
X109573914Y-91434533D01*
X109573914Y-91434533D02*
X109526295Y-91577390D01*
X109526295Y-91577390D02*
X108954867Y-92148819D01*
X108954867Y-92148819D02*
X109573914Y-92148819D01*
X130957142Y-85054819D02*
X130623809Y-84578628D01*
X130385714Y-85054819D02*
X130385714Y-84054819D01*
X130385714Y-84054819D02*
X130766666Y-84054819D01*
X130766666Y-84054819D02*
X130861904Y-84102438D01*
X130861904Y-84102438D02*
X130909523Y-84150057D01*
X130909523Y-84150057D02*
X130957142Y-84245295D01*
X130957142Y-84245295D02*
X130957142Y-84388152D01*
X130957142Y-84388152D02*
X130909523Y-84483390D01*
X130909523Y-84483390D02*
X130861904Y-84531009D01*
X130861904Y-84531009D02*
X130766666Y-84578628D01*
X130766666Y-84578628D02*
X130385714Y-84578628D01*
X131909523Y-85054819D02*
X131338095Y-85054819D01*
X131623809Y-85054819D02*
X131623809Y-84054819D01*
X131623809Y-84054819D02*
X131528571Y-84197676D01*
X131528571Y-84197676D02*
X131433333Y-84292914D01*
X131433333Y-84292914D02*
X131338095Y-84340533D01*
X132766666Y-84388152D02*
X132766666Y-85054819D01*
X132528571Y-84007200D02*
X132290476Y-84721485D01*
X132290476Y-84721485D02*
X132909523Y-84721485D01*
X113133333Y-91359580D02*
X113085714Y-91407200D01*
X113085714Y-91407200D02*
X112942857Y-91454819D01*
X112942857Y-91454819D02*
X112847619Y-91454819D01*
X112847619Y-91454819D02*
X112704762Y-91407200D01*
X112704762Y-91407200D02*
X112609524Y-91311961D01*
X112609524Y-91311961D02*
X112561905Y-91216723D01*
X112561905Y-91216723D02*
X112514286Y-91026247D01*
X112514286Y-91026247D02*
X112514286Y-90883390D01*
X112514286Y-90883390D02*
X112561905Y-90692914D01*
X112561905Y-90692914D02*
X112609524Y-90597676D01*
X112609524Y-90597676D02*
X112704762Y-90502438D01*
X112704762Y-90502438D02*
X112847619Y-90454819D01*
X112847619Y-90454819D02*
X112942857Y-90454819D01*
X112942857Y-90454819D02*
X113085714Y-90502438D01*
X113085714Y-90502438D02*
X113133333Y-90550057D01*
X113466667Y-90454819D02*
X114085714Y-90454819D01*
X114085714Y-90454819D02*
X113752381Y-90835771D01*
X113752381Y-90835771D02*
X113895238Y-90835771D01*
X113895238Y-90835771D02*
X113990476Y-90883390D01*
X113990476Y-90883390D02*
X114038095Y-90931009D01*
X114038095Y-90931009D02*
X114085714Y-91026247D01*
X114085714Y-91026247D02*
X114085714Y-91264342D01*
X114085714Y-91264342D02*
X114038095Y-91359580D01*
X114038095Y-91359580D02*
X113990476Y-91407200D01*
X113990476Y-91407200D02*
X113895238Y-91454819D01*
X113895238Y-91454819D02*
X113609524Y-91454819D01*
X113609524Y-91454819D02*
X113514286Y-91407200D01*
X113514286Y-91407200D02*
X113466667Y-91359580D01*
X136254819Y-85266666D02*
X135778628Y-85599999D01*
X136254819Y-85838094D02*
X135254819Y-85838094D01*
X135254819Y-85838094D02*
X135254819Y-85457142D01*
X135254819Y-85457142D02*
X135302438Y-85361904D01*
X135302438Y-85361904D02*
X135350057Y-85314285D01*
X135350057Y-85314285D02*
X135445295Y-85266666D01*
X135445295Y-85266666D02*
X135588152Y-85266666D01*
X135588152Y-85266666D02*
X135683390Y-85314285D01*
X135683390Y-85314285D02*
X135731009Y-85361904D01*
X135731009Y-85361904D02*
X135778628Y-85457142D01*
X135778628Y-85457142D02*
X135778628Y-85838094D01*
X135254819Y-84409523D02*
X135254819Y-84599999D01*
X135254819Y-84599999D02*
X135302438Y-84695237D01*
X135302438Y-84695237D02*
X135350057Y-84742856D01*
X135350057Y-84742856D02*
X135492914Y-84838094D01*
X135492914Y-84838094D02*
X135683390Y-84885713D01*
X135683390Y-84885713D02*
X136064342Y-84885713D01*
X136064342Y-84885713D02*
X136159580Y-84838094D01*
X136159580Y-84838094D02*
X136207200Y-84790475D01*
X136207200Y-84790475D02*
X136254819Y-84695237D01*
X136254819Y-84695237D02*
X136254819Y-84504761D01*
X136254819Y-84504761D02*
X136207200Y-84409523D01*
X136207200Y-84409523D02*
X136159580Y-84361904D01*
X136159580Y-84361904D02*
X136064342Y-84314285D01*
X136064342Y-84314285D02*
X135826247Y-84314285D01*
X135826247Y-84314285D02*
X135731009Y-84361904D01*
X135731009Y-84361904D02*
X135683390Y-84409523D01*
X135683390Y-84409523D02*
X135635771Y-84504761D01*
X135635771Y-84504761D02*
X135635771Y-84695237D01*
X135635771Y-84695237D02*
X135683390Y-84790475D01*
X135683390Y-84790475D02*
X135731009Y-84838094D01*
X135731009Y-84838094D02*
X135826247Y-84885713D01*
X113738095Y-93054819D02*
X113738095Y-93864342D01*
X113738095Y-93864342D02*
X113785714Y-93959580D01*
X113785714Y-93959580D02*
X113833333Y-94007200D01*
X113833333Y-94007200D02*
X113928571Y-94054819D01*
X113928571Y-94054819D02*
X114119047Y-94054819D01*
X114119047Y-94054819D02*
X114214285Y-94007200D01*
X114214285Y-94007200D02*
X114261904Y-93959580D01*
X114261904Y-93959580D02*
X114309523Y-93864342D01*
X114309523Y-93864342D02*
X114309523Y-93054819D01*
X114738095Y-93150057D02*
X114785714Y-93102438D01*
X114785714Y-93102438D02*
X114880952Y-93054819D01*
X114880952Y-93054819D02*
X115119047Y-93054819D01*
X115119047Y-93054819D02*
X115214285Y-93102438D01*
X115214285Y-93102438D02*
X115261904Y-93150057D01*
X115261904Y-93150057D02*
X115309523Y-93245295D01*
X115309523Y-93245295D02*
X115309523Y-93340533D01*
X115309523Y-93340533D02*
X115261904Y-93483390D01*
X115261904Y-93483390D02*
X114690476Y-94054819D01*
X114690476Y-94054819D02*
X115309523Y-94054819D01*
D11*
X122274318Y-67542143D02*
X121004318Y-67542143D01*
X121004318Y-67542143D02*
X121004318Y-67058333D01*
X121004318Y-67058333D02*
X121064794Y-66937381D01*
X121064794Y-66937381D02*
X121125270Y-66876904D01*
X121125270Y-66876904D02*
X121246222Y-66816428D01*
X121246222Y-66816428D02*
X121427651Y-66816428D01*
X121427651Y-66816428D02*
X121548603Y-66876904D01*
X121548603Y-66876904D02*
X121609080Y-66937381D01*
X121609080Y-66937381D02*
X121669556Y-67058333D01*
X121669556Y-67058333D02*
X121669556Y-67542143D01*
X122213842Y-66332619D02*
X122274318Y-66151190D01*
X122274318Y-66151190D02*
X122274318Y-65848809D01*
X122274318Y-65848809D02*
X122213842Y-65727857D01*
X122213842Y-65727857D02*
X122153365Y-65667381D01*
X122153365Y-65667381D02*
X122032413Y-65606904D01*
X122032413Y-65606904D02*
X121911461Y-65606904D01*
X121911461Y-65606904D02*
X121790508Y-65667381D01*
X121790508Y-65667381D02*
X121730032Y-65727857D01*
X121730032Y-65727857D02*
X121669556Y-65848809D01*
X121669556Y-65848809D02*
X121609080Y-66090714D01*
X121609080Y-66090714D02*
X121548603Y-66211666D01*
X121548603Y-66211666D02*
X121488127Y-66272143D01*
X121488127Y-66272143D02*
X121367175Y-66332619D01*
X121367175Y-66332619D02*
X121246222Y-66332619D01*
X121246222Y-66332619D02*
X121125270Y-66272143D01*
X121125270Y-66272143D02*
X121064794Y-66211666D01*
X121064794Y-66211666D02*
X121004318Y-66090714D01*
X121004318Y-66090714D02*
X121004318Y-65788333D01*
X121004318Y-65788333D02*
X121064794Y-65606904D01*
X122274318Y-64397380D02*
X122274318Y-65123095D01*
X122274318Y-64760238D02*
X121004318Y-64760238D01*
X121004318Y-64760238D02*
X121185746Y-64881190D01*
X121185746Y-64881190D02*
X121306699Y-65002142D01*
X121306699Y-65002142D02*
X121367175Y-65123095D01*
D10*
X146154819Y-88514285D02*
X145154819Y-88514285D01*
X145154819Y-88514285D02*
X145154819Y-88276190D01*
X145154819Y-88276190D02*
X145202438Y-88133333D01*
X145202438Y-88133333D02*
X145297676Y-88038095D01*
X145297676Y-88038095D02*
X145392914Y-87990476D01*
X145392914Y-87990476D02*
X145583390Y-87942857D01*
X145583390Y-87942857D02*
X145726247Y-87942857D01*
X145726247Y-87942857D02*
X145916723Y-87990476D01*
X145916723Y-87990476D02*
X146011961Y-88038095D01*
X146011961Y-88038095D02*
X146107200Y-88133333D01*
X146107200Y-88133333D02*
X146154819Y-88276190D01*
X146154819Y-88276190D02*
X146154819Y-88514285D01*
X146154819Y-86990476D02*
X146154819Y-87561904D01*
X146154819Y-87276190D02*
X145154819Y-87276190D01*
X145154819Y-87276190D02*
X145297676Y-87371428D01*
X145297676Y-87371428D02*
X145392914Y-87466666D01*
X145392914Y-87466666D02*
X145440533Y-87561904D01*
X146154819Y-86038095D02*
X146154819Y-86609523D01*
X146154819Y-86323809D02*
X145154819Y-86323809D01*
X145154819Y-86323809D02*
X145297676Y-86419047D01*
X145297676Y-86419047D02*
X145392914Y-86514285D01*
X145392914Y-86514285D02*
X145440533Y-86609523D01*
X97293133Y-90224780D02*
X97245514Y-90272400D01*
X97245514Y-90272400D02*
X97102657Y-90320019D01*
X97102657Y-90320019D02*
X97007419Y-90320019D01*
X97007419Y-90320019D02*
X96864562Y-90272400D01*
X96864562Y-90272400D02*
X96769324Y-90177161D01*
X96769324Y-90177161D02*
X96721705Y-90081923D01*
X96721705Y-90081923D02*
X96674086Y-89891447D01*
X96674086Y-89891447D02*
X96674086Y-89748590D01*
X96674086Y-89748590D02*
X96721705Y-89558114D01*
X96721705Y-89558114D02*
X96769324Y-89462876D01*
X96769324Y-89462876D02*
X96864562Y-89367638D01*
X96864562Y-89367638D02*
X97007419Y-89320019D01*
X97007419Y-89320019D02*
X97102657Y-89320019D01*
X97102657Y-89320019D02*
X97245514Y-89367638D01*
X97245514Y-89367638D02*
X97293133Y-89415257D01*
X98197895Y-89320019D02*
X97721705Y-89320019D01*
X97721705Y-89320019D02*
X97674086Y-89796209D01*
X97674086Y-89796209D02*
X97721705Y-89748590D01*
X97721705Y-89748590D02*
X97816943Y-89700971D01*
X97816943Y-89700971D02*
X98055038Y-89700971D01*
X98055038Y-89700971D02*
X98150276Y-89748590D01*
X98150276Y-89748590D02*
X98197895Y-89796209D01*
X98197895Y-89796209D02*
X98245514Y-89891447D01*
X98245514Y-89891447D02*
X98245514Y-90129542D01*
X98245514Y-90129542D02*
X98197895Y-90224780D01*
X98197895Y-90224780D02*
X98150276Y-90272400D01*
X98150276Y-90272400D02*
X98055038Y-90320019D01*
X98055038Y-90320019D02*
X97816943Y-90320019D01*
X97816943Y-90320019D02*
X97721705Y-90272400D01*
X97721705Y-90272400D02*
X97674086Y-90224780D01*
X172704819Y-53583333D02*
X173419104Y-53583333D01*
X173419104Y-53583333D02*
X173561961Y-53630952D01*
X173561961Y-53630952D02*
X173657200Y-53726190D01*
X173657200Y-53726190D02*
X173704819Y-53869047D01*
X173704819Y-53869047D02*
X173704819Y-53964285D01*
X172704819Y-53202380D02*
X172704819Y-52583333D01*
X172704819Y-52583333D02*
X173085771Y-52916666D01*
X173085771Y-52916666D02*
X173085771Y-52773809D01*
X173085771Y-52773809D02*
X173133390Y-52678571D01*
X173133390Y-52678571D02*
X173181009Y-52630952D01*
X173181009Y-52630952D02*
X173276247Y-52583333D01*
X173276247Y-52583333D02*
X173514342Y-52583333D01*
X173514342Y-52583333D02*
X173609580Y-52630952D01*
X173609580Y-52630952D02*
X173657200Y-52678571D01*
X173657200Y-52678571D02*
X173704819Y-52773809D01*
X173704819Y-52773809D02*
X173704819Y-53059523D01*
X173704819Y-53059523D02*
X173657200Y-53154761D01*
X173657200Y-53154761D02*
X173609580Y-53202380D01*
X142293542Y-87830819D02*
X141960209Y-87354628D01*
X141722114Y-87830819D02*
X141722114Y-86830819D01*
X141722114Y-86830819D02*
X142103066Y-86830819D01*
X142103066Y-86830819D02*
X142198304Y-86878438D01*
X142198304Y-86878438D02*
X142245923Y-86926057D01*
X142245923Y-86926057D02*
X142293542Y-87021295D01*
X142293542Y-87021295D02*
X142293542Y-87164152D01*
X142293542Y-87164152D02*
X142245923Y-87259390D01*
X142245923Y-87259390D02*
X142198304Y-87307009D01*
X142198304Y-87307009D02*
X142103066Y-87354628D01*
X142103066Y-87354628D02*
X141722114Y-87354628D01*
X143245923Y-87830819D02*
X142674495Y-87830819D01*
X142960209Y-87830819D02*
X142960209Y-86830819D01*
X142960209Y-86830819D02*
X142864971Y-86973676D01*
X142864971Y-86973676D02*
X142769733Y-87068914D01*
X142769733Y-87068914D02*
X142674495Y-87116533D01*
X143579257Y-86830819D02*
X144245923Y-86830819D01*
X144245923Y-86830819D02*
X143817352Y-87830819D01*
X150154819Y-99338094D02*
X149154819Y-99338094D01*
X150154819Y-98766666D02*
X149583390Y-99195237D01*
X149154819Y-98766666D02*
X149726247Y-99338094D01*
X150154819Y-97814285D02*
X150154819Y-98385713D01*
X150154819Y-98099999D02*
X149154819Y-98099999D01*
X149154819Y-98099999D02*
X149297676Y-98195237D01*
X149297676Y-98195237D02*
X149392914Y-98290475D01*
X149392914Y-98290475D02*
X149440533Y-98385713D01*
X114987714Y-85036819D02*
X114987714Y-84036819D01*
X114987714Y-84036819D02*
X115225809Y-84036819D01*
X115225809Y-84036819D02*
X115368666Y-84084438D01*
X115368666Y-84084438D02*
X115463904Y-84179676D01*
X115463904Y-84179676D02*
X115511523Y-84274914D01*
X115511523Y-84274914D02*
X115559142Y-84465390D01*
X115559142Y-84465390D02*
X115559142Y-84608247D01*
X115559142Y-84608247D02*
X115511523Y-84798723D01*
X115511523Y-84798723D02*
X115463904Y-84893961D01*
X115463904Y-84893961D02*
X115368666Y-84989200D01*
X115368666Y-84989200D02*
X115225809Y-85036819D01*
X115225809Y-85036819D02*
X114987714Y-85036819D01*
X116511523Y-85036819D02*
X115940095Y-85036819D01*
X116225809Y-85036819D02*
X116225809Y-84036819D01*
X116225809Y-84036819D02*
X116130571Y-84179676D01*
X116130571Y-84179676D02*
X116035333Y-84274914D01*
X116035333Y-84274914D02*
X115940095Y-84322533D01*
X116892476Y-84132057D02*
X116940095Y-84084438D01*
X116940095Y-84084438D02*
X117035333Y-84036819D01*
X117035333Y-84036819D02*
X117273428Y-84036819D01*
X117273428Y-84036819D02*
X117368666Y-84084438D01*
X117368666Y-84084438D02*
X117416285Y-84132057D01*
X117416285Y-84132057D02*
X117463904Y-84227295D01*
X117463904Y-84227295D02*
X117463904Y-84322533D01*
X117463904Y-84322533D02*
X117416285Y-84465390D01*
X117416285Y-84465390D02*
X116844857Y-85036819D01*
X116844857Y-85036819D02*
X117463904Y-85036819D01*
X123854819Y-92338094D02*
X122854819Y-92338094D01*
X122854819Y-92338094D02*
X122854819Y-92099999D01*
X122854819Y-92099999D02*
X122902438Y-91957142D01*
X122902438Y-91957142D02*
X122997676Y-91861904D01*
X122997676Y-91861904D02*
X123092914Y-91814285D01*
X123092914Y-91814285D02*
X123283390Y-91766666D01*
X123283390Y-91766666D02*
X123426247Y-91766666D01*
X123426247Y-91766666D02*
X123616723Y-91814285D01*
X123616723Y-91814285D02*
X123711961Y-91861904D01*
X123711961Y-91861904D02*
X123807200Y-91957142D01*
X123807200Y-91957142D02*
X123854819Y-92099999D01*
X123854819Y-92099999D02*
X123854819Y-92338094D01*
X123854819Y-90814285D02*
X123854819Y-91385713D01*
X123854819Y-91099999D02*
X122854819Y-91099999D01*
X122854819Y-91099999D02*
X122997676Y-91195237D01*
X122997676Y-91195237D02*
X123092914Y-91290475D01*
X123092914Y-91290475D02*
X123140533Y-91385713D01*
D12*
X88803000Y-82996000D02*
X95553000Y-82996000D01*
X88803000Y-82996000D02*
X88803000Y-64996000D01*
X113553000Y-82996000D02*
X114303000Y-82996000D01*
X114303000Y-82996000D02*
X114303000Y-82246000D01*
X114303000Y-82246000D02*
X114303000Y-80496000D01*
X114303000Y-65746000D02*
X114303000Y-67496000D01*
X88803000Y-64996000D02*
X95553000Y-64996000D01*
X94743000Y-64996000D02*
X94743000Y-82996000D01*
X113553000Y-64996000D02*
X114303000Y-64996000D01*
X114303000Y-64996000D02*
X114303000Y-65746000D01*
X173720000Y-57030000D02*
X173720000Y-62470000D01*
X173590000Y-57030000D02*
X173720000Y-57030000D01*
X170910000Y-57030000D02*
X170780000Y-57030000D01*
X170780000Y-57030000D02*
X170780000Y-62470000D01*
X173720000Y-57810000D02*
X170780000Y-57810000D01*
X173720000Y-57930000D02*
X170780000Y-57930000D01*
X173720000Y-58050000D02*
X170780000Y-58050000D01*
X173720000Y-62470000D02*
X173590000Y-62470000D01*
X170780000Y-62470000D02*
X170910000Y-62470000D01*
X159030000Y-62530000D02*
X159030000Y-57090000D01*
X159160000Y-62530000D02*
X159030000Y-62530000D01*
X161840000Y-62530000D02*
X161970000Y-62530000D01*
X161970000Y-62530000D02*
X161970000Y-57090000D01*
X159030000Y-61750000D02*
X161970000Y-61750000D01*
X159030000Y-61630000D02*
X161970000Y-61630000D01*
X159030000Y-61510000D02*
X161970000Y-61510000D01*
X159030000Y-57090000D02*
X159160000Y-57090000D01*
X161970000Y-57090000D02*
X161840000Y-57090000D01*
X121090600Y-58941463D02*
X121090600Y-60388937D01*
X118380600Y-58941463D02*
X118380600Y-60388937D01*
X115855000Y-58940263D02*
X115855000Y-60387737D01*
X113145000Y-58940263D02*
X113145000Y-60387737D01*
X105355000Y-58940263D02*
X105355000Y-60387737D01*
X102645000Y-58940263D02*
X102645000Y-60387737D01*
X112355000Y-58940263D02*
X112355000Y-60387737D01*
X109645000Y-58940263D02*
X109645000Y-60387737D01*
X108855000Y-58940263D02*
X108855000Y-60387737D01*
X106145000Y-58940263D02*
X106145000Y-60387737D01*
X121371400Y-50081500D02*
X118201400Y-50081500D01*
X118201400Y-50081500D02*
X118201400Y-54141500D01*
X121371400Y-54141500D02*
X121371400Y-50081500D01*
X116085000Y-50081500D02*
X112915000Y-50081500D01*
X112915000Y-50081500D02*
X112915000Y-54141500D01*
X116085000Y-54141500D02*
X116085000Y-50081500D01*
X105585000Y-50081500D02*
X102415000Y-50081500D01*
X102415000Y-50081500D02*
X102415000Y-54141500D01*
X105585000Y-54141500D02*
X105585000Y-50081500D01*
X112585000Y-50081500D02*
X109415000Y-50081500D01*
X109415000Y-50081500D02*
X109415000Y-54141500D01*
X112585000Y-54141500D02*
X112585000Y-50081500D01*
X109085000Y-50081500D02*
X105915000Y-50081500D01*
X105915000Y-50081500D02*
X105915000Y-54141500D01*
X109085000Y-54141500D02*
X109085000Y-50081500D01*
X183965000Y-66425000D02*
X184705000Y-66425000D01*
X184705000Y-66425000D02*
X184705000Y-65925000D01*
X174544000Y-66185000D02*
X184465000Y-66185000D01*
X174544000Y-66185000D02*
X174544000Y-50825000D01*
X177504000Y-66185000D02*
X177504000Y-50825000D01*
X182405000Y-66185000D02*
X182405000Y-50825000D01*
X183905000Y-66185000D02*
X183905000Y-50825000D01*
X184465000Y-66185000D02*
X184465000Y-50825000D01*
X180828000Y-59732000D02*
X180874000Y-59779000D01*
X181044000Y-59539000D02*
X181079000Y-59574000D01*
X178530000Y-57435000D02*
X178566000Y-57470000D01*
X178736000Y-57230000D02*
X178782000Y-57277000D01*
X180828000Y-54652000D02*
X180874000Y-54699000D01*
X181044000Y-54459000D02*
X181079000Y-54494000D01*
X178530000Y-52355000D02*
X178566000Y-52390000D01*
X178736000Y-52150000D02*
X178782000Y-52197000D01*
X174544000Y-50825000D02*
X184465000Y-50825000D01*
X179121001Y-65119999D02*
G75*
G03*
X180488042Y-65120426I684000J1534992D01*
G01*
X178270001Y-62901001D02*
G75*
G03*
X178269574Y-64268042I1534992J-684000D01*
G01*
X181339999Y-64269000D02*
G75*
G03*
X181485252Y-63556195I-1535000J683999D01*
G01*
X181484999Y-63585000D02*
G75*
G03*
X181339755Y-62901682I-1679999J0D01*
G01*
X180489000Y-62050000D02*
G75*
G03*
X179121958Y-62049574I-684000J-1535000D01*
G01*
X181485000Y-58505000D02*
G75*
G03*
X181485000Y-58505000I-1680000J0D01*
G01*
X181485000Y-53425000D02*
G75*
G03*
X181485000Y-53425000I-1680000J0D01*
G01*
X95255000Y-98370000D02*
X99105000Y-98370000D01*
X101745000Y-98370000D02*
X102045000Y-98370000D01*
X102045000Y-97480000D02*
X102045000Y-98370000D01*
X102045000Y-97480000D02*
X101695000Y-97480000D01*
X99495000Y-96990000D02*
X99495000Y-92010000D01*
X102045000Y-91520000D02*
X101695000Y-91520000D01*
X95255000Y-90630000D02*
X95255000Y-98370000D01*
X99105000Y-90630000D02*
X95255000Y-90630000D01*
X101745000Y-90630000D02*
X102045000Y-90630000D01*
X102045000Y-90630000D02*
X102045000Y-91520000D01*
X95255000Y-59370000D02*
X99105000Y-59370000D01*
X101745000Y-59370000D02*
X102045000Y-59370000D01*
X102045000Y-58480000D02*
X102045000Y-59370000D01*
X102045000Y-58480000D02*
X101695000Y-58480000D01*
X99495000Y-57990000D02*
X99495000Y-53010000D01*
X102045000Y-52520000D02*
X101695000Y-52520000D01*
X95255000Y-51630000D02*
X95255000Y-59370000D01*
X99105000Y-51630000D02*
X95255000Y-51630000D01*
X101745000Y-51630000D02*
X102045000Y-51630000D01*
X102045000Y-51630000D02*
X102045000Y-52520000D01*
X162395000Y-62640000D02*
X170135000Y-62640000D01*
X170135000Y-62640000D02*
X170135000Y-57340000D01*
X162395000Y-60990000D02*
X162395000Y-62640000D01*
X162395000Y-57340000D02*
X162395000Y-58990000D01*
X170135000Y-57340000D02*
X162395000Y-57340000D01*
X162395000Y-60990000D02*
G75*
G03*
X162395000Y-58990000I0J1000000D01*
G01*
X150895000Y-62640000D02*
X158635000Y-62640000D01*
X158635000Y-62640000D02*
X158635000Y-57340000D01*
X150895000Y-60990000D02*
X150895000Y-62640000D01*
X150895000Y-57340000D02*
X150895000Y-58990000D01*
X158635000Y-57340000D02*
X150895000Y-57340000D01*
X150895000Y-60990000D02*
G75*
G03*
X150895000Y-58990000I0J1000000D01*
G01*
X120534937Y-82812800D02*
X119087463Y-82812800D01*
X120534937Y-80102800D02*
X119087463Y-80102800D01*
X120534937Y-79383800D02*
X119087463Y-79383800D01*
X120534937Y-76673800D02*
X119087463Y-76673800D01*
X158200000Y-50640000D02*
X164300000Y-50640000D01*
X158200000Y-53860000D02*
X164300000Y-53860000D01*
X102274200Y-86169848D02*
X102274200Y-87592352D01*
X99554200Y-86169848D02*
X99554200Y-87592352D01*
X110160600Y-99323200D02*
X110160600Y-97993200D01*
X111490600Y-99323200D02*
X110160600Y-99323200D01*
X112760600Y-99323200D02*
X120440600Y-99323200D01*
X112760600Y-99323200D02*
X112760600Y-96663200D01*
X120440600Y-99323200D02*
X120440600Y-96663200D01*
X112760600Y-96663200D02*
X120440600Y-96663200D01*
X106214000Y-97294537D02*
X106214000Y-95847063D01*
X108924000Y-97294537D02*
X108924000Y-95847063D01*
D10*
X136000000Y-50450000D02*
X136000000Y-55550000D01*
X136000000Y-50450000D02*
X148000000Y-50450000D01*
X136000000Y-55550000D02*
X148000000Y-55550000D01*
X148000000Y-50450000D02*
X148000000Y-55550000D01*
D12*
X110737600Y-87287800D02*
X110737600Y-85787800D01*
X108937600Y-87337800D02*
X108637600Y-87337800D01*
X108937600Y-85737800D02*
X108637600Y-85737800D01*
X123561800Y-98866000D02*
X123561800Y-97536000D01*
X124891800Y-98866000D02*
X123561800Y-98866000D01*
X126161800Y-98866000D02*
X144001800Y-98866000D01*
X126161800Y-98866000D02*
X126161800Y-96266000D01*
X144001800Y-98866000D02*
X144001800Y-93666000D01*
X123561800Y-96266000D02*
X123561800Y-93666000D01*
X126161800Y-96266000D02*
X123561800Y-96266000D01*
X123561800Y-93666000D02*
X144001800Y-93666000D01*
X137655000Y-89726263D02*
X137655000Y-91173737D01*
X134945000Y-89726263D02*
X134945000Y-91173737D01*
X102678400Y-97256652D02*
X102678400Y-95834148D01*
X105398400Y-97256652D02*
X105398400Y-95834148D01*
X132273737Y-92955000D02*
X130826263Y-92955000D01*
X132273737Y-90245000D02*
X130826263Y-90245000D01*
X148400000Y-83640000D02*
X146725000Y-83640000D01*
X148400000Y-83640000D02*
X149050000Y-83640000D01*
X148400000Y-86760000D02*
X147750000Y-86760000D01*
X148400000Y-86760000D02*
X149050000Y-86760000D01*
X103382400Y-88532152D02*
X103382400Y-87109648D01*
X105202400Y-88532152D02*
X105202400Y-87109648D01*
X146900000Y-95740000D02*
X145225000Y-95740000D01*
X146900000Y-95740000D02*
X147550000Y-95740000D01*
X146900000Y-98860000D02*
X146250000Y-98860000D01*
X146900000Y-98860000D02*
X147550000Y-98860000D01*
X150722500Y-81850000D02*
X173422500Y-81850000D01*
X173422500Y-81850000D02*
X173422500Y-65150000D01*
X155572500Y-78000000D02*
X155572500Y-74850000D01*
X150462500Y-74500000D02*
X150462500Y-72500000D01*
X154972500Y-73850000D02*
X156172500Y-73850000D01*
X155772500Y-73850000D02*
X155372500Y-73150000D01*
X156172500Y-73850000D02*
X156172500Y-73150000D01*
X154972500Y-73150000D02*
X154972500Y-73850000D01*
X156172500Y-73150000D02*
X154972500Y-73150000D01*
X155572500Y-72150000D02*
X155572500Y-69000000D01*
X150722500Y-65150000D02*
X150722500Y-81850000D01*
X173422500Y-65150000D02*
X150722500Y-65150000D01*
X133027064Y-54610000D02*
X128672936Y-54610000D01*
X133027064Y-51190000D02*
X128672936Y-51190000D01*
X150100000Y-90490000D02*
X148100000Y-90490000D01*
X150100000Y-90490000D02*
X150100000Y-94500000D01*
X148100000Y-90490000D02*
X148100000Y-94500000D01*
X183965000Y-99425000D02*
X184705000Y-99425000D01*
X184705000Y-99425000D02*
X184705000Y-98925000D01*
X174544000Y-99185000D02*
X184465000Y-99185000D01*
X174544000Y-99185000D02*
X174544000Y-83825000D01*
X177504000Y-99185000D02*
X177504000Y-83825000D01*
X182405000Y-99185000D02*
X182405000Y-83825000D01*
X183905000Y-99185000D02*
X183905000Y-83825000D01*
X184465000Y-99185000D02*
X184465000Y-83825000D01*
X180828000Y-92732000D02*
X180874000Y-92779000D01*
X181044000Y-92539000D02*
X181079000Y-92574000D01*
X178530000Y-90435000D02*
X178566000Y-90470000D01*
X178736000Y-90230000D02*
X178782000Y-90277000D01*
X180828000Y-87652000D02*
X180874000Y-87699000D01*
X181044000Y-87459000D02*
X181079000Y-87494000D01*
X178530000Y-85355000D02*
X178566000Y-85390000D01*
X178736000Y-85150000D02*
X178782000Y-85197000D01*
X174544000Y-83825000D02*
X184465000Y-83825000D01*
X179121001Y-98119999D02*
G75*
G03*
X180488042Y-98120426I684000J1534992D01*
G01*
X178270001Y-95901001D02*
G75*
G03*
X178269574Y-97268042I1534992J-684000D01*
G01*
X181339999Y-97269000D02*
G75*
G03*
X181485252Y-96556195I-1535000J683999D01*
G01*
X181484999Y-96585000D02*
G75*
G03*
X181339755Y-95901682I-1679999J0D01*
G01*
X180489000Y-95050000D02*
G75*
G03*
X179121958Y-95049574I-684000J-1535000D01*
G01*
X181485000Y-91505000D02*
G75*
G03*
X181485000Y-91505000I-1680000J0D01*
G01*
X181485000Y-86425000D02*
G75*
G03*
X181485000Y-86425000I-1680000J0D01*
G01*
X124027500Y-86715000D02*
X124027500Y-89885000D01*
X124027500Y-89885000D02*
X128087500Y-89885000D01*
X128087500Y-86715000D02*
X124027500Y-86715000D01*
X140955000Y-89726263D02*
X140955000Y-91173737D01*
X138245000Y-89726263D02*
X138245000Y-91173737D01*
X99223737Y-63855000D02*
X97776263Y-63855000D01*
X99223737Y-61145000D02*
X97776263Y-61145000D01*
X127311252Y-86360000D02*
X125888748Y-86360000D01*
X127311252Y-83640000D02*
X125888748Y-83640000D01*
X119091200Y-75209600D02*
X121091200Y-75209600D01*
X119091200Y-75209600D02*
X119091200Y-71349600D01*
X121091200Y-75209600D02*
X121091200Y-71349600D01*
X115941600Y-75158800D02*
X117941600Y-75158800D01*
X115941600Y-75158800D02*
X115941600Y-71298800D01*
X117941600Y-75158800D02*
X117941600Y-71298800D01*
X144845000Y-93573737D02*
X144845000Y-92126263D01*
X147555000Y-93573737D02*
X147555000Y-92126263D01*
X108064463Y-88078400D02*
X109511937Y-88078400D01*
X108064463Y-90788400D02*
X109511937Y-90788400D01*
X132323737Y-89655000D02*
X130876263Y-89655000D01*
X132323737Y-86945000D02*
X130876263Y-86945000D01*
X112399400Y-88532152D02*
X112399400Y-87109648D01*
X114219400Y-88532152D02*
X114219400Y-87109648D01*
X139673737Y-86455000D02*
X138226263Y-86455000D01*
X139673737Y-83745000D02*
X138226263Y-83745000D01*
X122610000Y-87100000D02*
X122610000Y-93110000D01*
X115790000Y-89350000D02*
X115790000Y-93110000D01*
X122610000Y-93110000D02*
X121350000Y-93110000D01*
X115790000Y-93110000D02*
X117050000Y-93110000D01*
D13*
X146800000Y-56300000D02*
X146800000Y-56300000D01*
X146800000Y-56300000D02*
X146800000Y-56300000D01*
X146800000Y-56400000D02*
X146800000Y-56400000D01*
X149340000Y-56960000D02*
X123940000Y-56960000D01*
X123940000Y-56960000D02*
X123940000Y-82360000D01*
X149340000Y-82360000D02*
X149340000Y-56960000D01*
X123940000Y-82360000D02*
X149340000Y-82360000D01*
X146800000Y-56400000D02*
G75*
G03*
X146800000Y-56300000I0J50000D01*
G01*
X146800000Y-56300000D02*
G75*
G03*
X146800000Y-56400000I0J-50000D01*
G01*
X146800000Y-56300000D02*
G75*
G03*
X146800000Y-56400000I0J-50000D01*
G01*
D12*
X141590000Y-83700000D02*
X141590000Y-85700000D01*
X141590000Y-83700000D02*
X145600000Y-83700000D01*
X141590000Y-85700000D02*
X145600000Y-85700000D01*
X98896000Y-86156748D02*
X98896000Y-87579252D01*
X96176000Y-86156748D02*
X96176000Y-87579252D01*
X183965000Y-82925000D02*
X184705000Y-82925000D01*
X184705000Y-82925000D02*
X184705000Y-82425000D01*
X174544000Y-82685000D02*
X184465000Y-82685000D01*
X174544000Y-82685000D02*
X174544000Y-67325000D01*
X177504000Y-82685000D02*
X177504000Y-67325000D01*
X182405000Y-82685000D02*
X182405000Y-67325000D01*
X183905000Y-82685000D02*
X183905000Y-67325000D01*
X184465000Y-82685000D02*
X184465000Y-67325000D01*
X180828000Y-76232000D02*
X180874000Y-76279000D01*
X181044000Y-76039000D02*
X181079000Y-76074000D01*
X178530000Y-73935000D02*
X178566000Y-73970000D01*
X178736000Y-73730000D02*
X178782000Y-73777000D01*
X180828000Y-71152000D02*
X180874000Y-71199000D01*
X181044000Y-70959000D02*
X181079000Y-70994000D01*
X178530000Y-68855000D02*
X178566000Y-68890000D01*
X178736000Y-68650000D02*
X178782000Y-68697000D01*
X174544000Y-67325000D02*
X184465000Y-67325000D01*
X179121001Y-81619999D02*
G75*
G03*
X180488042Y-81620426I684000J1534992D01*
G01*
X178270001Y-79401001D02*
G75*
G03*
X178269574Y-80768042I1534992J-684000D01*
G01*
X181339999Y-80769000D02*
G75*
G03*
X181485252Y-80056195I-1535000J683999D01*
G01*
X181484999Y-80085000D02*
G75*
G03*
X181339755Y-79401682I-1679999J0D01*
G01*
X180489000Y-78550000D02*
G75*
G03*
X179121958Y-78549574I-684000J-1535000D01*
G01*
X181485000Y-75005000D02*
G75*
G03*
X181485000Y-75005000I-1680000J0D01*
G01*
X181485000Y-69925000D02*
G75*
G03*
X181485000Y-69925000I-1680000J0D01*
G01*
X144255000Y-89726263D02*
X144255000Y-91173737D01*
X141545000Y-89726263D02*
X141545000Y-91173737D01*
X150722500Y-99350000D02*
X173422500Y-99350000D01*
X173422500Y-99350000D02*
X173422500Y-82650000D01*
X155572500Y-95500000D02*
X155572500Y-92350000D01*
X150462500Y-92000000D02*
X150462500Y-90000000D01*
X154972500Y-91350000D02*
X156172500Y-91350000D01*
X155772500Y-91350000D02*
X155372500Y-90650000D01*
X156172500Y-91350000D02*
X156172500Y-90650000D01*
X154972500Y-90650000D02*
X154972500Y-91350000D01*
X156172500Y-90650000D02*
X154972500Y-90650000D01*
X155572500Y-89650000D02*
X155572500Y-86500000D01*
X150722500Y-82650000D02*
X150722500Y-99350000D01*
X173422500Y-82650000D02*
X150722500Y-82650000D01*
X117779600Y-83582000D02*
X117779600Y-85582000D01*
X117779600Y-83582000D02*
X121639600Y-83582000D01*
X117779600Y-85582000D02*
X121639600Y-85582000D01*
X124052500Y-90015000D02*
X124052500Y-93185000D01*
X124052500Y-93185000D02*
X128112500Y-93185000D01*
X128112500Y-90015000D02*
X124052500Y-90015000D01*
D14*
X95000000Y-50000000D02*
X185000000Y-50000000D01*
X95000000Y-100000000D02*
X95000000Y-50000000D01*
X185000000Y-100000000D02*
X95000000Y-100000000D01*
X185000000Y-50000000D02*
X185000000Y-100000000D01*
M02*
