M48
; DRILL file {KiCad 7.0.1-0} date 2023 April 02, Sunday 15:16:54
; FORMAT={-:-/ absolute / metric / decimal}
; #@! TF.CreationDate,2023-04-02T15:16:54+02:00
; #@! TF.GenerationSoftware,Kicad,Pcbnew,7.0.1-0
; #@! TF.FileFunction,MixedPlating,1,2
FMAT,2
METRIC
; #@! TA.AperFunction,Plated,PTH,ViaDrill
T1C0.300
; #@! TA.AperFunction,Plated,PTH,ComponentDrill
T2C0.800
; #@! TA.AperFunction,Plated,PTH,ComponentDrill
T3C1.000
; #@! TA.AperFunction,Plated,PTH,ComponentDrill
T4C1.100
; #@! TA.AperFunction,Plated,PTH,ComponentDrill
T5C1.300
%
G90
G05
T1
X96.012Y-95.25
X96.5Y-79.5
X97.483Y-66.993
X97.5Y-80.5
X98.412Y-67.412
X98.5Y-63.0
X98.5Y-84.0
X98.931Y-64.045
X100.422Y-80.486
X100.838Y-71.882
X100.838Y-77.47
X102.5Y-66.5
X102.5Y-80.486
X103.378Y-59.69
X103.5Y-92.5
X105.181Y-66.421
X105.227Y-84.956
X105.5Y-56.134
X106.426Y-71.882
X106.426Y-77.47
X106.496Y-85.004
X107.5Y-62.986
X108.317Y-84.062
X108.966Y-56.134
X109.874Y-67.53
X111.5Y-62.986
X112.268Y-56.134
X112.776Y-69.494
X112.776Y-78.486
X112.807Y-81.584
X112.98Y-63.0
X113.511Y-80.847
X114.0Y-63.0
X116.0Y-86.5
X116.5Y-53.5
X116.5Y-57.5
X116.5Y-62.0
X116.5Y-66.5
X116.5Y-71.5
X116.5Y-77.0
X117.5Y-95.0
X118.0Y-55.5
X118.0Y-59.5
X118.0Y-64.0
X118.0Y-69.0
X118.0Y-74.5
X123.5Y-94.0
X142.5Y-75.5
X142.5Y-87.0
X145.5Y-87.0
X146.5Y-77.5
X148.5Y-81.5
X149.0Y-84.5
T2
X146.475Y-55.38
X146.475Y-63.0
X149.015Y-55.38
X149.015Y-63.0
X151.555Y-55.38
X151.555Y-63.0
X154.975Y-55.38
X154.975Y-63.0
X157.515Y-55.38
X157.515Y-63.0
X160.055Y-55.38
X160.055Y-63.0
T3
X97.925Y-53.25
X97.925Y-57.75
X97.925Y-92.25
X97.925Y-96.75
X118.12Y-98.171
X120.66Y-98.171
X123.2Y-98.171
X125.74Y-98.171
X129.413Y-98.171
X130.5Y-94.5
X131.953Y-98.171
X133.04Y-94.5
X134.493Y-98.171
X135.58Y-94.5
X137.033Y-98.171
X138.12Y-94.5
X139.573Y-98.171
X140.66Y-94.5
X142.113Y-98.171
X143.2Y-94.5
X144.653Y-98.171
T4
X129.84Y-74.16
X134.92Y-53.84
X140.0Y-53.84
X140.0Y-74.16
X164.19Y-52.5
X164.19Y-56.5
X171.81Y-52.5
X171.81Y-56.5
T5
X100.425Y-52.0
X100.425Y-59.0
X100.425Y-91.0
X100.425Y-98.0
X153.373Y-73.5
X153.373Y-91.0
X155.373Y-67.5
X155.373Y-79.5
X155.373Y-85.0
X155.373Y-97.0
X167.572Y-67.5
X167.572Y-79.5
X167.572Y-85.0
X167.572Y-97.0
X179.805Y-53.425
X179.805Y-58.505
X179.805Y-63.585
X179.805Y-69.925
X179.805Y-75.005
X179.805Y-80.085
X179.805Y-86.425
X179.805Y-91.505
X179.805Y-96.585
T0
M30
