G04 #@! TF.GenerationSoftware,KiCad,Pcbnew,7.0.5-0*
G04 #@! TF.CreationDate,2023-07-10T19:12:56+02:00*
G04 #@! TF.ProjectId,CaptorBoard,43617074-6f72-4426-9f61-72642e6b6963,rev?*
G04 #@! TF.SameCoordinates,Original*
G04 #@! TF.FileFunction,Copper,L2,Bot*
G04 #@! TF.FilePolarity,Positive*
%FSLAX46Y46*%
G04 Gerber Fmt 4.6, Leading zero omitted, Abs format (unit mm)*
G04 Created by KiCad (PCBNEW 7.0.5-0) date 2023-07-10 19:12:56*
%MOMM*%
%LPD*%
G01*
G04 APERTURE LIST*
G04 #@! TA.AperFunction,ComponentPad*
%ADD10R,2.200000X2.200000*%
G04 #@! TD*
G04 #@! TA.AperFunction,ComponentPad*
%ADD11O,2.200000X2.200000*%
G04 #@! TD*
G04 #@! TA.AperFunction,ComponentPad*
%ADD12R,2.600000X2.600000*%
G04 #@! TD*
G04 #@! TA.AperFunction,ComponentPad*
%ADD13C,2.600000*%
G04 #@! TD*
G04 #@! TA.AperFunction,ComponentPad*
%ADD14C,2.200000*%
G04 #@! TD*
G04 #@! TA.AperFunction,ComponentPad*
%ADD15C,1.700000*%
G04 #@! TD*
G04 #@! TA.AperFunction,ComponentPad*
%ADD16R,1.600000X1.600000*%
G04 #@! TD*
G04 #@! TA.AperFunction,ComponentPad*
%ADD17O,1.600000X1.600000*%
G04 #@! TD*
G04 #@! TA.AperFunction,ComponentPad*
%ADD18R,1.700000X1.700000*%
G04 #@! TD*
G04 #@! TA.AperFunction,ComponentPad*
%ADD19O,1.700000X1.700000*%
G04 #@! TD*
G04 #@! TA.AperFunction,ComponentPad*
%ADD20C,1.800000*%
G04 #@! TD*
G04 #@! TA.AperFunction,ComponentPad*
%ADD21R,2.500000X2.500000*%
G04 #@! TD*
G04 #@! TA.AperFunction,ComponentPad*
%ADD22O,2.500000X2.500000*%
G04 #@! TD*
G04 #@! TA.AperFunction,ComponentPad*
%ADD23C,1.650000*%
G04 #@! TD*
G04 #@! TA.AperFunction,ViaPad*
%ADD24C,0.820000*%
G04 #@! TD*
G04 #@! TA.AperFunction,Conductor*
%ADD25C,2.000000*%
G04 #@! TD*
G04 #@! TA.AperFunction,Conductor*
%ADD26C,0.500000*%
G04 #@! TD*
G04 #@! TA.AperFunction,Conductor*
%ADD27C,0.250000*%
G04 #@! TD*
G04 #@! TA.AperFunction,Conductor*
%ADD28C,4.000000*%
G04 #@! TD*
G04 #@! TA.AperFunction,Profile*
%ADD29C,0.100000*%
G04 #@! TD*
G04 APERTURE END LIST*
D10*
X172250000Y-55940000D03*
D11*
X172250000Y-63560000D03*
D10*
X160500000Y-63620000D03*
D11*
X160500000Y-56000000D03*
D12*
X179805000Y-63585000D03*
D13*
X179805000Y-58505000D03*
X179805000Y-53425000D03*
D14*
X100425000Y-98000000D03*
X100425000Y-91000000D03*
D15*
X97925000Y-96750000D03*
X97925000Y-92250000D03*
D14*
X100425000Y-59000000D03*
X100425000Y-52000000D03*
D15*
X97925000Y-57750000D03*
X97925000Y-53250000D03*
D16*
X163725000Y-63800000D03*
D17*
X166265000Y-63800000D03*
X168805000Y-63800000D03*
X168805000Y-56180000D03*
X166265000Y-56180000D03*
X163725000Y-56180000D03*
D16*
X152225000Y-63800000D03*
D17*
X154765000Y-63800000D03*
X157305000Y-63800000D03*
X157305000Y-56180000D03*
X154765000Y-56180000D03*
X152225000Y-56180000D03*
D18*
X111490600Y-97993200D03*
D19*
X114030600Y-97993200D03*
X116570600Y-97993200D03*
X119110600Y-97993200D03*
D20*
X138250000Y-51850000D03*
X145750000Y-54150000D03*
D18*
X124891800Y-97536000D03*
D19*
X124891800Y-94996000D03*
X127431800Y-97536000D03*
X127431800Y-94996000D03*
X129971800Y-97536000D03*
X129971800Y-94996000D03*
X132511800Y-97536000D03*
X132511800Y-94996000D03*
X135051800Y-97536000D03*
X135051800Y-94996000D03*
X137591800Y-97536000D03*
X137591800Y-94996000D03*
X140131800Y-97536000D03*
X140131800Y-94996000D03*
X142671800Y-97536000D03*
X142671800Y-94996000D03*
D21*
X153372500Y-73500000D03*
D22*
X155372500Y-79500000D03*
X167572500Y-79500000D03*
X167572500Y-67500000D03*
X155372500Y-67500000D03*
D12*
X179805000Y-96585000D03*
D13*
X179805000Y-91505000D03*
X179805000Y-86425000D03*
D23*
X146800000Y-59500000D03*
X141720000Y-59500000D03*
X136640000Y-79820000D03*
X146800000Y-79820000D03*
D12*
X179805000Y-80085000D03*
D13*
X179805000Y-75005000D03*
X179805000Y-69925000D03*
D21*
X153372500Y-91000000D03*
D22*
X155372500Y-97000000D03*
X167572500Y-97000000D03*
X167572500Y-85000000D03*
X155372500Y-85000000D03*
D24*
X134100000Y-84200000D03*
X107950000Y-63398400D03*
X115773200Y-78917800D03*
X96012000Y-95250000D03*
X144000000Y-80300000D03*
X113131600Y-87833200D03*
X100838000Y-71882000D03*
X100838000Y-77470000D03*
X148500000Y-77000000D03*
X109270800Y-56083200D03*
X111900000Y-79975700D03*
X105714800Y-56083200D03*
X106426000Y-71882000D03*
X106426000Y-77470000D03*
X102717600Y-63627000D03*
X112776000Y-56083200D03*
X105765600Y-84759800D03*
X147300000Y-88200000D03*
X98500500Y-84033500D03*
X97777572Y-66605500D03*
X102500000Y-66500000D03*
X117043200Y-84658200D03*
X134414517Y-90385483D03*
X97790000Y-81203800D03*
X151200000Y-84200000D03*
X116551700Y-77546200D03*
X139400000Y-87465500D03*
X145000000Y-88500000D03*
X116447630Y-80875700D03*
X98425000Y-63804800D03*
X102616000Y-84074000D03*
X99029430Y-67431830D03*
X96919168Y-67556768D03*
X103911400Y-84099400D03*
X139000000Y-85000000D03*
X115800000Y-69600000D03*
X112864350Y-78719496D03*
X147600000Y-96300000D03*
X131800000Y-91200000D03*
X120040400Y-84505800D03*
X117271800Y-83185000D03*
D25*
X146900000Y-53000000D02*
X179380000Y-53000000D01*
X145750000Y-54150000D02*
X146900000Y-53000000D01*
X145750000Y-54150000D02*
X145750000Y-58450000D01*
X145750000Y-58450000D02*
X146800000Y-59500000D01*
X179380000Y-53000000D02*
X179805000Y-53425000D01*
D26*
X164750000Y-65750000D02*
X166265000Y-64235000D01*
X148500000Y-77000000D02*
X148500000Y-71968336D01*
X153500000Y-65750000D02*
X164750000Y-65750000D01*
X153157500Y-65407500D02*
X154765000Y-63800000D01*
X148500000Y-71968336D02*
X151000000Y-69468336D01*
X166265000Y-64235000D02*
X166265000Y-63800000D01*
X153157500Y-65407500D02*
X153500000Y-65750000D01*
X151000000Y-69468336D02*
X151000000Y-67565000D01*
X151000000Y-67565000D02*
X153157500Y-65407500D01*
D27*
X97925000Y-96750000D02*
X99388800Y-96750000D01*
X101850000Y-88603411D02*
X98500500Y-85253911D01*
X101850000Y-94288800D02*
X101850000Y-88603411D01*
X98500500Y-85253911D02*
X98500500Y-84033500D01*
X99388800Y-96750000D02*
X101850000Y-94288800D01*
X124218703Y-93371000D02*
X126468596Y-93371000D01*
X126468596Y-93371000D02*
X126918596Y-93821000D01*
X100023268Y-81763298D02*
X100075302Y-81763298D01*
X98975000Y-80715030D02*
X100023268Y-81763298D01*
X128701800Y-94604299D02*
X128701800Y-96266000D01*
X98204643Y-79942600D02*
X98975000Y-80712957D01*
X97313408Y-79942600D02*
X98204643Y-79942600D01*
X97777572Y-67737811D02*
X96450000Y-69065383D01*
X100585000Y-82272996D02*
X100585000Y-85429223D01*
X97777572Y-66605500D02*
X97777572Y-67737811D01*
X128701800Y-96266000D02*
X129971800Y-97536000D01*
X103200000Y-88044223D02*
X103200000Y-92605408D01*
X126918596Y-93821000D02*
X127918501Y-93821000D01*
X100585000Y-85429223D02*
X103200000Y-88044223D01*
X103200000Y-92605408D02*
X105249392Y-94654800D01*
X98975000Y-80712957D02*
X98975000Y-80715030D01*
X105249392Y-94654800D02*
X122934903Y-94654800D01*
X96450000Y-69065383D02*
X96450000Y-79079192D01*
X96450000Y-79079192D02*
X97313408Y-79942600D01*
X100075302Y-81763298D02*
X100585000Y-82272996D01*
X127918501Y-93821000D02*
X128701800Y-94604299D01*
X122934903Y-94654800D02*
X124218703Y-93371000D01*
X98577435Y-79042600D02*
X100306335Y-80771500D01*
X101485000Y-85056431D02*
X104100000Y-87671431D01*
X97350000Y-78706400D02*
X97686200Y-79042600D01*
X131241800Y-94604299D02*
X131241800Y-96266000D01*
X127291388Y-92921000D02*
X128291293Y-92921000D01*
X105622184Y-93754800D02*
X122562111Y-93754800D01*
X131241800Y-96266000D02*
X132511800Y-97536000D01*
X130458501Y-93821000D02*
X131241800Y-94604299D01*
X100306335Y-80771500D02*
X100356296Y-80771500D01*
X129191293Y-93821000D02*
X130458501Y-93821000D01*
X123845911Y-92471000D02*
X126841388Y-92471000D01*
X128291293Y-92921000D02*
X129191293Y-93821000D01*
X102500000Y-66500000D02*
X101000000Y-66500000D01*
X100356296Y-80771500D02*
X101485000Y-81900204D01*
X126841388Y-92471000D02*
X127291388Y-92921000D01*
X101000000Y-66500000D02*
X97350000Y-70150000D01*
X122562111Y-93754800D02*
X123845911Y-92471000D01*
X97686200Y-79042600D02*
X98577435Y-79042600D01*
X104100000Y-87671431D02*
X104100000Y-92232616D01*
X104100000Y-92232616D02*
X105622184Y-93754800D01*
X101485000Y-81900204D02*
X101485000Y-85056431D01*
X97350000Y-70150000D02*
X97350000Y-78706400D01*
X117070553Y-82346800D02*
X120847616Y-82346800D01*
X125500816Y-87000000D02*
X130626689Y-87000000D01*
X130626689Y-87000000D02*
X134012172Y-90385483D01*
X120847616Y-82346800D02*
X125500816Y-87000000D01*
X116536800Y-84151800D02*
X116536800Y-82880553D01*
X117043200Y-84658200D02*
X116536800Y-84151800D01*
X116536800Y-82880553D02*
X117070553Y-82346800D01*
X134012172Y-90385483D02*
X134414517Y-90385483D01*
X99685000Y-85802015D02*
X102300000Y-88417015D01*
X99685000Y-82697822D02*
X99685000Y-85802015D01*
X102300000Y-92978200D02*
X104876600Y-95554800D01*
X98337313Y-81350135D02*
X99685000Y-82697822D01*
X97936335Y-81350135D02*
X98337313Y-81350135D01*
X97790000Y-81203800D02*
X97936335Y-81350135D01*
X111592200Y-95554800D02*
X114030600Y-97993200D01*
X102300000Y-88417015D02*
X102300000Y-92978200D01*
X104876600Y-95554800D02*
X111592200Y-95554800D01*
D25*
X160500000Y-63620000D02*
X160500000Y-62025000D01*
X172250000Y-63560000D02*
X179780000Y-63560000D01*
X162525000Y-60000000D02*
X170000000Y-60000000D01*
X160500000Y-62025000D02*
X162525000Y-60000000D01*
X172250000Y-62250000D02*
X172250000Y-63560000D01*
X170000000Y-60000000D02*
X172250000Y-62250000D01*
X179780000Y-63560000D02*
X179805000Y-63585000D01*
X168805000Y-56180000D02*
X172010000Y-56180000D01*
X172010000Y-56180000D02*
X172250000Y-55940000D01*
X160320000Y-56180000D02*
X160500000Y-56000000D01*
X157305000Y-56180000D02*
X160320000Y-56180000D01*
D27*
X151200000Y-84200000D02*
X151200000Y-83672500D01*
X151200000Y-83672500D02*
X155372500Y-79500000D01*
X125873608Y-86100000D02*
X117319808Y-77546200D01*
X134775843Y-86100000D02*
X125873608Y-86100000D01*
X136141343Y-87465500D02*
X134775843Y-86100000D01*
X117319808Y-77546200D02*
X116551700Y-77546200D01*
X139400000Y-87465500D02*
X136141343Y-87465500D01*
D28*
X168997500Y-86425000D02*
X167572500Y-85000000D01*
X179805000Y-86425000D02*
X168997500Y-86425000D01*
X179805000Y-91505000D02*
X163420600Y-91505000D01*
X163420600Y-91505000D02*
X162915600Y-91000000D01*
X162915600Y-91000000D02*
X153372500Y-91000000D01*
X179720950Y-96697800D02*
X167903450Y-96697800D01*
X167987500Y-96585000D02*
X167572500Y-97000000D01*
X179805000Y-69925000D02*
X178637800Y-68757800D01*
X168830300Y-68757800D02*
X167572500Y-67500000D01*
X178637800Y-68757800D02*
X168830300Y-68757800D01*
D27*
X125687212Y-86550000D02*
X121034012Y-81896800D01*
X136239447Y-88200000D02*
X134589447Y-86550000D01*
X140138353Y-88200000D02*
X136239447Y-88200000D01*
X140438353Y-88500000D02*
X140138353Y-88200000D01*
X117468730Y-81896800D02*
X116447630Y-80875700D01*
X121034012Y-81896800D02*
X117468730Y-81896800D01*
X145000000Y-88500000D02*
X140438353Y-88500000D01*
X134589447Y-86550000D02*
X125687212Y-86550000D01*
D28*
X162500000Y-73500000D02*
X153372500Y-73500000D01*
X179805000Y-75005000D02*
X164005000Y-75005000D01*
X164005000Y-75005000D02*
X162500000Y-73500000D01*
X179805000Y-80085000D02*
X167952500Y-80085000D01*
X167952500Y-80085000D02*
X167572500Y-79705000D01*
D27*
X135088501Y-93371000D02*
X130067501Y-88350000D01*
X116816553Y-85471000D02*
X116078000Y-84732447D01*
X98982200Y-64362000D02*
X98425000Y-63804800D01*
X137591800Y-94996000D02*
X135966800Y-93371000D01*
X135966800Y-93371000D02*
X135088501Y-93371000D01*
X115038200Y-66244800D02*
X113155400Y-64362000D01*
X124941628Y-88350000D02*
X122062628Y-85471000D01*
X116078000Y-81545517D02*
X115038200Y-80505717D01*
X130067501Y-88350000D02*
X124941628Y-88350000D01*
X113155400Y-64362000D02*
X98982200Y-64362000D01*
X116078000Y-84732447D02*
X116078000Y-81545517D01*
X115038200Y-80505717D02*
X115038200Y-66244800D01*
X122062628Y-85471000D02*
X116816553Y-85471000D01*
X129377689Y-93371000D02*
X130644897Y-93371000D01*
X105808580Y-93304800D02*
X122375715Y-93304800D01*
X131691800Y-94996000D02*
X132511800Y-94996000D01*
X102616000Y-85551035D02*
X104550000Y-87485035D01*
X104550000Y-92046220D02*
X105808580Y-93304800D01*
X122375715Y-93304800D02*
X123659515Y-92021000D01*
X131691800Y-94417903D02*
X131691800Y-94996000D01*
X127027784Y-92021000D02*
X127477784Y-92471000D01*
X127477784Y-92471000D02*
X128477689Y-92471000D01*
X130644897Y-93371000D02*
X131691800Y-94417903D01*
X128477689Y-92471000D02*
X129377689Y-93371000D01*
X102616000Y-84074000D02*
X102616000Y-85551035D01*
X123659515Y-92021000D02*
X127027784Y-92021000D01*
X104550000Y-87485035D02*
X104550000Y-92046220D01*
X126654992Y-92921000D02*
X127104992Y-93371000D01*
X97499804Y-79492600D02*
X98391039Y-79492600D01*
X100117866Y-81221500D02*
X100169900Y-81221500D01*
X99425000Y-80528634D02*
X100117866Y-81221500D01*
X96900000Y-69571600D02*
X96900000Y-78892796D01*
X101035000Y-82086600D02*
X101035000Y-85242827D01*
X128104897Y-93371000D02*
X129729897Y-94996000D01*
X99029430Y-67431830D02*
X97078800Y-69382460D01*
X127104992Y-93371000D02*
X128104897Y-93371000D01*
X105435788Y-94204800D02*
X122748507Y-94204800D01*
X101035000Y-85242827D02*
X103650000Y-87857827D01*
X97078800Y-69382460D02*
X97078800Y-69392800D01*
X97078800Y-69392800D02*
X96900000Y-69571600D01*
X124032307Y-92921000D02*
X126654992Y-92921000D01*
X129729897Y-94996000D02*
X129971800Y-94996000D01*
X99425000Y-80526561D02*
X99425000Y-80528634D01*
X103650000Y-92419012D02*
X105435788Y-94204800D01*
X122748507Y-94204800D02*
X124032307Y-92921000D01*
X103650000Y-87857827D02*
X103650000Y-92419012D01*
X98391039Y-79492600D02*
X99425000Y-80526561D01*
X100169900Y-81221500D02*
X101035000Y-82086600D01*
X96900000Y-78892796D02*
X97499804Y-79492600D01*
X126256800Y-93821000D02*
X127431800Y-94996000D01*
X124405099Y-93821000D02*
X126256800Y-93821000D01*
X98525000Y-80899353D02*
X98525000Y-80901426D01*
X105062996Y-95104800D02*
X123121299Y-95104800D01*
X98525000Y-80901426D02*
X100135000Y-82511426D01*
X96919168Y-67556768D02*
X96000000Y-68475936D01*
X100135000Y-82511426D02*
X100135000Y-85615619D01*
X97127012Y-80392600D02*
X98018247Y-80392600D01*
X123121299Y-95104800D02*
X124405099Y-93821000D01*
X102750000Y-88230619D02*
X102750000Y-92791804D01*
X98018247Y-80392600D02*
X98525000Y-80899353D01*
X100135000Y-85615619D02*
X102750000Y-88230619D01*
X96000000Y-79265588D02*
X97127012Y-80392600D01*
X102750000Y-92791804D02*
X105062996Y-95104800D01*
X96000000Y-68475936D02*
X96000000Y-79265588D01*
X129564085Y-92921000D02*
X130831293Y-92921000D01*
X122189319Y-92854800D02*
X123473119Y-91571000D01*
X105000000Y-91859824D02*
X105994976Y-92854800D01*
X127664180Y-92021000D02*
X128664085Y-92021000D01*
X127214180Y-91571000D02*
X127664180Y-92021000D01*
X128664085Y-92021000D02*
X129564085Y-92921000D01*
X133902200Y-93821000D02*
X135051800Y-94970600D01*
X123473119Y-91571000D02*
X127214180Y-91571000D01*
X103809800Y-86108439D02*
X105000000Y-87298639D01*
X130831293Y-92921000D02*
X131731293Y-93821000D01*
X103911400Y-84099400D02*
X103809800Y-84201000D01*
X131731293Y-93821000D02*
X133902200Y-93821000D01*
X103809800Y-84201000D02*
X103809800Y-86108439D01*
X105000000Y-87298639D02*
X105000000Y-91859824D01*
X105994976Y-92854800D02*
X122189319Y-92854800D01*
X135051800Y-94970600D02*
X135051800Y-94996000D01*
X126060004Y-85650000D02*
X115800000Y-75389996D01*
X134962239Y-85650000D02*
X126060004Y-85650000D01*
X137684500Y-87015500D02*
X136327739Y-87015500D01*
X115800000Y-75389996D02*
X115800000Y-69600000D01*
X139000000Y-85700000D02*
X137684500Y-87015500D01*
X139000000Y-85000000D02*
X139000000Y-85700000D01*
X136327739Y-87015500D02*
X134962239Y-85650000D01*
X115628000Y-81731913D02*
X114588200Y-80692113D01*
X131800000Y-90718895D02*
X129881105Y-88800000D01*
X121876232Y-85921000D02*
X116604200Y-85921000D01*
X116604200Y-85921000D02*
X115628000Y-84944800D01*
X131800000Y-91200000D02*
X131800000Y-90718895D01*
X124755232Y-88800000D02*
X121876232Y-85921000D01*
X129881105Y-88800000D02*
X124755232Y-88800000D01*
X137000000Y-96300000D02*
X136300000Y-95600000D01*
X115628000Y-84944800D02*
X115628000Y-81731913D01*
X114588200Y-80692113D02*
X114588200Y-80443346D01*
X134565099Y-93821000D02*
X131944099Y-91200000D01*
X114588200Y-80443346D02*
X112864350Y-78719496D01*
X136300000Y-94340596D02*
X135780404Y-93821000D01*
X147600000Y-96300000D02*
X137000000Y-96300000D01*
X135780404Y-93821000D02*
X134565099Y-93821000D01*
X136300000Y-95600000D02*
X136300000Y-94340596D01*
X131944099Y-91200000D02*
X131800000Y-91200000D01*
X136205099Y-92921000D02*
X137105099Y-93821000D01*
X121733824Y-84505800D02*
X125128024Y-87900000D01*
X138956800Y-93821000D02*
X140131800Y-94996000D01*
X130253897Y-87900000D02*
X135274897Y-92921000D01*
X135274897Y-92921000D02*
X136205099Y-92921000D01*
X120040400Y-84505800D02*
X121733824Y-84505800D01*
X125128024Y-87900000D02*
X130253897Y-87900000D01*
X137105099Y-93821000D02*
X138956800Y-93821000D01*
X141496800Y-93821000D02*
X142671800Y-94996000D01*
X121049420Y-83185000D02*
X125314420Y-87450000D01*
X135461293Y-92471000D02*
X136391495Y-92471000D01*
X136391495Y-92471000D02*
X137291495Y-93371000D01*
X139593196Y-93821000D02*
X141496800Y-93821000D01*
X139143196Y-93371000D02*
X139593196Y-93821000D01*
X125314420Y-87450000D02*
X130440293Y-87450000D01*
X130440293Y-87450000D02*
X135461293Y-92471000D01*
X117271800Y-83185000D02*
X121049420Y-83185000D01*
X137291495Y-93371000D02*
X139143196Y-93371000D01*
G04 #@! TA.AperFunction,Conductor*
G36*
X115880212Y-78174554D02*
G01*
X115891337Y-78185469D01*
X115933715Y-78232536D01*
X115933718Y-78232538D01*
X116089920Y-78346026D01*
X116266305Y-78424557D01*
X116455162Y-78464700D01*
X116648238Y-78464700D01*
X116837095Y-78424557D01*
X117013480Y-78346026D01*
X117048194Y-78320803D01*
X117115058Y-78296946D01*
X117184210Y-78313025D01*
X117211349Y-78333645D01*
X119925909Y-81048205D01*
X119959935Y-81110517D01*
X119954870Y-81181332D01*
X119912323Y-81238168D01*
X119845803Y-81262979D01*
X119836814Y-81263300D01*
X117783325Y-81263300D01*
X117715204Y-81243298D01*
X117694230Y-81226395D01*
X117405987Y-80938152D01*
X117371961Y-80875840D01*
X117369774Y-80862243D01*
X117351007Y-80683681D01*
X117349952Y-80680434D01*
X117291345Y-80500060D01*
X117291341Y-80500052D01*
X117194807Y-80332849D01*
X117194806Y-80332848D01*
X117194805Y-80332846D01*
X117065612Y-80189362D01*
X117056836Y-80182986D01*
X116909410Y-80075874D01*
X116733025Y-79997343D01*
X116544168Y-79957200D01*
X116351092Y-79957200D01*
X116162234Y-79997343D01*
X115985846Y-80075876D01*
X115871761Y-80158764D01*
X115804893Y-80182623D01*
X115735741Y-80166542D01*
X115686261Y-80115628D01*
X115671700Y-80056828D01*
X115671700Y-78269778D01*
X115691702Y-78201657D01*
X115745358Y-78155164D01*
X115815632Y-78145060D01*
X115880212Y-78174554D01*
G37*
G04 #@! TD.AperFunction*
G04 #@! TA.AperFunction,Conductor*
G36*
X122942035Y-50058002D02*
G01*
X122988528Y-50111658D01*
X122999914Y-50164086D01*
X122986799Y-69399799D01*
X122986800Y-69399800D01*
X149493210Y-69399800D01*
X149561331Y-69419802D01*
X149607824Y-69473458D01*
X149619210Y-69525590D01*
X149669789Y-99822790D01*
X149649901Y-99890944D01*
X149596323Y-99937526D01*
X149543789Y-99949000D01*
X95136500Y-99949000D01*
X95068379Y-99928998D01*
X95021886Y-99875342D01*
X95010500Y-99823000D01*
X95010500Y-68455879D01*
X95361780Y-68455879D01*
X95366220Y-68502853D01*
X95366500Y-68508786D01*
X95366500Y-79181734D01*
X95364751Y-79197576D01*
X95365044Y-79197604D01*
X95364298Y-79205496D01*
X95366469Y-79274562D01*
X95366500Y-79276541D01*
X95366500Y-79305439D01*
X95366501Y-79305460D01*
X95367378Y-79312408D01*
X95367844Y-79318320D01*
X95369326Y-79365476D01*
X95369327Y-79365481D01*
X95374977Y-79384927D01*
X95378986Y-79404285D01*
X95381525Y-79424381D01*
X95381526Y-79424387D01*
X95398893Y-79468250D01*
X95400816Y-79473867D01*
X95413982Y-79519181D01*
X95424294Y-79536619D01*
X95432988Y-79554367D01*
X95440444Y-79573197D01*
X95440450Y-79573208D01*
X95468177Y-79611371D01*
X95471437Y-79616334D01*
X95495460Y-79656953D01*
X95509779Y-79671272D01*
X95522617Y-79686302D01*
X95532156Y-79699431D01*
X95534528Y-79702695D01*
X95539789Y-79707047D01*
X95570886Y-79732773D01*
X95575267Y-79736759D01*
X96116160Y-80277652D01*
X96619765Y-80781257D01*
X96629732Y-80793697D01*
X96629959Y-80793510D01*
X96635011Y-80799617D01*
X96685400Y-80846935D01*
X96686789Y-80848281D01*
X96707243Y-80868735D01*
X96712782Y-80873031D01*
X96717294Y-80876885D01*
X96751690Y-80909185D01*
X96751694Y-80909188D01*
X96769442Y-80918945D01*
X96785969Y-80929801D01*
X96801972Y-80942214D01*
X96804985Y-80943518D01*
X96806974Y-80945172D01*
X96808791Y-80946247D01*
X96808617Y-80946540D01*
X96859560Y-80988924D01*
X96880924Y-81056629D01*
X96880259Y-81072326D01*
X96866441Y-81203799D01*
X96886622Y-81395819D01*
X96946284Y-81579439D01*
X96946288Y-81579447D01*
X97042822Y-81746650D01*
X97042823Y-81746652D01*
X97042825Y-81746654D01*
X97172018Y-81890138D01*
X97328220Y-82003626D01*
X97504605Y-82082157D01*
X97693462Y-82122300D01*
X97886538Y-82122300D01*
X98075395Y-82082157D01*
X98075410Y-82082150D01*
X98075930Y-82081982D01*
X98076262Y-82081972D01*
X98081854Y-82080784D01*
X98082071Y-82081805D01*
X98146898Y-82079940D01*
X98203986Y-82112712D01*
X99014595Y-82923321D01*
X99048621Y-82985633D01*
X99051500Y-83012416D01*
X99051500Y-83079374D01*
X99031498Y-83147495D01*
X98977842Y-83193988D01*
X98907568Y-83204092D01*
X98874252Y-83194481D01*
X98785897Y-83155143D01*
X98597038Y-83115000D01*
X98403962Y-83115000D01*
X98215104Y-83155143D01*
X98038716Y-83233676D01*
X97882518Y-83347161D01*
X97753322Y-83490649D01*
X97656788Y-83657852D01*
X97656784Y-83657860D01*
X97597122Y-83841480D01*
X97576941Y-84033500D01*
X97597122Y-84225519D01*
X97656784Y-84409139D01*
X97656788Y-84409147D01*
X97753322Y-84576350D01*
X97753323Y-84576352D01*
X97753325Y-84576354D01*
X97834637Y-84666660D01*
X97865353Y-84730666D01*
X97867000Y-84750969D01*
X97867000Y-85170057D01*
X97865251Y-85185899D01*
X97865544Y-85185927D01*
X97864798Y-85193819D01*
X97866969Y-85262885D01*
X97867000Y-85264864D01*
X97867000Y-85293762D01*
X97867001Y-85293783D01*
X97867878Y-85300731D01*
X97868344Y-85306643D01*
X97869826Y-85353799D01*
X97869827Y-85353804D01*
X97875477Y-85373250D01*
X97879486Y-85392608D01*
X97882025Y-85412704D01*
X97882026Y-85412710D01*
X97899393Y-85456573D01*
X97901316Y-85462190D01*
X97914482Y-85507504D01*
X97924794Y-85524942D01*
X97933488Y-85542690D01*
X97940944Y-85561520D01*
X97940950Y-85561531D01*
X97968677Y-85599694D01*
X97971937Y-85604657D01*
X97995960Y-85645276D01*
X98010279Y-85659595D01*
X98023117Y-85674625D01*
X98032656Y-85687754D01*
X98035028Y-85691018D01*
X98060553Y-85712134D01*
X98071386Y-85721096D01*
X98075767Y-85725082D01*
X99638356Y-87287671D01*
X101179595Y-88828910D01*
X101213621Y-88891222D01*
X101216500Y-88918005D01*
X101216500Y-89398249D01*
X101196498Y-89466370D01*
X101142842Y-89512863D01*
X101072568Y-89522967D01*
X101042283Y-89514658D01*
X100923591Y-89465495D01*
X100809977Y-89438219D01*
X100677403Y-89406391D01*
X100425000Y-89386526D01*
X100172597Y-89406391D01*
X99926410Y-89465494D01*
X99692499Y-89562383D01*
X99476625Y-89694671D01*
X99284102Y-89859102D01*
X99119671Y-90051625D01*
X98987383Y-90267499D01*
X98890494Y-90501410D01*
X98831391Y-90747597D01*
X98812711Y-90984941D01*
X98787425Y-91051283D01*
X98730287Y-91093422D01*
X98659437Y-91097981D01*
X98627130Y-91085869D01*
X98472371Y-91002118D01*
X98472369Y-91002116D01*
X98259516Y-90929044D01*
X98259509Y-90929042D01*
X98037523Y-90892000D01*
X97812477Y-90892000D01*
X97590490Y-90929042D01*
X97590483Y-90929044D01*
X97377630Y-91002116D01*
X97377628Y-91002118D01*
X97179700Y-91109230D01*
X97159310Y-91125099D01*
X97159310Y-91125100D01*
X97797412Y-91763202D01*
X97782685Y-91765320D01*
X97651900Y-91825048D01*
X97543239Y-91919202D01*
X97465507Y-92040156D01*
X97440638Y-92124849D01*
X96801921Y-91486132D01*
X96726580Y-91601451D01*
X96636179Y-91807543D01*
X96636176Y-91807550D01*
X96580932Y-92025707D01*
X96562346Y-92249999D01*
X96580932Y-92474292D01*
X96636176Y-92692449D01*
X96636179Y-92692456D01*
X96726580Y-92898548D01*
X96801922Y-93013866D01*
X97440638Y-92375149D01*
X97465507Y-92459844D01*
X97543239Y-92580798D01*
X97651900Y-92674952D01*
X97782685Y-92734680D01*
X97797412Y-92736797D01*
X97159310Y-93374898D01*
X97179694Y-93390763D01*
X97179696Y-93390765D01*
X97377632Y-93497883D01*
X97590483Y-93570955D01*
X97590490Y-93570957D01*
X97812477Y-93608000D01*
X98037523Y-93608000D01*
X98259509Y-93570957D01*
X98259516Y-93570955D01*
X98472369Y-93497883D01*
X98472371Y-93497882D01*
X98670298Y-93390768D01*
X98670302Y-93390766D01*
X98690689Y-93374898D01*
X98052588Y-92736797D01*
X98067315Y-92734680D01*
X98198100Y-92674952D01*
X98306761Y-92580798D01*
X98384493Y-92459844D01*
X98409360Y-92375151D01*
X99048076Y-93013867D01*
X99048077Y-93013866D01*
X99123419Y-92898551D01*
X99213820Y-92692456D01*
X99213823Y-92692449D01*
X99269067Y-92474292D01*
X99275569Y-92395826D01*
X99301128Y-92329590D01*
X99358439Y-92287686D01*
X99429307Y-92283419D01*
X99472269Y-92302959D01*
X99472403Y-92302741D01*
X99474169Y-92303823D01*
X99475195Y-92304290D01*
X99476619Y-92305324D01*
X99476624Y-92305328D01*
X99692498Y-92437616D01*
X99926409Y-92534505D01*
X100172597Y-92593609D01*
X100425000Y-92613474D01*
X100677403Y-92593609D01*
X100923591Y-92534505D01*
X101042284Y-92485340D01*
X101112872Y-92477752D01*
X101176359Y-92509531D01*
X101212586Y-92570589D01*
X101216500Y-92601750D01*
X101216500Y-93974204D01*
X101196498Y-94042325D01*
X101179595Y-94063299D01*
X99240618Y-96002275D01*
X99178306Y-96036301D01*
X99107490Y-96031236D01*
X99050655Y-95988689D01*
X99046040Y-95982096D01*
X99000720Y-95912729D01*
X98857496Y-95757149D01*
X98848240Y-95747094D01*
X98848239Y-95747093D01*
X98848237Y-95747091D01*
X98741933Y-95664351D01*
X98670576Y-95608811D01*
X98472574Y-95501658D01*
X98472572Y-95501657D01*
X98472571Y-95501656D01*
X98259639Y-95428557D01*
X98259630Y-95428555D01*
X98215476Y-95421187D01*
X98037569Y-95391500D01*
X97812431Y-95391500D01*
X97664211Y-95416233D01*
X97590369Y-95428555D01*
X97590360Y-95428557D01*
X97377428Y-95501656D01*
X97377426Y-95501658D01*
X97217869Y-95588006D01*
X97179426Y-95608810D01*
X97179424Y-95608811D01*
X97001762Y-95747091D01*
X96849279Y-95912729D01*
X96849275Y-95912734D01*
X96726141Y-96101206D01*
X96635703Y-96307386D01*
X96635702Y-96307387D01*
X96580437Y-96525624D01*
X96580436Y-96525630D01*
X96580436Y-96525632D01*
X96561844Y-96750000D01*
X96579348Y-96961243D01*
X96580437Y-96974375D01*
X96635702Y-97192612D01*
X96635703Y-97192613D01*
X96635704Y-97192616D01*
X96726140Y-97398791D01*
X96726141Y-97398793D01*
X96849275Y-97587265D01*
X96849279Y-97587270D01*
X97001762Y-97752908D01*
X97011347Y-97760368D01*
X97179424Y-97891189D01*
X97377426Y-97998342D01*
X97377427Y-97998342D01*
X97377428Y-97998343D01*
X97487120Y-98036000D01*
X97590365Y-98071444D01*
X97812431Y-98108500D01*
X97812435Y-98108500D01*
X98037565Y-98108500D01*
X98037569Y-98108500D01*
X98259635Y-98071444D01*
X98472574Y-97998342D01*
X98627175Y-97914676D01*
X98696602Y-97899846D01*
X98763029Y-97924906D01*
X98805362Y-97981901D01*
X98812754Y-98015604D01*
X98831391Y-98252402D01*
X98890494Y-98498589D01*
X98971477Y-98694098D01*
X98987384Y-98732502D01*
X99119672Y-98948376D01*
X99284102Y-99140898D01*
X99476624Y-99305328D01*
X99692498Y-99437616D01*
X99926409Y-99534505D01*
X100172597Y-99593609D01*
X100425000Y-99613474D01*
X100677403Y-99593609D01*
X100923591Y-99534505D01*
X101157502Y-99437616D01*
X101373376Y-99305328D01*
X101565898Y-99140898D01*
X101730328Y-98948376D01*
X101862616Y-98732502D01*
X101959505Y-98498591D01*
X102018609Y-98252403D01*
X102038474Y-98000000D01*
X102018609Y-97747597D01*
X101959505Y-97501409D01*
X101862616Y-97267498D01*
X101730328Y-97051624D01*
X101565898Y-96859102D01*
X101373376Y-96694672D01*
X101157502Y-96562384D01*
X100923591Y-96465495D01*
X100856586Y-96449408D01*
X100795018Y-96414056D01*
X100762336Y-96351030D01*
X100768917Y-96280339D01*
X100796905Y-96237797D01*
X102238657Y-94796045D01*
X102251092Y-94786084D01*
X102250905Y-94785857D01*
X102257016Y-94780801D01*
X102257015Y-94780801D01*
X102257018Y-94780800D01*
X102304352Y-94730392D01*
X102305667Y-94729035D01*
X102326134Y-94708570D01*
X102330429Y-94703032D01*
X102334271Y-94698531D01*
X102366586Y-94664121D01*
X102376345Y-94646367D01*
X102387197Y-94629846D01*
X102399613Y-94613841D01*
X102418347Y-94570548D01*
X102420961Y-94565212D01*
X102443694Y-94523861D01*
X102443695Y-94523860D01*
X102448733Y-94504235D01*
X102455138Y-94485530D01*
X102463181Y-94466945D01*
X102470563Y-94420325D01*
X102471761Y-94414544D01*
X102483500Y-94368830D01*
X102483500Y-94361793D01*
X102503502Y-94293673D01*
X102557158Y-94247180D01*
X102627432Y-94237076D01*
X102692012Y-94266570D01*
X102698595Y-94272699D01*
X104369353Y-95943457D01*
X104379320Y-95955897D01*
X104379547Y-95955710D01*
X104384599Y-95961817D01*
X104384600Y-95961818D01*
X104413354Y-95988820D01*
X104434988Y-96009135D01*
X104436377Y-96010481D01*
X104456831Y-96030935D01*
X104462370Y-96035231D01*
X104466882Y-96039085D01*
X104501278Y-96071385D01*
X104501282Y-96071388D01*
X104519030Y-96081145D01*
X104535557Y-96092001D01*
X104551560Y-96104414D01*
X104594859Y-96123151D01*
X104600185Y-96125760D01*
X104641535Y-96148493D01*
X104641538Y-96148494D01*
X104641540Y-96148495D01*
X104661162Y-96153533D01*
X104679863Y-96159935D01*
X104692414Y-96165367D01*
X104698452Y-96167980D01*
X104698453Y-96167980D01*
X104698455Y-96167981D01*
X104745077Y-96175364D01*
X104750862Y-96176563D01*
X104796570Y-96188300D01*
X104816824Y-96188300D01*
X104836534Y-96189851D01*
X104838741Y-96190200D01*
X104856543Y-96193020D01*
X104890470Y-96189812D01*
X104903517Y-96188580D01*
X104909450Y-96188300D01*
X111277606Y-96188300D01*
X111345727Y-96208302D01*
X111366701Y-96225205D01*
X111561101Y-96419605D01*
X111595127Y-96481917D01*
X111590062Y-96552732D01*
X111547515Y-96609568D01*
X111480995Y-96634379D01*
X111472006Y-96634700D01*
X110591950Y-96634700D01*
X110531403Y-96641209D01*
X110531395Y-96641211D01*
X110394397Y-96692310D01*
X110394392Y-96692312D01*
X110277338Y-96779938D01*
X110189712Y-96896992D01*
X110189710Y-96896997D01*
X110138611Y-97033995D01*
X110138609Y-97034003D01*
X110132100Y-97094550D01*
X110132100Y-98891849D01*
X110138609Y-98952396D01*
X110138611Y-98952404D01*
X110189710Y-99089402D01*
X110189712Y-99089407D01*
X110277338Y-99206461D01*
X110394392Y-99294087D01*
X110394394Y-99294088D01*
X110394396Y-99294089D01*
X110448200Y-99314157D01*
X110531395Y-99345188D01*
X110531403Y-99345190D01*
X110591950Y-99351699D01*
X110591955Y-99351699D01*
X110591962Y-99351700D01*
X110591968Y-99351700D01*
X112389232Y-99351700D01*
X112389238Y-99351700D01*
X112389245Y-99351699D01*
X112389249Y-99351699D01*
X112449796Y-99345190D01*
X112449799Y-99345189D01*
X112449801Y-99345189D01*
X112586804Y-99294089D01*
X112656999Y-99241542D01*
X112703861Y-99206461D01*
X112791486Y-99089408D01*
X112791485Y-99089408D01*
X112791489Y-99089404D01*
X112835599Y-98971139D01*
X112878145Y-98914307D01*
X112944666Y-98889496D01*
X113014040Y-98904588D01*
X113046353Y-98929835D01*
X113067129Y-98952404D01*
X113107362Y-98996108D01*
X113161931Y-99038581D01*
X113285024Y-99134389D01*
X113483026Y-99241542D01*
X113483027Y-99241542D01*
X113483028Y-99241543D01*
X113594827Y-99279923D01*
X113695965Y-99314644D01*
X113918031Y-99351700D01*
X113918035Y-99351700D01*
X114143165Y-99351700D01*
X114143169Y-99351700D01*
X114365235Y-99314644D01*
X114578174Y-99241542D01*
X114776176Y-99134389D01*
X114953840Y-98996106D01*
X115106322Y-98830468D01*
X115195118Y-98694554D01*
X115249120Y-98648468D01*
X115319468Y-98638892D01*
X115383825Y-98668869D01*
X115406080Y-98694553D01*
X115430874Y-98732502D01*
X115494875Y-98830465D01*
X115494879Y-98830470D01*
X115647362Y-98996108D01*
X115701931Y-99038581D01*
X115825024Y-99134389D01*
X116023026Y-99241542D01*
X116023027Y-99241542D01*
X116023028Y-99241543D01*
X116134827Y-99279923D01*
X116235965Y-99314644D01*
X116458031Y-99351700D01*
X116458035Y-99351700D01*
X116683165Y-99351700D01*
X116683169Y-99351700D01*
X116905235Y-99314644D01*
X117118174Y-99241542D01*
X117316176Y-99134389D01*
X117493840Y-98996106D01*
X117646322Y-98830468D01*
X117735416Y-98694098D01*
X117789419Y-98648010D01*
X117859767Y-98638435D01*
X117924124Y-98668412D01*
X117946382Y-98694098D01*
X118035274Y-98830158D01*
X118187697Y-98995734D01*
X118365298Y-99133967D01*
X118365299Y-99133968D01*
X118563228Y-99241082D01*
X118563230Y-99241083D01*
X118776083Y-99314155D01*
X118776090Y-99314157D01*
X118856599Y-99327591D01*
X118856599Y-98426874D01*
X118968285Y-98477880D01*
X119074837Y-98493200D01*
X119146363Y-98493200D01*
X119252915Y-98477880D01*
X119364600Y-98426874D01*
X119364600Y-99327590D01*
X119445107Y-99314157D01*
X119445116Y-99314155D01*
X119657969Y-99241083D01*
X119657971Y-99241082D01*
X119855900Y-99133968D01*
X119855901Y-99133967D01*
X120033502Y-98995734D01*
X120185925Y-98830158D01*
X120309019Y-98641748D01*
X120399420Y-98435656D01*
X120399423Y-98435649D01*
X120447144Y-98247200D01*
X119541716Y-98247200D01*
X119570093Y-98203044D01*
X119610600Y-98065089D01*
X119610600Y-97921311D01*
X119570093Y-97783356D01*
X119541716Y-97739200D01*
X120447144Y-97739200D01*
X120447144Y-97739199D01*
X120399423Y-97550750D01*
X120399420Y-97550743D01*
X120309019Y-97344651D01*
X120185925Y-97156241D01*
X120033502Y-96990665D01*
X119855901Y-96852432D01*
X119855900Y-96852431D01*
X119657971Y-96745317D01*
X119657969Y-96745316D01*
X119445112Y-96672243D01*
X119445101Y-96672240D01*
X119364600Y-96658806D01*
X119364600Y-97559525D01*
X119252915Y-97508520D01*
X119146363Y-97493200D01*
X119074837Y-97493200D01*
X118968285Y-97508520D01*
X118856599Y-97559525D01*
X118856599Y-96658807D01*
X118856598Y-96658806D01*
X118776084Y-96672243D01*
X118563231Y-96745316D01*
X118563228Y-96745317D01*
X118365299Y-96852431D01*
X118365298Y-96852432D01*
X118187697Y-96990665D01*
X118035270Y-97156245D01*
X117946380Y-97292301D01*
X117892376Y-97338389D01*
X117822028Y-97347964D01*
X117757671Y-97317986D01*
X117735416Y-97292301D01*
X117670287Y-97192613D01*
X117646324Y-97155934D01*
X117646320Y-97155929D01*
X117520712Y-97019485D01*
X117493840Y-96990294D01*
X117493839Y-96990293D01*
X117493837Y-96990291D01*
X117373967Y-96896992D01*
X117316176Y-96852011D01*
X117118174Y-96744858D01*
X117118172Y-96744857D01*
X117118171Y-96744856D01*
X116905239Y-96671757D01*
X116905230Y-96671755D01*
X116827629Y-96658806D01*
X116683169Y-96634700D01*
X116458031Y-96634700D01*
X116313571Y-96658806D01*
X116235969Y-96671755D01*
X116235960Y-96671757D01*
X116023028Y-96744856D01*
X116023026Y-96744858D01*
X115825026Y-96852010D01*
X115825024Y-96852011D01*
X115647362Y-96990291D01*
X115494879Y-97155929D01*
X115406083Y-97291843D01*
X115352079Y-97337931D01*
X115281731Y-97347506D01*
X115217374Y-97317529D01*
X115195117Y-97291843D01*
X115106320Y-97155929D01*
X114980712Y-97019485D01*
X114953840Y-96990294D01*
X114953839Y-96990293D01*
X114953837Y-96990291D01*
X114833967Y-96896992D01*
X114776176Y-96852011D01*
X114578174Y-96744858D01*
X114578172Y-96744857D01*
X114578171Y-96744856D01*
X114365239Y-96671757D01*
X114365230Y-96671755D01*
X114287629Y-96658806D01*
X114143169Y-96634700D01*
X113918031Y-96634700D01*
X113807096Y-96653211D01*
X113695955Y-96671757D01*
X113692813Y-96672553D01*
X113691489Y-96672503D01*
X113690824Y-96672614D01*
X113690801Y-96672477D01*
X113621867Y-96669875D01*
X113572804Y-96639499D01*
X112886700Y-95953395D01*
X112852674Y-95891083D01*
X112857739Y-95820268D01*
X112900286Y-95763432D01*
X112966806Y-95738621D01*
X112975795Y-95738300D01*
X123037446Y-95738300D01*
X123053287Y-95740049D01*
X123053315Y-95739756D01*
X123061200Y-95740500D01*
X123061208Y-95740502D01*
X123122507Y-95738575D01*
X123130275Y-95738331D01*
X123132254Y-95738300D01*
X123161150Y-95738300D01*
X123161155Y-95738300D01*
X123168117Y-95737419D01*
X123174018Y-95736954D01*
X123221188Y-95735473D01*
X123240646Y-95729819D01*
X123259993Y-95725813D01*
X123280096Y-95723274D01*
X123323978Y-95705899D01*
X123329573Y-95703983D01*
X123358115Y-95695691D01*
X123374890Y-95690819D01*
X123374894Y-95690817D01*
X123392325Y-95680508D01*
X123410079Y-95671809D01*
X123428916Y-95664352D01*
X123467085Y-95636618D01*
X123472043Y-95633362D01*
X123512661Y-95609342D01*
X123512660Y-95609342D01*
X123519488Y-95605305D01*
X123520821Y-95607559D01*
X123575018Y-95586264D01*
X123644644Y-95600147D01*
X123691674Y-95642853D01*
X123816075Y-95833265D01*
X123816078Y-95833268D01*
X123889232Y-95912734D01*
X123959275Y-95988820D01*
X123990696Y-96052485D01*
X123982709Y-96123031D01*
X123937851Y-96178060D01*
X123910607Y-96192213D01*
X123795597Y-96235110D01*
X123795592Y-96235112D01*
X123678538Y-96322738D01*
X123590912Y-96439792D01*
X123590910Y-96439797D01*
X123539811Y-96576795D01*
X123539809Y-96576803D01*
X123533300Y-96637350D01*
X123533300Y-98434649D01*
X123539809Y-98495196D01*
X123539811Y-98495204D01*
X123590910Y-98632202D01*
X123590912Y-98632207D01*
X123678538Y-98749261D01*
X123795592Y-98836887D01*
X123795594Y-98836888D01*
X123795596Y-98836889D01*
X123849400Y-98856957D01*
X123932595Y-98887988D01*
X123932603Y-98887990D01*
X123993150Y-98894499D01*
X123993155Y-98894499D01*
X123993162Y-98894500D01*
X123993168Y-98894500D01*
X125790432Y-98894500D01*
X125790438Y-98894500D01*
X125790445Y-98894499D01*
X125790449Y-98894499D01*
X125850996Y-98887990D01*
X125850999Y-98887989D01*
X125851001Y-98887989D01*
X125988004Y-98836889D01*
X125996582Y-98830468D01*
X126105061Y-98749261D01*
X126192686Y-98632208D01*
X126192685Y-98632208D01*
X126192689Y-98632204D01*
X126236799Y-98513939D01*
X126279345Y-98457107D01*
X126345866Y-98432296D01*
X126415240Y-98447388D01*
X126447553Y-98472635D01*
X126471447Y-98498591D01*
X126508562Y-98538908D01*
X126563131Y-98581381D01*
X126686224Y-98677189D01*
X126884226Y-98784342D01*
X126884227Y-98784342D01*
X126884228Y-98784343D01*
X126996027Y-98822723D01*
X127097165Y-98857444D01*
X127319231Y-98894500D01*
X127319235Y-98894500D01*
X127544365Y-98894500D01*
X127544369Y-98894500D01*
X127766435Y-98857444D01*
X127979374Y-98784342D01*
X128177376Y-98677189D01*
X128355040Y-98538906D01*
X128507522Y-98373268D01*
X128596318Y-98237354D01*
X128650320Y-98191268D01*
X128720668Y-98181692D01*
X128785025Y-98211669D01*
X128807280Y-98237353D01*
X128817113Y-98252403D01*
X128896075Y-98373265D01*
X128896079Y-98373270D01*
X129048562Y-98538908D01*
X129103131Y-98581381D01*
X129226224Y-98677189D01*
X129424226Y-98784342D01*
X129424227Y-98784342D01*
X129424228Y-98784343D01*
X129536027Y-98822723D01*
X129637165Y-98857444D01*
X129859231Y-98894500D01*
X129859235Y-98894500D01*
X130084365Y-98894500D01*
X130084369Y-98894500D01*
X130306435Y-98857444D01*
X130519374Y-98784342D01*
X130717376Y-98677189D01*
X130895040Y-98538906D01*
X131047522Y-98373268D01*
X131136318Y-98237356D01*
X131190320Y-98191268D01*
X131260668Y-98181693D01*
X131325026Y-98211670D01*
X131347283Y-98237357D01*
X131436075Y-98373265D01*
X131436079Y-98373270D01*
X131588562Y-98538908D01*
X131643131Y-98581381D01*
X131766224Y-98677189D01*
X131964226Y-98784342D01*
X131964227Y-98784342D01*
X131964228Y-98784343D01*
X132076027Y-98822723D01*
X132177165Y-98857444D01*
X132399231Y-98894500D01*
X132399235Y-98894500D01*
X132624365Y-98894500D01*
X132624369Y-98894500D01*
X132846435Y-98857444D01*
X133059374Y-98784342D01*
X133257376Y-98677189D01*
X133435040Y-98538906D01*
X133587522Y-98373268D01*
X133676318Y-98237354D01*
X133730320Y-98191268D01*
X133800668Y-98181692D01*
X133865025Y-98211669D01*
X133887280Y-98237353D01*
X133897113Y-98252403D01*
X133976075Y-98373265D01*
X133976079Y-98373270D01*
X134128562Y-98538908D01*
X134183131Y-98581381D01*
X134306224Y-98677189D01*
X134504226Y-98784342D01*
X134504227Y-98784342D01*
X134504228Y-98784343D01*
X134616027Y-98822723D01*
X134717165Y-98857444D01*
X134939231Y-98894500D01*
X134939235Y-98894500D01*
X135164365Y-98894500D01*
X135164369Y-98894500D01*
X135386435Y-98857444D01*
X135599374Y-98784342D01*
X135797376Y-98677189D01*
X135975040Y-98538906D01*
X136127522Y-98373268D01*
X136216318Y-98237354D01*
X136270320Y-98191268D01*
X136340668Y-98181692D01*
X136405025Y-98211669D01*
X136427280Y-98237353D01*
X136437113Y-98252403D01*
X136516075Y-98373265D01*
X136516079Y-98373270D01*
X136668562Y-98538908D01*
X136723131Y-98581381D01*
X136846224Y-98677189D01*
X137044226Y-98784342D01*
X137044227Y-98784342D01*
X137044228Y-98784343D01*
X137156027Y-98822723D01*
X137257165Y-98857444D01*
X137479231Y-98894500D01*
X137479235Y-98894500D01*
X137704365Y-98894500D01*
X137704369Y-98894500D01*
X137926435Y-98857444D01*
X138139374Y-98784342D01*
X138337376Y-98677189D01*
X138515040Y-98538906D01*
X138667522Y-98373268D01*
X138756318Y-98237354D01*
X138810320Y-98191268D01*
X138880668Y-98181692D01*
X138945025Y-98211669D01*
X138967280Y-98237353D01*
X138977113Y-98252403D01*
X139056075Y-98373265D01*
X139056079Y-98373270D01*
X139208562Y-98538908D01*
X139263131Y-98581381D01*
X139386224Y-98677189D01*
X139584226Y-98784342D01*
X139584227Y-98784342D01*
X139584228Y-98784343D01*
X139696027Y-98822723D01*
X139797165Y-98857444D01*
X140019231Y-98894500D01*
X140019235Y-98894500D01*
X140244365Y-98894500D01*
X140244369Y-98894500D01*
X140466435Y-98857444D01*
X140679374Y-98784342D01*
X140877376Y-98677189D01*
X141055040Y-98538906D01*
X141207522Y-98373268D01*
X141296616Y-98236898D01*
X141350619Y-98190810D01*
X141420967Y-98181235D01*
X141485324Y-98211212D01*
X141507582Y-98236898D01*
X141596474Y-98372958D01*
X141748897Y-98538534D01*
X141926498Y-98676767D01*
X141926499Y-98676768D01*
X142124428Y-98783882D01*
X142124430Y-98783883D01*
X142337283Y-98856955D01*
X142337292Y-98856957D01*
X142417800Y-98870391D01*
X142417800Y-97969674D01*
X142529485Y-98020680D01*
X142636037Y-98036000D01*
X142707563Y-98036000D01*
X142814115Y-98020680D01*
X142925800Y-97969674D01*
X142925800Y-98870390D01*
X143006307Y-98856957D01*
X143006316Y-98856955D01*
X143219169Y-98783883D01*
X143219171Y-98783882D01*
X143417100Y-98676768D01*
X143417101Y-98676767D01*
X143594702Y-98538534D01*
X143747125Y-98372958D01*
X143870219Y-98184548D01*
X143960620Y-97978456D01*
X143960623Y-97978449D01*
X144008344Y-97790000D01*
X143102916Y-97790000D01*
X143131293Y-97745844D01*
X143171800Y-97607889D01*
X143171800Y-97464111D01*
X143131293Y-97326156D01*
X143102916Y-97282000D01*
X144008344Y-97282000D01*
X144008344Y-97281999D01*
X143959833Y-97090431D01*
X143962500Y-97019485D01*
X144003100Y-96961243D01*
X144068744Y-96934197D01*
X144081977Y-96933500D01*
X146878344Y-96933500D01*
X146946465Y-96953502D01*
X146971980Y-96975190D01*
X146982019Y-96986340D01*
X147071877Y-97051625D01*
X147138220Y-97099826D01*
X147314605Y-97178357D01*
X147503462Y-97218500D01*
X147696538Y-97218500D01*
X147885395Y-97178357D01*
X148061780Y-97099826D01*
X148217982Y-96986338D01*
X148347175Y-96842854D01*
X148443713Y-96675645D01*
X148503377Y-96492019D01*
X148523559Y-96300000D01*
X148504196Y-96115772D01*
X148503377Y-96107980D01*
X148443715Y-95924360D01*
X148443711Y-95924352D01*
X148437003Y-95912734D01*
X148391122Y-95833265D01*
X148347177Y-95757149D01*
X148347176Y-95757148D01*
X148347175Y-95757146D01*
X148217982Y-95613662D01*
X148211305Y-95608811D01*
X148061780Y-95500174D01*
X147885395Y-95421643D01*
X147696538Y-95381500D01*
X147503462Y-95381500D01*
X147314604Y-95421643D01*
X147138216Y-95500176D01*
X146982020Y-95613659D01*
X146982015Y-95613664D01*
X146971980Y-95624810D01*
X146911534Y-95662050D01*
X146878344Y-95666500D01*
X144053994Y-95666500D01*
X143985873Y-95646498D01*
X143939380Y-95592842D01*
X143929276Y-95522568D01*
X143938607Y-95489886D01*
X143941800Y-95482606D01*
X143961096Y-95438616D01*
X144016364Y-95220368D01*
X144034956Y-94996000D01*
X144016364Y-94771632D01*
X143998398Y-94700686D01*
X143961097Y-94553387D01*
X143961096Y-94553386D01*
X143961096Y-94553384D01*
X143870660Y-94347209D01*
X143863940Y-94336924D01*
X143747524Y-94158734D01*
X143747520Y-94158729D01*
X143595037Y-93993091D01*
X143513182Y-93929381D01*
X143417376Y-93854811D01*
X143219374Y-93747658D01*
X143219372Y-93747657D01*
X143219371Y-93747656D01*
X143006439Y-93674557D01*
X143006430Y-93674555D01*
X142962276Y-93667187D01*
X142784369Y-93637500D01*
X142559231Y-93637500D01*
X142448296Y-93656011D01*
X142337155Y-93674557D01*
X142334013Y-93675353D01*
X142332689Y-93675303D01*
X142332024Y-93675414D01*
X142332001Y-93675277D01*
X142263067Y-93672675D01*
X142214004Y-93642299D01*
X142004044Y-93432339D01*
X141994079Y-93419901D01*
X141993852Y-93420090D01*
X141988801Y-93413984D01*
X141988800Y-93413982D01*
X141964079Y-93390768D01*
X141938426Y-93366678D01*
X141937036Y-93365331D01*
X141926790Y-93355085D01*
X141916576Y-93344870D01*
X141916572Y-93344866D01*
X141911025Y-93340563D01*
X141906517Y-93336712D01*
X141872125Y-93304417D01*
X141872119Y-93304413D01*
X141854363Y-93294651D01*
X141837847Y-93283802D01*
X141821841Y-93271386D01*
X141791089Y-93258078D01*
X141778540Y-93252648D01*
X141773208Y-93250036D01*
X141731861Y-93227305D01*
X141712236Y-93222266D01*
X141693536Y-93215864D01*
X141674945Y-93207819D01*
X141674943Y-93207818D01*
X141674942Y-93207818D01*
X141628342Y-93200437D01*
X141622529Y-93199233D01*
X141576830Y-93187500D01*
X141556576Y-93187500D01*
X141536866Y-93185949D01*
X141516857Y-93182780D01*
X141516856Y-93182780D01*
X141469883Y-93187220D01*
X141463950Y-93187500D01*
X139907791Y-93187500D01*
X139839670Y-93167498D01*
X139818695Y-93150595D01*
X139650438Y-92982337D01*
X139640475Y-92969902D01*
X139640249Y-92970090D01*
X139635196Y-92963982D01*
X139584822Y-92916678D01*
X139583432Y-92915331D01*
X139573186Y-92905085D01*
X139562972Y-92894870D01*
X139562968Y-92894866D01*
X139557421Y-92890563D01*
X139552913Y-92886712D01*
X139518521Y-92854417D01*
X139518515Y-92854413D01*
X139500759Y-92844651D01*
X139484243Y-92833802D01*
X139468237Y-92821386D01*
X139437485Y-92808078D01*
X139424936Y-92802648D01*
X139419604Y-92800036D01*
X139378257Y-92777305D01*
X139358632Y-92772266D01*
X139339932Y-92765864D01*
X139321341Y-92757819D01*
X139321339Y-92757818D01*
X139321338Y-92757818D01*
X139274738Y-92750437D01*
X139268925Y-92749233D01*
X139223226Y-92737500D01*
X139202972Y-92737500D01*
X139183262Y-92735949D01*
X139163253Y-92732780D01*
X139163252Y-92732780D01*
X139116279Y-92737220D01*
X139110346Y-92737500D01*
X137606090Y-92737500D01*
X137537969Y-92717498D01*
X137516995Y-92700595D01*
X136898739Y-92082339D01*
X136888774Y-92069901D01*
X136888547Y-92070090D01*
X136883496Y-92063984D01*
X136883495Y-92063982D01*
X136833121Y-92016678D01*
X136831732Y-92015332D01*
X136821485Y-92005085D01*
X136811271Y-91994870D01*
X136811267Y-91994866D01*
X136805720Y-91990563D01*
X136801212Y-91986712D01*
X136766820Y-91954417D01*
X136766814Y-91954413D01*
X136749058Y-91944651D01*
X136732542Y-91933802D01*
X136716536Y-91921386D01*
X136685784Y-91908078D01*
X136673235Y-91902648D01*
X136667903Y-91900036D01*
X136626556Y-91877305D01*
X136606931Y-91872266D01*
X136588231Y-91865864D01*
X136569640Y-91857819D01*
X136569638Y-91857818D01*
X136569637Y-91857818D01*
X136523037Y-91850437D01*
X136517224Y-91849233D01*
X136471525Y-91837500D01*
X136451271Y-91837500D01*
X136431561Y-91835949D01*
X136411552Y-91832780D01*
X136411551Y-91832780D01*
X136364578Y-91837220D01*
X136358645Y-91837500D01*
X135775888Y-91837500D01*
X135707767Y-91817498D01*
X135686793Y-91800595D01*
X135081758Y-91195560D01*
X135047732Y-91133248D01*
X135052797Y-91062433D01*
X135077215Y-91022157D01*
X135161692Y-90928337D01*
X135258230Y-90761128D01*
X135317894Y-90577502D01*
X135338076Y-90385483D01*
X135317894Y-90193464D01*
X135317894Y-90193463D01*
X135258232Y-90009843D01*
X135258228Y-90009835D01*
X135161694Y-89842632D01*
X135161693Y-89842631D01*
X135161692Y-89842629D01*
X135032499Y-89699145D01*
X135026342Y-89694672D01*
X134876297Y-89585657D01*
X134699912Y-89507126D01*
X134511055Y-89466983D01*
X134317979Y-89466983D01*
X134129122Y-89507126D01*
X134127528Y-89507644D01*
X134126554Y-89507671D01*
X134122663Y-89508499D01*
X134122511Y-89507787D01*
X134056560Y-89509670D01*
X133999498Y-89476905D01*
X131921189Y-87398595D01*
X131887163Y-87336283D01*
X131892228Y-87265467D01*
X131934775Y-87208632D01*
X132001295Y-87183821D01*
X132010284Y-87183500D01*
X134274853Y-87183500D01*
X134342974Y-87203502D01*
X134363948Y-87220405D01*
X135732200Y-88588657D01*
X135742167Y-88601097D01*
X135742394Y-88600910D01*
X135747446Y-88607017D01*
X135797835Y-88654335D01*
X135799224Y-88655681D01*
X135809465Y-88665922D01*
X135819673Y-88676131D01*
X135825215Y-88680430D01*
X135829728Y-88684285D01*
X135864126Y-88716586D01*
X135864127Y-88716586D01*
X135864129Y-88716588D01*
X135881876Y-88726344D01*
X135898406Y-88737202D01*
X135914406Y-88749613D01*
X135945583Y-88763104D01*
X135957698Y-88768347D01*
X135963032Y-88770959D01*
X136004387Y-88793695D01*
X136024009Y-88798733D01*
X136042710Y-88805135D01*
X136061302Y-88813181D01*
X136107917Y-88820563D01*
X136113689Y-88821758D01*
X136159417Y-88833500D01*
X136179678Y-88833500D01*
X136199386Y-88835050D01*
X136219390Y-88838219D01*
X136252906Y-88835051D01*
X136266357Y-88833780D01*
X136272289Y-88833500D01*
X139823758Y-88833500D01*
X139891879Y-88853502D01*
X139912853Y-88870405D01*
X139931107Y-88888659D01*
X139941072Y-88901096D01*
X139941299Y-88900909D01*
X139946353Y-88907018D01*
X139996725Y-88954320D01*
X139998114Y-88955666D01*
X140008362Y-88965914D01*
X140018577Y-88976130D01*
X140018581Y-88976133D01*
X140018583Y-88976135D01*
X140024135Y-88980442D01*
X140028622Y-88984273D01*
X140051312Y-89005581D01*
X140063030Y-89016585D01*
X140063032Y-89016586D01*
X140080781Y-89026343D01*
X140097306Y-89037198D01*
X140113312Y-89049614D01*
X140155039Y-89067670D01*
X140156615Y-89068352D01*
X140161936Y-89070958D01*
X140203293Y-89093695D01*
X140203301Y-89093697D01*
X140222911Y-89098732D01*
X140241620Y-89105137D01*
X140260208Y-89113181D01*
X140306830Y-89120564D01*
X140312615Y-89121763D01*
X140358323Y-89133500D01*
X140378577Y-89133500D01*
X140398287Y-89135051D01*
X140400494Y-89135400D01*
X140418296Y-89138220D01*
X140452223Y-89135012D01*
X140465270Y-89133780D01*
X140471203Y-89133500D01*
X144278344Y-89133500D01*
X144346465Y-89153502D01*
X144371980Y-89175190D01*
X144382019Y-89186340D01*
X144475585Y-89254319D01*
X144538220Y-89299826D01*
X144714605Y-89378357D01*
X144903462Y-89418500D01*
X145096538Y-89418500D01*
X145285395Y-89378357D01*
X145461780Y-89299826D01*
X145617982Y-89186338D01*
X145747175Y-89042854D01*
X145843713Y-88875645D01*
X145903377Y-88692019D01*
X145923559Y-88500000D01*
X145903377Y-88307981D01*
X145843713Y-88124355D01*
X145747175Y-87957146D01*
X145617982Y-87813662D01*
X145601245Y-87801502D01*
X145461780Y-87700174D01*
X145285395Y-87621643D01*
X145096538Y-87581500D01*
X144903462Y-87581500D01*
X144714604Y-87621643D01*
X144538216Y-87700176D01*
X144382020Y-87813659D01*
X144382015Y-87813664D01*
X144371980Y-87824810D01*
X144311534Y-87862050D01*
X144278344Y-87866500D01*
X140752948Y-87866500D01*
X140684827Y-87846498D01*
X140663853Y-87829595D01*
X140645597Y-87811339D01*
X140635633Y-87798902D01*
X140635406Y-87799090D01*
X140630353Y-87792982D01*
X140579979Y-87745678D01*
X140578589Y-87744331D01*
X140568343Y-87734085D01*
X140558129Y-87723870D01*
X140558125Y-87723866D01*
X140552578Y-87719563D01*
X140548070Y-87715712D01*
X140513678Y-87683417D01*
X140513672Y-87683413D01*
X140495916Y-87673651D01*
X140479400Y-87662802D01*
X140463394Y-87650386D01*
X140432642Y-87637078D01*
X140420093Y-87631648D01*
X140414762Y-87629036D01*
X140385653Y-87613034D01*
X140335593Y-87562690D01*
X140320698Y-87493274D01*
X140321042Y-87489444D01*
X140323559Y-87465501D01*
X140314834Y-87382492D01*
X140309978Y-87336283D01*
X140303377Y-87273480D01*
X140243715Y-87089860D01*
X140243711Y-87089852D01*
X140217842Y-87045046D01*
X140163226Y-86950447D01*
X140147177Y-86922649D01*
X140147176Y-86922648D01*
X140147175Y-86922646D01*
X140017982Y-86779162D01*
X139861780Y-86665674D01*
X139685395Y-86587143D01*
X139496538Y-86547000D01*
X139353094Y-86547000D01*
X139284973Y-86526998D01*
X139238480Y-86473342D01*
X139228376Y-86403068D01*
X139257870Y-86338488D01*
X139263984Y-86331919D01*
X139388664Y-86207239D01*
X139401098Y-86197280D01*
X139400910Y-86197053D01*
X139407016Y-86192001D01*
X139407015Y-86192001D01*
X139407018Y-86192000D01*
X139454338Y-86141607D01*
X139455652Y-86140251D01*
X139476135Y-86119770D01*
X139480445Y-86114212D01*
X139484274Y-86109729D01*
X139516586Y-86075321D01*
X139526346Y-86057565D01*
X139537195Y-86041050D01*
X139549614Y-86025041D01*
X139568363Y-85981710D01*
X139570953Y-85976423D01*
X139593695Y-85935060D01*
X139598733Y-85915434D01*
X139605137Y-85896732D01*
X139613180Y-85878147D01*
X139613179Y-85878147D01*
X139613181Y-85878145D01*
X139620561Y-85831547D01*
X139621762Y-85825740D01*
X139633500Y-85780030D01*
X139633500Y-85759775D01*
X139635051Y-85740063D01*
X139638220Y-85720055D01*
X139638469Y-85712134D01*
X139640955Y-85712212D01*
X139652111Y-85654580D01*
X139670420Y-85628098D01*
X139747175Y-85542854D01*
X139843713Y-85375645D01*
X139903377Y-85192019D01*
X139923559Y-85000000D01*
X139903377Y-84807981D01*
X139896150Y-84785738D01*
X139843715Y-84624360D01*
X139843711Y-84624352D01*
X139747177Y-84457149D01*
X139747176Y-84457148D01*
X139747175Y-84457146D01*
X139617982Y-84313662D01*
X139587367Y-84291419D01*
X139461780Y-84200174D01*
X139285395Y-84121643D01*
X139096538Y-84081500D01*
X138903462Y-84081500D01*
X138714604Y-84121643D01*
X138538216Y-84200176D01*
X138382018Y-84313661D01*
X138252822Y-84457149D01*
X138156288Y-84624352D01*
X138156284Y-84624360D01*
X138096622Y-84807980D01*
X138076441Y-85000000D01*
X138096622Y-85192019D01*
X138156284Y-85375639D01*
X138156287Y-85375646D01*
X138207563Y-85464458D01*
X138224301Y-85533453D01*
X138201081Y-85600545D01*
X138187540Y-85616553D01*
X137459000Y-86345095D01*
X137396687Y-86379120D01*
X137369904Y-86382000D01*
X136642333Y-86382000D01*
X136574212Y-86361998D01*
X136553238Y-86345095D01*
X135469483Y-85261339D01*
X135459518Y-85248901D01*
X135459291Y-85249090D01*
X135454240Y-85242984D01*
X135454239Y-85242982D01*
X135403864Y-85195677D01*
X135402475Y-85194331D01*
X135392113Y-85183969D01*
X135382015Y-85173870D01*
X135382011Y-85173866D01*
X135376464Y-85169563D01*
X135371956Y-85165712D01*
X135337564Y-85133417D01*
X135337558Y-85133413D01*
X135319802Y-85123651D01*
X135303286Y-85112802D01*
X135287280Y-85100386D01*
X135256528Y-85087078D01*
X135243979Y-85081648D01*
X135238647Y-85079036D01*
X135197300Y-85056305D01*
X135177675Y-85051266D01*
X135158975Y-85044864D01*
X135158568Y-85044688D01*
X135140384Y-85036819D01*
X135140382Y-85036818D01*
X135140381Y-85036818D01*
X135093781Y-85029437D01*
X135087968Y-85028233D01*
X135042269Y-85016500D01*
X135022015Y-85016500D01*
X135002305Y-85014949D01*
X134982296Y-85011780D01*
X134982295Y-85011780D01*
X134935322Y-85016220D01*
X134929389Y-85016500D01*
X126374598Y-85016500D01*
X126306477Y-84996498D01*
X126285503Y-84979595D01*
X121125909Y-79820000D01*
X135301908Y-79820000D01*
X135322237Y-80052355D01*
X135382604Y-80277652D01*
X135382606Y-80277657D01*
X135481178Y-80489046D01*
X135534948Y-80565838D01*
X136113096Y-79987690D01*
X136116884Y-80005915D01*
X136186442Y-80140156D01*
X136289638Y-80250652D01*
X136418819Y-80329209D01*
X136474420Y-80344787D01*
X135894160Y-80925048D01*
X135894160Y-80925051D01*
X135970953Y-80978821D01*
X135970955Y-80978822D01*
X136182342Y-81077393D01*
X136182347Y-81077395D01*
X136407644Y-81137762D01*
X136640000Y-81158091D01*
X136872355Y-81137762D01*
X137097652Y-81077395D01*
X137097657Y-81077393D01*
X137309045Y-80978822D01*
X137385838Y-80925050D01*
X137385838Y-80925049D01*
X136807624Y-80346834D01*
X136928458Y-80294349D01*
X137045739Y-80198934D01*
X137132928Y-80075415D01*
X137164838Y-79985628D01*
X137745048Y-80565838D01*
X137745050Y-80565838D01*
X137798822Y-80489045D01*
X137897393Y-80277657D01*
X137897395Y-80277652D01*
X137957762Y-80052355D01*
X137978091Y-79820000D01*
X145461406Y-79820000D01*
X145481742Y-80052444D01*
X145510230Y-80158764D01*
X145542132Y-80277824D01*
X145542134Y-80277828D01*
X145640744Y-80489297D01*
X145767688Y-80670593D01*
X145774578Y-80680432D01*
X145939568Y-80845422D01*
X146130703Y-80979256D01*
X146342174Y-81077867D01*
X146567556Y-81138258D01*
X146800000Y-81158594D01*
X147032444Y-81138258D01*
X147257826Y-81077867D01*
X147469297Y-80979256D01*
X147660432Y-80845422D01*
X147825422Y-80680432D01*
X147959256Y-80489297D01*
X148057867Y-80277826D01*
X148118258Y-80052444D01*
X148138594Y-79820000D01*
X148118258Y-79587556D01*
X148057867Y-79362174D01*
X147959256Y-79150703D01*
X147825422Y-78959568D01*
X147660432Y-78794578D01*
X147642394Y-78781948D01*
X147469297Y-78660744D01*
X147257828Y-78562134D01*
X147257824Y-78562132D01*
X147123024Y-78526013D01*
X147032444Y-78501742D01*
X146800000Y-78481406D01*
X146567556Y-78501742D01*
X146531217Y-78511479D01*
X146342175Y-78562132D01*
X146342171Y-78562134D01*
X146130702Y-78660744D01*
X145939571Y-78794575D01*
X145939565Y-78794580D01*
X145774580Y-78959565D01*
X145774575Y-78959571D01*
X145640744Y-79150702D01*
X145542134Y-79362171D01*
X145542132Y-79362175D01*
X145525463Y-79424387D01*
X145481742Y-79587556D01*
X145461406Y-79820000D01*
X137978091Y-79820000D01*
X137957762Y-79587644D01*
X137897395Y-79362347D01*
X137897393Y-79362342D01*
X137798822Y-79150955D01*
X137798821Y-79150953D01*
X137745051Y-79074160D01*
X137745049Y-79074160D01*
X137166902Y-79652306D01*
X137163116Y-79634085D01*
X137093558Y-79499844D01*
X136990362Y-79389348D01*
X136861181Y-79310791D01*
X136805576Y-79295211D01*
X137385838Y-78714948D01*
X137309046Y-78661178D01*
X137097657Y-78562606D01*
X137097652Y-78562604D01*
X136872355Y-78502237D01*
X136640000Y-78481908D01*
X136407644Y-78502237D01*
X136182347Y-78562604D01*
X136182342Y-78562606D01*
X135970951Y-78661179D01*
X135894159Y-78714949D01*
X136472375Y-79293165D01*
X136351542Y-79345651D01*
X136234261Y-79441066D01*
X136147072Y-79564585D01*
X136115161Y-79654371D01*
X135534949Y-79074159D01*
X135481179Y-79150951D01*
X135382606Y-79362342D01*
X135382604Y-79362347D01*
X135322237Y-79587644D01*
X135301908Y-79820000D01*
X121125909Y-79820000D01*
X116470405Y-75164496D01*
X116436379Y-75102184D01*
X116433500Y-75075401D01*
X116433500Y-70317469D01*
X116453502Y-70249348D01*
X116465858Y-70233165D01*
X116547175Y-70142854D01*
X116643713Y-69975645D01*
X116703377Y-69792019D01*
X116723559Y-69600000D01*
X116703377Y-69407981D01*
X116700719Y-69399800D01*
X116643715Y-69224360D01*
X116643711Y-69224352D01*
X116547177Y-69057149D01*
X116547176Y-69057148D01*
X116547175Y-69057146D01*
X116417982Y-68913662D01*
X116261780Y-68800174D01*
X116085395Y-68721643D01*
X115896538Y-68681500D01*
X115797700Y-68681500D01*
X115729579Y-68661498D01*
X115683086Y-68607842D01*
X115671700Y-68555500D01*
X115671700Y-66328655D01*
X115673449Y-66312814D01*
X115673156Y-66312787D01*
X115673902Y-66304893D01*
X115671731Y-66235823D01*
X115671700Y-66233844D01*
X115671700Y-66204949D01*
X115671700Y-66204944D01*
X115670819Y-66197978D01*
X115670355Y-66192082D01*
X115668873Y-66144910D01*
X115663222Y-66125463D01*
X115659212Y-66106100D01*
X115656674Y-66086003D01*
X115639299Y-66042120D01*
X115637379Y-66036511D01*
X115636803Y-66034527D01*
X115624218Y-65991207D01*
X115613905Y-65973769D01*
X115605210Y-65956022D01*
X115597752Y-65937183D01*
X115570021Y-65899015D01*
X115566762Y-65894055D01*
X115559352Y-65881525D01*
X115542742Y-65853437D01*
X115542741Y-65853435D01*
X115528418Y-65839112D01*
X115515577Y-65824079D01*
X115503671Y-65807692D01*
X115496229Y-65801535D01*
X115467308Y-65777610D01*
X115462936Y-65773631D01*
X113662643Y-63973338D01*
X113652679Y-63960901D01*
X113652452Y-63961090D01*
X113647401Y-63954984D01*
X113647400Y-63954982D01*
X113597026Y-63907678D01*
X113595637Y-63906332D01*
X113585390Y-63896085D01*
X113575176Y-63885870D01*
X113575172Y-63885866D01*
X113569625Y-63881563D01*
X113565117Y-63877712D01*
X113530725Y-63845417D01*
X113530719Y-63845413D01*
X113512963Y-63835651D01*
X113496447Y-63824802D01*
X113480441Y-63812386D01*
X113449689Y-63799078D01*
X113437140Y-63793648D01*
X113431808Y-63791036D01*
X113390461Y-63768305D01*
X113370836Y-63763266D01*
X113352136Y-63756864D01*
X113333545Y-63748819D01*
X113333543Y-63748818D01*
X113333542Y-63748818D01*
X113286942Y-63741437D01*
X113281129Y-63740233D01*
X113235430Y-63728500D01*
X113215176Y-63728500D01*
X113195466Y-63726949D01*
X113175457Y-63723780D01*
X113175456Y-63723780D01*
X113128483Y-63728220D01*
X113122550Y-63728500D01*
X99453990Y-63728500D01*
X99385869Y-63708498D01*
X99339376Y-63654842D01*
X99328681Y-63615675D01*
X99328377Y-63612781D01*
X99268713Y-63429155D01*
X99172175Y-63261946D01*
X99042982Y-63118462D01*
X98886780Y-63004974D01*
X98710395Y-62926443D01*
X98521538Y-62886300D01*
X98328462Y-62886300D01*
X98139604Y-62926443D01*
X97963216Y-63004976D01*
X97807018Y-63118461D01*
X97677822Y-63261949D01*
X97581288Y-63429152D01*
X97581284Y-63429160D01*
X97521622Y-63612780D01*
X97501441Y-63804800D01*
X97521622Y-63996819D01*
X97581284Y-64180439D01*
X97581288Y-64180447D01*
X97677822Y-64347650D01*
X97677823Y-64347652D01*
X97677825Y-64347654D01*
X97807018Y-64491138D01*
X97963220Y-64604626D01*
X98139605Y-64683157D01*
X98328462Y-64723300D01*
X98393088Y-64723300D01*
X98461209Y-64743302D01*
X98484271Y-64763752D01*
X98484422Y-64763592D01*
X98490048Y-64768875D01*
X98490173Y-64768986D01*
X98490197Y-64769015D01*
X98540572Y-64816320D01*
X98541961Y-64817666D01*
X98552209Y-64827914D01*
X98562424Y-64838130D01*
X98562428Y-64838133D01*
X98562430Y-64838135D01*
X98567982Y-64842442D01*
X98572469Y-64846273D01*
X98595159Y-64867581D01*
X98606877Y-64878585D01*
X98606879Y-64878586D01*
X98624628Y-64888343D01*
X98641153Y-64899198D01*
X98657159Y-64911614D01*
X98698886Y-64929670D01*
X98700462Y-64930352D01*
X98705783Y-64932958D01*
X98747140Y-64955695D01*
X98747148Y-64955697D01*
X98766758Y-64960732D01*
X98785467Y-64967137D01*
X98804055Y-64975181D01*
X98850677Y-64982564D01*
X98856462Y-64983763D01*
X98902170Y-64995500D01*
X98922424Y-64995500D01*
X98942134Y-64997051D01*
X98944341Y-64997400D01*
X98962143Y-65000220D01*
X98996070Y-64997012D01*
X99009117Y-64995780D01*
X99015050Y-64995500D01*
X112840806Y-64995500D01*
X112908927Y-65015502D01*
X112929901Y-65032405D01*
X114367794Y-66470298D01*
X114401820Y-66532610D01*
X114404699Y-66559393D01*
X114404699Y-79059750D01*
X114384697Y-79127871D01*
X114331041Y-79174364D01*
X114260767Y-79184468D01*
X114196187Y-79154974D01*
X114189604Y-79148845D01*
X113822707Y-78781948D01*
X113788681Y-78719636D01*
X113786494Y-78706039D01*
X113767727Y-78527477D01*
X113767252Y-78526014D01*
X113708065Y-78343856D01*
X113708061Y-78343848D01*
X113702170Y-78333645D01*
X113643795Y-78232536D01*
X113611527Y-78176645D01*
X113611526Y-78176644D01*
X113611525Y-78176642D01*
X113482332Y-78033158D01*
X113326130Y-77919670D01*
X113149745Y-77841139D01*
X112960888Y-77800996D01*
X112767812Y-77800996D01*
X112578954Y-77841139D01*
X112402566Y-77919672D01*
X112246368Y-78033157D01*
X112117172Y-78176645D01*
X112020638Y-78343848D01*
X112020634Y-78343856D01*
X111960972Y-78527476D01*
X111940791Y-78719496D01*
X111960972Y-78911515D01*
X112020634Y-79095135D01*
X112020638Y-79095143D01*
X112117172Y-79262346D01*
X112117173Y-79262348D01*
X112117175Y-79262350D01*
X112246368Y-79405834D01*
X112402570Y-79519322D01*
X112578955Y-79597853D01*
X112767812Y-79637996D01*
X112834756Y-79637996D01*
X112902877Y-79657998D01*
X112923851Y-79674901D01*
X113919543Y-80670593D01*
X113953569Y-80732905D01*
X113956386Y-80755727D01*
X113957526Y-80792001D01*
X113957527Y-80792006D01*
X113963177Y-80811452D01*
X113967186Y-80830810D01*
X113969725Y-80850906D01*
X113969726Y-80850912D01*
X113987093Y-80894775D01*
X113989016Y-80900392D01*
X114002182Y-80945706D01*
X114012494Y-80963144D01*
X114021188Y-80980892D01*
X114028644Y-80999722D01*
X114028650Y-80999733D01*
X114056377Y-81037896D01*
X114059637Y-81042859D01*
X114079261Y-81076040D01*
X114080341Y-81077867D01*
X114083660Y-81083478D01*
X114097979Y-81097797D01*
X114110817Y-81112827D01*
X114120356Y-81125956D01*
X114122728Y-81129220D01*
X114133054Y-81137762D01*
X114159086Y-81159298D01*
X114163467Y-81163284D01*
X114579622Y-81579439D01*
X114957595Y-81957412D01*
X114991621Y-82019724D01*
X114994500Y-82046507D01*
X114994499Y-84860946D01*
X114992751Y-84876788D01*
X114993044Y-84876816D01*
X114992298Y-84884708D01*
X114994469Y-84953774D01*
X114994500Y-84955753D01*
X114994500Y-84984651D01*
X114994501Y-84984672D01*
X114995378Y-84991620D01*
X114995844Y-84997532D01*
X114997326Y-85044688D01*
X114997327Y-85044693D01*
X115002977Y-85064139D01*
X115006986Y-85083497D01*
X115009525Y-85103593D01*
X115009526Y-85103599D01*
X115026893Y-85147462D01*
X115028816Y-85153079D01*
X115041982Y-85198393D01*
X115052294Y-85215831D01*
X115060988Y-85233579D01*
X115068444Y-85252409D01*
X115068450Y-85252420D01*
X115096177Y-85290583D01*
X115099437Y-85295546D01*
X115123460Y-85336165D01*
X115137779Y-85350484D01*
X115150617Y-85365514D01*
X115156238Y-85373250D01*
X115162528Y-85381907D01*
X115190794Y-85405291D01*
X115198886Y-85411985D01*
X115203267Y-85415971D01*
X115665437Y-85878141D01*
X116096953Y-86309657D01*
X116106920Y-86322097D01*
X116107147Y-86321910D01*
X116112199Y-86328017D01*
X116162588Y-86375335D01*
X116163977Y-86376681D01*
X116169296Y-86382000D01*
X116184426Y-86397131D01*
X116189968Y-86401430D01*
X116194481Y-86405285D01*
X116228879Y-86437586D01*
X116228880Y-86437586D01*
X116228882Y-86437588D01*
X116246629Y-86447344D01*
X116263159Y-86458202D01*
X116279159Y-86470613D01*
X116310336Y-86484104D01*
X116322451Y-86489347D01*
X116327785Y-86491959D01*
X116369140Y-86514695D01*
X116388762Y-86519733D01*
X116407463Y-86526135D01*
X116420014Y-86531567D01*
X116426052Y-86534180D01*
X116426053Y-86534180D01*
X116426055Y-86534181D01*
X116472677Y-86541564D01*
X116478462Y-86542763D01*
X116524170Y-86554500D01*
X116544424Y-86554500D01*
X116564134Y-86556051D01*
X116566341Y-86556400D01*
X116584143Y-86559220D01*
X116618070Y-86556012D01*
X116631117Y-86554780D01*
X116637050Y-86554500D01*
X121561638Y-86554500D01*
X121629759Y-86574502D01*
X121650733Y-86591405D01*
X124247987Y-89188660D01*
X124257952Y-89201097D01*
X124258179Y-89200910D01*
X124263231Y-89207017D01*
X124313603Y-89254319D01*
X124314992Y-89255665D01*
X124325240Y-89265913D01*
X124335456Y-89276130D01*
X124335460Y-89276133D01*
X124335462Y-89276135D01*
X124341014Y-89280442D01*
X124345501Y-89284273D01*
X124362062Y-89299825D01*
X124379909Y-89316585D01*
X124379911Y-89316586D01*
X124397660Y-89326343D01*
X124414185Y-89337198D01*
X124430191Y-89349614D01*
X124471918Y-89367670D01*
X124473494Y-89368352D01*
X124478815Y-89370958D01*
X124520172Y-89393695D01*
X124520180Y-89393697D01*
X124539790Y-89398732D01*
X124558499Y-89405137D01*
X124577087Y-89413181D01*
X124623709Y-89420564D01*
X124629494Y-89421763D01*
X124675202Y-89433500D01*
X124695456Y-89433500D01*
X124715166Y-89435051D01*
X124717373Y-89435400D01*
X124735175Y-89438220D01*
X124769102Y-89435012D01*
X124782149Y-89433780D01*
X124788082Y-89433500D01*
X129566511Y-89433500D01*
X129634632Y-89453502D01*
X129655606Y-89470405D01*
X130914752Y-90729551D01*
X130948778Y-90791863D01*
X130945490Y-90857582D01*
X130896622Y-91007980D01*
X130876441Y-91200000D01*
X130896622Y-91392019D01*
X130956284Y-91575639D01*
X130956288Y-91575647D01*
X131052822Y-91742850D01*
X131052823Y-91742852D01*
X131052825Y-91742854D01*
X131182018Y-91886338D01*
X131338220Y-91999826D01*
X131514605Y-92078357D01*
X131703462Y-92118500D01*
X131896529Y-92118500D01*
X131896538Y-92118500D01*
X131896546Y-92118498D01*
X131900235Y-92118110D01*
X131902369Y-92118500D01*
X131903142Y-92118500D01*
X131903142Y-92118641D01*
X131970075Y-92130872D01*
X132002515Y-92154320D01*
X132820600Y-92972406D01*
X132854625Y-93034717D01*
X132849560Y-93105533D01*
X132807013Y-93162368D01*
X132740493Y-93187179D01*
X132731504Y-93187500D01*
X132045888Y-93187500D01*
X131977767Y-93167498D01*
X131956793Y-93150595D01*
X131338537Y-92532339D01*
X131328572Y-92519901D01*
X131328345Y-92520090D01*
X131323294Y-92513984D01*
X131323293Y-92513982D01*
X131272919Y-92466678D01*
X131271530Y-92465332D01*
X131261283Y-92455085D01*
X131251069Y-92444870D01*
X131251065Y-92444866D01*
X131245518Y-92440563D01*
X131241010Y-92436712D01*
X131206618Y-92404417D01*
X131206612Y-92404413D01*
X131188856Y-92394651D01*
X131172340Y-92383802D01*
X131156334Y-92371386D01*
X131125582Y-92358078D01*
X131113033Y-92352648D01*
X131107701Y-92350036D01*
X131066354Y-92327305D01*
X131046729Y-92322266D01*
X131028029Y-92315864D01*
X131009438Y-92307819D01*
X131009436Y-92307818D01*
X131009435Y-92307818D01*
X130962835Y-92300437D01*
X130957022Y-92299233D01*
X130911323Y-92287500D01*
X130891069Y-92287500D01*
X130871359Y-92285949D01*
X130851350Y-92282780D01*
X130851349Y-92282780D01*
X130804376Y-92287220D01*
X130798443Y-92287500D01*
X129878680Y-92287500D01*
X129810559Y-92267498D01*
X129789585Y-92250595D01*
X129171329Y-91632339D01*
X129161364Y-91619901D01*
X129161137Y-91620090D01*
X129156086Y-91613984D01*
X129156085Y-91613982D01*
X129105711Y-91566678D01*
X129104322Y-91565332D01*
X129094075Y-91555085D01*
X129083861Y-91544870D01*
X129083857Y-91544866D01*
X129078310Y-91540563D01*
X129073802Y-91536712D01*
X129039410Y-91504417D01*
X129039404Y-91504413D01*
X129021648Y-91494651D01*
X129005132Y-91483802D01*
X128989126Y-91471386D01*
X128958374Y-91458078D01*
X128945825Y-91452648D01*
X128940493Y-91450036D01*
X128899146Y-91427305D01*
X128879521Y-91422266D01*
X128860821Y-91415864D01*
X128842230Y-91407819D01*
X128842228Y-91407818D01*
X128842227Y-91407818D01*
X128795627Y-91400437D01*
X128789814Y-91399233D01*
X128744115Y-91387500D01*
X128723861Y-91387500D01*
X128704151Y-91385949D01*
X128684142Y-91382780D01*
X128684141Y-91382780D01*
X128637168Y-91387220D01*
X128631235Y-91387500D01*
X127978775Y-91387500D01*
X127910654Y-91367498D01*
X127889679Y-91350595D01*
X127721422Y-91182337D01*
X127711459Y-91169902D01*
X127711233Y-91170090D01*
X127706180Y-91163982D01*
X127655806Y-91116678D01*
X127654416Y-91115331D01*
X127642247Y-91103162D01*
X127633956Y-91094870D01*
X127633952Y-91094866D01*
X127628405Y-91090563D01*
X127623897Y-91086712D01*
X127589505Y-91054417D01*
X127589499Y-91054413D01*
X127571743Y-91044651D01*
X127555227Y-91033802D01*
X127539221Y-91021386D01*
X127508241Y-91007980D01*
X127495920Y-91002648D01*
X127490588Y-91000036D01*
X127449241Y-90977305D01*
X127429616Y-90972266D01*
X127410916Y-90965864D01*
X127392325Y-90957819D01*
X127392323Y-90957818D01*
X127392322Y-90957818D01*
X127345722Y-90950437D01*
X127339909Y-90949233D01*
X127294210Y-90937500D01*
X127273956Y-90937500D01*
X127254246Y-90935949D01*
X127234237Y-90932780D01*
X127234236Y-90932780D01*
X127187263Y-90937220D01*
X127181330Y-90937500D01*
X123556968Y-90937500D01*
X123541129Y-90935751D01*
X123541102Y-90936045D01*
X123533210Y-90935299D01*
X123464163Y-90937469D01*
X123462184Y-90937500D01*
X123433263Y-90937500D01*
X123426291Y-90938379D01*
X123420384Y-90938844D01*
X123373229Y-90940326D01*
X123373224Y-90940327D01*
X123353779Y-90945977D01*
X123334421Y-90949986D01*
X123314326Y-90952524D01*
X123314324Y-90952525D01*
X123270443Y-90969897D01*
X123264828Y-90971819D01*
X123219529Y-90984980D01*
X123219523Y-90984982D01*
X123202085Y-90995295D01*
X123184339Y-91003989D01*
X123165500Y-91011448D01*
X123165499Y-91011449D01*
X123127332Y-91039178D01*
X123122371Y-91042437D01*
X123081756Y-91066458D01*
X123067426Y-91080787D01*
X123052400Y-91093620D01*
X123036014Y-91105526D01*
X123036013Y-91105526D01*
X123005937Y-91141880D01*
X123001941Y-91146271D01*
X121963817Y-92184396D01*
X121901507Y-92218420D01*
X121874724Y-92221300D01*
X106309571Y-92221300D01*
X106241450Y-92201298D01*
X106220475Y-92184395D01*
X105670404Y-91634323D01*
X105636379Y-91572011D01*
X105633500Y-91545228D01*
X105633500Y-87382492D01*
X105635249Y-87366650D01*
X105634956Y-87366623D01*
X105635702Y-87358730D01*
X105633531Y-87289650D01*
X105633500Y-87287671D01*
X105633500Y-87258789D01*
X105633500Y-87258783D01*
X105632620Y-87251821D01*
X105632156Y-87245932D01*
X105630674Y-87198750D01*
X105625017Y-87179281D01*
X105621012Y-87159937D01*
X105618474Y-87139842D01*
X105601100Y-87095961D01*
X105599181Y-87090355D01*
X105586018Y-87045046D01*
X105575706Y-87027609D01*
X105567010Y-87009860D01*
X105559552Y-86991022D01*
X105531812Y-86952842D01*
X105528564Y-86947897D01*
X105504542Y-86907277D01*
X105490214Y-86892949D01*
X105477384Y-86877928D01*
X105465472Y-86861532D01*
X105465469Y-86861530D01*
X105465469Y-86861529D01*
X105429107Y-86831447D01*
X105424726Y-86827461D01*
X104480202Y-85882936D01*
X104446179Y-85820627D01*
X104443300Y-85793844D01*
X104443300Y-84912480D01*
X104463302Y-84844359D01*
X104495238Y-84810544D01*
X104529382Y-84785738D01*
X104658575Y-84642254D01*
X104755113Y-84475045D01*
X104814777Y-84291419D01*
X104834959Y-84099400D01*
X104814777Y-83907381D01*
X104809831Y-83892158D01*
X104755115Y-83723760D01*
X104755111Y-83723752D01*
X104658577Y-83556549D01*
X104658576Y-83556548D01*
X104658575Y-83556546D01*
X104529382Y-83413062D01*
X104478263Y-83375922D01*
X104373180Y-83299574D01*
X104196795Y-83221043D01*
X104007938Y-83180900D01*
X103814862Y-83180900D01*
X103626004Y-83221043D01*
X103449617Y-83299575D01*
X103355239Y-83368145D01*
X103288371Y-83392003D01*
X103219220Y-83375922D01*
X103207118Y-83368144D01*
X103077780Y-83274174D01*
X102901395Y-83195643D01*
X102712538Y-83155500D01*
X102519462Y-83155500D01*
X102330604Y-83195643D01*
X102295747Y-83211162D01*
X102225379Y-83220595D01*
X102161083Y-83190487D01*
X102123271Y-83130397D01*
X102118500Y-83096054D01*
X102118500Y-81984058D01*
X102120249Y-81968216D01*
X102119956Y-81968189D01*
X102120702Y-81960296D01*
X102118531Y-81891215D01*
X102118500Y-81889236D01*
X102118500Y-81860354D01*
X102118500Y-81860348D01*
X102117620Y-81853386D01*
X102117156Y-81847497D01*
X102115674Y-81800315D01*
X102110020Y-81780856D01*
X102106012Y-81761501D01*
X102103474Y-81741407D01*
X102086103Y-81697533D01*
X102084189Y-81691944D01*
X102071019Y-81646611D01*
X102060703Y-81629168D01*
X102052005Y-81611413D01*
X102044552Y-81592587D01*
X102016818Y-81554414D01*
X102013558Y-81549451D01*
X101989542Y-81508842D01*
X101975214Y-81494514D01*
X101962384Y-81479493D01*
X101950472Y-81463097D01*
X101950469Y-81463095D01*
X101950469Y-81463094D01*
X101914107Y-81433012D01*
X101909726Y-81429026D01*
X100863540Y-80382839D01*
X100853575Y-80370401D01*
X100853348Y-80370590D01*
X100848297Y-80364484D01*
X100848296Y-80364482D01*
X100797921Y-80317177D01*
X100796532Y-80315831D01*
X100781564Y-80300863D01*
X100776072Y-80295370D01*
X100776068Y-80295366D01*
X100770521Y-80291063D01*
X100766013Y-80287212D01*
X100731621Y-80254917D01*
X100731615Y-80254913D01*
X100713859Y-80245151D01*
X100697343Y-80234302D01*
X100681337Y-80221886D01*
X100652779Y-80209528D01*
X100613725Y-80182986D01*
X99084679Y-78653939D01*
X99074714Y-78641501D01*
X99074487Y-78641690D01*
X99069436Y-78635584D01*
X99069435Y-78635582D01*
X99019060Y-78588277D01*
X99017671Y-78586931D01*
X99007425Y-78576685D01*
X98997211Y-78566470D01*
X98997207Y-78566466D01*
X98991660Y-78562163D01*
X98987152Y-78558312D01*
X98952760Y-78526017D01*
X98952754Y-78526013D01*
X98934998Y-78516251D01*
X98918482Y-78505402D01*
X98902476Y-78492986D01*
X98871724Y-78479678D01*
X98859175Y-78474248D01*
X98853843Y-78471636D01*
X98812496Y-78448905D01*
X98792871Y-78443866D01*
X98774171Y-78437464D01*
X98755580Y-78429419D01*
X98755578Y-78429418D01*
X98755577Y-78429418D01*
X98708977Y-78422037D01*
X98703164Y-78420833D01*
X98657465Y-78409100D01*
X98637211Y-78409100D01*
X98617501Y-78407549D01*
X98597492Y-78404380D01*
X98597491Y-78404380D01*
X98550518Y-78408820D01*
X98544585Y-78409100D01*
X98109500Y-78409100D01*
X98041379Y-78389098D01*
X97994886Y-78335442D01*
X97983500Y-78283100D01*
X97983500Y-70464594D01*
X98003502Y-70396473D01*
X98020405Y-70375499D01*
X101225499Y-67170405D01*
X101287811Y-67136379D01*
X101314594Y-67133500D01*
X101778344Y-67133500D01*
X101846465Y-67153502D01*
X101871980Y-67175190D01*
X101882019Y-67186340D01*
X102010606Y-67279763D01*
X102038220Y-67299826D01*
X102214605Y-67378357D01*
X102403462Y-67418500D01*
X102596538Y-67418500D01*
X102785395Y-67378357D01*
X102961780Y-67299826D01*
X103117982Y-67186338D01*
X103247175Y-67042854D01*
X103343713Y-66875645D01*
X103345408Y-66870430D01*
X103403377Y-66692019D01*
X103404807Y-66678409D01*
X103423559Y-66500000D01*
X103403377Y-66307981D01*
X103402373Y-66304891D01*
X103343715Y-66124360D01*
X103343711Y-66124352D01*
X103314162Y-66073172D01*
X103269295Y-65995459D01*
X103247177Y-65957149D01*
X103247176Y-65957148D01*
X103247175Y-65957146D01*
X103117982Y-65813662D01*
X103109766Y-65807693D01*
X102961780Y-65700174D01*
X102785395Y-65621643D01*
X102596538Y-65581500D01*
X102403462Y-65581500D01*
X102214604Y-65621643D01*
X102038216Y-65700176D01*
X101882020Y-65813659D01*
X101882015Y-65813664D01*
X101871980Y-65824810D01*
X101811534Y-65862050D01*
X101778344Y-65866500D01*
X101083854Y-65866500D01*
X101068012Y-65864750D01*
X101067985Y-65865044D01*
X101060092Y-65864297D01*
X100991013Y-65866469D01*
X100989034Y-65866500D01*
X100960144Y-65866500D01*
X100960140Y-65866500D01*
X100960129Y-65866501D01*
X100953190Y-65867377D01*
X100947277Y-65867843D01*
X100900111Y-65869325D01*
X100880650Y-65874979D01*
X100861304Y-65878985D01*
X100841204Y-65881525D01*
X100841203Y-65881525D01*
X100797335Y-65898893D01*
X100791720Y-65900815D01*
X100746413Y-65913978D01*
X100746404Y-65913982D01*
X100728962Y-65924297D01*
X100711215Y-65932991D01*
X100692383Y-65940447D01*
X100692381Y-65940448D01*
X100654214Y-65968178D01*
X100649254Y-65971436D01*
X100608636Y-65995459D01*
X100608633Y-65995461D01*
X100594312Y-66009783D01*
X100579283Y-66022619D01*
X100562893Y-66034527D01*
X100532808Y-66070892D01*
X100528812Y-66075283D01*
X99841360Y-66762734D01*
X99779048Y-66796760D01*
X99708233Y-66791695D01*
X99658630Y-66757951D01*
X99657723Y-66756944D01*
X99647412Y-66745492D01*
X99647411Y-66745491D01*
X99647409Y-66745489D01*
X99491210Y-66632004D01*
X99314825Y-66553473D01*
X99125968Y-66513330D01*
X98932892Y-66513330D01*
X98932891Y-66513330D01*
X98833599Y-66534435D01*
X98762808Y-66529033D01*
X98706175Y-66486216D01*
X98682092Y-66424355D01*
X98680949Y-66413480D01*
X98621287Y-66229860D01*
X98621283Y-66229852D01*
X98606905Y-66204949D01*
X98538232Y-66086003D01*
X98524749Y-66062649D01*
X98524748Y-66062648D01*
X98524747Y-66062646D01*
X98395554Y-65919162D01*
X98388424Y-65913982D01*
X98239352Y-65805674D01*
X98062967Y-65727143D01*
X97874110Y-65687000D01*
X97681034Y-65687000D01*
X97492176Y-65727143D01*
X97315788Y-65805676D01*
X97159590Y-65919161D01*
X97030394Y-66062649D01*
X96933860Y-66229852D01*
X96933856Y-66229860D01*
X96874194Y-66413479D01*
X96860776Y-66541150D01*
X96833763Y-66606807D01*
X96775541Y-66647436D01*
X96761664Y-66651225D01*
X96633776Y-66678409D01*
X96457384Y-66756944D01*
X96301186Y-66870429D01*
X96171990Y-67013917D01*
X96075456Y-67181120D01*
X96075452Y-67181128D01*
X96015790Y-67364748D01*
X95997025Y-67543295D01*
X95970012Y-67608952D01*
X95960810Y-67619220D01*
X95611340Y-67968690D01*
X95598903Y-67978655D01*
X95599091Y-67978882D01*
X95592981Y-67983935D01*
X95545693Y-68034291D01*
X95544319Y-68035710D01*
X95523863Y-68056167D01*
X95519560Y-68061713D01*
X95515714Y-68066215D01*
X95483417Y-68100610D01*
X95483411Y-68100619D01*
X95473651Y-68118371D01*
X95462803Y-68134886D01*
X95450386Y-68150894D01*
X95431645Y-68194200D01*
X95429034Y-68199530D01*
X95406305Y-68240875D01*
X95406303Y-68240880D01*
X95401267Y-68260495D01*
X95394864Y-68279198D01*
X95386819Y-68297788D01*
X95379437Y-68344392D01*
X95378233Y-68350204D01*
X95366500Y-68395904D01*
X95366500Y-68416159D01*
X95364949Y-68435869D01*
X95361780Y-68455878D01*
X95361780Y-68455879D01*
X95010500Y-68455879D01*
X95010500Y-57750000D01*
X96561844Y-57750000D01*
X96571420Y-57865567D01*
X96580437Y-57974375D01*
X96635702Y-58192612D01*
X96635703Y-58192613D01*
X96635704Y-58192616D01*
X96705634Y-58352042D01*
X96726141Y-58398793D01*
X96849275Y-58587265D01*
X96849279Y-58587270D01*
X97001762Y-58752908D01*
X97020153Y-58767222D01*
X97179424Y-58891189D01*
X97377426Y-58998342D01*
X97377427Y-58998342D01*
X97377428Y-58998343D01*
X97461303Y-59027137D01*
X97590365Y-59071444D01*
X97812431Y-59108500D01*
X97812435Y-59108500D01*
X98037565Y-59108500D01*
X98037569Y-59108500D01*
X98259635Y-59071444D01*
X98472574Y-58998342D01*
X98627175Y-58914676D01*
X98696602Y-58899846D01*
X98763029Y-58924906D01*
X98805362Y-58981901D01*
X98812754Y-59015604D01*
X98831391Y-59252403D01*
X98850062Y-59330177D01*
X98890494Y-59498589D01*
X98891079Y-59500000D01*
X98987384Y-59732502D01*
X99119672Y-59948376D01*
X99284102Y-60140898D01*
X99476624Y-60305328D01*
X99692498Y-60437616D01*
X99926409Y-60534505D01*
X100172597Y-60593609D01*
X100425000Y-60613474D01*
X100677403Y-60593609D01*
X100923591Y-60534505D01*
X101157502Y-60437616D01*
X101373376Y-60305328D01*
X101565898Y-60140898D01*
X101730328Y-59948376D01*
X101862616Y-59732502D01*
X101959505Y-59498591D01*
X102018609Y-59252403D01*
X102038474Y-59000000D01*
X102018609Y-58747597D01*
X101959505Y-58501409D01*
X101862616Y-58267498D01*
X101730328Y-58051624D01*
X101565898Y-57859102D01*
X101373376Y-57694672D01*
X101157502Y-57562384D01*
X101068756Y-57525624D01*
X100923589Y-57465494D01*
X100755177Y-57425062D01*
X100677403Y-57406391D01*
X100425000Y-57386526D01*
X100424999Y-57386526D01*
X100172597Y-57406391D01*
X99926410Y-57465494D01*
X99692499Y-57562383D01*
X99476618Y-57694675D01*
X99475674Y-57695362D01*
X99475254Y-57695511D01*
X99472403Y-57697259D01*
X99472035Y-57696660D01*
X99408806Y-57719221D01*
X99339654Y-57703140D01*
X99290174Y-57652226D01*
X99276044Y-57603835D01*
X99269564Y-57525632D01*
X99214296Y-57307384D01*
X99123860Y-57101209D01*
X99117140Y-57090924D01*
X99000724Y-56912734D01*
X99000720Y-56912729D01*
X98848237Y-56747091D01*
X98766382Y-56683381D01*
X98670576Y-56608811D01*
X98472574Y-56501658D01*
X98472572Y-56501657D01*
X98472571Y-56501656D01*
X98259639Y-56428557D01*
X98259630Y-56428555D01*
X98215476Y-56421187D01*
X98037569Y-56391500D01*
X97812431Y-56391500D01*
X97664210Y-56416233D01*
X97590369Y-56428555D01*
X97590360Y-56428557D01*
X97377428Y-56501656D01*
X97377426Y-56501658D01*
X97179426Y-56608810D01*
X97179424Y-56608811D01*
X97001762Y-56747091D01*
X96849279Y-56912729D01*
X96849275Y-56912734D01*
X96726141Y-57101206D01*
X96635703Y-57307386D01*
X96635702Y-57307387D01*
X96580437Y-57525624D01*
X96580436Y-57525630D01*
X96580436Y-57525632D01*
X96561844Y-57750000D01*
X95010500Y-57750000D01*
X95010500Y-53250000D01*
X96562346Y-53250000D01*
X96580932Y-53474292D01*
X96636176Y-53692449D01*
X96636179Y-53692456D01*
X96726580Y-53898548D01*
X96801922Y-54013866D01*
X97440638Y-53375149D01*
X97465507Y-53459844D01*
X97543239Y-53580798D01*
X97651900Y-53674952D01*
X97782685Y-53734680D01*
X97797412Y-53736797D01*
X97159310Y-54374898D01*
X97179694Y-54390763D01*
X97179696Y-54390765D01*
X97377632Y-54497883D01*
X97590483Y-54570955D01*
X97590490Y-54570957D01*
X97812477Y-54608000D01*
X98037523Y-54608000D01*
X98259509Y-54570957D01*
X98259516Y-54570955D01*
X98472369Y-54497883D01*
X98472371Y-54497882D01*
X98670298Y-54390768D01*
X98670302Y-54390766D01*
X98690689Y-54374898D01*
X98052588Y-53736797D01*
X98067315Y-53734680D01*
X98198100Y-53674952D01*
X98306761Y-53580798D01*
X98384493Y-53459844D01*
X98409360Y-53375151D01*
X99048076Y-54013867D01*
X99048077Y-54013866D01*
X99123419Y-53898551D01*
X99213820Y-53692456D01*
X99213823Y-53692449D01*
X99269067Y-53474292D01*
X99275569Y-53395826D01*
X99301128Y-53329590D01*
X99358439Y-53287686D01*
X99429307Y-53283419D01*
X99472269Y-53302959D01*
X99472403Y-53302741D01*
X99474169Y-53303823D01*
X99475195Y-53304290D01*
X99476619Y-53305324D01*
X99476624Y-53305328D01*
X99692498Y-53437616D01*
X99926409Y-53534505D01*
X100172597Y-53593609D01*
X100425000Y-53613474D01*
X100677403Y-53593609D01*
X100923591Y-53534505D01*
X101157502Y-53437616D01*
X101373376Y-53305328D01*
X101565898Y-53140898D01*
X101730328Y-52948376D01*
X101862616Y-52732502D01*
X101959505Y-52498591D01*
X102018609Y-52252403D01*
X102038474Y-52000000D01*
X102018609Y-51747597D01*
X101959505Y-51501409D01*
X101862616Y-51267498D01*
X101730328Y-51051624D01*
X101565898Y-50859102D01*
X101373376Y-50694672D01*
X101157502Y-50562384D01*
X101130415Y-50551164D01*
X100923589Y-50465494D01*
X100732148Y-50419534D01*
X100677403Y-50406391D01*
X100425000Y-50386526D01*
X100424999Y-50386526D01*
X100172597Y-50406391D01*
X99926410Y-50465494D01*
X99692499Y-50562383D01*
X99476625Y-50694671D01*
X99284102Y-50859102D01*
X99119671Y-51051625D01*
X98987383Y-51267499D01*
X98890494Y-51501410D01*
X98831391Y-51747597D01*
X98812711Y-51984941D01*
X98787425Y-52051283D01*
X98730287Y-52093422D01*
X98659437Y-52097981D01*
X98627130Y-52085869D01*
X98472371Y-52002118D01*
X98472369Y-52002116D01*
X98259516Y-51929044D01*
X98259509Y-51929042D01*
X98037523Y-51892000D01*
X97812477Y-51892000D01*
X97590490Y-51929042D01*
X97590483Y-51929044D01*
X97377630Y-52002116D01*
X97377628Y-52002118D01*
X97179700Y-52109230D01*
X97159310Y-52125099D01*
X97159310Y-52125100D01*
X97797412Y-52763202D01*
X97782685Y-52765320D01*
X97651900Y-52825048D01*
X97543239Y-52919202D01*
X97465507Y-53040156D01*
X97440638Y-53124849D01*
X96801921Y-52486132D01*
X96726580Y-52601451D01*
X96636179Y-52807543D01*
X96636176Y-52807550D01*
X96580932Y-53025707D01*
X96562346Y-53250000D01*
X95010500Y-53250000D01*
X95010500Y-50164000D01*
X95030502Y-50095879D01*
X95084158Y-50049386D01*
X95136500Y-50038000D01*
X122873914Y-50038000D01*
X122942035Y-50058002D01*
G37*
G04 #@! TD.AperFunction*
D29*
X95000000Y-50000000D02*
X185000000Y-50000000D01*
X95000000Y-100000000D02*
X95000000Y-50000000D01*
X185000000Y-100000000D02*
X95000000Y-100000000D01*
X185000000Y-50000000D02*
X185000000Y-100000000D01*
M02*
