G04 #@! TF.GenerationSoftware,KiCad,Pcbnew,(5.1.5-0)*
G04 #@! TF.CreationDate,2020-03-21T14:33:05+01:00*
G04 #@! TF.ProjectId,CaptorBoard,43617074-6f72-4426-9f61-72642e6b6963,rev?*
G04 #@! TF.SameCoordinates,Original*
G04 #@! TF.FileFunction,Legend,Top*
G04 #@! TF.FilePolarity,Positive*
%FSLAX46Y46*%
G04 Gerber Fmt 4.6, Leading zero omitted, Abs format (unit mm)*
G04 Created by KiCad (PCBNEW (5.1.5-0)) date 2020-03-21 14:33:05*
%MOMM*%
%LPD*%
G04 APERTURE LIST*
%ADD10C,0.120000*%
%ADD11C,0.150000*%
G04 APERTURE END LIST*
D10*
X78078608Y-73942335D02*
G75*
G03X78235516Y-70710000I-1078608J1672335D01*
G01*
X75921392Y-73942335D02*
G75*
G02X75764484Y-70710000I1078608J1672335D01*
G01*
X78079837Y-73311130D02*
G75*
G03X78080000Y-71229039I-1079837J1041130D01*
G01*
X75920163Y-73311130D02*
G75*
G02X75920000Y-71229039I1079837J1041130D01*
G01*
X78236000Y-70710000D02*
X78080000Y-70710000D01*
X75920000Y-70710000D02*
X75764000Y-70710000D01*
X78078608Y-81942335D02*
G75*
G03X78235516Y-78710000I-1078608J1672335D01*
G01*
X75921392Y-81942335D02*
G75*
G02X75764484Y-78710000I1078608J1672335D01*
G01*
X78079837Y-81311130D02*
G75*
G03X78080000Y-79229039I-1079837J1041130D01*
G01*
X75920163Y-81311130D02*
G75*
G02X75920000Y-79229039I1079837J1041130D01*
G01*
X78236000Y-78710000D02*
X78080000Y-78710000D01*
X75920000Y-78710000D02*
X75764000Y-78710000D01*
X78578608Y-66442335D02*
G75*
G03X78735516Y-63210000I-1078608J1672335D01*
G01*
X76421392Y-66442335D02*
G75*
G02X76264484Y-63210000I1078608J1672335D01*
G01*
X78579837Y-65811130D02*
G75*
G03X78580000Y-63729039I-1079837J1041130D01*
G01*
X76420163Y-65811130D02*
G75*
G02X76420000Y-63729039I1079837J1041130D01*
G01*
X78736000Y-63210000D02*
X78580000Y-63210000D01*
X76420000Y-63210000D02*
X76264000Y-63210000D01*
X78078608Y-89402335D02*
G75*
G03X78235516Y-86170000I-1078608J1672335D01*
G01*
X75921392Y-89402335D02*
G75*
G02X75764484Y-86170000I1078608J1672335D01*
G01*
X78079837Y-88771130D02*
G75*
G03X78080000Y-86689039I-1079837J1041130D01*
G01*
X75920163Y-88771130D02*
G75*
G02X75920000Y-86689039I1079837J1041130D01*
G01*
X78236000Y-86170000D02*
X78080000Y-86170000D01*
X75920000Y-86170000D02*
X75764000Y-86170000D01*
X78057665Y-96578608D02*
G75*
G03X81290000Y-96735516I1672335J1078608D01*
G01*
X78057665Y-94421392D02*
G75*
G02X81290000Y-94264484I1672335J-1078608D01*
G01*
X78688870Y-96579837D02*
G75*
G03X80770961Y-96580000I1041130J1079837D01*
G01*
X78688870Y-94420163D02*
G75*
G02X80770961Y-94420000I1041130J-1079837D01*
G01*
X81290000Y-96736000D02*
X81290000Y-96580000D01*
X81290000Y-94420000D02*
X81290000Y-94264000D01*
X117960000Y-79670000D02*
X116310000Y-79670000D01*
X117960000Y-87410000D02*
X117960000Y-79670000D01*
X112660000Y-87410000D02*
X117960000Y-87410000D01*
X112660000Y-79670000D02*
X112660000Y-87410000D01*
X114310000Y-79670000D02*
X112660000Y-79670000D01*
X116310000Y-79670000D02*
G75*
G02X114310000Y-79670000I-1000000J0D01*
G01*
X116310000Y-90670000D02*
G75*
G02X114310000Y-90670000I-1000000J0D01*
G01*
X114310000Y-90670000D02*
X112660000Y-90670000D01*
X112660000Y-90670000D02*
X112660000Y-98410000D01*
X112660000Y-98410000D02*
X117960000Y-98410000D01*
X117960000Y-98410000D02*
X117960000Y-90670000D01*
X117960000Y-90670000D02*
X116310000Y-90670000D01*
X139970000Y-55180000D02*
X139970000Y-77620000D01*
X106030000Y-77620000D02*
X106030000Y-55180000D01*
X139970000Y-77620000D02*
X106030000Y-77620000D01*
X139970000Y-55180000D02*
X106030000Y-55180000D01*
X139000000Y-77950000D02*
X133000000Y-77950000D01*
D11*
X90000000Y-95476000D02*
X88476000Y-95476000D01*
X88476000Y-95476000D02*
X88476000Y-98524000D01*
X88476000Y-98524000D02*
X90000000Y-98524000D01*
X91270000Y-95730000D02*
X98890000Y-95730000D01*
X98890000Y-95730000D02*
X98890000Y-98270000D01*
X98890000Y-98270000D02*
X91270000Y-98270000D01*
X91270000Y-98270000D02*
X91270000Y-95730000D01*
D10*
X103730000Y-62120000D02*
X103730000Y-61770000D01*
X104620000Y-62120000D02*
X103730000Y-62120000D01*
X104620000Y-61820000D02*
X104620000Y-62120000D01*
X104620000Y-59180000D02*
X104620000Y-55330000D01*
X104620000Y-55330000D02*
X96880000Y-55330000D01*
X96880000Y-55330000D02*
X96880000Y-59180000D01*
X98260000Y-59570000D02*
X103240000Y-59570000D01*
X97770000Y-62120000D02*
X96880000Y-62120000D01*
X97770000Y-62120000D02*
X97770000Y-61770000D01*
X96880000Y-61820000D02*
X96880000Y-62120000D01*
X85730000Y-61620000D02*
X85730000Y-61270000D01*
X86620000Y-61620000D02*
X85730000Y-61620000D01*
X86620000Y-61320000D02*
X86620000Y-61620000D01*
X86620000Y-58680000D02*
X86620000Y-54830000D01*
X86620000Y-54830000D02*
X78880000Y-54830000D01*
X78880000Y-54830000D02*
X78880000Y-58680000D01*
X80260000Y-59070000D02*
X85240000Y-59070000D01*
X79770000Y-61620000D02*
X78880000Y-61620000D01*
X79770000Y-61620000D02*
X79770000Y-61270000D01*
X78880000Y-61320000D02*
X78880000Y-61620000D01*
X93020000Y-71500000D02*
X93020000Y-69500000D01*
X95980000Y-69500000D02*
X95980000Y-71500000D01*
X88020000Y-77000000D02*
X88020000Y-75000000D01*
X90980000Y-75000000D02*
X90980000Y-77000000D01*
X97520000Y-71500000D02*
X97520000Y-69500000D01*
X100480000Y-69500000D02*
X100480000Y-71500000D01*
X84020000Y-81500000D02*
X84020000Y-79500000D01*
X86980000Y-79500000D02*
X86980000Y-81500000D01*
X82500000Y-86520000D02*
X84500000Y-86520000D01*
X84500000Y-89480000D02*
X82500000Y-89480000D01*
X127780000Y-80150000D02*
X127910000Y-80150000D01*
X127910000Y-80150000D02*
X127910000Y-85470000D01*
X127910000Y-85470000D02*
X127780000Y-85470000D01*
X125220000Y-80150000D02*
X125090000Y-80150000D01*
X125090000Y-80150000D02*
X125090000Y-85470000D01*
X125090000Y-85470000D02*
X125220000Y-85470000D01*
X127910000Y-80990000D02*
X125090000Y-80990000D01*
X127780000Y-91150000D02*
X127910000Y-91150000D01*
X127910000Y-91150000D02*
X127910000Y-96470000D01*
X127910000Y-96470000D02*
X127780000Y-96470000D01*
X125220000Y-91150000D02*
X125090000Y-91150000D01*
X125090000Y-91150000D02*
X125090000Y-96470000D01*
X125090000Y-96470000D02*
X125220000Y-96470000D01*
X127910000Y-91990000D02*
X125090000Y-91990000D01*
D11*
X105830000Y-62200000D02*
X105830000Y-62200000D01*
X104670000Y-62200000D02*
X105830000Y-62200000D01*
X103680000Y-61200000D02*
G75*
G03X104680000Y-62200000I1000000J0D01*
G01*
X103680000Y-55200000D02*
X103680000Y-61200000D01*
X79170000Y-88280000D02*
G75*
G03X81170000Y-90280000I2000000J0D01*
G01*
X103830000Y-90280000D02*
G75*
G03X105830000Y-88280000I0J2000000D01*
G01*
X87600000Y-55200000D02*
X79170001Y-55200000D01*
X87600000Y-56200000D02*
X87600000Y-55200000D01*
X95820000Y-56200000D02*
X87600000Y-56200000D01*
X95820000Y-55200000D02*
X95820000Y-56200000D01*
X103680000Y-55200000D02*
X95820000Y-55200000D01*
X105830000Y-88280000D02*
X105830000Y-62200000D01*
X81170000Y-90280000D02*
X103830000Y-90280000D01*
X79170000Y-55200000D02*
X79170000Y-88280000D01*
D10*
X99030000Y-94830000D02*
X99030000Y-92170000D01*
X86270000Y-94830000D02*
X99030000Y-94830000D01*
X86270000Y-92170000D02*
X99030000Y-92170000D01*
X86270000Y-94830000D02*
X86270000Y-92170000D01*
X85000000Y-94830000D02*
X83670000Y-94830000D01*
X83670000Y-94830000D02*
X83670000Y-93500000D01*
D11*
X139100000Y-84500000D02*
X139600000Y-84500000D01*
X139100000Y-89500000D02*
X139600000Y-89500000D01*
X139100000Y-94500000D02*
X139600000Y-94500000D01*
X137600000Y-99500000D02*
X137600000Y-79500000D01*
X132700000Y-99500000D02*
X132700000Y-79500000D01*
X139100000Y-99500000D02*
X139100000Y-79500000D01*
X139600000Y-99500000D02*
X139600000Y-79500000D01*
X139600000Y-79500000D02*
X129800000Y-79500000D01*
X129800000Y-79500000D02*
X129800000Y-99500000D01*
X129800000Y-99500000D02*
X139600000Y-99500000D01*
X137100000Y-82000000D02*
G75*
G03X137100000Y-82000000I-2000000J0D01*
G01*
X137100000Y-87000000D02*
G75*
G03X137100000Y-87000000I-2000000J0D01*
G01*
X137100000Y-92000000D02*
G75*
G03X137100000Y-92000000I-2000000J0D01*
G01*
X137100000Y-97000000D02*
G75*
G03X137100000Y-97000000I-2000000J0D01*
G01*
D10*
X106500000Y-93480000D02*
X104500000Y-93480000D01*
X104500000Y-90520000D02*
X106500000Y-90520000D01*
X106500000Y-88480000D02*
X104500000Y-88480000D01*
X104500000Y-85520000D02*
X106500000Y-85520000D01*
D11*
X80412380Y-73008095D02*
X79412380Y-73008095D01*
X79412380Y-72770000D01*
X79460000Y-72627142D01*
X79555238Y-72531904D01*
X79650476Y-72484285D01*
X79840952Y-72436666D01*
X79983809Y-72436666D01*
X80174285Y-72484285D01*
X80269523Y-72531904D01*
X80364761Y-72627142D01*
X80412380Y-72770000D01*
X80412380Y-73008095D01*
X79412380Y-72103333D02*
X79412380Y-71436666D01*
X80412380Y-71865238D01*
X80412380Y-81008095D02*
X79412380Y-81008095D01*
X79412380Y-80770000D01*
X79460000Y-80627142D01*
X79555238Y-80531904D01*
X79650476Y-80484285D01*
X79840952Y-80436666D01*
X79983809Y-80436666D01*
X80174285Y-80484285D01*
X80269523Y-80531904D01*
X80364761Y-80627142D01*
X80412380Y-80770000D01*
X80412380Y-81008095D01*
X79412380Y-79579523D02*
X79412380Y-79770000D01*
X79460000Y-79865238D01*
X79507619Y-79912857D01*
X79650476Y-80008095D01*
X79840952Y-80055714D01*
X80221904Y-80055714D01*
X80317142Y-80008095D01*
X80364761Y-79960476D01*
X80412380Y-79865238D01*
X80412380Y-79674761D01*
X80364761Y-79579523D01*
X80317142Y-79531904D01*
X80221904Y-79484285D01*
X79983809Y-79484285D01*
X79888571Y-79531904D01*
X79840952Y-79579523D01*
X79793333Y-79674761D01*
X79793333Y-79865238D01*
X79840952Y-79960476D01*
X79888571Y-80008095D01*
X79983809Y-80055714D01*
X80912380Y-65508095D02*
X79912380Y-65508095D01*
X79912380Y-65270000D01*
X79960000Y-65127142D01*
X80055238Y-65031904D01*
X80150476Y-64984285D01*
X80340952Y-64936666D01*
X80483809Y-64936666D01*
X80674285Y-64984285D01*
X80769523Y-65031904D01*
X80864761Y-65127142D01*
X80912380Y-65270000D01*
X80912380Y-65508095D01*
X79912380Y-64031904D02*
X79912380Y-64508095D01*
X80388571Y-64555714D01*
X80340952Y-64508095D01*
X80293333Y-64412857D01*
X80293333Y-64174761D01*
X80340952Y-64079523D01*
X80388571Y-64031904D01*
X80483809Y-63984285D01*
X80721904Y-63984285D01*
X80817142Y-64031904D01*
X80864761Y-64079523D01*
X80912380Y-64174761D01*
X80912380Y-64412857D01*
X80864761Y-64508095D01*
X80817142Y-64555714D01*
X80412380Y-88468095D02*
X79412380Y-88468095D01*
X79412380Y-88230000D01*
X79460000Y-88087142D01*
X79555238Y-87991904D01*
X79650476Y-87944285D01*
X79840952Y-87896666D01*
X79983809Y-87896666D01*
X80174285Y-87944285D01*
X80269523Y-87991904D01*
X80364761Y-88087142D01*
X80412380Y-88230000D01*
X80412380Y-88468095D01*
X79745714Y-87039523D02*
X80412380Y-87039523D01*
X79364761Y-87277619D02*
X80079047Y-87515714D01*
X80079047Y-86896666D01*
X78991904Y-98912380D02*
X78991904Y-97912380D01*
X79230000Y-97912380D01*
X79372857Y-97960000D01*
X79468095Y-98055238D01*
X79515714Y-98150476D01*
X79563333Y-98340952D01*
X79563333Y-98483809D01*
X79515714Y-98674285D01*
X79468095Y-98769523D01*
X79372857Y-98864761D01*
X79230000Y-98912380D01*
X78991904Y-98912380D01*
X79896666Y-97912380D02*
X80515714Y-97912380D01*
X80182380Y-98293333D01*
X80325238Y-98293333D01*
X80420476Y-98340952D01*
X80468095Y-98388571D01*
X80515714Y-98483809D01*
X80515714Y-98721904D01*
X80468095Y-98817142D01*
X80420476Y-98864761D01*
X80325238Y-98912380D01*
X80039523Y-98912380D01*
X79944285Y-98864761D01*
X79896666Y-98817142D01*
X114548095Y-78122380D02*
X114548095Y-78931904D01*
X114595714Y-79027142D01*
X114643333Y-79074761D01*
X114738571Y-79122380D01*
X114929047Y-79122380D01*
X115024285Y-79074761D01*
X115071904Y-79027142D01*
X115119523Y-78931904D01*
X115119523Y-78122380D01*
X116024285Y-78455714D02*
X116024285Y-79122380D01*
X115786190Y-78074761D02*
X115548095Y-78789047D01*
X116167142Y-78789047D01*
X114548095Y-89122380D02*
X114548095Y-89931904D01*
X114595714Y-90027142D01*
X114643333Y-90074761D01*
X114738571Y-90122380D01*
X114929047Y-90122380D01*
X115024285Y-90074761D01*
X115071904Y-90027142D01*
X115119523Y-89931904D01*
X115119523Y-89122380D01*
X115500476Y-89122380D02*
X116119523Y-89122380D01*
X115786190Y-89503333D01*
X115929047Y-89503333D01*
X116024285Y-89550952D01*
X116071904Y-89598571D01*
X116119523Y-89693809D01*
X116119523Y-89931904D01*
X116071904Y-90027142D01*
X116024285Y-90074761D01*
X115929047Y-90122380D01*
X115643333Y-90122380D01*
X115548095Y-90074761D01*
X115500476Y-90027142D01*
X137038095Y-78252380D02*
X137038095Y-79061904D01*
X137085714Y-79157142D01*
X137133333Y-79204761D01*
X137228571Y-79252380D01*
X137419047Y-79252380D01*
X137514285Y-79204761D01*
X137561904Y-79157142D01*
X137609523Y-79061904D01*
X137609523Y-78252380D01*
X138038095Y-78347619D02*
X138085714Y-78300000D01*
X138180952Y-78252380D01*
X138419047Y-78252380D01*
X138514285Y-78300000D01*
X138561904Y-78347619D01*
X138609523Y-78442857D01*
X138609523Y-78538095D01*
X138561904Y-78680952D01*
X137990476Y-79252380D01*
X138609523Y-79252380D01*
X99738095Y-96452380D02*
X99738095Y-97261904D01*
X99785714Y-97357142D01*
X99833333Y-97404761D01*
X99928571Y-97452380D01*
X100119047Y-97452380D01*
X100214285Y-97404761D01*
X100261904Y-97357142D01*
X100309523Y-97261904D01*
X100309523Y-96452380D01*
X101261904Y-96452380D02*
X100785714Y-96452380D01*
X100738095Y-96928571D01*
X100785714Y-96880952D01*
X100880952Y-96833333D01*
X101119047Y-96833333D01*
X101214285Y-96880952D01*
X101261904Y-96928571D01*
X101309523Y-97023809D01*
X101309523Y-97261904D01*
X101261904Y-97357142D01*
X101214285Y-97404761D01*
X101119047Y-97452380D01*
X100880952Y-97452380D01*
X100785714Y-97404761D01*
X100738095Y-97357142D01*
X99416666Y-60904761D02*
X99559523Y-60952380D01*
X99797619Y-60952380D01*
X99892857Y-60904761D01*
X99940476Y-60857142D01*
X99988095Y-60761904D01*
X99988095Y-60666666D01*
X99940476Y-60571428D01*
X99892857Y-60523809D01*
X99797619Y-60476190D01*
X99607142Y-60428571D01*
X99511904Y-60380952D01*
X99464285Y-60333333D01*
X99416666Y-60238095D01*
X99416666Y-60142857D01*
X99464285Y-60047619D01*
X99511904Y-60000000D01*
X99607142Y-59952380D01*
X99845238Y-59952380D01*
X99988095Y-60000000D01*
X100321428Y-59952380D02*
X100559523Y-60952380D01*
X100750000Y-60238095D01*
X100940476Y-60952380D01*
X101178571Y-59952380D01*
X101511904Y-60047619D02*
X101559523Y-60000000D01*
X101654761Y-59952380D01*
X101892857Y-59952380D01*
X101988095Y-60000000D01*
X102035714Y-60047619D01*
X102083333Y-60142857D01*
X102083333Y-60238095D01*
X102035714Y-60380952D01*
X101464285Y-60952380D01*
X102083333Y-60952380D01*
X81416666Y-60404761D02*
X81559523Y-60452380D01*
X81797619Y-60452380D01*
X81892857Y-60404761D01*
X81940476Y-60357142D01*
X81988095Y-60261904D01*
X81988095Y-60166666D01*
X81940476Y-60071428D01*
X81892857Y-60023809D01*
X81797619Y-59976190D01*
X81607142Y-59928571D01*
X81511904Y-59880952D01*
X81464285Y-59833333D01*
X81416666Y-59738095D01*
X81416666Y-59642857D01*
X81464285Y-59547619D01*
X81511904Y-59500000D01*
X81607142Y-59452380D01*
X81845238Y-59452380D01*
X81988095Y-59500000D01*
X82321428Y-59452380D02*
X82559523Y-60452380D01*
X82750000Y-59738095D01*
X82940476Y-60452380D01*
X83178571Y-59452380D01*
X84083333Y-60452380D02*
X83511904Y-60452380D01*
X83797619Y-60452380D02*
X83797619Y-59452380D01*
X83702380Y-59595238D01*
X83607142Y-59690476D01*
X83511904Y-59738095D01*
X97252380Y-71142857D02*
X96776190Y-71476190D01*
X97252380Y-71714285D02*
X96252380Y-71714285D01*
X96252380Y-71333333D01*
X96300000Y-71238095D01*
X96347619Y-71190476D01*
X96442857Y-71142857D01*
X96585714Y-71142857D01*
X96680952Y-71190476D01*
X96728571Y-71238095D01*
X96776190Y-71333333D01*
X96776190Y-71714285D01*
X97252380Y-70190476D02*
X97252380Y-70761904D01*
X97252380Y-70476190D02*
X96252380Y-70476190D01*
X96395238Y-70571428D01*
X96490476Y-70666666D01*
X96538095Y-70761904D01*
X97252380Y-69238095D02*
X97252380Y-69809523D01*
X97252380Y-69523809D02*
X96252380Y-69523809D01*
X96395238Y-69619047D01*
X96490476Y-69714285D01*
X96538095Y-69809523D01*
X92252380Y-76642857D02*
X91776190Y-76976190D01*
X92252380Y-77214285D02*
X91252380Y-77214285D01*
X91252380Y-76833333D01*
X91300000Y-76738095D01*
X91347619Y-76690476D01*
X91442857Y-76642857D01*
X91585714Y-76642857D01*
X91680952Y-76690476D01*
X91728571Y-76738095D01*
X91776190Y-76833333D01*
X91776190Y-77214285D01*
X92252380Y-75690476D02*
X92252380Y-76261904D01*
X92252380Y-75976190D02*
X91252380Y-75976190D01*
X91395238Y-76071428D01*
X91490476Y-76166666D01*
X91538095Y-76261904D01*
X91252380Y-75071428D02*
X91252380Y-74976190D01*
X91300000Y-74880952D01*
X91347619Y-74833333D01*
X91442857Y-74785714D01*
X91633333Y-74738095D01*
X91871428Y-74738095D01*
X92061904Y-74785714D01*
X92157142Y-74833333D01*
X92204761Y-74880952D01*
X92252380Y-74976190D01*
X92252380Y-75071428D01*
X92204761Y-75166666D01*
X92157142Y-75214285D01*
X92061904Y-75261904D01*
X91871428Y-75309523D01*
X91633333Y-75309523D01*
X91442857Y-75261904D01*
X91347619Y-75214285D01*
X91300000Y-75166666D01*
X91252380Y-75071428D01*
X101992380Y-70346666D02*
X101516190Y-70680000D01*
X101992380Y-70918095D02*
X100992380Y-70918095D01*
X100992380Y-70537142D01*
X101040000Y-70441904D01*
X101087619Y-70394285D01*
X101182857Y-70346666D01*
X101325714Y-70346666D01*
X101420952Y-70394285D01*
X101468571Y-70441904D01*
X101516190Y-70537142D01*
X101516190Y-70918095D01*
X101992380Y-69870476D02*
X101992380Y-69680000D01*
X101944761Y-69584761D01*
X101897142Y-69537142D01*
X101754285Y-69441904D01*
X101563809Y-69394285D01*
X101182857Y-69394285D01*
X101087619Y-69441904D01*
X101040000Y-69489523D01*
X100992380Y-69584761D01*
X100992380Y-69775238D01*
X101040000Y-69870476D01*
X101087619Y-69918095D01*
X101182857Y-69965714D01*
X101420952Y-69965714D01*
X101516190Y-69918095D01*
X101563809Y-69870476D01*
X101611428Y-69775238D01*
X101611428Y-69584761D01*
X101563809Y-69489523D01*
X101516190Y-69441904D01*
X101420952Y-69394285D01*
X88252380Y-80666666D02*
X87776190Y-81000000D01*
X88252380Y-81238095D02*
X87252380Y-81238095D01*
X87252380Y-80857142D01*
X87300000Y-80761904D01*
X87347619Y-80714285D01*
X87442857Y-80666666D01*
X87585714Y-80666666D01*
X87680952Y-80714285D01*
X87728571Y-80761904D01*
X87776190Y-80857142D01*
X87776190Y-81238095D01*
X87680952Y-80095238D02*
X87633333Y-80190476D01*
X87585714Y-80238095D01*
X87490476Y-80285714D01*
X87442857Y-80285714D01*
X87347619Y-80238095D01*
X87300000Y-80190476D01*
X87252380Y-80095238D01*
X87252380Y-79904761D01*
X87300000Y-79809523D01*
X87347619Y-79761904D01*
X87442857Y-79714285D01*
X87490476Y-79714285D01*
X87585714Y-79761904D01*
X87633333Y-79809523D01*
X87680952Y-79904761D01*
X87680952Y-80095238D01*
X87728571Y-80190476D01*
X87776190Y-80238095D01*
X87871428Y-80285714D01*
X88061904Y-80285714D01*
X88157142Y-80238095D01*
X88204761Y-80190476D01*
X88252380Y-80095238D01*
X88252380Y-79904761D01*
X88204761Y-79809523D01*
X88157142Y-79761904D01*
X88061904Y-79714285D01*
X87871428Y-79714285D01*
X87776190Y-79761904D01*
X87728571Y-79809523D01*
X87680952Y-79904761D01*
X83333333Y-86152380D02*
X83000000Y-85676190D01*
X82761904Y-86152380D02*
X82761904Y-85152380D01*
X83142857Y-85152380D01*
X83238095Y-85200000D01*
X83285714Y-85247619D01*
X83333333Y-85342857D01*
X83333333Y-85485714D01*
X83285714Y-85580952D01*
X83238095Y-85628571D01*
X83142857Y-85676190D01*
X82761904Y-85676190D01*
X83666666Y-85152380D02*
X84333333Y-85152380D01*
X83904761Y-86152380D01*
X129362380Y-84024285D02*
X128362380Y-84024285D01*
X128362380Y-83786190D01*
X128410000Y-83643333D01*
X128505238Y-83548095D01*
X128600476Y-83500476D01*
X128790952Y-83452857D01*
X128933809Y-83452857D01*
X129124285Y-83500476D01*
X129219523Y-83548095D01*
X129314761Y-83643333D01*
X129362380Y-83786190D01*
X129362380Y-84024285D01*
X129362380Y-82500476D02*
X129362380Y-83071904D01*
X129362380Y-82786190D02*
X128362380Y-82786190D01*
X128505238Y-82881428D01*
X128600476Y-82976666D01*
X128648095Y-83071904D01*
X128362380Y-81881428D02*
X128362380Y-81786190D01*
X128410000Y-81690952D01*
X128457619Y-81643333D01*
X128552857Y-81595714D01*
X128743333Y-81548095D01*
X128981428Y-81548095D01*
X129171904Y-81595714D01*
X129267142Y-81643333D01*
X129314761Y-81690952D01*
X129362380Y-81786190D01*
X129362380Y-81881428D01*
X129314761Y-81976666D01*
X129267142Y-82024285D01*
X129171904Y-82071904D01*
X128981428Y-82119523D01*
X128743333Y-82119523D01*
X128552857Y-82071904D01*
X128457619Y-82024285D01*
X128410000Y-81976666D01*
X128362380Y-81881428D01*
X129362380Y-94548095D02*
X128362380Y-94548095D01*
X128362380Y-94310000D01*
X128410000Y-94167142D01*
X128505238Y-94071904D01*
X128600476Y-94024285D01*
X128790952Y-93976666D01*
X128933809Y-93976666D01*
X129124285Y-94024285D01*
X129219523Y-94071904D01*
X129314761Y-94167142D01*
X129362380Y-94310000D01*
X129362380Y-94548095D01*
X129362380Y-93500476D02*
X129362380Y-93310000D01*
X129314761Y-93214761D01*
X129267142Y-93167142D01*
X129124285Y-93071904D01*
X128933809Y-93024285D01*
X128552857Y-93024285D01*
X128457619Y-93071904D01*
X128410000Y-93119523D01*
X128362380Y-93214761D01*
X128362380Y-93405238D01*
X128410000Y-93500476D01*
X128457619Y-93548095D01*
X128552857Y-93595714D01*
X128790952Y-93595714D01*
X128886190Y-93548095D01*
X128933809Y-93500476D01*
X128981428Y-93405238D01*
X128981428Y-93214761D01*
X128933809Y-93119523D01*
X128886190Y-93071904D01*
X128790952Y-93024285D01*
X91738095Y-58952380D02*
X91738095Y-59761904D01*
X91785714Y-59857142D01*
X91833333Y-59904761D01*
X91928571Y-59952380D01*
X92119047Y-59952380D01*
X92214285Y-59904761D01*
X92261904Y-59857142D01*
X92309523Y-59761904D01*
X92309523Y-58952380D01*
X93309523Y-59952380D02*
X92738095Y-59952380D01*
X93023809Y-59952380D02*
X93023809Y-58952380D01*
X92928571Y-59095238D01*
X92833333Y-59190476D01*
X92738095Y-59238095D01*
X82122380Y-93833333D02*
X82836666Y-93833333D01*
X82979523Y-93880952D01*
X83074761Y-93976190D01*
X83122380Y-94119047D01*
X83122380Y-94214285D01*
X83122380Y-92833333D02*
X83122380Y-93404761D01*
X83122380Y-93119047D02*
X82122380Y-93119047D01*
X82265238Y-93214285D01*
X82360476Y-93309523D01*
X82408095Y-93404761D01*
X140352380Y-89833333D02*
X141066666Y-89833333D01*
X141209523Y-89880952D01*
X141304761Y-89976190D01*
X141352380Y-90119047D01*
X141352380Y-90214285D01*
X140447619Y-89404761D02*
X140400000Y-89357142D01*
X140352380Y-89261904D01*
X140352380Y-89023809D01*
X140400000Y-88928571D01*
X140447619Y-88880952D01*
X140542857Y-88833333D01*
X140638095Y-88833333D01*
X140780952Y-88880952D01*
X141352380Y-89452380D01*
X141352380Y-88833333D01*
X104857142Y-94752380D02*
X104523809Y-94276190D01*
X104285714Y-94752380D02*
X104285714Y-93752380D01*
X104666666Y-93752380D01*
X104761904Y-93800000D01*
X104809523Y-93847619D01*
X104857142Y-93942857D01*
X104857142Y-94085714D01*
X104809523Y-94180952D01*
X104761904Y-94228571D01*
X104666666Y-94276190D01*
X104285714Y-94276190D01*
X105809523Y-94752380D02*
X105238095Y-94752380D01*
X105523809Y-94752380D02*
X105523809Y-93752380D01*
X105428571Y-93895238D01*
X105333333Y-93990476D01*
X105238095Y-94038095D01*
X106190476Y-93847619D02*
X106238095Y-93800000D01*
X106333333Y-93752380D01*
X106571428Y-93752380D01*
X106666666Y-93800000D01*
X106714285Y-93847619D01*
X106761904Y-93942857D01*
X106761904Y-94038095D01*
X106714285Y-94180952D01*
X106142857Y-94752380D01*
X106761904Y-94752380D01*
X104857142Y-89752380D02*
X104523809Y-89276190D01*
X104285714Y-89752380D02*
X104285714Y-88752380D01*
X104666666Y-88752380D01*
X104761904Y-88800000D01*
X104809523Y-88847619D01*
X104857142Y-88942857D01*
X104857142Y-89085714D01*
X104809523Y-89180952D01*
X104761904Y-89228571D01*
X104666666Y-89276190D01*
X104285714Y-89276190D01*
X105809523Y-89752380D02*
X105238095Y-89752380D01*
X105523809Y-89752380D02*
X105523809Y-88752380D01*
X105428571Y-88895238D01*
X105333333Y-88990476D01*
X105238095Y-89038095D01*
X106142857Y-88752380D02*
X106761904Y-88752380D01*
X106428571Y-89133333D01*
X106571428Y-89133333D01*
X106666666Y-89180952D01*
X106714285Y-89228571D01*
X106761904Y-89323809D01*
X106761904Y-89561904D01*
X106714285Y-89657142D01*
X106666666Y-89704761D01*
X106571428Y-89752380D01*
X106285714Y-89752380D01*
X106190476Y-89704761D01*
X106142857Y-89657142D01*
M02*
