G04 #@! TF.GenerationSoftware,KiCad,Pcbnew,7.0.1*
G04 #@! TF.CreationDate,2023-04-13T12:05:20+02:00*
G04 #@! TF.ProjectId,CaptorBoard,43617074-6f72-4426-9f61-72642e6b6963,rev?*
G04 #@! TF.SameCoordinates,Original*
G04 #@! TF.FileFunction,Copper,L2,Bot*
G04 #@! TF.FilePolarity,Positive*
%FSLAX46Y46*%
G04 Gerber Fmt 4.6, Leading zero omitted, Abs format (unit mm)*
G04 Created by KiCad (PCBNEW 7.0.1) date 2023-04-13 12:05:20*
%MOMM*%
%LPD*%
G01*
G04 APERTURE LIST*
G04 #@! TA.AperFunction,ComponentPad*
%ADD10R,2.200000X2.200000*%
G04 #@! TD*
G04 #@! TA.AperFunction,ComponentPad*
%ADD11O,2.200000X2.200000*%
G04 #@! TD*
G04 #@! TA.AperFunction,ComponentPad*
%ADD12R,2.600000X2.600000*%
G04 #@! TD*
G04 #@! TA.AperFunction,ComponentPad*
%ADD13C,2.600000*%
G04 #@! TD*
G04 #@! TA.AperFunction,ComponentPad*
%ADD14C,2.200000*%
G04 #@! TD*
G04 #@! TA.AperFunction,ComponentPad*
%ADD15C,1.700000*%
G04 #@! TD*
G04 #@! TA.AperFunction,ComponentPad*
%ADD16R,1.600000X1.600000*%
G04 #@! TD*
G04 #@! TA.AperFunction,ComponentPad*
%ADD17O,1.600000X1.600000*%
G04 #@! TD*
G04 #@! TA.AperFunction,ComponentPad*
%ADD18R,1.700000X1.700000*%
G04 #@! TD*
G04 #@! TA.AperFunction,ComponentPad*
%ADD19O,1.700000X1.700000*%
G04 #@! TD*
G04 #@! TA.AperFunction,ComponentPad*
%ADD20R,2.500000X2.500000*%
G04 #@! TD*
G04 #@! TA.AperFunction,ComponentPad*
%ADD21O,2.500000X2.500000*%
G04 #@! TD*
G04 #@! TA.AperFunction,ComponentPad*
%ADD22C,1.650000*%
G04 #@! TD*
G04 #@! TA.AperFunction,ViaPad*
%ADD23C,0.820000*%
G04 #@! TD*
G04 #@! TA.AperFunction,Conductor*
%ADD24C,4.000000*%
G04 #@! TD*
G04 #@! TA.AperFunction,Conductor*
%ADD25C,0.250000*%
G04 #@! TD*
G04 #@! TA.AperFunction,Conductor*
%ADD26C,2.000000*%
G04 #@! TD*
G04 #@! TA.AperFunction,Conductor*
%ADD27C,0.500000*%
G04 #@! TD*
G04 #@! TA.AperFunction,Profile*
%ADD28C,0.100000*%
G04 #@! TD*
G04 APERTURE END LIST*
D10*
X164190000Y-56500000D03*
D11*
X171810000Y-56500000D03*
D10*
X171810000Y-52500000D03*
D11*
X164190000Y-52500000D03*
D12*
X179805000Y-63585000D03*
D13*
X179805000Y-58505000D03*
X179805000Y-53425000D03*
D14*
X100425000Y-98000000D03*
X100425000Y-91000000D03*
D15*
X97925000Y-96750000D03*
X97925000Y-92250000D03*
D14*
X100425000Y-59000000D03*
X100425000Y-52000000D03*
D15*
X97925000Y-57750000D03*
X97925000Y-53250000D03*
D16*
X154975000Y-63000000D03*
D17*
X157515000Y-63000000D03*
X160055000Y-63000000D03*
X160055000Y-55380000D03*
X157515000Y-55380000D03*
X154975000Y-55380000D03*
D16*
X146475000Y-63000000D03*
D17*
X149015000Y-63000000D03*
X151555000Y-63000000D03*
X151555000Y-55380000D03*
X149015000Y-55380000D03*
X146475000Y-55380000D03*
D18*
X130500000Y-94500000D03*
D19*
X133040000Y-94500000D03*
X135580000Y-94500000D03*
X138120000Y-94500000D03*
X140660000Y-94500000D03*
X143200000Y-94500000D03*
D18*
X118120000Y-98171000D03*
D19*
X120660000Y-98171000D03*
X123200000Y-98171000D03*
X125740000Y-98171000D03*
D20*
X153372500Y-73500000D03*
D21*
X155372500Y-79500000D03*
X167572500Y-79500000D03*
X167572500Y-67500000D03*
X155372500Y-67500000D03*
D12*
X179805000Y-96585000D03*
D13*
X179805000Y-91505000D03*
X179805000Y-86425000D03*
D18*
X129413000Y-98171000D03*
D19*
X131953000Y-98171000D03*
X134493000Y-98171000D03*
X137033000Y-98171000D03*
X139573000Y-98171000D03*
X142113000Y-98171000D03*
X144653000Y-98171000D03*
D22*
X140000000Y-53840000D03*
X134920000Y-53840000D03*
X129840000Y-74160000D03*
X140000000Y-74160000D03*
D12*
X179805000Y-80085000D03*
D13*
X179805000Y-75005000D03*
X179805000Y-69925000D03*
D20*
X153372500Y-91000000D03*
D21*
X155372500Y-97000000D03*
X167572500Y-97000000D03*
X167572500Y-85000000D03*
X155372500Y-85000000D03*
D23*
X146532600Y-69037200D03*
X148513800Y-78232000D03*
X143230600Y-92456000D03*
X130327400Y-92227400D03*
X149000000Y-84500000D03*
X118000000Y-64000000D03*
X116500000Y-77000000D03*
X116500000Y-71500000D03*
X148500000Y-81500000D03*
X117500000Y-95000000D03*
X116941600Y-62000000D03*
X145500000Y-87000000D03*
X103378000Y-59690000D03*
X96012000Y-95250000D03*
X116941600Y-53543200D03*
X100838000Y-71882000D03*
X100838000Y-77470000D03*
X142500000Y-75500000D03*
X109270800Y-56083200D03*
X123500000Y-94000000D03*
X118000000Y-69000000D03*
X105714800Y-56083200D03*
X106426000Y-71882000D03*
X106426000Y-77470000D03*
X118000000Y-74500000D03*
X112776000Y-56083200D03*
X116500000Y-66500000D03*
X116916200Y-57454800D03*
X118000000Y-59500000D03*
X118000000Y-55500000D03*
X116000000Y-86500000D03*
X98500000Y-84000000D03*
X103500000Y-92500000D03*
X96500000Y-79500000D03*
X114000000Y-63000000D03*
X113511000Y-80846600D03*
X108141431Y-62871449D03*
X112776000Y-69494400D03*
X112980497Y-63000000D03*
X112807196Y-81584193D03*
X111500000Y-62986500D03*
X112776000Y-78486000D03*
X98930624Y-64045361D03*
X102500000Y-66500000D03*
X108316660Y-84061917D03*
X97500000Y-80500000D03*
X100422313Y-80486500D03*
X102500000Y-80486000D03*
X98500000Y-63000000D03*
X105227033Y-84955500D03*
X98412432Y-67412432D03*
X97483427Y-66992509D03*
X106496403Y-85003597D03*
X105181400Y-66421000D03*
X146500000Y-77500000D03*
X109873532Y-67530468D03*
X142500000Y-87000000D03*
D24*
X162915600Y-91000000D02*
X153372500Y-91000000D01*
X163420600Y-91505000D02*
X162915600Y-91000000D01*
X179805000Y-91505000D02*
X163420600Y-91505000D01*
D25*
X139485000Y-98083000D02*
X139573000Y-98171000D01*
X139485000Y-90485000D02*
X139485000Y-98083000D01*
X137800000Y-88800000D02*
X139485000Y-90485000D01*
X107137757Y-88800000D02*
X137800000Y-88800000D01*
X103969400Y-85631643D02*
X107137757Y-88800000D01*
X103969400Y-84341157D02*
X103969400Y-85631643D01*
X104769957Y-83540600D02*
X103969400Y-84341157D01*
X107798530Y-83540600D02*
X104769957Y-83540600D01*
X108012213Y-83326917D02*
X107798530Y-83540600D01*
X108621107Y-83326917D02*
X108012213Y-83326917D01*
X108647095Y-83352905D02*
X108621107Y-83326917D01*
X111141000Y-80859000D02*
X108647095Y-83352905D01*
X111141000Y-77808761D02*
X111141000Y-80859000D01*
X112050000Y-76899761D02*
X111141000Y-77808761D01*
X112050000Y-71080639D02*
X112050000Y-76899761D01*
X111141000Y-70171639D02*
X112050000Y-71080639D01*
X111141000Y-69307200D02*
X111141000Y-70171639D01*
X110099268Y-68265468D02*
X111141000Y-69307200D01*
X109569085Y-68265468D02*
X110099268Y-68265468D01*
X109138532Y-67834915D02*
X109569085Y-68265468D01*
X109138532Y-67304732D02*
X109138532Y-67834915D01*
X105738247Y-66903600D02*
X108737400Y-66903600D01*
X105485847Y-67156000D02*
X105738247Y-66903600D01*
X104876953Y-67156000D02*
X105485847Y-67156000D01*
X108737400Y-66903600D02*
X109138532Y-67304732D01*
X98810361Y-63310361D02*
X101031314Y-63310361D01*
X98500000Y-63000000D02*
X98810361Y-63310361D01*
X101031314Y-63310361D02*
X104876953Y-67156000D01*
X140660000Y-90160000D02*
X140660000Y-94500000D01*
X138850000Y-88350000D02*
X140660000Y-90160000D01*
X107324153Y-88350000D02*
X138850000Y-88350000D01*
X104872953Y-84074000D02*
X104419400Y-84527553D01*
X104419400Y-85445247D02*
X107324153Y-88350000D01*
X108304577Y-84074000D02*
X104872953Y-84074000D01*
X108316660Y-84061917D02*
X108304577Y-84074000D01*
X104419400Y-84527553D02*
X104419400Y-85445247D01*
X112491000Y-69209400D02*
X112776000Y-69494400D01*
X112491000Y-65016947D02*
X112491000Y-69209400D01*
X108141431Y-62871449D02*
X108769982Y-63500000D01*
X110974053Y-63500000D02*
X112491000Y-65016947D01*
X108769982Y-63500000D02*
X110974053Y-63500000D01*
X105275800Y-66326600D02*
X105181400Y-66421000D01*
X110326600Y-66326600D02*
X105275800Y-66326600D01*
X112041000Y-69798847D02*
X112041000Y-68041000D01*
X113000000Y-70757847D02*
X112041000Y-69798847D01*
X112041000Y-68041000D02*
X110326600Y-66326600D01*
X113000000Y-77222553D02*
X113000000Y-70757847D01*
X112041000Y-81857444D02*
X112041000Y-78181553D01*
X112041000Y-78181553D02*
X113000000Y-77222553D01*
X113183556Y-83000000D02*
X112041000Y-81857444D01*
X114500000Y-83000000D02*
X113183556Y-83000000D01*
X118050000Y-86550000D02*
X114500000Y-83000000D01*
X146500000Y-77500000D02*
X146500000Y-81261800D01*
X146500000Y-81261800D02*
X141211800Y-86550000D01*
X141211800Y-86550000D02*
X118050000Y-86550000D01*
D24*
X167952500Y-80085000D02*
X167572500Y-79705000D01*
X179805000Y-80085000D02*
X167952500Y-80085000D01*
X168830300Y-68757800D02*
X167572500Y-67500000D01*
X178637800Y-68757800D02*
X168830300Y-68757800D01*
X179805000Y-69925000D02*
X178637800Y-68757800D01*
D26*
X160000000Y-58500000D02*
X144660000Y-58500000D01*
X179805000Y-63585000D02*
X176585000Y-63585000D01*
X174500000Y-61500000D02*
X163000000Y-61500000D01*
X163000000Y-61500000D02*
X160000000Y-58500000D01*
X176585000Y-63585000D02*
X174500000Y-61500000D01*
X144660000Y-58500000D02*
X140000000Y-53840000D01*
D27*
X129500000Y-74160000D02*
X133840000Y-74160000D01*
X147015000Y-65000000D02*
X149015000Y-63000000D01*
X143000000Y-65000000D02*
X155515000Y-65000000D01*
X133840000Y-74160000D02*
X143000000Y-65000000D01*
X155515000Y-65000000D02*
X157515000Y-63000000D01*
X143000000Y-65000000D02*
X147015000Y-65000000D01*
D25*
X99500000Y-95192500D02*
X98010500Y-96682000D01*
X99500000Y-92090255D02*
X99500000Y-95192500D01*
X98500000Y-84000000D02*
X98500000Y-91090255D01*
X98500000Y-91090255D02*
X99500000Y-92090255D01*
X96500000Y-80539447D02*
X97195553Y-81235000D01*
X103500000Y-90253411D02*
X103500000Y-92500000D01*
X99235000Y-85988411D02*
X103500000Y-90253411D01*
X97585782Y-81235000D02*
X99235000Y-82884218D01*
X97195553Y-81235000D02*
X97585782Y-81235000D01*
X96500000Y-79500000D02*
X96500000Y-80539447D01*
X99235000Y-82884218D02*
X99235000Y-85988411D01*
X114000000Y-68406161D02*
X114496000Y-68902161D01*
X114496000Y-78441843D02*
X113511000Y-79426843D01*
X113511000Y-79426843D02*
X113511000Y-80846600D01*
X114000000Y-63000000D02*
X114000000Y-68406161D01*
X114496000Y-68902161D02*
X114496000Y-78441843D01*
X113500000Y-63539447D02*
X113500000Y-68542557D01*
X112980497Y-63000000D02*
X112980497Y-63019944D01*
X113500000Y-68542557D02*
X114046000Y-69088557D01*
X114046000Y-69088557D02*
X114046000Y-78255447D01*
X112750600Y-81527597D02*
X112807196Y-81584193D01*
X114046000Y-78255447D02*
X112750600Y-79550847D01*
X112750600Y-79550847D02*
X112750600Y-81527597D01*
X112980497Y-63019944D02*
X113500000Y-63539447D01*
X112776000Y-78082949D02*
X112776000Y-78486000D01*
X113596000Y-69274953D02*
X113596000Y-77262949D01*
X111500000Y-62986500D02*
X112941000Y-64427500D01*
X112941000Y-68619953D02*
X113596000Y-69274953D01*
X112941000Y-64427500D02*
X112941000Y-68619953D01*
X113596000Y-77262949D02*
X112776000Y-78082949D01*
X106392173Y-90600000D02*
X132100000Y-90600000D01*
X133040000Y-91540000D02*
X133040000Y-94500000D01*
X101550000Y-85757827D02*
X106392173Y-90600000D01*
X96900000Y-77536396D02*
X99687313Y-80323709D01*
X99687313Y-80323709D02*
X99687313Y-80790947D01*
X98930624Y-64045361D02*
X100500000Y-65614737D01*
X101550000Y-82653634D02*
X101550000Y-85757827D01*
X100500000Y-66363604D02*
X96900000Y-69963604D01*
X132100000Y-90600000D02*
X133040000Y-91540000D01*
X100500000Y-65614737D02*
X100500000Y-66363604D01*
X96900000Y-69963604D02*
X96900000Y-77536396D01*
X99687313Y-80790947D02*
X101550000Y-82653634D01*
X97350000Y-77350000D02*
X99751500Y-79751500D01*
X106764965Y-89700000D02*
X134563604Y-89700000D01*
X100726760Y-79751500D02*
X102550000Y-81574740D01*
X101000000Y-66500000D02*
X97350000Y-70150000D01*
X102550000Y-85485035D02*
X106764965Y-89700000D01*
X99751500Y-79751500D02*
X100726760Y-79751500D01*
X134563604Y-89700000D02*
X135580000Y-90716396D01*
X102500000Y-66500000D02*
X101000000Y-66500000D01*
X135580000Y-90716396D02*
X135580000Y-94500000D01*
X102550000Y-81574740D02*
X102550000Y-85485035D01*
X97350000Y-70150000D02*
X97350000Y-77350000D01*
X99685000Y-82697822D02*
X99685000Y-85802015D01*
X99685000Y-85802015D02*
X105832985Y-91950000D01*
X117450000Y-91950000D02*
X120660000Y-95160000D01*
X97500000Y-80500000D02*
X97500000Y-80512822D01*
X97500000Y-80512822D02*
X99685000Y-82697822D01*
X120660000Y-95160000D02*
X120660000Y-98171000D01*
X105832985Y-91950000D02*
X117450000Y-91950000D01*
D26*
X160055000Y-55380000D02*
X161380000Y-55380000D01*
X161380000Y-55380000D02*
X162500000Y-56500000D01*
X162500000Y-56500000D02*
X164190000Y-56500000D01*
X153303630Y-52500000D02*
X164190000Y-52500000D01*
X151555000Y-54248630D02*
X153303630Y-52500000D01*
X151555000Y-55380000D02*
X151555000Y-54248630D01*
D25*
X100422313Y-80486500D02*
X102000000Y-82064187D01*
X102000000Y-82064187D02*
X102000000Y-85571431D01*
X133150000Y-90150000D02*
X134405000Y-91405000D01*
X102000000Y-85571431D02*
X106578569Y-90150000D01*
X134405000Y-91405000D02*
X134405000Y-98083000D01*
X134405000Y-98083000D02*
X134493000Y-98171000D01*
X106578569Y-90150000D02*
X133150000Y-90150000D01*
X136945000Y-98083000D02*
X137033000Y-98171000D01*
X102500000Y-80486000D02*
X103000000Y-80986000D01*
X103000000Y-80986000D02*
X103000000Y-85298639D01*
X135750000Y-89250000D02*
X136945000Y-90445000D01*
X136945000Y-90445000D02*
X136945000Y-98083000D01*
X106951361Y-89250000D02*
X135750000Y-89250000D01*
X103000000Y-85298639D02*
X106951361Y-89250000D01*
D24*
X168997500Y-86425000D02*
X167572500Y-85000000D01*
X179805000Y-86425000D02*
X168997500Y-86425000D01*
X179720950Y-96697800D02*
X167903450Y-96697800D01*
X167987500Y-96585000D02*
X167572500Y-97000000D01*
X162500000Y-73500000D02*
X153372500Y-73500000D01*
X179805000Y-75005000D02*
X164005000Y-75005000D01*
X164005000Y-75005000D02*
X162500000Y-73500000D01*
D25*
X107913600Y-87900000D02*
X139900000Y-87900000D01*
X105227033Y-85213433D02*
X107913600Y-87900000D01*
X105227033Y-84955500D02*
X105227033Y-85213433D01*
X142025000Y-98083000D02*
X142113000Y-98171000D01*
X142025000Y-90025000D02*
X142025000Y-98083000D01*
X139900000Y-87900000D02*
X142025000Y-90025000D01*
X106205777Y-91050000D02*
X130550000Y-91050000D01*
X131865000Y-98083000D02*
X131953000Y-98171000D01*
X96450000Y-69374864D02*
X96450000Y-77722792D01*
X100585000Y-82325030D02*
X100585000Y-85429223D01*
X130550000Y-91050000D02*
X131865000Y-92365000D01*
X98412432Y-67412432D02*
X96450000Y-69374864D01*
X99237313Y-80510105D02*
X99237313Y-80977343D01*
X100585000Y-85429223D02*
X106205777Y-91050000D01*
X99237313Y-80977343D02*
X100585000Y-82325030D01*
X131865000Y-92365000D02*
X131865000Y-98083000D01*
X96450000Y-77722792D02*
X99237313Y-80510105D01*
X96000000Y-68475936D02*
X96000000Y-77909188D01*
X129325000Y-98083000D02*
X129413000Y-98171000D01*
X98787313Y-80696501D02*
X98787313Y-81163739D01*
X128500000Y-91500000D02*
X129325000Y-92325000D01*
X100135000Y-85615619D02*
X106019381Y-91500000D01*
X96000000Y-77909188D02*
X98787313Y-80696501D01*
X129325000Y-92325000D02*
X129325000Y-98083000D01*
X98787313Y-81163739D02*
X100135000Y-82511426D01*
X106019381Y-91500000D02*
X128500000Y-91500000D01*
X97483427Y-66992509D02*
X96000000Y-68475936D01*
X100135000Y-82511426D02*
X100135000Y-85615619D01*
X108942807Y-87450000D02*
X141450000Y-87450000D01*
X144653000Y-90653000D02*
X144653000Y-98171000D01*
X141450000Y-87450000D02*
X144653000Y-90653000D01*
X106496403Y-85003597D02*
X108942807Y-87450000D01*
X142500000Y-87000000D02*
X117863604Y-87000000D01*
X117863604Y-87000000D02*
X114313604Y-83450000D01*
X110530468Y-67530468D02*
X109873532Y-67530468D01*
X111591000Y-69985243D02*
X111591000Y-68591000D01*
X112500000Y-70894243D02*
X111591000Y-69985243D01*
X112997160Y-83450000D02*
X111591000Y-82043840D01*
X111591000Y-77995157D02*
X112500000Y-77086157D01*
X111591000Y-68591000D02*
X110530468Y-67530468D01*
X112500000Y-77086157D02*
X112500000Y-70894243D01*
X111591000Y-82043840D02*
X111591000Y-77995157D01*
X114313604Y-83450000D02*
X112997160Y-83450000D01*
G04 #@! TA.AperFunction,Conductor*
G36*
X137533624Y-89443091D02*
G01*
X137574501Y-89470405D01*
X138814595Y-90710500D01*
X138841909Y-90751377D01*
X138851500Y-90799595D01*
X138851500Y-93140308D01*
X138835050Y-93202555D01*
X138789996Y-93248550D01*
X138728102Y-93266281D01*
X138677737Y-93254078D01*
X138677247Y-93255508D01*
X138454514Y-93179044D01*
X138374000Y-93165609D01*
X138374000Y-95834391D01*
X138454514Y-95820955D01*
X138677247Y-95744492D01*
X138677737Y-95745921D01*
X138728102Y-95733719D01*
X138789996Y-95751450D01*
X138835050Y-95797445D01*
X138851500Y-95859692D01*
X138851500Y-96949474D01*
X138838697Y-97004812D01*
X138802891Y-97048905D01*
X138649762Y-97168091D01*
X138497278Y-97333731D01*
X138408483Y-97469643D01*
X138362969Y-97511541D01*
X138303000Y-97526727D01*
X138243031Y-97511541D01*
X138197517Y-97469643D01*
X138108721Y-97333731D01*
X138048912Y-97268762D01*
X137956240Y-97168094D01*
X137956239Y-97168093D01*
X137956237Y-97168091D01*
X137778578Y-97029812D01*
X137676126Y-96974368D01*
X137644530Y-96957269D01*
X137596259Y-96910954D01*
X137578500Y-96846456D01*
X137578500Y-95926372D01*
X137592471Y-95868706D01*
X137631284Y-95823827D01*
X137686334Y-95801688D01*
X137745412Y-95807199D01*
X137785484Y-95820955D01*
X137866000Y-95834391D01*
X137866000Y-93165609D01*
X137785484Y-93179044D01*
X137745412Y-93192801D01*
X137686334Y-93198312D01*
X137631284Y-93176173D01*
X137592471Y-93131294D01*
X137578500Y-93073628D01*
X137578500Y-90528853D01*
X137580795Y-90508064D01*
X137580359Y-90494203D01*
X137578562Y-90437014D01*
X137578500Y-90433055D01*
X137578500Y-90405149D01*
X137578500Y-90405144D01*
X137577992Y-90401131D01*
X137577061Y-90389297D01*
X137576831Y-90381970D01*
X137575673Y-90345110D01*
X137570020Y-90325656D01*
X137566012Y-90306298D01*
X137565178Y-90299693D01*
X137563474Y-90286203D01*
X137547190Y-90245077D01*
X137543359Y-90233888D01*
X137531018Y-90191407D01*
X137520704Y-90173968D01*
X137512008Y-90156216D01*
X137504552Y-90137383D01*
X137478571Y-90101624D01*
X137472050Y-90091698D01*
X137469900Y-90088063D01*
X137449542Y-90053637D01*
X137435213Y-90039308D01*
X137422376Y-90024277D01*
X137410473Y-90007893D01*
X137376406Y-89979711D01*
X137367626Y-89971721D01*
X137044500Y-89648595D01*
X137013762Y-89598436D01*
X137009146Y-89539789D01*
X137031659Y-89485439D01*
X137076392Y-89447233D01*
X137133595Y-89433500D01*
X137485406Y-89433500D01*
X137533624Y-89443091D01*
G37*
G04 #@! TD.AperFunction*
G04 #@! TA.AperFunction,Conductor*
G36*
X142803258Y-89720667D02*
G01*
X142856441Y-89752346D01*
X143982595Y-90878500D01*
X144009909Y-90919377D01*
X144019500Y-90967595D01*
X144019500Y-93187362D01*
X144003051Y-93249609D01*
X143957997Y-93295603D01*
X143896104Y-93313335D01*
X143833533Y-93298176D01*
X143747574Y-93251658D01*
X143747573Y-93251657D01*
X143747570Y-93251656D01*
X143574588Y-93192272D01*
X143534635Y-93178556D01*
X143312569Y-93141500D01*
X143087431Y-93141500D01*
X142865365Y-93178556D01*
X142865362Y-93178556D01*
X142865362Y-93178557D01*
X142825412Y-93192272D01*
X142766334Y-93197783D01*
X142711284Y-93175644D01*
X142672471Y-93130765D01*
X142658500Y-93073099D01*
X142658500Y-90108853D01*
X142660795Y-90088063D01*
X142658562Y-90017001D01*
X142658500Y-90013043D01*
X142658500Y-89985149D01*
X142658500Y-89985144D01*
X142657993Y-89981138D01*
X142657062Y-89969305D01*
X142655674Y-89925111D01*
X142650020Y-89905652D01*
X142646012Y-89886299D01*
X142643474Y-89866203D01*
X142643472Y-89866200D01*
X142642340Y-89857233D01*
X142649905Y-89795795D01*
X142685817Y-89745373D01*
X142741407Y-89718140D01*
X142803258Y-89720667D01*
G37*
G04 #@! TD.AperFunction*
G04 #@! TA.AperFunction,Conductor*
G36*
X130283623Y-91693091D02*
G01*
X130324501Y-91720405D01*
X131194596Y-92590501D01*
X131221909Y-92631378D01*
X131231500Y-92679596D01*
X131231500Y-93015500D01*
X131214619Y-93078500D01*
X131168500Y-93124619D01*
X131105500Y-93141500D01*
X130084500Y-93141500D01*
X130021500Y-93124619D01*
X129975381Y-93078500D01*
X129958500Y-93015500D01*
X129958500Y-92408853D01*
X129960795Y-92388064D01*
X129959819Y-92357018D01*
X129958562Y-92317014D01*
X129958500Y-92313055D01*
X129958500Y-92285149D01*
X129958500Y-92285144D01*
X129957992Y-92281131D01*
X129957061Y-92269297D01*
X129955673Y-92225110D01*
X129950020Y-92205656D01*
X129946012Y-92186298D01*
X129943474Y-92166203D01*
X129927190Y-92125077D01*
X129923359Y-92113888D01*
X129911018Y-92071407D01*
X129900704Y-92053968D01*
X129892008Y-92036216D01*
X129884552Y-92017383D01*
X129858571Y-91981624D01*
X129852050Y-91971698D01*
X129843444Y-91957146D01*
X129829542Y-91933637D01*
X129815213Y-91919308D01*
X129802376Y-91904277D01*
X129787324Y-91883559D01*
X129763649Y-91819384D01*
X129776995Y-91752296D01*
X129823427Y-91702067D01*
X129889261Y-91683500D01*
X130235405Y-91683500D01*
X130283623Y-91693091D01*
G37*
G04 #@! TD.AperFunction*
G04 #@! TA.AperFunction,Conductor*
G36*
X110889243Y-82106452D02*
G01*
X110946142Y-82146105D01*
X110964395Y-82188738D01*
X110966668Y-82187839D01*
X110972525Y-82202634D01*
X110972526Y-82202637D01*
X110974102Y-82206617D01*
X110988801Y-82243743D01*
X110992644Y-82254970D01*
X111004980Y-82297430D01*
X111015294Y-82314870D01*
X111023987Y-82332614D01*
X111031448Y-82351457D01*
X111031449Y-82351459D01*
X111057431Y-82387220D01*
X111063948Y-82397141D01*
X111086458Y-82435203D01*
X111100778Y-82449523D01*
X111113618Y-82464556D01*
X111125526Y-82480945D01*
X111159598Y-82509132D01*
X111168378Y-82517122D01*
X112489911Y-83838655D01*
X112502995Y-83854985D01*
X112554826Y-83903657D01*
X112557669Y-83906413D01*
X112577390Y-83926134D01*
X112580578Y-83928607D01*
X112589606Y-83936317D01*
X112621839Y-83966586D01*
X112639592Y-83976346D01*
X112656115Y-83987200D01*
X112672117Y-83999612D01*
X112672120Y-83999614D01*
X112712699Y-84017174D01*
X112723348Y-84022391D01*
X112762095Y-84043693D01*
X112762097Y-84043693D01*
X112762100Y-84043695D01*
X112781734Y-84048736D01*
X112800419Y-84055134D01*
X112819015Y-84063181D01*
X112862690Y-84070098D01*
X112874285Y-84072498D01*
X112917130Y-84083500D01*
X112937384Y-84083500D01*
X112957094Y-84085051D01*
X112977102Y-84088220D01*
X112977102Y-84088219D01*
X112977103Y-84088220D01*
X113021121Y-84084058D01*
X113032979Y-84083500D01*
X113999010Y-84083500D01*
X114047228Y-84093091D01*
X114088105Y-84120405D01*
X116569105Y-86601405D01*
X116599843Y-86651564D01*
X116604459Y-86710211D01*
X116581946Y-86764561D01*
X116537213Y-86802767D01*
X116480010Y-86816500D01*
X109257401Y-86816500D01*
X109209183Y-86806909D01*
X109168306Y-86779595D01*
X107454760Y-85066049D01*
X107430129Y-85031198D01*
X107418546Y-84990129D01*
X107403468Y-84846668D01*
X107415530Y-84778265D01*
X107462008Y-84726646D01*
X107528778Y-84707500D01*
X107605883Y-84707500D01*
X107657131Y-84718393D01*
X107687810Y-84740682D01*
X107687964Y-84740471D01*
X107698678Y-84748255D01*
X107854880Y-84861743D01*
X108031265Y-84940274D01*
X108220122Y-84980417D01*
X108413196Y-84980417D01*
X108413198Y-84980417D01*
X108602055Y-84940274D01*
X108778440Y-84861743D01*
X108934642Y-84748255D01*
X109063835Y-84604771D01*
X109160373Y-84437562D01*
X109220037Y-84253936D01*
X109240219Y-84061917D01*
X109220037Y-83869898D01*
X109196311Y-83796879D01*
X109193626Y-83728533D01*
X109227048Y-83668854D01*
X110759339Y-82136563D01*
X110819980Y-82102915D01*
X110889243Y-82106452D01*
G37*
G04 #@! TD.AperFunction*
G04 #@! TA.AperFunction,Conductor*
G36*
X103521754Y-66719426D02*
G01*
X103576648Y-66751600D01*
X104369707Y-67544659D01*
X104382786Y-67560983D01*
X104384952Y-67563017D01*
X104384953Y-67563018D01*
X104410918Y-67587401D01*
X104434602Y-67609641D01*
X104437413Y-67612365D01*
X104457183Y-67632135D01*
X104460396Y-67634627D01*
X104469386Y-67642306D01*
X104501632Y-67672586D01*
X104519379Y-67682342D01*
X104535903Y-67693196D01*
X104551912Y-67705614D01*
X104592495Y-67723175D01*
X104603146Y-67728393D01*
X104641893Y-67749695D01*
X104661513Y-67754732D01*
X104680220Y-67761137D01*
X104686833Y-67763998D01*
X104698807Y-67769181D01*
X104709458Y-67770867D01*
X104742483Y-67776098D01*
X104754078Y-67778498D01*
X104796923Y-67789500D01*
X104817177Y-67789500D01*
X104836887Y-67791051D01*
X104856895Y-67794220D01*
X104856895Y-67794219D01*
X104856896Y-67794220D01*
X104900914Y-67790058D01*
X104912772Y-67789500D01*
X105401994Y-67789500D01*
X105422782Y-67791795D01*
X105425754Y-67791701D01*
X105425756Y-67791702D01*
X105493832Y-67789562D01*
X105497792Y-67789500D01*
X105525699Y-67789500D01*
X105525703Y-67789500D01*
X105529712Y-67788993D01*
X105541546Y-67788061D01*
X105585736Y-67786673D01*
X105605185Y-67781021D01*
X105624545Y-67777012D01*
X105644644Y-67774474D01*
X105685762Y-67758193D01*
X105696964Y-67754357D01*
X105739440Y-67742018D01*
X105756886Y-67731699D01*
X105774627Y-67723009D01*
X105793464Y-67715552D01*
X105829239Y-67689558D01*
X105839150Y-67683048D01*
X105877209Y-67660542D01*
X105891538Y-67646212D01*
X105906566Y-67633377D01*
X105922954Y-67621472D01*
X105951150Y-67587386D01*
X105959117Y-67578632D01*
X105963757Y-67573992D01*
X106004628Y-67546689D01*
X106052840Y-67537100D01*
X108379032Y-67537100D01*
X108442032Y-67553981D01*
X108488151Y-67600100D01*
X108505032Y-67663100D01*
X108505032Y-67751062D01*
X108502736Y-67771850D01*
X108504970Y-67842901D01*
X108505032Y-67846860D01*
X108505032Y-67874772D01*
X108505539Y-67878788D01*
X108506469Y-67890611D01*
X108507858Y-67934802D01*
X108513510Y-67954254D01*
X108517519Y-67973615D01*
X108520057Y-67993709D01*
X108536333Y-68034818D01*
X108540176Y-68046045D01*
X108552512Y-68088505D01*
X108562826Y-68105945D01*
X108571519Y-68123689D01*
X108577892Y-68139783D01*
X108578981Y-68142534D01*
X108604963Y-68178295D01*
X108611480Y-68188216D01*
X108633990Y-68226278D01*
X108648310Y-68240598D01*
X108661150Y-68255631D01*
X108673058Y-68272020D01*
X108673059Y-68272021D01*
X108673060Y-68272022D01*
X108707124Y-68300202D01*
X108715905Y-68308192D01*
X109061842Y-68654130D01*
X109074919Y-68670452D01*
X109126735Y-68719110D01*
X109129546Y-68721834D01*
X109149315Y-68741603D01*
X109152528Y-68744095D01*
X109161518Y-68751774D01*
X109193764Y-68782054D01*
X109211511Y-68791810D01*
X109228035Y-68802664D01*
X109244044Y-68815082D01*
X109284627Y-68832643D01*
X109295278Y-68837861D01*
X109334025Y-68859163D01*
X109353645Y-68864200D01*
X109372352Y-68870605D01*
X109378965Y-68873466D01*
X109390939Y-68878649D01*
X109401590Y-68880335D01*
X109434615Y-68885566D01*
X109446210Y-68887966D01*
X109489055Y-68898968D01*
X109509309Y-68898968D01*
X109529019Y-68900519D01*
X109549027Y-68903688D01*
X109549027Y-68903687D01*
X109549028Y-68903688D01*
X109593046Y-68899526D01*
X109604904Y-68898968D01*
X109784674Y-68898968D01*
X109832892Y-68908559D01*
X109873769Y-68935873D01*
X110470595Y-69532699D01*
X110497909Y-69573576D01*
X110507500Y-69621794D01*
X110507500Y-70087786D01*
X110505204Y-70108574D01*
X110507438Y-70179625D01*
X110507500Y-70183584D01*
X110507500Y-70211496D01*
X110508007Y-70215512D01*
X110508937Y-70227335D01*
X110510326Y-70271531D01*
X110515977Y-70290980D01*
X110519986Y-70310335D01*
X110522525Y-70330433D01*
X110538801Y-70371542D01*
X110542644Y-70382769D01*
X110554980Y-70425229D01*
X110565294Y-70442669D01*
X110573987Y-70460413D01*
X110575643Y-70464594D01*
X110581449Y-70479258D01*
X110607431Y-70515019D01*
X110613948Y-70524940D01*
X110636458Y-70563002D01*
X110650778Y-70577322D01*
X110663618Y-70592355D01*
X110675526Y-70608744D01*
X110709592Y-70636926D01*
X110718373Y-70644916D01*
X111379596Y-71306140D01*
X111406909Y-71347017D01*
X111416500Y-71395235D01*
X111416500Y-76585166D01*
X111406909Y-76633384D01*
X111379595Y-76674262D01*
X110752337Y-77301518D01*
X110736015Y-77314595D01*
X110687370Y-77366396D01*
X110684620Y-77369234D01*
X110664868Y-77388987D01*
X110664864Y-77388991D01*
X110664865Y-77388991D01*
X110662379Y-77392194D01*
X110654687Y-77401200D01*
X110624413Y-77433439D01*
X110614652Y-77451195D01*
X110603801Y-77467713D01*
X110591385Y-77483720D01*
X110573824Y-77524300D01*
X110568604Y-77534956D01*
X110547304Y-77573701D01*
X110542267Y-77593320D01*
X110535864Y-77612022D01*
X110527818Y-77630616D01*
X110520901Y-77674285D01*
X110518495Y-77685905D01*
X110507500Y-77728731D01*
X110507500Y-77748985D01*
X110505949Y-77768695D01*
X110502779Y-77788703D01*
X110506941Y-77832722D01*
X110507500Y-77844580D01*
X110507500Y-80544405D01*
X110497909Y-80592623D01*
X110470595Y-80633500D01*
X108447583Y-82656512D01*
X108406706Y-82683826D01*
X108358488Y-82693417D01*
X108096062Y-82693417D01*
X108075277Y-82691122D01*
X108004246Y-82693355D01*
X108000288Y-82693417D01*
X107972353Y-82693417D01*
X107968327Y-82693925D01*
X107956515Y-82694854D01*
X107912323Y-82696243D01*
X107892870Y-82701895D01*
X107873516Y-82705903D01*
X107853414Y-82708443D01*
X107812297Y-82724721D01*
X107801072Y-82728564D01*
X107758621Y-82740897D01*
X107741180Y-82751212D01*
X107723432Y-82759906D01*
X107704596Y-82767364D01*
X107668827Y-82793351D01*
X107658910Y-82799865D01*
X107620850Y-82822374D01*
X107606518Y-82836705D01*
X107591494Y-82849536D01*
X107574921Y-82861578D01*
X107531693Y-82895109D01*
X107478046Y-82907100D01*
X104853811Y-82907100D01*
X104833021Y-82904804D01*
X104761959Y-82907038D01*
X104758001Y-82907100D01*
X104730099Y-82907100D01*
X104726091Y-82907606D01*
X104714270Y-82908536D01*
X104670066Y-82909925D01*
X104650610Y-82915578D01*
X104631258Y-82919586D01*
X104611157Y-82922126D01*
X104570051Y-82938400D01*
X104558827Y-82942243D01*
X104516362Y-82954581D01*
X104498917Y-82964897D01*
X104481174Y-82973589D01*
X104462341Y-82981046D01*
X104426573Y-83007033D01*
X104416654Y-83013549D01*
X104378593Y-83036058D01*
X104364268Y-83050383D01*
X104349241Y-83063217D01*
X104332851Y-83075125D01*
X104304658Y-83109204D01*
X104296670Y-83117981D01*
X103848593Y-83566058D01*
X103798436Y-83596795D01*
X103739789Y-83601411D01*
X103685439Y-83578898D01*
X103647233Y-83534165D01*
X103633500Y-83476962D01*
X103633500Y-81069854D01*
X103635795Y-81049064D01*
X103634109Y-80995423D01*
X103633561Y-80978001D01*
X103633500Y-80974044D01*
X103633500Y-80946149D01*
X103633500Y-80946144D01*
X103632993Y-80942138D01*
X103632062Y-80930305D01*
X103630882Y-80892748D01*
X103630674Y-80886111D01*
X103625020Y-80866652D01*
X103621013Y-80847306D01*
X103618474Y-80827203D01*
X103602194Y-80786086D01*
X103598353Y-80774866D01*
X103586018Y-80732407D01*
X103575706Y-80714970D01*
X103567008Y-80697215D01*
X103559552Y-80678383D01*
X103533565Y-80642616D01*
X103527047Y-80632693D01*
X103505699Y-80596595D01*
X103504542Y-80594638D01*
X103490212Y-80580308D01*
X103477378Y-80565281D01*
X103465472Y-80548893D01*
X103465470Y-80548892D01*
X103463037Y-80545542D01*
X103435697Y-80512138D01*
X103421432Y-80465772D01*
X103403377Y-80293981D01*
X103363845Y-80172314D01*
X103343713Y-80110354D01*
X103247174Y-79943144D01*
X103117983Y-79799663D01*
X102961780Y-79686174D01*
X102961779Y-79686173D01*
X102785395Y-79607643D01*
X102596538Y-79567500D01*
X102403462Y-79567500D01*
X102277557Y-79594261D01*
X102214604Y-79607643D01*
X102038219Y-79686175D01*
X101882017Y-79799662D01*
X101870798Y-79812122D01*
X101814001Y-79848304D01*
X101746681Y-79850066D01*
X101688069Y-79816904D01*
X101234004Y-79362839D01*
X101220931Y-79346521D01*
X101169108Y-79297856D01*
X101166296Y-79295131D01*
X101146530Y-79275365D01*
X101143335Y-79272886D01*
X101134313Y-79265181D01*
X101102080Y-79234913D01*
X101084327Y-79225153D01*
X101067801Y-79214297D01*
X101051801Y-79201886D01*
X101011226Y-79184328D01*
X101000564Y-79179104D01*
X100961823Y-79157805D01*
X100948073Y-79154275D01*
X100942197Y-79152766D01*
X100923491Y-79146362D01*
X100904905Y-79138319D01*
X100861235Y-79131402D01*
X100849613Y-79128995D01*
X100806790Y-79118000D01*
X100806789Y-79118000D01*
X100786536Y-79118000D01*
X100766826Y-79116449D01*
X100746817Y-79113279D01*
X100702799Y-79117441D01*
X100690941Y-79118000D01*
X100066094Y-79118000D01*
X100017876Y-79108409D01*
X99976999Y-79081095D01*
X98020405Y-77124500D01*
X97993091Y-77083623D01*
X97983500Y-77035405D01*
X97983500Y-70464594D01*
X97993091Y-70416376D01*
X98020405Y-70375499D01*
X101225499Y-67170405D01*
X101266376Y-67143091D01*
X101314594Y-67133500D01*
X101778344Y-67133500D01*
X101829594Y-67144394D01*
X101871981Y-67175191D01*
X101882018Y-67186338D01*
X102038220Y-67299826D01*
X102214605Y-67378357D01*
X102403462Y-67418500D01*
X102596536Y-67418500D01*
X102596538Y-67418500D01*
X102785395Y-67378357D01*
X102961780Y-67299826D01*
X103117982Y-67186338D01*
X103247175Y-67042854D01*
X103343713Y-66875645D01*
X103367720Y-66801758D01*
X103402024Y-66748171D01*
X103458139Y-66718176D01*
X103521754Y-66719426D01*
G37*
G04 #@! TD.AperFunction*
G04 #@! TA.AperFunction,Conductor*
G36*
X122937206Y-50054832D02*
G01*
X122983312Y-50100832D01*
X123000289Y-50163709D01*
X123005671Y-52498591D01*
X123037599Y-66351799D01*
X123037600Y-66351800D01*
X149543801Y-66351800D01*
X149606801Y-66368681D01*
X149652920Y-66414800D01*
X149669800Y-66477798D01*
X149669892Y-81724956D01*
X149669999Y-99822999D01*
X149653118Y-99886000D01*
X149606999Y-99932119D01*
X149543999Y-99949000D01*
X95136500Y-99949000D01*
X95073500Y-99932119D01*
X95027381Y-99886000D01*
X95010500Y-99823000D01*
X95010500Y-92249999D01*
X96562346Y-92249999D01*
X96580931Y-92474283D01*
X96636180Y-92692456D01*
X96726580Y-92898548D01*
X96801922Y-93013866D01*
X97565790Y-92250000D01*
X96801922Y-91486133D01*
X96726580Y-91601451D01*
X96636180Y-91807543D01*
X96580931Y-92025716D01*
X96562346Y-92249999D01*
X95010500Y-92249999D01*
X95010500Y-68455878D01*
X95361779Y-68455878D01*
X95365941Y-68499897D01*
X95366500Y-68511755D01*
X95366500Y-77825335D01*
X95364204Y-77846123D01*
X95366438Y-77917174D01*
X95366500Y-77921133D01*
X95366500Y-77949045D01*
X95367007Y-77953061D01*
X95367937Y-77964884D01*
X95369326Y-78009080D01*
X95374977Y-78028529D01*
X95378986Y-78047884D01*
X95381525Y-78067982D01*
X95397801Y-78109091D01*
X95401644Y-78120318D01*
X95413980Y-78162778D01*
X95424294Y-78180218D01*
X95432987Y-78197962D01*
X95440448Y-78216805D01*
X95440449Y-78216807D01*
X95466431Y-78252568D01*
X95472948Y-78262489D01*
X95495458Y-78300551D01*
X95509778Y-78314871D01*
X95522618Y-78329904D01*
X95534526Y-78346293D01*
X95568592Y-78374475D01*
X95577373Y-78382465D01*
X95857429Y-78662522D01*
X95889452Y-78716887D01*
X95891104Y-78779961D01*
X95861970Y-78835927D01*
X95752823Y-78957147D01*
X95656286Y-79124354D01*
X95596623Y-79307979D01*
X95576441Y-79500000D01*
X95596623Y-79692020D01*
X95656286Y-79875645D01*
X95752823Y-80042852D01*
X95752825Y-80042854D01*
X95834138Y-80133161D01*
X95858131Y-80172314D01*
X95866500Y-80217469D01*
X95866500Y-80455594D01*
X95864204Y-80476382D01*
X95866438Y-80547433D01*
X95866500Y-80551392D01*
X95866500Y-80579304D01*
X95867007Y-80583320D01*
X95867937Y-80595143D01*
X95869326Y-80639339D01*
X95874977Y-80658788D01*
X95878986Y-80678143D01*
X95881525Y-80698241D01*
X95881525Y-80698243D01*
X95881526Y-80698244D01*
X95884769Y-80706436D01*
X95897801Y-80739350D01*
X95901644Y-80750577D01*
X95913980Y-80793037D01*
X95924294Y-80810477D01*
X95932987Y-80828221D01*
X95940264Y-80846600D01*
X95940449Y-80847066D01*
X95966431Y-80882827D01*
X95972948Y-80892748D01*
X95995458Y-80930810D01*
X96009778Y-80945130D01*
X96022618Y-80960163D01*
X96034526Y-80976552D01*
X96034527Y-80976553D01*
X96034528Y-80976554D01*
X96057337Y-80995423D01*
X96068598Y-81004739D01*
X96077378Y-81012729D01*
X96688304Y-81623655D01*
X96701387Y-81639985D01*
X96753218Y-81688656D01*
X96756030Y-81691381D01*
X96775783Y-81711134D01*
X96777736Y-81712649D01*
X96778977Y-81713612D01*
X96787997Y-81721316D01*
X96820232Y-81751586D01*
X96837988Y-81761347D01*
X96854504Y-81772196D01*
X96870512Y-81784613D01*
X96911078Y-81802167D01*
X96921741Y-81807391D01*
X96926369Y-81809935D01*
X96960493Y-81828695D01*
X96980115Y-81833733D01*
X96998820Y-81840137D01*
X97017408Y-81848181D01*
X97061075Y-81855096D01*
X97072682Y-81857500D01*
X97115523Y-81868500D01*
X97135784Y-81868500D01*
X97155492Y-81870050D01*
X97175496Y-81873219D01*
X97175496Y-81873218D01*
X97175497Y-81873219D01*
X97219507Y-81869059D01*
X97231364Y-81868500D01*
X97271188Y-81868500D01*
X97319406Y-81878091D01*
X97360283Y-81905405D01*
X98348985Y-82894107D01*
X98382013Y-82952186D01*
X98380701Y-83018988D01*
X98345419Y-83075726D01*
X98286088Y-83106448D01*
X98214608Y-83121642D01*
X98214606Y-83121642D01*
X98214605Y-83121643D01*
X98038221Y-83200174D01*
X98038219Y-83200175D01*
X97882016Y-83313663D01*
X97752825Y-83457144D01*
X97656286Y-83624354D01*
X97596623Y-83807979D01*
X97576441Y-84000000D01*
X97596623Y-84192020D01*
X97656286Y-84375645D01*
X97752823Y-84542852D01*
X97752825Y-84542854D01*
X97834138Y-84633161D01*
X97858131Y-84672314D01*
X97866500Y-84717469D01*
X97866500Y-90776268D01*
X97852924Y-90833161D01*
X97815122Y-90877794D01*
X97761239Y-90900549D01*
X97590491Y-90929042D01*
X97377628Y-91002117D01*
X97179700Y-91109231D01*
X97159310Y-91125099D01*
X97159310Y-91125100D01*
X97925000Y-91890789D01*
X97925000Y-91890790D01*
X98195114Y-92160904D01*
X98227726Y-92217388D01*
X98227726Y-92282610D01*
X98195114Y-92339094D01*
X97159309Y-93374898D01*
X97159310Y-93374899D01*
X97179697Y-93390767D01*
X97377628Y-93497882D01*
X97590491Y-93570957D01*
X97812470Y-93608000D01*
X98037530Y-93608000D01*
X98259508Y-93570957D01*
X98472368Y-93497883D01*
X98679483Y-93385798D01*
X98681253Y-93389069D01*
X98727497Y-93370470D01*
X98795836Y-93382598D01*
X98847384Y-93429075D01*
X98866500Y-93495797D01*
X98866500Y-94877905D01*
X98856909Y-94926123D01*
X98829595Y-94967001D01*
X98395950Y-95400644D01*
X98335257Y-95434305D01*
X98265947Y-95430722D01*
X98259642Y-95428557D01*
X98203820Y-95419242D01*
X98037569Y-95391500D01*
X97812431Y-95391500D01*
X97590365Y-95428556D01*
X97590362Y-95428556D01*
X97590362Y-95428557D01*
X97377426Y-95501657D01*
X97179421Y-95608812D01*
X97001762Y-95747091D01*
X96849278Y-95912731D01*
X96726139Y-96101209D01*
X96635702Y-96307388D01*
X96580437Y-96525627D01*
X96580436Y-96525632D01*
X96561844Y-96750000D01*
X96580436Y-96974368D01*
X96580436Y-96974371D01*
X96580437Y-96974372D01*
X96635702Y-97192611D01*
X96726139Y-97398790D01*
X96849277Y-97587267D01*
X96849278Y-97587268D01*
X96979189Y-97728388D01*
X97001762Y-97752908D01*
X97179421Y-97891187D01*
X97179424Y-97891189D01*
X97377426Y-97998342D01*
X97590365Y-98071444D01*
X97812431Y-98108500D01*
X98037566Y-98108500D01*
X98037569Y-98108500D01*
X98259635Y-98071444D01*
X98472574Y-97998342D01*
X98627174Y-97914676D01*
X98687272Y-97899491D01*
X98747340Y-97914801D01*
X98792838Y-97956903D01*
X98812754Y-98015605D01*
X98831390Y-98252403D01*
X98890495Y-98498591D01*
X98938071Y-98613451D01*
X98987384Y-98732502D01*
X99119672Y-98948376D01*
X99284102Y-99140898D01*
X99476624Y-99305328D01*
X99692498Y-99437616D01*
X99926409Y-99534505D01*
X100113491Y-99579419D01*
X100172596Y-99593609D01*
X100191011Y-99595058D01*
X100425000Y-99613474D01*
X100677403Y-99593609D01*
X100923591Y-99534505D01*
X101157502Y-99437616D01*
X101373376Y-99305328D01*
X101565898Y-99140898D01*
X101730328Y-98948376D01*
X101862616Y-98732502D01*
X101959505Y-98498591D01*
X102018609Y-98252403D01*
X102038474Y-98000000D01*
X102018609Y-97747597D01*
X102013997Y-97728388D01*
X102003435Y-97684393D01*
X101959505Y-97501409D01*
X101862616Y-97267498D01*
X101730328Y-97051624D01*
X101565898Y-96859102D01*
X101373376Y-96694672D01*
X101157502Y-96562384D01*
X101068767Y-96525629D01*
X100923591Y-96465495D01*
X100677403Y-96406390D01*
X100425000Y-96386526D01*
X100172596Y-96406390D01*
X99926408Y-96465495D01*
X99692499Y-96562383D01*
X99625457Y-96603467D01*
X99476624Y-96694672D01*
X99476621Y-96694674D01*
X99468169Y-96699854D01*
X99466288Y-96696784D01*
X99421393Y-96717495D01*
X99353587Y-96709563D01*
X99299871Y-96667431D01*
X99276013Y-96603469D01*
X99269564Y-96525632D01*
X99245353Y-96430026D01*
X99246018Y-96365647D01*
X99278400Y-96310002D01*
X99888661Y-95699742D01*
X99904977Y-95686672D01*
X99907014Y-95684502D01*
X99907018Y-95684500D01*
X99953661Y-95634828D01*
X99956352Y-95632051D01*
X99976135Y-95612270D01*
X99978621Y-95609064D01*
X99986310Y-95600061D01*
X100016586Y-95567821D01*
X100026342Y-95550071D01*
X100037195Y-95533550D01*
X100049614Y-95517541D01*
X100067175Y-95476954D01*
X100072388Y-95466313D01*
X100093695Y-95427560D01*
X100098733Y-95407934D01*
X100105137Y-95389232D01*
X100113181Y-95370645D01*
X100120096Y-95326981D01*
X100122504Y-95315353D01*
X100133500Y-95272529D01*
X100133500Y-95252276D01*
X100135051Y-95232566D01*
X100138220Y-95212557D01*
X100134059Y-95168539D01*
X100133500Y-95156681D01*
X100133500Y-92726839D01*
X100152067Y-92661004D01*
X100202297Y-92614572D01*
X100269386Y-92601227D01*
X100313694Y-92604713D01*
X100425000Y-92613474D01*
X100677403Y-92593609D01*
X100923591Y-92534505D01*
X101157502Y-92437616D01*
X101373376Y-92305328D01*
X101565898Y-92140898D01*
X101730328Y-91948376D01*
X101862616Y-91732502D01*
X101959505Y-91498591D01*
X102018609Y-91252403D01*
X102038474Y-91000000D01*
X102020172Y-90767461D01*
X102018609Y-90747596D01*
X101967249Y-90533667D01*
X101959505Y-90501409D01*
X101862616Y-90267498D01*
X101730328Y-90051624D01*
X101565898Y-89859102D01*
X101373376Y-89694672D01*
X101157502Y-89562384D01*
X100923591Y-89465495D01*
X100677403Y-89406390D01*
X100425000Y-89386526D01*
X100172596Y-89406390D01*
X99926408Y-89465495D01*
X99692499Y-89562383D01*
X99611039Y-89612302D01*
X99476624Y-89694672D01*
X99386780Y-89771407D01*
X99341331Y-89810224D01*
X99276764Y-89839225D01*
X99206749Y-89828839D01*
X99153381Y-89782344D01*
X99133500Y-89714413D01*
X99133500Y-87087005D01*
X99147233Y-87029802D01*
X99185439Y-86985069D01*
X99239789Y-86962556D01*
X99298436Y-86967172D01*
X99348595Y-86997910D01*
X102829595Y-90478911D01*
X102856909Y-90519788D01*
X102866500Y-90568006D01*
X102866500Y-91782531D01*
X102858131Y-91827686D01*
X102834138Y-91866838D01*
X102795570Y-91909671D01*
X102752823Y-91957147D01*
X102656286Y-92124354D01*
X102596623Y-92307979D01*
X102576441Y-92499999D01*
X102596623Y-92692020D01*
X102656286Y-92875645D01*
X102752825Y-93042855D01*
X102872389Y-93175644D01*
X102882018Y-93186338D01*
X103038220Y-93299826D01*
X103214605Y-93378357D01*
X103403462Y-93418500D01*
X103596536Y-93418500D01*
X103596538Y-93418500D01*
X103785395Y-93378357D01*
X103961780Y-93299826D01*
X104117982Y-93186338D01*
X104247175Y-93042854D01*
X104343713Y-92875645D01*
X104403377Y-92692019D01*
X104423559Y-92500000D01*
X104403377Y-92307981D01*
X104363840Y-92186298D01*
X104343713Y-92124354D01*
X104247176Y-91957147D01*
X104226007Y-91933637D01*
X104165861Y-91866838D01*
X104141869Y-91827686D01*
X104133500Y-91782531D01*
X104133500Y-91450610D01*
X104147233Y-91393407D01*
X104185439Y-91348674D01*
X104239789Y-91326161D01*
X104298436Y-91330777D01*
X104348595Y-91361515D01*
X105325739Y-92338659D01*
X105338818Y-92354983D01*
X105390634Y-92403641D01*
X105393445Y-92406365D01*
X105413215Y-92426135D01*
X105416428Y-92428627D01*
X105425418Y-92436306D01*
X105457664Y-92466586D01*
X105475411Y-92476342D01*
X105491935Y-92487196D01*
X105507944Y-92499614D01*
X105548527Y-92517175D01*
X105559178Y-92522393D01*
X105597925Y-92543695D01*
X105617545Y-92548732D01*
X105636252Y-92555137D01*
X105642865Y-92557998D01*
X105654839Y-92563181D01*
X105665490Y-92564867D01*
X105698515Y-92570098D01*
X105710110Y-92572498D01*
X105752955Y-92583500D01*
X105773209Y-92583500D01*
X105792919Y-92585051D01*
X105812927Y-92588220D01*
X105812927Y-92588219D01*
X105812928Y-92588220D01*
X105856946Y-92584058D01*
X105868804Y-92583500D01*
X117135406Y-92583500D01*
X117183624Y-92593091D01*
X117224501Y-92620405D01*
X119989595Y-95385499D01*
X120016909Y-95426376D01*
X120026500Y-95474594D01*
X120026500Y-96894079D01*
X120008741Y-96958576D01*
X119960471Y-97004891D01*
X119938500Y-97016782D01*
X119914418Y-97029814D01*
X119736758Y-97168094D01*
X119675754Y-97234362D01*
X119622282Y-97268762D01*
X119558820Y-97272672D01*
X119501530Y-97245096D01*
X119464998Y-97193056D01*
X119455688Y-97168094D01*
X119420889Y-97074796D01*
X119403542Y-97051623D01*
X119333261Y-96957738D01*
X119216205Y-96870111D01*
X119147702Y-96844560D01*
X119079201Y-96819011D01*
X119018638Y-96812500D01*
X117221362Y-96812500D01*
X117160799Y-96819011D01*
X117023794Y-96870111D01*
X116906738Y-96957738D01*
X116819111Y-97074794D01*
X116775168Y-97192611D01*
X116768011Y-97211799D01*
X116761500Y-97272362D01*
X116761500Y-99069638D01*
X116768011Y-99130201D01*
X116784173Y-99173533D01*
X116819111Y-99267205D01*
X116906738Y-99384261D01*
X117023794Y-99471888D01*
X117023795Y-99471888D01*
X117023796Y-99471889D01*
X117160799Y-99522989D01*
X117221362Y-99529500D01*
X119018638Y-99529500D01*
X119079201Y-99522989D01*
X119216204Y-99471889D01*
X119333261Y-99384261D01*
X119420889Y-99267204D01*
X119464999Y-99148941D01*
X119501530Y-99096903D01*
X119558821Y-99069327D01*
X119622282Y-99073237D01*
X119675753Y-99107636D01*
X119706373Y-99140897D01*
X119736762Y-99173908D01*
X119914421Y-99312187D01*
X119914424Y-99312189D01*
X120112426Y-99419342D01*
X120325365Y-99492444D01*
X120547431Y-99529500D01*
X120772566Y-99529500D01*
X120772569Y-99529500D01*
X120994635Y-99492444D01*
X121207574Y-99419342D01*
X121405576Y-99312189D01*
X121583240Y-99173906D01*
X121735722Y-99008268D01*
X121824518Y-98872354D01*
X121870031Y-98830458D01*
X121930000Y-98815272D01*
X121989969Y-98830458D01*
X122035481Y-98872354D01*
X122124278Y-99008268D01*
X122236525Y-99130200D01*
X122276762Y-99173908D01*
X122454421Y-99312187D01*
X122454424Y-99312189D01*
X122652426Y-99419342D01*
X122865365Y-99492444D01*
X123087431Y-99529500D01*
X123312566Y-99529500D01*
X123312569Y-99529500D01*
X123534635Y-99492444D01*
X123747574Y-99419342D01*
X123945576Y-99312189D01*
X124123240Y-99173906D01*
X124275722Y-99008268D01*
X124364818Y-98871896D01*
X124410329Y-98829999D01*
X124470299Y-98814813D01*
X124530268Y-98829999D01*
X124575782Y-98871897D01*
X124664678Y-99007962D01*
X124817096Y-99173533D01*
X124994697Y-99311766D01*
X125192631Y-99418883D01*
X125405485Y-99491955D01*
X125486000Y-99505391D01*
X125486000Y-98425000D01*
X125994000Y-98425000D01*
X125994000Y-99505391D01*
X126074514Y-99491955D01*
X126287368Y-99418883D01*
X126485302Y-99311766D01*
X126662903Y-99173533D01*
X126815321Y-99007962D01*
X126938419Y-98819548D01*
X127028822Y-98613451D01*
X127076544Y-98425000D01*
X125994000Y-98425000D01*
X125486000Y-98425000D01*
X125486000Y-96836609D01*
X125994000Y-96836609D01*
X125994000Y-97917000D01*
X127076544Y-97917000D01*
X127076544Y-97916999D01*
X127028822Y-97728548D01*
X126938419Y-97522451D01*
X126815321Y-97334037D01*
X126662903Y-97168466D01*
X126485302Y-97030233D01*
X126287368Y-96923116D01*
X126074514Y-96850044D01*
X125994000Y-96836609D01*
X125486000Y-96836609D01*
X125405485Y-96850044D01*
X125192631Y-96923116D01*
X124994697Y-97030233D01*
X124817096Y-97168466D01*
X124664678Y-97334037D01*
X124575782Y-97470102D01*
X124530268Y-97512000D01*
X124470299Y-97527186D01*
X124410329Y-97512000D01*
X124364816Y-97470101D01*
X124275723Y-97333734D01*
X124275722Y-97333732D01*
X124123240Y-97168094D01*
X124123239Y-97168093D01*
X124123237Y-97168091D01*
X123945578Y-97029812D01*
X123747573Y-96922657D01*
X123581273Y-96865567D01*
X123534635Y-96849556D01*
X123312569Y-96812500D01*
X123087431Y-96812500D01*
X122865365Y-96849556D01*
X122865362Y-96849556D01*
X122865362Y-96849557D01*
X122652426Y-96922657D01*
X122454421Y-97029812D01*
X122276762Y-97168091D01*
X122124278Y-97333731D01*
X122035483Y-97469643D01*
X121989969Y-97511541D01*
X121930000Y-97526727D01*
X121870031Y-97511541D01*
X121824517Y-97469643D01*
X121735721Y-97333731D01*
X121675912Y-97268762D01*
X121583240Y-97168094D01*
X121583239Y-97168093D01*
X121583237Y-97168091D01*
X121405581Y-97029814D01*
X121405577Y-97029811D01*
X121405576Y-97029811D01*
X121359528Y-97004891D01*
X121311259Y-96958576D01*
X121293500Y-96894079D01*
X121293500Y-95243854D01*
X121295795Y-95223064D01*
X121293562Y-95152002D01*
X121293500Y-95148044D01*
X121293500Y-95120149D01*
X121293500Y-95120144D01*
X121292993Y-95116138D01*
X121292062Y-95104305D01*
X121290674Y-95060111D01*
X121285019Y-95040647D01*
X121281013Y-95021307D01*
X121278474Y-95001203D01*
X121262195Y-94960087D01*
X121258356Y-94948872D01*
X121246019Y-94906407D01*
X121235703Y-94888964D01*
X121227007Y-94871214D01*
X121219552Y-94852383D01*
X121193554Y-94816600D01*
X121187058Y-94806710D01*
X121164542Y-94768638D01*
X121150212Y-94754308D01*
X121137378Y-94739281D01*
X121125472Y-94722893D01*
X121125471Y-94722892D01*
X121091394Y-94694700D01*
X121082616Y-94686712D01*
X118744500Y-92348595D01*
X118713762Y-92298436D01*
X118709146Y-92239789D01*
X118731659Y-92185439D01*
X118776392Y-92147233D01*
X118833595Y-92133500D01*
X128185406Y-92133500D01*
X128233624Y-92143091D01*
X128274501Y-92170405D01*
X128654595Y-92550499D01*
X128681909Y-92591376D01*
X128691500Y-92639594D01*
X128691500Y-96686500D01*
X128674619Y-96749500D01*
X128628500Y-96795619D01*
X128565500Y-96812500D01*
X128514362Y-96812500D01*
X128453799Y-96819011D01*
X128316794Y-96870111D01*
X128199738Y-96957738D01*
X128112111Y-97074794D01*
X128068168Y-97192611D01*
X128061011Y-97211799D01*
X128054500Y-97272362D01*
X128054500Y-99069638D01*
X128061011Y-99130201D01*
X128077173Y-99173533D01*
X128112111Y-99267205D01*
X128199738Y-99384261D01*
X128316794Y-99471888D01*
X128316795Y-99471888D01*
X128316796Y-99471889D01*
X128453799Y-99522989D01*
X128514362Y-99529500D01*
X130311638Y-99529500D01*
X130372201Y-99522989D01*
X130509204Y-99471889D01*
X130626261Y-99384261D01*
X130713889Y-99267204D01*
X130757999Y-99148941D01*
X130794530Y-99096903D01*
X130851821Y-99069327D01*
X130915282Y-99073237D01*
X130968753Y-99107636D01*
X130999373Y-99140897D01*
X131029762Y-99173908D01*
X131207421Y-99312187D01*
X131207424Y-99312189D01*
X131405426Y-99419342D01*
X131618365Y-99492444D01*
X131840431Y-99529500D01*
X132065566Y-99529500D01*
X132065569Y-99529500D01*
X132287635Y-99492444D01*
X132500574Y-99419342D01*
X132698576Y-99312189D01*
X132876240Y-99173906D01*
X133028722Y-99008268D01*
X133117518Y-98872354D01*
X133163031Y-98830458D01*
X133223000Y-98815272D01*
X133282969Y-98830458D01*
X133328481Y-98872354D01*
X133417278Y-99008268D01*
X133529525Y-99130200D01*
X133569762Y-99173908D01*
X133747421Y-99312187D01*
X133747424Y-99312189D01*
X133945426Y-99419342D01*
X134158365Y-99492444D01*
X134380431Y-99529500D01*
X134605566Y-99529500D01*
X134605569Y-99529500D01*
X134827635Y-99492444D01*
X135040574Y-99419342D01*
X135238576Y-99312189D01*
X135416240Y-99173906D01*
X135568722Y-99008268D01*
X135657518Y-98872354D01*
X135703031Y-98830458D01*
X135763000Y-98815272D01*
X135822969Y-98830458D01*
X135868481Y-98872354D01*
X135957278Y-99008268D01*
X136069525Y-99130200D01*
X136109762Y-99173908D01*
X136287421Y-99312187D01*
X136287424Y-99312189D01*
X136485426Y-99419342D01*
X136698365Y-99492444D01*
X136920431Y-99529500D01*
X137145566Y-99529500D01*
X137145569Y-99529500D01*
X137367635Y-99492444D01*
X137580574Y-99419342D01*
X137778576Y-99312189D01*
X137956240Y-99173906D01*
X138108722Y-99008268D01*
X138197518Y-98872354D01*
X138243031Y-98830458D01*
X138303000Y-98815272D01*
X138362969Y-98830458D01*
X138408481Y-98872354D01*
X138497278Y-99008268D01*
X138609525Y-99130200D01*
X138649762Y-99173908D01*
X138827421Y-99312187D01*
X138827424Y-99312189D01*
X139025426Y-99419342D01*
X139238365Y-99492444D01*
X139460431Y-99529500D01*
X139685566Y-99529500D01*
X139685569Y-99529500D01*
X139907635Y-99492444D01*
X140120574Y-99419342D01*
X140318576Y-99312189D01*
X140496240Y-99173906D01*
X140648722Y-99008268D01*
X140737518Y-98872354D01*
X140783031Y-98830458D01*
X140843000Y-98815272D01*
X140902969Y-98830458D01*
X140948481Y-98872354D01*
X141037278Y-99008268D01*
X141149525Y-99130200D01*
X141189762Y-99173908D01*
X141367421Y-99312187D01*
X141367424Y-99312189D01*
X141565426Y-99419342D01*
X141778365Y-99492444D01*
X142000431Y-99529500D01*
X142225566Y-99529500D01*
X142225569Y-99529500D01*
X142447635Y-99492444D01*
X142660574Y-99419342D01*
X142858576Y-99312189D01*
X143036240Y-99173906D01*
X143188722Y-99008268D01*
X143277518Y-98872354D01*
X143323031Y-98830458D01*
X143383000Y-98815272D01*
X143442969Y-98830458D01*
X143488481Y-98872354D01*
X143577278Y-99008268D01*
X143689525Y-99130200D01*
X143729762Y-99173908D01*
X143907421Y-99312187D01*
X143907424Y-99312189D01*
X144105426Y-99419342D01*
X144318365Y-99492444D01*
X144540431Y-99529500D01*
X144765566Y-99529500D01*
X144765569Y-99529500D01*
X144987635Y-99492444D01*
X145200574Y-99419342D01*
X145398576Y-99312189D01*
X145576240Y-99173906D01*
X145728722Y-99008268D01*
X145851860Y-98819791D01*
X145942296Y-98613616D01*
X145997564Y-98395368D01*
X146016156Y-98171000D01*
X145997564Y-97946632D01*
X145942296Y-97728384D01*
X145851860Y-97522209D01*
X145728722Y-97333732D01*
X145576240Y-97168094D01*
X145576239Y-97168093D01*
X145576237Y-97168091D01*
X145398581Y-97029814D01*
X145398577Y-97029811D01*
X145398576Y-97029811D01*
X145352528Y-97004891D01*
X145304259Y-96958576D01*
X145286500Y-96894079D01*
X145286500Y-90736853D01*
X145288795Y-90716064D01*
X145288620Y-90710500D01*
X145286562Y-90645014D01*
X145286500Y-90641055D01*
X145286500Y-90613149D01*
X145286500Y-90613144D01*
X145285992Y-90609131D01*
X145285061Y-90597297D01*
X145283673Y-90553111D01*
X145278021Y-90533659D01*
X145274012Y-90514299D01*
X145271474Y-90494203D01*
X145255196Y-90453090D01*
X145251350Y-90441856D01*
X145249943Y-90437014D01*
X145239018Y-90399407D01*
X145228706Y-90381970D01*
X145220008Y-90364215D01*
X145212552Y-90345383D01*
X145186565Y-90309616D01*
X145180047Y-90299693D01*
X145172069Y-90286203D01*
X145157542Y-90261638D01*
X145143212Y-90247308D01*
X145130378Y-90232281D01*
X145118472Y-90215893D01*
X145118471Y-90215892D01*
X145084394Y-90187700D01*
X145075616Y-90179712D01*
X142907326Y-88011421D01*
X142876088Y-87959690D01*
X142872531Y-87899363D01*
X142897472Y-87844319D01*
X142945172Y-87807220D01*
X142961780Y-87799826D01*
X143117982Y-87686338D01*
X143247175Y-87542854D01*
X143343713Y-87375645D01*
X143403377Y-87192019D01*
X143423559Y-87000000D01*
X143403377Y-86807981D01*
X143343713Y-86624355D01*
X143343713Y-86624354D01*
X143247174Y-86457144D01*
X143117983Y-86313663D01*
X142961781Y-86200175D01*
X142961780Y-86200174D01*
X142785395Y-86121643D01*
X142780353Y-86119398D01*
X142732652Y-86082297D01*
X142707712Y-86027253D01*
X142711269Y-85966927D01*
X142742505Y-85915198D01*
X146888658Y-81769044D01*
X146904979Y-81755970D01*
X146907014Y-81753802D01*
X146907018Y-81753800D01*
X146953677Y-81704111D01*
X146956368Y-81701334D01*
X146976134Y-81681570D01*
X146978605Y-81678383D01*
X146986312Y-81669359D01*
X147016586Y-81637121D01*
X147026343Y-81619370D01*
X147037199Y-81602843D01*
X147049613Y-81586841D01*
X147067172Y-81546261D01*
X147072392Y-81535609D01*
X147093694Y-81496861D01*
X147093695Y-81496860D01*
X147098732Y-81477239D01*
X147105138Y-81458530D01*
X147113181Y-81439944D01*
X147120096Y-81396281D01*
X147122504Y-81384653D01*
X147133500Y-81341829D01*
X147133500Y-81321576D01*
X147135051Y-81301866D01*
X147138220Y-81281857D01*
X147134059Y-81237839D01*
X147133500Y-81225981D01*
X147133500Y-78217469D01*
X147141869Y-78172314D01*
X147165861Y-78133161D01*
X147247175Y-78042854D01*
X147343713Y-77875645D01*
X147403377Y-77692019D01*
X147423559Y-77500000D01*
X147403377Y-77307981D01*
X147343713Y-77124355D01*
X147343713Y-77124354D01*
X147247174Y-76957144D01*
X147117983Y-76813663D01*
X146961780Y-76700174D01*
X146903580Y-76674262D01*
X146785395Y-76621643D01*
X146596538Y-76581500D01*
X146403462Y-76581500D01*
X146277557Y-76608262D01*
X146214604Y-76621643D01*
X146038219Y-76700175D01*
X145882016Y-76813663D01*
X145752825Y-76957144D01*
X145656286Y-77124354D01*
X145596623Y-77307979D01*
X145576441Y-77500000D01*
X145596623Y-77692020D01*
X145656286Y-77875645D01*
X145752823Y-78042852D01*
X145752825Y-78042854D01*
X145834138Y-78133161D01*
X145858131Y-78172314D01*
X145866500Y-78217469D01*
X145866500Y-80947205D01*
X145856909Y-80995423D01*
X145829595Y-81036300D01*
X140986300Y-85879595D01*
X140945423Y-85906909D01*
X140897205Y-85916500D01*
X118364594Y-85916500D01*
X118316376Y-85906909D01*
X118275499Y-85879595D01*
X116649841Y-84253937D01*
X115007244Y-82611339D01*
X114994171Y-82595021D01*
X114942349Y-82546357D01*
X114939537Y-82543632D01*
X114919770Y-82523865D01*
X114916575Y-82521386D01*
X114907553Y-82513681D01*
X114906738Y-82512916D01*
X114875321Y-82483414D01*
X114875320Y-82483413D01*
X114857567Y-82473653D01*
X114841041Y-82462797D01*
X114825041Y-82450386D01*
X114784466Y-82432828D01*
X114773804Y-82427604D01*
X114735063Y-82406305D01*
X114721313Y-82402775D01*
X114715437Y-82401266D01*
X114696731Y-82394862D01*
X114678145Y-82386819D01*
X114634475Y-82379902D01*
X114622853Y-82377495D01*
X114580030Y-82366500D01*
X114580029Y-82366500D01*
X114559776Y-82366500D01*
X114540066Y-82364949D01*
X114520057Y-82361779D01*
X114476039Y-82365941D01*
X114464181Y-82366500D01*
X113621768Y-82366500D01*
X113565744Y-82353360D01*
X113521405Y-82316680D01*
X113498000Y-82264110D01*
X113500409Y-82206617D01*
X113528131Y-82156190D01*
X113537211Y-82146105D01*
X113554371Y-82127047D01*
X113650909Y-81959838D01*
X113657873Y-81938404D01*
X113699616Y-81809935D01*
X113735139Y-81755234D01*
X113793251Y-81725625D01*
X113796395Y-81724957D01*
X113972780Y-81646426D01*
X114128982Y-81532938D01*
X114258175Y-81389454D01*
X114354713Y-81222245D01*
X114414377Y-81038619D01*
X114434559Y-80846600D01*
X114414377Y-80654581D01*
X114378948Y-80545542D01*
X114354713Y-80470954D01*
X114258176Y-80303747D01*
X114249381Y-80293979D01*
X114176861Y-80213438D01*
X114152869Y-80174286D01*
X114144500Y-80129131D01*
X114144500Y-79741438D01*
X114154091Y-79693220D01*
X114181404Y-79652343D01*
X114333747Y-79500000D01*
X114884660Y-78949085D01*
X114900981Y-78936011D01*
X114903015Y-78933844D01*
X114903018Y-78933843D01*
X114949677Y-78884154D01*
X114952368Y-78881377D01*
X114972134Y-78861613D01*
X114974605Y-78858426D01*
X114982312Y-78849402D01*
X115012586Y-78817164D01*
X115022343Y-78799413D01*
X115033199Y-78782886D01*
X115045613Y-78766884D01*
X115063172Y-78726304D01*
X115068392Y-78715652D01*
X115089694Y-78676904D01*
X115089695Y-78676903D01*
X115094732Y-78657282D01*
X115101138Y-78638573D01*
X115109181Y-78619988D01*
X115116096Y-78576319D01*
X115118496Y-78564724D01*
X115129500Y-78521873D01*
X115129500Y-78501612D01*
X115131051Y-78481901D01*
X115134219Y-78461898D01*
X115130059Y-78417889D01*
X115129500Y-78406032D01*
X115129500Y-75265050D01*
X129094160Y-75265050D01*
X129170952Y-75318821D01*
X129382345Y-75417395D01*
X129607641Y-75477762D01*
X129840000Y-75498091D01*
X130072358Y-75477762D01*
X130297654Y-75417395D01*
X130509043Y-75318822D01*
X130585838Y-75265049D01*
X129840000Y-74519210D01*
X129839999Y-74519210D01*
X129094160Y-75265048D01*
X129094160Y-75265050D01*
X115129500Y-75265050D01*
X115129500Y-74160000D01*
X128501908Y-74160000D01*
X128522237Y-74392358D01*
X128582604Y-74617654D01*
X128681180Y-74829049D01*
X128734948Y-74905838D01*
X129480789Y-74160000D01*
X130199210Y-74160000D01*
X130945048Y-74905838D01*
X130945049Y-74905838D01*
X130998822Y-74829043D01*
X131097395Y-74617654D01*
X131157762Y-74392358D01*
X131178091Y-74160000D01*
X138661406Y-74160000D01*
X138681742Y-74392444D01*
X138742132Y-74617825D01*
X138840744Y-74829297D01*
X138974580Y-75020435D01*
X139139564Y-75185419D01*
X139139567Y-75185421D01*
X139139568Y-75185422D01*
X139330703Y-75319256D01*
X139542174Y-75417867D01*
X139767556Y-75478258D01*
X140000000Y-75498594D01*
X140232444Y-75478258D01*
X140457826Y-75417867D01*
X140669297Y-75319256D01*
X140860432Y-75185422D01*
X141025422Y-75020432D01*
X141159256Y-74829297D01*
X141257867Y-74617826D01*
X141318258Y-74392444D01*
X141338594Y-74160000D01*
X141318258Y-73927556D01*
X141257867Y-73702174D01*
X141159256Y-73490703D01*
X141025422Y-73299568D01*
X141025421Y-73299567D01*
X141025419Y-73299564D01*
X140860435Y-73134580D01*
X140669297Y-73000744D01*
X140457825Y-72902132D01*
X140232444Y-72841742D01*
X140000000Y-72821406D01*
X139767555Y-72841742D01*
X139542174Y-72902132D01*
X139330702Y-73000744D01*
X139139564Y-73134580D01*
X138974580Y-73299564D01*
X138840744Y-73490702D01*
X138742132Y-73702174D01*
X138681742Y-73927555D01*
X138661406Y-74160000D01*
X131178091Y-74160000D01*
X131157762Y-73927641D01*
X131097395Y-73702345D01*
X130998821Y-73490952D01*
X130945050Y-73414160D01*
X130945049Y-73414160D01*
X130199210Y-74159999D01*
X130199210Y-74160000D01*
X129480789Y-74160000D01*
X129480789Y-74159999D01*
X128734949Y-73414159D01*
X128681180Y-73490950D01*
X128582604Y-73702345D01*
X128522237Y-73927641D01*
X128501908Y-74160000D01*
X115129500Y-74160000D01*
X115129500Y-73054949D01*
X129094159Y-73054949D01*
X129839999Y-73800789D01*
X129840000Y-73800789D01*
X130585838Y-73054948D01*
X130585838Y-73054947D01*
X130509049Y-73001180D01*
X130297654Y-72902604D01*
X130072358Y-72842237D01*
X129840000Y-72821908D01*
X129607641Y-72842237D01*
X129382345Y-72902604D01*
X129170950Y-73001180D01*
X129094159Y-73054949D01*
X115129500Y-73054949D01*
X115129500Y-68986014D01*
X115131795Y-68965224D01*
X115129562Y-68894162D01*
X115129500Y-68890204D01*
X115129500Y-68862310D01*
X115129500Y-68862305D01*
X115128993Y-68858299D01*
X115128062Y-68846466D01*
X115127702Y-68835000D01*
X115126674Y-68802272D01*
X115121020Y-68782813D01*
X115117013Y-68763467D01*
X115114474Y-68743364D01*
X115098194Y-68702247D01*
X115094353Y-68691027D01*
X115082018Y-68648568D01*
X115071706Y-68631131D01*
X115063008Y-68613376D01*
X115055552Y-68594544D01*
X115029565Y-68558777D01*
X115023047Y-68548854D01*
X115001107Y-68511755D01*
X115000542Y-68510799D01*
X114986212Y-68496469D01*
X114973378Y-68481442D01*
X114961472Y-68465054D01*
X114961471Y-68465053D01*
X114927400Y-68436866D01*
X114918621Y-68428878D01*
X114670404Y-68180660D01*
X114643091Y-68139783D01*
X114633500Y-68091565D01*
X114633500Y-63717469D01*
X114641869Y-63672314D01*
X114665861Y-63633161D01*
X114747175Y-63542854D01*
X114843713Y-63375645D01*
X114903377Y-63192019D01*
X114923559Y-63000000D01*
X114903377Y-62807981D01*
X114861608Y-62679430D01*
X114843713Y-62624354D01*
X114747174Y-62457144D01*
X114617983Y-62313663D01*
X114599399Y-62300161D01*
X114461780Y-62200174D01*
X114285395Y-62121643D01*
X114096538Y-62081500D01*
X113903462Y-62081500D01*
X113714605Y-62121643D01*
X113714603Y-62121643D01*
X113714602Y-62121644D01*
X113541496Y-62198715D01*
X113490248Y-62209608D01*
X113439000Y-62198715D01*
X113408447Y-62185112D01*
X113265892Y-62121643D01*
X113077035Y-62081500D01*
X112883959Y-62081500D01*
X112758614Y-62108143D01*
X112695101Y-62121643D01*
X112518716Y-62200175D01*
X112362512Y-62313663D01*
X112339961Y-62338709D01*
X112281056Y-62375517D01*
X112211595Y-62375517D01*
X112152690Y-62338709D01*
X112117981Y-62300161D01*
X111961780Y-62186674D01*
X111882467Y-62151362D01*
X111785395Y-62108143D01*
X111596538Y-62068000D01*
X111403462Y-62068000D01*
X111296202Y-62090799D01*
X111214604Y-62108143D01*
X111117533Y-62151362D01*
X111041730Y-62185112D01*
X111038219Y-62186675D01*
X110882016Y-62300163D01*
X110752825Y-62443644D01*
X110656286Y-62610854D01*
X110601511Y-62779436D01*
X110575314Y-62824811D01*
X110532927Y-62855607D01*
X110481678Y-62866500D01*
X109177921Y-62866500D01*
X109118768Y-62851752D01*
X109073463Y-62810959D01*
X109052611Y-62753672D01*
X109050960Y-62737965D01*
X109044808Y-62679430D01*
X108985144Y-62495804D01*
X108985144Y-62495803D01*
X108888605Y-62328593D01*
X108759414Y-62185112D01*
X108712961Y-62151362D01*
X108603211Y-62071623D01*
X108426826Y-61993092D01*
X108237969Y-61952949D01*
X108044893Y-61952949D01*
X107918988Y-61979710D01*
X107856035Y-61993092D01*
X107714478Y-62056117D01*
X107687790Y-62068000D01*
X107679650Y-62071624D01*
X107523447Y-62185112D01*
X107394256Y-62328593D01*
X107297717Y-62495803D01*
X107238054Y-62679428D01*
X107217872Y-62871449D01*
X107238054Y-63063469D01*
X107297717Y-63247094D01*
X107394256Y-63414304D01*
X107510003Y-63542854D01*
X107523449Y-63557787D01*
X107679651Y-63671275D01*
X107856036Y-63749806D01*
X108044893Y-63789949D01*
X108111837Y-63789949D01*
X108160055Y-63799540D01*
X108200932Y-63826854D01*
X108262733Y-63888655D01*
X108275816Y-63904985D01*
X108327647Y-63953656D01*
X108330459Y-63956381D01*
X108350212Y-63976134D01*
X108352165Y-63977649D01*
X108353406Y-63978612D01*
X108362426Y-63986316D01*
X108394661Y-64016586D01*
X108412417Y-64026347D01*
X108428933Y-64037196D01*
X108444941Y-64049613D01*
X108485507Y-64067167D01*
X108496170Y-64072391D01*
X108534920Y-64093694D01*
X108534922Y-64093695D01*
X108554544Y-64098733D01*
X108573249Y-64105137D01*
X108591837Y-64113181D01*
X108635504Y-64120096D01*
X108647111Y-64122500D01*
X108689952Y-64133500D01*
X108710213Y-64133500D01*
X108729921Y-64135050D01*
X108749925Y-64138219D01*
X108749925Y-64138218D01*
X108749926Y-64138219D01*
X108793936Y-64134059D01*
X108805793Y-64133500D01*
X110659459Y-64133500D01*
X110707677Y-64143091D01*
X110748554Y-64170405D01*
X111820595Y-65242447D01*
X111847909Y-65283324D01*
X111857500Y-65331542D01*
X111857500Y-66657406D01*
X111843767Y-66714609D01*
X111805561Y-66759342D01*
X111751211Y-66781855D01*
X111692564Y-66777239D01*
X111642407Y-66746502D01*
X110833839Y-65937934D01*
X110820770Y-65921620D01*
X110777636Y-65881115D01*
X110768947Y-65872955D01*
X110766136Y-65870231D01*
X110746370Y-65850465D01*
X110743175Y-65847986D01*
X110734153Y-65840281D01*
X110701920Y-65810013D01*
X110684167Y-65800253D01*
X110667641Y-65789397D01*
X110651641Y-65776986D01*
X110611066Y-65759428D01*
X110600404Y-65754204D01*
X110561663Y-65732905D01*
X110547913Y-65729375D01*
X110542037Y-65727866D01*
X110523331Y-65721462D01*
X110504745Y-65713419D01*
X110461075Y-65706502D01*
X110449453Y-65704095D01*
X110406630Y-65693100D01*
X110406629Y-65693100D01*
X110386376Y-65693100D01*
X110366666Y-65691549D01*
X110346657Y-65688379D01*
X110302639Y-65692541D01*
X110290781Y-65693100D01*
X105783117Y-65693100D01*
X105744181Y-65686933D01*
X105709056Y-65669036D01*
X105643180Y-65621174D01*
X105567791Y-65587609D01*
X105466795Y-65542643D01*
X105277938Y-65502500D01*
X105084862Y-65502500D01*
X104958957Y-65529261D01*
X104896004Y-65542643D01*
X104719619Y-65621175D01*
X104563416Y-65734662D01*
X104551863Y-65747494D01*
X104495066Y-65783676D01*
X104427746Y-65785438D01*
X104369134Y-65752276D01*
X101538558Y-62921700D01*
X101525485Y-62905382D01*
X101473663Y-62856718D01*
X101470851Y-62853993D01*
X101451084Y-62834226D01*
X101447889Y-62831747D01*
X101438867Y-62824042D01*
X101406634Y-62793774D01*
X101388881Y-62784014D01*
X101372355Y-62773158D01*
X101356355Y-62760747D01*
X101315780Y-62743189D01*
X101305118Y-62737965D01*
X101266377Y-62716666D01*
X101252627Y-62713136D01*
X101246751Y-62711627D01*
X101228045Y-62705223D01*
X101209459Y-62697180D01*
X101165789Y-62690263D01*
X101154167Y-62687856D01*
X101111344Y-62676861D01*
X101111343Y-62676861D01*
X101091090Y-62676861D01*
X101071380Y-62675310D01*
X101051371Y-62672140D01*
X101007353Y-62676302D01*
X100995495Y-62676861D01*
X99446774Y-62676861D01*
X99383774Y-62659980D01*
X99337655Y-62613861D01*
X99247174Y-62457144D01*
X99117983Y-62313663D01*
X99099399Y-62300161D01*
X98961780Y-62200174D01*
X98785395Y-62121643D01*
X98596538Y-62081500D01*
X98403462Y-62081500D01*
X98278117Y-62108143D01*
X98214604Y-62121643D01*
X98038219Y-62200175D01*
X97882016Y-62313663D01*
X97752825Y-62457144D01*
X97656286Y-62624354D01*
X97596623Y-62807979D01*
X97576441Y-63000000D01*
X97596623Y-63192020D01*
X97656286Y-63375645D01*
X97752825Y-63542855D01*
X97868454Y-63671274D01*
X97882018Y-63686338D01*
X97969371Y-63749804D01*
X97974398Y-63753456D01*
X98015444Y-63804143D01*
X98025647Y-63868562D01*
X98007065Y-64045360D01*
X98027247Y-64237381D01*
X98086910Y-64421006D01*
X98183449Y-64588216D01*
X98312640Y-64731697D01*
X98312642Y-64731699D01*
X98468844Y-64845187D01*
X98645229Y-64923718D01*
X98834086Y-64963861D01*
X98901029Y-64963861D01*
X98949247Y-64973452D01*
X98990125Y-65000766D01*
X99829596Y-65840238D01*
X99856909Y-65881115D01*
X99866500Y-65929333D01*
X99866500Y-66049009D01*
X99856909Y-66097227D01*
X99829595Y-66138105D01*
X99224362Y-66743337D01*
X99165749Y-66776498D01*
X99098428Y-66774735D01*
X99041631Y-66738551D01*
X99030415Y-66726094D01*
X98874212Y-66612606D01*
X98821508Y-66589141D01*
X98697827Y-66534075D01*
X98508970Y-66493932D01*
X98326568Y-66493932D01*
X98275319Y-66483039D01*
X98232932Y-66452242D01*
X98101410Y-66306171D01*
X97945207Y-66192683D01*
X97768822Y-66114152D01*
X97579965Y-66074009D01*
X97386889Y-66074009D01*
X97260984Y-66100771D01*
X97198031Y-66114152D01*
X97021646Y-66192684D01*
X96865443Y-66306172D01*
X96736252Y-66449653D01*
X96639713Y-66616863D01*
X96580050Y-66800488D01*
X96561284Y-66979036D01*
X96549700Y-67020110D01*
X96525069Y-67054961D01*
X95611333Y-67968696D01*
X95595016Y-67981768D01*
X95546370Y-68033571D01*
X95543620Y-68036409D01*
X95523868Y-68056162D01*
X95523864Y-68056166D01*
X95523865Y-68056166D01*
X95521379Y-68059369D01*
X95513687Y-68068375D01*
X95483413Y-68100614D01*
X95473652Y-68118370D01*
X95462801Y-68134888D01*
X95450385Y-68150895D01*
X95432824Y-68191475D01*
X95427604Y-68202131D01*
X95406304Y-68240876D01*
X95401267Y-68260495D01*
X95394864Y-68279197D01*
X95386818Y-68297791D01*
X95379901Y-68341460D01*
X95377495Y-68353080D01*
X95366500Y-68395906D01*
X95366500Y-68416160D01*
X95364949Y-68435870D01*
X95361779Y-68455878D01*
X95010500Y-68455878D01*
X95010500Y-57750000D01*
X96561844Y-57750000D01*
X96580436Y-57974368D01*
X96580436Y-57974371D01*
X96580437Y-57974372D01*
X96635702Y-58192611D01*
X96726139Y-58398790D01*
X96849278Y-58587268D01*
X97001762Y-58752908D01*
X97179421Y-58891187D01*
X97179424Y-58891189D01*
X97377426Y-58998342D01*
X97590365Y-59071444D01*
X97812431Y-59108500D01*
X98037566Y-59108500D01*
X98037569Y-59108500D01*
X98259635Y-59071444D01*
X98472574Y-58998342D01*
X98627174Y-58914676D01*
X98687272Y-58899491D01*
X98747340Y-58914801D01*
X98792838Y-58956903D01*
X98812754Y-59015605D01*
X98831390Y-59252403D01*
X98890494Y-59498590D01*
X98890495Y-59498591D01*
X98987384Y-59732502D01*
X99119672Y-59948376D01*
X99284102Y-60140898D01*
X99476624Y-60305328D01*
X99692498Y-60437616D01*
X99926409Y-60534505D01*
X100113492Y-60579419D01*
X100172596Y-60593609D01*
X100191011Y-60595058D01*
X100425000Y-60613474D01*
X100677403Y-60593609D01*
X100923591Y-60534505D01*
X101157502Y-60437616D01*
X101373376Y-60305328D01*
X101565898Y-60140898D01*
X101730328Y-59948376D01*
X101862616Y-59732502D01*
X101959505Y-59498591D01*
X102018609Y-59252403D01*
X102038474Y-59000000D01*
X102018609Y-58747597D01*
X101959505Y-58501409D01*
X101862616Y-58267498D01*
X101730328Y-58051624D01*
X101565898Y-57859102D01*
X101373376Y-57694672D01*
X101157502Y-57562384D01*
X100923591Y-57465495D01*
X100677403Y-57406390D01*
X100425000Y-57386526D01*
X100172596Y-57406390D01*
X99926408Y-57465495D01*
X99692499Y-57562383D01*
X99675267Y-57572943D01*
X99476624Y-57694672D01*
X99476621Y-57694674D01*
X99468169Y-57699854D01*
X99466288Y-57696784D01*
X99421393Y-57717495D01*
X99353587Y-57709563D01*
X99299871Y-57667431D01*
X99276013Y-57603469D01*
X99269564Y-57525632D01*
X99214296Y-57307384D01*
X99123860Y-57101209D01*
X99000722Y-56912732D01*
X98848240Y-56747094D01*
X98848239Y-56747093D01*
X98848237Y-56747091D01*
X98670578Y-56608812D01*
X98472573Y-56501657D01*
X98328427Y-56452172D01*
X98259635Y-56428556D01*
X98037569Y-56391500D01*
X97812431Y-56391500D01*
X97590365Y-56428556D01*
X97590362Y-56428556D01*
X97590362Y-56428557D01*
X97377426Y-56501657D01*
X97179421Y-56608812D01*
X97001762Y-56747091D01*
X96849278Y-56912731D01*
X96726139Y-57101209D01*
X96635702Y-57307388D01*
X96580437Y-57525627D01*
X96580436Y-57525632D01*
X96561844Y-57750000D01*
X95010500Y-57750000D01*
X95010500Y-54374899D01*
X97159310Y-54374899D01*
X97179697Y-54390767D01*
X97377628Y-54497882D01*
X97590491Y-54570957D01*
X97812470Y-54608000D01*
X98037530Y-54608000D01*
X98259508Y-54570957D01*
X98472368Y-54497883D01*
X98670305Y-54390764D01*
X98690688Y-54374899D01*
X98690689Y-54374898D01*
X97925001Y-53609210D01*
X97925000Y-53609210D01*
X97159310Y-54374899D01*
X95010500Y-54374899D01*
X95010500Y-53249999D01*
X96562346Y-53249999D01*
X96580931Y-53474283D01*
X96636180Y-53692456D01*
X96726580Y-53898548D01*
X96801922Y-54013866D01*
X97565790Y-53250000D01*
X96801922Y-52486133D01*
X96726580Y-52601451D01*
X96636180Y-52807543D01*
X96580931Y-53025716D01*
X96562346Y-53249999D01*
X95010500Y-53249999D01*
X95010500Y-52125100D01*
X97159310Y-52125100D01*
X97925000Y-52890789D01*
X97925000Y-52890790D01*
X99048076Y-54013867D01*
X99048077Y-54013866D01*
X99123418Y-53898551D01*
X99213819Y-53692457D01*
X99269068Y-53474284D01*
X99275544Y-53396132D01*
X99299408Y-53332160D01*
X99353137Y-53290029D01*
X99420954Y-53282109D01*
X99466373Y-53303076D01*
X99468169Y-53300146D01*
X99476620Y-53305325D01*
X99476624Y-53305328D01*
X99692498Y-53437616D01*
X99926409Y-53534505D01*
X100113491Y-53579419D01*
X100172596Y-53593609D01*
X100191011Y-53595058D01*
X100425000Y-53613474D01*
X100677403Y-53593609D01*
X100923591Y-53534505D01*
X101157502Y-53437616D01*
X101373376Y-53305328D01*
X101565898Y-53140898D01*
X101730328Y-52948376D01*
X101862616Y-52732502D01*
X101959505Y-52498591D01*
X102018609Y-52252403D01*
X102038474Y-52000000D01*
X102018609Y-51747597D01*
X101959505Y-51501409D01*
X101862616Y-51267498D01*
X101730328Y-51051624D01*
X101565898Y-50859102D01*
X101373376Y-50694672D01*
X101157502Y-50562384D01*
X100923591Y-50465495D01*
X100677403Y-50406390D01*
X100425000Y-50386526D01*
X100172596Y-50406390D01*
X99926408Y-50465495D01*
X99692499Y-50562383D01*
X99584560Y-50628528D01*
X99476624Y-50694672D01*
X99476622Y-50694673D01*
X99476623Y-50694673D01*
X99284102Y-50859102D01*
X99119673Y-51051623D01*
X98987383Y-51267499D01*
X98890495Y-51501408D01*
X98831390Y-51747596D01*
X98812711Y-51984941D01*
X98792795Y-52043643D01*
X98747297Y-52085745D01*
X98687229Y-52101055D01*
X98627130Y-52085869D01*
X98472371Y-52002117D01*
X98259508Y-51929042D01*
X98037530Y-51892000D01*
X97812470Y-51892000D01*
X97590491Y-51929042D01*
X97377628Y-52002117D01*
X97179700Y-52109231D01*
X97159310Y-52125099D01*
X97159310Y-52125100D01*
X95010500Y-52125100D01*
X95010500Y-50164000D01*
X95027381Y-50101000D01*
X95073500Y-50054881D01*
X95136500Y-50038000D01*
X122874290Y-50038000D01*
X122937206Y-50054832D01*
G37*
G04 #@! TD.AperFunction*
D28*
X165054900Y-64947800D02*
X182213900Y-64947800D01*
X182213900Y-65547800D01*
X165054900Y-65547800D01*
X165054900Y-64947800D01*
X165054900Y-93735600D02*
X182213900Y-93735600D01*
X182213900Y-94335600D01*
X165054900Y-94335600D01*
X165054900Y-93735600D01*
X165029500Y-88630200D02*
X182188500Y-88630200D01*
X182188500Y-89230200D01*
X165029500Y-89230200D01*
X165029500Y-88630200D01*
X165080300Y-82219800D02*
X182239300Y-82219800D01*
X182239300Y-82819800D01*
X165080300Y-82819800D01*
X165080300Y-82219800D01*
X165080300Y-77063600D02*
X182239300Y-77063600D01*
X182239300Y-77663600D01*
X165080300Y-77663600D01*
X165080300Y-77063600D01*
X165042200Y-72212200D02*
X182201200Y-72212200D01*
X182201200Y-72812200D01*
X165042200Y-72812200D01*
X165042200Y-72212200D01*
X95000000Y-50000000D02*
X185000000Y-50000000D01*
X95000000Y-100000000D02*
X95000000Y-50000000D01*
X185000000Y-100000000D02*
X95000000Y-100000000D01*
X185000000Y-50000000D02*
X185000000Y-100000000D01*
M02*
