G04 #@! TF.GenerationSoftware,KiCad,Pcbnew,(6.0.9)*
G04 #@! TF.CreationDate,2023-01-30T08:28:09+01:00*
G04 #@! TF.ProjectId,CaptorBoard,43617074-6f72-4426-9f61-72642e6b6963,rev?*
G04 #@! TF.SameCoordinates,Original*
G04 #@! TF.FileFunction,Copper,L2,Bot*
G04 #@! TF.FilePolarity,Positive*
%FSLAX46Y46*%
G04 Gerber Fmt 4.6, Leading zero omitted, Abs format (unit mm)*
G04 Created by KiCad (PCBNEW (6.0.9)) date 2023-01-30 08:28:09*
%MOMM*%
%LPD*%
G01*
G04 APERTURE LIST*
G04 #@! TA.AperFunction,Profile*
%ADD10C,0.100000*%
G04 #@! TD*
G04 #@! TA.AperFunction,ComponentPad*
%ADD11R,2.200000X2.200000*%
G04 #@! TD*
G04 #@! TA.AperFunction,ComponentPad*
%ADD12O,2.200000X2.200000*%
G04 #@! TD*
G04 #@! TA.AperFunction,ComponentPad*
%ADD13R,2.600000X2.600000*%
G04 #@! TD*
G04 #@! TA.AperFunction,ComponentPad*
%ADD14C,2.600000*%
G04 #@! TD*
G04 #@! TA.AperFunction,ComponentPad*
%ADD15C,2.200000*%
G04 #@! TD*
G04 #@! TA.AperFunction,ComponentPad*
%ADD16C,1.700000*%
G04 #@! TD*
G04 #@! TA.AperFunction,ComponentPad*
%ADD17R,1.600000X1.600000*%
G04 #@! TD*
G04 #@! TA.AperFunction,ComponentPad*
%ADD18O,1.600000X1.600000*%
G04 #@! TD*
G04 #@! TA.AperFunction,ComponentPad*
%ADD19R,1.700000X1.700000*%
G04 #@! TD*
G04 #@! TA.AperFunction,ComponentPad*
%ADD20O,1.700000X1.700000*%
G04 #@! TD*
G04 #@! TA.AperFunction,ComponentPad*
%ADD21R,2.500000X2.500000*%
G04 #@! TD*
G04 #@! TA.AperFunction,ComponentPad*
%ADD22O,2.500000X2.500000*%
G04 #@! TD*
G04 #@! TA.AperFunction,ComponentPad*
%ADD23R,3.000000X3.000000*%
G04 #@! TD*
G04 #@! TA.AperFunction,ComponentPad*
%ADD24C,3.000000*%
G04 #@! TD*
G04 #@! TA.AperFunction,ViaPad*
%ADD25C,0.820000*%
G04 #@! TD*
G04 #@! TA.AperFunction,Conductor*
%ADD26C,2.000000*%
G04 #@! TD*
G04 #@! TA.AperFunction,Conductor*
%ADD27C,0.500000*%
G04 #@! TD*
G04 #@! TA.AperFunction,Conductor*
%ADD28C,0.250000*%
G04 #@! TD*
G04 #@! TA.AperFunction,Conductor*
%ADD29C,4.000000*%
G04 #@! TD*
G04 APERTURE END LIST*
D10*
X95000000Y-50000000D02*
X190000000Y-50000000D01*
X95000000Y-100000000D02*
X95000000Y-50000000D01*
X190000000Y-100000000D02*
X95000000Y-100000000D01*
X190000000Y-50000000D02*
X190000000Y-100000000D01*
D11*
X179705000Y-75946000D03*
D12*
X187325000Y-75946000D03*
D11*
X187325000Y-71755000D03*
D12*
X179705000Y-71755000D03*
D13*
X184709000Y-97028000D03*
D14*
X184709000Y-91948000D03*
X184709000Y-86868000D03*
D15*
X100203000Y-52055000D03*
X100203000Y-59055000D03*
D16*
X97703000Y-57805000D03*
X97703000Y-53305000D03*
D15*
X100203000Y-90932000D03*
X100203000Y-97932000D03*
D16*
X97703000Y-96682000D03*
X97703000Y-92182000D03*
D17*
X177556000Y-61229000D03*
D18*
X177556000Y-63769000D03*
X177556000Y-66309000D03*
X185176000Y-66309000D03*
X185176000Y-63769000D03*
X185176000Y-61229000D03*
D17*
X177556000Y-52085000D03*
D18*
X177556000Y-54625000D03*
X177556000Y-57165000D03*
X185176000Y-57165000D03*
X185176000Y-54625000D03*
X185176000Y-52085000D03*
D19*
X148336000Y-85725000D03*
D20*
X148336000Y-88265000D03*
X148336000Y-90805000D03*
X148336000Y-93345000D03*
X148336000Y-95885000D03*
X148336000Y-98425000D03*
D19*
X118120000Y-98171000D03*
D20*
X120660000Y-98171000D03*
X123200000Y-98171000D03*
X125740000Y-98171000D03*
D21*
X141128000Y-81271500D03*
D22*
X147128000Y-79271500D03*
X147128000Y-67071500D03*
X135128000Y-67071500D03*
X135128000Y-79271500D03*
D13*
X129032000Y-55245000D03*
D14*
X123952000Y-55245000D03*
X118872000Y-55245000D03*
D19*
X129413000Y-98171000D03*
D20*
X131953000Y-98171000D03*
X134493000Y-98171000D03*
X137033000Y-98171000D03*
X139573000Y-98171000D03*
X142113000Y-98171000D03*
X144653000Y-98171000D03*
D23*
X161671000Y-95885000D03*
D24*
X172421000Y-95885000D03*
X172421000Y-57385000D03*
X164421000Y-57385000D03*
D13*
X146177000Y-55245000D03*
D14*
X141097000Y-55245000D03*
X136017000Y-55245000D03*
D21*
X123952000Y-81271500D03*
D22*
X129952000Y-79271500D03*
X129952000Y-67071500D03*
X117952000Y-67071500D03*
X117952000Y-79271500D03*
D25*
X112141000Y-93599000D03*
X96012000Y-81280000D03*
X151765000Y-84709000D03*
X103378000Y-59690000D03*
X143510000Y-95504000D03*
X96012000Y-95250000D03*
X115062000Y-83820000D03*
X130810000Y-95504000D03*
X100838000Y-71882000D03*
X100838000Y-77470000D03*
X129794000Y-85598000D03*
X152146000Y-96520000D03*
X133350000Y-95504000D03*
X108966000Y-56134000D03*
X138430000Y-96011500D03*
X145542000Y-85598000D03*
X123190000Y-95504000D03*
X114681000Y-63627000D03*
X145796000Y-95504000D03*
X151257000Y-88138000D03*
X96291400Y-66878200D03*
X105410000Y-56134000D03*
X106426000Y-71882000D03*
X132080000Y-92202000D03*
X99822000Y-86614000D03*
X106426000Y-77470000D03*
X104140000Y-92202000D03*
X112268000Y-56134000D03*
X136398000Y-90678000D03*
X127254000Y-95504000D03*
X152908000Y-89535000D03*
X135890000Y-95504000D03*
X140970000Y-95504000D03*
X98810683Y-84051438D03*
X101624000Y-94258000D03*
X97383600Y-81305400D03*
X113549370Y-62980630D03*
X113511000Y-80846600D03*
X103632000Y-62986500D03*
X112776000Y-69494400D03*
X110490000Y-62986500D03*
X112807196Y-81584193D03*
X107188000Y-62986500D03*
X112776000Y-78486000D03*
X164592000Y-52324000D03*
X174752000Y-52324000D03*
X110005581Y-84107321D03*
X155956000Y-80899000D03*
X157607000Y-51816000D03*
X111546778Y-84384141D03*
X154914000Y-79984000D03*
X135128000Y-84074000D03*
X121412000Y-84582000D03*
X98501200Y-63955100D03*
X102842500Y-66404500D03*
X108086081Y-84064759D03*
X98602800Y-80936500D03*
X100581900Y-80486500D03*
X101650800Y-80486000D03*
X99110800Y-66673400D03*
X103532028Y-84247712D03*
X101373000Y-66421000D03*
X97641300Y-67399531D03*
X104551519Y-84252694D03*
X133099503Y-86604000D03*
X105181400Y-66421000D03*
X141478000Y-86108500D03*
X109873532Y-67530468D03*
X116586000Y-87122000D03*
D26*
X180848000Y-97028000D02*
X173736000Y-89916000D01*
X184709000Y-97028000D02*
X180848000Y-97028000D01*
X164338000Y-89916000D02*
X161671000Y-92583000D01*
X173736000Y-89916000D02*
X164338000Y-89916000D01*
X161671000Y-92583000D02*
X161671000Y-95885000D01*
D27*
X175181000Y-54625000D02*
X172421000Y-57385000D01*
X177556000Y-54625000D02*
X175181000Y-54625000D01*
X172421000Y-61296000D02*
X172421000Y-57385000D01*
X177556000Y-63769000D02*
X174894000Y-63769000D01*
X174894000Y-63769000D02*
X172421000Y-61296000D01*
D28*
X98810683Y-84051438D02*
X98810683Y-87307317D01*
X98263000Y-96682000D02*
X97703000Y-96682000D01*
X98774000Y-91591299D02*
X98878000Y-91695299D01*
X98874000Y-96071000D02*
X98263000Y-96682000D01*
X98874000Y-92672701D02*
X98874000Y-96071000D01*
X98878000Y-92668701D02*
X98874000Y-92672701D01*
X98878000Y-91695299D02*
X98878000Y-92668701D01*
X98774000Y-87344000D02*
X98774000Y-91591299D01*
X98810683Y-87307317D02*
X98774000Y-87344000D01*
X97383600Y-81584908D02*
X99545683Y-83746991D01*
X101628000Y-94254000D02*
X101624000Y-94258000D01*
X97383600Y-81305400D02*
X97383600Y-81584908D01*
X101628000Y-87200800D02*
X101628000Y-94254000D01*
X99545683Y-85118483D02*
X101628000Y-87200800D01*
X99545683Y-83746991D02*
X99545683Y-85118483D01*
X113511000Y-79426843D02*
X114496000Y-78441843D01*
X113511000Y-80846600D02*
X113511000Y-79426843D01*
X114496000Y-78441843D02*
X114496000Y-68902161D01*
X114496000Y-68902161D02*
X113841000Y-68247161D01*
X113841000Y-65701104D02*
X113549370Y-65409474D01*
X113549370Y-65409474D02*
X113549370Y-62980630D01*
X113841000Y-68247161D02*
X113841000Y-65701104D01*
X112491000Y-66260292D02*
X110402208Y-64171500D01*
X112776000Y-69494400D02*
X112491000Y-69209400D01*
X109999157Y-64171500D02*
X109581657Y-63754000D01*
X112491000Y-69209400D02*
X112491000Y-66260292D01*
X105963300Y-62986500D02*
X103632000Y-62986500D01*
X110402208Y-64171500D02*
X109999157Y-64171500D01*
X106730800Y-63754000D02*
X105963300Y-62986500D01*
X109581657Y-63754000D02*
X106730800Y-63754000D01*
X112807196Y-81584193D02*
X112750600Y-81527597D01*
X113391000Y-68433557D02*
X113391000Y-65887500D01*
X112750600Y-79550847D02*
X114046000Y-78255447D01*
X112750600Y-81527597D02*
X112750600Y-79550847D01*
X114046000Y-78255447D02*
X114046000Y-69088557D01*
X114046000Y-69088557D02*
X113391000Y-68433557D01*
X113391000Y-65887500D02*
X110490000Y-62986500D01*
X113596000Y-77262949D02*
X113596000Y-69274953D01*
X109755000Y-63290947D02*
X109755000Y-62986500D01*
X112941000Y-68619953D02*
X112941000Y-66073896D01*
X112941000Y-66073896D02*
X110588604Y-63721500D01*
X110185553Y-63721500D02*
X109755000Y-63290947D01*
X109755000Y-62986500D02*
X107188000Y-62986500D01*
X113596000Y-69274953D02*
X112941000Y-68619953D01*
X110588604Y-63721500D02*
X110185553Y-63721500D01*
X112776000Y-78486000D02*
X112776000Y-78082949D01*
X112776000Y-78082949D02*
X113596000Y-77262949D01*
X174752000Y-52324000D02*
X164592000Y-52324000D01*
X125446367Y-87202000D02*
X126482867Y-88238500D01*
X140513261Y-87456000D02*
X140800761Y-87743500D01*
X134037739Y-88238500D02*
X134820239Y-87456000D01*
X147595299Y-89440000D02*
X151733000Y-89440000D01*
X155956000Y-85217000D02*
X155956000Y-80899000D01*
X140800761Y-87743500D02*
X145898799Y-87743500D01*
X145898799Y-87743500D02*
X147595299Y-89440000D01*
X126482867Y-88238500D02*
X134037739Y-88238500D01*
X117037447Y-86280000D02*
X117959447Y-87202000D01*
X117959447Y-87202000D02*
X125446367Y-87202000D01*
X111767501Y-86280000D02*
X117037447Y-86280000D01*
X110005581Y-84107321D02*
X110005581Y-84518080D01*
X134820239Y-87456000D02*
X140513261Y-87456000D01*
X110005581Y-84518080D02*
X111767501Y-86280000D01*
X151733000Y-89440000D02*
X155956000Y-85217000D01*
X158369000Y-51054000D02*
X176525000Y-51054000D01*
X157607000Y-51816000D02*
X158369000Y-51054000D01*
X176525000Y-51054000D02*
X177556000Y-52085000D01*
X141173553Y-86843500D02*
X147136500Y-86843500D01*
X154914000Y-85622604D02*
X154914000Y-79984000D01*
X111546778Y-84384141D02*
X111707289Y-84384141D01*
X147288000Y-86995000D02*
X153541604Y-86995000D01*
X134447447Y-86556000D02*
X140886053Y-86556000D01*
X140886053Y-86556000D02*
X141173553Y-86843500D01*
X125819159Y-86302000D02*
X126855659Y-87338500D01*
X117410239Y-85380000D02*
X118332239Y-86302000D01*
X153541604Y-86995000D02*
X154914000Y-85622604D01*
X111707289Y-84384141D02*
X112703148Y-85380000D01*
X118332239Y-86302000D02*
X125819159Y-86302000D01*
X126855659Y-87338500D02*
X133664947Y-87338500D01*
X112703148Y-85380000D02*
X117410239Y-85380000D01*
X147136500Y-86843500D02*
X147288000Y-86995000D01*
X133664947Y-87338500D02*
X134447447Y-86556000D01*
D27*
X135128000Y-79271500D02*
X135128000Y-84074000D01*
X146685000Y-84074000D02*
X148336000Y-85725000D01*
X134874000Y-84328000D02*
X135128000Y-84074000D01*
X153797000Y-68009000D02*
X153797000Y-85217000D01*
X120015000Y-84582000D02*
X117952000Y-82519000D01*
X121412000Y-84582000D02*
X120015000Y-84582000D01*
X153289000Y-85725000D02*
X148336000Y-85725000D01*
X135128000Y-84074000D02*
X146685000Y-84074000D01*
X153797000Y-85217000D02*
X153289000Y-85725000D01*
X121412000Y-84582000D02*
X121666000Y-84328000D01*
X121666000Y-84328000D02*
X134874000Y-84328000D01*
X164421000Y-57385000D02*
X153797000Y-68009000D01*
X117952000Y-82519000D02*
X117952000Y-79271500D01*
D28*
X111589400Y-77996757D02*
X111589400Y-82619000D01*
X126669263Y-87788500D02*
X133851343Y-87788500D01*
X146729500Y-87293500D02*
X147701000Y-88265000D01*
X112696000Y-76890157D02*
X111589400Y-77996757D01*
X118145843Y-86752000D02*
X125632763Y-86752000D01*
X111589400Y-82619000D02*
X110811778Y-83396622D01*
X98501200Y-63955100D02*
X98501200Y-63982600D01*
X134633843Y-87006000D02*
X140699657Y-87006000D01*
X140987157Y-87293500D02*
X146729500Y-87293500D01*
X111591000Y-67345596D02*
X111591000Y-69985243D01*
X104743847Y-67266400D02*
X105485212Y-67266400D01*
X105485212Y-67266400D02*
X105975012Y-66776600D01*
X111591000Y-69985243D02*
X112696000Y-71090243D01*
X111022004Y-66776600D02*
X111591000Y-67345596D01*
X103136447Y-65659000D02*
X104743847Y-67266400D01*
X133851343Y-87788500D02*
X134633843Y-87006000D01*
X112696000Y-71090243D02*
X112696000Y-76890157D01*
X110811778Y-83396622D02*
X110811778Y-84687881D01*
X111953897Y-85830000D02*
X117223843Y-85830000D01*
X125632763Y-86752000D02*
X126669263Y-87788500D01*
X100177600Y-65659000D02*
X103136447Y-65659000D01*
X105975012Y-66776600D02*
X111022004Y-66776600D01*
X117223843Y-85830000D02*
X118145843Y-86752000D01*
X98501200Y-63982600D02*
X100177600Y-65659000D01*
X110811778Y-84687881D02*
X111953897Y-85830000D01*
X140699657Y-87006000D02*
X140987157Y-87293500D01*
X147701000Y-88265000D02*
X148336000Y-88265000D01*
X106161408Y-67226600D02*
X108530217Y-67226600D01*
X108820581Y-83616478D02*
X108820581Y-84605872D01*
X134224135Y-88688500D02*
X135006635Y-87906000D01*
X111796000Y-76517365D02*
X110689400Y-77623965D01*
X115120000Y-87180000D02*
X115797000Y-87857000D01*
X117568051Y-87857000D02*
X117773051Y-87652000D01*
X108530217Y-67226600D02*
X109569085Y-68265468D01*
X110302468Y-68265468D02*
X110691000Y-68654000D01*
X110689400Y-81747659D02*
X108820581Y-83616478D01*
X104557451Y-67716400D02*
X105671608Y-67716400D01*
X125259971Y-87652000D02*
X126296471Y-88688500D01*
X117773051Y-87652000D02*
X125259971Y-87652000D01*
X148082000Y-90805000D02*
X148336000Y-90805000D01*
X145470500Y-88193500D02*
X148082000Y-90805000D01*
X111394709Y-87180000D02*
X115120000Y-87180000D01*
X109569085Y-68265468D02*
X110302468Y-68265468D01*
X110691000Y-70358035D02*
X111796000Y-71463035D01*
X108820581Y-84605872D02*
X111394709Y-87180000D01*
X115797000Y-87857000D02*
X117568051Y-87857000D01*
X110691000Y-68654000D02*
X110691000Y-70358035D01*
X110689400Y-77623965D02*
X110689400Y-81747659D01*
X102842500Y-66404500D02*
X103245551Y-66404500D01*
X103245551Y-66404500D02*
X104557451Y-67716400D01*
X140614365Y-88193500D02*
X145470500Y-88193500D01*
X126296471Y-88688500D02*
X134224135Y-88688500D01*
X135006635Y-87906000D02*
X140326865Y-87906000D01*
X140326865Y-87906000D02*
X140614365Y-88193500D01*
X105671608Y-67716400D02*
X106161408Y-67226600D01*
X111796000Y-71463035D02*
X111796000Y-76517365D01*
X140140469Y-88356000D02*
X140427969Y-88643500D01*
X135193031Y-88356000D02*
X140140469Y-88356000D01*
X140427969Y-88643500D02*
X144015500Y-88643500D01*
X117959447Y-88102000D02*
X125073575Y-88102000D01*
X126110075Y-89138500D02*
X134410531Y-89138500D01*
X117754447Y-88307000D02*
X117959447Y-88102000D01*
X134410531Y-89138500D02*
X135193031Y-88356000D01*
X144015500Y-88643500D02*
X146812000Y-91440000D01*
X115610604Y-88307000D02*
X117754447Y-88307000D01*
X108086081Y-84064759D02*
X108086081Y-84507768D01*
X146812000Y-94361000D02*
X148336000Y-95885000D01*
X146812000Y-91440000D02*
X146812000Y-94361000D01*
X108086081Y-84507768D02*
X111208313Y-87630000D01*
X125073575Y-88102000D02*
X126110075Y-89138500D01*
X111208313Y-87630000D02*
X114933604Y-87630000D01*
X114933604Y-87630000D02*
X115610604Y-88307000D01*
X98602800Y-82167712D02*
X99995683Y-83560595D01*
X106175545Y-87688400D02*
X109818345Y-91331200D01*
X99995683Y-84932087D02*
X102751996Y-87688400D01*
X118323000Y-91907000D02*
X120660000Y-94244000D01*
X98602800Y-80936500D02*
X98602800Y-82167712D01*
X99995683Y-83560595D02*
X99995683Y-84932087D01*
X109818345Y-91331200D02*
X112738239Y-91331200D01*
X120660000Y-94244000D02*
X120660000Y-98171000D01*
X112738239Y-91331200D02*
X113314039Y-91907000D01*
X113314039Y-91907000D02*
X118323000Y-91907000D01*
X102751996Y-87688400D02*
X106175545Y-87688400D01*
D26*
X179705000Y-71755000D02*
X179705000Y-75946000D01*
X179705000Y-75946000D02*
X179705000Y-81864000D01*
X179705000Y-81864000D02*
X184709000Y-86868000D01*
X183642000Y-73660000D02*
X185928000Y-75946000D01*
X185176000Y-68062000D02*
X183642000Y-69596000D01*
X183642000Y-69596000D02*
X183642000Y-73660000D01*
X185928000Y-75946000D02*
X187325000Y-75946000D01*
X185176000Y-66309000D02*
X185176000Y-68062000D01*
X186070000Y-57165000D02*
X185176000Y-57165000D01*
X188341000Y-59436000D02*
X188341000Y-70739000D01*
X188341000Y-70739000D02*
X187325000Y-71755000D01*
X188341000Y-59436000D02*
X186070000Y-57165000D01*
D28*
X113297427Y-89981200D02*
X113873227Y-90557000D01*
X100581900Y-80486500D02*
X100581900Y-82237624D01*
X100581900Y-82237624D02*
X101345683Y-83001407D01*
X106734733Y-86338400D02*
X110377533Y-89981200D01*
X118891427Y-90352000D02*
X124141595Y-90352000D01*
X110377533Y-89981200D02*
X113297427Y-89981200D01*
X132536500Y-91388500D02*
X134493000Y-93345000D01*
X103311184Y-86338400D02*
X106734733Y-86338400D01*
X113873227Y-90557000D02*
X118686427Y-90557000D01*
X118686427Y-90557000D02*
X118891427Y-90352000D01*
X134493000Y-93345000D02*
X134493000Y-98171000D01*
X124141595Y-90352000D02*
X125178095Y-91388500D01*
X101345683Y-83001407D02*
X101345683Y-84372899D01*
X125178095Y-91388500D02*
X132536500Y-91388500D01*
X101345683Y-84372899D02*
X103311184Y-86338400D01*
X114188020Y-89430000D02*
X114865020Y-90107000D01*
X103497580Y-85888400D02*
X106921129Y-85888400D01*
X124327991Y-89902000D02*
X125364491Y-90938500D01*
X118500031Y-90107000D02*
X118705031Y-89902000D01*
X135134500Y-90938500D02*
X137033000Y-92837000D01*
X125364491Y-90938500D02*
X135134500Y-90938500D01*
X110462729Y-89430000D02*
X114188020Y-89430000D01*
X137033000Y-92837000D02*
X137033000Y-98171000D01*
X101625400Y-82644728D02*
X101795683Y-82815011D01*
X114865020Y-90107000D02*
X118500031Y-90107000D01*
X101795683Y-82815011D02*
X101795683Y-84186503D01*
X101795683Y-84186503D02*
X103497580Y-85888400D01*
X106921129Y-85888400D02*
X110462729Y-89430000D01*
X101650800Y-80486000D02*
X101625400Y-80511400D01*
X101625400Y-80511400D02*
X101625400Y-82644728D01*
X118705031Y-89902000D02*
X124327991Y-89902000D01*
D29*
X117952000Y-61372000D02*
X118872000Y-60452000D01*
X118872000Y-60452000D02*
X118872000Y-55245000D01*
X117952000Y-67071500D02*
X117952000Y-61372000D01*
X123952000Y-55245000D02*
X123952000Y-81153000D01*
X129032000Y-59944000D02*
X129032000Y-55245000D01*
X129952000Y-60864000D02*
X129032000Y-59944000D01*
X129952000Y-67071500D02*
X129952000Y-60864000D01*
X136017000Y-55245000D02*
X136017000Y-59309000D01*
X135128000Y-60198000D02*
X135128000Y-67071500D01*
X136017000Y-59309000D02*
X135128000Y-60198000D01*
X141097000Y-81093000D02*
X141128000Y-81124000D01*
X141097000Y-55245000D02*
X141097000Y-81093000D01*
X146177000Y-58420000D02*
X146177000Y-55245000D01*
X147128000Y-59371000D02*
X147128000Y-67071500D01*
X147128000Y-59371000D02*
X146177000Y-58420000D01*
D28*
X118518635Y-89452000D02*
X124514387Y-89452000D01*
X99110800Y-67640200D02*
X97445400Y-69305600D01*
X110649125Y-88980000D02*
X114374416Y-88980000D01*
X124514387Y-89452000D02*
X125550887Y-90488500D01*
X118313635Y-89657000D02*
X118518635Y-89452000D01*
X125550887Y-90488500D02*
X134969719Y-90488500D01*
X99957149Y-79751500D02*
X101955747Y-79751500D01*
X134969719Y-90488500D02*
X135752219Y-89706000D01*
X114374416Y-88980000D02*
X115051416Y-89657000D01*
X102539800Y-84294224D02*
X103683976Y-85438400D01*
X135752219Y-89706000D02*
X137458000Y-89706000D01*
X97445400Y-77239751D02*
X99957149Y-79751500D01*
X99110800Y-66673400D02*
X99110800Y-67640200D01*
X115051416Y-89657000D02*
X118313635Y-89657000D01*
X97445400Y-69305600D02*
X97445400Y-77239751D01*
X107107525Y-85438400D02*
X110649125Y-88980000D01*
X139573000Y-91821000D02*
X139573000Y-98171000D01*
X103683976Y-85438400D02*
X107107525Y-85438400D01*
X137458000Y-89706000D02*
X139573000Y-91821000D01*
X102539800Y-80335553D02*
X102539800Y-84294224D01*
X101955747Y-79751500D02*
X102539800Y-80335553D01*
X134783323Y-90038500D02*
X135565823Y-89256000D01*
X118127239Y-89207000D02*
X118332239Y-89002000D01*
X125737283Y-90038500D02*
X134783323Y-90038500D01*
X135565823Y-89256000D02*
X139548000Y-89256000D01*
X139548000Y-89256000D02*
X142113000Y-91821000D01*
X107293921Y-84988400D02*
X110835521Y-88530000D01*
X142113000Y-91821000D02*
X142113000Y-98171000D01*
X104114600Y-84988400D02*
X107293921Y-84988400D01*
X103532028Y-84405828D02*
X104114600Y-84988400D01*
X124700783Y-89002000D02*
X125737283Y-90038500D01*
X115237812Y-89207000D02*
X118127239Y-89207000D01*
X114560812Y-88530000D02*
X115237812Y-89207000D01*
X110835521Y-88530000D02*
X114560812Y-88530000D01*
X118332239Y-89002000D02*
X124700783Y-89002000D01*
X103532028Y-84247712D02*
X103532028Y-84405828D01*
X123955199Y-90802000D02*
X124991699Y-91838500D01*
X99847400Y-80278147D02*
X99847400Y-82139520D01*
X96995400Y-77426147D02*
X99847400Y-80278147D01*
X129938500Y-91838500D02*
X131953000Y-93853000D01*
X124991699Y-91838500D02*
X129938500Y-91838500D01*
X118872823Y-91007000D02*
X119077823Y-90802000D01*
X98375800Y-66368953D02*
X98375800Y-67738804D01*
X99820604Y-65938400D02*
X98806353Y-65938400D01*
X110191137Y-90431200D02*
X113111031Y-90431200D01*
X98375800Y-67738804D02*
X96995400Y-69119204D01*
X101373000Y-66421000D02*
X101061000Y-66109000D01*
X106548337Y-86788400D02*
X110191137Y-90431200D01*
X96995400Y-69119204D02*
X96995400Y-77426147D01*
X101061000Y-66109000D02*
X99991204Y-66109000D01*
X103124788Y-86788400D02*
X106548337Y-86788400D01*
X100895683Y-84559295D02*
X103124788Y-86788400D01*
X99991204Y-66109000D02*
X99820604Y-65938400D01*
X98806353Y-65938400D02*
X98375800Y-66368953D01*
X100895683Y-83187803D02*
X100895683Y-84559295D01*
X113686831Y-91007000D02*
X118872823Y-91007000D01*
X131953000Y-93853000D02*
X131953000Y-98171000D01*
X119077823Y-90802000D02*
X123955199Y-90802000D01*
X113111031Y-90431200D02*
X113686831Y-91007000D01*
X99847400Y-82139520D02*
X100895683Y-83187803D01*
X123768803Y-91252000D02*
X124805303Y-92288500D01*
X119059219Y-91457000D02*
X119264219Y-91252000D01*
X124805303Y-92288500D02*
X127086500Y-92288500D01*
X113500435Y-91457000D02*
X119059219Y-91457000D01*
X100445683Y-84745691D02*
X102938392Y-87238400D01*
X96545400Y-77612543D02*
X99397400Y-80464543D01*
X102938392Y-87238400D02*
X106361941Y-87238400D01*
X112924635Y-90881200D02*
X113500435Y-91457000D01*
X96545400Y-68495431D02*
X96545400Y-77612543D01*
X99397400Y-82325916D02*
X100445683Y-83374199D01*
X127086500Y-92288500D02*
X129413000Y-94615000D01*
X99397400Y-80464543D02*
X99397400Y-82325916D01*
X110004741Y-90881200D02*
X112924635Y-90881200D01*
X97641300Y-67399531D02*
X96545400Y-68495431D01*
X106361941Y-87238400D02*
X110004741Y-90881200D01*
X129413000Y-94615000D02*
X129413000Y-98171000D01*
X119264219Y-91252000D02*
X123768803Y-91252000D01*
X100445683Y-83374199D02*
X100445683Y-84745691D01*
X125923679Y-89588500D02*
X134596927Y-89588500D01*
X140241573Y-89093500D02*
X142687500Y-89093500D01*
X114747208Y-88080000D02*
X115424208Y-88757000D01*
X111021917Y-88080000D02*
X114747208Y-88080000D01*
X135379427Y-88806000D02*
X139954073Y-88806000D01*
X134596927Y-89588500D02*
X135379427Y-88806000D01*
X124887179Y-88552000D02*
X125923679Y-89588500D01*
X142687500Y-89093500D02*
X144653000Y-91059000D01*
X104551519Y-84252694D02*
X104577813Y-84226400D01*
X144653000Y-91059000D02*
X144653000Y-98171000D01*
X118145843Y-88552000D02*
X124887179Y-88552000D01*
X115424208Y-88757000D02*
X117940843Y-88757000D01*
X139954073Y-88806000D02*
X140241573Y-89093500D01*
X104577813Y-84226400D02*
X107168317Y-84226400D01*
X117940843Y-88757000D02*
X118145843Y-88552000D01*
X107168317Y-84226400D02*
X111021917Y-88080000D01*
X117597135Y-84930500D02*
X118460635Y-85794000D01*
X133597503Y-86106000D02*
X141475500Y-86106000D01*
X113146000Y-77076553D02*
X112039400Y-78183153D01*
X113146000Y-70903847D02*
X113146000Y-77076553D01*
X112039400Y-83837316D02*
X113132584Y-84930500D01*
X141475500Y-86106000D02*
X141478000Y-86108500D01*
X126967055Y-86813500D02*
X132890003Y-86813500D01*
X132890003Y-86813500D02*
X133099503Y-86604000D01*
X112039400Y-78183153D02*
X112039400Y-83837316D01*
X113132584Y-84930500D02*
X117597135Y-84930500D01*
X118460635Y-85794000D02*
X125947555Y-85794000D01*
X112041000Y-67159200D02*
X112041000Y-69798847D01*
X105181400Y-66421000D02*
X105275800Y-66326600D01*
X125947555Y-85794000D02*
X126967055Y-86813500D01*
X105275800Y-66326600D02*
X111208400Y-66326600D01*
X111208400Y-66326600D02*
X112041000Y-67159200D01*
X133099503Y-86604000D02*
X133597503Y-86106000D01*
X112041000Y-69798847D02*
X113146000Y-70903847D01*
X111139400Y-81934055D02*
X109270581Y-83802874D01*
X110786668Y-67530468D02*
X111141000Y-67884800D01*
X111139400Y-77810361D02*
X111139400Y-81934055D01*
X109873532Y-67530468D02*
X110786668Y-67530468D01*
X111141000Y-70171639D02*
X112246000Y-71276639D01*
X111581105Y-86730000D02*
X115306396Y-86730000D01*
X111141000Y-67884800D02*
X111141000Y-70171639D01*
X109270581Y-83802874D02*
X109270581Y-84419476D01*
X115306396Y-86730000D02*
X115698396Y-87122000D01*
X109270581Y-84419476D02*
X111581105Y-86730000D01*
X115698396Y-87122000D02*
X116586000Y-87122000D01*
X112246000Y-76703761D02*
X111139400Y-77810361D01*
X112246000Y-71276639D02*
X112246000Y-76703761D01*
G04 #@! TA.AperFunction,Conductor*
G36*
X153588032Y-88585038D02*
G01*
X153644868Y-88627585D01*
X153669679Y-88694105D01*
X153670000Y-88703094D01*
X153670000Y-99365500D01*
X153649998Y-99433621D01*
X153596342Y-99480114D01*
X153544000Y-99491500D01*
X149488286Y-99491500D01*
X149420165Y-99471498D01*
X149373672Y-99417842D01*
X149363568Y-99347568D01*
X149385963Y-99291974D01*
X149387428Y-99289936D01*
X149504453Y-99127077D01*
X149520990Y-99093618D01*
X149601136Y-98931453D01*
X149601137Y-98931451D01*
X149603430Y-98926811D01*
X149636445Y-98818145D01*
X149666865Y-98718023D01*
X149666865Y-98718021D01*
X149668370Y-98713069D01*
X149697529Y-98491590D01*
X149698449Y-98453939D01*
X149699074Y-98428365D01*
X149699074Y-98428361D01*
X149699156Y-98425000D01*
X149680852Y-98202361D01*
X149626431Y-97985702D01*
X149537354Y-97780840D01*
X149468743Y-97674784D01*
X149418822Y-97597617D01*
X149418820Y-97597614D01*
X149416014Y-97593277D01*
X149265670Y-97428051D01*
X149261619Y-97424852D01*
X149261615Y-97424848D01*
X149094414Y-97292800D01*
X149094410Y-97292798D01*
X149090359Y-97289598D01*
X149049053Y-97266796D01*
X148999084Y-97216364D01*
X148984312Y-97146921D01*
X149009428Y-97080516D01*
X149036780Y-97053909D01*
X149087814Y-97017507D01*
X149215860Y-96926173D01*
X149224856Y-96917209D01*
X149331207Y-96811228D01*
X149374096Y-96768489D01*
X149395400Y-96738842D01*
X149501435Y-96591277D01*
X149504453Y-96587077D01*
X149513680Y-96568409D01*
X149601136Y-96391453D01*
X149601137Y-96391451D01*
X149603430Y-96386811D01*
X149636844Y-96276833D01*
X149666865Y-96178023D01*
X149666865Y-96178021D01*
X149668370Y-96173069D01*
X149697529Y-95951590D01*
X149699156Y-95885000D01*
X149680852Y-95662361D01*
X149626431Y-95445702D01*
X149537354Y-95240840D01*
X149416014Y-95053277D01*
X149265670Y-94888051D01*
X149261619Y-94884852D01*
X149261615Y-94884848D01*
X149094414Y-94752800D01*
X149094410Y-94752798D01*
X149090359Y-94749598D01*
X149048569Y-94726529D01*
X148998598Y-94676097D01*
X148983826Y-94606654D01*
X149008942Y-94540248D01*
X149036294Y-94513641D01*
X149211328Y-94388792D01*
X149219200Y-94382139D01*
X149370052Y-94231812D01*
X149376730Y-94223965D01*
X149501003Y-94051020D01*
X149506313Y-94042183D01*
X149600670Y-93851267D01*
X149604469Y-93841672D01*
X149666377Y-93637910D01*
X149668555Y-93627837D01*
X149669986Y-93616962D01*
X149667775Y-93602778D01*
X149654617Y-93599000D01*
X148208000Y-93599000D01*
X148139879Y-93578998D01*
X148093386Y-93525342D01*
X148082000Y-93473000D01*
X148082000Y-93217000D01*
X148102002Y-93148879D01*
X148155658Y-93102386D01*
X148208000Y-93091000D01*
X149654344Y-93091000D01*
X149667875Y-93087027D01*
X149669180Y-93077947D01*
X149627214Y-92910875D01*
X149623894Y-92901124D01*
X149538972Y-92705814D01*
X149534105Y-92696739D01*
X149418426Y-92517926D01*
X149412136Y-92509757D01*
X149268806Y-92352240D01*
X149261273Y-92345215D01*
X149094139Y-92213222D01*
X149085556Y-92207520D01*
X149048602Y-92187120D01*
X148998631Y-92136687D01*
X148983859Y-92067245D01*
X149008975Y-92000839D01*
X149036327Y-91974232D01*
X149085032Y-91939491D01*
X149215860Y-91846173D01*
X149219689Y-91842358D01*
X149337675Y-91724783D01*
X149374096Y-91688489D01*
X149398903Y-91653967D01*
X149501435Y-91511277D01*
X149504453Y-91507077D01*
X149519016Y-91477612D01*
X149601136Y-91311453D01*
X149601137Y-91311451D01*
X149603430Y-91306811D01*
X149668370Y-91093069D01*
X149697529Y-90871590D01*
X149699156Y-90805000D01*
X149680852Y-90582361D01*
X149626431Y-90365702D01*
X149623736Y-90359502D01*
X149576010Y-90249743D01*
X149567189Y-90179296D01*
X149597856Y-90115264D01*
X149658272Y-90077976D01*
X149691559Y-90073500D01*
X151654233Y-90073500D01*
X151665416Y-90074027D01*
X151672909Y-90075702D01*
X151680835Y-90075453D01*
X151680836Y-90075453D01*
X151740986Y-90073562D01*
X151744945Y-90073500D01*
X151772856Y-90073500D01*
X151776791Y-90073003D01*
X151776856Y-90072995D01*
X151788693Y-90072062D01*
X151820951Y-90071048D01*
X151824970Y-90070922D01*
X151832889Y-90070673D01*
X151852343Y-90065021D01*
X151871700Y-90061013D01*
X151883930Y-90059468D01*
X151883931Y-90059468D01*
X151891797Y-90058474D01*
X151899168Y-90055555D01*
X151899170Y-90055555D01*
X151932912Y-90042196D01*
X151944142Y-90038351D01*
X151978983Y-90028229D01*
X151978984Y-90028229D01*
X151986593Y-90026018D01*
X151993412Y-90021985D01*
X151993417Y-90021983D01*
X152004028Y-90015707D01*
X152021776Y-90007012D01*
X152040617Y-89999552D01*
X152076387Y-89973564D01*
X152086307Y-89967048D01*
X152117535Y-89948580D01*
X152117538Y-89948578D01*
X152124362Y-89944542D01*
X152138683Y-89930221D01*
X152153717Y-89917380D01*
X152163694Y-89910131D01*
X152170107Y-89905472D01*
X152198298Y-89871395D01*
X152206288Y-89862616D01*
X153454905Y-88613999D01*
X153517217Y-88579973D01*
X153588032Y-88585038D01*
G37*
G04 #@! TD.AperFunction*
G04 #@! TA.AperFunction,Conductor*
G36*
X145503597Y-91027501D02*
G01*
X146141595Y-91665499D01*
X146175621Y-91727811D01*
X146178500Y-91754594D01*
X146178500Y-94282233D01*
X146177973Y-94293416D01*
X146176298Y-94300909D01*
X146176547Y-94308835D01*
X146176547Y-94308836D01*
X146178438Y-94368986D01*
X146178500Y-94372945D01*
X146178500Y-94400856D01*
X146178997Y-94404790D01*
X146178997Y-94404791D01*
X146179005Y-94404856D01*
X146179938Y-94416693D01*
X146181327Y-94460889D01*
X146183829Y-94469500D01*
X146186978Y-94480339D01*
X146190987Y-94499700D01*
X146193526Y-94519797D01*
X146196445Y-94527168D01*
X146196445Y-94527170D01*
X146209804Y-94560912D01*
X146213649Y-94572142D01*
X146223771Y-94606983D01*
X146225982Y-94614593D01*
X146230015Y-94621412D01*
X146230017Y-94621417D01*
X146236293Y-94632028D01*
X146244988Y-94649776D01*
X146252448Y-94668617D01*
X146257110Y-94675033D01*
X146257110Y-94675034D01*
X146278436Y-94704387D01*
X146284952Y-94714307D01*
X146307458Y-94752362D01*
X146321779Y-94766683D01*
X146334619Y-94781716D01*
X146346528Y-94798107D01*
X146380605Y-94826298D01*
X146389384Y-94834288D01*
X146985778Y-95430682D01*
X147019804Y-95492994D01*
X147018100Y-95553448D01*
X146996989Y-95629570D01*
X146996441Y-95634700D01*
X146996440Y-95634704D01*
X146993455Y-95662635D01*
X146973251Y-95851695D01*
X146973548Y-95856848D01*
X146973548Y-95856851D01*
X146982573Y-96013375D01*
X146986110Y-96074715D01*
X146987247Y-96079761D01*
X146987248Y-96079767D01*
X147007119Y-96167939D01*
X147035222Y-96292639D01*
X147086888Y-96419878D01*
X147117142Y-96494384D01*
X147119266Y-96499616D01*
X147121965Y-96504020D01*
X147195544Y-96624090D01*
X147235987Y-96690088D01*
X147382250Y-96858938D01*
X147554126Y-97001632D01*
X147581293Y-97017507D01*
X147627445Y-97044476D01*
X147676169Y-97096114D01*
X147689240Y-97165897D01*
X147662509Y-97231669D01*
X147622055Y-97265027D01*
X147609607Y-97271507D01*
X147605474Y-97274610D01*
X147605471Y-97274612D01*
X147435100Y-97402530D01*
X147430965Y-97405635D01*
X147276629Y-97567138D01*
X147273715Y-97571410D01*
X147273714Y-97571411D01*
X147196549Y-97684531D01*
X147150743Y-97751680D01*
X147103760Y-97852896D01*
X147067042Y-97932000D01*
X147056688Y-97954305D01*
X146996989Y-98169570D01*
X146973251Y-98391695D01*
X146973548Y-98396848D01*
X146973548Y-98396851D01*
X146979011Y-98491590D01*
X146986110Y-98614715D01*
X146987247Y-98619761D01*
X146987248Y-98619767D01*
X147000207Y-98677267D01*
X147035222Y-98832639D01*
X147119266Y-99039616D01*
X147139436Y-99072531D01*
X147226614Y-99214792D01*
X147235987Y-99230088D01*
X147239367Y-99233990D01*
X147281823Y-99283002D01*
X147311306Y-99347588D01*
X147301192Y-99417860D01*
X147254690Y-99471508D01*
X147186586Y-99491500D01*
X145534882Y-99491500D01*
X145466761Y-99471498D01*
X145420268Y-99417842D01*
X145410164Y-99347568D01*
X145439658Y-99282988D01*
X145461711Y-99262923D01*
X145532860Y-99212173D01*
X145691096Y-99054489D01*
X145821453Y-98873077D01*
X145834995Y-98845678D01*
X145918136Y-98677453D01*
X145918137Y-98677451D01*
X145920430Y-98672811D01*
X145985370Y-98459069D01*
X146014529Y-98237590D01*
X146015390Y-98202361D01*
X146016074Y-98174365D01*
X146016074Y-98174361D01*
X146016156Y-98171000D01*
X145997852Y-97948361D01*
X145943431Y-97731702D01*
X145854354Y-97526840D01*
X145733014Y-97339277D01*
X145582670Y-97174051D01*
X145578619Y-97170852D01*
X145578615Y-97170848D01*
X145411414Y-97038800D01*
X145411410Y-97038798D01*
X145407359Y-97035598D01*
X145402835Y-97033101D01*
X145402831Y-97033098D01*
X145351608Y-97004822D01*
X145301636Y-96954390D01*
X145286500Y-96894513D01*
X145286500Y-91137768D01*
X145287028Y-91126580D01*
X145288702Y-91119092D01*
X145288453Y-91111173D01*
X145289062Y-91104734D01*
X145315388Y-91038799D01*
X145373182Y-90997564D01*
X145444095Y-90994120D01*
X145503597Y-91027501D01*
G37*
G04 #@! TD.AperFunction*
G04 #@! TA.AperFunction,Conductor*
G36*
X102437537Y-88242593D02*
G01*
X102467539Y-88255576D01*
X102478169Y-88260783D01*
X102516936Y-88282095D01*
X102524613Y-88284066D01*
X102524618Y-88284068D01*
X102536554Y-88287132D01*
X102555262Y-88293537D01*
X102573851Y-88301581D01*
X102581679Y-88302821D01*
X102581686Y-88302823D01*
X102617520Y-88308499D01*
X102629140Y-88310905D01*
X102664285Y-88319928D01*
X102671966Y-88321900D01*
X102692220Y-88321900D01*
X102711930Y-88323451D01*
X102731939Y-88326620D01*
X102739831Y-88325874D01*
X102775957Y-88322459D01*
X102787815Y-88321900D01*
X105860951Y-88321900D01*
X105929072Y-88341902D01*
X105950046Y-88358805D01*
X109314688Y-91723447D01*
X109322232Y-91731737D01*
X109326345Y-91738218D01*
X109332122Y-91743643D01*
X109376012Y-91784858D01*
X109378854Y-91787613D01*
X109398575Y-91807334D01*
X109401770Y-91809812D01*
X109410792Y-91817518D01*
X109443024Y-91847786D01*
X109449973Y-91851606D01*
X109460777Y-91857546D01*
X109477301Y-91868399D01*
X109493304Y-91880813D01*
X109533888Y-91898376D01*
X109544518Y-91903583D01*
X109583285Y-91924895D01*
X109590962Y-91926866D01*
X109590967Y-91926868D01*
X109602903Y-91929932D01*
X109621611Y-91936337D01*
X109640200Y-91944381D01*
X109648028Y-91945621D01*
X109648035Y-91945623D01*
X109683869Y-91951299D01*
X109695489Y-91953705D01*
X109730634Y-91962728D01*
X109738315Y-91964700D01*
X109758569Y-91964700D01*
X109778279Y-91966251D01*
X109798288Y-91969420D01*
X109806180Y-91968674D01*
X109842306Y-91965259D01*
X109854164Y-91964700D01*
X112423645Y-91964700D01*
X112491766Y-91984702D01*
X112512740Y-92001605D01*
X112810382Y-92299247D01*
X112817926Y-92307537D01*
X112822039Y-92314018D01*
X112827816Y-92319443D01*
X112871706Y-92360658D01*
X112874548Y-92363413D01*
X112894269Y-92383134D01*
X112897464Y-92385612D01*
X112906486Y-92393318D01*
X112938718Y-92423586D01*
X112945667Y-92427406D01*
X112956471Y-92433346D01*
X112972995Y-92444199D01*
X112988998Y-92456613D01*
X113029582Y-92474176D01*
X113040212Y-92479383D01*
X113078979Y-92500695D01*
X113086656Y-92502666D01*
X113086661Y-92502668D01*
X113098597Y-92505732D01*
X113117305Y-92512137D01*
X113135894Y-92520181D01*
X113143722Y-92521421D01*
X113143729Y-92521423D01*
X113179563Y-92527099D01*
X113191183Y-92529505D01*
X113226328Y-92538528D01*
X113234009Y-92540500D01*
X113254263Y-92540500D01*
X113273973Y-92542051D01*
X113293982Y-92545220D01*
X113301874Y-92544474D01*
X113338000Y-92541059D01*
X113349858Y-92540500D01*
X118008406Y-92540500D01*
X118076527Y-92560502D01*
X118097501Y-92577405D01*
X119989595Y-94469500D01*
X120023621Y-94531812D01*
X120026500Y-94558595D01*
X120026500Y-96892692D01*
X120006498Y-96960813D01*
X119958683Y-97004453D01*
X119933607Y-97017507D01*
X119929474Y-97020610D01*
X119929471Y-97020612D01*
X119828912Y-97096114D01*
X119754965Y-97151635D01*
X119693109Y-97216364D01*
X119674283Y-97236064D01*
X119612759Y-97271494D01*
X119541846Y-97268037D01*
X119484060Y-97226791D01*
X119465207Y-97193243D01*
X119423767Y-97082703D01*
X119420615Y-97074295D01*
X119333261Y-96957739D01*
X119216705Y-96870385D01*
X119080316Y-96819255D01*
X119018134Y-96812500D01*
X117221866Y-96812500D01*
X117159684Y-96819255D01*
X117023295Y-96870385D01*
X116906739Y-96957739D01*
X116819385Y-97074295D01*
X116768255Y-97210684D01*
X116761500Y-97272866D01*
X116761500Y-99069134D01*
X116768255Y-99131316D01*
X116819385Y-99267705D01*
X116831779Y-99284243D01*
X116836046Y-99289936D01*
X116860893Y-99356443D01*
X116845839Y-99425825D01*
X116795664Y-99476055D01*
X116735219Y-99491500D01*
X101183368Y-99491500D01*
X101115247Y-99471498D01*
X101068754Y-99417842D01*
X101058650Y-99347568D01*
X101088144Y-99282988D01*
X101117533Y-99258067D01*
X101151376Y-99237328D01*
X101343898Y-99072898D01*
X101508328Y-98880376D01*
X101640616Y-98664502D01*
X101661239Y-98614715D01*
X101735611Y-98435164D01*
X101735612Y-98435162D01*
X101737505Y-98430591D01*
X101769097Y-98299000D01*
X101795454Y-98189216D01*
X101795455Y-98189210D01*
X101796609Y-98184403D01*
X101816474Y-97932000D01*
X101796609Y-97679597D01*
X101774969Y-97589457D01*
X101738660Y-97438221D01*
X101737505Y-97433409D01*
X101700312Y-97343617D01*
X101642511Y-97204072D01*
X101642509Y-97204068D01*
X101640616Y-97199498D01*
X101508328Y-96983624D01*
X101361087Y-96811228D01*
X101347106Y-96794858D01*
X101343898Y-96791102D01*
X101151376Y-96626672D01*
X100935502Y-96494384D01*
X100930932Y-96492491D01*
X100930928Y-96492489D01*
X100706164Y-96399389D01*
X100706162Y-96399388D01*
X100701591Y-96397495D01*
X100616968Y-96377179D01*
X100460216Y-96339546D01*
X100460210Y-96339545D01*
X100455403Y-96338391D01*
X100203000Y-96318526D01*
X99950597Y-96338391D01*
X99945790Y-96339545D01*
X99945784Y-96339546D01*
X99789032Y-96377179D01*
X99704409Y-96397495D01*
X99699838Y-96399388D01*
X99699836Y-96399389D01*
X99648923Y-96420478D01*
X99578333Y-96428067D01*
X99514846Y-96396288D01*
X99478619Y-96335230D01*
X99481153Y-96264278D01*
X99483647Y-96257749D01*
X99484034Y-96256417D01*
X99487181Y-96249145D01*
X99493175Y-96211305D01*
X99494097Y-96205481D01*
X99496504Y-96193860D01*
X99505528Y-96158711D01*
X99505528Y-96158710D01*
X99507500Y-96151030D01*
X99507500Y-96130769D01*
X99509051Y-96111058D01*
X99510979Y-96098885D01*
X99512219Y-96091057D01*
X99508059Y-96047046D01*
X99507500Y-96035189D01*
X99507500Y-92780226D01*
X99509496Y-92764393D01*
X99508535Y-92764272D01*
X99509528Y-92756411D01*
X99511500Y-92748731D01*
X99511500Y-92728477D01*
X99513051Y-92708766D01*
X99514980Y-92696587D01*
X99516220Y-92688758D01*
X99512059Y-92644739D01*
X99511500Y-92632882D01*
X99511500Y-92575172D01*
X99531502Y-92507051D01*
X99585158Y-92460558D01*
X99655432Y-92450454D01*
X99685718Y-92458763D01*
X99690052Y-92460558D01*
X99704409Y-92466505D01*
X99776036Y-92483701D01*
X99945784Y-92524454D01*
X99945790Y-92524455D01*
X99950597Y-92525609D01*
X100203000Y-92545474D01*
X100455403Y-92525609D01*
X100460210Y-92524455D01*
X100460216Y-92524454D01*
X100629964Y-92483701D01*
X100701591Y-92466505D01*
X100706164Y-92464611D01*
X100820282Y-92417342D01*
X100890872Y-92409753D01*
X100954359Y-92441533D01*
X100990586Y-92502591D01*
X100994500Y-92533751D01*
X100994500Y-93536088D01*
X100974498Y-93604209D01*
X100962136Y-93620398D01*
X100876825Y-93715146D01*
X100844744Y-93770712D01*
X100793503Y-93859465D01*
X100780287Y-93882355D01*
X100778245Y-93888640D01*
X100727734Y-94044097D01*
X100720623Y-94065981D01*
X100719933Y-94072544D01*
X100719933Y-94072545D01*
X100717195Y-94098595D01*
X100700441Y-94258000D01*
X100701131Y-94264565D01*
X100713489Y-94382139D01*
X100720623Y-94450019D01*
X100722663Y-94456296D01*
X100722663Y-94456298D01*
X100745691Y-94527170D01*
X100780287Y-94633645D01*
X100783590Y-94639367D01*
X100783591Y-94639368D01*
X100796222Y-94661246D01*
X100876825Y-94800854D01*
X100881243Y-94805761D01*
X100881244Y-94805762D01*
X100952453Y-94884848D01*
X101006018Y-94944338D01*
X101162220Y-95057826D01*
X101168249Y-95060510D01*
X101168252Y-95060512D01*
X101332569Y-95133670D01*
X101332572Y-95133671D01*
X101338605Y-95136357D01*
X101380538Y-95145270D01*
X101521005Y-95175128D01*
X101521010Y-95175128D01*
X101527462Y-95176500D01*
X101720538Y-95176500D01*
X101726990Y-95175128D01*
X101726995Y-95175128D01*
X101867462Y-95145270D01*
X101909395Y-95136357D01*
X101915428Y-95133671D01*
X101915431Y-95133670D01*
X102079748Y-95060512D01*
X102079751Y-95060510D01*
X102085780Y-95057826D01*
X102241982Y-94944338D01*
X102295547Y-94884848D01*
X102366756Y-94805762D01*
X102366757Y-94805761D01*
X102371175Y-94800854D01*
X102451778Y-94661246D01*
X102464409Y-94639368D01*
X102464410Y-94639367D01*
X102467713Y-94633645D01*
X102502309Y-94527170D01*
X102525337Y-94456298D01*
X102525337Y-94456296D01*
X102527377Y-94450019D01*
X102534512Y-94382139D01*
X102546869Y-94264565D01*
X102547559Y-94258000D01*
X102530805Y-94098595D01*
X102528067Y-94072545D01*
X102528067Y-94072544D01*
X102527377Y-94065981D01*
X102520267Y-94044097D01*
X102469755Y-93888640D01*
X102467713Y-93882355D01*
X102454498Y-93859465D01*
X102403256Y-93770712D01*
X102371175Y-93715146D01*
X102297042Y-93632812D01*
X102293864Y-93629283D01*
X102263146Y-93565276D01*
X102261500Y-93544973D01*
X102261500Y-88358231D01*
X102281502Y-88290110D01*
X102335158Y-88243617D01*
X102405432Y-88233513D01*
X102437537Y-88242593D01*
G37*
G04 #@! TD.AperFunction*
G04 #@! TA.AperFunction,Conductor*
G36*
X99269539Y-50528502D02*
G01*
X99316032Y-50582158D01*
X99326136Y-50652432D01*
X99296642Y-50717012D01*
X99267252Y-50741933D01*
X99258843Y-50747086D01*
X99258838Y-50747090D01*
X99254624Y-50749672D01*
X99062102Y-50914102D01*
X98897672Y-51106624D01*
X98765384Y-51322498D01*
X98668495Y-51556409D01*
X98609391Y-51802597D01*
X98609003Y-51807531D01*
X98590676Y-52040387D01*
X98565390Y-52106728D01*
X98508252Y-52148868D01*
X98437402Y-52153427D01*
X98404170Y-52140809D01*
X98266116Y-52064599D01*
X98256705Y-52060369D01*
X98055959Y-51989280D01*
X98045989Y-51986646D01*
X97836327Y-51949301D01*
X97826073Y-51948331D01*
X97613116Y-51945728D01*
X97602832Y-51946448D01*
X97392321Y-51978661D01*
X97382293Y-51981050D01*
X97179868Y-52047212D01*
X97170359Y-52051209D01*
X96981466Y-52149540D01*
X96972734Y-52155039D01*
X96952677Y-52170099D01*
X96944223Y-52181427D01*
X96950968Y-52193758D01*
X98813474Y-54056264D01*
X98825484Y-54062823D01*
X98837223Y-54053855D01*
X98868004Y-54011019D01*
X98873315Y-54002180D01*
X98967670Y-53811267D01*
X98971469Y-53801672D01*
X99033376Y-53597915D01*
X99035555Y-53587834D01*
X99054431Y-53444459D01*
X99083153Y-53379531D01*
X99142419Y-53340440D01*
X99213410Y-53339595D01*
X99252536Y-53358545D01*
X99254624Y-53360328D01*
X99470498Y-53492616D01*
X99475068Y-53494509D01*
X99475072Y-53494511D01*
X99699836Y-53587611D01*
X99704409Y-53589505D01*
X99789032Y-53609821D01*
X99945784Y-53647454D01*
X99945790Y-53647455D01*
X99950597Y-53648609D01*
X100203000Y-53668474D01*
X100455403Y-53648609D01*
X100460210Y-53647455D01*
X100460216Y-53647454D01*
X100616968Y-53609821D01*
X100701591Y-53589505D01*
X100706164Y-53587611D01*
X100930928Y-53494511D01*
X100930932Y-53494509D01*
X100935502Y-53492616D01*
X101151376Y-53360328D01*
X101343898Y-53195898D01*
X101508328Y-53003376D01*
X101640616Y-52787502D01*
X101673032Y-52709244D01*
X101735611Y-52558164D01*
X101735612Y-52558162D01*
X101737505Y-52553591D01*
X101796609Y-52307403D01*
X101816474Y-52055000D01*
X101796609Y-51802597D01*
X101737505Y-51556409D01*
X101640616Y-51322498D01*
X101508328Y-51106624D01*
X101343898Y-50914102D01*
X101151376Y-50749672D01*
X101147162Y-50747090D01*
X101147157Y-50747086D01*
X101138748Y-50741933D01*
X101091116Y-50689286D01*
X101079509Y-50619244D01*
X101107612Y-50554046D01*
X101166502Y-50514392D01*
X101204582Y-50508500D01*
X115441773Y-50508500D01*
X115509894Y-50528502D01*
X115556387Y-50582158D01*
X115567772Y-50634970D01*
X115532304Y-60140497D01*
X115517813Y-60198694D01*
X115488025Y-60255311D01*
X115488020Y-60255323D01*
X115486256Y-60258675D01*
X115484909Y-60262213D01*
X115484904Y-60262223D01*
X115462561Y-60320890D01*
X115459248Y-60328772D01*
X115431369Y-60389247D01*
X115404153Y-60473763D01*
X115401970Y-60479981D01*
X115370364Y-60562964D01*
X115369452Y-60566636D01*
X115354314Y-60627574D01*
X115351966Y-60635817D01*
X115331560Y-60699185D01*
X115330841Y-60702901D01*
X115330839Y-60702909D01*
X115314696Y-60786349D01*
X115313275Y-60792786D01*
X115291866Y-60878973D01*
X115291401Y-60882735D01*
X115283695Y-60945048D01*
X115282353Y-60953517D01*
X115269709Y-61018870D01*
X115269441Y-61022660D01*
X115269440Y-61022665D01*
X115263437Y-61107450D01*
X115262799Y-61114011D01*
X115251903Y-61202125D01*
X115251893Y-61205916D01*
X115251893Y-61205917D01*
X115251725Y-61270017D01*
X115251650Y-61273920D01*
X115251500Y-61276046D01*
X115251500Y-61355960D01*
X115251050Y-61527736D01*
X115251360Y-61530356D01*
X115251500Y-61535210D01*
X115251500Y-67153374D01*
X115251613Y-67155241D01*
X115251613Y-67155256D01*
X115261711Y-67322748D01*
X115266159Y-67396523D01*
X115266838Y-67400241D01*
X115266839Y-67400249D01*
X115290167Y-67527982D01*
X115324658Y-67716837D01*
X115421216Y-68027804D01*
X115490296Y-68181872D01*
X115491072Y-68183603D01*
X115502098Y-68235620D01*
X115443000Y-84074000D01*
X115450760Y-84074000D01*
X115453148Y-84076085D01*
X115491308Y-84135954D01*
X115491043Y-84206950D01*
X115452436Y-84266532D01*
X115387745Y-84295784D01*
X115370280Y-84297000D01*
X113447179Y-84297000D01*
X113379058Y-84276998D01*
X113358083Y-84260095D01*
X112709804Y-83611815D01*
X112675779Y-83549503D01*
X112672900Y-83522720D01*
X112672900Y-82628693D01*
X112692902Y-82560572D01*
X112746558Y-82514079D01*
X112798900Y-82502693D01*
X112903734Y-82502693D01*
X112910186Y-82501321D01*
X112910191Y-82501321D01*
X113050658Y-82471463D01*
X113092591Y-82462550D01*
X113098624Y-82459864D01*
X113098627Y-82459863D01*
X113262944Y-82386705D01*
X113262947Y-82386703D01*
X113268976Y-82384019D01*
X113425178Y-82270531D01*
X113554371Y-82127047D01*
X113650909Y-81959838D01*
X113699616Y-81809934D01*
X113739690Y-81751329D01*
X113784181Y-81729979D01*
X113783658Y-81728369D01*
X113789930Y-81726331D01*
X113796395Y-81724957D01*
X113895024Y-81681045D01*
X113966748Y-81649112D01*
X113966751Y-81649110D01*
X113972780Y-81646426D01*
X114128982Y-81532938D01*
X114133404Y-81528027D01*
X114253756Y-81394362D01*
X114253757Y-81394361D01*
X114258175Y-81389454D01*
X114347422Y-81234874D01*
X114351409Y-81227968D01*
X114351410Y-81227967D01*
X114354713Y-81222245D01*
X114414377Y-81038619D01*
X114425159Y-80936040D01*
X114433869Y-80853165D01*
X114434559Y-80846600D01*
X114414377Y-80654581D01*
X114401575Y-80615179D01*
X114356755Y-80477240D01*
X114354713Y-80470955D01*
X114341942Y-80448834D01*
X114306184Y-80386900D01*
X114258175Y-80303746D01*
X114247387Y-80291764D01*
X114176864Y-80213441D01*
X114146147Y-80149434D01*
X114144500Y-80129131D01*
X114144500Y-79741437D01*
X114164502Y-79673316D01*
X114181405Y-79652342D01*
X114888247Y-78945500D01*
X114896537Y-78937956D01*
X114903018Y-78933843D01*
X114949659Y-78884175D01*
X114952413Y-78881334D01*
X114972134Y-78861613D01*
X114974612Y-78858418D01*
X114982318Y-78849396D01*
X115007158Y-78822944D01*
X115012586Y-78817164D01*
X115022346Y-78799411D01*
X115033199Y-78782888D01*
X115040753Y-78773149D01*
X115045613Y-78766884D01*
X115063176Y-78726300D01*
X115068383Y-78715670D01*
X115089695Y-78676903D01*
X115091666Y-78669226D01*
X115091668Y-78669221D01*
X115094732Y-78657285D01*
X115101138Y-78638573D01*
X115106034Y-78627260D01*
X115109181Y-78619988D01*
X115116097Y-78576324D01*
X115118504Y-78564703D01*
X115127528Y-78529554D01*
X115127528Y-78529553D01*
X115129500Y-78521873D01*
X115129500Y-78501612D01*
X115131051Y-78481901D01*
X115132791Y-78470919D01*
X115134219Y-78461900D01*
X115130059Y-78417889D01*
X115129500Y-78406032D01*
X115129500Y-68980928D01*
X115130027Y-68969745D01*
X115131702Y-68962252D01*
X115129562Y-68894161D01*
X115129500Y-68890204D01*
X115129500Y-68862305D01*
X115128996Y-68858314D01*
X115128063Y-68846472D01*
X115127793Y-68837858D01*
X115126674Y-68802272D01*
X115124462Y-68794658D01*
X115124461Y-68794653D01*
X115121023Y-68782820D01*
X115117012Y-68763456D01*
X115115467Y-68751225D01*
X115114474Y-68743364D01*
X115111557Y-68735997D01*
X115111556Y-68735992D01*
X115098198Y-68702253D01*
X115094354Y-68691026D01*
X115086491Y-68663963D01*
X115082018Y-68648568D01*
X115071707Y-68631133D01*
X115063012Y-68613385D01*
X115055552Y-68594544D01*
X115029564Y-68558774D01*
X115023048Y-68548854D01*
X115004580Y-68517626D01*
X115004578Y-68517623D01*
X115000542Y-68510799D01*
X114986221Y-68496478D01*
X114973380Y-68481444D01*
X114966132Y-68471468D01*
X114961472Y-68465054D01*
X114927407Y-68436873D01*
X114918626Y-68428883D01*
X114511404Y-68021660D01*
X114477379Y-67959348D01*
X114474500Y-67932565D01*
X114474500Y-65779871D01*
X114475027Y-65768688D01*
X114476702Y-65761195D01*
X114474562Y-65693118D01*
X114474500Y-65689159D01*
X114474500Y-65661248D01*
X114473995Y-65657248D01*
X114473062Y-65645405D01*
X114472423Y-65625055D01*
X114471673Y-65601214D01*
X114466022Y-65581762D01*
X114462014Y-65562410D01*
X114460467Y-65550167D01*
X114459474Y-65542307D01*
X114456556Y-65534936D01*
X114443200Y-65501201D01*
X114439355Y-65489974D01*
X114436177Y-65479035D01*
X114427018Y-65447511D01*
X114418944Y-65433858D01*
X114416707Y-65430076D01*
X114408012Y-65412328D01*
X114400552Y-65393487D01*
X114393304Y-65383510D01*
X114374564Y-65357717D01*
X114368048Y-65347797D01*
X114361191Y-65336202D01*
X114345542Y-65309742D01*
X114339936Y-65304135D01*
X114331220Y-65295419D01*
X114318379Y-65280385D01*
X114311131Y-65270409D01*
X114311130Y-65270408D01*
X114306472Y-65263997D01*
X114272401Y-65235811D01*
X114263622Y-65227822D01*
X114219775Y-65183975D01*
X114185749Y-65121663D01*
X114182870Y-65094880D01*
X114182870Y-63698099D01*
X114202872Y-63629978D01*
X114215234Y-63613789D01*
X114240490Y-63585740D01*
X114251302Y-63573732D01*
X114292126Y-63528392D01*
X114292127Y-63528391D01*
X114296545Y-63523484D01*
X114393083Y-63356275D01*
X114452747Y-63172649D01*
X114454856Y-63152588D01*
X114472239Y-62987195D01*
X114472929Y-62980630D01*
X114452747Y-62788611D01*
X114393083Y-62604985D01*
X114296545Y-62437776D01*
X114254279Y-62390834D01*
X114171774Y-62299203D01*
X114171773Y-62299202D01*
X114167352Y-62294292D01*
X114024171Y-62190264D01*
X114016492Y-62184685D01*
X114016491Y-62184684D01*
X114011150Y-62180804D01*
X114005121Y-62178120D01*
X114005118Y-62178118D01*
X113840801Y-62104960D01*
X113840798Y-62104959D01*
X113834765Y-62102273D01*
X113792832Y-62093360D01*
X113652365Y-62063502D01*
X113652360Y-62063502D01*
X113645908Y-62062130D01*
X113452832Y-62062130D01*
X113446380Y-62063502D01*
X113446375Y-62063502D01*
X113358404Y-62082201D01*
X113263975Y-62102273D01*
X113257945Y-62104958D01*
X113257944Y-62104958D01*
X113093621Y-62178119D01*
X113093619Y-62178120D01*
X113087591Y-62180804D01*
X113082250Y-62184684D01*
X113082249Y-62184685D01*
X113079512Y-62186674D01*
X112931388Y-62294292D01*
X112926967Y-62299202D01*
X112926966Y-62299203D01*
X112844462Y-62390834D01*
X112802195Y-62437776D01*
X112705657Y-62604985D01*
X112645993Y-62788611D01*
X112625811Y-62980630D01*
X112626501Y-62987195D01*
X112643885Y-63152588D01*
X112645993Y-63172649D01*
X112705657Y-63356275D01*
X112802195Y-63523484D01*
X112806613Y-63528391D01*
X112806614Y-63528392D01*
X112847438Y-63573732D01*
X112858251Y-63585740D01*
X112883506Y-63613789D01*
X112914223Y-63677796D01*
X112915870Y-63698099D01*
X112915870Y-64212276D01*
X112895868Y-64280397D01*
X112842212Y-64326890D01*
X112771938Y-64336994D01*
X112707358Y-64307500D01*
X112700775Y-64301371D01*
X112162486Y-63763081D01*
X111448358Y-63048953D01*
X111414332Y-62986641D01*
X111412143Y-62973028D01*
X111394067Y-62801046D01*
X111394067Y-62801045D01*
X111393377Y-62794481D01*
X111333713Y-62610855D01*
X111237175Y-62443646D01*
X111227471Y-62432868D01*
X111112404Y-62305073D01*
X111112403Y-62305072D01*
X111107982Y-62300162D01*
X110951780Y-62186674D01*
X110945751Y-62183990D01*
X110945748Y-62183988D01*
X110781431Y-62110830D01*
X110781428Y-62110829D01*
X110775395Y-62108143D01*
X110733462Y-62099230D01*
X110592995Y-62069372D01*
X110592990Y-62069372D01*
X110586538Y-62068000D01*
X110393462Y-62068000D01*
X110387010Y-62069372D01*
X110387005Y-62069372D01*
X110299034Y-62088071D01*
X110204605Y-62108143D01*
X110198575Y-62110828D01*
X110198574Y-62110828D01*
X110034251Y-62183989D01*
X110034249Y-62183990D01*
X110028221Y-62186674D01*
X110022880Y-62190554D01*
X110022879Y-62190555D01*
X109885442Y-62290409D01*
X109872018Y-62300162D01*
X109864217Y-62308827D01*
X109803774Y-62346067D01*
X109778490Y-62350270D01*
X109745577Y-62352340D01*
X109739048Y-62352751D01*
X109731138Y-62353000D01*
X107909657Y-62353000D01*
X107841536Y-62332998D01*
X107816022Y-62311312D01*
X107810403Y-62305072D01*
X107805982Y-62300162D01*
X107792559Y-62290409D01*
X107655122Y-62190555D01*
X107655121Y-62190554D01*
X107649780Y-62186674D01*
X107643751Y-62183990D01*
X107643748Y-62183988D01*
X107479431Y-62110830D01*
X107479428Y-62110829D01*
X107473395Y-62108143D01*
X107431462Y-62099230D01*
X107290995Y-62069372D01*
X107290990Y-62069372D01*
X107284538Y-62068000D01*
X107091462Y-62068000D01*
X107085010Y-62069372D01*
X107085005Y-62069372D01*
X106997034Y-62088071D01*
X106902605Y-62108143D01*
X106896575Y-62110828D01*
X106896574Y-62110828D01*
X106732251Y-62183989D01*
X106732249Y-62183990D01*
X106726221Y-62186674D01*
X106720880Y-62190554D01*
X106720879Y-62190555D01*
X106583442Y-62290409D01*
X106570018Y-62300162D01*
X106565597Y-62305072D01*
X106565596Y-62305073D01*
X106460050Y-62422294D01*
X106399604Y-62459534D01*
X106328620Y-62458182D01*
X106302255Y-62444377D01*
X106301426Y-62445778D01*
X106294601Y-62441742D01*
X106288341Y-62436886D01*
X106281072Y-62433741D01*
X106281068Y-62433738D01*
X106247763Y-62419326D01*
X106237113Y-62414109D01*
X106198360Y-62392805D01*
X106178737Y-62387767D01*
X106160034Y-62381363D01*
X106148720Y-62376467D01*
X106148719Y-62376467D01*
X106141445Y-62373319D01*
X106133622Y-62372080D01*
X106133612Y-62372077D01*
X106097776Y-62366401D01*
X106086156Y-62363995D01*
X106051011Y-62354972D01*
X106051010Y-62354972D01*
X106043330Y-62353000D01*
X106023076Y-62353000D01*
X106003365Y-62351449D01*
X105991186Y-62349520D01*
X105983357Y-62348280D01*
X105975465Y-62349026D01*
X105939339Y-62352441D01*
X105927481Y-62353000D01*
X104353657Y-62353000D01*
X104285536Y-62332998D01*
X104260022Y-62311312D01*
X104254403Y-62305072D01*
X104249982Y-62300162D01*
X104236559Y-62290409D01*
X104099122Y-62190555D01*
X104099121Y-62190554D01*
X104093780Y-62186674D01*
X104087751Y-62183990D01*
X104087748Y-62183988D01*
X103923431Y-62110830D01*
X103923428Y-62110829D01*
X103917395Y-62108143D01*
X103875462Y-62099230D01*
X103734995Y-62069372D01*
X103734990Y-62069372D01*
X103728538Y-62068000D01*
X103535462Y-62068000D01*
X103529010Y-62069372D01*
X103529005Y-62069372D01*
X103441034Y-62088071D01*
X103346605Y-62108143D01*
X103340575Y-62110828D01*
X103340574Y-62110828D01*
X103176251Y-62183989D01*
X103176249Y-62183990D01*
X103170221Y-62186674D01*
X103164880Y-62190554D01*
X103164879Y-62190555D01*
X103027442Y-62290409D01*
X103014018Y-62300162D01*
X103009597Y-62305072D01*
X103009596Y-62305073D01*
X102894530Y-62432868D01*
X102884825Y-62443646D01*
X102788287Y-62610855D01*
X102728623Y-62794481D01*
X102708441Y-62986500D01*
X102709131Y-62993065D01*
X102725898Y-63152588D01*
X102728623Y-63178519D01*
X102788287Y-63362145D01*
X102884825Y-63529354D01*
X102889243Y-63534261D01*
X102889244Y-63534262D01*
X103009596Y-63667927D01*
X103014018Y-63672838D01*
X103170220Y-63786326D01*
X103176249Y-63789010D01*
X103176252Y-63789012D01*
X103340569Y-63862170D01*
X103340572Y-63862171D01*
X103346605Y-63864857D01*
X103388538Y-63873770D01*
X103529005Y-63903628D01*
X103529010Y-63903628D01*
X103535462Y-63905000D01*
X103728538Y-63905000D01*
X103734990Y-63903628D01*
X103734995Y-63903628D01*
X103875462Y-63873770D01*
X103917395Y-63864857D01*
X103923428Y-63862171D01*
X103923431Y-63862170D01*
X104087748Y-63789012D01*
X104087751Y-63789010D01*
X104093780Y-63786326D01*
X104099122Y-63782445D01*
X104244638Y-63676721D01*
X104244640Y-63676719D01*
X104249982Y-63672838D01*
X104254404Y-63667927D01*
X104260022Y-63661688D01*
X104320469Y-63624449D01*
X104353657Y-63620000D01*
X105648705Y-63620000D01*
X105716826Y-63640002D01*
X105737801Y-63656905D01*
X106227153Y-64146258D01*
X106234687Y-64154537D01*
X106238800Y-64161018D01*
X106288451Y-64207643D01*
X106291293Y-64210398D01*
X106311030Y-64230135D01*
X106314227Y-64232615D01*
X106323247Y-64240318D01*
X106355479Y-64270586D01*
X106362425Y-64274405D01*
X106362428Y-64274407D01*
X106373234Y-64280348D01*
X106389753Y-64291199D01*
X106405759Y-64303614D01*
X106413028Y-64306759D01*
X106413032Y-64306762D01*
X106446337Y-64321174D01*
X106456987Y-64326391D01*
X106495740Y-64347695D01*
X106503415Y-64349666D01*
X106503416Y-64349666D01*
X106515362Y-64352733D01*
X106534067Y-64359137D01*
X106552655Y-64367181D01*
X106560478Y-64368420D01*
X106560488Y-64368423D01*
X106596324Y-64374099D01*
X106607944Y-64376505D01*
X106643089Y-64385528D01*
X106650770Y-64387500D01*
X106671024Y-64387500D01*
X106690734Y-64389051D01*
X106710743Y-64392220D01*
X106718635Y-64391474D01*
X106754761Y-64388059D01*
X106766619Y-64387500D01*
X109267063Y-64387500D01*
X109335184Y-64407502D01*
X109356158Y-64424405D01*
X109495500Y-64563747D01*
X109503044Y-64572037D01*
X109507157Y-64578518D01*
X109512934Y-64583943D01*
X109556824Y-64625158D01*
X109559666Y-64627913D01*
X109579387Y-64647634D01*
X109582582Y-64650112D01*
X109591604Y-64657818D01*
X109623836Y-64688086D01*
X109630785Y-64691906D01*
X109641589Y-64697846D01*
X109658113Y-64708699D01*
X109674116Y-64721113D01*
X109714700Y-64738676D01*
X109725330Y-64743883D01*
X109764097Y-64765195D01*
X109771774Y-64767166D01*
X109771779Y-64767168D01*
X109783715Y-64770232D01*
X109802423Y-64776637D01*
X109821012Y-64784681D01*
X109828840Y-64785921D01*
X109828847Y-64785923D01*
X109864681Y-64791599D01*
X109876301Y-64794005D01*
X109911446Y-64803028D01*
X109919127Y-64805000D01*
X109939381Y-64805000D01*
X109959091Y-64806551D01*
X109979100Y-64809720D01*
X109986992Y-64808974D01*
X110023118Y-64805559D01*
X110034976Y-64805000D01*
X110087613Y-64805000D01*
X110155734Y-64825002D01*
X110176709Y-64841905D01*
X110812808Y-65478005D01*
X110846833Y-65540317D01*
X110841768Y-65611133D01*
X110799221Y-65667968D01*
X110732701Y-65692779D01*
X110723712Y-65693100D01*
X105783117Y-65693100D01*
X105714996Y-65673098D01*
X105709056Y-65669036D01*
X105648522Y-65625055D01*
X105648521Y-65625054D01*
X105643180Y-65621174D01*
X105637151Y-65618490D01*
X105637148Y-65618488D01*
X105472831Y-65545330D01*
X105472828Y-65545329D01*
X105466795Y-65542643D01*
X105424862Y-65533730D01*
X105284395Y-65503872D01*
X105284390Y-65503872D01*
X105277938Y-65502500D01*
X105084862Y-65502500D01*
X105078410Y-65503872D01*
X105078405Y-65503872D01*
X104990433Y-65522572D01*
X104896005Y-65542643D01*
X104889975Y-65545328D01*
X104889974Y-65545328D01*
X104725651Y-65618489D01*
X104725649Y-65618490D01*
X104719621Y-65621174D01*
X104714280Y-65625054D01*
X104714279Y-65625055D01*
X104623313Y-65691146D01*
X104563418Y-65734662D01*
X104558997Y-65739572D01*
X104558996Y-65739573D01*
X104436494Y-65875626D01*
X104376048Y-65912866D01*
X104305065Y-65911514D01*
X104253762Y-65880411D01*
X103998407Y-65625055D01*
X103640094Y-65266742D01*
X103632560Y-65258463D01*
X103628447Y-65251982D01*
X103578795Y-65205356D01*
X103575954Y-65202602D01*
X103556217Y-65182865D01*
X103553020Y-65180385D01*
X103543998Y-65172680D01*
X103511768Y-65142414D01*
X103504822Y-65138595D01*
X103504819Y-65138593D01*
X103494013Y-65132652D01*
X103477494Y-65121801D01*
X103477030Y-65121441D01*
X103461488Y-65109386D01*
X103454219Y-65106241D01*
X103454215Y-65106238D01*
X103420910Y-65091826D01*
X103410260Y-65086609D01*
X103371507Y-65065305D01*
X103351884Y-65060267D01*
X103333181Y-65053863D01*
X103321867Y-65048967D01*
X103321866Y-65048967D01*
X103314592Y-65045819D01*
X103306769Y-65044580D01*
X103306759Y-65044577D01*
X103270923Y-65038901D01*
X103259303Y-65036495D01*
X103224158Y-65027472D01*
X103224157Y-65027472D01*
X103216477Y-65025500D01*
X103196223Y-65025500D01*
X103176512Y-65023949D01*
X103164333Y-65022020D01*
X103156504Y-65020780D01*
X103148612Y-65021526D01*
X103112486Y-65024941D01*
X103100628Y-65025500D01*
X100492194Y-65025500D01*
X100424073Y-65005498D01*
X100403099Y-64988595D01*
X99460974Y-64046470D01*
X99426948Y-63984158D01*
X99424297Y-63959496D01*
X99424759Y-63955100D01*
X99414992Y-63862170D01*
X99405267Y-63769645D01*
X99405267Y-63769644D01*
X99404577Y-63763081D01*
X99344913Y-63579455D01*
X99248375Y-63412246D01*
X99119182Y-63268762D01*
X98962980Y-63155274D01*
X98956951Y-63152590D01*
X98956948Y-63152588D01*
X98792631Y-63079430D01*
X98792628Y-63079429D01*
X98786595Y-63076743D01*
X98744662Y-63067830D01*
X98604195Y-63037972D01*
X98604190Y-63037972D01*
X98597738Y-63036600D01*
X98404662Y-63036600D01*
X98398210Y-63037972D01*
X98398205Y-63037972D01*
X98310233Y-63056672D01*
X98215805Y-63076743D01*
X98209775Y-63079428D01*
X98209774Y-63079428D01*
X98045451Y-63152589D01*
X98045449Y-63152590D01*
X98039421Y-63155274D01*
X98034080Y-63159154D01*
X98034079Y-63159155D01*
X97998785Y-63184798D01*
X97883218Y-63268762D01*
X97754025Y-63412246D01*
X97657487Y-63579455D01*
X97597823Y-63763081D01*
X97597133Y-63769644D01*
X97597133Y-63769645D01*
X97587408Y-63862170D01*
X97577641Y-63955100D01*
X97597823Y-64147119D01*
X97599863Y-64153396D01*
X97599863Y-64153398D01*
X97617924Y-64208984D01*
X97657487Y-64330745D01*
X97660790Y-64336467D01*
X97660791Y-64336468D01*
X97689116Y-64385528D01*
X97754025Y-64497954D01*
X97758443Y-64502861D01*
X97758444Y-64502862D01*
X97826565Y-64578518D01*
X97883218Y-64641438D01*
X98039420Y-64754926D01*
X98045449Y-64757610D01*
X98045452Y-64757612D01*
X98209769Y-64830770D01*
X98209772Y-64830771D01*
X98215805Y-64833457D01*
X98255550Y-64841905D01*
X98398205Y-64872228D01*
X98398210Y-64872228D01*
X98404662Y-64873600D01*
X98444106Y-64873600D01*
X98512227Y-64893602D01*
X98533201Y-64910505D01*
X98727661Y-65104965D01*
X98761687Y-65167277D01*
X98756622Y-65238092D01*
X98714075Y-65294928D01*
X98662769Y-65315666D01*
X98663101Y-65316960D01*
X98655416Y-65318933D01*
X98647556Y-65319926D01*
X98640189Y-65322843D01*
X98640184Y-65322844D01*
X98606445Y-65336202D01*
X98595218Y-65340046D01*
X98552760Y-65352382D01*
X98545934Y-65356419D01*
X98535325Y-65362693D01*
X98517577Y-65371388D01*
X98498736Y-65378848D01*
X98492320Y-65383510D01*
X98492319Y-65383510D01*
X98462966Y-65404836D01*
X98453045Y-65411352D01*
X98414991Y-65433858D01*
X98409384Y-65439464D01*
X98400668Y-65448180D01*
X98385635Y-65461020D01*
X98369246Y-65472928D01*
X98364194Y-65479035D01*
X98341065Y-65506993D01*
X98333075Y-65515774D01*
X97983541Y-65865307D01*
X97975263Y-65872840D01*
X97968782Y-65876953D01*
X97963355Y-65882732D01*
X97963353Y-65882734D01*
X97922173Y-65926588D01*
X97919417Y-65929432D01*
X97899665Y-65949183D01*
X97897185Y-65952380D01*
X97889482Y-65961400D01*
X97859214Y-65993632D01*
X97855395Y-66000578D01*
X97855393Y-66000581D01*
X97849452Y-66011387D01*
X97838601Y-66027906D01*
X97826186Y-66043912D01*
X97823041Y-66051181D01*
X97823038Y-66051185D01*
X97808626Y-66084490D01*
X97803409Y-66095140D01*
X97782105Y-66133893D01*
X97780134Y-66141568D01*
X97780134Y-66141569D01*
X97777067Y-66153515D01*
X97770663Y-66172219D01*
X97762619Y-66190808D01*
X97761380Y-66198631D01*
X97761377Y-66198641D01*
X97755701Y-66234477D01*
X97753295Y-66246097D01*
X97742300Y-66288923D01*
X97742300Y-66309177D01*
X97740749Y-66328887D01*
X97737580Y-66348896D01*
X97738326Y-66356789D01*
X97738257Y-66358988D01*
X97716126Y-66426447D01*
X97661036Y-66471232D01*
X97612319Y-66481031D01*
X97544762Y-66481031D01*
X97538310Y-66482403D01*
X97538305Y-66482403D01*
X97450334Y-66501102D01*
X97355905Y-66521174D01*
X97349875Y-66523859D01*
X97349874Y-66523859D01*
X97185551Y-66597020D01*
X97185549Y-66597021D01*
X97179521Y-66599705D01*
X97023318Y-66713193D01*
X96894125Y-66856677D01*
X96797587Y-67023886D01*
X96777429Y-67085927D01*
X96755514Y-67153374D01*
X96737923Y-67207512D01*
X96737233Y-67214077D01*
X96719157Y-67386059D01*
X96692144Y-67451716D01*
X96682942Y-67461984D01*
X96153147Y-67991779D01*
X96144861Y-67999319D01*
X96138382Y-68003431D01*
X96132957Y-68009208D01*
X96091757Y-68053082D01*
X96089002Y-68055924D01*
X96069265Y-68075661D01*
X96066785Y-68078858D01*
X96059082Y-68087878D01*
X96028814Y-68120110D01*
X96024995Y-68127056D01*
X96024993Y-68127059D01*
X96019052Y-68137865D01*
X96008201Y-68154384D01*
X95995786Y-68170390D01*
X95992641Y-68177659D01*
X95992638Y-68177663D01*
X95978226Y-68210968D01*
X95973009Y-68221618D01*
X95951705Y-68260371D01*
X95946956Y-68278869D01*
X95946667Y-68279993D01*
X95940263Y-68298697D01*
X95932219Y-68317286D01*
X95930980Y-68325109D01*
X95930977Y-68325119D01*
X95925301Y-68360955D01*
X95922895Y-68372575D01*
X95911900Y-68415401D01*
X95911900Y-68435655D01*
X95910349Y-68455365D01*
X95907180Y-68475374D01*
X95907926Y-68483266D01*
X95911341Y-68519392D01*
X95911900Y-68531250D01*
X95911900Y-77533776D01*
X95911373Y-77544959D01*
X95909698Y-77552452D01*
X95909947Y-77560378D01*
X95909947Y-77560379D01*
X95911838Y-77620529D01*
X95911900Y-77624488D01*
X95911900Y-77652399D01*
X95912397Y-77656333D01*
X95912397Y-77656334D01*
X95912405Y-77656399D01*
X95913338Y-77668236D01*
X95914727Y-77712432D01*
X95920378Y-77731882D01*
X95924387Y-77751243D01*
X95926926Y-77771340D01*
X95929845Y-77778711D01*
X95929845Y-77778713D01*
X95943204Y-77812455D01*
X95947049Y-77823685D01*
X95959382Y-77866136D01*
X95963415Y-77872955D01*
X95963417Y-77872960D01*
X95969693Y-77883571D01*
X95978388Y-77901319D01*
X95985848Y-77920160D01*
X95990510Y-77926576D01*
X95990510Y-77926577D01*
X96011836Y-77955930D01*
X96018352Y-77965850D01*
X96040858Y-78003905D01*
X96055179Y-78018226D01*
X96068019Y-78033259D01*
X96079928Y-78049650D01*
X96086034Y-78054701D01*
X96114005Y-78077841D01*
X96122784Y-78085831D01*
X98055589Y-80018636D01*
X98089615Y-80080948D01*
X98084550Y-80151763D01*
X98040555Y-80209666D01*
X97984818Y-80250162D01*
X97980397Y-80255072D01*
X97980396Y-80255073D01*
X97947411Y-80291707D01*
X97855625Y-80393646D01*
X97852322Y-80399367D01*
X97852293Y-80399407D01*
X97796069Y-80442760D01*
X97725333Y-80448834D01*
X97699108Y-80440450D01*
X97675030Y-80429729D01*
X97675022Y-80429726D01*
X97668995Y-80427043D01*
X97567625Y-80405496D01*
X97486595Y-80388272D01*
X97486590Y-80388272D01*
X97480138Y-80386900D01*
X97287062Y-80386900D01*
X97280610Y-80388272D01*
X97280605Y-80388272D01*
X97199575Y-80405496D01*
X97098205Y-80427043D01*
X97092175Y-80429728D01*
X97092174Y-80429728D01*
X96927851Y-80502889D01*
X96927849Y-80502890D01*
X96921821Y-80505574D01*
X96916480Y-80509454D01*
X96916479Y-80509455D01*
X96774756Y-80612423D01*
X96765618Y-80619062D01*
X96636425Y-80762546D01*
X96539887Y-80929755D01*
X96480223Y-81113381D01*
X96479533Y-81119944D01*
X96479533Y-81119945D01*
X96468781Y-81222245D01*
X96460041Y-81305400D01*
X96460731Y-81311965D01*
X96479204Y-81487720D01*
X96480223Y-81497419D01*
X96482263Y-81503696D01*
X96482263Y-81503698D01*
X96514560Y-81603096D01*
X96539887Y-81681045D01*
X96636425Y-81848254D01*
X96640843Y-81853161D01*
X96640844Y-81853162D01*
X96731239Y-81953556D01*
X96765618Y-81991738D01*
X96921820Y-82105226D01*
X96927849Y-82107910D01*
X96927852Y-82107912D01*
X97055854Y-82164901D01*
X97093701Y-82190913D01*
X98143776Y-83240989D01*
X98177802Y-83303301D01*
X98172737Y-83374117D01*
X98148318Y-83414393D01*
X98117113Y-83449049D01*
X98084540Y-83485226D01*
X98063508Y-83508584D01*
X97966970Y-83675793D01*
X97964928Y-83682078D01*
X97932405Y-83782174D01*
X97907306Y-83859419D01*
X97887124Y-84051438D01*
X97887814Y-84058003D01*
X97898111Y-84155968D01*
X97907306Y-84243457D01*
X97909346Y-84249734D01*
X97909346Y-84249736D01*
X97922135Y-84289095D01*
X97966970Y-84427083D01*
X98063508Y-84594292D01*
X98067926Y-84599199D01*
X98067927Y-84599200D01*
X98144819Y-84684597D01*
X98175536Y-84748604D01*
X98177183Y-84768907D01*
X98177183Y-87101947D01*
X98166821Y-87151984D01*
X98160819Y-87165855D01*
X98159580Y-87173678D01*
X98159577Y-87173688D01*
X98153901Y-87209524D01*
X98151495Y-87221144D01*
X98140500Y-87263970D01*
X98140500Y-87284224D01*
X98138949Y-87303934D01*
X98135780Y-87323943D01*
X98136526Y-87331835D01*
X98139941Y-87367961D01*
X98140500Y-87379819D01*
X98140500Y-90730055D01*
X98120498Y-90798176D01*
X98066842Y-90844669D01*
X97992404Y-90854102D01*
X97836327Y-90826301D01*
X97826073Y-90825331D01*
X97613116Y-90822728D01*
X97602832Y-90823448D01*
X97392321Y-90855661D01*
X97382293Y-90858050D01*
X97179868Y-90924212D01*
X97170359Y-90928209D01*
X96981466Y-91026540D01*
X96972734Y-91032039D01*
X96952677Y-91047099D01*
X96944223Y-91058427D01*
X96950968Y-91070758D01*
X97973115Y-92092905D01*
X98007141Y-92155217D01*
X98002076Y-92226032D01*
X97973115Y-92271095D01*
X96949737Y-93294473D01*
X96942977Y-93306853D01*
X96948258Y-93313907D01*
X97109756Y-93408279D01*
X97119042Y-93412729D01*
X97318001Y-93488703D01*
X97327899Y-93491579D01*
X97536595Y-93534038D01*
X97546823Y-93535257D01*
X97759650Y-93543062D01*
X97769936Y-93542595D01*
X97981185Y-93515534D01*
X97991266Y-93513391D01*
X98078293Y-93487282D01*
X98149288Y-93486866D01*
X98209239Y-93524898D01*
X98239110Y-93589305D01*
X98240500Y-93607968D01*
X98240500Y-95252814D01*
X98220498Y-95320935D01*
X98166842Y-95367428D01*
X98096568Y-95377532D01*
X98072443Y-95371587D01*
X98051212Y-95364069D01*
X98046123Y-95363162D01*
X98046121Y-95363162D01*
X97836373Y-95325800D01*
X97836367Y-95325799D01*
X97831284Y-95324894D01*
X97757452Y-95323992D01*
X97613081Y-95322228D01*
X97613079Y-95322228D01*
X97607911Y-95322165D01*
X97387091Y-95355955D01*
X97174756Y-95425357D01*
X96976607Y-95528507D01*
X96972474Y-95531610D01*
X96972471Y-95531612D01*
X96802100Y-95659530D01*
X96797965Y-95662635D01*
X96643629Y-95824138D01*
X96517743Y-96008680D01*
X96499934Y-96047046D01*
X96429115Y-96199614D01*
X96423688Y-96211305D01*
X96363989Y-96426570D01*
X96340251Y-96648695D01*
X96340548Y-96653848D01*
X96340548Y-96653851D01*
X96352035Y-96853069D01*
X96353110Y-96871715D01*
X96354247Y-96876761D01*
X96354248Y-96876767D01*
X96373189Y-96960813D01*
X96402222Y-97089639D01*
X96436498Y-97174051D01*
X96482404Y-97287104D01*
X96486266Y-97296616D01*
X96488965Y-97301020D01*
X96593174Y-97471074D01*
X96602987Y-97487088D01*
X96749250Y-97655938D01*
X96921126Y-97798632D01*
X97114000Y-97911338D01*
X97118825Y-97913180D01*
X97118826Y-97913181D01*
X97124451Y-97915329D01*
X97322692Y-97991030D01*
X97327760Y-97992061D01*
X97327763Y-97992062D01*
X97435017Y-98013883D01*
X97541597Y-98035567D01*
X97546772Y-98035757D01*
X97546774Y-98035757D01*
X97759673Y-98043564D01*
X97759677Y-98043564D01*
X97764837Y-98043753D01*
X97769957Y-98043097D01*
X97769959Y-98043097D01*
X97981288Y-98016025D01*
X97981289Y-98016025D01*
X97986416Y-98015368D01*
X97991366Y-98013883D01*
X98195429Y-97952661D01*
X98195434Y-97952659D01*
X98200384Y-97951174D01*
X98400994Y-97852896D01*
X98401993Y-97852183D01*
X98469639Y-97834772D01*
X98537047Y-97857057D01*
X98581706Y-97912249D01*
X98591007Y-97950814D01*
X98609391Y-98184403D01*
X98610545Y-98189210D01*
X98610546Y-98189216D01*
X98636903Y-98299000D01*
X98668495Y-98430591D01*
X98670388Y-98435162D01*
X98670389Y-98435164D01*
X98744762Y-98614715D01*
X98765384Y-98664502D01*
X98897672Y-98880376D01*
X99062102Y-99072898D01*
X99254624Y-99237328D01*
X99288467Y-99258067D01*
X99336098Y-99310715D01*
X99347705Y-99380756D01*
X99319602Y-99445954D01*
X99260712Y-99485608D01*
X99222632Y-99491500D01*
X95634500Y-99491500D01*
X95566379Y-99471498D01*
X95519886Y-99417842D01*
X95508500Y-99365500D01*
X95508500Y-92153863D01*
X96341050Y-92153863D01*
X96353309Y-92366477D01*
X96354745Y-92376697D01*
X96401565Y-92584446D01*
X96404645Y-92594275D01*
X96484770Y-92791603D01*
X96489413Y-92800794D01*
X96569460Y-92931420D01*
X96579916Y-92940880D01*
X96588694Y-92937096D01*
X97330978Y-92194812D01*
X97338592Y-92180868D01*
X97338461Y-92179035D01*
X97334210Y-92172420D01*
X96592849Y-91431059D01*
X96581313Y-91424759D01*
X96569031Y-91434382D01*
X96521089Y-91504662D01*
X96516004Y-91513613D01*
X96426338Y-91706783D01*
X96422775Y-91716470D01*
X96365864Y-91921681D01*
X96363933Y-91931800D01*
X96341302Y-92143574D01*
X96341050Y-92153863D01*
X95508500Y-92153863D01*
X95508500Y-57771695D01*
X96340251Y-57771695D01*
X96340548Y-57776848D01*
X96340548Y-57776851D01*
X96348715Y-57918490D01*
X96353110Y-57994715D01*
X96354247Y-57999761D01*
X96354248Y-57999767D01*
X96367119Y-58056879D01*
X96402222Y-58212639D01*
X96486266Y-58419616D01*
X96488965Y-58424020D01*
X96590091Y-58589043D01*
X96602987Y-58610088D01*
X96749250Y-58778938D01*
X96921126Y-58921632D01*
X97114000Y-59034338D01*
X97322692Y-59114030D01*
X97327760Y-59115061D01*
X97327763Y-59115062D01*
X97435017Y-59136883D01*
X97541597Y-59158567D01*
X97546772Y-59158757D01*
X97546774Y-59158757D01*
X97759673Y-59166564D01*
X97759677Y-59166564D01*
X97764837Y-59166753D01*
X97769957Y-59166097D01*
X97769959Y-59166097D01*
X97981288Y-59139025D01*
X97981289Y-59139025D01*
X97986416Y-59138368D01*
X97991366Y-59136883D01*
X98195429Y-59075661D01*
X98195434Y-59075659D01*
X98200384Y-59074174D01*
X98400994Y-58975896D01*
X98401993Y-58975183D01*
X98469639Y-58957772D01*
X98537047Y-58980057D01*
X98581706Y-59035249D01*
X98591007Y-59073814D01*
X98609391Y-59307403D01*
X98610545Y-59312210D01*
X98610546Y-59312216D01*
X98615636Y-59333416D01*
X98668495Y-59553591D01*
X98670388Y-59558162D01*
X98670389Y-59558164D01*
X98760331Y-59775302D01*
X98765384Y-59787502D01*
X98897672Y-60003376D01*
X99062102Y-60195898D01*
X99254624Y-60360328D01*
X99470498Y-60492616D01*
X99475068Y-60494509D01*
X99475072Y-60494511D01*
X99631801Y-60559430D01*
X99704409Y-60589505D01*
X99789032Y-60609821D01*
X99945784Y-60647454D01*
X99945790Y-60647455D01*
X99950597Y-60648609D01*
X100203000Y-60668474D01*
X100455403Y-60648609D01*
X100460210Y-60647455D01*
X100460216Y-60647454D01*
X100616968Y-60609821D01*
X100701591Y-60589505D01*
X100774199Y-60559430D01*
X100930928Y-60494511D01*
X100930932Y-60494509D01*
X100935502Y-60492616D01*
X101151376Y-60360328D01*
X101343898Y-60195898D01*
X101508328Y-60003376D01*
X101640616Y-59787502D01*
X101645670Y-59775302D01*
X101735611Y-59558164D01*
X101735612Y-59558162D01*
X101737505Y-59553591D01*
X101790364Y-59333416D01*
X101795454Y-59312216D01*
X101795455Y-59312210D01*
X101796609Y-59307403D01*
X101816474Y-59055000D01*
X101796609Y-58802597D01*
X101776961Y-58720754D01*
X101738660Y-58561221D01*
X101737505Y-58556409D01*
X101715234Y-58502642D01*
X101642511Y-58327072D01*
X101642509Y-58327068D01*
X101640616Y-58322498D01*
X101508328Y-58106624D01*
X101343898Y-57914102D01*
X101151376Y-57749672D01*
X100935502Y-57617384D01*
X100930932Y-57615491D01*
X100930928Y-57615489D01*
X100706164Y-57522389D01*
X100706162Y-57522388D01*
X100701591Y-57520495D01*
X100616968Y-57500179D01*
X100460216Y-57462546D01*
X100460210Y-57462545D01*
X100455403Y-57461391D01*
X100203000Y-57441526D01*
X99950597Y-57461391D01*
X99945790Y-57462545D01*
X99945784Y-57462546D01*
X99789032Y-57500179D01*
X99704409Y-57520495D01*
X99699838Y-57522388D01*
X99699836Y-57522389D01*
X99475072Y-57615489D01*
X99475068Y-57615491D01*
X99470498Y-57617384D01*
X99254624Y-57749672D01*
X99253050Y-57751016D01*
X99186938Y-57774608D01*
X99117786Y-57758530D01*
X99068304Y-57707618D01*
X99054164Y-57659138D01*
X99050731Y-57617384D01*
X99047852Y-57582361D01*
X98993431Y-57365702D01*
X98904354Y-57160840D01*
X98783014Y-56973277D01*
X98632670Y-56808051D01*
X98628619Y-56804852D01*
X98628615Y-56804848D01*
X98461414Y-56672800D01*
X98461410Y-56672798D01*
X98457359Y-56669598D01*
X98261789Y-56561638D01*
X98256920Y-56559914D01*
X98256916Y-56559912D01*
X98056087Y-56488795D01*
X98056083Y-56488794D01*
X98051212Y-56487069D01*
X98046119Y-56486162D01*
X98046116Y-56486161D01*
X97836373Y-56448800D01*
X97836367Y-56448799D01*
X97831284Y-56447894D01*
X97757452Y-56446992D01*
X97613081Y-56445228D01*
X97613079Y-56445228D01*
X97607911Y-56445165D01*
X97387091Y-56478955D01*
X97174756Y-56548357D01*
X97144443Y-56564137D01*
X96982572Y-56648402D01*
X96976607Y-56651507D01*
X96972474Y-56654610D01*
X96972471Y-56654612D01*
X96802100Y-56782530D01*
X96797965Y-56785635D01*
X96643629Y-56947138D01*
X96517743Y-57131680D01*
X96502003Y-57165590D01*
X96438955Y-57301416D01*
X96423688Y-57334305D01*
X96363989Y-57549570D01*
X96340251Y-57771695D01*
X95508500Y-57771695D01*
X95508500Y-54429853D01*
X96942977Y-54429853D01*
X96948258Y-54436907D01*
X97109756Y-54531279D01*
X97119042Y-54535729D01*
X97318001Y-54611703D01*
X97327899Y-54614579D01*
X97536595Y-54657038D01*
X97546823Y-54658257D01*
X97759650Y-54666062D01*
X97769936Y-54665595D01*
X97981185Y-54638534D01*
X97991262Y-54636392D01*
X98195255Y-54575191D01*
X98204842Y-54571433D01*
X98396098Y-54477738D01*
X98404944Y-54472465D01*
X98452247Y-54438723D01*
X98460648Y-54428023D01*
X98453660Y-54414870D01*
X97715812Y-53677022D01*
X97701868Y-53669408D01*
X97700035Y-53669539D01*
X97693420Y-53673790D01*
X96949737Y-54417473D01*
X96942977Y-54429853D01*
X95508500Y-54429853D01*
X95508500Y-53276863D01*
X96341050Y-53276863D01*
X96353309Y-53489477D01*
X96354745Y-53499697D01*
X96401565Y-53707446D01*
X96404645Y-53717275D01*
X96484770Y-53914603D01*
X96489413Y-53923794D01*
X96569460Y-54054420D01*
X96579916Y-54063880D01*
X96588694Y-54060096D01*
X97330978Y-53317812D01*
X97338592Y-53303868D01*
X97338461Y-53302035D01*
X97334210Y-53295420D01*
X96592849Y-52554059D01*
X96581313Y-52547759D01*
X96569031Y-52557382D01*
X96521089Y-52627662D01*
X96516004Y-52636613D01*
X96426338Y-52829783D01*
X96422775Y-52839470D01*
X96365864Y-53044681D01*
X96363933Y-53054800D01*
X96341302Y-53266574D01*
X96341050Y-53276863D01*
X95508500Y-53276863D01*
X95508500Y-50634500D01*
X95528502Y-50566379D01*
X95582158Y-50519886D01*
X95634500Y-50508500D01*
X99201418Y-50508500D01*
X99269539Y-50528502D01*
G37*
G04 #@! TD.AperFunction*
G04 #@! TA.AperFunction,Conductor*
G36*
X123522330Y-91905502D02*
G01*
X123543304Y-91922405D01*
X124301646Y-92680747D01*
X124309190Y-92689037D01*
X124313303Y-92695518D01*
X124319080Y-92700943D01*
X124362970Y-92742158D01*
X124365812Y-92744913D01*
X124385533Y-92764634D01*
X124388728Y-92767112D01*
X124397750Y-92774818D01*
X124429982Y-92805086D01*
X124436931Y-92808906D01*
X124447735Y-92814846D01*
X124464259Y-92825699D01*
X124480262Y-92838113D01*
X124520846Y-92855676D01*
X124531476Y-92860883D01*
X124570243Y-92882195D01*
X124577920Y-92884166D01*
X124577925Y-92884168D01*
X124589861Y-92887232D01*
X124608569Y-92893637D01*
X124627158Y-92901681D01*
X124634983Y-92902920D01*
X124634985Y-92902921D01*
X124670822Y-92908597D01*
X124682443Y-92911004D01*
X124717592Y-92920028D01*
X124725273Y-92922000D01*
X124745534Y-92922000D01*
X124765243Y-92923551D01*
X124785246Y-92926719D01*
X124793138Y-92925973D01*
X124798365Y-92925479D01*
X124829257Y-92922559D01*
X124841114Y-92922000D01*
X126771906Y-92922000D01*
X126840027Y-92942002D01*
X126861001Y-92958905D01*
X128742595Y-94840500D01*
X128776621Y-94902812D01*
X128779500Y-94929595D01*
X128779500Y-96686500D01*
X128759498Y-96754621D01*
X128705842Y-96801114D01*
X128653500Y-96812500D01*
X128514866Y-96812500D01*
X128452684Y-96819255D01*
X128316295Y-96870385D01*
X128199739Y-96957739D01*
X128112385Y-97074295D01*
X128061255Y-97210684D01*
X128054500Y-97272866D01*
X128054500Y-99069134D01*
X128061255Y-99131316D01*
X128112385Y-99267705D01*
X128124779Y-99284243D01*
X128129046Y-99289936D01*
X128153893Y-99356443D01*
X128138839Y-99425825D01*
X128088664Y-99476055D01*
X128028219Y-99491500D01*
X126621020Y-99491500D01*
X126552899Y-99471498D01*
X126506406Y-99417842D01*
X126496302Y-99347568D01*
X126525796Y-99282988D01*
X126547852Y-99262921D01*
X126615328Y-99214792D01*
X126623200Y-99208139D01*
X126774052Y-99057812D01*
X126780730Y-99049965D01*
X126905003Y-98877020D01*
X126910313Y-98868183D01*
X127004670Y-98677267D01*
X127008469Y-98667672D01*
X127070377Y-98463910D01*
X127072555Y-98453837D01*
X127073986Y-98442962D01*
X127071775Y-98428778D01*
X127058617Y-98425000D01*
X125612000Y-98425000D01*
X125543879Y-98404998D01*
X125497386Y-98351342D01*
X125486000Y-98299000D01*
X125486000Y-97898885D01*
X125994000Y-97898885D01*
X125998475Y-97914124D01*
X125999865Y-97915329D01*
X126007548Y-97917000D01*
X127058344Y-97917000D01*
X127071875Y-97913027D01*
X127073180Y-97903947D01*
X127031214Y-97736875D01*
X127027894Y-97727124D01*
X126942972Y-97531814D01*
X126938105Y-97522739D01*
X126822426Y-97343926D01*
X126816136Y-97335757D01*
X126672806Y-97178240D01*
X126665273Y-97171215D01*
X126498139Y-97039222D01*
X126489552Y-97033517D01*
X126303117Y-96930599D01*
X126293705Y-96926369D01*
X126092959Y-96855280D01*
X126082988Y-96852646D01*
X126011837Y-96839972D01*
X125998540Y-96841432D01*
X125994000Y-96855989D01*
X125994000Y-97898885D01*
X125486000Y-97898885D01*
X125486000Y-96854102D01*
X125482082Y-96840758D01*
X125467806Y-96838771D01*
X125429324Y-96844660D01*
X125419288Y-96847051D01*
X125216868Y-96913212D01*
X125207359Y-96917209D01*
X125018463Y-97015542D01*
X125009738Y-97021036D01*
X124839433Y-97148905D01*
X124831726Y-97155748D01*
X124684590Y-97309717D01*
X124678109Y-97317722D01*
X124573498Y-97471074D01*
X124518587Y-97516076D01*
X124448062Y-97524247D01*
X124384315Y-97492993D01*
X124363618Y-97468509D01*
X124282822Y-97343617D01*
X124282820Y-97343614D01*
X124280014Y-97339277D01*
X124129670Y-97174051D01*
X124125619Y-97170852D01*
X124125615Y-97170848D01*
X123958414Y-97038800D01*
X123958410Y-97038798D01*
X123954359Y-97035598D01*
X123949831Y-97033098D01*
X123886842Y-96998327D01*
X123758789Y-96927638D01*
X123753920Y-96925914D01*
X123753916Y-96925912D01*
X123553087Y-96854795D01*
X123553083Y-96854794D01*
X123548212Y-96853069D01*
X123543119Y-96852162D01*
X123543116Y-96852161D01*
X123333373Y-96814800D01*
X123333367Y-96814799D01*
X123328284Y-96813894D01*
X123254452Y-96812992D01*
X123110081Y-96811228D01*
X123110079Y-96811228D01*
X123104911Y-96811165D01*
X122884091Y-96844955D01*
X122671756Y-96914357D01*
X122598757Y-96952358D01*
X122497975Y-97004822D01*
X122473607Y-97017507D01*
X122469474Y-97020610D01*
X122469471Y-97020612D01*
X122368912Y-97096114D01*
X122294965Y-97151635D01*
X122255203Y-97193243D01*
X122180413Y-97271507D01*
X122140629Y-97313138D01*
X122033201Y-97470621D01*
X121978293Y-97515621D01*
X121907768Y-97523792D01*
X121844021Y-97492538D01*
X121823324Y-97468054D01*
X121742822Y-97343617D01*
X121742820Y-97343614D01*
X121740014Y-97339277D01*
X121589670Y-97174051D01*
X121585619Y-97170852D01*
X121585615Y-97170848D01*
X121418414Y-97038800D01*
X121418410Y-97038798D01*
X121414359Y-97035598D01*
X121409835Y-97033101D01*
X121409831Y-97033098D01*
X121358608Y-97004822D01*
X121308636Y-96954390D01*
X121293500Y-96894513D01*
X121293500Y-94322767D01*
X121294027Y-94311584D01*
X121295702Y-94304091D01*
X121294460Y-94264565D01*
X121293562Y-94236014D01*
X121293500Y-94232055D01*
X121293500Y-94204144D01*
X121292995Y-94200144D01*
X121292062Y-94188301D01*
X121291937Y-94184306D01*
X121290673Y-94144110D01*
X121285022Y-94124658D01*
X121281014Y-94105306D01*
X121279467Y-94093063D01*
X121278474Y-94085203D01*
X121275556Y-94077832D01*
X121262200Y-94044097D01*
X121258355Y-94032870D01*
X121257721Y-94030687D01*
X121246018Y-93990407D01*
X121235707Y-93972972D01*
X121227012Y-93955224D01*
X121219552Y-93936383D01*
X121193564Y-93900613D01*
X121187048Y-93890693D01*
X121168580Y-93859465D01*
X121168578Y-93859462D01*
X121164542Y-93852638D01*
X121150221Y-93838317D01*
X121137380Y-93823283D01*
X121125472Y-93806893D01*
X121091395Y-93778702D01*
X121082616Y-93770712D01*
X119451109Y-92139205D01*
X119417083Y-92076893D01*
X119422148Y-92006078D01*
X119451105Y-91961018D01*
X119464908Y-91947215D01*
X119479932Y-91934383D01*
X119496326Y-91922472D01*
X119499224Y-91918968D01*
X119561236Y-91887598D01*
X119584133Y-91885500D01*
X123454209Y-91885500D01*
X123522330Y-91905502D01*
G37*
G04 #@! TD.AperFunction*
G04 #@! TA.AperFunction,Conductor*
G36*
X139301527Y-89909502D02*
G01*
X139322501Y-89926405D01*
X141442595Y-92046500D01*
X141476621Y-92108812D01*
X141479500Y-92135595D01*
X141479500Y-96892692D01*
X141459498Y-96960813D01*
X141411683Y-97004453D01*
X141386607Y-97017507D01*
X141382474Y-97020610D01*
X141382471Y-97020612D01*
X141281912Y-97096114D01*
X141207965Y-97151635D01*
X141168203Y-97193243D01*
X141093413Y-97271507D01*
X141053629Y-97313138D01*
X140946201Y-97470621D01*
X140891293Y-97515621D01*
X140820768Y-97523792D01*
X140757021Y-97492538D01*
X140736324Y-97468054D01*
X140655822Y-97343617D01*
X140655820Y-97343614D01*
X140653014Y-97339277D01*
X140502670Y-97174051D01*
X140498619Y-97170852D01*
X140498615Y-97170848D01*
X140331414Y-97038800D01*
X140331410Y-97038798D01*
X140327359Y-97035598D01*
X140322835Y-97033101D01*
X140322831Y-97033098D01*
X140271608Y-97004822D01*
X140221636Y-96954390D01*
X140206500Y-96894513D01*
X140206500Y-91899768D01*
X140207027Y-91888585D01*
X140208702Y-91881092D01*
X140208381Y-91870862D01*
X140206562Y-91813002D01*
X140206500Y-91809044D01*
X140206500Y-91781144D01*
X140205996Y-91777153D01*
X140205063Y-91765311D01*
X140204727Y-91754594D01*
X140203674Y-91721111D01*
X140201461Y-91713493D01*
X140198021Y-91701652D01*
X140194012Y-91682293D01*
X140193846Y-91680983D01*
X140191474Y-91662203D01*
X140188558Y-91654837D01*
X140188556Y-91654831D01*
X140175200Y-91621098D01*
X140171355Y-91609868D01*
X140161230Y-91575017D01*
X140161230Y-91575016D01*
X140159019Y-91567407D01*
X140153927Y-91558797D01*
X140148705Y-91549966D01*
X140140008Y-91532213D01*
X140135472Y-91520758D01*
X140132552Y-91513383D01*
X140106563Y-91477612D01*
X140100047Y-91467692D01*
X140077542Y-91429638D01*
X140063221Y-91415317D01*
X140050380Y-91400283D01*
X140043131Y-91390306D01*
X140038472Y-91383893D01*
X140004395Y-91355702D01*
X139995616Y-91347712D01*
X138752500Y-90104595D01*
X138718474Y-90042283D01*
X138723539Y-89971467D01*
X138766086Y-89914632D01*
X138832606Y-89889821D01*
X138841595Y-89889500D01*
X139233406Y-89889500D01*
X139301527Y-89909502D01*
G37*
G04 #@! TD.AperFunction*
G04 #@! TA.AperFunction,Conductor*
G36*
X137211527Y-90359502D02*
G01*
X137232501Y-90376405D01*
X138902595Y-92046499D01*
X138936621Y-92108811D01*
X138939500Y-92135594D01*
X138939500Y-96892692D01*
X138919498Y-96960813D01*
X138871683Y-97004453D01*
X138846607Y-97017507D01*
X138842474Y-97020610D01*
X138842471Y-97020612D01*
X138741912Y-97096114D01*
X138667965Y-97151635D01*
X138628203Y-97193243D01*
X138553413Y-97271507D01*
X138513629Y-97313138D01*
X138406201Y-97470621D01*
X138351293Y-97515621D01*
X138280768Y-97523792D01*
X138217021Y-97492538D01*
X138196324Y-97468054D01*
X138115822Y-97343617D01*
X138115820Y-97343614D01*
X138113014Y-97339277D01*
X137962670Y-97174051D01*
X137958619Y-97170852D01*
X137958615Y-97170848D01*
X137791414Y-97038800D01*
X137791410Y-97038798D01*
X137787359Y-97035598D01*
X137782835Y-97033101D01*
X137782831Y-97033098D01*
X137731608Y-97004822D01*
X137681636Y-96954390D01*
X137666500Y-96894513D01*
X137666500Y-92915763D01*
X137667027Y-92904579D01*
X137668701Y-92897091D01*
X137666562Y-92829032D01*
X137666500Y-92825075D01*
X137666500Y-92797144D01*
X137665994Y-92793138D01*
X137665061Y-92781292D01*
X137664616Y-92767107D01*
X137663673Y-92737110D01*
X137658022Y-92717658D01*
X137654014Y-92698306D01*
X137652468Y-92686068D01*
X137652467Y-92686066D01*
X137651474Y-92678203D01*
X137635194Y-92637086D01*
X137631359Y-92625885D01*
X137619018Y-92583406D01*
X137614985Y-92576587D01*
X137614983Y-92576582D01*
X137608707Y-92565971D01*
X137600010Y-92548221D01*
X137592552Y-92529383D01*
X137585867Y-92520181D01*
X137566572Y-92493625D01*
X137560053Y-92483701D01*
X137541578Y-92452460D01*
X137541574Y-92452455D01*
X137537542Y-92445637D01*
X137523218Y-92431313D01*
X137510376Y-92416278D01*
X137498472Y-92399893D01*
X137464406Y-92371711D01*
X137455627Y-92363722D01*
X135812110Y-90720205D01*
X135778084Y-90657893D01*
X135783149Y-90587078D01*
X135812110Y-90542015D01*
X135977720Y-90376405D01*
X136040032Y-90342379D01*
X136066815Y-90339500D01*
X137143406Y-90339500D01*
X137211527Y-90359502D01*
G37*
G04 #@! TD.AperFunction*
G04 #@! TA.AperFunction,Conductor*
G36*
X134888027Y-91592002D02*
G01*
X134909001Y-91608905D01*
X136362595Y-93062499D01*
X136396621Y-93124811D01*
X136399500Y-93151594D01*
X136399500Y-96892692D01*
X136379498Y-96960813D01*
X136331683Y-97004453D01*
X136306607Y-97017507D01*
X136302474Y-97020610D01*
X136302471Y-97020612D01*
X136201912Y-97096114D01*
X136127965Y-97151635D01*
X136088203Y-97193243D01*
X136013413Y-97271507D01*
X135973629Y-97313138D01*
X135866201Y-97470621D01*
X135811293Y-97515621D01*
X135740768Y-97523792D01*
X135677021Y-97492538D01*
X135656324Y-97468054D01*
X135575822Y-97343617D01*
X135575820Y-97343614D01*
X135573014Y-97339277D01*
X135422670Y-97174051D01*
X135418619Y-97170852D01*
X135418615Y-97170848D01*
X135251414Y-97038800D01*
X135251410Y-97038798D01*
X135247359Y-97035598D01*
X135242835Y-97033101D01*
X135242831Y-97033098D01*
X135191608Y-97004822D01*
X135141636Y-96954390D01*
X135126500Y-96894513D01*
X135126500Y-93423767D01*
X135127027Y-93412584D01*
X135128702Y-93405091D01*
X135126562Y-93337000D01*
X135126500Y-93333043D01*
X135126500Y-93305144D01*
X135125996Y-93301153D01*
X135125063Y-93289311D01*
X135123923Y-93253036D01*
X135123674Y-93245111D01*
X135121462Y-93237497D01*
X135121461Y-93237492D01*
X135118023Y-93225659D01*
X135114012Y-93206295D01*
X135112467Y-93194064D01*
X135111474Y-93186203D01*
X135108557Y-93178836D01*
X135108556Y-93178831D01*
X135095198Y-93145092D01*
X135091354Y-93133865D01*
X135088723Y-93124811D01*
X135079018Y-93091407D01*
X135068707Y-93073972D01*
X135060012Y-93056224D01*
X135052552Y-93037383D01*
X135026564Y-93001613D01*
X135020048Y-92991693D01*
X135001580Y-92960465D01*
X135001578Y-92960462D01*
X134997542Y-92953638D01*
X134983221Y-92939317D01*
X134970380Y-92924283D01*
X134969848Y-92923551D01*
X134958472Y-92907893D01*
X134924395Y-92879702D01*
X134915616Y-92871712D01*
X133831000Y-91787095D01*
X133796974Y-91724783D01*
X133802039Y-91653967D01*
X133844586Y-91597132D01*
X133911106Y-91572321D01*
X133920095Y-91572000D01*
X134819906Y-91572000D01*
X134888027Y-91592002D01*
G37*
G04 #@! TD.AperFunction*
G04 #@! TA.AperFunction,Conductor*
G36*
X132290027Y-92042002D02*
G01*
X132311001Y-92058905D01*
X133822595Y-93570500D01*
X133856621Y-93632812D01*
X133859500Y-93659595D01*
X133859500Y-96892692D01*
X133839498Y-96960813D01*
X133791683Y-97004453D01*
X133766607Y-97017507D01*
X133762474Y-97020610D01*
X133762471Y-97020612D01*
X133661912Y-97096114D01*
X133587965Y-97151635D01*
X133548203Y-97193243D01*
X133473413Y-97271507D01*
X133433629Y-97313138D01*
X133326201Y-97470621D01*
X133271293Y-97515621D01*
X133200768Y-97523792D01*
X133137021Y-97492538D01*
X133116324Y-97468054D01*
X133035822Y-97343617D01*
X133035820Y-97343614D01*
X133033014Y-97339277D01*
X132882670Y-97174051D01*
X132878619Y-97170852D01*
X132878615Y-97170848D01*
X132711414Y-97038800D01*
X132711410Y-97038798D01*
X132707359Y-97035598D01*
X132702835Y-97033101D01*
X132702831Y-97033098D01*
X132651608Y-97004822D01*
X132601636Y-96954390D01*
X132586500Y-96894513D01*
X132586500Y-93931767D01*
X132587027Y-93920584D01*
X132588702Y-93913091D01*
X132587934Y-93888640D01*
X132586562Y-93845014D01*
X132586500Y-93841055D01*
X132586500Y-93813144D01*
X132585995Y-93809144D01*
X132585062Y-93797301D01*
X132584478Y-93778702D01*
X132583673Y-93753110D01*
X132578022Y-93733658D01*
X132574014Y-93714306D01*
X132572467Y-93702063D01*
X132571474Y-93694203D01*
X132568556Y-93686832D01*
X132555200Y-93653097D01*
X132551355Y-93641870D01*
X132547278Y-93627837D01*
X132539018Y-93599407D01*
X132534984Y-93592585D01*
X132534981Y-93592579D01*
X132528706Y-93581968D01*
X132520010Y-93564218D01*
X132515472Y-93552756D01*
X132515469Y-93552751D01*
X132512552Y-93545383D01*
X132486573Y-93509625D01*
X132480057Y-93499707D01*
X132461575Y-93468457D01*
X132457542Y-93461637D01*
X132443218Y-93447313D01*
X132430376Y-93432278D01*
X132418472Y-93415893D01*
X132384406Y-93387711D01*
X132375627Y-93379722D01*
X131233000Y-92237095D01*
X131198974Y-92174783D01*
X131204039Y-92103968D01*
X131246586Y-92047132D01*
X131313106Y-92022321D01*
X131322095Y-92022000D01*
X132221906Y-92022000D01*
X132290027Y-92042002D01*
G37*
G04 #@! TD.AperFunction*
G04 #@! TA.AperFunction,Conductor*
G36*
X142441027Y-89747002D02*
G01*
X142462001Y-89763905D01*
X143982595Y-91284500D01*
X144016621Y-91346812D01*
X144019500Y-91373595D01*
X144019500Y-96892692D01*
X143999498Y-96960813D01*
X143951683Y-97004453D01*
X143926607Y-97017507D01*
X143922474Y-97020610D01*
X143922471Y-97020612D01*
X143821912Y-97096114D01*
X143747965Y-97151635D01*
X143708203Y-97193243D01*
X143633413Y-97271507D01*
X143593629Y-97313138D01*
X143486201Y-97470621D01*
X143431293Y-97515621D01*
X143360768Y-97523792D01*
X143297021Y-97492538D01*
X143276324Y-97468054D01*
X143195822Y-97343617D01*
X143195820Y-97343614D01*
X143193014Y-97339277D01*
X143042670Y-97174051D01*
X143038619Y-97170852D01*
X143038615Y-97170848D01*
X142871414Y-97038800D01*
X142871410Y-97038798D01*
X142867359Y-97035598D01*
X142862835Y-97033101D01*
X142862831Y-97033098D01*
X142811608Y-97004822D01*
X142761636Y-96954390D01*
X142746500Y-96894513D01*
X142746500Y-91899767D01*
X142747027Y-91888584D01*
X142748702Y-91881091D01*
X142746562Y-91813000D01*
X142746500Y-91809043D01*
X142746500Y-91781144D01*
X142745996Y-91777153D01*
X142745063Y-91765311D01*
X142744727Y-91754594D01*
X142743674Y-91721111D01*
X142741461Y-91713493D01*
X142741461Y-91713492D01*
X142738023Y-91701659D01*
X142734012Y-91682295D01*
X142732467Y-91670064D01*
X142731474Y-91662203D01*
X142728557Y-91654836D01*
X142728556Y-91654831D01*
X142715198Y-91621092D01*
X142711354Y-91609865D01*
X142701230Y-91575022D01*
X142699018Y-91567407D01*
X142688707Y-91549972D01*
X142680012Y-91532224D01*
X142672552Y-91513383D01*
X142646563Y-91477612D01*
X142640048Y-91467693D01*
X142621580Y-91436465D01*
X142621578Y-91436462D01*
X142617542Y-91429638D01*
X142603221Y-91415317D01*
X142590380Y-91400283D01*
X142583131Y-91390306D01*
X142578472Y-91383893D01*
X142544395Y-91355702D01*
X142535616Y-91347712D01*
X141130000Y-89942095D01*
X141095974Y-89879783D01*
X141101039Y-89808967D01*
X141143586Y-89752132D01*
X141210106Y-89727321D01*
X141219095Y-89727000D01*
X142372906Y-89727000D01*
X142441027Y-89747002D01*
G37*
G04 #@! TD.AperFunction*
G04 #@! TA.AperFunction,Conductor*
G36*
X129692027Y-92492002D02*
G01*
X129713001Y-92508905D01*
X131282595Y-94078499D01*
X131316621Y-94140811D01*
X131319500Y-94167594D01*
X131319500Y-96892692D01*
X131299498Y-96960813D01*
X131251683Y-97004453D01*
X131226607Y-97017507D01*
X131222474Y-97020610D01*
X131222471Y-97020612D01*
X131121912Y-97096114D01*
X131047965Y-97151635D01*
X130986109Y-97216364D01*
X130967283Y-97236064D01*
X130905759Y-97271494D01*
X130834846Y-97268037D01*
X130777060Y-97226791D01*
X130758207Y-97193243D01*
X130716767Y-97082703D01*
X130713615Y-97074295D01*
X130626261Y-96957739D01*
X130509705Y-96870385D01*
X130373316Y-96819255D01*
X130311134Y-96812500D01*
X130172500Y-96812500D01*
X130104379Y-96792498D01*
X130057886Y-96738842D01*
X130046500Y-96686500D01*
X130046500Y-94693767D01*
X130047027Y-94682584D01*
X130048702Y-94675091D01*
X130046562Y-94607000D01*
X130046500Y-94603043D01*
X130046500Y-94575144D01*
X130045996Y-94571153D01*
X130045063Y-94559311D01*
X130045041Y-94558595D01*
X130043674Y-94515111D01*
X130041462Y-94507497D01*
X130041461Y-94507492D01*
X130038023Y-94495659D01*
X130034012Y-94476295D01*
X130032467Y-94464064D01*
X130031474Y-94456203D01*
X130028557Y-94448836D01*
X130028556Y-94448831D01*
X130015198Y-94415092D01*
X130011354Y-94403865D01*
X130009232Y-94396561D01*
X129999018Y-94361407D01*
X129988707Y-94343972D01*
X129980012Y-94326224D01*
X129972552Y-94307383D01*
X129967849Y-94300909D01*
X129946564Y-94271613D01*
X129940048Y-94261693D01*
X129921580Y-94230465D01*
X129921578Y-94230462D01*
X129917542Y-94223638D01*
X129903221Y-94209317D01*
X129890380Y-94194283D01*
X129883131Y-94184306D01*
X129878472Y-94177893D01*
X129844395Y-94149702D01*
X129835616Y-94141712D01*
X128381000Y-92687095D01*
X128346974Y-92624783D01*
X128352039Y-92553967D01*
X128394586Y-92497132D01*
X128461106Y-92472321D01*
X128470095Y-92472000D01*
X129623906Y-92472000D01*
X129692027Y-92492002D01*
G37*
G04 #@! TD.AperFunction*
G04 #@! TA.AperFunction,Conductor*
G36*
X99652695Y-86121853D02*
G01*
X99659278Y-86127982D01*
X100957595Y-87426300D01*
X100991621Y-87488612D01*
X100994500Y-87515395D01*
X100994500Y-89330249D01*
X100974498Y-89398370D01*
X100920842Y-89444863D01*
X100850568Y-89454967D01*
X100820282Y-89446658D01*
X100706164Y-89399389D01*
X100706162Y-89399388D01*
X100701591Y-89397495D01*
X100558183Y-89363066D01*
X100460216Y-89339546D01*
X100460210Y-89339545D01*
X100455403Y-89338391D01*
X100203000Y-89318526D01*
X99950597Y-89338391D01*
X99945790Y-89339545D01*
X99945784Y-89339546D01*
X99847817Y-89363066D01*
X99704409Y-89397495D01*
X99699838Y-89399388D01*
X99699836Y-89399389D01*
X99581718Y-89448315D01*
X99511128Y-89455904D01*
X99447641Y-89424125D01*
X99411414Y-89363066D01*
X99407500Y-89331906D01*
X99407500Y-87549370D01*
X99417862Y-87499331D01*
X99420717Y-87492734D01*
X99423864Y-87485462D01*
X99425103Y-87477639D01*
X99425106Y-87477629D01*
X99430782Y-87441793D01*
X99433188Y-87430173D01*
X99442211Y-87395028D01*
X99442211Y-87395027D01*
X99444183Y-87387347D01*
X99444183Y-87367093D01*
X99445734Y-87347382D01*
X99447663Y-87335203D01*
X99448903Y-87327374D01*
X99444742Y-87283355D01*
X99444183Y-87271498D01*
X99444183Y-86217077D01*
X99464185Y-86148956D01*
X99517841Y-86102463D01*
X99588115Y-86092359D01*
X99652695Y-86121853D01*
G37*
G04 #@! TD.AperFunction*
G04 #@! TA.AperFunction,Conductor*
G36*
X152412526Y-87648502D02*
G01*
X152459019Y-87702158D01*
X152469123Y-87772432D01*
X152439629Y-87837012D01*
X152433500Y-87843595D01*
X151507500Y-88769595D01*
X151445188Y-88803621D01*
X151418405Y-88806500D01*
X149761340Y-88806500D01*
X149693219Y-88786498D01*
X149646726Y-88732842D01*
X149636622Y-88662568D01*
X149640782Y-88643871D01*
X149666865Y-88558022D01*
X149668370Y-88553069D01*
X149697529Y-88331590D01*
X149697611Y-88328240D01*
X149699074Y-88268365D01*
X149699074Y-88268361D01*
X149699156Y-88265000D01*
X149680852Y-88042361D01*
X149626431Y-87825702D01*
X149617318Y-87804743D01*
X149608497Y-87734297D01*
X149639163Y-87670265D01*
X149699579Y-87632977D01*
X149732867Y-87628500D01*
X152344405Y-87628500D01*
X152412526Y-87648502D01*
G37*
G04 #@! TD.AperFunction*
G04 #@! TA.AperFunction,Conductor*
G36*
X146386750Y-84852502D02*
G01*
X146407724Y-84869405D01*
X146940595Y-85402276D01*
X146974621Y-85464588D01*
X146977500Y-85491371D01*
X146977500Y-86084000D01*
X146957498Y-86152121D01*
X146903842Y-86198614D01*
X146851500Y-86210000D01*
X142525678Y-86210000D01*
X142457557Y-86189998D01*
X142411064Y-86136342D01*
X142400368Y-86097170D01*
X142399863Y-86092359D01*
X142381377Y-85916481D01*
X142321713Y-85732855D01*
X142225175Y-85565646D01*
X142197889Y-85535341D01*
X142100404Y-85427073D01*
X142100403Y-85427072D01*
X142095982Y-85422162D01*
X141956290Y-85320669D01*
X141945122Y-85312555D01*
X141945121Y-85312554D01*
X141939780Y-85308674D01*
X141933751Y-85305990D01*
X141933748Y-85305988D01*
X141769431Y-85232830D01*
X141769428Y-85232829D01*
X141763395Y-85230143D01*
X141721462Y-85221230D01*
X141580995Y-85191372D01*
X141580990Y-85191372D01*
X141574538Y-85190000D01*
X141381462Y-85190000D01*
X141375010Y-85191372D01*
X141375005Y-85191372D01*
X141219308Y-85224467D01*
X141192605Y-85230143D01*
X141186575Y-85232828D01*
X141186574Y-85232828D01*
X141022251Y-85305989D01*
X141022249Y-85305990D01*
X141016221Y-85308674D01*
X141010880Y-85312554D01*
X141010879Y-85312555D01*
X140887389Y-85402276D01*
X140860018Y-85422162D01*
X140855597Y-85427072D01*
X140852229Y-85430812D01*
X140791782Y-85468051D01*
X140758594Y-85472500D01*
X133676266Y-85472500D01*
X133665082Y-85471973D01*
X133657594Y-85470299D01*
X133649671Y-85470548D01*
X133589536Y-85472438D01*
X133585578Y-85472500D01*
X133557647Y-85472500D01*
X133553732Y-85472995D01*
X133553728Y-85472995D01*
X133553670Y-85473003D01*
X133553641Y-85473006D01*
X133541799Y-85473939D01*
X133497613Y-85475327D01*
X133480247Y-85480372D01*
X133478161Y-85480978D01*
X133458809Y-85484986D01*
X133451738Y-85485880D01*
X133438706Y-85487526D01*
X133431337Y-85490443D01*
X133431335Y-85490444D01*
X133397600Y-85503800D01*
X133386372Y-85507645D01*
X133343910Y-85519982D01*
X133337088Y-85524016D01*
X133337082Y-85524019D01*
X133326471Y-85530294D01*
X133308721Y-85538990D01*
X133297259Y-85543528D01*
X133297254Y-85543531D01*
X133289886Y-85546448D01*
X133283471Y-85551109D01*
X133254128Y-85572427D01*
X133244210Y-85578943D01*
X133225522Y-85589995D01*
X133206140Y-85601458D01*
X133191816Y-85615782D01*
X133176784Y-85628621D01*
X133160396Y-85640528D01*
X133155343Y-85646636D01*
X133150322Y-85651351D01*
X133086972Y-85683401D01*
X133064070Y-85685500D01*
X133002965Y-85685500D01*
X132996513Y-85686872D01*
X132996508Y-85686872D01*
X132908537Y-85705571D01*
X132814108Y-85725643D01*
X132808078Y-85728328D01*
X132808077Y-85728328D01*
X132643754Y-85801489D01*
X132643752Y-85801490D01*
X132637724Y-85804174D01*
X132632383Y-85808054D01*
X132632382Y-85808055D01*
X132491789Y-85910202D01*
X132481521Y-85917662D01*
X132352328Y-86061146D01*
X132334307Y-86092359D01*
X132320081Y-86117000D01*
X132268699Y-86165993D01*
X132210962Y-86180000D01*
X127281650Y-86180000D01*
X127213529Y-86159998D01*
X127192554Y-86143095D01*
X126451202Y-85401742D01*
X126443668Y-85393463D01*
X126439555Y-85386982D01*
X126389903Y-85340356D01*
X126387062Y-85337602D01*
X126367325Y-85317865D01*
X126364128Y-85315385D01*
X126355105Y-85307679D01*
X126351559Y-85304349D01*
X126315594Y-85243136D01*
X126318433Y-85172196D01*
X126359174Y-85114052D01*
X126424883Y-85087165D01*
X126437813Y-85086500D01*
X134806930Y-85086500D01*
X134825880Y-85087933D01*
X134840115Y-85090099D01*
X134840119Y-85090099D01*
X134847349Y-85091199D01*
X134854641Y-85090606D01*
X134854644Y-85090606D01*
X134900018Y-85086915D01*
X134910233Y-85086500D01*
X134918293Y-85086500D01*
X134931583Y-85084951D01*
X134946507Y-85083211D01*
X134950882Y-85082778D01*
X135016339Y-85077454D01*
X135016342Y-85077453D01*
X135023637Y-85076860D01*
X135030601Y-85074604D01*
X135036560Y-85073413D01*
X135042415Y-85072029D01*
X135049681Y-85071182D01*
X135118327Y-85046265D01*
X135122455Y-85044848D01*
X135184936Y-85024607D01*
X135184938Y-85024606D01*
X135191899Y-85022351D01*
X135198154Y-85018555D01*
X135203628Y-85016049D01*
X135209057Y-85013330D01*
X135215937Y-85010833D01*
X135222061Y-85006818D01*
X135233422Y-84999370D01*
X135276308Y-84981496D01*
X135346857Y-84966500D01*
X135413395Y-84952357D01*
X135419428Y-84949671D01*
X135419431Y-84949670D01*
X135583748Y-84876512D01*
X135583751Y-84876510D01*
X135589780Y-84873826D01*
X135613539Y-84856564D01*
X135680407Y-84832706D01*
X135687600Y-84832500D01*
X146318629Y-84832500D01*
X146386750Y-84852502D01*
G37*
G04 #@! TD.AperFunction*
G04 #@! TA.AperFunction,Conductor*
G36*
X152980621Y-84094002D02*
G01*
X153027114Y-84147658D01*
X153038500Y-84200000D01*
X153038500Y-84840500D01*
X153018498Y-84908621D01*
X152964842Y-84955114D01*
X152912500Y-84966500D01*
X149820500Y-84966500D01*
X149752379Y-84946498D01*
X149705886Y-84892842D01*
X149694500Y-84840500D01*
X149694500Y-84826866D01*
X149687745Y-84764684D01*
X149636615Y-84628295D01*
X149549261Y-84511739D01*
X149432705Y-84424385D01*
X149296316Y-84373255D01*
X149234134Y-84366500D01*
X148102371Y-84366500D01*
X148034250Y-84346498D01*
X148013276Y-84329595D01*
X147972776Y-84289095D01*
X147938750Y-84226783D01*
X147943815Y-84155968D01*
X147986362Y-84099132D01*
X148052882Y-84074321D01*
X148061871Y-84074000D01*
X152912500Y-84074000D01*
X152980621Y-84094002D01*
G37*
G04 #@! TD.AperFunction*
G04 #@! TA.AperFunction,Conductor*
G36*
X100493401Y-66762502D02*
G01*
X100534399Y-66805500D01*
X100572618Y-66871697D01*
X100625825Y-66963854D01*
X100630243Y-66968761D01*
X100630244Y-66968762D01*
X100740161Y-67090838D01*
X100755018Y-67107338D01*
X100911220Y-67220826D01*
X100917249Y-67223510D01*
X100917252Y-67223512D01*
X101081569Y-67296670D01*
X101081572Y-67296671D01*
X101087605Y-67299357D01*
X101121488Y-67306559D01*
X101270005Y-67338128D01*
X101270010Y-67338128D01*
X101276462Y-67339500D01*
X101469538Y-67339500D01*
X101475990Y-67338128D01*
X101475995Y-67338128D01*
X101624512Y-67306559D01*
X101658395Y-67299357D01*
X101664428Y-67296671D01*
X101664431Y-67296670D01*
X101828748Y-67223512D01*
X101828751Y-67223510D01*
X101834780Y-67220826D01*
X101853105Y-67207512D01*
X101985638Y-67111221D01*
X101985640Y-67111219D01*
X101990982Y-67107338D01*
X102005839Y-67090838D01*
X102021543Y-67073397D01*
X102081989Y-67036158D01*
X102152973Y-67037510D01*
X102208815Y-67073398D01*
X102224518Y-67090838D01*
X102380720Y-67204326D01*
X102386749Y-67207010D01*
X102386752Y-67207012D01*
X102551069Y-67280170D01*
X102551072Y-67280171D01*
X102557105Y-67282857D01*
X102599038Y-67291770D01*
X102739505Y-67321628D01*
X102739510Y-67321628D01*
X102745962Y-67323000D01*
X102939038Y-67323000D01*
X102945490Y-67321628D01*
X102945495Y-67321628D01*
X103121437Y-67284230D01*
X103121440Y-67284229D01*
X103127895Y-67282857D01*
X103130756Y-67281583D01*
X103200436Y-67279591D01*
X103257504Y-67312357D01*
X103657447Y-67712301D01*
X104053804Y-68108658D01*
X104061338Y-68116937D01*
X104065451Y-68123418D01*
X104091423Y-68147807D01*
X104115102Y-68170043D01*
X104117944Y-68172798D01*
X104137681Y-68192535D01*
X104140878Y-68195015D01*
X104149898Y-68202718D01*
X104182130Y-68232986D01*
X104189076Y-68236805D01*
X104189079Y-68236807D01*
X104199885Y-68242748D01*
X104216404Y-68253599D01*
X104232410Y-68266014D01*
X104239679Y-68269159D01*
X104239683Y-68269162D01*
X104272988Y-68283574D01*
X104283638Y-68288791D01*
X104322391Y-68310095D01*
X104330066Y-68312066D01*
X104330067Y-68312066D01*
X104342013Y-68315133D01*
X104360718Y-68321537D01*
X104379306Y-68329581D01*
X104387129Y-68330820D01*
X104387139Y-68330823D01*
X104422975Y-68336499D01*
X104434595Y-68338905D01*
X104466410Y-68347073D01*
X104477421Y-68349900D01*
X104497675Y-68349900D01*
X104517385Y-68351451D01*
X104537394Y-68354620D01*
X104545286Y-68353874D01*
X104564031Y-68352102D01*
X104581413Y-68350459D01*
X104593270Y-68349900D01*
X105592841Y-68349900D01*
X105604024Y-68350427D01*
X105611517Y-68352102D01*
X105619443Y-68351853D01*
X105619444Y-68351853D01*
X105679594Y-68349962D01*
X105683553Y-68349900D01*
X105711464Y-68349900D01*
X105715399Y-68349403D01*
X105715464Y-68349395D01*
X105727301Y-68348462D01*
X105759559Y-68347448D01*
X105763578Y-68347322D01*
X105771497Y-68347073D01*
X105790951Y-68341421D01*
X105810308Y-68337413D01*
X105822538Y-68335868D01*
X105822539Y-68335868D01*
X105830405Y-68334874D01*
X105837776Y-68331955D01*
X105837778Y-68331955D01*
X105871520Y-68318596D01*
X105882750Y-68314751D01*
X105917591Y-68304629D01*
X105917592Y-68304629D01*
X105925201Y-68302418D01*
X105932020Y-68298385D01*
X105932025Y-68298383D01*
X105942636Y-68292107D01*
X105960384Y-68283412D01*
X105979225Y-68275952D01*
X105990106Y-68268047D01*
X106014995Y-68249964D01*
X106024915Y-68243448D01*
X106056143Y-68224980D01*
X106056146Y-68224978D01*
X106062970Y-68220942D01*
X106077291Y-68206621D01*
X106092325Y-68193780D01*
X106102301Y-68186532D01*
X106108715Y-68181872D01*
X106136896Y-68147807D01*
X106144886Y-68139026D01*
X106386909Y-67897004D01*
X106449221Y-67862979D01*
X106476004Y-67860100D01*
X108215623Y-67860100D01*
X108283744Y-67880102D01*
X108304718Y-67897005D01*
X109065428Y-68657715D01*
X109072972Y-68666005D01*
X109077085Y-68672486D01*
X109082862Y-68677911D01*
X109126752Y-68719126D01*
X109129594Y-68721881D01*
X109149315Y-68741602D01*
X109152510Y-68744080D01*
X109161532Y-68751786D01*
X109193764Y-68782054D01*
X109200713Y-68785874D01*
X109211517Y-68791814D01*
X109228041Y-68802667D01*
X109244044Y-68815081D01*
X109284628Y-68832644D01*
X109295258Y-68837851D01*
X109334025Y-68859163D01*
X109341702Y-68861134D01*
X109341707Y-68861136D01*
X109353643Y-68864200D01*
X109372351Y-68870605D01*
X109390940Y-68878649D01*
X109398768Y-68879889D01*
X109398775Y-68879891D01*
X109434609Y-68885567D01*
X109446229Y-68887973D01*
X109481374Y-68896996D01*
X109489055Y-68898968D01*
X109509309Y-68898968D01*
X109529019Y-68900519D01*
X109549028Y-68903688D01*
X109556920Y-68902942D01*
X109593046Y-68899527D01*
X109604904Y-68898968D01*
X109931500Y-68898968D01*
X109999621Y-68918970D01*
X110046114Y-68972626D01*
X110057500Y-69024968D01*
X110057500Y-70279268D01*
X110056973Y-70290451D01*
X110055298Y-70297944D01*
X110055547Y-70305870D01*
X110055547Y-70305871D01*
X110057438Y-70366021D01*
X110057500Y-70369980D01*
X110057500Y-70397891D01*
X110057997Y-70401825D01*
X110057997Y-70401826D01*
X110058005Y-70401891D01*
X110058938Y-70413728D01*
X110060327Y-70457924D01*
X110065978Y-70477374D01*
X110069987Y-70496735D01*
X110072526Y-70516832D01*
X110075445Y-70524203D01*
X110075445Y-70524205D01*
X110088804Y-70557947D01*
X110092649Y-70569177D01*
X110104982Y-70611628D01*
X110109015Y-70618447D01*
X110109017Y-70618452D01*
X110115293Y-70629063D01*
X110123988Y-70646811D01*
X110131448Y-70665652D01*
X110136110Y-70672068D01*
X110136110Y-70672069D01*
X110157436Y-70701422D01*
X110163952Y-70711342D01*
X110186458Y-70749397D01*
X110200779Y-70763718D01*
X110213619Y-70778751D01*
X110225528Y-70795142D01*
X110231632Y-70800192D01*
X110231637Y-70800197D01*
X110259598Y-70823328D01*
X110268379Y-70831318D01*
X111125596Y-71688536D01*
X111159621Y-71750848D01*
X111162500Y-71777631D01*
X111162500Y-76202770D01*
X111142498Y-76270891D01*
X111125595Y-76291866D01*
X110297142Y-77120318D01*
X110288863Y-77127852D01*
X110282382Y-77131965D01*
X110235757Y-77181616D01*
X110233002Y-77184458D01*
X110213265Y-77204195D01*
X110210785Y-77207392D01*
X110203082Y-77216412D01*
X110172814Y-77248644D01*
X110168995Y-77255590D01*
X110168993Y-77255593D01*
X110163052Y-77266399D01*
X110152201Y-77282918D01*
X110139786Y-77298924D01*
X110136641Y-77306193D01*
X110136638Y-77306197D01*
X110122226Y-77339502D01*
X110117009Y-77350152D01*
X110095705Y-77388905D01*
X110093734Y-77396580D01*
X110093734Y-77396581D01*
X110090667Y-77408527D01*
X110084263Y-77427231D01*
X110076219Y-77445820D01*
X110074980Y-77453643D01*
X110074977Y-77453653D01*
X110069301Y-77489489D01*
X110066895Y-77501109D01*
X110058508Y-77533776D01*
X110055900Y-77543935D01*
X110055900Y-77564189D01*
X110054349Y-77583899D01*
X110051180Y-77603908D01*
X110051926Y-77611800D01*
X110055341Y-77647926D01*
X110055900Y-77659784D01*
X110055900Y-81433064D01*
X110035898Y-81501185D01*
X110018995Y-81522159D01*
X108428328Y-83112826D01*
X108420042Y-83120366D01*
X108413563Y-83124478D01*
X108408138Y-83130255D01*
X108408137Y-83130256D01*
X108406686Y-83131801D01*
X108405248Y-83132646D01*
X108402029Y-83135309D01*
X108401599Y-83134790D01*
X108345473Y-83167766D01*
X108288641Y-83168794D01*
X108189078Y-83147632D01*
X108189079Y-83147632D01*
X108182619Y-83146259D01*
X107989543Y-83146259D01*
X107983091Y-83147631D01*
X107983086Y-83147631D01*
X107895115Y-83166330D01*
X107800686Y-83186402D01*
X107794656Y-83189087D01*
X107794655Y-83189087D01*
X107630332Y-83262248D01*
X107630330Y-83262249D01*
X107624302Y-83264933D01*
X107618961Y-83268813D01*
X107618960Y-83268814D01*
X107474023Y-83374117D01*
X107468099Y-83378421D01*
X107463678Y-83383331D01*
X107463677Y-83383332D01*
X107344533Y-83515656D01*
X107338906Y-83521905D01*
X107334535Y-83529476D01*
X107333635Y-83530334D01*
X107331722Y-83532967D01*
X107331241Y-83532617D01*
X107283154Y-83578469D01*
X107213440Y-83591906D01*
X107205705Y-83590925D01*
X107196203Y-83589420D01*
X107188374Y-83588180D01*
X107148958Y-83591906D01*
X107144356Y-83592341D01*
X107132498Y-83592900D01*
X105246316Y-83592900D01*
X105178195Y-83572898D01*
X105169546Y-83566294D01*
X105169501Y-83566356D01*
X105018641Y-83456749D01*
X105018640Y-83456748D01*
X105013299Y-83452868D01*
X105007270Y-83450184D01*
X105007267Y-83450182D01*
X104842950Y-83377024D01*
X104842947Y-83377023D01*
X104836914Y-83374337D01*
X104761142Y-83358231D01*
X104654514Y-83335566D01*
X104654509Y-83335566D01*
X104648057Y-83334194D01*
X104454981Y-83334194D01*
X104448529Y-83335566D01*
X104448524Y-83335566D01*
X104360553Y-83354265D01*
X104266124Y-83374337D01*
X104098317Y-83449049D01*
X104027952Y-83458483D01*
X103994349Y-83446672D01*
X103993808Y-83447886D01*
X103823459Y-83372042D01*
X103823456Y-83372041D01*
X103817423Y-83369355D01*
X103765089Y-83358231D01*
X103635023Y-83330584D01*
X103635018Y-83330584D01*
X103628566Y-83329212D01*
X103435490Y-83329212D01*
X103429038Y-83330584D01*
X103429033Y-83330584D01*
X103350911Y-83347190D01*
X103325496Y-83352592D01*
X103254706Y-83347190D01*
X103198074Y-83304373D01*
X103173580Y-83237736D01*
X103173300Y-83229345D01*
X103173300Y-80414321D01*
X103173827Y-80403138D01*
X103175502Y-80395645D01*
X103173362Y-80327554D01*
X103173300Y-80323597D01*
X103173300Y-80295697D01*
X103172796Y-80291706D01*
X103171863Y-80279864D01*
X103170723Y-80243589D01*
X103170474Y-80235664D01*
X103164821Y-80216205D01*
X103160812Y-80196846D01*
X103160646Y-80195536D01*
X103158274Y-80176756D01*
X103155358Y-80169390D01*
X103155356Y-80169384D01*
X103142000Y-80135651D01*
X103138155Y-80124421D01*
X103128030Y-80089570D01*
X103128030Y-80089569D01*
X103125819Y-80081960D01*
X103115505Y-80064519D01*
X103106808Y-80046766D01*
X103102272Y-80035311D01*
X103099352Y-80027936D01*
X103073363Y-79992165D01*
X103066847Y-79982245D01*
X103048378Y-79951016D01*
X103044342Y-79944191D01*
X103030021Y-79929870D01*
X103017180Y-79914836D01*
X103009932Y-79904860D01*
X103005272Y-79898446D01*
X102971207Y-79870265D01*
X102962426Y-79862275D01*
X102459394Y-79359242D01*
X102451860Y-79350963D01*
X102447747Y-79344482D01*
X102398095Y-79297856D01*
X102395254Y-79295102D01*
X102375517Y-79275365D01*
X102372320Y-79272885D01*
X102363298Y-79265180D01*
X102336847Y-79240341D01*
X102331068Y-79234914D01*
X102324122Y-79231095D01*
X102324119Y-79231093D01*
X102313313Y-79225152D01*
X102296794Y-79214301D01*
X102296330Y-79213941D01*
X102280788Y-79201886D01*
X102273519Y-79198741D01*
X102273515Y-79198738D01*
X102240210Y-79184326D01*
X102229560Y-79179109D01*
X102190807Y-79157805D01*
X102171184Y-79152767D01*
X102152481Y-79146363D01*
X102141167Y-79141467D01*
X102141166Y-79141467D01*
X102133892Y-79138319D01*
X102126069Y-79137080D01*
X102126059Y-79137077D01*
X102090223Y-79131401D01*
X102078603Y-79128995D01*
X102043458Y-79119972D01*
X102043457Y-79119972D01*
X102035777Y-79118000D01*
X102015523Y-79118000D01*
X101995812Y-79116449D01*
X101983633Y-79114520D01*
X101975804Y-79113280D01*
X101967912Y-79114026D01*
X101931786Y-79117441D01*
X101919928Y-79118000D01*
X100271743Y-79118000D01*
X100203622Y-79097998D01*
X100182648Y-79081095D01*
X98115805Y-77014251D01*
X98081779Y-76951939D01*
X98078900Y-76925156D01*
X98078900Y-69620194D01*
X98098902Y-69552073D01*
X98115805Y-69531099D01*
X99503047Y-68143857D01*
X99511337Y-68136313D01*
X99517818Y-68132200D01*
X99564459Y-68082532D01*
X99567213Y-68079691D01*
X99586934Y-68059970D01*
X99589412Y-68056775D01*
X99597118Y-68047753D01*
X99621958Y-68021301D01*
X99627386Y-68015521D01*
X99633532Y-68004342D01*
X99637146Y-67997768D01*
X99647999Y-67981245D01*
X99655553Y-67971506D01*
X99660413Y-67965241D01*
X99677976Y-67924657D01*
X99683183Y-67914027D01*
X99704495Y-67875260D01*
X99706466Y-67867583D01*
X99706468Y-67867578D01*
X99709532Y-67855642D01*
X99715938Y-67836930D01*
X99720833Y-67825619D01*
X99723981Y-67818345D01*
X99725221Y-67810517D01*
X99725223Y-67810510D01*
X99730899Y-67774676D01*
X99733305Y-67763056D01*
X99742328Y-67727911D01*
X99742328Y-67727910D01*
X99744300Y-67720230D01*
X99744300Y-67699976D01*
X99745851Y-67680265D01*
X99747780Y-67668086D01*
X99749020Y-67660257D01*
X99744859Y-67616238D01*
X99744300Y-67604381D01*
X99744300Y-67390869D01*
X99764302Y-67322748D01*
X99776664Y-67306559D01*
X99781913Y-67300730D01*
X99857975Y-67216254D01*
X99940453Y-67073398D01*
X99951209Y-67054768D01*
X99951210Y-67054767D01*
X99954513Y-67049045D01*
X100014177Y-66865419D01*
X100015237Y-66855334D01*
X100016020Y-66853431D01*
X100016241Y-66852391D01*
X100016431Y-66852431D01*
X100042247Y-66789676D01*
X100100467Y-66749045D01*
X100140547Y-66742500D01*
X100425280Y-66742500D01*
X100493401Y-66762502D01*
G37*
G04 #@! TD.AperFunction*
M02*
