M48
; DRILL file {KiCad 7.0.5-0} date 2023 July 10, Monday 19:55:50
; FORMAT={-:-/ absolute / metric / decimal}
; #@! TF.CreationDate,2023-07-10T19:55:50+02:00
; #@! TF.GenerationSoftware,Kicad,Pcbnew,7.0.5-0
; #@! TF.FileFunction,MixedPlating,1,2
FMAT,2
METRIC
; #@! TA.AperFunction,Plated,PTH,ViaDrill
T1C0.300
; #@! TA.AperFunction,Plated,PTH,ComponentDrill
T2C0.800
; #@! TA.AperFunction,Plated,PTH,ComponentDrill
T3C1.000
; #@! TA.AperFunction,Plated,PTH,ComponentDrill
T4C1.100
; #@! TA.AperFunction,Plated,PTH,ComponentDrill
T5C1.300
%
G90
G05
T1
X96.012Y-95.25
X96.919Y-67.557
X97.778Y-66.605
X97.79Y-81.204
X98.425Y-63.805
X98.501Y-84.033
X99.029Y-67.432
X100.838Y-71.882
X100.838Y-77.47
X102.5Y-66.5
X102.616Y-84.074
X102.718Y-63.627
X103.911Y-84.099
X105.715Y-56.083
X105.766Y-84.76
X106.426Y-71.882
X106.426Y-77.47
X107.95Y-63.398
X109.271Y-56.083
X111.9Y-79.976
X112.776Y-56.083
X112.864Y-78.719
X113.132Y-87.833
X115.773Y-78.918
X115.8Y-69.6
X116.448Y-80.876
X116.552Y-77.546
X117.043Y-84.658
X117.272Y-83.185
X120.04Y-84.506
X131.8Y-91.2
X134.1Y-84.2
X134.415Y-90.385
X139.0Y-85.0
X139.4Y-87.465
X144.0Y-80.3
X145.0Y-88.5
X147.3Y-88.2
X147.6Y-96.3
X148.5Y-77.0
X151.2Y-84.2
T2
X138.25Y-51.85
X145.75Y-54.15
X152.225Y-56.18
X152.225Y-63.8
X154.765Y-56.18
X154.765Y-63.8
X157.305Y-56.18
X157.305Y-63.8
X163.725Y-56.18
X163.725Y-63.8
X166.265Y-56.18
X166.265Y-63.8
X168.805Y-56.18
X168.805Y-63.8
T3
X97.925Y-53.25
X97.925Y-57.75
X97.925Y-92.25
X97.925Y-96.75
X111.491Y-97.993
X114.031Y-97.993
X116.571Y-97.993
X119.111Y-97.993
X124.892Y-94.996
X124.892Y-97.536
X127.432Y-94.996
X127.432Y-97.536
X129.972Y-94.996
X129.972Y-97.536
X132.512Y-94.996
X132.512Y-97.536
X135.052Y-94.996
X135.052Y-97.536
X137.592Y-94.996
X137.592Y-97.536
X140.132Y-94.996
X140.132Y-97.536
X142.672Y-94.996
X142.672Y-97.536
T4
X136.64Y-79.82
X141.72Y-59.5
X146.8Y-59.5
X146.8Y-79.82
X160.5Y-56.0
X160.5Y-63.62
X172.25Y-55.94
X172.25Y-63.56
T5
X100.425Y-52.0
X100.425Y-59.0
X100.425Y-91.0
X100.425Y-98.0
X153.373Y-73.5
X153.373Y-91.0
X155.373Y-67.5
X155.373Y-79.5
X155.373Y-85.0
X155.373Y-97.0
X167.572Y-67.5
X167.572Y-79.5
X167.572Y-85.0
X167.572Y-97.0
X179.805Y-53.425
X179.805Y-58.505
X179.805Y-63.585
X179.805Y-69.925
X179.805Y-75.005
X179.805Y-80.085
X179.805Y-86.425
X179.805Y-91.505
X179.805Y-96.585
T0
M30
