M48
; DRILL file {KiCad (6.0.9)} date Thu Jan 19 16:54:44 2023
; FORMAT={-:-/ absolute / inch / decimal}
; #@! TF.CreationDate,2023-01-19T16:54:44+01:00
; #@! TF.GenerationSoftware,Kicad,Pcbnew,(6.0.9)
; #@! TF.FileFunction,Plated,1,2,PTH
FMAT,2
INCH
; #@! TA.AperFunction,Plated,PTH,ViaDrill
T1C0.0118
; #@! TA.AperFunction,Plated,PTH,ComponentDrill
T2C0.0315
; #@! TA.AperFunction,Plated,PTH,ComponentDrill
T3C0.0394
; #@! TA.AperFunction,Plated,PTH,ComponentDrill
T4C0.0433
; #@! TA.AperFunction,Plated,PTH,ComponentDrill
T5C0.0512
; #@! TA.AperFunction,Plated,PTH,ComponentDrill
T6C0.0591
%
G90
G05
T1
X3.78Y-3.2
X3.78Y-3.75
X3.8902Y-3.3091
X3.9098Y-2.6869
X3.93Y-3.41
X3.9411Y-2.6139
X3.97Y-2.83
X3.97Y-3.05
X3.9911Y-2.615
X4.0009Y-3.7109
X4.035Y-3.21
X4.0489Y-2.6144
X4.07Y-2.35
X4.08Y-2.4798
X4.0911Y-3.205
X4.1Y-3.63
X4.15Y-2.21
X4.19Y-2.83
X4.19Y-3.05
X4.19Y-3.2042
X4.22Y-2.4798
X4.29Y-2.21
X4.29Y-3.21
X4.34Y-2.6223
X4.3489Y-3.2089
X4.35Y-2.4798
X4.3622Y-3.151
X4.3855Y-2.6155
X4.4013Y-2.765
X4.4013Y-2.8206
X4.415Y-3.685
X4.42Y-2.21
X4.4256Y-2.625
X4.4372Y-2.6634
X4.44Y-3.09
X4.44Y-3.21
X4.46Y-3.3148
X4.4704Y-2.4796
X4.4844Y-3.5506
X4.515Y-2.505
X4.53Y-3.3
X4.6Y-3.43
X4.655Y-3.31
X4.78Y-3.33
X4.85Y-3.76
X5.01Y-3.76
X5.0107Y-3.3889
X5.11Y-3.37
X5.15Y-3.76
X5.2Y-3.4096
X5.2Y-3.63
X5.2401Y-3.4096
X5.25Y-3.76
X5.32Y-3.31
X5.35Y-3.76
X5.45Y-3.78
X5.55Y-3.76
X5.57Y-3.3901
X5.65Y-3.76
X5.73Y-3.37
X5.74Y-3.76
X5.955Y-3.47
X5.975Y-3.335
X5.99Y-3.8
X6.02Y-3.525
X6.099Y-3.149
X6.14Y-3.185
X6.335Y-2.04
T2
X6.9904Y-2.0506
X6.9904Y-2.1506
X6.9904Y-2.2506
X6.9904Y-2.4106
X6.9904Y-2.5106
X6.9904Y-2.6106
X7.2904Y-2.0506
X7.2904Y-2.1506
X7.2904Y-2.2506
X7.2904Y-2.4106
X7.2904Y-2.5106
X7.2904Y-2.6106
T3
X3.8466Y-2.0986
X3.8466Y-2.2758
X3.8466Y-3.6292
X3.8466Y-3.8064
X4.6504Y-3.865
X4.7504Y-3.865
X4.8504Y-3.865
X4.9504Y-3.865
X5.095Y-3.865
X5.195Y-3.865
X5.295Y-3.865
X5.395Y-3.865
X5.495Y-3.865
X5.595Y-3.865
X5.695Y-3.865
X5.84Y-3.375
X5.84Y-3.475
X5.84Y-3.575
X5.84Y-3.675
X5.84Y-3.775
X5.84Y-3.875
T4
X7.075Y-2.825
X7.075Y-2.99
X7.375Y-2.825
X7.375Y-2.99
T5
X3.945Y-2.0494
X3.945Y-2.325
X3.945Y-3.58
X3.945Y-3.8556
X4.6438Y-2.6406
X4.6438Y-3.1209
X4.68Y-2.175
X4.88Y-2.175
X4.88Y-3.1997
X5.08Y-2.175
X5.1162Y-2.6406
X5.1162Y-3.1209
X5.32Y-2.6406
X5.32Y-3.1209
X5.355Y-2.175
X5.555Y-2.175
X5.5562Y-3.1997
X5.755Y-2.175
X5.7924Y-2.6406
X5.7924Y-3.1209
X7.272Y-3.42
X7.272Y-3.62
X7.272Y-3.82
T6
X6.365Y-3.775
X6.4733Y-2.2593
X6.7882Y-2.2593
X6.7882Y-3.775
T0
M30
