G04 #@! TF.GenerationSoftware,KiCad,Pcbnew,7.0.1-0*
G04 #@! TF.CreationDate,2023-04-02T15:17:08+02:00*
G04 #@! TF.ProjectId,CaptorBoard,43617074-6f72-4426-9f61-72642e6b6963,rev?*
G04 #@! TF.SameCoordinates,Original*
G04 #@! TF.FileFunction,Copper,L1,Top*
G04 #@! TF.FilePolarity,Positive*
%FSLAX46Y46*%
G04 Gerber Fmt 4.6, Leading zero omitted, Abs format (unit mm)*
G04 Created by KiCad (PCBNEW 7.0.1-0) date 2023-04-02 15:17:08*
%MOMM*%
%LPD*%
G01*
G04 APERTURE LIST*
G04 Aperture macros list*
%AMRoundRect*
0 Rectangle with rounded corners*
0 $1 Rounding radius*
0 $2 $3 $4 $5 $6 $7 $8 $9 X,Y pos of 4 corners*
0 Add a 4 corners polygon primitive as box body*
4,1,4,$2,$3,$4,$5,$6,$7,$8,$9,$2,$3,0*
0 Add four circle primitives for the rounded corners*
1,1,$1+$1,$2,$3*
1,1,$1+$1,$4,$5*
1,1,$1+$1,$6,$7*
1,1,$1+$1,$8,$9*
0 Add four rect primitives between the rounded corners*
20,1,$1+$1,$2,$3,$4,$5,0*
20,1,$1+$1,$4,$5,$6,$7,0*
20,1,$1+$1,$6,$7,$8,$9,0*
20,1,$1+$1,$8,$9,$2,$3,0*%
G04 Aperture macros list end*
G04 #@! TA.AperFunction,SMDPad,CuDef*
%ADD10R,0.900000X1.500000*%
G04 #@! TD*
G04 #@! TA.AperFunction,SMDPad,CuDef*
%ADD11R,1.500000X0.900000*%
G04 #@! TD*
G04 #@! TA.AperFunction,SMDPad,CuDef*
%ADD12R,1.050000X1.050000*%
G04 #@! TD*
G04 #@! TA.AperFunction,ComponentPad*
%ADD13R,2.200000X2.200000*%
G04 #@! TD*
G04 #@! TA.AperFunction,ComponentPad*
%ADD14O,2.200000X2.200000*%
G04 #@! TD*
G04 #@! TA.AperFunction,SMDPad,CuDef*
%ADD15RoundRect,0.250000X1.075000X-0.400000X1.075000X0.400000X-1.075000X0.400000X-1.075000X-0.400000X0*%
G04 #@! TD*
G04 #@! TA.AperFunction,SMDPad,CuDef*
%ADD16RoundRect,0.250000X-1.075000X0.400000X-1.075000X-0.400000X1.075000X-0.400000X1.075000X0.400000X0*%
G04 #@! TD*
G04 #@! TA.AperFunction,SMDPad,CuDef*
%ADD17RoundRect,0.250001X1.074999X-0.462499X1.074999X0.462499X-1.074999X0.462499X-1.074999X-0.462499X0*%
G04 #@! TD*
G04 #@! TA.AperFunction,ComponentPad*
%ADD18R,2.600000X2.600000*%
G04 #@! TD*
G04 #@! TA.AperFunction,ComponentPad*
%ADD19C,2.600000*%
G04 #@! TD*
G04 #@! TA.AperFunction,ComponentPad*
%ADD20C,2.200000*%
G04 #@! TD*
G04 #@! TA.AperFunction,ComponentPad*
%ADD21C,1.700000*%
G04 #@! TD*
G04 #@! TA.AperFunction,ComponentPad*
%ADD22R,1.600000X1.600000*%
G04 #@! TD*
G04 #@! TA.AperFunction,ComponentPad*
%ADD23O,1.600000X1.600000*%
G04 #@! TD*
G04 #@! TA.AperFunction,SMDPad,CuDef*
%ADD24RoundRect,0.250000X0.400000X1.075000X-0.400000X1.075000X-0.400000X-1.075000X0.400000X-1.075000X0*%
G04 #@! TD*
G04 #@! TA.AperFunction,ComponentPad*
%ADD25R,1.700000X1.700000*%
G04 #@! TD*
G04 #@! TA.AperFunction,ComponentPad*
%ADD26O,1.700000X1.700000*%
G04 #@! TD*
G04 #@! TA.AperFunction,SMDPad,CuDef*
%ADD27R,2.400000X3.000000*%
G04 #@! TD*
G04 #@! TA.AperFunction,SMDPad,CuDef*
%ADD28RoundRect,0.250000X-1.100000X0.412500X-1.100000X-0.412500X1.100000X-0.412500X1.100000X0.412500X0*%
G04 #@! TD*
G04 #@! TA.AperFunction,SMDPad,CuDef*
%ADD29R,1.400000X1.500000*%
G04 #@! TD*
G04 #@! TA.AperFunction,SMDPad,CuDef*
%ADD30RoundRect,0.250000X-0.400000X-1.075000X0.400000X-1.075000X0.400000X1.075000X-0.400000X1.075000X0*%
G04 #@! TD*
G04 #@! TA.AperFunction,SMDPad,CuDef*
%ADD31RoundRect,0.150000X-0.587500X-0.150000X0.587500X-0.150000X0.587500X0.150000X-0.587500X0.150000X0*%
G04 #@! TD*
G04 #@! TA.AperFunction,SMDPad,CuDef*
%ADD32RoundRect,0.250000X1.100000X-0.412500X1.100000X0.412500X-1.100000X0.412500X-1.100000X-0.412500X0*%
G04 #@! TD*
G04 #@! TA.AperFunction,ComponentPad*
%ADD33R,2.500000X2.500000*%
G04 #@! TD*
G04 #@! TA.AperFunction,ComponentPad*
%ADD34O,2.500000X2.500000*%
G04 #@! TD*
G04 #@! TA.AperFunction,SMDPad,CuDef*
%ADD35RoundRect,0.225000X-0.225000X-0.375000X0.225000X-0.375000X0.225000X0.375000X-0.225000X0.375000X0*%
G04 #@! TD*
G04 #@! TA.AperFunction,SMDPad,CuDef*
%ADD36RoundRect,0.250001X-0.462499X-1.074999X0.462499X-1.074999X0.462499X1.074999X-0.462499X1.074999X0*%
G04 #@! TD*
G04 #@! TA.AperFunction,SMDPad,CuDef*
%ADD37RoundRect,0.250000X0.412500X1.100000X-0.412500X1.100000X-0.412500X-1.100000X0.412500X-1.100000X0*%
G04 #@! TD*
G04 #@! TA.AperFunction,SMDPad,CuDef*
%ADD38R,2.000000X1.500000*%
G04 #@! TD*
G04 #@! TA.AperFunction,SMDPad,CuDef*
%ADD39R,2.000000X3.800000*%
G04 #@! TD*
G04 #@! TA.AperFunction,ComponentPad*
%ADD40C,1.650000*%
G04 #@! TD*
G04 #@! TA.AperFunction,ViaPad*
%ADD41C,0.820000*%
G04 #@! TD*
G04 #@! TA.AperFunction,Conductor*
%ADD42C,0.250000*%
G04 #@! TD*
G04 #@! TA.AperFunction,Conductor*
%ADD43C,2.000000*%
G04 #@! TD*
G04 #@! TA.AperFunction,Conductor*
%ADD44C,0.500000*%
G04 #@! TD*
G04 #@! TA.AperFunction,Conductor*
%ADD45C,4.000000*%
G04 #@! TD*
G04 #@! TA.AperFunction,Conductor*
%ADD46C,0.200000*%
G04 #@! TD*
G04 #@! TA.AperFunction,Profile*
%ADD47C,0.100000*%
G04 #@! TD*
G04 APERTURE END LIST*
D10*
X96293000Y-82746000D03*
X97563000Y-82746000D03*
X98833000Y-82746000D03*
X100103000Y-82746000D03*
X101373000Y-82746000D03*
X102643000Y-82746000D03*
X103913000Y-82746000D03*
X105183000Y-82746000D03*
X106453000Y-82746000D03*
X107723000Y-82746000D03*
X108993000Y-82746000D03*
X110263000Y-82746000D03*
X111533000Y-82746000D03*
X112803000Y-82746000D03*
D11*
X114053000Y-79716000D03*
X114053000Y-78446000D03*
X114053000Y-77176000D03*
X114053000Y-75906000D03*
X114053000Y-74636000D03*
X114053000Y-73366000D03*
X114053000Y-72096000D03*
X114053000Y-70826000D03*
X114053000Y-69556000D03*
X114053000Y-68286000D03*
D10*
X112803000Y-65246000D03*
X111533000Y-65246000D03*
X110263000Y-65246000D03*
X108993000Y-65246000D03*
X107723000Y-65246000D03*
X106453000Y-65246000D03*
X105183000Y-65246000D03*
X103913000Y-65246000D03*
X102643000Y-65246000D03*
X101373000Y-65246000D03*
X100103000Y-65246000D03*
X98833000Y-65246000D03*
X97563000Y-65246000D03*
X96293000Y-65246000D03*
D12*
X102108000Y-76201000D03*
X103633000Y-76201000D03*
X105158000Y-76201000D03*
X102108000Y-74676000D03*
X103633000Y-74676000D03*
X105158000Y-74676000D03*
X102108000Y-73151000D03*
X103633000Y-73151000D03*
X105158000Y-73151000D03*
D13*
X164190000Y-56500000D03*
D14*
X171810000Y-56500000D03*
D13*
X171810000Y-52500000D03*
D14*
X164190000Y-52500000D03*
D15*
X104000000Y-98604000D03*
X104000000Y-95504000D03*
D16*
X114500000Y-58114000D03*
X114500000Y-61214000D03*
X104000000Y-58114000D03*
X104000000Y-61214000D03*
X111000000Y-58114000D03*
X111000000Y-61214000D03*
X107500000Y-58114000D03*
X107500000Y-61214000D03*
D17*
X107500000Y-98515500D03*
X107500000Y-95540500D03*
X114500000Y-54029000D03*
X114500000Y-51054000D03*
X104000000Y-54029000D03*
X104000000Y-51054000D03*
X111000000Y-54029000D03*
X111000000Y-51054000D03*
X107500000Y-54029000D03*
X107500000Y-51054000D03*
D18*
X179805000Y-63585000D03*
D19*
X179805000Y-58505000D03*
X179805000Y-53425000D03*
D20*
X100425000Y-98000000D03*
X100425000Y-91000000D03*
D21*
X97925000Y-96750000D03*
X97925000Y-92250000D03*
D20*
X100425000Y-59000000D03*
X100425000Y-52000000D03*
D21*
X97925000Y-57750000D03*
X97925000Y-53250000D03*
D22*
X154975000Y-63000000D03*
D23*
X157515000Y-63000000D03*
X160055000Y-63000000D03*
X160055000Y-55380000D03*
X157515000Y-55380000D03*
X154975000Y-55380000D03*
D22*
X146475000Y-63000000D03*
D23*
X149015000Y-63000000D03*
X151555000Y-63000000D03*
X151555000Y-55380000D03*
X149015000Y-55380000D03*
X146475000Y-55380000D03*
D24*
X120500000Y-83500000D03*
X117400000Y-83500000D03*
X120550000Y-80000000D03*
X117450000Y-80000000D03*
D25*
X130500000Y-94500000D03*
D26*
X133040000Y-94500000D03*
X135580000Y-94500000D03*
X138120000Y-94500000D03*
X140660000Y-94500000D03*
X143200000Y-94500000D03*
D27*
X165500000Y-61500000D03*
X170360000Y-61500000D03*
D28*
X100914200Y-85318600D03*
X100914200Y-88443600D03*
D25*
X118120000Y-98171000D03*
D26*
X120660000Y-98171000D03*
X123200000Y-98171000D03*
X125740000Y-98171000D03*
D15*
X114500000Y-98604000D03*
X114500000Y-95504000D03*
D29*
X109837600Y-86537800D03*
X107737600Y-86537800D03*
D30*
X143900000Y-87000000D03*
X147000000Y-87000000D03*
D31*
X146562500Y-79050000D03*
X146562500Y-80950000D03*
X148437500Y-80000000D03*
D32*
X104292400Y-89383400D03*
X104292400Y-86258400D03*
D31*
X146562500Y-93500000D03*
X146562500Y-95400000D03*
X148437500Y-94450000D03*
D33*
X153372500Y-73500000D03*
D34*
X155372500Y-79500000D03*
X167572500Y-79500000D03*
X167572500Y-67500000D03*
X155372500Y-67500000D03*
D35*
X143850000Y-84000000D03*
X147150000Y-84000000D03*
D18*
X179805000Y-96585000D03*
D19*
X179805000Y-91505000D03*
X179805000Y-86425000D03*
D36*
X145012500Y-75500000D03*
X147987500Y-75500000D03*
D24*
X100050000Y-62500000D03*
X96950000Y-62500000D03*
D25*
X129413000Y-98171000D03*
D26*
X131953000Y-98171000D03*
X134493000Y-98171000D03*
X137033000Y-98171000D03*
X139573000Y-98171000D03*
X142113000Y-98171000D03*
X144653000Y-98171000D03*
D37*
X136125000Y-80000000D03*
X133000000Y-80000000D03*
D24*
X140100000Y-90500000D03*
X137000000Y-90500000D03*
D30*
X107238200Y-89433400D03*
X110338200Y-89433400D03*
X144950000Y-72000000D03*
X148050000Y-72000000D03*
D32*
X113309400Y-89383400D03*
X113309400Y-86258400D03*
D24*
X144100000Y-79500000D03*
X141000000Y-79500000D03*
D38*
X131000000Y-90000000D03*
X131000000Y-87700000D03*
D39*
X124700000Y-87700000D03*
D38*
X131000000Y-85400000D03*
D40*
X140000000Y-53840000D03*
X134920000Y-53840000D03*
X129840000Y-74160000D03*
X140000000Y-74160000D03*
D35*
X144850000Y-69000000D03*
X148150000Y-69000000D03*
D28*
X97536000Y-85305500D03*
X97536000Y-88430500D03*
D18*
X179805000Y-80085000D03*
D19*
X179805000Y-75005000D03*
X179805000Y-69925000D03*
D33*
X153372500Y-91000000D03*
D34*
X155372500Y-97000000D03*
X167572500Y-97000000D03*
X167572500Y-85000000D03*
X155372500Y-85000000D03*
D32*
X111000000Y-98629000D03*
X111000000Y-95504000D03*
D36*
X144000000Y-90500000D03*
X146975000Y-90500000D03*
D41*
X149000000Y-84500000D03*
X118000000Y-64000000D03*
X116500000Y-77000000D03*
X116500000Y-71500000D03*
X148500000Y-81500000D03*
X117500000Y-95000000D03*
X116500000Y-62000000D03*
X145500000Y-87000000D03*
X103378000Y-59690000D03*
X96012000Y-95250000D03*
X116500000Y-53500000D03*
X100838000Y-71882000D03*
X100838000Y-77470000D03*
X142500000Y-75500000D03*
X108966000Y-56134000D03*
X123500000Y-94000000D03*
X118000000Y-69000000D03*
X105500000Y-56134000D03*
X106426000Y-71882000D03*
X106426000Y-77470000D03*
X118000000Y-74500000D03*
X112268000Y-56134000D03*
X116500000Y-66500000D03*
X116500000Y-57500000D03*
X118000000Y-59500000D03*
X118000000Y-55500000D03*
X116000000Y-86500000D03*
X98500000Y-84000000D03*
X103500000Y-92500000D03*
X96500000Y-79500000D03*
X114000000Y-63000000D03*
X113511000Y-80846600D03*
X107500000Y-62986500D03*
X112776000Y-69494400D03*
X112980497Y-63000000D03*
X112807196Y-81584193D03*
X111500000Y-62986500D03*
X112776000Y-78486000D03*
X98930624Y-64045361D03*
X102500000Y-66500000D03*
X108316660Y-84061917D03*
X97500000Y-80500000D03*
X100422313Y-80486500D03*
X102500000Y-80486000D03*
X98500000Y-63000000D03*
X105227033Y-84955500D03*
X98412432Y-67412432D03*
X97483427Y-66992509D03*
X106496403Y-85003597D03*
X105181400Y-66421000D03*
X146500000Y-77500000D03*
X109873532Y-67530468D03*
X142500000Y-87000000D03*
D42*
X147000000Y-90475000D02*
X146975000Y-90500000D01*
X147000000Y-87000000D02*
X147000000Y-90475000D01*
X150987500Y-97000000D02*
X155372500Y-97000000D01*
X147150000Y-84000000D02*
X148437500Y-85287500D01*
X148437500Y-85287500D02*
X148437500Y-94450000D01*
X148437500Y-94450000D02*
X150987500Y-97000000D01*
X106934000Y-98479000D02*
X103757000Y-98479000D01*
X114500000Y-54610000D02*
X114500000Y-58114000D01*
X104000000Y-54029000D02*
X104000000Y-58114000D01*
D43*
X145500000Y-58500000D02*
X146500000Y-58500000D01*
X163885051Y-61500000D02*
X160885051Y-58500000D01*
X145500000Y-58500000D02*
X139500000Y-58500000D01*
X165500000Y-61500000D02*
X163885051Y-61500000D01*
X139500000Y-58500000D02*
X134840000Y-53840000D01*
X155000000Y-58500000D02*
X154975000Y-58475000D01*
X146500000Y-58500000D02*
X146500000Y-55405000D01*
X146500000Y-55405000D02*
X146475000Y-55380000D01*
X160885051Y-58500000D02*
X155000000Y-58500000D01*
X155000000Y-58500000D02*
X145500000Y-58500000D01*
X154975000Y-58475000D02*
X154975000Y-55380000D01*
D42*
X98687000Y-60579000D02*
X97703000Y-59595000D01*
X112803000Y-64666000D02*
X111858000Y-63721000D01*
X101025000Y-63177604D02*
X101025000Y-61186827D01*
X112803000Y-65246000D02*
X112803000Y-64666000D01*
X100417173Y-60579000D02*
X98687000Y-60579000D01*
X97703000Y-59595000D02*
X97703000Y-57805000D01*
X101568396Y-63721000D02*
X101025000Y-63177604D01*
X101025000Y-61186827D02*
X100417173Y-60579000D01*
X111858000Y-63721000D02*
X101568396Y-63721000D01*
D44*
X114053000Y-79763000D02*
X114053000Y-79716000D01*
D42*
X101147828Y-96500000D02*
X98175000Y-96500000D01*
X113792000Y-98604000D02*
X113767000Y-98629000D01*
X98833000Y-83667000D02*
X98833000Y-82746000D01*
X113767000Y-98629000D02*
X111000000Y-98629000D01*
X102125828Y-97478000D02*
X101147828Y-96500000D01*
X98175000Y-96500000D02*
X97925000Y-96750000D01*
X111000000Y-98629000D02*
X109849000Y-97478000D01*
X98500000Y-84000000D02*
X98833000Y-83667000D01*
X109849000Y-97478000D02*
X102125828Y-97478000D01*
X112041000Y-69798847D02*
X112041000Y-69188000D01*
X103500000Y-92500000D02*
X103500000Y-95372000D01*
X112943000Y-68286000D02*
X114053000Y-68286000D01*
X99759970Y-81500000D02*
X99930970Y-81671000D01*
X112877600Y-77344953D02*
X112877600Y-70635447D01*
X96500000Y-79500000D02*
X96500000Y-80539447D01*
X97460553Y-81500000D02*
X99759970Y-81500000D01*
X99930970Y-81671000D02*
X110915988Y-81671000D01*
X110915988Y-81671000D02*
X112041000Y-80545988D01*
X96500000Y-80539447D02*
X97460553Y-81500000D01*
X103500000Y-95372000D02*
X103632000Y-95504000D01*
X112041000Y-80545988D02*
X112041000Y-78181553D01*
X112041000Y-78181553D02*
X112877600Y-77344953D01*
X112041000Y-69188000D02*
X112943000Y-68286000D01*
X112877600Y-70635447D02*
X112041000Y-69798847D01*
X111533000Y-81812653D02*
X111533000Y-82746000D01*
X112499053Y-80846600D02*
X111533000Y-81812653D01*
X114000000Y-63000000D02*
X114000000Y-61714000D01*
X113511000Y-80846600D02*
X112499053Y-80846600D01*
X114000000Y-61714000D02*
X114500000Y-61214000D01*
X112776000Y-69494400D02*
X113411400Y-69494400D01*
X113411400Y-69494400D02*
X113473000Y-69556000D01*
X104000000Y-61486500D02*
X105500000Y-62986500D01*
X105500000Y-62986500D02*
X107500000Y-62986500D01*
X113473000Y-69556000D02*
X114053000Y-69556000D01*
X104000000Y-61214000D02*
X104000000Y-61486500D01*
X111000000Y-61214000D02*
X111194497Y-61214000D01*
X112803000Y-81588389D02*
X112803000Y-82746000D01*
X111194497Y-61214000D02*
X112980497Y-63000000D01*
X112807196Y-81584193D02*
X112803000Y-81588389D01*
X107500000Y-61214000D02*
X109272500Y-62986500D01*
X109272500Y-62986500D02*
X111500000Y-62986500D01*
X112776000Y-78486000D02*
X113013000Y-78486000D01*
X113013000Y-78486000D02*
X113053000Y-78446000D01*
X113053000Y-78446000D02*
X114053000Y-78446000D01*
X122000000Y-82000000D02*
X122000000Y-80136396D01*
X122000000Y-80136396D02*
X122500000Y-79636396D01*
X122500000Y-79636396D02*
X122500000Y-74500000D01*
X139186828Y-69500000D02*
X144186828Y-64500000D01*
X122500000Y-74500000D02*
X127500000Y-69500000D01*
X153475000Y-64500000D02*
X154975000Y-63000000D01*
X127500000Y-69500000D02*
X139186828Y-69500000D01*
X144186828Y-64500000D02*
X153475000Y-64500000D01*
X120500000Y-83500000D02*
X122000000Y-82000000D01*
X116629000Y-84271000D02*
X117400000Y-83500000D01*
X108993000Y-83493000D02*
X109771000Y-84271000D01*
X108993000Y-82746000D02*
X108993000Y-83493000D01*
X109771000Y-84271000D02*
X116629000Y-84271000D01*
X122000000Y-79500000D02*
X122000000Y-74000000D01*
X126950000Y-69050000D02*
X139000000Y-69050000D01*
X122000000Y-74000000D02*
X126950000Y-69050000D01*
X121500000Y-80000000D02*
X122000000Y-79500000D01*
X145025000Y-63000000D02*
X146475000Y-63000000D01*
X120550000Y-80000000D02*
X121500000Y-80000000D01*
X139000000Y-69025000D02*
X145025000Y-63000000D01*
X113629000Y-83821000D02*
X117450000Y-80000000D01*
X110758000Y-83821000D02*
X113629000Y-83821000D01*
X110263000Y-83326000D02*
X110758000Y-83821000D01*
X110263000Y-82746000D02*
X110263000Y-83326000D01*
D44*
X142000000Y-67500000D02*
X140000000Y-69500000D01*
X132500000Y-90000000D02*
X131000000Y-90000000D01*
X145000000Y-67500000D02*
X142000000Y-67500000D01*
X140125000Y-84000000D02*
X143850000Y-84000000D01*
X134000000Y-88500000D02*
X133000000Y-89500000D01*
X140000000Y-69500000D02*
X140000000Y-76125000D01*
X134000000Y-82125000D02*
X134000000Y-88500000D01*
X133000000Y-92000000D02*
X130500000Y-94500000D01*
X152872500Y-82500000D02*
X155372500Y-85000000D01*
X140000000Y-76125000D02*
X136125000Y-80000000D01*
X145350000Y-82500000D02*
X152872500Y-82500000D01*
X136125000Y-80000000D02*
X140125000Y-84000000D01*
X144350000Y-69000000D02*
X144350000Y-68150000D01*
X136125000Y-80000000D02*
X134000000Y-82125000D01*
X133000000Y-89500000D02*
X133000000Y-92000000D01*
X143850000Y-84000000D02*
X145350000Y-82500000D01*
X144350000Y-68150000D02*
X145000000Y-67500000D01*
X155372500Y-67500000D02*
X145000000Y-67500000D01*
X133000000Y-89500000D02*
X132500000Y-90000000D01*
D42*
X98930624Y-64045361D02*
X98930624Y-65148376D01*
X98930624Y-65148376D02*
X98833000Y-65246000D01*
X102643000Y-65826000D02*
X102643000Y-65246000D01*
X102500000Y-65969000D02*
X102643000Y-65826000D01*
X102500000Y-66500000D02*
X102500000Y-65969000D01*
X108316660Y-84061917D02*
X108218000Y-83963257D01*
X108218000Y-83821000D02*
X107723000Y-83326000D01*
X108218000Y-83963257D02*
X108218000Y-83821000D01*
X107723000Y-83326000D02*
X107723000Y-82746000D01*
X112427600Y-77158557D02*
X112427600Y-70821843D01*
X100117366Y-81221000D02*
X110729592Y-81221000D01*
X99396366Y-80500000D02*
X100117366Y-81221000D01*
X111591000Y-80359592D02*
X111591000Y-77995157D01*
X111591000Y-77995157D02*
X112427600Y-77158557D01*
X112427600Y-70821843D02*
X111533000Y-69927243D01*
X97500000Y-80500000D02*
X99396366Y-80500000D01*
X111533000Y-69927243D02*
X111533000Y-65246000D01*
X110729592Y-81221000D02*
X111591000Y-80359592D01*
D43*
X172735000Y-53425000D02*
X171810000Y-52500000D01*
X179805000Y-53425000D02*
X172735000Y-53425000D01*
X171810000Y-52500000D02*
X171810000Y-56500000D01*
X176995000Y-58505000D02*
X174000000Y-61500000D01*
X179805000Y-58505000D02*
X176995000Y-58505000D01*
X174000000Y-61500000D02*
X170360000Y-61500000D01*
D42*
X111000000Y-54029000D02*
X111000000Y-58114000D01*
X107500000Y-54029000D02*
X107500000Y-58114000D01*
X148000000Y-72500000D02*
X148000000Y-74975000D01*
X148437500Y-80000000D02*
X149500000Y-78937500D01*
X149500000Y-70850000D02*
X147650000Y-69000000D01*
X149500000Y-78937500D02*
X149500000Y-70850000D01*
X148437500Y-80000000D02*
X148937500Y-79500000D01*
X148937500Y-79500000D02*
X155372500Y-79500000D01*
D44*
X98552000Y-95504000D02*
X100965000Y-95504000D01*
X130100000Y-85400000D02*
X131000000Y-85400000D01*
X97536000Y-85305500D02*
X95736000Y-87105500D01*
X140829000Y-96871000D02*
X124859224Y-96871000D01*
X102235000Y-96774000D02*
X115168000Y-96774000D01*
X127500000Y-93216224D02*
X127500000Y-88000000D01*
X95736000Y-92688000D02*
X98552000Y-95504000D01*
X97536000Y-85305500D02*
X97536000Y-82773000D01*
X114500000Y-95504000D02*
X114500000Y-96106000D01*
X122364000Y-96364000D02*
X124352224Y-96364000D01*
X115168000Y-96774000D02*
X116565000Y-98171000D01*
X143200000Y-94500000D02*
X140829000Y-96871000D01*
X124859224Y-96871000D02*
X124352224Y-96364000D01*
X127500000Y-88000000D02*
X130100000Y-85400000D01*
X95736000Y-87105500D02*
X95736000Y-92688000D01*
X124352224Y-96364000D02*
X127500000Y-93216224D01*
X114500000Y-96106000D02*
X115168000Y-96774000D01*
X116565000Y-98171000D02*
X118120000Y-98171000D01*
X97536000Y-82773000D02*
X97563000Y-82746000D01*
X97549100Y-85318600D02*
X97536000Y-85305500D01*
X100965000Y-95504000D02*
X102235000Y-96774000D01*
X100914200Y-85318600D02*
X97549100Y-85318600D01*
X119927000Y-96364000D02*
X118120000Y-98171000D01*
X122364000Y-96364000D02*
X119927000Y-96364000D01*
D42*
X109891000Y-64171000D02*
X101382000Y-64171000D01*
X110236000Y-65219000D02*
X110236000Y-64516000D01*
X101382000Y-64171000D02*
X99568000Y-62357000D01*
X110236000Y-64516000D02*
X109891000Y-64171000D01*
X110263000Y-65246000D02*
X110236000Y-65219000D01*
X107723000Y-65826000D02*
X107723000Y-65246000D01*
X110356800Y-80321000D02*
X110691000Y-79986800D01*
X103374447Y-80321000D02*
X110356800Y-80321000D01*
X110633000Y-70300035D02*
X110633000Y-67251196D01*
X109301604Y-66771000D02*
X108851604Y-66321000D01*
X110691000Y-77622365D02*
X111500000Y-76813365D01*
X108218000Y-66321000D02*
X107723000Y-65826000D01*
X101157813Y-79751000D02*
X102804447Y-79751000D01*
X108851604Y-66321000D02*
X108218000Y-66321000D01*
X100422313Y-80486500D02*
X101157813Y-79751000D01*
X111500000Y-71167035D02*
X110633000Y-70300035D01*
X102804447Y-79751000D02*
X103374447Y-80321000D01*
X110691000Y-79986800D02*
X110691000Y-77622365D01*
X110633000Y-67251196D02*
X110152804Y-66771000D01*
X111500000Y-76813365D02*
X111500000Y-71167035D01*
X110152804Y-66771000D02*
X109301604Y-66771000D01*
X111083000Y-70113639D02*
X111083000Y-67064800D01*
X108993000Y-65826000D02*
X108993000Y-65246000D01*
X111977600Y-76972161D02*
X111977600Y-71008239D01*
X111083000Y-67064800D02*
X110339200Y-66321000D01*
X110543196Y-80771000D02*
X111141000Y-80173196D01*
X111141000Y-77808761D02*
X111977600Y-76972161D01*
X109488000Y-66321000D02*
X108993000Y-65826000D01*
X110339200Y-66321000D02*
X109488000Y-66321000D01*
X102785000Y-80771000D02*
X110543196Y-80771000D01*
X102500000Y-80486000D02*
X102785000Y-80771000D01*
X111141000Y-80173196D02*
X111141000Y-77808761D01*
X111977600Y-71008239D02*
X111083000Y-70113639D01*
D45*
X169000000Y-86425000D02*
X167575000Y-85000000D01*
X179807500Y-86425000D02*
X169000000Y-86425000D01*
X179805000Y-91505000D02*
X165005000Y-91505000D01*
X164500000Y-91000000D02*
X153372500Y-91000000D01*
X165005000Y-91505000D02*
X164500000Y-91000000D01*
X167987500Y-96585000D02*
X167572500Y-97000000D01*
X179805000Y-96585000D02*
X167987500Y-96585000D01*
X170000000Y-70000000D02*
X167575000Y-67575000D01*
X179807500Y-70000000D02*
X170000000Y-70000000D01*
X179805000Y-75000000D02*
X164005000Y-75000000D01*
X162500000Y-73495000D02*
X153372500Y-73495000D01*
X164005000Y-75000000D02*
X162500000Y-73495000D01*
X174705000Y-79705000D02*
X167572500Y-79705000D01*
X179805000Y-80085000D02*
X175085000Y-80085000D01*
X175085000Y-80085000D02*
X174705000Y-79705000D01*
D42*
X97925000Y-64884000D02*
X97563000Y-65246000D01*
X98500000Y-63000000D02*
X97925000Y-63575000D01*
X97925000Y-63575000D02*
X97925000Y-64884000D01*
X104272500Y-84955500D02*
X102643000Y-83326000D01*
X102643000Y-83326000D02*
X102643000Y-82746000D01*
X105227033Y-84955500D02*
X104272500Y-84955500D01*
X98769362Y-67055502D02*
X100143498Y-67055502D01*
X101373000Y-65826000D02*
X101373000Y-65246000D01*
X98412432Y-67412432D02*
X98769362Y-67055502D01*
X100143498Y-67055502D02*
X101373000Y-65826000D01*
X97792908Y-66992509D02*
X98179915Y-66605502D01*
X97483427Y-66992509D02*
X97792908Y-66992509D01*
X98179915Y-66605502D02*
X99323498Y-66605502D01*
X100103000Y-65826000D02*
X100103000Y-65246000D01*
X99323498Y-66605502D02*
X100103000Y-65826000D01*
X103913000Y-83589237D02*
X103913000Y-82746000D01*
X106496403Y-85003597D02*
X105713806Y-84221000D01*
X104544763Y-84221000D02*
X103913000Y-83589237D01*
X105713806Y-84221000D02*
X104544763Y-84221000D01*
D46*
X108000000Y-85700400D02*
X107162600Y-86537800D01*
X108000000Y-85500000D02*
X108000000Y-85700400D01*
X105703000Y-83796000D02*
X106296000Y-83796000D01*
X106296000Y-83796000D02*
X108000000Y-85500000D01*
X107188200Y-89383400D02*
X107238200Y-89433400D01*
X107162600Y-89357800D02*
X107238200Y-89433400D01*
X105183000Y-82746000D02*
X105183000Y-83276000D01*
X104292400Y-86258400D02*
X104571800Y-86537800D01*
X107162600Y-86537800D02*
X107162600Y-89357800D01*
X104571800Y-86537800D02*
X107162600Y-86537800D01*
X105183000Y-83276000D02*
X105703000Y-83796000D01*
X110388200Y-89383400D02*
X110338200Y-89433400D01*
X106453000Y-83202349D02*
X108022568Y-84771917D01*
X108771917Y-84771917D02*
X110412600Y-86412600D01*
X110412600Y-89359000D02*
X110338200Y-89433400D01*
X110412600Y-86537800D02*
X110412600Y-89359000D01*
X110412600Y-86412600D02*
X110412600Y-86537800D01*
X108022568Y-84771917D02*
X108771917Y-84771917D01*
X113309400Y-86258400D02*
X113030000Y-86537800D01*
X113030000Y-86537800D02*
X110412600Y-86537800D01*
X106453000Y-82746000D02*
X106453000Y-83202349D01*
D42*
X144600000Y-79000000D02*
X144100000Y-79500000D01*
X146562500Y-79050000D02*
X146512500Y-79000000D01*
X146500000Y-77500000D02*
X146500000Y-74100000D01*
X105181400Y-66421000D02*
X105183000Y-66419400D01*
X146512500Y-79000000D02*
X144600000Y-79000000D01*
X146562500Y-79050000D02*
X146500000Y-78987500D01*
X146500000Y-74100000D02*
X144400000Y-72000000D01*
X105183000Y-66419400D02*
X105183000Y-65246000D01*
X146500000Y-78987500D02*
X146500000Y-77500000D01*
X108665208Y-66771000D02*
X107398000Y-66771000D01*
X146562500Y-93500000D02*
X146387500Y-93325000D01*
X146387500Y-93325000D02*
X141825000Y-93325000D01*
X142500000Y-87000000D02*
X143900000Y-87000000D01*
X109115208Y-67221000D02*
X108665208Y-66771000D01*
X107398000Y-66771000D02*
X106453000Y-65826000D01*
X140400000Y-91900000D02*
X140400000Y-89100000D01*
X106453000Y-65826000D02*
X106453000Y-65246000D01*
X140400000Y-89100000D02*
X142500000Y-87000000D01*
X141825000Y-93325000D02*
X140400000Y-91900000D01*
X109873532Y-67530468D02*
X109564064Y-67221000D01*
X109564064Y-67221000D02*
X109115208Y-67221000D01*
G04 #@! TA.AperFunction,Conductor*
G36*
X145382967Y-93975052D02*
G01*
X145428992Y-94020361D01*
X145450546Y-94056807D01*
X145568189Y-94174450D01*
X145568191Y-94174451D01*
X145568193Y-94174453D01*
X145711399Y-94259145D01*
X145871169Y-94305562D01*
X145908498Y-94308500D01*
X147065500Y-94308500D01*
X147128500Y-94325381D01*
X147174619Y-94371500D01*
X147191500Y-94434500D01*
X147191500Y-94466000D01*
X147174619Y-94529000D01*
X147128500Y-94575119D01*
X147065500Y-94592000D01*
X146816500Y-94592000D01*
X146816500Y-95146000D01*
X147445158Y-95146000D01*
X147509297Y-95163547D01*
X147573228Y-95201356D01*
X147586399Y-95209145D01*
X147746169Y-95255562D01*
X147783498Y-95258500D01*
X148297906Y-95258500D01*
X148346124Y-95268091D01*
X148387001Y-95295405D01*
X149670487Y-96578891D01*
X149698074Y-96620432D01*
X149707384Y-96669422D01*
X149671420Y-99824436D01*
X149654065Y-99886827D01*
X149608013Y-99932358D01*
X149545428Y-99949000D01*
X115915398Y-99949000D01*
X115848008Y-99929464D01*
X115801515Y-99876913D01*
X115790337Y-99807644D01*
X115817941Y-99743137D01*
X115875764Y-99703396D01*
X115897738Y-99696115D01*
X116048652Y-99603030D01*
X116174030Y-99477652D01*
X116267115Y-99326738D01*
X116322887Y-99158426D01*
X116333500Y-99054545D01*
X116333499Y-99054539D01*
X116334152Y-99048158D01*
X116335050Y-99048249D01*
X116346085Y-99000104D01*
X116381347Y-98956164D01*
X116432233Y-98931983D01*
X116461616Y-98932199D01*
X116461616Y-98929500D01*
X116474633Y-98929500D01*
X116497111Y-98931796D01*
X116498438Y-98931757D01*
X116498442Y-98931758D01*
X116572697Y-98929597D01*
X116574224Y-98929553D01*
X116577888Y-98929500D01*
X116635500Y-98929500D01*
X116698500Y-98946381D01*
X116744619Y-98992500D01*
X116761500Y-99055500D01*
X116761500Y-99069638D01*
X116768011Y-99130201D01*
X116784173Y-99173533D01*
X116819111Y-99267205D01*
X116906738Y-99384261D01*
X117023794Y-99471888D01*
X117023795Y-99471888D01*
X117023796Y-99471889D01*
X117160799Y-99522989D01*
X117221362Y-99529500D01*
X119018638Y-99529500D01*
X119079201Y-99522989D01*
X119216204Y-99471889D01*
X119333261Y-99384261D01*
X119420889Y-99267204D01*
X119464999Y-99148941D01*
X119501530Y-99096903D01*
X119558821Y-99069327D01*
X119622282Y-99073237D01*
X119675753Y-99107636D01*
X119706373Y-99140897D01*
X119736762Y-99173908D01*
X119914421Y-99312187D01*
X119914424Y-99312189D01*
X120112426Y-99419342D01*
X120325365Y-99492444D01*
X120547431Y-99529500D01*
X120772566Y-99529500D01*
X120772569Y-99529500D01*
X120994635Y-99492444D01*
X121207574Y-99419342D01*
X121405576Y-99312189D01*
X121583240Y-99173906D01*
X121735722Y-99008268D01*
X121824518Y-98872354D01*
X121870031Y-98830458D01*
X121930000Y-98815272D01*
X121989969Y-98830458D01*
X122035481Y-98872354D01*
X122124278Y-99008268D01*
X122236525Y-99130200D01*
X122276762Y-99173908D01*
X122454421Y-99312187D01*
X122454424Y-99312189D01*
X122652426Y-99419342D01*
X122865365Y-99492444D01*
X123087431Y-99529500D01*
X123312566Y-99529500D01*
X123312569Y-99529500D01*
X123534635Y-99492444D01*
X123747574Y-99419342D01*
X123945576Y-99312189D01*
X124123240Y-99173906D01*
X124275722Y-99008268D01*
X124364818Y-98871896D01*
X124410329Y-98829999D01*
X124470299Y-98814813D01*
X124530268Y-98829999D01*
X124575782Y-98871897D01*
X124664678Y-99007962D01*
X124817096Y-99173533D01*
X124994697Y-99311766D01*
X125192631Y-99418883D01*
X125405485Y-99491955D01*
X125486000Y-99505391D01*
X125486000Y-98425000D01*
X125994000Y-98425000D01*
X125994000Y-99505391D01*
X126074514Y-99491955D01*
X126287368Y-99418883D01*
X126485302Y-99311766D01*
X126662903Y-99173533D01*
X126815321Y-99007962D01*
X126938419Y-98819548D01*
X127028822Y-98613451D01*
X127076544Y-98425000D01*
X125994000Y-98425000D01*
X125486000Y-98425000D01*
X125486000Y-98043000D01*
X125502881Y-97980000D01*
X125549000Y-97933881D01*
X125612000Y-97917000D01*
X127076544Y-97917000D01*
X127076543Y-97916999D01*
X127043480Y-97786431D01*
X127042307Y-97729642D01*
X127066193Y-97678109D01*
X127110286Y-97642303D01*
X127165625Y-97629500D01*
X127928500Y-97629500D01*
X127991500Y-97646381D01*
X128037619Y-97692500D01*
X128054500Y-97755500D01*
X128054500Y-99069638D01*
X128061011Y-99130201D01*
X128077173Y-99173533D01*
X128112111Y-99267205D01*
X128199738Y-99384261D01*
X128316794Y-99471888D01*
X128316795Y-99471888D01*
X128316796Y-99471889D01*
X128453799Y-99522989D01*
X128514362Y-99529500D01*
X130311638Y-99529500D01*
X130372201Y-99522989D01*
X130509204Y-99471889D01*
X130626261Y-99384261D01*
X130713889Y-99267204D01*
X130757999Y-99148941D01*
X130794530Y-99096903D01*
X130851821Y-99069327D01*
X130915282Y-99073237D01*
X130968753Y-99107636D01*
X130999373Y-99140897D01*
X131029762Y-99173908D01*
X131207421Y-99312187D01*
X131207424Y-99312189D01*
X131405426Y-99419342D01*
X131618365Y-99492444D01*
X131840431Y-99529500D01*
X132065566Y-99529500D01*
X132065569Y-99529500D01*
X132287635Y-99492444D01*
X132500574Y-99419342D01*
X132698576Y-99312189D01*
X132876240Y-99173906D01*
X133028722Y-99008268D01*
X133117518Y-98872354D01*
X133163031Y-98830458D01*
X133223000Y-98815272D01*
X133282969Y-98830458D01*
X133328481Y-98872354D01*
X133417278Y-99008268D01*
X133529525Y-99130200D01*
X133569762Y-99173908D01*
X133747421Y-99312187D01*
X133747424Y-99312189D01*
X133945426Y-99419342D01*
X134158365Y-99492444D01*
X134380431Y-99529500D01*
X134605566Y-99529500D01*
X134605569Y-99529500D01*
X134827635Y-99492444D01*
X135040574Y-99419342D01*
X135238576Y-99312189D01*
X135416240Y-99173906D01*
X135568722Y-99008268D01*
X135657518Y-98872354D01*
X135703031Y-98830458D01*
X135763000Y-98815272D01*
X135822969Y-98830458D01*
X135868481Y-98872354D01*
X135957278Y-99008268D01*
X136069525Y-99130200D01*
X136109762Y-99173908D01*
X136287421Y-99312187D01*
X136287424Y-99312189D01*
X136485426Y-99419342D01*
X136698365Y-99492444D01*
X136920431Y-99529500D01*
X137145566Y-99529500D01*
X137145569Y-99529500D01*
X137367635Y-99492444D01*
X137580574Y-99419342D01*
X137778576Y-99312189D01*
X137956240Y-99173906D01*
X138108722Y-99008268D01*
X138197518Y-98872354D01*
X138243031Y-98830458D01*
X138303000Y-98815272D01*
X138362969Y-98830458D01*
X138408481Y-98872354D01*
X138497278Y-99008268D01*
X138609525Y-99130200D01*
X138649762Y-99173908D01*
X138827421Y-99312187D01*
X138827424Y-99312189D01*
X139025426Y-99419342D01*
X139238365Y-99492444D01*
X139460431Y-99529500D01*
X139685566Y-99529500D01*
X139685569Y-99529500D01*
X139907635Y-99492444D01*
X140120574Y-99419342D01*
X140318576Y-99312189D01*
X140496240Y-99173906D01*
X140648722Y-99008268D01*
X140737518Y-98872354D01*
X140783031Y-98830458D01*
X140843000Y-98815272D01*
X140902969Y-98830458D01*
X140948481Y-98872354D01*
X141037278Y-99008268D01*
X141149525Y-99130200D01*
X141189762Y-99173908D01*
X141367421Y-99312187D01*
X141367424Y-99312189D01*
X141565426Y-99419342D01*
X141778365Y-99492444D01*
X142000431Y-99529500D01*
X142225566Y-99529500D01*
X142225569Y-99529500D01*
X142447635Y-99492444D01*
X142660574Y-99419342D01*
X142858576Y-99312189D01*
X143036240Y-99173906D01*
X143188722Y-99008268D01*
X143277518Y-98872354D01*
X143323031Y-98830458D01*
X143383000Y-98815272D01*
X143442969Y-98830458D01*
X143488481Y-98872354D01*
X143577278Y-99008268D01*
X143689525Y-99130200D01*
X143729762Y-99173908D01*
X143907421Y-99312187D01*
X143907424Y-99312189D01*
X144105426Y-99419342D01*
X144318365Y-99492444D01*
X144540431Y-99529500D01*
X144765566Y-99529500D01*
X144765569Y-99529500D01*
X144987635Y-99492444D01*
X145200574Y-99419342D01*
X145398576Y-99312189D01*
X145576240Y-99173906D01*
X145728722Y-99008268D01*
X145851860Y-98819791D01*
X145942296Y-98613616D01*
X145997564Y-98395368D01*
X146016156Y-98171000D01*
X145997564Y-97946632D01*
X145942296Y-97728384D01*
X145851860Y-97522209D01*
X145728722Y-97333732D01*
X145576240Y-97168094D01*
X145576239Y-97168093D01*
X145576237Y-97168091D01*
X145398578Y-97029812D01*
X145200573Y-96922657D01*
X145047510Y-96870111D01*
X144987635Y-96849556D01*
X144765569Y-96812500D01*
X144540431Y-96812500D01*
X144318365Y-96849556D01*
X144318362Y-96849556D01*
X144318362Y-96849557D01*
X144105426Y-96922657D01*
X143907421Y-97029812D01*
X143729762Y-97168091D01*
X143577278Y-97333731D01*
X143488483Y-97469643D01*
X143442969Y-97511541D01*
X143383000Y-97526727D01*
X143323031Y-97511541D01*
X143277517Y-97469643D01*
X143269486Y-97457350D01*
X143188722Y-97333732D01*
X143036240Y-97168094D01*
X143036239Y-97168093D01*
X143036237Y-97168091D01*
X142858578Y-97029812D01*
X142660573Y-96922657D01*
X142524793Y-96876044D01*
X142447635Y-96849556D01*
X142447632Y-96849555D01*
X142447631Y-96849555D01*
X142239575Y-96814836D01*
X142177891Y-96785857D01*
X142140321Y-96728995D01*
X142137856Y-96660888D01*
X142171217Y-96601462D01*
X142893096Y-95879583D01*
X142943749Y-95848687D01*
X143002928Y-95844399D01*
X143028625Y-95848687D01*
X143087429Y-95858500D01*
X143087431Y-95858500D01*
X143312566Y-95858500D01*
X143312569Y-95858500D01*
X143534635Y-95821444D01*
X143747574Y-95748342D01*
X143921903Y-95654000D01*
X145320007Y-95654000D01*
X145366318Y-95813399D01*
X145450947Y-95956501D01*
X145568498Y-96074052D01*
X145711600Y-96158681D01*
X145871247Y-96205064D01*
X145908547Y-96208000D01*
X146308500Y-96208000D01*
X146308500Y-95654000D01*
X146816500Y-95654000D01*
X146816500Y-96207999D01*
X147216454Y-96207999D01*
X147253752Y-96205064D01*
X147413398Y-96158682D01*
X147556501Y-96074052D01*
X147674052Y-95956501D01*
X147758681Y-95813399D01*
X147804993Y-95654000D01*
X146816500Y-95654000D01*
X146308500Y-95654000D01*
X145320007Y-95654000D01*
X143921903Y-95654000D01*
X143945576Y-95641189D01*
X144123240Y-95502906D01*
X144275722Y-95337268D01*
X144398860Y-95148791D01*
X144400084Y-95146000D01*
X145320007Y-95146000D01*
X146308500Y-95146000D01*
X146308500Y-94592001D01*
X145908546Y-94592001D01*
X145871247Y-94594935D01*
X145711601Y-94641317D01*
X145568498Y-94725947D01*
X145450947Y-94843498D01*
X145366318Y-94986600D01*
X145320007Y-95146000D01*
X144400084Y-95146000D01*
X144489296Y-94942616D01*
X144544564Y-94724368D01*
X144563156Y-94500000D01*
X144544564Y-94275632D01*
X144503996Y-94115431D01*
X144502822Y-94058643D01*
X144526708Y-94007109D01*
X144570801Y-93971303D01*
X144626140Y-93958500D01*
X145320539Y-93958500D01*
X145382967Y-93975052D01*
G37*
G04 #@! TD.AperFunction*
G04 #@! TA.AperFunction,Conductor*
G36*
X95175436Y-93219538D02*
G01*
X95225595Y-93250276D01*
X97322535Y-95347216D01*
X97353029Y-95396632D01*
X97358124Y-95454477D01*
X97336736Y-95508463D01*
X97293410Y-95547124D01*
X97179423Y-95608811D01*
X97001762Y-95747091D01*
X96849278Y-95912731D01*
X96726139Y-96101209D01*
X96635702Y-96307388D01*
X96584422Y-96509890D01*
X96580436Y-96525632D01*
X96561844Y-96750000D01*
X96580436Y-96974368D01*
X96580436Y-96974371D01*
X96580437Y-96974372D01*
X96635702Y-97192611D01*
X96726139Y-97398790D01*
X96752135Y-97438580D01*
X96849278Y-97587268D01*
X96979189Y-97728388D01*
X97001762Y-97752908D01*
X97044832Y-97786431D01*
X97179424Y-97891189D01*
X97377426Y-97998342D01*
X97590365Y-98071444D01*
X97812431Y-98108500D01*
X98037566Y-98108500D01*
X98037569Y-98108500D01*
X98259635Y-98071444D01*
X98472574Y-97998342D01*
X98627174Y-97914676D01*
X98687272Y-97899491D01*
X98747340Y-97914801D01*
X98792838Y-97956903D01*
X98812754Y-98015605D01*
X98831390Y-98252403D01*
X98890495Y-98498591D01*
X98938071Y-98613451D01*
X98987384Y-98732502D01*
X99119672Y-98948376D01*
X99284102Y-99140898D01*
X99476624Y-99305328D01*
X99692498Y-99437616D01*
X99926409Y-99534505D01*
X100103536Y-99577029D01*
X100172596Y-99593609D01*
X100191011Y-99595058D01*
X100425000Y-99613474D01*
X100677403Y-99593609D01*
X100923591Y-99534505D01*
X101157502Y-99437616D01*
X101373376Y-99305328D01*
X101565898Y-99140898D01*
X101730328Y-98948376D01*
X101862616Y-98732502D01*
X101924092Y-98584083D01*
X101966439Y-98530368D01*
X102030614Y-98506692D01*
X102097702Y-98520037D01*
X102147932Y-98566469D01*
X102166500Y-98632304D01*
X102166500Y-99054540D01*
X102174230Y-99130201D01*
X102177113Y-99158426D01*
X102232885Y-99326738D01*
X102325207Y-99476415D01*
X102325972Y-99477655D01*
X102451344Y-99603027D01*
X102451346Y-99603028D01*
X102451348Y-99603030D01*
X102602262Y-99696115D01*
X102624235Y-99703396D01*
X102682059Y-99743137D01*
X102709663Y-99807644D01*
X102698485Y-99876913D01*
X102651992Y-99929464D01*
X102584602Y-99949000D01*
X95136500Y-99949000D01*
X95073500Y-99932119D01*
X95027381Y-99886000D01*
X95010500Y-99823000D01*
X95010500Y-93339371D01*
X95024233Y-93282168D01*
X95062439Y-93237435D01*
X95116789Y-93214922D01*
X95175436Y-93219538D01*
G37*
G04 #@! TD.AperFunction*
G04 #@! TA.AperFunction,Conductor*
G36*
X102213843Y-50055342D02*
G01*
X102260075Y-50102594D01*
X102276021Y-50166749D01*
X102257291Y-50230148D01*
X102233343Y-50268972D01*
X102177606Y-50437176D01*
X102167000Y-50540998D01*
X102167000Y-50800000D01*
X116332999Y-50800000D01*
X116332999Y-50540997D01*
X116322393Y-50437176D01*
X116266656Y-50268972D01*
X116242709Y-50230148D01*
X116223979Y-50166749D01*
X116239925Y-50102594D01*
X116286157Y-50055342D01*
X116349949Y-50038000D01*
X122874000Y-50038000D01*
X122937000Y-50054881D01*
X122983119Y-50101000D01*
X123000000Y-50164000D01*
X123000000Y-71000000D01*
X123799905Y-71000000D01*
X123857108Y-71013733D01*
X123901841Y-71051939D01*
X123924354Y-71106289D01*
X123919738Y-71164936D01*
X123889000Y-71215093D01*
X123299787Y-71804307D01*
X121611336Y-73492757D01*
X121595016Y-73505833D01*
X121546370Y-73557635D01*
X121543620Y-73560473D01*
X121523868Y-73580226D01*
X121523864Y-73580230D01*
X121523865Y-73580230D01*
X121521379Y-73583433D01*
X121513687Y-73592439D01*
X121483413Y-73624678D01*
X121473652Y-73642434D01*
X121462801Y-73658952D01*
X121450385Y-73674959D01*
X121432824Y-73715539D01*
X121427604Y-73726195D01*
X121406304Y-73764940D01*
X121401267Y-73784559D01*
X121394864Y-73803261D01*
X121386818Y-73821855D01*
X121379901Y-73865524D01*
X121377495Y-73877144D01*
X121366500Y-73919970D01*
X121366500Y-73940224D01*
X121364949Y-73959934D01*
X121361779Y-73979942D01*
X121365941Y-74023961D01*
X121366500Y-74035819D01*
X121366500Y-78089465D01*
X121352684Y-78146831D01*
X121314264Y-78191616D01*
X121259668Y-78213998D01*
X121200868Y-78209070D01*
X121104427Y-78177113D01*
X121087112Y-78175344D01*
X121000545Y-78166500D01*
X121000540Y-78166500D01*
X120099459Y-78166500D01*
X119995573Y-78177113D01*
X119827262Y-78232885D01*
X119676344Y-78325972D01*
X119550972Y-78451344D01*
X119499829Y-78534259D01*
X119457885Y-78602262D01*
X119402113Y-78770574D01*
X119395685Y-78833498D01*
X119391500Y-78874459D01*
X119391500Y-81125540D01*
X119401379Y-81222245D01*
X119402113Y-81229426D01*
X119457885Y-81397738D01*
X119549059Y-81545554D01*
X119550972Y-81548655D01*
X119638568Y-81636251D01*
X119668487Y-81683973D01*
X119674622Y-81739963D01*
X119655749Y-81793032D01*
X119634844Y-81813639D01*
X119636761Y-81815556D01*
X119500972Y-81951344D01*
X119485800Y-81975942D01*
X119407885Y-82102262D01*
X119352113Y-82270574D01*
X119343857Y-82351390D01*
X119341500Y-82374459D01*
X119341500Y-84625540D01*
X119347789Y-84687101D01*
X119352113Y-84729426D01*
X119407885Y-84897738D01*
X119500970Y-85048652D01*
X119500972Y-85048655D01*
X119626344Y-85174027D01*
X119626346Y-85174028D01*
X119626348Y-85174030D01*
X119777262Y-85267115D01*
X119945574Y-85322887D01*
X120049455Y-85333500D01*
X120950544Y-85333499D01*
X121054426Y-85322887D01*
X121222738Y-85267115D01*
X121373652Y-85174030D01*
X121499030Y-85048652D01*
X121592115Y-84897738D01*
X121647887Y-84729426D01*
X121658500Y-84625545D01*
X121658499Y-83289592D01*
X121668090Y-83241375D01*
X121695401Y-83200501D01*
X122388658Y-82507244D01*
X122404979Y-82494170D01*
X122407014Y-82492002D01*
X122407018Y-82492000D01*
X122453677Y-82442311D01*
X122456368Y-82439534D01*
X122476134Y-82419770D01*
X122478605Y-82416583D01*
X122486312Y-82407559D01*
X122516586Y-82375321D01*
X122526343Y-82357570D01*
X122537199Y-82341043D01*
X122549613Y-82325041D01*
X122567172Y-82284461D01*
X122572392Y-82273809D01*
X122593694Y-82235061D01*
X122593695Y-82235060D01*
X122598732Y-82215439D01*
X122605138Y-82196730D01*
X122613181Y-82178145D01*
X122620096Y-82134476D01*
X122622496Y-82122881D01*
X122633500Y-82080030D01*
X122633500Y-82059769D01*
X122635051Y-82040058D01*
X122638219Y-82020055D01*
X122634059Y-81976046D01*
X122633500Y-81964189D01*
X122633500Y-80450990D01*
X122643091Y-80402772D01*
X122670401Y-80361898D01*
X122778299Y-80254000D01*
X131829500Y-80254000D01*
X131829500Y-81150503D01*
X131840106Y-81254328D01*
X131895840Y-81422522D01*
X131988867Y-81573342D01*
X132114157Y-81698632D01*
X132264977Y-81791659D01*
X132433171Y-81847393D01*
X132536997Y-81858000D01*
X132746000Y-81858000D01*
X132746000Y-80254000D01*
X131829500Y-80254000D01*
X122778299Y-80254000D01*
X122888665Y-80143634D01*
X122904980Y-80130565D01*
X122907014Y-80128397D01*
X122907018Y-80128396D01*
X122953661Y-80078724D01*
X122956352Y-80075947D01*
X122976135Y-80056166D01*
X122978621Y-80052960D01*
X122986310Y-80043957D01*
X123016586Y-80011717D01*
X123026342Y-79993967D01*
X123037195Y-79977446D01*
X123049614Y-79961437D01*
X123067175Y-79920850D01*
X123072388Y-79910209D01*
X123093695Y-79871456D01*
X123098733Y-79851830D01*
X123105137Y-79833128D01*
X123113181Y-79814540D01*
X123114036Y-79809145D01*
X123120096Y-79770877D01*
X123122504Y-79759249D01*
X123125906Y-79746000D01*
X131829500Y-79746000D01*
X132746000Y-79746000D01*
X132746000Y-78142000D01*
X133254000Y-78142000D01*
X133254000Y-79746000D01*
X134170500Y-79746000D01*
X134170500Y-78849497D01*
X134159893Y-78745671D01*
X134104159Y-78577477D01*
X134011132Y-78426657D01*
X133885842Y-78301367D01*
X133735022Y-78208340D01*
X133566828Y-78152606D01*
X133463003Y-78142000D01*
X133254000Y-78142000D01*
X132746000Y-78142000D01*
X132536997Y-78142000D01*
X132433171Y-78152606D01*
X132264977Y-78208340D01*
X132114157Y-78301367D01*
X131988867Y-78426657D01*
X131895840Y-78577477D01*
X131840106Y-78745671D01*
X131829500Y-78849497D01*
X131829500Y-79746000D01*
X123125906Y-79746000D01*
X123133500Y-79716425D01*
X123133500Y-79696172D01*
X123135051Y-79676462D01*
X123138220Y-79656453D01*
X123136050Y-79633500D01*
X123134058Y-79612434D01*
X123133500Y-79600577D01*
X123133500Y-75265050D01*
X129094160Y-75265050D01*
X129170952Y-75318821D01*
X129382345Y-75417395D01*
X129607641Y-75477762D01*
X129840000Y-75498091D01*
X130072358Y-75477762D01*
X130297654Y-75417395D01*
X130509043Y-75318822D01*
X130585838Y-75265049D01*
X129840000Y-74519210D01*
X129839999Y-74519210D01*
X129094160Y-75265048D01*
X129094160Y-75265050D01*
X123133500Y-75265050D01*
X123133500Y-74814594D01*
X123143091Y-74766376D01*
X123170405Y-74725499D01*
X123735904Y-74160000D01*
X128501908Y-74160000D01*
X128522237Y-74392358D01*
X128582604Y-74617654D01*
X128681180Y-74829049D01*
X128734948Y-74905838D01*
X129480789Y-74160000D01*
X130199210Y-74160000D01*
X130945048Y-74905838D01*
X130945049Y-74905838D01*
X130998822Y-74829043D01*
X131097395Y-74617654D01*
X131157762Y-74392358D01*
X131178091Y-74160000D01*
X131157762Y-73927641D01*
X131097395Y-73702345D01*
X130998821Y-73490952D01*
X130945050Y-73414160D01*
X130945049Y-73414160D01*
X130199210Y-74159999D01*
X130199210Y-74160000D01*
X129480789Y-74160000D01*
X129480789Y-74159999D01*
X128734949Y-73414159D01*
X128681180Y-73490950D01*
X128582604Y-73702345D01*
X128522237Y-73927641D01*
X128501908Y-74160000D01*
X123735904Y-74160000D01*
X124840955Y-73054949D01*
X129094159Y-73054949D01*
X129839999Y-73800789D01*
X129840000Y-73800789D01*
X130585838Y-73054948D01*
X130585838Y-73054947D01*
X130509049Y-73001180D01*
X130297654Y-72902604D01*
X130072358Y-72842237D01*
X129840000Y-72821908D01*
X129607641Y-72842237D01*
X129382345Y-72902604D01*
X129170950Y-73001180D01*
X129094159Y-73054949D01*
X124840955Y-73054949D01*
X126859000Y-71036905D01*
X126899877Y-71009591D01*
X126948095Y-71000000D01*
X139115500Y-71000000D01*
X139178500Y-71016881D01*
X139224619Y-71063000D01*
X139241500Y-71126000D01*
X139241500Y-72997614D01*
X139227263Y-73055795D01*
X139187770Y-73100827D01*
X139139570Y-73134576D01*
X138974578Y-73299567D01*
X138840744Y-73490702D01*
X138742132Y-73702174D01*
X138681742Y-73927555D01*
X138661406Y-74160000D01*
X138681742Y-74392444D01*
X138742132Y-74617825D01*
X138792342Y-74725499D01*
X138840744Y-74829297D01*
X138974578Y-75020432D01*
X139139568Y-75185422D01*
X139153534Y-75195201D01*
X139187770Y-75219173D01*
X139227263Y-75264205D01*
X139241500Y-75322386D01*
X139241500Y-75758629D01*
X139231909Y-75806847D01*
X139204595Y-75847724D01*
X136903321Y-78148996D01*
X136843284Y-78182505D01*
X136774594Y-78179506D01*
X136735344Y-78166500D01*
X136691927Y-78152113D01*
X136674612Y-78150344D01*
X136588045Y-78141500D01*
X136588040Y-78141500D01*
X135661959Y-78141500D01*
X135558073Y-78152113D01*
X135389762Y-78207885D01*
X135238844Y-78300972D01*
X135113472Y-78426344D01*
X135072242Y-78493189D01*
X135020385Y-78577262D01*
X134964613Y-78745574D01*
X134955631Y-78833498D01*
X134954000Y-78849459D01*
X134954000Y-80046128D01*
X134944409Y-80094346D01*
X134917095Y-80135223D01*
X134385595Y-80666723D01*
X134335436Y-80697461D01*
X134276789Y-80702077D01*
X134222439Y-80679564D01*
X134184233Y-80634831D01*
X134170500Y-80577628D01*
X134170500Y-80254000D01*
X133254000Y-80254000D01*
X133254000Y-81875537D01*
X133259642Y-81884989D01*
X133262332Y-81946606D01*
X133259760Y-81959062D01*
X133258967Y-81962637D01*
X133241192Y-82037640D01*
X133239202Y-82057114D01*
X133241447Y-82134259D01*
X133241500Y-82137923D01*
X133241500Y-88133628D01*
X133231909Y-88181846D01*
X133204595Y-88222724D01*
X132692911Y-88734406D01*
X132634104Y-88767616D01*
X132566594Y-88765687D01*
X132509779Y-88729173D01*
X132479981Y-88668565D01*
X132485761Y-88601276D01*
X132501494Y-88559093D01*
X132508000Y-88498589D01*
X132508000Y-87954000D01*
X129492000Y-87954000D01*
X129492000Y-88498589D01*
X129498505Y-88559093D01*
X129549553Y-88695960D01*
X129608028Y-88774072D01*
X129630280Y-88822798D01*
X129630281Y-88876365D01*
X129608028Y-88925091D01*
X129549111Y-89003794D01*
X129498011Y-89140799D01*
X129491500Y-89201362D01*
X129491500Y-90798638D01*
X129498011Y-90859200D01*
X129549111Y-90996205D01*
X129636738Y-91113261D01*
X129753794Y-91200888D01*
X129753795Y-91200888D01*
X129753796Y-91200889D01*
X129890799Y-91251989D01*
X129951362Y-91258500D01*
X132048638Y-91258500D01*
X132048640Y-91258500D01*
X132102032Y-91252760D01*
X132170555Y-91264703D01*
X132222301Y-91311184D01*
X132241500Y-91378038D01*
X132241500Y-91633629D01*
X132231909Y-91681847D01*
X132204595Y-91722724D01*
X130822724Y-93104595D01*
X130781847Y-93131909D01*
X130733629Y-93141500D01*
X129601362Y-93141500D01*
X129540799Y-93148011D01*
X129403794Y-93199111D01*
X129286738Y-93286738D01*
X129199111Y-93403794D01*
X129164018Y-93497883D01*
X129148011Y-93540799D01*
X129141500Y-93601362D01*
X129141500Y-95398638D01*
X129148011Y-95459201D01*
X129163847Y-95501658D01*
X129199111Y-95596205D01*
X129286738Y-95713261D01*
X129403794Y-95800888D01*
X129403795Y-95800888D01*
X129403796Y-95800889D01*
X129540799Y-95851989D01*
X129601362Y-95858500D01*
X131398638Y-95858500D01*
X131459201Y-95851989D01*
X131596204Y-95800889D01*
X131713261Y-95713261D01*
X131800889Y-95596204D01*
X131844999Y-95477941D01*
X131881530Y-95425903D01*
X131938821Y-95398327D01*
X132002282Y-95402237D01*
X132055753Y-95436636D01*
X132092190Y-95476216D01*
X132116762Y-95502908D01*
X132294421Y-95641187D01*
X132294424Y-95641189D01*
X132492426Y-95748342D01*
X132705365Y-95821444D01*
X132927431Y-95858500D01*
X133152566Y-95858500D01*
X133152569Y-95858500D01*
X133374635Y-95821444D01*
X133587574Y-95748342D01*
X133785576Y-95641189D01*
X133963240Y-95502906D01*
X134115722Y-95337268D01*
X134204518Y-95201354D01*
X134250031Y-95159458D01*
X134310000Y-95144272D01*
X134369969Y-95159458D01*
X134415481Y-95201354D01*
X134504278Y-95337268D01*
X134616525Y-95459200D01*
X134656762Y-95502908D01*
X134834421Y-95641187D01*
X134834424Y-95641189D01*
X135032426Y-95748342D01*
X135245365Y-95821444D01*
X135467431Y-95858500D01*
X135692566Y-95858500D01*
X135692569Y-95858500D01*
X135914635Y-95821444D01*
X136127574Y-95748342D01*
X136325576Y-95641189D01*
X136503240Y-95502906D01*
X136655722Y-95337268D01*
X136744818Y-95200896D01*
X136790329Y-95158999D01*
X136850299Y-95143813D01*
X136910268Y-95158999D01*
X136955782Y-95200897D01*
X137044678Y-95336962D01*
X137197096Y-95502533D01*
X137374697Y-95640766D01*
X137572631Y-95747883D01*
X137785485Y-95820955D01*
X137866000Y-95834391D01*
X137866000Y-93165609D01*
X137785485Y-93179044D01*
X137572631Y-93252116D01*
X137374697Y-93359233D01*
X137197096Y-93497466D01*
X137044678Y-93663037D01*
X136955782Y-93799102D01*
X136910268Y-93841000D01*
X136850299Y-93856186D01*
X136790329Y-93841000D01*
X136744816Y-93799101D01*
X136729429Y-93775549D01*
X136655722Y-93662732D01*
X136503240Y-93497094D01*
X136503239Y-93497093D01*
X136503237Y-93497091D01*
X136325578Y-93358812D01*
X136127573Y-93251657D01*
X135916056Y-93179044D01*
X135914635Y-93178556D01*
X135692569Y-93141500D01*
X135467431Y-93141500D01*
X135245365Y-93178556D01*
X135245362Y-93178556D01*
X135245362Y-93178557D01*
X135032426Y-93251657D01*
X134834421Y-93358812D01*
X134656762Y-93497091D01*
X134504278Y-93662731D01*
X134415483Y-93798643D01*
X134369969Y-93840541D01*
X134310000Y-93855727D01*
X134250031Y-93840541D01*
X134204517Y-93798643D01*
X134137018Y-93695328D01*
X134115722Y-93662732D01*
X133963240Y-93497094D01*
X133963239Y-93497093D01*
X133963237Y-93497091D01*
X133785578Y-93358812D01*
X133587573Y-93251657D01*
X133376056Y-93179044D01*
X133374635Y-93178556D01*
X133204282Y-93150129D01*
X133142600Y-93121150D01*
X133105030Y-93064289D01*
X133102565Y-92996181D01*
X133135926Y-92936754D01*
X133490780Y-92581899D01*
X133504628Y-92569933D01*
X133524058Y-92555469D01*
X133556226Y-92517131D01*
X133563642Y-92509037D01*
X133567581Y-92505100D01*
X133587012Y-92480523D01*
X133589286Y-92477731D01*
X133638032Y-92419640D01*
X133638033Y-92419636D01*
X133638890Y-92418616D01*
X133649402Y-92402117D01*
X133662597Y-92373819D01*
X133682036Y-92332131D01*
X133683544Y-92329015D01*
X133717609Y-92261188D01*
X133717610Y-92261179D01*
X133718212Y-92259983D01*
X133724634Y-92241509D01*
X133738567Y-92174027D01*
X133740241Y-92165919D01*
X133741022Y-92162397D01*
X133758500Y-92088656D01*
X133758500Y-92088654D01*
X133758808Y-92087355D01*
X133760797Y-92067885D01*
X133760758Y-92066560D01*
X133760759Y-92066558D01*
X133758553Y-91990741D01*
X133758500Y-91987077D01*
X133758500Y-90754000D01*
X135842000Y-90754000D01*
X135842000Y-91625503D01*
X135852606Y-91729328D01*
X135908340Y-91897522D01*
X136001367Y-92048342D01*
X136126657Y-92173632D01*
X136277477Y-92266659D01*
X136445671Y-92322393D01*
X136549497Y-92333000D01*
X136746000Y-92333000D01*
X136746000Y-90754000D01*
X137254000Y-90754000D01*
X137254000Y-92333000D01*
X137450503Y-92333000D01*
X137554328Y-92322393D01*
X137722522Y-92266659D01*
X137873342Y-92173632D01*
X137998632Y-92048342D01*
X138091659Y-91897522D01*
X138147393Y-91729328D01*
X138158000Y-91625503D01*
X138158000Y-90754000D01*
X137254000Y-90754000D01*
X136746000Y-90754000D01*
X135842000Y-90754000D01*
X133758500Y-90754000D01*
X133758500Y-90246000D01*
X135842000Y-90246000D01*
X136746000Y-90246000D01*
X136746000Y-88667000D01*
X137254000Y-88667000D01*
X137254000Y-90246000D01*
X138158000Y-90246000D01*
X138158000Y-89374497D01*
X138147393Y-89270671D01*
X138091659Y-89102477D01*
X137998632Y-88951657D01*
X137873342Y-88826367D01*
X137722522Y-88733340D01*
X137554328Y-88677606D01*
X137450503Y-88667000D01*
X137254000Y-88667000D01*
X136746000Y-88667000D01*
X136549497Y-88667000D01*
X136445671Y-88677606D01*
X136277477Y-88733340D01*
X136126657Y-88826367D01*
X136001367Y-88951657D01*
X135908340Y-89102477D01*
X135852606Y-89270671D01*
X135842000Y-89374497D01*
X135842000Y-90246000D01*
X133758500Y-90246000D01*
X133758500Y-89866372D01*
X133768091Y-89818154D01*
X133795404Y-89777277D01*
X133969188Y-89603493D01*
X134490780Y-89081899D01*
X134504628Y-89069933D01*
X134524058Y-89055469D01*
X134556226Y-89017131D01*
X134563642Y-89009037D01*
X134567581Y-89005100D01*
X134587012Y-88980523D01*
X134589286Y-88977731D01*
X134638032Y-88919640D01*
X134638033Y-88919636D01*
X134638890Y-88918616D01*
X134649402Y-88902117D01*
X134653155Y-88894068D01*
X134682036Y-88832131D01*
X134683544Y-88829015D01*
X134717609Y-88761188D01*
X134717610Y-88761179D01*
X134718212Y-88759983D01*
X134724634Y-88741509D01*
X134740121Y-88666501D01*
X134740241Y-88665919D01*
X134741022Y-88662397D01*
X134758500Y-88588656D01*
X134758500Y-88588654D01*
X134758808Y-88587355D01*
X134760797Y-88567885D01*
X134760758Y-88566560D01*
X134760759Y-88566558D01*
X134758553Y-88490741D01*
X134758500Y-88487077D01*
X134758500Y-82491372D01*
X134768091Y-82443154D01*
X134795404Y-82402277D01*
X134927108Y-82270573D01*
X135346678Y-81851001D01*
X135406714Y-81817494D01*
X135475402Y-81820492D01*
X135558074Y-81847887D01*
X135661955Y-81858500D01*
X136588044Y-81858499D01*
X136691926Y-81847887D01*
X136774596Y-81820492D01*
X136843285Y-81817494D01*
X136903322Y-81851003D01*
X139543092Y-84490773D01*
X139555060Y-84504620D01*
X139561586Y-84513386D01*
X139569531Y-84524058D01*
X139607870Y-84556228D01*
X139615974Y-84563654D01*
X139619899Y-84567580D01*
X139644502Y-84587034D01*
X139647293Y-84589308D01*
X139706382Y-84638890D01*
X139722889Y-84649405D01*
X139792794Y-84682002D01*
X139796094Y-84683600D01*
X139865000Y-84718206D01*
X139883485Y-84724631D01*
X139884791Y-84724900D01*
X139884794Y-84724902D01*
X139959113Y-84740247D01*
X139962525Y-84741003D01*
X140036344Y-84758500D01*
X140036347Y-84758500D01*
X140037642Y-84758807D01*
X140057111Y-84760796D01*
X140058438Y-84760757D01*
X140058442Y-84760758D01*
X140132697Y-84758597D01*
X140134224Y-84758553D01*
X140137888Y-84758500D01*
X142929415Y-84758500D01*
X142990821Y-84774476D01*
X143036655Y-84818352D01*
X143045716Y-84833042D01*
X143166956Y-84954282D01*
X143166958Y-84954283D01*
X143166960Y-84954285D01*
X143234412Y-84995890D01*
X143281671Y-85048223D01*
X143293411Y-85117755D01*
X143265953Y-85182706D01*
X143207898Y-85222733D01*
X143177263Y-85232884D01*
X143026344Y-85325972D01*
X142900972Y-85451344D01*
X142849829Y-85534259D01*
X142807885Y-85602262D01*
X142752113Y-85770574D01*
X142741708Y-85872426D01*
X142741500Y-85874459D01*
X142741500Y-85956716D01*
X142729225Y-86010962D01*
X142694791Y-86054639D01*
X142644908Y-86079236D01*
X142609781Y-86079694D01*
X142609781Y-86081500D01*
X142596538Y-86081500D01*
X142403462Y-86081500D01*
X142277557Y-86108261D01*
X142214604Y-86121643D01*
X142038219Y-86200175D01*
X141882016Y-86313663D01*
X141752825Y-86457144D01*
X141656286Y-86624354D01*
X141596623Y-86807979D01*
X141577857Y-86986527D01*
X141566273Y-87027601D01*
X141541642Y-87062451D01*
X140011336Y-88592757D01*
X139995016Y-88605833D01*
X139975370Y-88626754D01*
X139933561Y-88656137D01*
X139883522Y-88666500D01*
X139649459Y-88666500D01*
X139545573Y-88677113D01*
X139377262Y-88732885D01*
X139226344Y-88825972D01*
X139100972Y-88951344D01*
X139067818Y-89005096D01*
X139007885Y-89102262D01*
X138982616Y-89178520D01*
X138952113Y-89270574D01*
X138941500Y-89374459D01*
X138941500Y-91625540D01*
X138947658Y-91685819D01*
X138952113Y-91729426D01*
X139007885Y-91897738D01*
X139100970Y-92048652D01*
X139100972Y-92048655D01*
X139226344Y-92174027D01*
X139226346Y-92174028D01*
X139226348Y-92174030D01*
X139377262Y-92267115D01*
X139545574Y-92322887D01*
X139649455Y-92333500D01*
X139884803Y-92333499D01*
X139927484Y-92340948D01*
X139965118Y-92362413D01*
X139968597Y-92365291D01*
X139977378Y-92373282D01*
X140544170Y-92940074D01*
X140577533Y-92999502D01*
X140575068Y-93067609D01*
X140537498Y-93124471D01*
X140475815Y-93153450D01*
X140325365Y-93178556D01*
X140325362Y-93178556D01*
X140325362Y-93178557D01*
X140112426Y-93251657D01*
X139914421Y-93358812D01*
X139736762Y-93497091D01*
X139584275Y-93662735D01*
X139495182Y-93799101D01*
X139449669Y-93840999D01*
X139389700Y-93856185D01*
X139329731Y-93840999D01*
X139284217Y-93799101D01*
X139195321Y-93663037D01*
X139042903Y-93497466D01*
X138865302Y-93359233D01*
X138667368Y-93252116D01*
X138454514Y-93179044D01*
X138374000Y-93165609D01*
X138374000Y-95834391D01*
X138454514Y-95820955D01*
X138667368Y-95747883D01*
X138865302Y-95640766D01*
X139042903Y-95502533D01*
X139195323Y-95336960D01*
X139284217Y-95200899D01*
X139329730Y-95159000D01*
X139389700Y-95143814D01*
X139449669Y-95159000D01*
X139495183Y-95200898D01*
X139500571Y-95209145D01*
X139584278Y-95337268D01*
X139696525Y-95459200D01*
X139736762Y-95502908D01*
X139914421Y-95641187D01*
X139914424Y-95641189D01*
X140112426Y-95748342D01*
X140325365Y-95821444D01*
X140495718Y-95849870D01*
X140557399Y-95878848D01*
X140594969Y-95935708D01*
X140597435Y-96003814D01*
X140564076Y-96063242D01*
X140551724Y-96075594D01*
X140510849Y-96102908D01*
X140462629Y-96112500D01*
X125980595Y-96112500D01*
X125923392Y-96098767D01*
X125878659Y-96060561D01*
X125856146Y-96006211D01*
X125860762Y-95947564D01*
X125891500Y-95897405D01*
X126403073Y-95385832D01*
X127990777Y-93798126D01*
X128004624Y-93786160D01*
X128024058Y-93771693D01*
X128056226Y-93733355D01*
X128063642Y-93725261D01*
X128067581Y-93721324D01*
X128087012Y-93696747D01*
X128089286Y-93693955D01*
X128138032Y-93635864D01*
X128138033Y-93635860D01*
X128138890Y-93634840D01*
X128149402Y-93618341D01*
X128164723Y-93585484D01*
X128182036Y-93548355D01*
X128183544Y-93545239D01*
X128217609Y-93477412D01*
X128217610Y-93477407D01*
X128218212Y-93476209D01*
X128224634Y-93457733D01*
X128240233Y-93382185D01*
X128241027Y-93378605D01*
X128258807Y-93303585D01*
X128260797Y-93284108D01*
X128260758Y-93282783D01*
X128260759Y-93282781D01*
X128258553Y-93206964D01*
X128258500Y-93203300D01*
X128258500Y-88366371D01*
X128268091Y-88318153D01*
X128295405Y-88277276D01*
X128782893Y-87789788D01*
X129276905Y-87295774D01*
X129327064Y-87265037D01*
X129385711Y-87260421D01*
X129440061Y-87282934D01*
X129478267Y-87327667D01*
X129492000Y-87384870D01*
X129492000Y-87446000D01*
X132508000Y-87446000D01*
X132508000Y-86901411D01*
X132501494Y-86840906D01*
X132450446Y-86704039D01*
X132391971Y-86625927D01*
X132369719Y-86577200D01*
X132369719Y-86523633D01*
X132391971Y-86474908D01*
X132450889Y-86396204D01*
X132501989Y-86259201D01*
X132508500Y-86198638D01*
X132508500Y-84601362D01*
X132501989Y-84540799D01*
X132450889Y-84403796D01*
X132368676Y-84293972D01*
X132363261Y-84286738D01*
X132246205Y-84199111D01*
X132177702Y-84173560D01*
X132109201Y-84148011D01*
X132048638Y-84141500D01*
X129951362Y-84141500D01*
X129890799Y-84148011D01*
X129753794Y-84199111D01*
X129636738Y-84286738D01*
X129549111Y-84403794D01*
X129498011Y-84540799D01*
X129491500Y-84601362D01*
X129491500Y-84883629D01*
X129481909Y-84931847D01*
X129454595Y-84972724D01*
X127009225Y-87418092D01*
X126995377Y-87430061D01*
X126975941Y-87444531D01*
X126943771Y-87482869D01*
X126936357Y-87490961D01*
X126932422Y-87494895D01*
X126912997Y-87519461D01*
X126910688Y-87522294D01*
X126861119Y-87581369D01*
X126850589Y-87597899D01*
X126817995Y-87667794D01*
X126816401Y-87671087D01*
X126781795Y-87739997D01*
X126775363Y-87758500D01*
X126759759Y-87834064D01*
X126758967Y-87837637D01*
X126741192Y-87912640D01*
X126739202Y-87932114D01*
X126741447Y-88009259D01*
X126741500Y-88012923D01*
X126741500Y-92849853D01*
X126731909Y-92898071D01*
X126704595Y-92938948D01*
X124074948Y-95568595D01*
X124034071Y-95595909D01*
X123985853Y-95605500D01*
X122452656Y-95605500D01*
X119991442Y-95605500D01*
X119973182Y-95604170D01*
X119949212Y-95600659D01*
X119949211Y-95600659D01*
X119923075Y-95602945D01*
X119899353Y-95605021D01*
X119888372Y-95605500D01*
X119882816Y-95605500D01*
X119851712Y-95609135D01*
X119848070Y-95609507D01*
X119771260Y-95616227D01*
X119752123Y-95620470D01*
X119679634Y-95646853D01*
X119676176Y-95648055D01*
X119603000Y-95672303D01*
X119585372Y-95680838D01*
X119520918Y-95723229D01*
X119517831Y-95725196D01*
X119452218Y-95765667D01*
X119437032Y-95778038D01*
X119384104Y-95834138D01*
X119381552Y-95836765D01*
X118442724Y-96775595D01*
X118401846Y-96802909D01*
X118353628Y-96812500D01*
X117221362Y-96812500D01*
X117160799Y-96819011D01*
X117023794Y-96870111D01*
X116906738Y-96957738D01*
X116819109Y-97074796D01*
X116812204Y-97093311D01*
X116776661Y-97144503D01*
X116720932Y-97172399D01*
X116658650Y-97170174D01*
X116605054Y-97138373D01*
X116098277Y-96631596D01*
X116065665Y-96575112D01*
X116065665Y-96509890D01*
X116098277Y-96453406D01*
X116174027Y-96377655D01*
X116174030Y-96377652D01*
X116267115Y-96226738D01*
X116322887Y-96058426D01*
X116333500Y-95954545D01*
X116333499Y-95053456D01*
X116322887Y-94949574D01*
X116267115Y-94781262D01*
X116174030Y-94630348D01*
X116174028Y-94630346D01*
X116174027Y-94630344D01*
X116048655Y-94504972D01*
X116029028Y-94492866D01*
X115897738Y-94411885D01*
X115729426Y-94356113D01*
X115625545Y-94345500D01*
X115625540Y-94345500D01*
X113374459Y-94345500D01*
X113270573Y-94356113D01*
X113102262Y-94411885D01*
X112951346Y-94504971D01*
X112857490Y-94598827D01*
X112801006Y-94631438D01*
X112735783Y-94631438D01*
X112679299Y-94598826D01*
X112573339Y-94492865D01*
X112422522Y-94399840D01*
X112254328Y-94344106D01*
X112150503Y-94333500D01*
X111254000Y-94333500D01*
X111254000Y-95632000D01*
X111237119Y-95695000D01*
X111191000Y-95741119D01*
X111128000Y-95758000D01*
X109372798Y-95758000D01*
X109332527Y-95784909D01*
X109284309Y-95794500D01*
X107372000Y-95794500D01*
X107309000Y-95777619D01*
X107262881Y-95731500D01*
X107246000Y-95668500D01*
X107246000Y-94320001D01*
X106374497Y-94320001D01*
X106270676Y-94330606D01*
X106102470Y-94386344D01*
X105951662Y-94479364D01*
X105826449Y-94604577D01*
X105769965Y-94637188D01*
X105704743Y-94637188D01*
X105648259Y-94604576D01*
X105548655Y-94504972D01*
X105529028Y-94492866D01*
X105397738Y-94411885D01*
X105229426Y-94356113D01*
X105125545Y-94345500D01*
X105125541Y-94345500D01*
X104259500Y-94345500D01*
X104196500Y-94328619D01*
X104187881Y-94320000D01*
X107754000Y-94320000D01*
X107754000Y-95286500D01*
X109102202Y-95286500D01*
X109142473Y-95259591D01*
X109190691Y-95250000D01*
X110746000Y-95250000D01*
X110746000Y-94333500D01*
X109849497Y-94333500D01*
X109745671Y-94344106D01*
X109577477Y-94399840D01*
X109426659Y-94492866D01*
X109333344Y-94586181D01*
X109276860Y-94618792D01*
X109211638Y-94618792D01*
X109155154Y-94586180D01*
X109048339Y-94479365D01*
X108897529Y-94386344D01*
X108729323Y-94330606D01*
X108625502Y-94320000D01*
X107754000Y-94320000D01*
X104187881Y-94320000D01*
X104150381Y-94282500D01*
X104133500Y-94219500D01*
X104133500Y-93217469D01*
X104141869Y-93172314D01*
X104165861Y-93133161D01*
X104247175Y-93042854D01*
X104343713Y-92875645D01*
X104403377Y-92692019D01*
X104423559Y-92500000D01*
X104403377Y-92307981D01*
X104372429Y-92212734D01*
X104343713Y-92124354D01*
X104247174Y-91957144D01*
X104117983Y-91813663D01*
X103961780Y-91700174D01*
X103929538Y-91685819D01*
X103785395Y-91621643D01*
X103596538Y-91581500D01*
X103403462Y-91581500D01*
X103305296Y-91602366D01*
X103214604Y-91621643D01*
X103038219Y-91700175D01*
X102882016Y-91813663D01*
X102752825Y-91957144D01*
X102656286Y-92124354D01*
X102596623Y-92307979D01*
X102576441Y-92499999D01*
X102596623Y-92692020D01*
X102656286Y-92875645D01*
X102752823Y-93042852D01*
X102752825Y-93042854D01*
X102834138Y-93133161D01*
X102858131Y-93172314D01*
X102866500Y-93217469D01*
X102866500Y-94233341D01*
X102855706Y-94284367D01*
X102825173Y-94326650D01*
X102780133Y-94352946D01*
X102770576Y-94356112D01*
X102770574Y-94356113D01*
X102602262Y-94411885D01*
X102534259Y-94453829D01*
X102451344Y-94504972D01*
X102325972Y-94630344D01*
X102321751Y-94637188D01*
X102232885Y-94781262D01*
X102177113Y-94949574D01*
X102171274Y-95006733D01*
X102166500Y-95053459D01*
X102166500Y-95328629D01*
X102152767Y-95385832D01*
X102114561Y-95430565D01*
X102060211Y-95453078D01*
X102001564Y-95448462D01*
X101951405Y-95417724D01*
X101546909Y-95013228D01*
X101534937Y-94999375D01*
X101520470Y-94979943D01*
X101484278Y-94949574D01*
X101482127Y-94947769D01*
X101474032Y-94940351D01*
X101470101Y-94936420D01*
X101462081Y-94930078D01*
X101445528Y-94916989D01*
X101442690Y-94914677D01*
X101383622Y-94865113D01*
X101367110Y-94854594D01*
X101297205Y-94821996D01*
X101293909Y-94820401D01*
X101224996Y-94785792D01*
X101206504Y-94779365D01*
X101130942Y-94763762D01*
X101127367Y-94762969D01*
X101052356Y-94745191D01*
X101032885Y-94743202D01*
X100955741Y-94745447D01*
X100952077Y-94745500D01*
X98918371Y-94745500D01*
X98870153Y-94735909D01*
X98829276Y-94708595D01*
X97943776Y-93823095D01*
X97913038Y-93772936D01*
X97908422Y-93714289D01*
X97930935Y-93659939D01*
X97975668Y-93621733D01*
X98032871Y-93608000D01*
X98037530Y-93608000D01*
X98259508Y-93570957D01*
X98472368Y-93497883D01*
X98670305Y-93390764D01*
X98690688Y-93374899D01*
X97925000Y-92609211D01*
X97925000Y-92609210D01*
X96801922Y-91486132D01*
X96725983Y-91602366D01*
X96678629Y-91645240D01*
X96616334Y-91659381D01*
X96555110Y-91641154D01*
X96510693Y-91595243D01*
X96494500Y-91533450D01*
X96494500Y-91125100D01*
X97159310Y-91125100D01*
X97925000Y-91890789D01*
X97925000Y-91890790D01*
X99048076Y-93013867D01*
X99048077Y-93013866D01*
X99123418Y-92898551D01*
X99213819Y-92692457D01*
X99269068Y-92474284D01*
X99275544Y-92396132D01*
X99299408Y-92332160D01*
X99353137Y-92290029D01*
X99420954Y-92282109D01*
X99466373Y-92303076D01*
X99468169Y-92300146D01*
X99476620Y-92305325D01*
X99476624Y-92305328D01*
X99692498Y-92437616D01*
X99926409Y-92534505D01*
X100096809Y-92575414D01*
X100172596Y-92593609D01*
X100191011Y-92595058D01*
X100425000Y-92613474D01*
X100677403Y-92593609D01*
X100923591Y-92534505D01*
X101157502Y-92437616D01*
X101373376Y-92305328D01*
X101565898Y-92140898D01*
X101730328Y-91948376D01*
X101862616Y-91732502D01*
X101959505Y-91498591D01*
X102018609Y-91252403D01*
X102038474Y-91000000D01*
X102018609Y-90747597D01*
X101959505Y-90501409D01*
X101862616Y-90267498D01*
X101730328Y-90051624D01*
X101565898Y-89859102D01*
X101551029Y-89846403D01*
X101538745Y-89835911D01*
X101503424Y-89786483D01*
X101495337Y-89726273D01*
X101516364Y-89669277D01*
X101561617Y-89628745D01*
X101620576Y-89614100D01*
X102064703Y-89614100D01*
X102168528Y-89603493D01*
X102268767Y-89570277D01*
X102327567Y-89565347D01*
X102382164Y-89587730D01*
X102420583Y-89632515D01*
X102434400Y-89689881D01*
X102434400Y-89846403D01*
X102445006Y-89950228D01*
X102500740Y-90118422D01*
X102593767Y-90269242D01*
X102719057Y-90394532D01*
X102869877Y-90487559D01*
X103038071Y-90543293D01*
X103141897Y-90553900D01*
X104038400Y-90553900D01*
X104038400Y-88212900D01*
X103141897Y-88212900D01*
X103038071Y-88223506D01*
X102937833Y-88256723D01*
X102879033Y-88261653D01*
X102824436Y-88239270D01*
X102786017Y-88194485D01*
X102772200Y-88137119D01*
X102772200Y-87980597D01*
X102761593Y-87876771D01*
X102705859Y-87708577D01*
X102612832Y-87557757D01*
X102487542Y-87432467D01*
X102336722Y-87339440D01*
X102168528Y-87283706D01*
X102064703Y-87273100D01*
X101168200Y-87273100D01*
X101168200Y-88571600D01*
X101151319Y-88634600D01*
X101105200Y-88680719D01*
X101042200Y-88697600D01*
X99081491Y-88697600D01*
X99033273Y-88688009D01*
X99028022Y-88684500D01*
X97790000Y-88684500D01*
X97790000Y-89601000D01*
X98686503Y-89601000D01*
X98790328Y-89590393D01*
X98958522Y-89534659D01*
X99109339Y-89441634D01*
X99129453Y-89421520D01*
X99185938Y-89388908D01*
X99251161Y-89388907D01*
X99307646Y-89421520D01*
X99340858Y-89454732D01*
X99435663Y-89513209D01*
X99477092Y-89554849D01*
X99495142Y-89610747D01*
X99485890Y-89668753D01*
X99451347Y-89716260D01*
X99369128Y-89786483D01*
X99284102Y-89859102D01*
X99119673Y-90051623D01*
X98987383Y-90267499D01*
X98890495Y-90501408D01*
X98831390Y-90747596D01*
X98812711Y-90984941D01*
X98792795Y-91043643D01*
X98747297Y-91085745D01*
X98687229Y-91101055D01*
X98627130Y-91085869D01*
X98472371Y-91002117D01*
X98259508Y-90929042D01*
X98037530Y-90892000D01*
X97812470Y-90892000D01*
X97590491Y-90929042D01*
X97377628Y-91002117D01*
X97179700Y-91109231D01*
X97159310Y-91125099D01*
X97159310Y-91125100D01*
X96494500Y-91125100D01*
X96494500Y-89727000D01*
X96511381Y-89664000D01*
X96557500Y-89617881D01*
X96620500Y-89601000D01*
X97282000Y-89601000D01*
X97282000Y-87260000D01*
X97790000Y-87260000D01*
X97790000Y-88176500D01*
X99368709Y-88176500D01*
X99416927Y-88186091D01*
X99422178Y-88189600D01*
X100660200Y-88189600D01*
X100660200Y-87273100D01*
X99763697Y-87273100D01*
X99659871Y-87283706D01*
X99491677Y-87339440D01*
X99340859Y-87432466D01*
X99320743Y-87452582D01*
X99264258Y-87485192D01*
X99199036Y-87485191D01*
X99142553Y-87452579D01*
X99109341Y-87419367D01*
X98958522Y-87326340D01*
X98790328Y-87270606D01*
X98686503Y-87260000D01*
X97790000Y-87260000D01*
X97282000Y-87260000D01*
X96958372Y-87260000D01*
X96901169Y-87246267D01*
X96856436Y-87208061D01*
X96833923Y-87153711D01*
X96838539Y-87095064D01*
X96869276Y-87044905D01*
X97400776Y-86513404D01*
X97441654Y-86486090D01*
X97489872Y-86476499D01*
X98686540Y-86476499D01*
X98686544Y-86476499D01*
X98790426Y-86465887D01*
X98958738Y-86410115D01*
X99109652Y-86317030D01*
X99129455Y-86297226D01*
X99185938Y-86264616D01*
X99251161Y-86264615D01*
X99307646Y-86297228D01*
X99340548Y-86330130D01*
X99491462Y-86423215D01*
X99659774Y-86478987D01*
X99763655Y-86489600D01*
X102064744Y-86489599D01*
X102168626Y-86478987D01*
X102268270Y-86445968D01*
X102327068Y-86441040D01*
X102381664Y-86463423D01*
X102420083Y-86508208D01*
X102433900Y-86565573D01*
X102433900Y-86721439D01*
X102433901Y-86721444D01*
X102444513Y-86825326D01*
X102500285Y-86993638D01*
X102576117Y-87116580D01*
X102593372Y-87144555D01*
X102718744Y-87269927D01*
X102718746Y-87269928D01*
X102718748Y-87269930D01*
X102869662Y-87363015D01*
X103037974Y-87418787D01*
X103141855Y-87429400D01*
X105442944Y-87429399D01*
X105546826Y-87418787D01*
X105715138Y-87363015D01*
X105866052Y-87269930D01*
X105952779Y-87183202D01*
X105993654Y-87155891D01*
X106041872Y-87146300D01*
X106403100Y-87146300D01*
X106466100Y-87163181D01*
X106512219Y-87209300D01*
X106529100Y-87272300D01*
X106529100Y-87336438D01*
X106535611Y-87397001D01*
X106545899Y-87424585D01*
X106546155Y-87425270D01*
X106554100Y-87469303D01*
X106554100Y-87572130D01*
X106538124Y-87633536D01*
X106494247Y-87679369D01*
X106468483Y-87695262D01*
X106364544Y-87759372D01*
X106239172Y-87884744D01*
X106209954Y-87932114D01*
X106146085Y-88035662D01*
X106090313Y-88203974D01*
X106090312Y-88203978D01*
X106080845Y-88296640D01*
X106054618Y-88361623D01*
X105997730Y-88402545D01*
X105927779Y-88406746D01*
X105878517Y-88379602D01*
X105878274Y-88379997D01*
X105870248Y-88375047D01*
X105866403Y-88372928D01*
X105865742Y-88372267D01*
X105714922Y-88279240D01*
X105546728Y-88223506D01*
X105442903Y-88212900D01*
X104546400Y-88212900D01*
X104546400Y-90553900D01*
X105442903Y-90553900D01*
X105546728Y-90543293D01*
X105714922Y-90487559D01*
X105878274Y-90386803D01*
X105878493Y-90387158D01*
X105914758Y-90364933D01*
X105973406Y-90360315D01*
X106027758Y-90382826D01*
X106065966Y-90427559D01*
X106079700Y-90484762D01*
X106079700Y-90558939D01*
X106079701Y-90558944D01*
X106090313Y-90662826D01*
X106146085Y-90831138D01*
X106206473Y-90929042D01*
X106239172Y-90982055D01*
X106364544Y-91107427D01*
X106364546Y-91107428D01*
X106364548Y-91107430D01*
X106515462Y-91200515D01*
X106683774Y-91256287D01*
X106787655Y-91266900D01*
X107688744Y-91266899D01*
X107792626Y-91256287D01*
X107960938Y-91200515D01*
X108111852Y-91107430D01*
X108237230Y-90982052D01*
X108330315Y-90831138D01*
X108386087Y-90662826D01*
X108396700Y-90558945D01*
X108396699Y-88307856D01*
X108386087Y-88203974D01*
X108330315Y-88035662D01*
X108301191Y-87988445D01*
X108282463Y-87925048D01*
X108298409Y-87860893D01*
X108344641Y-87813642D01*
X108408433Y-87796300D01*
X108486238Y-87796300D01*
X108546801Y-87789789D01*
X108683804Y-87738689D01*
X108712090Y-87717513D01*
X108760816Y-87695262D01*
X108814384Y-87695262D01*
X108863109Y-87717513D01*
X108891396Y-87738689D01*
X109028399Y-87789789D01*
X109088962Y-87796300D01*
X109167967Y-87796300D01*
X109231759Y-87813642D01*
X109277991Y-87860893D01*
X109293937Y-87925048D01*
X109275208Y-87988445D01*
X109246085Y-88035662D01*
X109190313Y-88203974D01*
X109182624Y-88279240D01*
X109179700Y-88307859D01*
X109179700Y-90558940D01*
X109179701Y-90558945D01*
X109190313Y-90662826D01*
X109246085Y-90831138D01*
X109306473Y-90929042D01*
X109339172Y-90982055D01*
X109464544Y-91107427D01*
X109464546Y-91107428D01*
X109464548Y-91107430D01*
X109615462Y-91200515D01*
X109783774Y-91256287D01*
X109887655Y-91266900D01*
X110788744Y-91266899D01*
X110892626Y-91256287D01*
X111060938Y-91200515D01*
X111211852Y-91107430D01*
X111337230Y-90982052D01*
X111430315Y-90831138D01*
X111486087Y-90662826D01*
X111496700Y-90558945D01*
X111496699Y-90459361D01*
X111510432Y-90402162D01*
X111548637Y-90357428D01*
X111602988Y-90334915D01*
X111661635Y-90339531D01*
X111711794Y-90370269D01*
X111736057Y-90394532D01*
X111886877Y-90487559D01*
X112055071Y-90543293D01*
X112158897Y-90553900D01*
X113055400Y-90553900D01*
X113055400Y-89637400D01*
X113563400Y-89637400D01*
X113563400Y-90553900D01*
X114459903Y-90553900D01*
X114563728Y-90543293D01*
X114731922Y-90487559D01*
X114882742Y-90394532D01*
X115008032Y-90269242D01*
X115101059Y-90118422D01*
X115156793Y-89950228D01*
X115167400Y-89846403D01*
X115167400Y-89637400D01*
X113563400Y-89637400D01*
X113055400Y-89637400D01*
X113055400Y-88212900D01*
X113563400Y-88212900D01*
X113563400Y-89129400D01*
X115167400Y-89129400D01*
X115167400Y-88920397D01*
X115156793Y-88816571D01*
X115101059Y-88648377D01*
X115008032Y-88497557D01*
X114882742Y-88372267D01*
X114731922Y-88279240D01*
X114563728Y-88223506D01*
X114459903Y-88212900D01*
X113563400Y-88212900D01*
X113055400Y-88212900D01*
X112158897Y-88212900D01*
X112055071Y-88223506D01*
X111886877Y-88279240D01*
X111736057Y-88372267D01*
X111711794Y-88396531D01*
X111661635Y-88427269D01*
X111602988Y-88431885D01*
X111548638Y-88409372D01*
X111510432Y-88364639D01*
X111498309Y-88314144D01*
X111497351Y-88314242D01*
X111495553Y-88296640D01*
X111486087Y-88203974D01*
X111430315Y-88035662D01*
X111379945Y-87954000D01*
X123192000Y-87954000D01*
X123192000Y-89648589D01*
X123198505Y-89709093D01*
X123249554Y-89845962D01*
X123337095Y-89962904D01*
X123454037Y-90050445D01*
X123590906Y-90101494D01*
X123651411Y-90108000D01*
X124446000Y-90108000D01*
X124446000Y-87954000D01*
X124954000Y-87954000D01*
X124954000Y-90108000D01*
X125748589Y-90108000D01*
X125809093Y-90101494D01*
X125945962Y-90050445D01*
X126062904Y-89962904D01*
X126150445Y-89845962D01*
X126201494Y-89709093D01*
X126208000Y-89648589D01*
X126208000Y-87954000D01*
X124954000Y-87954000D01*
X124446000Y-87954000D01*
X123192000Y-87954000D01*
X111379945Y-87954000D01*
X111337230Y-87884748D01*
X111337228Y-87884746D01*
X111337227Y-87884744D01*
X111211855Y-87759372D01*
X111211852Y-87759370D01*
X111080951Y-87678629D01*
X111037076Y-87632796D01*
X111021100Y-87571390D01*
X111021100Y-87469303D01*
X111025305Y-87446000D01*
X123192000Y-87446000D01*
X124446000Y-87446000D01*
X124446000Y-85292000D01*
X124954000Y-85292000D01*
X124954000Y-87446000D01*
X126208000Y-87446000D01*
X126208000Y-85751411D01*
X126201494Y-85690906D01*
X126150445Y-85554037D01*
X126062904Y-85437095D01*
X125945962Y-85349554D01*
X125809093Y-85298505D01*
X125748589Y-85292000D01*
X124954000Y-85292000D01*
X124446000Y-85292000D01*
X123651411Y-85292000D01*
X123590906Y-85298505D01*
X123454037Y-85349554D01*
X123337095Y-85437095D01*
X123249554Y-85554037D01*
X123198505Y-85690906D01*
X123192000Y-85751411D01*
X123192000Y-87446000D01*
X111025305Y-87446000D01*
X111029045Y-87425270D01*
X111039589Y-87397001D01*
X111046100Y-87336438D01*
X111046100Y-87272300D01*
X111062981Y-87209300D01*
X111109100Y-87163181D01*
X111172100Y-87146300D01*
X111559928Y-87146300D01*
X111608146Y-87155891D01*
X111649020Y-87183202D01*
X111735748Y-87269930D01*
X111886662Y-87363015D01*
X112054974Y-87418787D01*
X112158855Y-87429400D01*
X114459944Y-87429399D01*
X114563826Y-87418787D01*
X114732138Y-87363015D01*
X114883052Y-87269930D01*
X115008430Y-87144552D01*
X115101515Y-86993638D01*
X115157287Y-86825326D01*
X115167900Y-86721445D01*
X115167899Y-85795356D01*
X115157287Y-85691474D01*
X115101515Y-85523162D01*
X115008430Y-85372248D01*
X115008428Y-85372246D01*
X115008427Y-85372244D01*
X114883055Y-85246872D01*
X114877839Y-85243655D01*
X114732138Y-85153785D01*
X114732135Y-85153783D01*
X114721030Y-85150104D01*
X114663205Y-85110362D01*
X114635602Y-85045855D01*
X114646780Y-84976587D01*
X114693273Y-84924036D01*
X114760663Y-84904500D01*
X116241733Y-84904500D01*
X116303139Y-84920476D01*
X116348973Y-84964352D01*
X116400970Y-85048652D01*
X116400972Y-85048655D01*
X116526344Y-85174027D01*
X116526346Y-85174028D01*
X116526348Y-85174030D01*
X116677262Y-85267115D01*
X116845574Y-85322887D01*
X116949455Y-85333500D01*
X117850544Y-85333499D01*
X117954426Y-85322887D01*
X118122738Y-85267115D01*
X118273652Y-85174030D01*
X118399030Y-85048652D01*
X118492115Y-84897738D01*
X118547887Y-84729426D01*
X118558500Y-84625545D01*
X118558499Y-82374456D01*
X118547887Y-82270574D01*
X118492115Y-82102262D01*
X118399030Y-81951348D01*
X118399028Y-81951346D01*
X118399027Y-81951344D01*
X118311431Y-81863748D01*
X118281506Y-81816007D01*
X118275381Y-81759995D01*
X118294283Y-81706915D01*
X118315155Y-81686360D01*
X118313239Y-81684444D01*
X118449027Y-81548655D01*
X118449027Y-81548654D01*
X118449030Y-81548652D01*
X118542115Y-81397738D01*
X118597887Y-81229426D01*
X118608500Y-81125545D01*
X118608499Y-78874456D01*
X118597887Y-78770574D01*
X118542115Y-78602262D01*
X118449030Y-78451348D01*
X118449028Y-78451346D01*
X118449027Y-78451344D01*
X118323655Y-78325972D01*
X118283764Y-78301367D01*
X118172738Y-78232885D01*
X118004426Y-78177113D01*
X117900545Y-78166500D01*
X117900540Y-78166500D01*
X116999459Y-78166500D01*
X116895573Y-78177113D01*
X116727262Y-78232885D01*
X116576344Y-78325972D01*
X116450972Y-78451344D01*
X116399829Y-78534259D01*
X116357885Y-78602262D01*
X116302113Y-78770574D01*
X116295685Y-78833498D01*
X116291500Y-78874459D01*
X116291500Y-80210405D01*
X116281909Y-80258623D01*
X116254595Y-80299500D01*
X113976595Y-82577500D01*
X113926436Y-82608238D01*
X113867789Y-82612854D01*
X113813439Y-82590341D01*
X113775233Y-82545608D01*
X113761500Y-82488405D01*
X113761500Y-81947361D01*
X113760799Y-81940850D01*
X113754989Y-81886799D01*
X113750506Y-81874782D01*
X113743902Y-81812422D01*
X113768175Y-81754601D01*
X113817310Y-81715645D01*
X113972780Y-81646426D01*
X114128982Y-81532938D01*
X114258175Y-81389454D01*
X114354713Y-81222245D01*
X114414377Y-81038619D01*
X114434559Y-80846600D01*
X114431045Y-80813169D01*
X114443107Y-80744765D01*
X114489585Y-80693146D01*
X114556355Y-80674000D01*
X114851589Y-80674000D01*
X114912093Y-80667494D01*
X115048962Y-80616445D01*
X115165904Y-80528904D01*
X115253445Y-80411962D01*
X115304494Y-80275093D01*
X115311000Y-80214589D01*
X115311000Y-79970000D01*
X113925000Y-79970000D01*
X113862000Y-79953119D01*
X113815881Y-79907000D01*
X113799000Y-79844000D01*
X113799000Y-79588000D01*
X113815881Y-79525000D01*
X113862000Y-79478881D01*
X113925000Y-79462000D01*
X115311000Y-79462000D01*
X115311000Y-79217410D01*
X115304494Y-79156905D01*
X115292873Y-79125746D01*
X115284929Y-79081712D01*
X115292872Y-79037685D01*
X115304989Y-79005201D01*
X115311500Y-78944638D01*
X115311500Y-77947362D01*
X115304989Y-77886799D01*
X115293139Y-77855030D01*
X115285196Y-77810998D01*
X115293141Y-77766965D01*
X115304989Y-77735201D01*
X115311500Y-77674638D01*
X115311500Y-76677362D01*
X115304989Y-76616799D01*
X115293139Y-76585030D01*
X115285196Y-76540998D01*
X115293141Y-76496965D01*
X115304989Y-76465201D01*
X115311500Y-76404638D01*
X115311500Y-75407362D01*
X115304989Y-75346799D01*
X115293139Y-75315029D01*
X115285195Y-75270998D01*
X115293138Y-75226973D01*
X115304989Y-75195201D01*
X115311500Y-75134638D01*
X115311500Y-74137362D01*
X115304989Y-74076799D01*
X115293139Y-74045029D01*
X115285195Y-74000998D01*
X115293138Y-73956973D01*
X115304989Y-73925201D01*
X115311500Y-73864638D01*
X115311500Y-72867362D01*
X115304989Y-72806799D01*
X115293139Y-72775029D01*
X115285195Y-72730998D01*
X115293138Y-72686973D01*
X115304989Y-72655201D01*
X115311500Y-72594638D01*
X115311500Y-71597362D01*
X115304989Y-71536799D01*
X115293139Y-71505030D01*
X115285196Y-71460998D01*
X115293141Y-71416965D01*
X115304989Y-71385201D01*
X115311500Y-71324638D01*
X115311500Y-70327362D01*
X115304989Y-70266799D01*
X115293138Y-70235027D01*
X115285195Y-70191000D01*
X115293138Y-70146972D01*
X115304989Y-70115201D01*
X115311500Y-70054638D01*
X115311500Y-69057362D01*
X115304989Y-68996799D01*
X115293138Y-68965027D01*
X115285195Y-68921000D01*
X115293138Y-68876972D01*
X115304989Y-68845201D01*
X115311500Y-68784638D01*
X115311500Y-67787362D01*
X115304989Y-67726799D01*
X115253889Y-67589796D01*
X115253888Y-67589794D01*
X115166261Y-67472738D01*
X115049205Y-67385111D01*
X114980702Y-67359561D01*
X114912201Y-67334011D01*
X114851638Y-67327500D01*
X113254362Y-67327500D01*
X113193799Y-67334011D01*
X113056794Y-67385111D01*
X112939738Y-67472738D01*
X112852109Y-67589798D01*
X112849438Y-67596959D01*
X112821364Y-67641123D01*
X112777768Y-67670072D01*
X112743097Y-67683799D01*
X112731870Y-67687643D01*
X112689405Y-67699981D01*
X112671960Y-67710297D01*
X112654217Y-67718989D01*
X112635384Y-67726446D01*
X112599616Y-67752433D01*
X112589697Y-67758949D01*
X112551636Y-67781458D01*
X112537311Y-67795783D01*
X112522284Y-67808617D01*
X112505894Y-67820525D01*
X112477706Y-67854598D01*
X112469719Y-67863375D01*
X112381596Y-67951499D01*
X112331437Y-67982237D01*
X112272790Y-67986853D01*
X112218439Y-67964340D01*
X112180233Y-67919607D01*
X112166500Y-67862404D01*
X112166500Y-66629951D01*
X112185698Y-66563098D01*
X112237443Y-66516617D01*
X112297608Y-66506130D01*
X112297608Y-66504500D01*
X113301638Y-66504500D01*
X113362201Y-66497989D01*
X113499204Y-66446889D01*
X113616261Y-66359261D01*
X113703889Y-66242204D01*
X113754989Y-66105201D01*
X113761500Y-66044638D01*
X113761500Y-64447362D01*
X113754989Y-64386799D01*
X113703889Y-64249796D01*
X113703888Y-64249794D01*
X113616261Y-64132738D01*
X113531359Y-64069181D01*
X113492971Y-64022196D01*
X113480992Y-63962717D01*
X113498202Y-63904535D01*
X113540608Y-63861142D01*
X113598378Y-63842599D01*
X113658112Y-63853205D01*
X113714605Y-63878357D01*
X113903462Y-63918500D01*
X114096536Y-63918500D01*
X114096538Y-63918500D01*
X114285395Y-63878357D01*
X114461780Y-63799826D01*
X114617982Y-63686338D01*
X114747175Y-63542854D01*
X114843713Y-63375645D01*
X114903377Y-63192019D01*
X114923559Y-63000000D01*
X114903377Y-62807981D01*
X114843713Y-62624355D01*
X114807423Y-62561498D01*
X114790543Y-62498498D01*
X114807424Y-62435499D01*
X114853543Y-62389380D01*
X114916543Y-62372499D01*
X115625540Y-62372499D01*
X115625544Y-62372499D01*
X115729426Y-62361887D01*
X115897738Y-62306115D01*
X116048652Y-62213030D01*
X116174030Y-62087652D01*
X116267115Y-61936738D01*
X116322887Y-61768426D01*
X116333500Y-61664545D01*
X116333499Y-60763456D01*
X116322887Y-60659574D01*
X116267115Y-60491262D01*
X116174030Y-60340348D01*
X116174028Y-60340346D01*
X116174027Y-60340344D01*
X116048655Y-60214972D01*
X116048652Y-60214970D01*
X115897738Y-60121885D01*
X115729426Y-60066113D01*
X115625545Y-60055500D01*
X115625540Y-60055500D01*
X113374459Y-60055500D01*
X113270573Y-60066113D01*
X113102262Y-60121885D01*
X112951344Y-60214972D01*
X112839095Y-60327222D01*
X112782611Y-60359834D01*
X112717389Y-60359834D01*
X112660905Y-60327222D01*
X112548655Y-60214972D01*
X112548652Y-60214970D01*
X112397738Y-60121885D01*
X112229426Y-60066113D01*
X112125545Y-60055500D01*
X112125540Y-60055500D01*
X109874459Y-60055500D01*
X109770573Y-60066113D01*
X109602262Y-60121885D01*
X109451344Y-60214972D01*
X109339095Y-60327222D01*
X109282611Y-60359834D01*
X109217389Y-60359834D01*
X109160905Y-60327222D01*
X109048655Y-60214972D01*
X109048652Y-60214970D01*
X108897738Y-60121885D01*
X108729426Y-60066113D01*
X108625545Y-60055500D01*
X108625540Y-60055500D01*
X106374459Y-60055500D01*
X106270573Y-60066113D01*
X106102262Y-60121885D01*
X105951344Y-60214972D01*
X105839095Y-60327222D01*
X105782611Y-60359834D01*
X105717389Y-60359834D01*
X105660905Y-60327222D01*
X105548655Y-60214972D01*
X105548652Y-60214970D01*
X105397738Y-60121885D01*
X105229426Y-60066113D01*
X105125545Y-60055500D01*
X105125540Y-60055500D01*
X102874459Y-60055500D01*
X102770573Y-60066113D01*
X102602262Y-60121885D01*
X102451344Y-60214972D01*
X102325972Y-60340344D01*
X102325970Y-60340348D01*
X102232885Y-60491262D01*
X102177113Y-60659574D01*
X102167904Y-60749720D01*
X102166500Y-60763459D01*
X102166500Y-61664540D01*
X102175140Y-61749111D01*
X102177113Y-61768426D01*
X102232885Y-61936738D01*
X102325271Y-62086519D01*
X102325972Y-62087655D01*
X102451344Y-62213027D01*
X102451346Y-62213028D01*
X102451348Y-62213030D01*
X102602262Y-62306115D01*
X102770574Y-62361887D01*
X102874455Y-62372500D01*
X103937905Y-62372499D01*
X103986123Y-62382090D01*
X104027000Y-62409404D01*
X104490001Y-62872405D01*
X104520739Y-62922564D01*
X104525355Y-62981211D01*
X104502842Y-63035561D01*
X104458109Y-63073767D01*
X104400906Y-63087500D01*
X101882991Y-63087500D01*
X101834773Y-63077909D01*
X101793895Y-63050595D01*
X101695404Y-62952103D01*
X101668091Y-62911226D01*
X101658500Y-62863008D01*
X101658500Y-61270680D01*
X101660795Y-61249891D01*
X101659637Y-61213059D01*
X101658562Y-61178841D01*
X101658500Y-61174882D01*
X101658500Y-61146976D01*
X101658500Y-61146971D01*
X101657992Y-61142958D01*
X101657061Y-61131124D01*
X101656251Y-61105343D01*
X101655673Y-61086937D01*
X101650020Y-61067483D01*
X101646012Y-61048125D01*
X101643474Y-61028030D01*
X101627190Y-60986904D01*
X101623359Y-60975715D01*
X101611018Y-60933234D01*
X101600704Y-60915795D01*
X101592008Y-60898043D01*
X101584552Y-60879210D01*
X101558571Y-60843451D01*
X101552050Y-60833525D01*
X101529542Y-60795464D01*
X101529541Y-60795463D01*
X101515213Y-60781135D01*
X101502376Y-60766104D01*
X101490473Y-60749720D01*
X101456406Y-60721538D01*
X101447626Y-60713548D01*
X101279318Y-60545240D01*
X101249367Y-60497426D01*
X101243286Y-60441335D01*
X101262294Y-60388213D01*
X101302575Y-60348714D01*
X101373376Y-60305328D01*
X101565898Y-60140898D01*
X101730328Y-59948376D01*
X101862616Y-59732502D01*
X101959505Y-59498591D01*
X102018609Y-59252403D01*
X102038474Y-59000000D01*
X102036227Y-58971450D01*
X102048655Y-58906199D01*
X102092540Y-58856334D01*
X102155684Y-58835715D01*
X102220539Y-58850074D01*
X102269078Y-58895416D01*
X102281035Y-58914801D01*
X102325972Y-58987655D01*
X102451344Y-59113027D01*
X102451346Y-59113028D01*
X102451348Y-59113030D01*
X102602262Y-59206115D01*
X102770574Y-59261887D01*
X102874455Y-59272500D01*
X105125544Y-59272499D01*
X105229426Y-59261887D01*
X105397738Y-59206115D01*
X105548652Y-59113030D01*
X105585193Y-59076489D01*
X105660905Y-59000778D01*
X105717389Y-58968166D01*
X105782611Y-58968166D01*
X105839095Y-59000778D01*
X105951344Y-59113027D01*
X105951346Y-59113028D01*
X105951348Y-59113030D01*
X106102262Y-59206115D01*
X106270574Y-59261887D01*
X106374455Y-59272500D01*
X108625544Y-59272499D01*
X108729426Y-59261887D01*
X108897738Y-59206115D01*
X109048652Y-59113030D01*
X109085193Y-59076489D01*
X109160905Y-59000778D01*
X109217389Y-58968166D01*
X109282611Y-58968166D01*
X109339095Y-59000778D01*
X109451344Y-59113027D01*
X109451346Y-59113028D01*
X109451348Y-59113030D01*
X109602262Y-59206115D01*
X109770574Y-59261887D01*
X109874455Y-59272500D01*
X112125544Y-59272499D01*
X112229426Y-59261887D01*
X112397738Y-59206115D01*
X112548652Y-59113030D01*
X112585193Y-59076489D01*
X112660905Y-59000778D01*
X112717389Y-58968166D01*
X112782611Y-58968166D01*
X112839095Y-59000778D01*
X112951344Y-59113027D01*
X112951346Y-59113028D01*
X112951348Y-59113030D01*
X113102262Y-59206115D01*
X113270574Y-59261887D01*
X113374455Y-59272500D01*
X115625544Y-59272499D01*
X115729426Y-59261887D01*
X115897738Y-59206115D01*
X116048652Y-59113030D01*
X116174030Y-58987652D01*
X116267115Y-58836738D01*
X116322887Y-58668426D01*
X116333500Y-58564545D01*
X116333499Y-57663456D01*
X116322887Y-57559574D01*
X116267115Y-57391262D01*
X116174030Y-57240348D01*
X116174028Y-57240346D01*
X116174027Y-57240344D01*
X116048655Y-57114972D01*
X116026342Y-57101209D01*
X115897738Y-57021885D01*
X115729426Y-56966113D01*
X115625545Y-56955500D01*
X115625541Y-56955500D01*
X115259500Y-56955500D01*
X115196500Y-56938619D01*
X115150381Y-56892500D01*
X115133500Y-56829500D01*
X115133500Y-55376000D01*
X115150381Y-55313000D01*
X115196500Y-55266881D01*
X115259500Y-55250000D01*
X115625540Y-55250000D01*
X115625544Y-55250000D01*
X115729425Y-55239387D01*
X115897738Y-55183615D01*
X116048651Y-55090530D01*
X116174030Y-54965151D01*
X116267115Y-54814238D01*
X116322887Y-54645925D01*
X116333500Y-54542044D01*
X116333500Y-53515956D01*
X116322887Y-53412075D01*
X116267115Y-53243762D01*
X116174030Y-53092849D01*
X116174028Y-53092847D01*
X116174027Y-53092845D01*
X116048654Y-52967472D01*
X115924334Y-52890790D01*
X115897738Y-52874385D01*
X115813581Y-52846499D01*
X115729426Y-52818613D01*
X115708648Y-52816490D01*
X115625544Y-52808000D01*
X113374456Y-52808000D01*
X113305201Y-52815075D01*
X113270573Y-52818613D01*
X113102262Y-52874385D01*
X112951345Y-52967472D01*
X112839095Y-53079723D01*
X112782611Y-53112335D01*
X112717389Y-53112335D01*
X112660905Y-53079723D01*
X112548654Y-52967472D01*
X112424334Y-52890790D01*
X112397738Y-52874385D01*
X112313581Y-52846499D01*
X112229426Y-52818613D01*
X112208648Y-52816490D01*
X112125544Y-52808000D01*
X109874456Y-52808000D01*
X109805201Y-52815075D01*
X109770573Y-52818613D01*
X109602262Y-52874385D01*
X109451345Y-52967472D01*
X109339095Y-53079723D01*
X109282611Y-53112335D01*
X109217389Y-53112335D01*
X109160905Y-53079723D01*
X109048654Y-52967472D01*
X108924334Y-52890790D01*
X108897738Y-52874385D01*
X108813581Y-52846499D01*
X108729426Y-52818613D01*
X108708648Y-52816490D01*
X108625544Y-52808000D01*
X106374456Y-52808000D01*
X106305201Y-52815075D01*
X106270573Y-52818613D01*
X106102262Y-52874385D01*
X105951345Y-52967472D01*
X105839095Y-53079723D01*
X105782611Y-53112335D01*
X105717389Y-53112335D01*
X105660905Y-53079723D01*
X105548654Y-52967472D01*
X105424334Y-52890790D01*
X105397738Y-52874385D01*
X105313581Y-52846499D01*
X105229426Y-52818613D01*
X105208648Y-52816490D01*
X105125544Y-52808000D01*
X102874456Y-52808000D01*
X102805201Y-52815075D01*
X102770573Y-52818613D01*
X102602262Y-52874385D01*
X102451345Y-52967472D01*
X102325972Y-53092845D01*
X102232885Y-53243762D01*
X102177113Y-53412073D01*
X102177112Y-53412075D01*
X102177113Y-53412075D01*
X102166500Y-53515956D01*
X102166500Y-54542044D01*
X102177113Y-54645925D01*
X102232885Y-54814238D01*
X102313951Y-54945665D01*
X102325972Y-54965154D01*
X102451345Y-55090527D01*
X102451347Y-55090528D01*
X102451349Y-55090530D01*
X102602262Y-55183615D01*
X102770575Y-55239387D01*
X102874456Y-55250000D01*
X103240500Y-55250000D01*
X103303500Y-55266881D01*
X103349619Y-55313000D01*
X103366500Y-55376000D01*
X103366500Y-56829501D01*
X103349619Y-56892501D01*
X103303500Y-56938620D01*
X103240500Y-56955501D01*
X102874456Y-56955501D01*
X102791350Y-56963990D01*
X102770573Y-56966113D01*
X102602262Y-57021885D01*
X102451344Y-57114972D01*
X102325972Y-57240344D01*
X102325970Y-57240348D01*
X102232885Y-57391262D01*
X102227872Y-57406391D01*
X102177113Y-57559574D01*
X102166500Y-57663459D01*
X102166500Y-58367695D01*
X102147933Y-58433530D01*
X102097703Y-58479962D01*
X102030614Y-58493307D01*
X101966439Y-58469631D01*
X101924091Y-58415913D01*
X101916998Y-58398790D01*
X101862616Y-58267498D01*
X101730328Y-58051624D01*
X101565898Y-57859102D01*
X101373376Y-57694672D01*
X101157502Y-57562384D01*
X100923591Y-57465495D01*
X100677403Y-57406390D01*
X100425000Y-57386526D01*
X100172596Y-57406390D01*
X99926408Y-57465495D01*
X99692499Y-57562383D01*
X99675267Y-57572943D01*
X99476624Y-57694672D01*
X99476621Y-57694674D01*
X99468169Y-57699854D01*
X99466288Y-57696784D01*
X99421393Y-57717495D01*
X99353587Y-57709563D01*
X99299871Y-57667431D01*
X99276013Y-57603469D01*
X99269564Y-57525632D01*
X99214296Y-57307384D01*
X99123860Y-57101209D01*
X99000722Y-56912732D01*
X98848240Y-56747094D01*
X98848239Y-56747093D01*
X98848237Y-56747091D01*
X98670578Y-56608812D01*
X98472573Y-56501657D01*
X98328427Y-56452172D01*
X98259635Y-56428556D01*
X98037569Y-56391500D01*
X97812431Y-56391500D01*
X97590365Y-56428556D01*
X97590362Y-56428556D01*
X97590362Y-56428557D01*
X97377426Y-56501657D01*
X97179421Y-56608812D01*
X97001762Y-56747091D01*
X96849278Y-56912731D01*
X96726139Y-57101209D01*
X96635702Y-57307388D01*
X96580437Y-57525627D01*
X96580436Y-57525632D01*
X96561844Y-57750000D01*
X96580436Y-57974368D01*
X96580436Y-57974371D01*
X96580437Y-57974372D01*
X96635702Y-58192611D01*
X96726139Y-58398790D01*
X96834429Y-58564540D01*
X96849278Y-58587268D01*
X97001760Y-58752906D01*
X97020892Y-58767797D01*
X97056697Y-58811889D01*
X97069500Y-58867228D01*
X97069500Y-59511147D01*
X97067204Y-59531935D01*
X97069438Y-59602986D01*
X97069500Y-59606945D01*
X97069500Y-59634857D01*
X97070007Y-59638873D01*
X97070937Y-59650696D01*
X97072326Y-59694892D01*
X97077977Y-59714341D01*
X97081986Y-59733696D01*
X97084525Y-59753794D01*
X97100801Y-59794903D01*
X97104644Y-59806130D01*
X97116980Y-59848590D01*
X97127294Y-59866030D01*
X97135987Y-59883774D01*
X97140425Y-59894982D01*
X97143449Y-59902619D01*
X97169431Y-59938380D01*
X97175948Y-59948301D01*
X97198458Y-59986363D01*
X97212778Y-60000683D01*
X97225618Y-60015716D01*
X97237526Y-60032105D01*
X97237527Y-60032106D01*
X97237528Y-60032107D01*
X97265807Y-60055501D01*
X97271598Y-60060292D01*
X97280378Y-60068282D01*
X97704766Y-60492670D01*
X97737749Y-60550572D01*
X97736586Y-60617199D01*
X97701603Y-60673916D01*
X97642584Y-60704857D01*
X97576038Y-60701370D01*
X97504323Y-60677606D01*
X97400503Y-60667000D01*
X97204000Y-60667000D01*
X97204000Y-62628000D01*
X97187119Y-62691000D01*
X97141000Y-62737119D01*
X97078000Y-62754000D01*
X95792000Y-62754000D01*
X95792000Y-63625503D01*
X95802606Y-63729325D01*
X95835977Y-63830032D01*
X95841374Y-63885490D01*
X95822326Y-63937853D01*
X95782557Y-63976881D01*
X95748566Y-63988526D01*
X95748734Y-63988975D01*
X95597037Y-64045554D01*
X95480095Y-64133095D01*
X95392554Y-64250037D01*
X95341505Y-64386906D01*
X95335000Y-64447411D01*
X95335000Y-64992000D01*
X96421000Y-64992000D01*
X96484000Y-65008881D01*
X96530119Y-65055000D01*
X96547000Y-65118000D01*
X96547000Y-66504001D01*
X96564050Y-66521051D01*
X96604898Y-66555939D01*
X96627411Y-66610289D01*
X96622795Y-66668934D01*
X96615295Y-66692019D01*
X96580050Y-66800488D01*
X96559868Y-66992509D01*
X96580050Y-67184529D01*
X96639713Y-67368154D01*
X96736252Y-67535364D01*
X96865443Y-67678845D01*
X96865445Y-67678847D01*
X97021647Y-67792335D01*
X97198032Y-67870866D01*
X97386889Y-67911009D01*
X97386891Y-67911009D01*
X97569291Y-67911009D01*
X97620540Y-67921902D01*
X97662927Y-67952699D01*
X97794448Y-68098769D01*
X97887804Y-68166596D01*
X97950652Y-68212258D01*
X98127037Y-68290789D01*
X98315894Y-68330932D01*
X98508968Y-68330932D01*
X98508970Y-68330932D01*
X98697827Y-68290789D01*
X98874212Y-68212258D01*
X99030414Y-68098770D01*
X99159607Y-67955286D01*
X99256145Y-67788077D01*
X99260048Y-67776066D01*
X99286245Y-67730691D01*
X99328632Y-67699895D01*
X99379881Y-67689002D01*
X100059645Y-67689002D01*
X100080433Y-67691297D01*
X100083405Y-67691203D01*
X100083407Y-67691204D01*
X100151483Y-67689064D01*
X100155443Y-67689002D01*
X100183350Y-67689002D01*
X100183354Y-67689002D01*
X100187363Y-67688495D01*
X100199197Y-67687563D01*
X100243387Y-67686175D01*
X100262836Y-67680523D01*
X100282196Y-67676514D01*
X100302295Y-67673976D01*
X100343413Y-67657695D01*
X100354615Y-67653859D01*
X100397091Y-67641520D01*
X100414537Y-67631201D01*
X100432278Y-67622511D01*
X100451115Y-67615054D01*
X100486890Y-67589060D01*
X100496801Y-67582550D01*
X100534860Y-67560044D01*
X100549189Y-67545714D01*
X100564217Y-67532879D01*
X100580605Y-67520974D01*
X100608801Y-67486888D01*
X100616770Y-67478132D01*
X101403722Y-66691180D01*
X101458613Y-66659008D01*
X101522229Y-66657758D01*
X101578344Y-66687752D01*
X101612648Y-66741340D01*
X101656287Y-66875646D01*
X101752825Y-67042855D01*
X101880388Y-67184528D01*
X101882018Y-67186338D01*
X102038220Y-67299826D01*
X102214605Y-67378357D01*
X102403462Y-67418500D01*
X102596536Y-67418500D01*
X102596538Y-67418500D01*
X102785395Y-67378357D01*
X102961780Y-67299826D01*
X103117982Y-67186338D01*
X103247175Y-67042854D01*
X103343713Y-66875645D01*
X103403377Y-66692019D01*
X103411227Y-66617328D01*
X103432079Y-66560041D01*
X103477384Y-66519248D01*
X103536537Y-66504500D01*
X104153167Y-66504500D01*
X104212321Y-66519249D01*
X104257627Y-66560043D01*
X104272493Y-66600891D01*
X104273931Y-66600424D01*
X104278022Y-66613017D01*
X104278023Y-66613019D01*
X104283525Y-66629951D01*
X104337686Y-66796645D01*
X104434225Y-66963855D01*
X104563416Y-67107336D01*
X104563418Y-67107338D01*
X104719620Y-67220826D01*
X104896005Y-67299357D01*
X105084862Y-67339500D01*
X105277936Y-67339500D01*
X105277938Y-67339500D01*
X105466795Y-67299357D01*
X105643180Y-67220826D01*
X105799382Y-67107338D01*
X105928575Y-66963854D01*
X106025113Y-66796645D01*
X106084777Y-66613019D01*
X106084777Y-66613015D01*
X106084838Y-66612829D01*
X106119142Y-66559241D01*
X106175257Y-66529246D01*
X106238872Y-66530496D01*
X106293766Y-66562670D01*
X106890752Y-67159656D01*
X106903831Y-67175981D01*
X106905999Y-67178017D01*
X106906000Y-67178018D01*
X106912934Y-67184529D01*
X106955650Y-67224642D01*
X106958461Y-67227366D01*
X106978230Y-67247135D01*
X106981443Y-67249627D01*
X106990433Y-67257306D01*
X107022679Y-67287586D01*
X107040426Y-67297342D01*
X107056950Y-67308196D01*
X107072959Y-67320614D01*
X107113542Y-67338175D01*
X107124193Y-67343393D01*
X107162940Y-67364695D01*
X107182560Y-67369732D01*
X107201267Y-67376137D01*
X107206397Y-67378357D01*
X107219854Y-67384181D01*
X107225727Y-67385111D01*
X107263530Y-67391098D01*
X107275125Y-67393498D01*
X107317970Y-67404500D01*
X107338224Y-67404500D01*
X107357934Y-67406051D01*
X107377942Y-67409220D01*
X107377942Y-67409219D01*
X107377943Y-67409220D01*
X107421961Y-67405058D01*
X107433819Y-67404500D01*
X108350613Y-67404500D01*
X108398831Y-67414091D01*
X108439708Y-67441404D01*
X108531177Y-67532874D01*
X108607965Y-67609662D01*
X108621042Y-67625984D01*
X108672858Y-67674642D01*
X108675669Y-67677366D01*
X108695438Y-67697135D01*
X108698651Y-67699627D01*
X108707641Y-67707306D01*
X108739887Y-67737586D01*
X108757634Y-67747342D01*
X108774158Y-67758196D01*
X108790167Y-67770614D01*
X108830750Y-67788175D01*
X108841401Y-67793393D01*
X108880148Y-67814695D01*
X108899768Y-67819732D01*
X108918475Y-67826137D01*
X108928203Y-67830347D01*
X108951675Y-67840505D01*
X108951592Y-67840694D01*
X108985740Y-67854317D01*
X109023494Y-67895158D01*
X109126357Y-68073323D01*
X109224602Y-68182435D01*
X109255550Y-68216806D01*
X109411752Y-68330294D01*
X109588137Y-68408825D01*
X109776994Y-68448968D01*
X109776996Y-68448968D01*
X109873500Y-68448968D01*
X109936500Y-68465849D01*
X109982619Y-68511968D01*
X109999500Y-68574968D01*
X109999500Y-70216182D01*
X109997204Y-70236970D01*
X109999438Y-70308021D01*
X109999500Y-70311980D01*
X109999500Y-70339892D01*
X110000007Y-70343908D01*
X110000937Y-70355731D01*
X110002326Y-70399927D01*
X110007977Y-70419376D01*
X110011986Y-70438731D01*
X110014525Y-70458829D01*
X110030801Y-70499938D01*
X110034644Y-70511165D01*
X110046980Y-70553625D01*
X110057294Y-70571065D01*
X110065987Y-70588809D01*
X110068996Y-70596407D01*
X110073449Y-70607654D01*
X110099431Y-70643415D01*
X110105948Y-70653336D01*
X110128458Y-70691398D01*
X110142778Y-70705718D01*
X110155618Y-70720751D01*
X110167526Y-70737140D01*
X110201598Y-70765327D01*
X110210378Y-70773317D01*
X110829595Y-71392534D01*
X110856909Y-71433411D01*
X110866500Y-71481629D01*
X110866500Y-76498770D01*
X110856909Y-76546988D01*
X110829595Y-76587866D01*
X110302337Y-77115122D01*
X110286015Y-77128199D01*
X110237370Y-77180000D01*
X110234620Y-77182838D01*
X110214868Y-77202591D01*
X110214864Y-77202595D01*
X110214865Y-77202595D01*
X110212379Y-77205798D01*
X110204687Y-77214804D01*
X110174413Y-77247043D01*
X110164652Y-77264799D01*
X110153801Y-77281317D01*
X110141385Y-77297324D01*
X110123824Y-77337904D01*
X110118604Y-77348560D01*
X110097304Y-77387305D01*
X110092267Y-77406924D01*
X110085864Y-77425626D01*
X110077818Y-77444220D01*
X110070901Y-77487889D01*
X110068495Y-77499509D01*
X110057500Y-77542335D01*
X110057500Y-77562589D01*
X110055949Y-77582299D01*
X110052779Y-77602307D01*
X110056941Y-77646326D01*
X110057500Y-77658184D01*
X110057500Y-79561500D01*
X110040619Y-79624500D01*
X109994500Y-79670619D01*
X109931500Y-79687500D01*
X103689042Y-79687500D01*
X103640824Y-79677909D01*
X103599946Y-79650595D01*
X103311689Y-79362337D01*
X103298616Y-79346019D01*
X103270480Y-79319598D01*
X103246794Y-79297355D01*
X103243983Y-79294631D01*
X103224217Y-79274865D01*
X103221022Y-79272386D01*
X103212000Y-79264681D01*
X103179767Y-79234413D01*
X103162014Y-79224653D01*
X103145488Y-79213797D01*
X103129488Y-79201386D01*
X103088913Y-79183828D01*
X103078251Y-79178604D01*
X103039510Y-79157305D01*
X103025760Y-79153775D01*
X103019884Y-79152266D01*
X103001178Y-79145862D01*
X102982592Y-79137819D01*
X102938922Y-79130902D01*
X102927300Y-79128495D01*
X102917497Y-79125978D01*
X102884477Y-79117500D01*
X102884476Y-79117500D01*
X102864223Y-79117500D01*
X102844513Y-79115949D01*
X102824504Y-79112779D01*
X102780486Y-79116941D01*
X102768628Y-79117500D01*
X101241666Y-79117500D01*
X101220877Y-79115204D01*
X101149827Y-79117438D01*
X101145868Y-79117500D01*
X101117952Y-79117500D01*
X101113936Y-79118007D01*
X101102117Y-79118937D01*
X101057924Y-79120326D01*
X101038471Y-79125978D01*
X101019117Y-79129986D01*
X100999018Y-79132525D01*
X100985647Y-79137819D01*
X100957904Y-79148802D01*
X100946687Y-79152643D01*
X100904220Y-79164981D01*
X100904220Y-79164982D01*
X100887924Y-79174619D01*
X100886777Y-79175297D01*
X100869030Y-79183990D01*
X100850197Y-79191446D01*
X100814424Y-79217437D01*
X100804506Y-79223951D01*
X100766452Y-79246457D01*
X100752125Y-79260783D01*
X100737096Y-79273618D01*
X100720707Y-79285525D01*
X100692519Y-79319598D01*
X100684532Y-79328375D01*
X100481814Y-79531095D01*
X100440936Y-79558409D01*
X100392718Y-79568000D01*
X100325775Y-79568000D01*
X100231683Y-79588000D01*
X100136917Y-79608143D01*
X99997075Y-79670405D01*
X99961478Y-79686254D01*
X99960532Y-79686675D01*
X99804330Y-79800162D01*
X99745296Y-79865725D01*
X99688084Y-79902034D01*
X99620337Y-79903457D01*
X99611816Y-79901270D01*
X99593097Y-79894862D01*
X99574511Y-79886819D01*
X99530841Y-79879902D01*
X99519219Y-79877495D01*
X99512014Y-79875645D01*
X99476396Y-79866500D01*
X99476395Y-79866500D01*
X99456142Y-79866500D01*
X99436432Y-79864949D01*
X99416423Y-79861779D01*
X99372405Y-79865941D01*
X99360547Y-79866500D01*
X98221656Y-79866500D01*
X98170406Y-79855606D01*
X98128019Y-79824809D01*
X98117982Y-79813662D01*
X97961780Y-79700174D01*
X97930515Y-79686254D01*
X97785395Y-79621643D01*
X97596538Y-79581500D01*
X97596536Y-79581500D01*
X97545576Y-79581500D01*
X97486423Y-79566751D01*
X97441117Y-79525959D01*
X97420266Y-79468671D01*
X97419565Y-79462000D01*
X97403377Y-79307981D01*
X97354289Y-79156905D01*
X97343713Y-79124354D01*
X97247174Y-78957144D01*
X97117983Y-78813663D01*
X96961780Y-78700174D01*
X96905453Y-78675096D01*
X96785395Y-78621643D01*
X96596538Y-78581500D01*
X96403462Y-78581500D01*
X96305790Y-78602261D01*
X96214604Y-78621643D01*
X96038219Y-78700175D01*
X95882016Y-78813663D01*
X95752825Y-78957144D01*
X95656286Y-79124354D01*
X95596623Y-79307979D01*
X95576441Y-79500000D01*
X95596623Y-79692020D01*
X95656286Y-79875645D01*
X95752823Y-80042852D01*
X95757707Y-80048276D01*
X95834138Y-80133161D01*
X95858131Y-80172314D01*
X95866500Y-80217469D01*
X95866500Y-80455594D01*
X95864204Y-80476382D01*
X95866438Y-80547433D01*
X95866500Y-80551392D01*
X95866500Y-80579304D01*
X95867007Y-80583320D01*
X95867937Y-80595143D01*
X95869326Y-80639339D01*
X95874977Y-80658788D01*
X95878986Y-80678143D01*
X95881525Y-80698241D01*
X95897801Y-80739350D01*
X95901644Y-80750577D01*
X95913980Y-80793037D01*
X95924294Y-80810477D01*
X95932987Y-80828221D01*
X95940264Y-80846600D01*
X95940449Y-80847066D01*
X95966431Y-80882827D01*
X95972948Y-80892748D01*
X95995458Y-80930810D01*
X96009778Y-80945130D01*
X96022618Y-80960163D01*
X96034526Y-80976552D01*
X96068592Y-81004734D01*
X96077373Y-81012724D01*
X96510096Y-81445448D01*
X96537409Y-81486325D01*
X96547000Y-81534543D01*
X96547000Y-82874000D01*
X96530119Y-82937000D01*
X96484000Y-82983119D01*
X96421000Y-83000000D01*
X95335000Y-83000000D01*
X95335000Y-83544589D01*
X95341505Y-83605093D01*
X95392554Y-83741962D01*
X95480095Y-83858904D01*
X95597037Y-83946445D01*
X95733906Y-83997494D01*
X95794411Y-84004000D01*
X95988174Y-84004000D01*
X96050538Y-84020516D01*
X96096553Y-84065735D01*
X96114155Y-84127801D01*
X96098729Y-84190444D01*
X96054322Y-84237239D01*
X95999003Y-84271360D01*
X95962344Y-84293972D01*
X95836972Y-84419344D01*
X95799311Y-84480403D01*
X95743885Y-84570262D01*
X95688113Y-84738574D01*
X95679956Y-84818423D01*
X95677500Y-84842459D01*
X95677500Y-85768540D01*
X95688113Y-85872426D01*
X95715506Y-85955094D01*
X95718505Y-86023784D01*
X95684996Y-86083821D01*
X95245225Y-86523592D01*
X95231378Y-86535560D01*
X95211942Y-86550031D01*
X95211939Y-86550034D01*
X95211749Y-86550176D01*
X95147488Y-86574633D01*
X95079955Y-86561713D01*
X95029260Y-86515262D01*
X95010500Y-86449113D01*
X95010500Y-82492000D01*
X95335000Y-82492000D01*
X96039000Y-82492000D01*
X96039000Y-81488000D01*
X95794411Y-81488000D01*
X95733906Y-81494505D01*
X95597037Y-81545554D01*
X95480095Y-81633095D01*
X95392554Y-81750037D01*
X95341505Y-81886906D01*
X95335000Y-81947411D01*
X95335000Y-82492000D01*
X95010500Y-82492000D01*
X95010500Y-76455000D01*
X101075000Y-76455000D01*
X101075000Y-76774589D01*
X101081505Y-76835093D01*
X101132554Y-76971962D01*
X101220095Y-77088904D01*
X101337037Y-77176445D01*
X101473906Y-77227494D01*
X101534411Y-77234000D01*
X101854000Y-77234000D01*
X101854000Y-76455000D01*
X102362000Y-76455000D01*
X102362000Y-77234000D01*
X102681589Y-77234000D01*
X102742093Y-77227494D01*
X102826467Y-77196025D01*
X102870499Y-77188081D01*
X102914531Y-77196025D01*
X102998906Y-77227494D01*
X103059411Y-77234000D01*
X103379000Y-77234000D01*
X103379000Y-76455000D01*
X103887000Y-76455000D01*
X103887000Y-77234000D01*
X104206589Y-77234000D01*
X104267093Y-77227494D01*
X104351467Y-77196025D01*
X104395499Y-77188081D01*
X104439531Y-77196025D01*
X104523906Y-77227494D01*
X104584411Y-77234000D01*
X104904000Y-77234000D01*
X104904000Y-76455000D01*
X105412000Y-76455000D01*
X105412000Y-77234000D01*
X105731589Y-77234000D01*
X105792093Y-77227494D01*
X105928962Y-77176445D01*
X106045904Y-77088904D01*
X106133445Y-76971962D01*
X106184494Y-76835093D01*
X106191000Y-76774589D01*
X106191000Y-76455000D01*
X105412000Y-76455000D01*
X104904000Y-76455000D01*
X103887000Y-76455000D01*
X103379000Y-76455000D01*
X102362000Y-76455000D01*
X101854000Y-76455000D01*
X101075000Y-76455000D01*
X95010500Y-76455000D01*
X95010500Y-74930000D01*
X101075000Y-74930000D01*
X101075000Y-75249589D01*
X101081505Y-75310095D01*
X101112974Y-75394469D01*
X101120918Y-75438500D01*
X101112974Y-75482531D01*
X101081505Y-75566904D01*
X101075000Y-75627411D01*
X101075000Y-75947000D01*
X101854000Y-75947000D01*
X101854000Y-74930000D01*
X102362000Y-74930000D01*
X102362000Y-75947000D01*
X103379000Y-75947000D01*
X103379000Y-74930000D01*
X103887000Y-74930000D01*
X103887000Y-75947000D01*
X104904000Y-75947000D01*
X104904000Y-74930000D01*
X105412000Y-74930000D01*
X105412000Y-75947000D01*
X106191000Y-75947000D01*
X106191000Y-75627411D01*
X106184494Y-75566906D01*
X106153025Y-75482532D01*
X106145081Y-75438500D01*
X106153025Y-75394468D01*
X106184494Y-75310093D01*
X106191000Y-75249589D01*
X106191000Y-74930000D01*
X105412000Y-74930000D01*
X104904000Y-74930000D01*
X103887000Y-74930000D01*
X103379000Y-74930000D01*
X102362000Y-74930000D01*
X101854000Y-74930000D01*
X101075000Y-74930000D01*
X95010500Y-74930000D01*
X95010500Y-73405000D01*
X101075000Y-73405000D01*
X101075000Y-73724589D01*
X101081505Y-73785095D01*
X101112974Y-73869469D01*
X101120918Y-73913500D01*
X101112974Y-73957531D01*
X101081505Y-74041904D01*
X101075000Y-74102411D01*
X101075000Y-74422000D01*
X101854000Y-74422000D01*
X101854000Y-73405000D01*
X102362000Y-73405000D01*
X102362000Y-74422000D01*
X103379000Y-74422000D01*
X103379000Y-73405000D01*
X103887000Y-73405000D01*
X103887000Y-74422000D01*
X104904000Y-74422000D01*
X104904000Y-73405000D01*
X105412000Y-73405000D01*
X105412000Y-74422000D01*
X106191000Y-74422000D01*
X106191000Y-74102411D01*
X106184494Y-74041906D01*
X106153025Y-73957532D01*
X106145081Y-73913500D01*
X106153025Y-73869468D01*
X106184494Y-73785093D01*
X106191000Y-73724589D01*
X106191000Y-73405000D01*
X105412000Y-73405000D01*
X104904000Y-73405000D01*
X103887000Y-73405000D01*
X103379000Y-73405000D01*
X102362000Y-73405000D01*
X101854000Y-73405000D01*
X101075000Y-73405000D01*
X95010500Y-73405000D01*
X95010500Y-72897000D01*
X101075000Y-72897000D01*
X101854000Y-72897000D01*
X101854000Y-72118000D01*
X102362000Y-72118000D01*
X102362000Y-72897000D01*
X103379000Y-72897000D01*
X103379000Y-72118000D01*
X103887000Y-72118000D01*
X103887000Y-72897000D01*
X104904000Y-72897000D01*
X104904000Y-72118000D01*
X105412000Y-72118000D01*
X105412000Y-72897000D01*
X106191000Y-72897000D01*
X106191000Y-72577411D01*
X106184494Y-72516906D01*
X106133445Y-72380037D01*
X106045904Y-72263095D01*
X105928962Y-72175554D01*
X105792093Y-72124505D01*
X105731589Y-72118000D01*
X105412000Y-72118000D01*
X104904000Y-72118000D01*
X104584411Y-72118000D01*
X104523904Y-72124505D01*
X104439531Y-72155974D01*
X104395500Y-72163918D01*
X104351469Y-72155974D01*
X104267095Y-72124505D01*
X104206589Y-72118000D01*
X103887000Y-72118000D01*
X103379000Y-72118000D01*
X103059411Y-72118000D01*
X102998904Y-72124505D01*
X102914531Y-72155974D01*
X102870500Y-72163918D01*
X102826469Y-72155974D01*
X102742095Y-72124505D01*
X102681589Y-72118000D01*
X102362000Y-72118000D01*
X101854000Y-72118000D01*
X101534411Y-72118000D01*
X101473906Y-72124505D01*
X101337037Y-72175554D01*
X101220095Y-72263095D01*
X101132554Y-72380037D01*
X101081505Y-72516906D01*
X101075000Y-72577411D01*
X101075000Y-72897000D01*
X95010500Y-72897000D01*
X95010500Y-65500000D01*
X95335000Y-65500000D01*
X95335000Y-66044589D01*
X95341505Y-66105093D01*
X95392554Y-66241962D01*
X95480095Y-66358904D01*
X95597037Y-66446445D01*
X95733906Y-66497494D01*
X95794411Y-66504000D01*
X96039000Y-66504000D01*
X96039000Y-65500000D01*
X95335000Y-65500000D01*
X95010500Y-65500000D01*
X95010500Y-62246000D01*
X95792000Y-62246000D01*
X96696000Y-62246000D01*
X96696000Y-60667000D01*
X96499497Y-60667000D01*
X96395671Y-60677606D01*
X96227477Y-60733340D01*
X96076657Y-60826367D01*
X95951367Y-60951657D01*
X95858340Y-61102477D01*
X95802606Y-61270671D01*
X95792000Y-61374497D01*
X95792000Y-62246000D01*
X95010500Y-62246000D01*
X95010500Y-54374899D01*
X97159310Y-54374899D01*
X97179697Y-54390767D01*
X97377628Y-54497882D01*
X97590491Y-54570957D01*
X97812470Y-54608000D01*
X98037530Y-54608000D01*
X98259508Y-54570957D01*
X98472368Y-54497883D01*
X98670305Y-54390764D01*
X98690688Y-54374899D01*
X98690689Y-54374898D01*
X97925001Y-53609210D01*
X97925000Y-53609210D01*
X97159310Y-54374899D01*
X95010500Y-54374899D01*
X95010500Y-53249999D01*
X96562346Y-53249999D01*
X96580931Y-53474283D01*
X96636180Y-53692456D01*
X96726580Y-53898548D01*
X96801922Y-54013866D01*
X97565790Y-53250000D01*
X96801922Y-52486133D01*
X96726580Y-52601451D01*
X96636180Y-52807543D01*
X96580931Y-53025716D01*
X96562346Y-53249999D01*
X95010500Y-53249999D01*
X95010500Y-52125100D01*
X97159310Y-52125100D01*
X97925000Y-52890789D01*
X97925000Y-52890790D01*
X99048076Y-54013867D01*
X99048077Y-54013866D01*
X99123418Y-53898551D01*
X99213819Y-53692457D01*
X99269068Y-53474284D01*
X99275544Y-53396132D01*
X99299408Y-53332160D01*
X99353137Y-53290029D01*
X99420954Y-53282109D01*
X99466373Y-53303076D01*
X99468169Y-53300146D01*
X99476620Y-53305325D01*
X99476624Y-53305328D01*
X99692498Y-53437616D01*
X99926409Y-53534505D01*
X100113491Y-53579419D01*
X100172596Y-53593609D01*
X100191011Y-53595058D01*
X100425000Y-53613474D01*
X100677403Y-53593609D01*
X100923591Y-53534505D01*
X101157502Y-53437616D01*
X101373376Y-53305328D01*
X101565898Y-53140898D01*
X101730328Y-52948376D01*
X101862616Y-52732502D01*
X101959505Y-52498591D01*
X102018609Y-52252403D01*
X102038474Y-52000000D01*
X102037674Y-51989839D01*
X102036367Y-51973225D01*
X102048794Y-51907972D01*
X102092678Y-51858107D01*
X102155822Y-51837487D01*
X102220677Y-51851845D01*
X102269218Y-51897190D01*
X102326365Y-51989839D01*
X102451660Y-52115134D01*
X102602470Y-52208155D01*
X102770676Y-52263893D01*
X102874498Y-52274500D01*
X103746000Y-52274500D01*
X103746000Y-51308000D01*
X104254000Y-51308000D01*
X104254000Y-52274499D01*
X105125503Y-52274499D01*
X105229323Y-52263893D01*
X105397529Y-52208155D01*
X105548339Y-52115134D01*
X105660905Y-52002569D01*
X105717389Y-51969957D01*
X105782611Y-51969957D01*
X105839095Y-52002569D01*
X105951660Y-52115134D01*
X106102470Y-52208155D01*
X106270676Y-52263893D01*
X106374498Y-52274500D01*
X107246000Y-52274500D01*
X107246000Y-51308000D01*
X107754000Y-51308000D01*
X107754000Y-52274499D01*
X108625503Y-52274499D01*
X108729323Y-52263893D01*
X108897529Y-52208155D01*
X109048339Y-52115134D01*
X109160905Y-52002569D01*
X109217389Y-51969957D01*
X109282611Y-51969957D01*
X109339095Y-52002569D01*
X109451660Y-52115134D01*
X109602470Y-52208155D01*
X109770676Y-52263893D01*
X109874498Y-52274500D01*
X110746000Y-52274500D01*
X110746000Y-51308000D01*
X111254000Y-51308000D01*
X111254000Y-52274499D01*
X112125503Y-52274499D01*
X112229323Y-52263893D01*
X112397529Y-52208155D01*
X112548339Y-52115134D01*
X112660905Y-52002569D01*
X112717389Y-51969957D01*
X112782611Y-51969957D01*
X112839095Y-52002569D01*
X112951660Y-52115134D01*
X113102470Y-52208155D01*
X113270676Y-52263893D01*
X113374498Y-52274500D01*
X114246000Y-52274500D01*
X114246000Y-51308000D01*
X114754000Y-51308000D01*
X114754000Y-52274499D01*
X115625503Y-52274499D01*
X115729323Y-52263893D01*
X115897529Y-52208155D01*
X116048339Y-52115134D01*
X116173634Y-51989839D01*
X116266655Y-51839029D01*
X116322393Y-51670823D01*
X116333000Y-51567002D01*
X116333000Y-51308000D01*
X114754000Y-51308000D01*
X114246000Y-51308000D01*
X111254000Y-51308000D01*
X110746000Y-51308000D01*
X107754000Y-51308000D01*
X107246000Y-51308000D01*
X104254000Y-51308000D01*
X103746000Y-51308000D01*
X102167001Y-51308000D01*
X102167001Y-51368903D01*
X102148434Y-51434738D01*
X102098204Y-51481170D01*
X102031115Y-51494515D01*
X101966940Y-51470839D01*
X101924592Y-51417121D01*
X101862616Y-51267499D01*
X101862616Y-51267498D01*
X101730328Y-51051624D01*
X101565898Y-50859102D01*
X101373376Y-50694672D01*
X101157502Y-50562384D01*
X100923591Y-50465495D01*
X100677403Y-50406390D01*
X100425000Y-50386526D01*
X100172596Y-50406390D01*
X99926408Y-50465495D01*
X99692499Y-50562383D01*
X99584560Y-50628528D01*
X99476624Y-50694672D01*
X99476622Y-50694673D01*
X99476623Y-50694673D01*
X99284102Y-50859102D01*
X99119673Y-51051623D01*
X98987383Y-51267499D01*
X98890495Y-51501408D01*
X98831390Y-51747596D01*
X98812711Y-51984941D01*
X98792795Y-52043643D01*
X98747297Y-52085745D01*
X98687229Y-52101055D01*
X98627130Y-52085869D01*
X98472371Y-52002117D01*
X98259508Y-51929042D01*
X98037530Y-51892000D01*
X97812470Y-51892000D01*
X97590491Y-51929042D01*
X97377628Y-52002117D01*
X97179700Y-52109231D01*
X97159310Y-52125099D01*
X97159310Y-52125100D01*
X95010500Y-52125100D01*
X95010500Y-50164000D01*
X95027381Y-50101000D01*
X95073500Y-50054881D01*
X95136500Y-50038000D01*
X102150051Y-50038000D01*
X102213843Y-50055342D01*
G37*
G04 #@! TD.AperFunction*
G04 #@! TA.AperFunction,Conductor*
G36*
X149796230Y-83275621D02*
G01*
X149842411Y-83322331D01*
X149858808Y-83385936D01*
X149740307Y-93781300D01*
X149726056Y-93838088D01*
X149687677Y-93882304D01*
X149633458Y-93904401D01*
X149575106Y-93899608D01*
X149525220Y-93868959D01*
X149431810Y-93775549D01*
X149425288Y-93771692D01*
X149288601Y-93690855D01*
X149288600Y-93690854D01*
X149288599Y-93690854D01*
X149161847Y-93654030D01*
X149114669Y-93628414D01*
X149082436Y-93585484D01*
X149071000Y-93533033D01*
X149071000Y-85371353D01*
X149073295Y-85350563D01*
X149072522Y-85325972D01*
X149071061Y-85279500D01*
X149071000Y-85275543D01*
X149071000Y-85247649D01*
X149071000Y-85247644D01*
X149070493Y-85243638D01*
X149069562Y-85231805D01*
X149068990Y-85213592D01*
X149068174Y-85187611D01*
X149062520Y-85168152D01*
X149058513Y-85148806D01*
X149055974Y-85128703D01*
X149039694Y-85087586D01*
X149035853Y-85076366D01*
X149033653Y-85068792D01*
X149023518Y-85033907D01*
X149013206Y-85016470D01*
X149004508Y-84998715D01*
X149003389Y-84995888D01*
X148997052Y-84979883D01*
X148971065Y-84944116D01*
X148964547Y-84934193D01*
X148956435Y-84920476D01*
X148942042Y-84896138D01*
X148927712Y-84881808D01*
X148914878Y-84866781D01*
X148902972Y-84850393D01*
X148902971Y-84850392D01*
X148868900Y-84822205D01*
X148860121Y-84814217D01*
X148145404Y-84099499D01*
X148118091Y-84058622D01*
X148108500Y-84010404D01*
X148108500Y-83576132D01*
X148108500Y-83576128D01*
X148098236Y-83475664D01*
X148081159Y-83424130D01*
X148076231Y-83365332D01*
X148098614Y-83310736D01*
X148143399Y-83272316D01*
X148200765Y-83258500D01*
X149732816Y-83258500D01*
X149796230Y-83275621D01*
G37*
G04 #@! TD.AperFunction*
G04 #@! TA.AperFunction,Conductor*
G36*
X146156601Y-83272316D02*
G01*
X146201386Y-83310736D01*
X146223769Y-83365332D01*
X146218840Y-83424130D01*
X146201764Y-83475664D01*
X146191500Y-83576128D01*
X146191500Y-84423872D01*
X146201764Y-84524336D01*
X146255698Y-84687101D01*
X146309592Y-84774476D01*
X146345717Y-84833043D01*
X146477373Y-84964699D01*
X146476274Y-84965797D01*
X146511777Y-85005115D01*
X146523516Y-85074648D01*
X146496057Y-85139598D01*
X146438000Y-85179622D01*
X146335486Y-85213592D01*
X146277262Y-85232885D01*
X146126344Y-85325972D01*
X146000972Y-85451344D01*
X145949829Y-85534259D01*
X145907885Y-85602262D01*
X145852113Y-85770574D01*
X145841708Y-85872426D01*
X145841500Y-85874459D01*
X145841500Y-88125540D01*
X145849513Y-88203973D01*
X145852113Y-88229426D01*
X145907885Y-88397738D01*
X145962990Y-88487077D01*
X146000972Y-88548655D01*
X146074262Y-88621945D01*
X146104182Y-88669671D01*
X146110315Y-88725666D01*
X146091435Y-88778738D01*
X146051316Y-88818279D01*
X146038848Y-88825969D01*
X145913472Y-88951345D01*
X145820385Y-89102262D01*
X145764613Y-89270573D01*
X145761075Y-89305202D01*
X145754000Y-89374456D01*
X145754000Y-91625544D01*
X145757457Y-91659381D01*
X145764613Y-91729426D01*
X145792498Y-91813581D01*
X145820385Y-91897738D01*
X145913470Y-92048651D01*
X145913472Y-92048654D01*
X146038845Y-92174027D01*
X146038847Y-92174028D01*
X146038849Y-92174030D01*
X146189762Y-92267115D01*
X146358075Y-92322887D01*
X146461956Y-92333500D01*
X147488040Y-92333500D01*
X147488044Y-92333500D01*
X147591925Y-92322887D01*
X147638367Y-92307497D01*
X147697167Y-92302568D01*
X147751764Y-92324951D01*
X147790183Y-92369736D01*
X147804000Y-92427102D01*
X147804000Y-92768549D01*
X147790267Y-92825752D01*
X147752061Y-92870485D01*
X147697711Y-92892998D01*
X147639064Y-92888382D01*
X147588905Y-92857644D01*
X147556810Y-92825549D01*
X147454588Y-92765095D01*
X147413601Y-92740855D01*
X147413600Y-92740854D01*
X147413599Y-92740854D01*
X147253833Y-92694438D01*
X147243165Y-92693598D01*
X147216502Y-92691500D01*
X147216497Y-92691500D01*
X146447276Y-92691500D01*
X146427566Y-92689949D01*
X146407557Y-92686779D01*
X146363539Y-92690941D01*
X146351681Y-92691500D01*
X142139595Y-92691500D01*
X142091377Y-92681909D01*
X142050500Y-92654595D01*
X141272339Y-91876434D01*
X141238830Y-91816396D01*
X141241830Y-91747706D01*
X141247886Y-91729429D01*
X141247885Y-91729429D01*
X141247887Y-91729426D01*
X141258500Y-91625545D01*
X141258500Y-90754000D01*
X142779501Y-90754000D01*
X142779501Y-91625503D01*
X142790106Y-91729323D01*
X142845844Y-91897529D01*
X142938865Y-92048339D01*
X143064160Y-92173634D01*
X143214970Y-92266655D01*
X143383176Y-92322393D01*
X143486998Y-92333000D01*
X143746000Y-92333000D01*
X143746000Y-90754000D01*
X144254000Y-90754000D01*
X144254000Y-92332999D01*
X144513003Y-92332999D01*
X144616823Y-92322393D01*
X144785029Y-92266655D01*
X144935839Y-92173634D01*
X145061134Y-92048339D01*
X145154155Y-91897529D01*
X145209893Y-91729323D01*
X145220500Y-91625502D01*
X145220500Y-90754000D01*
X144254000Y-90754000D01*
X143746000Y-90754000D01*
X142779501Y-90754000D01*
X141258500Y-90754000D01*
X141258499Y-89374456D01*
X141247887Y-89270574D01*
X141241828Y-89252292D01*
X141238829Y-89183602D01*
X141272335Y-89123567D01*
X142440501Y-87955402D01*
X142481376Y-87928091D01*
X142529594Y-87918500D01*
X142609781Y-87918500D01*
X142609781Y-87920306D01*
X142644908Y-87920764D01*
X142694791Y-87945361D01*
X142729224Y-87989037D01*
X142741500Y-88043283D01*
X142741500Y-88125539D01*
X142749513Y-88203973D01*
X142752113Y-88229426D01*
X142807885Y-88397738D01*
X142862990Y-88487077D01*
X142900972Y-88548655D01*
X143032326Y-88680009D01*
X143064938Y-88736493D01*
X143064938Y-88801715D01*
X143032327Y-88858199D01*
X142938864Y-88951662D01*
X142845844Y-89102470D01*
X142790106Y-89270676D01*
X142779500Y-89374498D01*
X142779500Y-90246000D01*
X145220499Y-90246000D01*
X145220499Y-89374497D01*
X145209893Y-89270676D01*
X145154155Y-89102470D01*
X145061134Y-88951660D01*
X144935840Y-88826366D01*
X144876933Y-88790031D01*
X144836813Y-88750490D01*
X144817933Y-88697417D01*
X144824066Y-88641422D01*
X144853984Y-88593697D01*
X144899030Y-88548652D01*
X144992115Y-88397738D01*
X145047887Y-88229426D01*
X145058500Y-88125545D01*
X145058499Y-85874456D01*
X145047887Y-85770574D01*
X144992115Y-85602262D01*
X144899030Y-85451348D01*
X144899028Y-85451346D01*
X144899027Y-85451344D01*
X144773655Y-85325972D01*
X144773652Y-85325970D01*
X144622738Y-85232885D01*
X144622736Y-85232884D01*
X144622734Y-85232883D01*
X144527051Y-85201177D01*
X144468994Y-85161151D01*
X144441536Y-85096200D01*
X144453276Y-85026667D01*
X144500534Y-84974334D01*
X144533040Y-84954285D01*
X144654285Y-84833040D01*
X144744302Y-84687101D01*
X144798236Y-84524336D01*
X144808500Y-84423872D01*
X144808500Y-84166371D01*
X144818091Y-84118153D01*
X144845405Y-84077276D01*
X145627276Y-83295405D01*
X145668153Y-83268091D01*
X145716371Y-83258500D01*
X146099235Y-83258500D01*
X146156601Y-83272316D01*
G37*
G04 #@! TD.AperFunction*
G04 #@! TA.AperFunction,Conductor*
G36*
X143728500Y-71016881D02*
G01*
X143774619Y-71063000D01*
X143791500Y-71126000D01*
X143791500Y-71804307D01*
X143788465Y-71831794D01*
X143764298Y-71939906D01*
X143769326Y-72099888D01*
X143786497Y-72158989D01*
X143791500Y-72194142D01*
X143791500Y-73125540D01*
X143802112Y-73229425D01*
X143802113Y-73229426D01*
X143857885Y-73397738D01*
X143924559Y-73505833D01*
X143950972Y-73548655D01*
X144063576Y-73661259D01*
X144096188Y-73717743D01*
X144096188Y-73782965D01*
X144063577Y-73839449D01*
X143951364Y-73951662D01*
X143858344Y-74102470D01*
X143802606Y-74270676D01*
X143792000Y-74374498D01*
X143792000Y-75246000D01*
X145140500Y-75246000D01*
X145203500Y-75262881D01*
X145249619Y-75309000D01*
X145266500Y-75372000D01*
X145266500Y-77332999D01*
X145454056Y-77332999D01*
X145520826Y-77352145D01*
X145567304Y-77403764D01*
X145579366Y-77472168D01*
X145576441Y-77499998D01*
X145596623Y-77692020D01*
X145656286Y-77875645D01*
X145752823Y-78042852D01*
X145752825Y-78042854D01*
X145786832Y-78080623D01*
X145815942Y-78136481D01*
X145814376Y-78199450D01*
X145782526Y-78253794D01*
X145728351Y-78285929D01*
X145711400Y-78290853D01*
X145638045Y-78334236D01*
X145613160Y-78348953D01*
X145549022Y-78366500D01*
X145370659Y-78366500D01*
X145319633Y-78355706D01*
X145277350Y-78325173D01*
X145251054Y-78280133D01*
X145247887Y-78270576D01*
X145247887Y-78270574D01*
X145192115Y-78102262D01*
X145099030Y-77951348D01*
X145099028Y-77951346D01*
X145099027Y-77951344D01*
X144973655Y-77825972D01*
X144949380Y-77810999D01*
X144822738Y-77732885D01*
X144654426Y-77677113D01*
X144550545Y-77666500D01*
X144550540Y-77666500D01*
X143649459Y-77666500D01*
X143545573Y-77677113D01*
X143377262Y-77732885D01*
X143226344Y-77825972D01*
X143100972Y-77951344D01*
X143100970Y-77951348D01*
X143007885Y-78102262D01*
X142952113Y-78270574D01*
X142943416Y-78355706D01*
X142941500Y-78374459D01*
X142941500Y-80625540D01*
X142949319Y-80702077D01*
X142952113Y-80729426D01*
X143007885Y-80897738D01*
X143080237Y-81015039D01*
X143100972Y-81048655D01*
X143226344Y-81174027D01*
X143226346Y-81174028D01*
X143226348Y-81174030D01*
X143377262Y-81267115D01*
X143545574Y-81322887D01*
X143649455Y-81333500D01*
X144550544Y-81333499D01*
X144654426Y-81322887D01*
X144822738Y-81267115D01*
X144973652Y-81174030D01*
X145099030Y-81048652D01*
X145099031Y-81048649D01*
X145101904Y-81045777D01*
X145152063Y-81015039D01*
X145210709Y-81010423D01*
X145265059Y-81032935D01*
X145303266Y-81077667D01*
X145317000Y-81134869D01*
X145317000Y-81166453D01*
X145319935Y-81203752D01*
X145366317Y-81363398D01*
X145450947Y-81506501D01*
X145465242Y-81520796D01*
X145497061Y-81574453D01*
X145499241Y-81636798D01*
X145471247Y-81692547D01*
X145419942Y-81728035D01*
X145386547Y-81731548D01*
X145386882Y-81735376D01*
X145372212Y-81736659D01*
X145334447Y-81739963D01*
X145322353Y-81741021D01*
X145311372Y-81741500D01*
X145305815Y-81741500D01*
X145274708Y-81745135D01*
X145271067Y-81745507D01*
X145194251Y-81752228D01*
X145175139Y-81756465D01*
X145102653Y-81782846D01*
X145099198Y-81784047D01*
X145025995Y-81808305D01*
X145008372Y-81816837D01*
X144943932Y-81859220D01*
X144940843Y-81861188D01*
X144875221Y-81901665D01*
X144860036Y-81914034D01*
X144807104Y-81970138D01*
X144804552Y-81972765D01*
X143922724Y-82854595D01*
X143881846Y-82881909D01*
X143833628Y-82891500D01*
X143576128Y-82891500D01*
X143475664Y-82901764D01*
X143312899Y-82955698D01*
X143268443Y-82983119D01*
X143166956Y-83045717D01*
X143045716Y-83166957D01*
X143036655Y-83181648D01*
X142990821Y-83225524D01*
X142929415Y-83241500D01*
X140491371Y-83241500D01*
X140443153Y-83231909D01*
X140402276Y-83204595D01*
X137332904Y-80135223D01*
X137305590Y-80094346D01*
X137295999Y-80046128D01*
X137295999Y-79953871D01*
X137305590Y-79905653D01*
X137332904Y-79864776D01*
X137443680Y-79754000D01*
X139842000Y-79754000D01*
X139842000Y-80625503D01*
X139852606Y-80729328D01*
X139908340Y-80897522D01*
X140001367Y-81048342D01*
X140126657Y-81173632D01*
X140277477Y-81266659D01*
X140445671Y-81322393D01*
X140549497Y-81333000D01*
X140746000Y-81333000D01*
X140746000Y-79754000D01*
X141254000Y-79754000D01*
X141254000Y-81333000D01*
X141450503Y-81333000D01*
X141554328Y-81322393D01*
X141722522Y-81266659D01*
X141873342Y-81173632D01*
X141998632Y-81048342D01*
X142091659Y-80897522D01*
X142147393Y-80729328D01*
X142158000Y-80625503D01*
X142158000Y-79754000D01*
X141254000Y-79754000D01*
X140746000Y-79754000D01*
X139842000Y-79754000D01*
X137443680Y-79754000D01*
X137951680Y-79246000D01*
X139842000Y-79246000D01*
X140746000Y-79246000D01*
X140746000Y-77667000D01*
X141254000Y-77667000D01*
X141254000Y-79246000D01*
X142158000Y-79246000D01*
X142158000Y-78374497D01*
X142147393Y-78270671D01*
X142091659Y-78102477D01*
X141998632Y-77951657D01*
X141873342Y-77826367D01*
X141722522Y-77733340D01*
X141554328Y-77677606D01*
X141450503Y-77667000D01*
X141254000Y-77667000D01*
X140746000Y-77667000D01*
X140549497Y-77667000D01*
X140445671Y-77677606D01*
X140277477Y-77733340D01*
X140126657Y-77826367D01*
X140001367Y-77951657D01*
X139908340Y-78102477D01*
X139852606Y-78270671D01*
X139842000Y-78374497D01*
X139842000Y-79246000D01*
X137951680Y-79246000D01*
X138911751Y-78285929D01*
X140490777Y-76706902D01*
X140504624Y-76694936D01*
X140524058Y-76680469D01*
X140556226Y-76642131D01*
X140563642Y-76634037D01*
X140567581Y-76630100D01*
X140587012Y-76605523D01*
X140589286Y-76602731D01*
X140638032Y-76544640D01*
X140638033Y-76544636D01*
X140638890Y-76543616D01*
X140649402Y-76527117D01*
X140662620Y-76498770D01*
X140682036Y-76457131D01*
X140683544Y-76454015D01*
X140717609Y-76386188D01*
X140717610Y-76386179D01*
X140718212Y-76384983D01*
X140724634Y-76366509D01*
X140740238Y-76290935D01*
X140741022Y-76287397D01*
X140758500Y-76213656D01*
X140758500Y-76213654D01*
X140758808Y-76212355D01*
X140760797Y-76192885D01*
X140760758Y-76191560D01*
X140760759Y-76191558D01*
X140758553Y-76115741D01*
X140758500Y-76112077D01*
X140758500Y-75754000D01*
X143792001Y-75754000D01*
X143792001Y-76625503D01*
X143802606Y-76729323D01*
X143858344Y-76897529D01*
X143951365Y-77048339D01*
X144076660Y-77173634D01*
X144227470Y-77266655D01*
X144395676Y-77322393D01*
X144499498Y-77333000D01*
X144758500Y-77333000D01*
X144758500Y-75754000D01*
X143792001Y-75754000D01*
X140758500Y-75754000D01*
X140758500Y-75322386D01*
X140772737Y-75264205D01*
X140812230Y-75219173D01*
X140860432Y-75185422D01*
X141025422Y-75020432D01*
X141159256Y-74829297D01*
X141257867Y-74617826D01*
X141318258Y-74392444D01*
X141338594Y-74160000D01*
X141318258Y-73927556D01*
X141257867Y-73702174D01*
X141159256Y-73490703D01*
X141025422Y-73299568D01*
X140860432Y-73134578D01*
X140812229Y-73100826D01*
X140772737Y-73055795D01*
X140758500Y-72997614D01*
X140758500Y-71126000D01*
X140775381Y-71063000D01*
X140821500Y-71016881D01*
X140884500Y-71000000D01*
X143665500Y-71000000D01*
X143728500Y-71016881D01*
G37*
G04 #@! TD.AperFunction*
G04 #@! TA.AperFunction,Conductor*
G36*
X145473269Y-79643091D02*
G01*
X145514142Y-79670402D01*
X145568193Y-79724453D01*
X145711399Y-79809145D01*
X145871169Y-79855562D01*
X145908498Y-79858500D01*
X147065500Y-79858500D01*
X147128500Y-79875381D01*
X147174619Y-79921500D01*
X147191500Y-79984500D01*
X147191500Y-80016000D01*
X147174619Y-80079000D01*
X147128500Y-80125119D01*
X147065500Y-80142000D01*
X146816500Y-80142000D01*
X146816500Y-80696000D01*
X147445158Y-80696000D01*
X147509297Y-80713547D01*
X147552927Y-80739350D01*
X147586399Y-80759145D01*
X147746169Y-80805562D01*
X147783498Y-80808500D01*
X149091497Y-80808500D01*
X149091502Y-80808500D01*
X149128831Y-80805562D01*
X149288601Y-80759145D01*
X149431807Y-80674453D01*
X149549453Y-80556807D01*
X149634145Y-80413601D01*
X149645741Y-80373686D01*
X149675503Y-80321938D01*
X149725750Y-80289695D01*
X149785199Y-80284203D01*
X149840503Y-80306694D01*
X149879245Y-80352119D01*
X149892728Y-80410279D01*
X149882961Y-81267114D01*
X149879788Y-81545554D01*
X149878974Y-81616936D01*
X149861619Y-81679327D01*
X149815567Y-81724858D01*
X149752982Y-81741500D01*
X147743244Y-81741500D01*
X147686041Y-81727767D01*
X147641308Y-81689561D01*
X147618795Y-81635211D01*
X147623411Y-81576564D01*
X147654149Y-81526405D01*
X147674052Y-81506501D01*
X147758681Y-81363399D01*
X147804993Y-81204000D01*
X146434500Y-81204000D01*
X146371500Y-81187119D01*
X146325381Y-81141000D01*
X146308500Y-81078000D01*
X146308500Y-80142001D01*
X145908546Y-80142001D01*
X145871247Y-80144935D01*
X145711601Y-80191317D01*
X145568498Y-80275947D01*
X145473595Y-80370851D01*
X145423436Y-80401589D01*
X145364789Y-80406205D01*
X145310439Y-80383692D01*
X145272233Y-80338959D01*
X145258500Y-80281756D01*
X145258500Y-79759500D01*
X145275381Y-79696500D01*
X145321500Y-79650381D01*
X145384500Y-79633500D01*
X145425050Y-79633500D01*
X145473269Y-79643091D01*
G37*
G04 #@! TD.AperFunction*
G04 #@! TA.AperFunction,Conductor*
G36*
X112839095Y-54978277D02*
G01*
X112951345Y-55090527D01*
X112951347Y-55090528D01*
X112951349Y-55090530D01*
X113102262Y-55183615D01*
X113270575Y-55239387D01*
X113374456Y-55250000D01*
X113740500Y-55250000D01*
X113803500Y-55266881D01*
X113849619Y-55313000D01*
X113866500Y-55376000D01*
X113866500Y-56829501D01*
X113849619Y-56892501D01*
X113803500Y-56938620D01*
X113740500Y-56955501D01*
X113374456Y-56955501D01*
X113291350Y-56963990D01*
X113270573Y-56966113D01*
X113102262Y-57021885D01*
X112951344Y-57114972D01*
X112839095Y-57227222D01*
X112782611Y-57259834D01*
X112717389Y-57259834D01*
X112660905Y-57227222D01*
X112548655Y-57114972D01*
X112526342Y-57101209D01*
X112397738Y-57021885D01*
X112229426Y-56966113D01*
X112125545Y-56955500D01*
X112125541Y-56955500D01*
X111759500Y-56955500D01*
X111696500Y-56938619D01*
X111650381Y-56892500D01*
X111633500Y-56829500D01*
X111633500Y-55376000D01*
X111650381Y-55313000D01*
X111696500Y-55266881D01*
X111759500Y-55250000D01*
X112125540Y-55250000D01*
X112125544Y-55250000D01*
X112229425Y-55239387D01*
X112397738Y-55183615D01*
X112548651Y-55090530D01*
X112561209Y-55077972D01*
X112660905Y-54978277D01*
X112717389Y-54945665D01*
X112782611Y-54945665D01*
X112839095Y-54978277D01*
G37*
G04 #@! TD.AperFunction*
G04 #@! TA.AperFunction,Conductor*
G36*
X109339095Y-54978277D02*
G01*
X109451345Y-55090527D01*
X109451347Y-55090528D01*
X109451349Y-55090530D01*
X109602262Y-55183615D01*
X109770575Y-55239387D01*
X109874456Y-55250000D01*
X110240500Y-55250000D01*
X110303500Y-55266881D01*
X110349619Y-55313000D01*
X110366500Y-55376000D01*
X110366500Y-56829501D01*
X110349619Y-56892501D01*
X110303500Y-56938620D01*
X110240500Y-56955501D01*
X109874456Y-56955501D01*
X109791350Y-56963990D01*
X109770573Y-56966113D01*
X109602262Y-57021885D01*
X109451344Y-57114972D01*
X109339095Y-57227222D01*
X109282611Y-57259834D01*
X109217389Y-57259834D01*
X109160905Y-57227222D01*
X109048655Y-57114972D01*
X109026342Y-57101209D01*
X108897738Y-57021885D01*
X108729426Y-56966113D01*
X108625545Y-56955500D01*
X108625541Y-56955500D01*
X108259500Y-56955500D01*
X108196500Y-56938619D01*
X108150381Y-56892500D01*
X108133500Y-56829500D01*
X108133500Y-55376000D01*
X108150381Y-55313000D01*
X108196500Y-55266881D01*
X108259500Y-55250000D01*
X108625540Y-55250000D01*
X108625544Y-55250000D01*
X108729425Y-55239387D01*
X108897738Y-55183615D01*
X109048651Y-55090530D01*
X109061209Y-55077972D01*
X109160905Y-54978277D01*
X109217389Y-54945665D01*
X109282611Y-54945665D01*
X109339095Y-54978277D01*
G37*
G04 #@! TD.AperFunction*
G04 #@! TA.AperFunction,Conductor*
G36*
X105839095Y-54978277D02*
G01*
X105951345Y-55090527D01*
X105951347Y-55090528D01*
X105951349Y-55090530D01*
X106102262Y-55183615D01*
X106270575Y-55239387D01*
X106374456Y-55250000D01*
X106740500Y-55250000D01*
X106803500Y-55266881D01*
X106849619Y-55313000D01*
X106866500Y-55376000D01*
X106866500Y-56829501D01*
X106849619Y-56892501D01*
X106803500Y-56938620D01*
X106740500Y-56955501D01*
X106374456Y-56955501D01*
X106291350Y-56963990D01*
X106270573Y-56966113D01*
X106102262Y-57021885D01*
X105951344Y-57114972D01*
X105839095Y-57227222D01*
X105782611Y-57259834D01*
X105717389Y-57259834D01*
X105660905Y-57227222D01*
X105548655Y-57114972D01*
X105526342Y-57101209D01*
X105397738Y-57021885D01*
X105229426Y-56966113D01*
X105125545Y-56955500D01*
X105125541Y-56955500D01*
X104759500Y-56955500D01*
X104696500Y-56938619D01*
X104650381Y-56892500D01*
X104633500Y-56829500D01*
X104633500Y-55376000D01*
X104650381Y-55313000D01*
X104696500Y-55266881D01*
X104759500Y-55250000D01*
X105125540Y-55250000D01*
X105125544Y-55250000D01*
X105229425Y-55239387D01*
X105397738Y-55183615D01*
X105548651Y-55090530D01*
X105561209Y-55077972D01*
X105660905Y-54978277D01*
X105717389Y-54945665D01*
X105782611Y-54945665D01*
X105839095Y-54978277D01*
G37*
G04 #@! TD.AperFunction*
D47*
X95000000Y-50000000D02*
X185000000Y-50000000D01*
X95000000Y-100000000D02*
X95000000Y-50000000D01*
X185000000Y-100000000D02*
X95000000Y-100000000D01*
X185000000Y-50000000D02*
X185000000Y-100000000D01*
M02*
