G04 #@! TF.GenerationSoftware,KiCad,Pcbnew,7.0.1*
G04 #@! TF.CreationDate,2023-06-22T15:14:40+02:00*
G04 #@! TF.ProjectId,CaptorBoard,43617074-6f72-4426-9f61-72642e6b6963,rev?*
G04 #@! TF.SameCoordinates,Original*
G04 #@! TF.FileFunction,Copper,L2,Bot*
G04 #@! TF.FilePolarity,Positive*
%FSLAX46Y46*%
G04 Gerber Fmt 4.6, Leading zero omitted, Abs format (unit mm)*
G04 Created by KiCad (PCBNEW 7.0.1) date 2023-06-22 15:14:40*
%MOMM*%
%LPD*%
G01*
G04 APERTURE LIST*
G04 #@! TA.AperFunction,ComponentPad*
%ADD10R,1.700000X1.700000*%
G04 #@! TD*
G04 #@! TA.AperFunction,ComponentPad*
%ADD11O,1.700000X1.700000*%
G04 #@! TD*
G04 #@! TA.AperFunction,ComponentPad*
%ADD12R,2.200000X2.200000*%
G04 #@! TD*
G04 #@! TA.AperFunction,ComponentPad*
%ADD13O,2.200000X2.200000*%
G04 #@! TD*
G04 #@! TA.AperFunction,ComponentPad*
%ADD14R,2.600000X2.600000*%
G04 #@! TD*
G04 #@! TA.AperFunction,ComponentPad*
%ADD15C,2.600000*%
G04 #@! TD*
G04 #@! TA.AperFunction,ComponentPad*
%ADD16C,2.200000*%
G04 #@! TD*
G04 #@! TA.AperFunction,ComponentPad*
%ADD17C,1.700000*%
G04 #@! TD*
G04 #@! TA.AperFunction,ComponentPad*
%ADD18R,1.600000X1.600000*%
G04 #@! TD*
G04 #@! TA.AperFunction,ComponentPad*
%ADD19O,1.600000X1.600000*%
G04 #@! TD*
G04 #@! TA.AperFunction,ComponentPad*
%ADD20R,2.500000X2.500000*%
G04 #@! TD*
G04 #@! TA.AperFunction,ComponentPad*
%ADD21O,2.500000X2.500000*%
G04 #@! TD*
G04 #@! TA.AperFunction,ComponentPad*
%ADD22C,1.650000*%
G04 #@! TD*
G04 #@! TA.AperFunction,ViaPad*
%ADD23C,0.820000*%
G04 #@! TD*
G04 #@! TA.AperFunction,Conductor*
%ADD24C,0.250000*%
G04 #@! TD*
G04 #@! TA.AperFunction,Conductor*
%ADD25C,2.000000*%
G04 #@! TD*
G04 #@! TA.AperFunction,Conductor*
%ADD26C,0.500000*%
G04 #@! TD*
G04 #@! TA.AperFunction,Conductor*
%ADD27C,4.000000*%
G04 #@! TD*
G04 #@! TA.AperFunction,Profile*
%ADD28C,0.100000*%
G04 #@! TD*
G04 APERTURE END LIST*
D10*
X124891800Y-97536000D03*
D11*
X124891800Y-94996000D03*
X127431800Y-97536000D03*
X127431800Y-94996000D03*
X129971800Y-97536000D03*
X129971800Y-94996000D03*
X132511800Y-97536000D03*
X132511800Y-94996000D03*
X135051800Y-97536000D03*
X135051800Y-94996000D03*
X137591800Y-97536000D03*
X137591800Y-94996000D03*
X140131800Y-97536000D03*
X140131800Y-94996000D03*
X142671800Y-97536000D03*
X142671800Y-94996000D03*
D12*
X164190000Y-56500000D03*
D13*
X171810000Y-56500000D03*
D12*
X171810000Y-52500000D03*
D13*
X164190000Y-52500000D03*
D14*
X179805000Y-63585000D03*
D15*
X179805000Y-58505000D03*
X179805000Y-53425000D03*
D16*
X100425000Y-98000000D03*
X100425000Y-91000000D03*
D17*
X97925000Y-96750000D03*
X97925000Y-92250000D03*
D16*
X100425000Y-59000000D03*
X100425000Y-52000000D03*
D17*
X97925000Y-57750000D03*
X97925000Y-53250000D03*
D18*
X154975000Y-63000000D03*
D19*
X157515000Y-63000000D03*
X160055000Y-63000000D03*
X160055000Y-55380000D03*
X157515000Y-55380000D03*
X154975000Y-55380000D03*
D18*
X146475000Y-63000000D03*
D19*
X149015000Y-63000000D03*
X151555000Y-63000000D03*
X151555000Y-55380000D03*
X149015000Y-55380000D03*
X146475000Y-55380000D03*
D11*
X119110600Y-97993200D03*
X116570600Y-97993200D03*
X114030600Y-97993200D03*
D10*
X111490600Y-97993200D03*
D20*
X153372500Y-73500000D03*
D21*
X155372500Y-79500000D03*
X167572500Y-79500000D03*
X167572500Y-67500000D03*
X155372500Y-67500000D03*
D14*
X179805000Y-96585000D03*
D15*
X179805000Y-91505000D03*
X179805000Y-86425000D03*
D22*
X140000000Y-74160000D03*
X129840000Y-74160000D03*
X134920000Y-53840000D03*
X140000000Y-53840000D03*
D14*
X179805000Y-80085000D03*
D15*
X179805000Y-75005000D03*
X179805000Y-69925000D03*
D20*
X153372500Y-91000000D03*
D21*
X155372500Y-97000000D03*
X167572500Y-97000000D03*
X167572500Y-85000000D03*
X155372500Y-85000000D03*
D23*
X112420400Y-93065600D03*
X134543447Y-86131753D03*
X149000000Y-84500000D03*
X148513800Y-78232000D03*
X107950000Y-63398400D03*
X148500000Y-81500000D03*
X145465800Y-85293200D03*
X96012000Y-95250000D03*
X113131600Y-87833200D03*
X100838000Y-71882000D03*
X100838000Y-77470000D03*
X142500000Y-75500000D03*
X109270800Y-56083200D03*
X105714800Y-56083200D03*
X106426000Y-71882000D03*
X106426000Y-77470000D03*
X102717600Y-63627000D03*
X146532600Y-69037200D03*
X112776000Y-56083200D03*
X105765600Y-84759800D03*
X98500500Y-84033500D03*
X105228819Y-92385281D03*
X97585782Y-81235000D03*
X97777572Y-66605500D03*
X102500000Y-66500000D03*
X115837331Y-85991069D03*
X132511800Y-87156200D03*
X96867236Y-79815164D03*
X111746071Y-80936500D03*
X137845800Y-87156700D03*
X110210600Y-81350700D03*
X98425000Y-63804800D03*
X102616000Y-84074000D03*
X99029430Y-67431830D03*
X96919168Y-67556768D03*
X103911400Y-84099400D03*
X146500000Y-77500000D03*
X112826447Y-69545553D03*
X142372000Y-87000000D03*
X112196071Y-80021688D03*
X116637622Y-86844950D03*
X117399872Y-87607200D03*
D24*
X104493819Y-91883627D02*
X101796396Y-89186204D01*
X104493819Y-92689728D02*
X104493819Y-91883627D01*
X106253547Y-92400000D02*
X105533266Y-93120281D01*
X104924372Y-93120281D02*
X104493819Y-92689728D01*
X111754800Y-92400000D02*
X106253547Y-92400000D01*
X112420400Y-93065600D02*
X111754800Y-92400000D01*
X105533266Y-93120281D02*
X104924372Y-93120281D01*
X97585782Y-81278982D02*
X97585782Y-81235000D01*
X99235000Y-85988411D02*
X99235000Y-82928200D01*
X105228819Y-91982230D02*
X99235000Y-85988411D01*
X105228819Y-92385281D02*
X105228819Y-91982230D01*
X99235000Y-82928200D02*
X97585782Y-81278982D01*
X101850000Y-91774200D02*
X101850000Y-89239808D01*
X97925000Y-95699200D02*
X101850000Y-91774200D01*
X97925000Y-96750000D02*
X97925000Y-95699200D01*
X101850000Y-89239808D02*
X101796396Y-89186204D01*
X101796396Y-89186204D02*
X98500000Y-85889807D01*
X98500000Y-85889807D02*
X98500000Y-85725000D01*
X98500000Y-84034000D02*
X98500000Y-85725000D01*
X98500500Y-84033500D02*
X98500000Y-84034000D01*
X134382894Y-85971200D02*
X132020957Y-85971200D01*
X134543447Y-86131753D02*
X134382894Y-85971200D01*
X141002600Y-93326800D02*
X142671800Y-94996000D01*
X135461293Y-92471000D02*
X136317093Y-93326800D01*
X132290481Y-92471000D02*
X135461293Y-92471000D01*
X131390481Y-91571000D02*
X132290481Y-92471000D01*
X128223368Y-90671000D02*
X129223273Y-90671000D01*
X129223273Y-90671000D02*
X130123273Y-91571000D01*
X118086716Y-87891700D02*
X125444068Y-87891700D01*
X117802216Y-87607200D02*
X118086716Y-87891700D01*
X136317093Y-93326800D02*
X141002600Y-93326800D01*
X130123273Y-91571000D02*
X131390481Y-91571000D01*
X117399872Y-87607200D02*
X117802216Y-87607200D01*
X125444068Y-87891700D02*
X128223368Y-90671000D01*
X138912600Y-93776800D02*
X140131800Y-94996000D01*
X136130697Y-93776800D02*
X138912600Y-93776800D01*
X135274897Y-92921000D02*
X136130697Y-93776800D01*
X132104085Y-92921000D02*
X135274897Y-92921000D01*
X129036877Y-91121000D02*
X129936877Y-92021000D01*
X129936877Y-92021000D02*
X131204085Y-92021000D01*
X128036972Y-91121000D02*
X129036877Y-91121000D01*
X125257672Y-88341700D02*
X128036972Y-91121000D01*
X117094000Y-88341700D02*
X125257672Y-88341700D01*
X131204085Y-92021000D02*
X132104085Y-92921000D01*
X117094000Y-88340775D02*
X117094000Y-88341700D01*
X116637622Y-87884397D02*
X117094000Y-88340775D01*
X100385200Y-65765000D02*
X98425000Y-63804800D01*
X111180200Y-65765000D02*
X100385200Y-65765000D01*
X112091447Y-66676247D02*
X111180200Y-65765000D01*
X112091447Y-70485690D02*
X112091447Y-66676247D01*
X113240400Y-71634643D02*
X112091447Y-70485690D01*
X109475600Y-81046253D02*
X113240400Y-77281453D01*
X109475600Y-81655147D02*
X109475600Y-81046253D01*
X109941953Y-82121500D02*
X109475600Y-81655147D01*
X112952912Y-82121500D02*
X109941953Y-82121500D01*
X114811700Y-83980288D02*
X112952912Y-82121500D01*
X113240400Y-77281453D02*
X113240400Y-71634643D01*
X114811700Y-86262100D02*
X114811700Y-83980288D01*
X116187622Y-87638022D02*
X114811700Y-86262100D01*
X116907604Y-88791700D02*
X116187622Y-88071718D01*
X127850576Y-91571000D02*
X125071276Y-88791700D01*
X128850481Y-91571000D02*
X127850576Y-91571000D01*
X116187622Y-88071718D02*
X116187622Y-87638022D01*
X131917689Y-93371000D02*
X131017689Y-92471000D01*
X135088501Y-93371000D02*
X131917689Y-93371000D01*
X135944301Y-94226800D02*
X135088501Y-93371000D01*
X137591800Y-94996000D02*
X136822600Y-94226800D01*
X131017689Y-92471000D02*
X129750481Y-92471000D01*
X125071276Y-88791700D02*
X116907604Y-88791700D01*
X129750481Y-92471000D02*
X128850481Y-91571000D01*
X136822600Y-94226800D02*
X135944301Y-94226800D01*
X135051800Y-94970600D02*
X135051800Y-94996000D01*
X133902200Y-93821000D02*
X135051800Y-94970600D01*
X130831293Y-92921000D02*
X131731293Y-93821000D01*
X127664180Y-92021000D02*
X128664085Y-92021000D01*
X129564085Y-92921000D02*
X130831293Y-92921000D01*
X131731293Y-93821000D02*
X133902200Y-93821000D01*
X124893180Y-89250000D02*
X127664180Y-92021000D01*
X106951361Y-89250000D02*
X124893180Y-89250000D01*
X103809800Y-84201000D02*
X103809800Y-86108439D01*
X103809800Y-86108439D02*
X106951361Y-89250000D01*
X128664085Y-92021000D02*
X129564085Y-92921000D01*
X103911400Y-84099400D02*
X103809800Y-84201000D01*
X131691800Y-94996000D02*
X132511800Y-94996000D01*
X131691800Y-94417903D02*
X131691800Y-94996000D01*
X129377689Y-93371000D02*
X130644897Y-93371000D01*
X128477689Y-92471000D02*
X129377689Y-93371000D01*
X106764965Y-89700000D02*
X124706784Y-89700000D01*
X127477784Y-92471000D02*
X128477689Y-92471000D01*
X102616000Y-85551035D02*
X106764965Y-89700000D01*
X102616000Y-84074000D02*
X102616000Y-85551035D01*
X130644897Y-93371000D02*
X131691800Y-94417903D01*
X124706784Y-89700000D02*
X127477784Y-92471000D01*
X131241800Y-96266000D02*
X132511800Y-97536000D01*
X131241800Y-94604299D02*
X131241800Y-96266000D01*
X130458501Y-93821000D02*
X131241800Y-94604299D01*
X127291388Y-92921000D02*
X128291293Y-92921000D01*
X124520388Y-90150000D02*
X127291388Y-92921000D01*
X106578569Y-90150000D02*
X124520388Y-90150000D01*
X129191293Y-93821000D02*
X130458501Y-93821000D01*
X100356296Y-80771500D02*
X101485000Y-81900204D01*
X100356296Y-80356296D02*
X100356296Y-80771500D01*
X101485000Y-81900204D02*
X101485000Y-85056431D01*
X97350000Y-70150000D02*
X97350000Y-77350000D01*
X101000000Y-66500000D02*
X97350000Y-70150000D01*
X97350000Y-77350000D02*
X100356296Y-80356296D01*
X128291293Y-92921000D02*
X129191293Y-93821000D01*
X101485000Y-85056431D02*
X106578569Y-90150000D01*
X102500000Y-66500000D02*
X101000000Y-66500000D01*
X129729897Y-94996000D02*
X129971800Y-94996000D01*
X128104897Y-93371000D02*
X129729897Y-94996000D01*
X127104992Y-93371000D02*
X128104897Y-93371000D01*
X124333992Y-90600000D02*
X127104992Y-93371000D01*
X106392173Y-90600000D02*
X124333992Y-90600000D01*
X101035000Y-85242827D02*
X106392173Y-90600000D01*
X101035000Y-82086600D02*
X101035000Y-85242827D01*
X100169900Y-81221500D02*
X101035000Y-82086600D01*
X100117866Y-81221500D02*
X100169900Y-81221500D01*
X99687313Y-80790947D02*
X100117866Y-81221500D01*
X96900000Y-69571600D02*
X96900000Y-77536396D01*
X96900000Y-77536396D02*
X99687313Y-80323709D01*
X97078800Y-69392800D02*
X96900000Y-69571600D01*
X99687313Y-80323709D02*
X99687313Y-80790947D01*
X97078800Y-69382460D02*
X97078800Y-69392800D01*
X99029430Y-67431830D02*
X97078800Y-69382460D01*
X128701800Y-96266000D02*
X129971800Y-97536000D01*
X128701800Y-94604299D02*
X128701800Y-96266000D01*
X127918501Y-93821000D02*
X128701800Y-94604299D01*
X126918596Y-93821000D02*
X127918501Y-93821000D01*
X124147596Y-91050000D02*
X126918596Y-93821000D01*
X106205777Y-91050000D02*
X124147596Y-91050000D01*
X100585000Y-82272996D02*
X100585000Y-85429223D01*
X100075302Y-81763298D02*
X100585000Y-82272996D01*
X99237313Y-80510105D02*
X99237313Y-80977343D01*
X100585000Y-85429223D02*
X106205777Y-91050000D01*
X96450000Y-69065383D02*
X96450000Y-77722792D01*
X97777572Y-67737811D02*
X96450000Y-69065383D01*
X99237313Y-80977343D02*
X100023268Y-81763298D01*
X100023268Y-81763298D02*
X100075302Y-81763298D01*
X96450000Y-77722792D02*
X99237313Y-80510105D01*
X97777572Y-66605500D02*
X97777572Y-67737811D01*
X127431800Y-94970600D02*
X127431800Y-94996000D01*
X123961200Y-91500000D02*
X127431800Y-94970600D01*
X100135000Y-85615619D02*
X106019381Y-91500000D01*
X106019381Y-91500000D02*
X123961200Y-91500000D01*
X100135000Y-82511426D02*
X100135000Y-85615619D01*
X98787313Y-81163739D02*
X100135000Y-82511426D01*
X98787313Y-80696501D02*
X98787313Y-81163739D01*
X96000000Y-68475936D02*
X96000000Y-77909188D01*
X96000000Y-77909188D02*
X98787313Y-80696501D01*
X96919168Y-67556768D02*
X96000000Y-68475936D01*
X116637622Y-87884397D02*
X117095425Y-88342200D01*
X116637622Y-86844950D02*
X116637622Y-87630000D01*
X116637622Y-87630000D02*
X116637622Y-87884397D01*
X118207412Y-87376000D02*
X132292000Y-87376000D01*
X116822481Y-85991069D02*
X118207412Y-87376000D01*
X115837331Y-85991069D02*
X116822481Y-85991069D01*
X132292000Y-87376000D02*
X132511800Y-87156200D01*
X114030600Y-93482000D02*
X114030600Y-97993200D01*
D25*
X160000000Y-58500000D02*
X144660000Y-58500000D01*
X179805000Y-63585000D02*
X176585000Y-63585000D01*
X174500000Y-61500000D02*
X163000000Y-61500000D01*
X163000000Y-61500000D02*
X160000000Y-58500000D01*
X176585000Y-63585000D02*
X174500000Y-61500000D01*
X144660000Y-58500000D02*
X140000000Y-53840000D01*
D26*
X129500000Y-74160000D02*
X133840000Y-74160000D01*
X147015000Y-65000000D02*
X149015000Y-63000000D01*
X143000000Y-65000000D02*
X155515000Y-65000000D01*
X133840000Y-74160000D02*
X143000000Y-65000000D01*
X155515000Y-65000000D02*
X157515000Y-63000000D01*
X143000000Y-65000000D02*
X147015000Y-65000000D01*
D24*
X98337313Y-80882897D02*
X98337313Y-81350135D01*
X99685000Y-85802015D02*
X105832985Y-91950000D01*
X112498600Y-91950000D02*
X114030600Y-93482000D01*
X96867236Y-79815164D02*
X97269580Y-79815164D01*
X98337313Y-81350135D02*
X99685000Y-82697822D01*
X105832985Y-91950000D02*
X112498600Y-91950000D01*
X97269580Y-79815164D02*
X98337313Y-80882897D01*
X99685000Y-82697822D02*
X99685000Y-85802015D01*
D25*
X160055000Y-55380000D02*
X161380000Y-55380000D01*
X161380000Y-55380000D02*
X162500000Y-56500000D01*
X162500000Y-56500000D02*
X164190000Y-56500000D01*
X153303630Y-52500000D02*
X164190000Y-52500000D01*
X151555000Y-54248630D02*
X153303630Y-52500000D01*
X151555000Y-55380000D02*
X151555000Y-54248630D01*
D24*
X131516157Y-86476000D02*
X132020957Y-85971200D01*
X111746071Y-80936500D02*
X113040704Y-80936500D01*
X118580204Y-86476000D02*
X131516157Y-86476000D01*
X113040704Y-80936500D02*
X118580204Y-86476000D01*
D27*
X168997500Y-86425000D02*
X167572500Y-85000000D01*
X179805000Y-86425000D02*
X168997500Y-86425000D01*
X179805000Y-91505000D02*
X163420600Y-91505000D01*
X163420600Y-91505000D02*
X162915600Y-91000000D01*
X162915600Y-91000000D02*
X153372500Y-91000000D01*
X179720950Y-96697800D02*
X167903450Y-96697800D01*
X167987500Y-96585000D02*
X167572500Y-97000000D01*
X179805000Y-69925000D02*
X178637800Y-68757800D01*
X168830300Y-68757800D02*
X167572500Y-67500000D01*
X178637800Y-68757800D02*
X168830300Y-68757800D01*
D24*
X132207353Y-86421200D02*
X133794153Y-86421200D01*
X134529653Y-87156700D02*
X137845800Y-87156700D01*
X113139308Y-81671500D02*
X118393808Y-86926000D01*
X110531400Y-81671500D02*
X113139308Y-81671500D01*
X131776800Y-86926000D02*
X131776800Y-86851753D01*
X118393808Y-86926000D02*
X131776800Y-86926000D01*
X110210600Y-81350700D02*
X110531400Y-81671500D01*
X131776800Y-86851753D02*
X132207353Y-86421200D01*
X133794153Y-86421200D02*
X134529653Y-87156700D01*
D27*
X162500000Y-73500000D02*
X153372500Y-73500000D01*
X179805000Y-75005000D02*
X164005000Y-75005000D01*
X164005000Y-75005000D02*
X162500000Y-73500000D01*
X179805000Y-80085000D02*
X167952500Y-80085000D01*
X167952500Y-80085000D02*
X167572500Y-79705000D01*
D24*
X136059943Y-85971700D02*
X135034643Y-84946400D01*
X113690400Y-80238600D02*
X113690400Y-71448247D01*
X113690400Y-71448247D02*
X112826447Y-70584294D01*
X112826447Y-70584294D02*
X112826447Y-69545553D01*
X141790100Y-85971700D02*
X136059943Y-85971700D01*
X146500000Y-81261800D02*
X141790100Y-85971700D01*
X131772965Y-84946400D02*
X131143365Y-85576000D01*
X119027800Y-85576000D02*
X113690400Y-80238600D01*
X146500000Y-77500000D02*
X146500000Y-81261800D01*
X131143365Y-85576000D02*
X119027800Y-85576000D01*
X135034643Y-84946400D02*
X131772965Y-84946400D01*
X112480571Y-80306188D02*
X113046788Y-80306188D01*
X113046788Y-80306188D02*
X118766600Y-86026000D01*
X118766600Y-86026000D02*
X131329761Y-86026000D01*
X135873547Y-86421700D02*
X141793700Y-86421700D01*
X131329761Y-86026000D02*
X131959361Y-85396400D01*
X112196071Y-80021688D02*
X112480571Y-80306188D01*
X141793700Y-86421700D02*
X142372000Y-87000000D01*
X134848247Y-85396400D02*
X135873547Y-86421700D01*
X131959361Y-85396400D02*
X134848247Y-85396400D01*
G04 #@! TA.AperFunction,Conductor*
G36*
X110913823Y-66408091D02*
G01*
X110954701Y-66435405D01*
X111421043Y-66901748D01*
X111448356Y-66942625D01*
X111457947Y-66990843D01*
X111457947Y-70401837D01*
X111455651Y-70422625D01*
X111457885Y-70493676D01*
X111457947Y-70497635D01*
X111457947Y-70525547D01*
X111458454Y-70529563D01*
X111459384Y-70541386D01*
X111460773Y-70585582D01*
X111466424Y-70605031D01*
X111470433Y-70624386D01*
X111472972Y-70644484D01*
X111489248Y-70685593D01*
X111493091Y-70696820D01*
X111505427Y-70739280D01*
X111515741Y-70756720D01*
X111524434Y-70774464D01*
X111531895Y-70793307D01*
X111531896Y-70793309D01*
X111557878Y-70829070D01*
X111564395Y-70838991D01*
X111586905Y-70877053D01*
X111601225Y-70891373D01*
X111614065Y-70906406D01*
X111625973Y-70922795D01*
X111660039Y-70950977D01*
X111668820Y-70958967D01*
X112569996Y-71860144D01*
X112597309Y-71901021D01*
X112606900Y-71949239D01*
X112606900Y-76966858D01*
X112597309Y-77015076D01*
X112569995Y-77055953D01*
X109086936Y-80539010D01*
X109070616Y-80552086D01*
X109021970Y-80603888D01*
X109019220Y-80606726D01*
X108999468Y-80626479D01*
X108999464Y-80626483D01*
X108999465Y-80626483D01*
X108996979Y-80629686D01*
X108989287Y-80638692D01*
X108959013Y-80670931D01*
X108949252Y-80688687D01*
X108938401Y-80705205D01*
X108925985Y-80721212D01*
X108908424Y-80761792D01*
X108903204Y-80772448D01*
X108881904Y-80811193D01*
X108876867Y-80830812D01*
X108870464Y-80849514D01*
X108862418Y-80868108D01*
X108855501Y-80911777D01*
X108853095Y-80923397D01*
X108842100Y-80966223D01*
X108842100Y-80986477D01*
X108840549Y-81006187D01*
X108837379Y-81026195D01*
X108841541Y-81070214D01*
X108842100Y-81082072D01*
X108842100Y-81571294D01*
X108839804Y-81592082D01*
X108842038Y-81663133D01*
X108842100Y-81667092D01*
X108842100Y-81695004D01*
X108842607Y-81699020D01*
X108843537Y-81710843D01*
X108844926Y-81755039D01*
X108850577Y-81774488D01*
X108854586Y-81793843D01*
X108857125Y-81813941D01*
X108857125Y-81813943D01*
X108857126Y-81813944D01*
X108869227Y-81844509D01*
X108873401Y-81855050D01*
X108877244Y-81866277D01*
X108889580Y-81908737D01*
X108899894Y-81926177D01*
X108908587Y-81943921D01*
X108915071Y-81960296D01*
X108916049Y-81962766D01*
X108942031Y-81998527D01*
X108948548Y-82008448D01*
X108971058Y-82046510D01*
X108985378Y-82060830D01*
X108998218Y-82075863D01*
X109010126Y-82092252D01*
X109044192Y-82120434D01*
X109052973Y-82128424D01*
X109434710Y-82510162D01*
X109447787Y-82526484D01*
X109499603Y-82575142D01*
X109502414Y-82577866D01*
X109522183Y-82597635D01*
X109525396Y-82600127D01*
X109534386Y-82607806D01*
X109566632Y-82638086D01*
X109584379Y-82647842D01*
X109600903Y-82658696D01*
X109616912Y-82671114D01*
X109657495Y-82688675D01*
X109668146Y-82693893D01*
X109706893Y-82715195D01*
X109726513Y-82720232D01*
X109745220Y-82726637D01*
X109751833Y-82729498D01*
X109763807Y-82734681D01*
X109774458Y-82736367D01*
X109807483Y-82741598D01*
X109819078Y-82743998D01*
X109861923Y-82755000D01*
X109882177Y-82755000D01*
X109901887Y-82756551D01*
X109921895Y-82759720D01*
X109921895Y-82759719D01*
X109921896Y-82759720D01*
X109965914Y-82755558D01*
X109977772Y-82755000D01*
X112638318Y-82755000D01*
X112686536Y-82764591D01*
X112727413Y-82791905D01*
X114141295Y-84205787D01*
X114168609Y-84246664D01*
X114178200Y-84294882D01*
X114178200Y-86178247D01*
X114175904Y-86199035D01*
X114178138Y-86270086D01*
X114178200Y-86274045D01*
X114178200Y-86301957D01*
X114178707Y-86305973D01*
X114179637Y-86317796D01*
X114181026Y-86361992D01*
X114186677Y-86381441D01*
X114190686Y-86400796D01*
X114193225Y-86420894D01*
X114209501Y-86462003D01*
X114213344Y-86473230D01*
X114225680Y-86515690D01*
X114235994Y-86533130D01*
X114244687Y-86550874D01*
X114252148Y-86569717D01*
X114252149Y-86569719D01*
X114278131Y-86605480D01*
X114284648Y-86615401D01*
X114307158Y-86653463D01*
X114321478Y-86667783D01*
X114334318Y-86682816D01*
X114346226Y-86699205D01*
X114380298Y-86727392D01*
X114389078Y-86735382D01*
X115517217Y-87863521D01*
X115544531Y-87904398D01*
X115554122Y-87952616D01*
X115554122Y-87987865D01*
X115551826Y-88008653D01*
X115554060Y-88079704D01*
X115554122Y-88083663D01*
X115554122Y-88111575D01*
X115554629Y-88115591D01*
X115555559Y-88127414D01*
X115556948Y-88171610D01*
X115562599Y-88191059D01*
X115566608Y-88210414D01*
X115569147Y-88230512D01*
X115585423Y-88271621D01*
X115589266Y-88282848D01*
X115601602Y-88325308D01*
X115611916Y-88342748D01*
X115620609Y-88360492D01*
X115628070Y-88379335D01*
X115628071Y-88379337D01*
X115654053Y-88415098D01*
X115660537Y-88424964D01*
X115661331Y-88426305D01*
X115678907Y-88489462D01*
X115662375Y-88552900D01*
X115616211Y-88599446D01*
X115552911Y-88616500D01*
X107265956Y-88616500D01*
X107217738Y-88606909D01*
X107176861Y-88579595D01*
X104480205Y-85882939D01*
X104452891Y-85842062D01*
X104443300Y-85793844D01*
X104443300Y-84912481D01*
X104457033Y-84855279D01*
X104495237Y-84810545D01*
X104529382Y-84785738D01*
X104604737Y-84702048D01*
X104658574Y-84642255D01*
X104707370Y-84557739D01*
X104755113Y-84475045D01*
X104814777Y-84291419D01*
X104834959Y-84099400D01*
X104814777Y-83907381D01*
X104755113Y-83723755D01*
X104755113Y-83723754D01*
X104658574Y-83556544D01*
X104529383Y-83413063D01*
X104373180Y-83299574D01*
X104316130Y-83274174D01*
X104196795Y-83221043D01*
X104007938Y-83180900D01*
X103814862Y-83180900D01*
X103688957Y-83207662D01*
X103626004Y-83221043D01*
X103449619Y-83299575D01*
X103355241Y-83368145D01*
X103307377Y-83389456D01*
X103254983Y-83389456D01*
X103207119Y-83368145D01*
X103077780Y-83274174D01*
X103077779Y-83274173D01*
X102901395Y-83195643D01*
X102712538Y-83155500D01*
X102519462Y-83155500D01*
X102330605Y-83195643D01*
X102330603Y-83195643D01*
X102330602Y-83195644D01*
X102295748Y-83211162D01*
X102234614Y-83221667D01*
X102175875Y-83201727D01*
X102133769Y-83156177D01*
X102118500Y-83096055D01*
X102118500Y-81984058D01*
X102120795Y-81963268D01*
X102120187Y-81943927D01*
X102118561Y-81892205D01*
X102118500Y-81888248D01*
X102118500Y-81860353D01*
X102118500Y-81860348D01*
X102117993Y-81856342D01*
X102117062Y-81844509D01*
X102115674Y-81800315D01*
X102110019Y-81780851D01*
X102106013Y-81761511D01*
X102103474Y-81741407D01*
X102087195Y-81700291D01*
X102083356Y-81689076D01*
X102081175Y-81681570D01*
X102071019Y-81646611D01*
X102060703Y-81629168D01*
X102052007Y-81611418D01*
X102044552Y-81592587D01*
X102018554Y-81556804D01*
X102012058Y-81546914D01*
X101989542Y-81508842D01*
X101975212Y-81494512D01*
X101962378Y-81479485D01*
X101950472Y-81463097D01*
X101950471Y-81463096D01*
X101916400Y-81434909D01*
X101907621Y-81426921D01*
X101026700Y-80545999D01*
X100999387Y-80505122D01*
X100989796Y-80456904D01*
X100989796Y-80440150D01*
X100992091Y-80419360D01*
X100990163Y-80358019D01*
X100989857Y-80348297D01*
X100989796Y-80344340D01*
X100989796Y-80316445D01*
X100989796Y-80316440D01*
X100989289Y-80312434D01*
X100988358Y-80300601D01*
X100986970Y-80256407D01*
X100981315Y-80236943D01*
X100977309Y-80217603D01*
X100974770Y-80197499D01*
X100958491Y-80156383D01*
X100954652Y-80145168D01*
X100952184Y-80136674D01*
X100942315Y-80102703D01*
X100931999Y-80085260D01*
X100923303Y-80067510D01*
X100915848Y-80048679D01*
X100889850Y-80012896D01*
X100883354Y-80003006D01*
X100860838Y-79964934D01*
X100846508Y-79950604D01*
X100833674Y-79935577D01*
X100821768Y-79919189D01*
X100821767Y-79919188D01*
X100787690Y-79890996D01*
X100778912Y-79883008D01*
X98020405Y-77124500D01*
X97993091Y-77083623D01*
X97983500Y-77035405D01*
X97983500Y-70464594D01*
X97993091Y-70416376D01*
X98020405Y-70375499D01*
X101225499Y-67170405D01*
X101266376Y-67143091D01*
X101314594Y-67133500D01*
X101778344Y-67133500D01*
X101829594Y-67144394D01*
X101871981Y-67175191D01*
X101877322Y-67181123D01*
X101882018Y-67186338D01*
X102038220Y-67299826D01*
X102214605Y-67378357D01*
X102403462Y-67418500D01*
X102596536Y-67418500D01*
X102596538Y-67418500D01*
X102785395Y-67378357D01*
X102961780Y-67299826D01*
X103117982Y-67186338D01*
X103247175Y-67042854D01*
X103343713Y-66875645D01*
X103403377Y-66692019D01*
X103422368Y-66511327D01*
X103443219Y-66454042D01*
X103488525Y-66413249D01*
X103547678Y-66398500D01*
X110865605Y-66398500D01*
X110913823Y-66408091D01*
G37*
G04 #@! TD.AperFunction*
G04 #@! TA.AperFunction,Conductor*
G36*
X122937206Y-50054832D02*
G01*
X122983312Y-50100832D01*
X123000289Y-50163709D01*
X123005671Y-52498591D01*
X123037599Y-66351799D01*
X123037600Y-66351800D01*
X149543801Y-66351800D01*
X149606801Y-66368681D01*
X149652920Y-66414800D01*
X149669800Y-66477798D01*
X149669893Y-81892206D01*
X149669999Y-99822999D01*
X149653118Y-99886000D01*
X149606999Y-99932119D01*
X149543999Y-99949000D01*
X95136500Y-99949000D01*
X95073500Y-99932119D01*
X95027381Y-99886000D01*
X95010500Y-99823000D01*
X95010500Y-93374899D01*
X97159310Y-93374899D01*
X97179697Y-93390767D01*
X97377628Y-93497882D01*
X97590491Y-93570957D01*
X97812470Y-93608000D01*
X98037530Y-93608000D01*
X98259508Y-93570957D01*
X98472368Y-93497883D01*
X98670305Y-93390764D01*
X98690688Y-93374899D01*
X98690689Y-93374898D01*
X97925001Y-92609210D01*
X97925000Y-92609210D01*
X97159310Y-93374899D01*
X95010500Y-93374899D01*
X95010500Y-92249999D01*
X96562346Y-92249999D01*
X96580931Y-92474283D01*
X96636180Y-92692456D01*
X96726580Y-92898548D01*
X96801922Y-93013866D01*
X97565790Y-92250000D01*
X96801922Y-91486133D01*
X96726580Y-91601451D01*
X96636180Y-91807543D01*
X96580931Y-92025716D01*
X96562346Y-92249999D01*
X95010500Y-92249999D01*
X95010500Y-68455878D01*
X95361779Y-68455878D01*
X95365941Y-68499897D01*
X95366500Y-68511755D01*
X95366500Y-77825335D01*
X95364204Y-77846123D01*
X95366438Y-77917174D01*
X95366500Y-77921133D01*
X95366500Y-77949045D01*
X95367007Y-77953061D01*
X95367937Y-77964884D01*
X95369326Y-78009080D01*
X95374977Y-78028529D01*
X95378986Y-78047884D01*
X95381525Y-78067982D01*
X95397801Y-78109091D01*
X95401644Y-78120318D01*
X95413980Y-78162778D01*
X95424294Y-78180218D01*
X95432987Y-78197962D01*
X95440448Y-78216805D01*
X95440449Y-78216807D01*
X95466431Y-78252568D01*
X95472948Y-78262489D01*
X95495458Y-78300551D01*
X95509778Y-78314871D01*
X95522618Y-78329904D01*
X95534526Y-78346293D01*
X95534527Y-78346294D01*
X95534528Y-78346295D01*
X95568598Y-78374480D01*
X95577378Y-78382470D01*
X96199993Y-79005085D01*
X96232017Y-79059449D01*
X96233669Y-79122523D01*
X96204535Y-79178490D01*
X96120059Y-79272310D01*
X96023522Y-79439518D01*
X95963859Y-79623143D01*
X95943677Y-79815163D01*
X95963859Y-80007184D01*
X96023522Y-80190809D01*
X96120061Y-80358019D01*
X96205857Y-80453305D01*
X96249254Y-80501502D01*
X96405456Y-80614990D01*
X96581841Y-80693521D01*
X96645242Y-80706997D01*
X96706570Y-80739606D01*
X96741300Y-80799760D01*
X96738876Y-80869179D01*
X96682405Y-81042978D01*
X96662223Y-81235000D01*
X96682405Y-81427020D01*
X96742068Y-81610645D01*
X96838607Y-81777855D01*
X96967798Y-81921336D01*
X96967800Y-81921338D01*
X97124002Y-82034826D01*
X97300387Y-82113357D01*
X97489244Y-82153500D01*
X97512206Y-82153500D01*
X97560424Y-82163091D01*
X97601301Y-82190405D01*
X98340428Y-82929532D01*
X98373456Y-82987611D01*
X98372144Y-83054412D01*
X98336863Y-83111151D01*
X98277531Y-83141873D01*
X98215108Y-83155141D01*
X98038719Y-83233675D01*
X97882516Y-83347163D01*
X97753325Y-83490644D01*
X97656786Y-83657854D01*
X97597123Y-83841479D01*
X97576941Y-84033500D01*
X97597123Y-84225520D01*
X97656786Y-84409145D01*
X97753323Y-84576352D01*
X97753325Y-84576354D01*
X97834137Y-84666106D01*
X97858131Y-84705259D01*
X97866500Y-84750414D01*
X97866500Y-85805954D01*
X97864204Y-85826743D01*
X97866438Y-85897806D01*
X97866500Y-85901764D01*
X97866500Y-85929666D01*
X97867006Y-85933674D01*
X97867936Y-85945495D01*
X97869325Y-85989696D01*
X97874979Y-86009156D01*
X97878987Y-86028511D01*
X97881525Y-86048604D01*
X97897799Y-86089706D01*
X97901643Y-86100933D01*
X97907685Y-86121728D01*
X97913982Y-86143400D01*
X97923106Y-86158829D01*
X97924294Y-86160837D01*
X97932987Y-86178581D01*
X97938363Y-86192158D01*
X97940449Y-86197426D01*
X97966431Y-86233187D01*
X97972948Y-86243108D01*
X97995458Y-86281170D01*
X98009778Y-86295490D01*
X98022618Y-86310523D01*
X98034526Y-86326912D01*
X98068598Y-86355099D01*
X98077378Y-86363089D01*
X100944811Y-89230524D01*
X100977250Y-89286371D01*
X100977757Y-89350954D01*
X100946200Y-89407304D01*
X100890869Y-89440616D01*
X100826302Y-89442138D01*
X100677403Y-89406391D01*
X100425000Y-89386526D01*
X100172596Y-89406390D01*
X99926408Y-89465495D01*
X99692499Y-89562383D01*
X99633500Y-89598538D01*
X99476624Y-89694672D01*
X99284102Y-89859102D01*
X99119672Y-90051624D01*
X99103935Y-90077305D01*
X98987383Y-90267499D01*
X98890495Y-90501408D01*
X98831390Y-90747596D01*
X98812711Y-90984941D01*
X98792795Y-91043643D01*
X98747297Y-91085745D01*
X98687229Y-91101055D01*
X98627130Y-91085869D01*
X98472371Y-91002117D01*
X98259508Y-90929042D01*
X98037530Y-90892000D01*
X97812470Y-90892000D01*
X97590491Y-90929042D01*
X97377628Y-91002117D01*
X97179700Y-91109231D01*
X97159310Y-91125099D01*
X97159310Y-91125100D01*
X97925000Y-91890789D01*
X97925000Y-91890790D01*
X99048076Y-93013867D01*
X99048077Y-93013866D01*
X99123418Y-92898551D01*
X99213819Y-92692457D01*
X99269068Y-92474284D01*
X99275544Y-92396132D01*
X99299408Y-92332160D01*
X99353137Y-92290029D01*
X99420954Y-92282109D01*
X99466373Y-92303076D01*
X99468169Y-92300146D01*
X99476620Y-92305325D01*
X99476624Y-92305328D01*
X99692498Y-92437616D01*
X99926409Y-92534505D01*
X99935571Y-92538300D01*
X99934831Y-92540085D01*
X99981158Y-92565429D01*
X100015105Y-92622055D01*
X100015757Y-92688075D01*
X99982933Y-92745360D01*
X97536336Y-95191957D01*
X97520016Y-95205033D01*
X97471370Y-95256835D01*
X97468620Y-95259673D01*
X97448868Y-95279426D01*
X97448864Y-95279430D01*
X97448865Y-95279430D01*
X97446379Y-95282633D01*
X97438687Y-95291639D01*
X97408413Y-95323878D01*
X97398652Y-95341634D01*
X97387801Y-95358152D01*
X97375385Y-95374159D01*
X97357824Y-95414739D01*
X97352604Y-95425395D01*
X97331304Y-95464140D01*
X97326357Y-95483408D01*
X97303619Y-95529627D01*
X97264286Y-95562885D01*
X97179423Y-95608811D01*
X97001762Y-95747091D01*
X96849278Y-95912731D01*
X96726139Y-96101209D01*
X96635702Y-96307388D01*
X96580437Y-96525627D01*
X96580436Y-96525632D01*
X96561844Y-96750000D01*
X96580436Y-96974368D01*
X96580436Y-96974371D01*
X96580437Y-96974372D01*
X96635702Y-97192611D01*
X96726139Y-97398790D01*
X96849278Y-97587268D01*
X97001762Y-97752908D01*
X97179421Y-97891187D01*
X97179424Y-97891189D01*
X97377426Y-97998342D01*
X97590365Y-98071444D01*
X97812431Y-98108500D01*
X98037566Y-98108500D01*
X98037569Y-98108500D01*
X98259635Y-98071444D01*
X98472574Y-97998342D01*
X98627174Y-97914676D01*
X98687272Y-97899491D01*
X98747340Y-97914801D01*
X98792838Y-97956903D01*
X98812754Y-98015605D01*
X98831390Y-98252403D01*
X98890495Y-98498591D01*
X98971476Y-98694098D01*
X98987384Y-98732502D01*
X99119672Y-98948376D01*
X99284102Y-99140898D01*
X99476624Y-99305328D01*
X99692498Y-99437616D01*
X99926409Y-99534505D01*
X100113491Y-99579419D01*
X100172596Y-99593609D01*
X100191011Y-99595058D01*
X100425000Y-99613474D01*
X100677403Y-99593609D01*
X100923591Y-99534505D01*
X101157502Y-99437616D01*
X101373376Y-99305328D01*
X101565898Y-99140898D01*
X101730328Y-98948376D01*
X101862616Y-98732502D01*
X101959505Y-98498591D01*
X102018609Y-98252403D01*
X102038474Y-98000000D01*
X102018609Y-97747597D01*
X101959505Y-97501409D01*
X101862616Y-97267498D01*
X101730328Y-97051624D01*
X101565898Y-96859102D01*
X101373376Y-96694672D01*
X101157502Y-96562384D01*
X101147053Y-96558056D01*
X100923591Y-96465495D01*
X100677403Y-96406390D01*
X100425000Y-96386526D01*
X100172596Y-96406390D01*
X99926408Y-96465495D01*
X99692499Y-96562383D01*
X99632155Y-96599362D01*
X99476624Y-96694672D01*
X99476621Y-96694674D01*
X99468169Y-96699854D01*
X99466288Y-96696784D01*
X99421393Y-96717495D01*
X99353587Y-96709563D01*
X99299871Y-96667431D01*
X99276013Y-96603469D01*
X99269564Y-96525632D01*
X99214296Y-96307384D01*
X99123860Y-96101209D01*
X99000722Y-95912732D01*
X98927569Y-95833267D01*
X98894061Y-95796867D01*
X98864203Y-95740775D01*
X98865516Y-95677245D01*
X98897665Y-95622437D01*
X102238658Y-92281444D01*
X102254979Y-92268370D01*
X102257014Y-92266202D01*
X102257018Y-92266200D01*
X102303677Y-92216511D01*
X102306368Y-92213734D01*
X102326134Y-92193970D01*
X102328605Y-92190783D01*
X102336312Y-92181759D01*
X102366586Y-92149521D01*
X102376343Y-92131770D01*
X102387199Y-92115243D01*
X102399613Y-92099241D01*
X102417172Y-92058661D01*
X102422392Y-92048009D01*
X102443694Y-92009261D01*
X102443695Y-92009260D01*
X102448732Y-91989639D01*
X102455138Y-91970930D01*
X102463181Y-91952345D01*
X102470096Y-91908677D01*
X102472504Y-91897053D01*
X102474112Y-91890790D01*
X102483500Y-91854230D01*
X102483500Y-91833976D01*
X102485051Y-91814266D01*
X102488220Y-91794257D01*
X102484059Y-91750239D01*
X102483500Y-91738381D01*
X102483500Y-91073402D01*
X102497233Y-91016199D01*
X102535439Y-90971466D01*
X102589789Y-90948953D01*
X102648436Y-90953569D01*
X102698595Y-90984307D01*
X103823414Y-92109126D01*
X103850728Y-92150003D01*
X103860319Y-92198221D01*
X103860319Y-92605875D01*
X103858023Y-92626663D01*
X103860257Y-92697714D01*
X103860319Y-92701673D01*
X103860319Y-92729585D01*
X103860826Y-92733601D01*
X103861756Y-92745424D01*
X103863145Y-92789620D01*
X103868796Y-92809069D01*
X103872805Y-92828424D01*
X103875344Y-92848522D01*
X103875344Y-92848524D01*
X103875345Y-92848525D01*
X103885097Y-92873157D01*
X103891620Y-92889631D01*
X103895463Y-92900858D01*
X103907799Y-92943318D01*
X103918113Y-92960758D01*
X103926806Y-92978502D01*
X103934267Y-92997345D01*
X103934268Y-92997347D01*
X103960250Y-93033108D01*
X103966767Y-93043029D01*
X103989277Y-93081091D01*
X104003597Y-93095411D01*
X104016437Y-93110444D01*
X104028345Y-93126833D01*
X104028346Y-93126834D01*
X104028347Y-93126835D01*
X104051911Y-93146329D01*
X104062411Y-93155015D01*
X104071192Y-93163005D01*
X104417129Y-93508943D01*
X104430206Y-93525265D01*
X104432371Y-93527298D01*
X104432372Y-93527299D01*
X104478863Y-93570957D01*
X104482022Y-93573923D01*
X104484833Y-93576647D01*
X104504602Y-93596416D01*
X104507815Y-93598908D01*
X104516805Y-93606587D01*
X104549051Y-93636867D01*
X104566798Y-93646623D01*
X104583322Y-93657477D01*
X104599331Y-93669895D01*
X104639914Y-93687456D01*
X104650565Y-93692674D01*
X104689312Y-93713976D01*
X104708932Y-93719013D01*
X104727639Y-93725418D01*
X104734252Y-93728279D01*
X104746226Y-93733462D01*
X104756877Y-93735148D01*
X104789902Y-93740379D01*
X104801497Y-93742779D01*
X104844342Y-93753781D01*
X104864596Y-93753781D01*
X104884306Y-93755332D01*
X104904314Y-93758501D01*
X104904314Y-93758500D01*
X104904315Y-93758501D01*
X104948333Y-93754339D01*
X104960191Y-93753781D01*
X105449413Y-93753781D01*
X105470201Y-93756076D01*
X105473173Y-93755982D01*
X105473175Y-93755983D01*
X105541251Y-93753843D01*
X105545211Y-93753781D01*
X105573118Y-93753781D01*
X105573122Y-93753781D01*
X105577131Y-93753274D01*
X105588965Y-93752342D01*
X105633155Y-93750954D01*
X105652604Y-93745302D01*
X105671964Y-93741293D01*
X105692063Y-93738755D01*
X105733181Y-93722474D01*
X105744383Y-93718638D01*
X105786859Y-93706299D01*
X105804305Y-93695980D01*
X105822046Y-93687290D01*
X105840883Y-93679833D01*
X105876658Y-93653839D01*
X105886569Y-93647329D01*
X105924628Y-93624823D01*
X105938957Y-93610493D01*
X105953985Y-93597658D01*
X105970373Y-93585753D01*
X105998564Y-93551674D01*
X106006534Y-93542915D01*
X106479046Y-93070404D01*
X106519924Y-93043091D01*
X106568142Y-93033500D01*
X111380016Y-93033500D01*
X111439169Y-93048248D01*
X111484474Y-93089041D01*
X111505326Y-93146329D01*
X111517023Y-93257620D01*
X111576686Y-93441245D01*
X111673225Y-93608455D01*
X111795634Y-93744404D01*
X111802418Y-93751938D01*
X111958620Y-93865426D01*
X112135005Y-93943957D01*
X112323862Y-93984100D01*
X112516936Y-93984100D01*
X112516938Y-93984100D01*
X112705795Y-93943957D01*
X112882180Y-93865426D01*
X113038382Y-93751938D01*
X113123068Y-93657883D01*
X113179862Y-93621702D01*
X113247184Y-93619939D01*
X113305797Y-93653101D01*
X113360195Y-93707499D01*
X113387509Y-93748376D01*
X113397100Y-93796594D01*
X113397100Y-96716279D01*
X113379341Y-96780776D01*
X113331071Y-96827091D01*
X113297778Y-96845108D01*
X113285018Y-96852014D01*
X113107358Y-96990294D01*
X113046354Y-97056562D01*
X112992882Y-97090962D01*
X112929420Y-97094872D01*
X112872130Y-97067296D01*
X112835598Y-97015256D01*
X112826288Y-96990294D01*
X112791489Y-96896996D01*
X112791488Y-96896994D01*
X112703861Y-96779938D01*
X112586805Y-96692311D01*
X112518302Y-96666761D01*
X112449801Y-96641211D01*
X112389238Y-96634700D01*
X110591962Y-96634700D01*
X110531399Y-96641211D01*
X110394394Y-96692311D01*
X110277338Y-96779938D01*
X110189711Y-96896994D01*
X110145602Y-97015256D01*
X110138611Y-97033999D01*
X110132100Y-97094562D01*
X110132100Y-98891838D01*
X110138611Y-98952401D01*
X110154773Y-98995733D01*
X110189711Y-99089405D01*
X110277338Y-99206461D01*
X110394394Y-99294088D01*
X110394395Y-99294088D01*
X110394396Y-99294089D01*
X110531399Y-99345189D01*
X110591962Y-99351700D01*
X112389238Y-99351700D01*
X112449801Y-99345189D01*
X112586804Y-99294089D01*
X112703861Y-99206461D01*
X112791489Y-99089404D01*
X112835599Y-98971141D01*
X112872130Y-98919103D01*
X112929421Y-98891527D01*
X112992882Y-98895437D01*
X113046353Y-98929836D01*
X113084380Y-98971143D01*
X113107362Y-98996108D01*
X113285021Y-99134387D01*
X113285024Y-99134389D01*
X113483026Y-99241542D01*
X113695965Y-99314644D01*
X113918031Y-99351700D01*
X114143166Y-99351700D01*
X114143169Y-99351700D01*
X114365235Y-99314644D01*
X114578174Y-99241542D01*
X114776176Y-99134389D01*
X114953840Y-98996106D01*
X115106322Y-98830468D01*
X115195118Y-98694554D01*
X115240631Y-98652658D01*
X115300600Y-98637472D01*
X115360569Y-98652658D01*
X115406081Y-98694554D01*
X115494878Y-98830468D01*
X115607125Y-98952400D01*
X115647362Y-98996108D01*
X115825021Y-99134387D01*
X115825024Y-99134389D01*
X116023026Y-99241542D01*
X116235965Y-99314644D01*
X116458031Y-99351700D01*
X116683166Y-99351700D01*
X116683169Y-99351700D01*
X116905235Y-99314644D01*
X117118174Y-99241542D01*
X117316176Y-99134389D01*
X117493840Y-98996106D01*
X117646322Y-98830468D01*
X117735418Y-98694096D01*
X117780929Y-98652199D01*
X117840899Y-98637013D01*
X117900868Y-98652199D01*
X117946382Y-98694097D01*
X118035278Y-98830162D01*
X118187696Y-98995733D01*
X118365297Y-99133966D01*
X118563231Y-99241083D01*
X118776085Y-99314155D01*
X118856600Y-99327591D01*
X118856600Y-98247200D01*
X119364600Y-98247200D01*
X119364600Y-99327591D01*
X119445114Y-99314155D01*
X119657968Y-99241083D01*
X119855902Y-99133966D01*
X120033503Y-98995733D01*
X120185921Y-98830162D01*
X120309019Y-98641748D01*
X120399422Y-98435651D01*
X120447144Y-98247200D01*
X119364600Y-98247200D01*
X118856600Y-98247200D01*
X118856600Y-96658809D01*
X119364600Y-96658809D01*
X119364600Y-97739200D01*
X120447144Y-97739200D01*
X120447144Y-97739199D01*
X120399422Y-97550748D01*
X120309019Y-97344651D01*
X120185921Y-97156237D01*
X120033503Y-96990666D01*
X119855902Y-96852433D01*
X119657968Y-96745316D01*
X119445114Y-96672244D01*
X119364600Y-96658809D01*
X118856600Y-96658809D01*
X118776085Y-96672244D01*
X118563231Y-96745316D01*
X118365297Y-96852433D01*
X118187696Y-96990666D01*
X118035278Y-97156237D01*
X117946382Y-97292302D01*
X117900868Y-97334200D01*
X117840899Y-97349386D01*
X117780929Y-97334200D01*
X117735416Y-97292301D01*
X117728686Y-97282000D01*
X117646322Y-97155932D01*
X117493840Y-96990294D01*
X117493839Y-96990293D01*
X117493837Y-96990291D01*
X117316178Y-96852012D01*
X117118173Y-96744857D01*
X116906656Y-96672244D01*
X116905235Y-96671756D01*
X116683169Y-96634700D01*
X116458031Y-96634700D01*
X116235965Y-96671756D01*
X116235962Y-96671756D01*
X116235962Y-96671757D01*
X116023026Y-96744857D01*
X115825021Y-96852012D01*
X115647362Y-96990291D01*
X115494878Y-97155931D01*
X115406083Y-97291843D01*
X115360569Y-97333741D01*
X115300600Y-97348927D01*
X115240631Y-97333741D01*
X115195117Y-97291843D01*
X115130289Y-97192616D01*
X115106322Y-97155932D01*
X114953840Y-96990294D01*
X114953839Y-96990293D01*
X114953837Y-96990291D01*
X114776181Y-96852014D01*
X114776177Y-96852011D01*
X114776176Y-96852011D01*
X114730128Y-96827091D01*
X114681859Y-96780776D01*
X114664100Y-96716279D01*
X114664100Y-93565853D01*
X114666395Y-93545064D01*
X114664162Y-93474014D01*
X114664100Y-93470055D01*
X114664100Y-93442149D01*
X114664100Y-93442144D01*
X114663592Y-93438131D01*
X114662661Y-93426297D01*
X114662539Y-93422405D01*
X114661273Y-93382110D01*
X114655620Y-93362656D01*
X114651612Y-93343298D01*
X114649074Y-93323203D01*
X114632790Y-93282077D01*
X114628959Y-93270888D01*
X114616618Y-93228407D01*
X114606304Y-93210968D01*
X114597608Y-93193216D01*
X114590152Y-93174383D01*
X114564171Y-93138624D01*
X114557650Y-93128698D01*
X114556548Y-93126835D01*
X114535142Y-93090637D01*
X114520813Y-93076308D01*
X114507976Y-93061277D01*
X114496073Y-93044893D01*
X114462006Y-93016711D01*
X114453226Y-93008721D01*
X113793100Y-92348595D01*
X113762362Y-92298436D01*
X113757746Y-92239789D01*
X113780259Y-92185439D01*
X113824992Y-92147233D01*
X113882195Y-92133500D01*
X123646606Y-92133500D01*
X123694824Y-92143091D01*
X123735701Y-92170405D01*
X124987701Y-93422405D01*
X125018439Y-93472564D01*
X125023055Y-93531211D01*
X125000542Y-93585561D01*
X124955809Y-93623767D01*
X124898606Y-93637500D01*
X124779231Y-93637500D01*
X124557165Y-93674556D01*
X124557162Y-93674556D01*
X124557162Y-93674557D01*
X124344226Y-93747657D01*
X124146221Y-93854812D01*
X123968562Y-93993091D01*
X123816078Y-94158731D01*
X123692939Y-94347209D01*
X123602502Y-94553388D01*
X123547237Y-94771627D01*
X123547236Y-94771632D01*
X123528644Y-94996000D01*
X123547236Y-95220368D01*
X123547236Y-95220371D01*
X123547237Y-95220372D01*
X123602502Y-95438611D01*
X123692939Y-95644790D01*
X123816078Y-95833268D01*
X123959275Y-95988820D01*
X123988512Y-96042424D01*
X123989115Y-96103480D01*
X123960941Y-96157650D01*
X123910608Y-96192213D01*
X123899815Y-96196239D01*
X123795593Y-96235111D01*
X123678538Y-96322738D01*
X123590911Y-96439794D01*
X123539811Y-96576798D01*
X123539811Y-96576799D01*
X123533300Y-96637362D01*
X123533300Y-98434638D01*
X123539811Y-98495201D01*
X123555973Y-98538533D01*
X123590911Y-98632205D01*
X123678538Y-98749261D01*
X123795594Y-98836888D01*
X123795595Y-98836888D01*
X123795596Y-98836889D01*
X123932599Y-98887989D01*
X123993162Y-98894500D01*
X125790438Y-98894500D01*
X125851001Y-98887989D01*
X125988004Y-98836889D01*
X126105061Y-98749261D01*
X126192689Y-98632204D01*
X126236799Y-98513941D01*
X126273330Y-98461903D01*
X126330621Y-98434327D01*
X126394082Y-98438237D01*
X126447553Y-98472636D01*
X126471447Y-98498591D01*
X126508562Y-98538908D01*
X126686221Y-98677187D01*
X126686224Y-98677189D01*
X126884226Y-98784342D01*
X127097165Y-98857444D01*
X127319231Y-98894500D01*
X127544366Y-98894500D01*
X127544369Y-98894500D01*
X127766435Y-98857444D01*
X127979374Y-98784342D01*
X128177376Y-98677189D01*
X128355040Y-98538906D01*
X128507522Y-98373268D01*
X128596318Y-98237354D01*
X128641831Y-98195458D01*
X128701800Y-98180272D01*
X128761769Y-98195458D01*
X128807281Y-98237354D01*
X128896078Y-98373268D01*
X129008325Y-98495200D01*
X129048562Y-98538908D01*
X129226221Y-98677187D01*
X129226224Y-98677189D01*
X129424226Y-98784342D01*
X129637165Y-98857444D01*
X129859231Y-98894500D01*
X130084366Y-98894500D01*
X130084369Y-98894500D01*
X130306435Y-98857444D01*
X130519374Y-98784342D01*
X130717376Y-98677189D01*
X130895040Y-98538906D01*
X131047522Y-98373268D01*
X131136318Y-98237354D01*
X131181831Y-98195458D01*
X131241800Y-98180272D01*
X131301769Y-98195458D01*
X131347281Y-98237354D01*
X131436078Y-98373268D01*
X131548325Y-98495200D01*
X131588562Y-98538908D01*
X131766221Y-98677187D01*
X131766224Y-98677189D01*
X131964226Y-98784342D01*
X132177165Y-98857444D01*
X132399231Y-98894500D01*
X132624366Y-98894500D01*
X132624369Y-98894500D01*
X132846435Y-98857444D01*
X133059374Y-98784342D01*
X133257376Y-98677189D01*
X133435040Y-98538906D01*
X133587522Y-98373268D01*
X133676318Y-98237354D01*
X133721831Y-98195458D01*
X133781800Y-98180272D01*
X133841769Y-98195458D01*
X133887281Y-98237354D01*
X133976078Y-98373268D01*
X134088325Y-98495200D01*
X134128562Y-98538908D01*
X134306221Y-98677187D01*
X134306224Y-98677189D01*
X134504226Y-98784342D01*
X134717165Y-98857444D01*
X134939231Y-98894500D01*
X135164366Y-98894500D01*
X135164369Y-98894500D01*
X135386435Y-98857444D01*
X135599374Y-98784342D01*
X135797376Y-98677189D01*
X135975040Y-98538906D01*
X136127522Y-98373268D01*
X136216318Y-98237354D01*
X136261831Y-98195458D01*
X136321800Y-98180272D01*
X136381769Y-98195458D01*
X136427281Y-98237354D01*
X136516078Y-98373268D01*
X136628325Y-98495200D01*
X136668562Y-98538908D01*
X136846221Y-98677187D01*
X136846224Y-98677189D01*
X137044226Y-98784342D01*
X137257165Y-98857444D01*
X137479231Y-98894500D01*
X137704366Y-98894500D01*
X137704369Y-98894500D01*
X137926435Y-98857444D01*
X138139374Y-98784342D01*
X138337376Y-98677189D01*
X138515040Y-98538906D01*
X138667522Y-98373268D01*
X138756318Y-98237354D01*
X138801831Y-98195458D01*
X138861800Y-98180272D01*
X138921769Y-98195458D01*
X138967281Y-98237354D01*
X139056078Y-98373268D01*
X139168325Y-98495200D01*
X139208562Y-98538908D01*
X139386221Y-98677187D01*
X139386224Y-98677189D01*
X139584226Y-98784342D01*
X139797165Y-98857444D01*
X140019231Y-98894500D01*
X140244366Y-98894500D01*
X140244369Y-98894500D01*
X140466435Y-98857444D01*
X140679374Y-98784342D01*
X140877376Y-98677189D01*
X141055040Y-98538906D01*
X141207522Y-98373268D01*
X141296618Y-98236896D01*
X141342129Y-98194999D01*
X141402099Y-98179813D01*
X141462068Y-98194999D01*
X141507582Y-98236897D01*
X141596478Y-98372962D01*
X141748896Y-98538533D01*
X141926497Y-98676766D01*
X142124431Y-98783883D01*
X142337285Y-98856955D01*
X142417800Y-98870391D01*
X142417800Y-97790000D01*
X142925800Y-97790000D01*
X142925800Y-98870391D01*
X143006314Y-98856955D01*
X143219168Y-98783883D01*
X143417102Y-98676766D01*
X143594703Y-98538533D01*
X143747121Y-98372962D01*
X143870219Y-98184548D01*
X143960622Y-97978451D01*
X144008344Y-97790000D01*
X142925800Y-97790000D01*
X142417800Y-97790000D01*
X142417800Y-97408000D01*
X142434681Y-97345000D01*
X142480800Y-97298881D01*
X142543800Y-97282000D01*
X144008344Y-97282000D01*
X144008344Y-97281999D01*
X143960622Y-97093548D01*
X143870219Y-96887451D01*
X143747121Y-96699037D01*
X143594703Y-96533466D01*
X143417099Y-96395231D01*
X143383591Y-96377097D01*
X143335320Y-96330780D01*
X143317562Y-96266282D01*
X143335322Y-96201785D01*
X143383591Y-96155471D01*
X143417376Y-96137189D01*
X143595040Y-95998906D01*
X143747522Y-95833268D01*
X143870660Y-95644791D01*
X143961096Y-95438616D01*
X144016364Y-95220368D01*
X144034956Y-94996000D01*
X144016364Y-94771632D01*
X143961096Y-94553384D01*
X143870660Y-94347209D01*
X143747522Y-94158732D01*
X143595040Y-93993094D01*
X143595039Y-93993093D01*
X143595037Y-93993091D01*
X143417378Y-93854812D01*
X143219373Y-93747657D01*
X143068861Y-93695987D01*
X143006435Y-93674556D01*
X142784369Y-93637500D01*
X142559231Y-93637500D01*
X142337165Y-93674556D01*
X142337160Y-93674557D01*
X142326868Y-93676275D01*
X142326348Y-93673162D01*
X142274551Y-93675829D01*
X142213876Y-93642171D01*
X141509844Y-92938139D01*
X141496771Y-92921821D01*
X141444949Y-92873157D01*
X141442137Y-92870432D01*
X141422370Y-92850665D01*
X141419175Y-92848186D01*
X141410153Y-92840481D01*
X141377920Y-92810213D01*
X141360167Y-92800453D01*
X141343641Y-92789597D01*
X141327641Y-92777186D01*
X141287066Y-92759628D01*
X141276404Y-92754404D01*
X141237663Y-92733105D01*
X141223913Y-92729575D01*
X141218037Y-92728066D01*
X141199331Y-92721662D01*
X141180745Y-92713619D01*
X141137075Y-92706702D01*
X141125453Y-92704295D01*
X141107502Y-92699686D01*
X141082630Y-92693300D01*
X141082629Y-92693300D01*
X141062376Y-92693300D01*
X141042666Y-92691749D01*
X141022657Y-92688579D01*
X140978639Y-92692741D01*
X140966781Y-92693300D01*
X136631687Y-92693300D01*
X136583469Y-92683709D01*
X136542592Y-92656395D01*
X135968541Y-92082344D01*
X135955464Y-92066021D01*
X135903641Y-92017356D01*
X135900829Y-92014631D01*
X135881063Y-91994865D01*
X135877868Y-91992386D01*
X135868846Y-91984681D01*
X135836613Y-91954413D01*
X135818860Y-91944653D01*
X135802334Y-91933797D01*
X135786334Y-91921386D01*
X135745759Y-91903828D01*
X135735097Y-91898604D01*
X135696356Y-91877305D01*
X135682606Y-91873775D01*
X135676730Y-91872266D01*
X135658024Y-91865862D01*
X135639438Y-91857819D01*
X135595768Y-91850902D01*
X135584146Y-91848495D01*
X135541323Y-91837500D01*
X135541322Y-91837500D01*
X135521069Y-91837500D01*
X135501359Y-91835949D01*
X135481350Y-91832779D01*
X135437332Y-91836941D01*
X135425474Y-91837500D01*
X132605076Y-91837500D01*
X132556858Y-91827909D01*
X132515981Y-91800595D01*
X131897725Y-91182339D01*
X131884652Y-91166021D01*
X131841075Y-91125100D01*
X131832829Y-91117356D01*
X131830018Y-91114632D01*
X131810251Y-91094865D01*
X131807056Y-91092386D01*
X131798034Y-91084681D01*
X131765801Y-91054413D01*
X131748048Y-91044653D01*
X131731522Y-91033797D01*
X131715522Y-91021386D01*
X131674947Y-91003828D01*
X131664285Y-90998604D01*
X131625544Y-90977305D01*
X131611794Y-90973775D01*
X131605918Y-90972266D01*
X131587212Y-90965862D01*
X131568626Y-90957819D01*
X131524956Y-90950902D01*
X131513334Y-90948495D01*
X131470511Y-90937500D01*
X131470510Y-90937500D01*
X131450257Y-90937500D01*
X131430547Y-90935949D01*
X131410538Y-90932779D01*
X131366520Y-90936941D01*
X131354662Y-90937500D01*
X130437868Y-90937500D01*
X130389650Y-90927909D01*
X130348773Y-90900595D01*
X129730517Y-90282339D01*
X129717444Y-90266021D01*
X129665622Y-90217357D01*
X129662810Y-90214632D01*
X129643043Y-90194865D01*
X129639848Y-90192386D01*
X129630826Y-90184681D01*
X129598593Y-90154413D01*
X129580840Y-90144653D01*
X129564314Y-90133797D01*
X129548314Y-90121386D01*
X129507739Y-90103828D01*
X129497077Y-90098604D01*
X129458336Y-90077305D01*
X129444586Y-90073775D01*
X129438710Y-90072266D01*
X129420004Y-90065862D01*
X129401418Y-90057819D01*
X129357748Y-90050902D01*
X129346126Y-90048495D01*
X129303303Y-90037500D01*
X129303302Y-90037500D01*
X129283049Y-90037500D01*
X129263339Y-90035949D01*
X129243330Y-90032779D01*
X129199312Y-90036941D01*
X129187454Y-90037500D01*
X128537962Y-90037500D01*
X128489744Y-90027909D01*
X128448867Y-90000595D01*
X126672868Y-88224595D01*
X126642130Y-88174436D01*
X126637514Y-88115789D01*
X126660027Y-88061439D01*
X126704760Y-88023233D01*
X126761963Y-88009500D01*
X132143343Y-88009500D01*
X132194591Y-88020393D01*
X132216588Y-88030186D01*
X132226405Y-88034557D01*
X132415262Y-88074700D01*
X132608336Y-88074700D01*
X132608338Y-88074700D01*
X132797195Y-88034557D01*
X132973580Y-87956026D01*
X133129782Y-87842538D01*
X133258975Y-87699054D01*
X133355513Y-87531845D01*
X133415177Y-87348219D01*
X133426567Y-87239842D01*
X133452926Y-87175012D01*
X133509816Y-87134244D01*
X133579684Y-87130124D01*
X133640971Y-87163922D01*
X134022405Y-87545356D01*
X134035484Y-87561681D01*
X134087303Y-87610342D01*
X134090114Y-87613066D01*
X134109883Y-87632835D01*
X134113096Y-87635327D01*
X134122086Y-87643006D01*
X134154332Y-87673286D01*
X134172079Y-87683042D01*
X134188603Y-87693896D01*
X134204612Y-87706314D01*
X134245195Y-87723875D01*
X134255846Y-87729093D01*
X134294593Y-87750395D01*
X134314213Y-87755432D01*
X134332920Y-87761837D01*
X134339533Y-87764698D01*
X134351507Y-87769881D01*
X134362158Y-87771567D01*
X134395183Y-87776798D01*
X134406778Y-87779198D01*
X134449623Y-87790200D01*
X134469877Y-87790200D01*
X134489587Y-87791751D01*
X134509595Y-87794920D01*
X134509595Y-87794919D01*
X134509596Y-87794920D01*
X134553614Y-87790758D01*
X134565472Y-87790200D01*
X137124144Y-87790200D01*
X137175394Y-87801094D01*
X137217781Y-87831891D01*
X137227818Y-87843038D01*
X137384020Y-87956526D01*
X137560405Y-88035057D01*
X137749262Y-88075200D01*
X137942336Y-88075200D01*
X137942338Y-88075200D01*
X138131195Y-88035057D01*
X138307580Y-87956526D01*
X138463782Y-87843038D01*
X138592975Y-87699554D01*
X138689513Y-87532345D01*
X138749177Y-87348719D01*
X138768168Y-87168027D01*
X138789019Y-87110742D01*
X138834325Y-87069949D01*
X138893478Y-87055200D01*
X141340791Y-87055200D01*
X141399944Y-87069948D01*
X141445249Y-87110741D01*
X141466101Y-87168028D01*
X141468622Y-87192020D01*
X141528286Y-87375644D01*
X141624825Y-87542855D01*
X141708075Y-87635313D01*
X141754018Y-87686338D01*
X141910220Y-87799826D01*
X142086605Y-87878357D01*
X142275462Y-87918500D01*
X142468536Y-87918500D01*
X142468538Y-87918500D01*
X142657395Y-87878357D01*
X142833780Y-87799826D01*
X142989982Y-87686338D01*
X143119175Y-87542854D01*
X143215713Y-87375645D01*
X143275377Y-87192019D01*
X143295559Y-87000000D01*
X143275377Y-86807981D01*
X143225171Y-86653463D01*
X143215713Y-86624354D01*
X143119174Y-86457144D01*
X142989983Y-86313663D01*
X142985661Y-86310523D01*
X142833780Y-86200174D01*
X142833779Y-86200173D01*
X142833777Y-86200172D01*
X142740920Y-86158829D01*
X142693219Y-86121728D01*
X142668279Y-86066684D01*
X142671837Y-86006359D01*
X142703072Y-85954630D01*
X146888658Y-81769044D01*
X146904979Y-81755970D01*
X146907014Y-81753802D01*
X146907018Y-81753800D01*
X146953677Y-81704111D01*
X146956368Y-81701334D01*
X146976134Y-81681570D01*
X146978605Y-81678383D01*
X146986312Y-81669359D01*
X147016586Y-81637121D01*
X147026343Y-81619370D01*
X147037199Y-81602843D01*
X147049613Y-81586841D01*
X147067172Y-81546261D01*
X147072392Y-81535609D01*
X147081093Y-81519781D01*
X147093695Y-81496860D01*
X147098732Y-81477239D01*
X147105138Y-81458530D01*
X147113181Y-81439945D01*
X147120096Y-81396276D01*
X147122496Y-81384681D01*
X147133500Y-81341830D01*
X147133500Y-81321569D01*
X147135051Y-81301858D01*
X147138219Y-81281855D01*
X147134059Y-81237846D01*
X147133500Y-81225989D01*
X147133500Y-78217469D01*
X147141869Y-78172314D01*
X147165861Y-78133161D01*
X147247175Y-78042854D01*
X147343713Y-77875645D01*
X147403377Y-77692019D01*
X147423559Y-77500000D01*
X147403377Y-77307981D01*
X147343713Y-77124355D01*
X147343713Y-77124354D01*
X147247174Y-76957144D01*
X147117983Y-76813663D01*
X146961780Y-76700174D01*
X146961779Y-76700173D01*
X146785395Y-76621643D01*
X146596538Y-76581500D01*
X146403462Y-76581500D01*
X146277557Y-76608262D01*
X146214604Y-76621643D01*
X146038219Y-76700175D01*
X145882016Y-76813663D01*
X145752825Y-76957144D01*
X145656286Y-77124354D01*
X145596623Y-77307979D01*
X145576441Y-77500000D01*
X145596623Y-77692020D01*
X145656286Y-77875645D01*
X145752823Y-78042852D01*
X145752825Y-78042854D01*
X145834138Y-78133161D01*
X145858131Y-78172314D01*
X145866500Y-78217469D01*
X145866500Y-80947205D01*
X145856909Y-80995423D01*
X145829595Y-81036300D01*
X141564600Y-85301295D01*
X141523723Y-85328609D01*
X141475505Y-85338200D01*
X136374538Y-85338200D01*
X136326320Y-85328609D01*
X136285443Y-85301295D01*
X135541887Y-84557739D01*
X135528814Y-84541421D01*
X135476992Y-84492757D01*
X135474180Y-84490032D01*
X135454413Y-84470265D01*
X135451218Y-84467786D01*
X135442196Y-84460081D01*
X135409963Y-84429813D01*
X135392210Y-84420053D01*
X135375684Y-84409197D01*
X135359684Y-84396786D01*
X135319109Y-84379228D01*
X135308447Y-84374004D01*
X135269706Y-84352705D01*
X135251557Y-84348046D01*
X135250080Y-84347666D01*
X135231374Y-84341262D01*
X135212788Y-84333219D01*
X135169118Y-84326302D01*
X135157496Y-84323895D01*
X135147693Y-84321378D01*
X135114673Y-84312900D01*
X135114672Y-84312900D01*
X135094419Y-84312900D01*
X135074709Y-84311349D01*
X135054700Y-84308179D01*
X135010682Y-84312341D01*
X134998824Y-84312900D01*
X131856818Y-84312900D01*
X131836028Y-84310604D01*
X131764966Y-84312838D01*
X131761008Y-84312900D01*
X131733107Y-84312900D01*
X131729099Y-84313406D01*
X131717278Y-84314336D01*
X131673073Y-84315725D01*
X131653616Y-84321378D01*
X131634266Y-84325386D01*
X131614167Y-84327925D01*
X131573058Y-84344202D01*
X131561830Y-84348046D01*
X131519373Y-84360381D01*
X131501929Y-84370697D01*
X131484182Y-84379390D01*
X131465349Y-84386846D01*
X131429576Y-84412837D01*
X131419658Y-84419351D01*
X131381604Y-84441857D01*
X131367277Y-84456183D01*
X131352248Y-84469018D01*
X131335859Y-84480925D01*
X131307666Y-84515004D01*
X131299679Y-84523780D01*
X130917862Y-84905597D01*
X130876988Y-84932909D01*
X130828770Y-84942500D01*
X119342395Y-84942500D01*
X119294177Y-84932909D01*
X119253300Y-84905595D01*
X114360805Y-80013100D01*
X114333491Y-79972223D01*
X114323900Y-79924005D01*
X114323900Y-75265050D01*
X129094160Y-75265050D01*
X129170952Y-75318821D01*
X129382345Y-75417395D01*
X129607641Y-75477762D01*
X129840000Y-75498091D01*
X130072358Y-75477762D01*
X130297654Y-75417395D01*
X130509043Y-75318822D01*
X130585838Y-75265049D01*
X129840000Y-74519210D01*
X129839999Y-74519210D01*
X129094160Y-75265048D01*
X129094160Y-75265050D01*
X114323900Y-75265050D01*
X114323900Y-74160000D01*
X128501908Y-74160000D01*
X128522237Y-74392358D01*
X128582604Y-74617654D01*
X128681180Y-74829049D01*
X128734948Y-74905838D01*
X129480789Y-74160000D01*
X130199210Y-74160000D01*
X130945048Y-74905838D01*
X130945049Y-74905838D01*
X130998822Y-74829043D01*
X131097395Y-74617654D01*
X131157762Y-74392358D01*
X131178091Y-74160000D01*
X138661406Y-74160000D01*
X138681742Y-74392444D01*
X138742132Y-74617825D01*
X138840744Y-74829297D01*
X138974580Y-75020435D01*
X139139564Y-75185419D01*
X139139567Y-75185421D01*
X139139568Y-75185422D01*
X139330703Y-75319256D01*
X139542174Y-75417867D01*
X139767556Y-75478258D01*
X140000000Y-75498594D01*
X140232444Y-75478258D01*
X140457826Y-75417867D01*
X140669297Y-75319256D01*
X140860432Y-75185422D01*
X141025422Y-75020432D01*
X141159256Y-74829297D01*
X141257867Y-74617826D01*
X141318258Y-74392444D01*
X141338594Y-74160000D01*
X141318258Y-73927556D01*
X141257867Y-73702174D01*
X141159256Y-73490703D01*
X141025422Y-73299568D01*
X141025421Y-73299567D01*
X141025419Y-73299564D01*
X140860435Y-73134580D01*
X140669297Y-73000744D01*
X140457825Y-72902132D01*
X140232444Y-72841742D01*
X140000000Y-72821406D01*
X139767555Y-72841742D01*
X139542174Y-72902132D01*
X139330702Y-73000744D01*
X139139564Y-73134580D01*
X138974580Y-73299564D01*
X138840744Y-73490702D01*
X138742132Y-73702174D01*
X138681742Y-73927555D01*
X138661406Y-74160000D01*
X131178091Y-74160000D01*
X131157762Y-73927641D01*
X131097395Y-73702345D01*
X130998821Y-73490952D01*
X130945050Y-73414160D01*
X130945049Y-73414160D01*
X130199210Y-74159999D01*
X130199210Y-74160000D01*
X129480789Y-74160000D01*
X129480789Y-74159999D01*
X128734949Y-73414159D01*
X128681180Y-73490950D01*
X128582604Y-73702345D01*
X128522237Y-73927641D01*
X128501908Y-74160000D01*
X114323900Y-74160000D01*
X114323900Y-73054949D01*
X129094159Y-73054949D01*
X129839999Y-73800789D01*
X129840000Y-73800789D01*
X130585838Y-73054948D01*
X130585838Y-73054947D01*
X130509049Y-73001180D01*
X130297654Y-72902604D01*
X130072358Y-72842237D01*
X129840000Y-72821908D01*
X129607641Y-72842237D01*
X129382345Y-72902604D01*
X129170950Y-73001180D01*
X129094159Y-73054949D01*
X114323900Y-73054949D01*
X114323900Y-71532100D01*
X114326195Y-71511311D01*
X114323962Y-71440261D01*
X114323900Y-71436302D01*
X114323900Y-71408396D01*
X114323900Y-71408391D01*
X114323392Y-71404378D01*
X114322461Y-71392544D01*
X114321073Y-71348358D01*
X114315421Y-71328906D01*
X114311412Y-71309546D01*
X114308874Y-71289450D01*
X114292596Y-71248337D01*
X114288750Y-71237103D01*
X114276418Y-71194654D01*
X114266106Y-71177217D01*
X114257408Y-71159462D01*
X114249952Y-71140630D01*
X114223965Y-71104863D01*
X114217447Y-71094940D01*
X114194942Y-71056885D01*
X114180612Y-71042555D01*
X114167778Y-71027528D01*
X114155872Y-71011140D01*
X114155871Y-71011139D01*
X114121800Y-70982952D01*
X114113021Y-70974964D01*
X113496851Y-70358793D01*
X113469538Y-70317916D01*
X113459947Y-70269698D01*
X113459947Y-70263022D01*
X113468316Y-70217867D01*
X113492308Y-70178714D01*
X113573622Y-70088407D01*
X113670160Y-69921198D01*
X113729824Y-69737572D01*
X113750006Y-69545553D01*
X113729824Y-69353534D01*
X113670160Y-69169908D01*
X113670160Y-69169907D01*
X113573621Y-69002697D01*
X113444430Y-68859216D01*
X113288227Y-68745727D01*
X113111842Y-68667196D01*
X112922985Y-68627053D01*
X112850947Y-68627053D01*
X112787947Y-68610172D01*
X112741828Y-68564053D01*
X112724947Y-68501053D01*
X112724947Y-66760100D01*
X112727242Y-66739310D01*
X112725009Y-66668248D01*
X112724947Y-66664290D01*
X112724947Y-66636396D01*
X112724947Y-66636391D01*
X112724440Y-66632385D01*
X112723509Y-66620552D01*
X112722580Y-66590980D01*
X112722121Y-66576358D01*
X112716467Y-66556899D01*
X112712460Y-66537553D01*
X112709921Y-66517450D01*
X112693641Y-66476333D01*
X112689800Y-66465113D01*
X112677465Y-66422654D01*
X112672038Y-66413478D01*
X112667153Y-66405217D01*
X112658455Y-66387462D01*
X112655801Y-66380759D01*
X112650999Y-66368630D01*
X112625012Y-66332863D01*
X112618494Y-66322940D01*
X112595989Y-66284885D01*
X112581659Y-66270555D01*
X112568825Y-66255528D01*
X112556919Y-66239140D01*
X112556918Y-66239139D01*
X112522841Y-66210947D01*
X112514063Y-66202959D01*
X111687448Y-65376344D01*
X111674371Y-65360021D01*
X111622548Y-65311356D01*
X111619736Y-65308631D01*
X111599970Y-65288865D01*
X111596775Y-65286386D01*
X111587753Y-65278681D01*
X111555520Y-65248413D01*
X111537767Y-65238653D01*
X111521241Y-65227797D01*
X111505241Y-65215386D01*
X111464666Y-65197828D01*
X111454004Y-65192604D01*
X111415263Y-65171305D01*
X111401513Y-65167775D01*
X111395637Y-65166266D01*
X111376931Y-65159862D01*
X111358345Y-65151819D01*
X111314675Y-65144902D01*
X111303053Y-65142495D01*
X111260230Y-65131500D01*
X111260229Y-65131500D01*
X111239976Y-65131500D01*
X111220266Y-65129949D01*
X111200257Y-65126779D01*
X111156239Y-65130941D01*
X111144381Y-65131500D01*
X100699795Y-65131500D01*
X100651577Y-65121909D01*
X100610700Y-65094595D01*
X99383357Y-63867252D01*
X99358726Y-63832401D01*
X99347143Y-63791332D01*
X99328377Y-63612781D01*
X99268713Y-63429155D01*
X99268713Y-63429154D01*
X99172174Y-63261944D01*
X99042983Y-63118463D01*
X98886780Y-63004974D01*
X98886779Y-63004973D01*
X98710395Y-62926443D01*
X98521538Y-62886300D01*
X98328462Y-62886300D01*
X98202557Y-62913062D01*
X98139604Y-62926443D01*
X97963219Y-63004975D01*
X97807016Y-63118463D01*
X97677825Y-63261944D01*
X97581286Y-63429154D01*
X97521623Y-63612779D01*
X97501441Y-63804799D01*
X97521623Y-63996820D01*
X97581286Y-64180445D01*
X97677825Y-64347655D01*
X97807016Y-64491136D01*
X97807018Y-64491138D01*
X97963220Y-64604626D01*
X98139605Y-64683157D01*
X98328462Y-64723300D01*
X98395406Y-64723300D01*
X98443624Y-64732891D01*
X98484501Y-64760205D01*
X99877951Y-66153655D01*
X99891034Y-66169985D01*
X99942865Y-66218656D01*
X99945677Y-66221381D01*
X99965430Y-66241134D01*
X99967383Y-66242649D01*
X99968624Y-66243612D01*
X99977644Y-66251316D01*
X100009879Y-66281586D01*
X100027635Y-66291347D01*
X100044151Y-66302196D01*
X100060159Y-66314613D01*
X100060160Y-66314613D01*
X100072739Y-66324371D01*
X100071189Y-66326368D01*
X100098347Y-66347087D01*
X100123789Y-66402260D01*
X100120455Y-66462925D01*
X100089118Y-66514976D01*
X99841360Y-66762734D01*
X99782747Y-66795896D01*
X99715426Y-66794133D01*
X99658629Y-66757949D01*
X99647413Y-66745492D01*
X99491210Y-66632004D01*
X99465488Y-66620552D01*
X99314825Y-66553473D01*
X99125968Y-66513330D01*
X98932892Y-66513330D01*
X98833596Y-66534435D01*
X98764305Y-66529590D01*
X98708110Y-66488761D01*
X98682092Y-66424359D01*
X98680949Y-66413481D01*
X98639166Y-66284886D01*
X98621285Y-66229854D01*
X98524746Y-66062644D01*
X98395555Y-65919163D01*
X98239352Y-65805674D01*
X98239351Y-65805673D01*
X98062967Y-65727143D01*
X97874110Y-65687000D01*
X97681034Y-65687000D01*
X97555129Y-65713762D01*
X97492176Y-65727143D01*
X97315791Y-65805675D01*
X97159588Y-65919163D01*
X97030397Y-66062644D01*
X96933858Y-66229854D01*
X96874195Y-66413478D01*
X96860776Y-66541152D01*
X96844585Y-66590980D01*
X96809527Y-66629916D01*
X96761663Y-66651226D01*
X96633776Y-66678409D01*
X96457387Y-66756943D01*
X96301184Y-66870431D01*
X96171993Y-67013912D01*
X96075454Y-67181122D01*
X96015791Y-67364747D01*
X95997025Y-67543296D01*
X95985441Y-67584370D01*
X95960810Y-67619220D01*
X95611340Y-67968690D01*
X95595017Y-67981768D01*
X95546370Y-68033571D01*
X95543620Y-68036409D01*
X95523868Y-68056162D01*
X95523864Y-68056166D01*
X95523865Y-68056166D01*
X95521379Y-68059369D01*
X95513687Y-68068375D01*
X95483413Y-68100614D01*
X95473652Y-68118370D01*
X95462801Y-68134888D01*
X95450385Y-68150895D01*
X95432824Y-68191475D01*
X95427604Y-68202131D01*
X95406304Y-68240876D01*
X95401267Y-68260495D01*
X95394864Y-68279197D01*
X95386818Y-68297791D01*
X95379901Y-68341460D01*
X95377495Y-68353080D01*
X95366500Y-68395906D01*
X95366500Y-68416160D01*
X95364949Y-68435870D01*
X95361779Y-68455878D01*
X95010500Y-68455878D01*
X95010500Y-57750000D01*
X96561844Y-57750000D01*
X96580436Y-57974368D01*
X96580436Y-57974371D01*
X96580437Y-57974372D01*
X96635702Y-58192611D01*
X96726139Y-58398790D01*
X96849278Y-58587268D01*
X97001762Y-58752908D01*
X97179421Y-58891187D01*
X97179424Y-58891189D01*
X97377426Y-58998342D01*
X97590365Y-59071444D01*
X97812431Y-59108500D01*
X98037566Y-59108500D01*
X98037569Y-59108500D01*
X98259635Y-59071444D01*
X98472574Y-58998342D01*
X98627174Y-58914676D01*
X98687272Y-58899491D01*
X98747340Y-58914801D01*
X98792838Y-58956903D01*
X98812754Y-59015605D01*
X98831390Y-59252403D01*
X98890494Y-59498590D01*
X98890495Y-59498591D01*
X98987384Y-59732502D01*
X99119672Y-59948376D01*
X99284102Y-60140898D01*
X99476624Y-60305328D01*
X99692498Y-60437616D01*
X99926409Y-60534505D01*
X100113492Y-60579419D01*
X100172596Y-60593609D01*
X100191011Y-60595058D01*
X100425000Y-60613474D01*
X100677403Y-60593609D01*
X100923591Y-60534505D01*
X101157502Y-60437616D01*
X101373376Y-60305328D01*
X101565898Y-60140898D01*
X101730328Y-59948376D01*
X101862616Y-59732502D01*
X101959505Y-59498591D01*
X102018609Y-59252403D01*
X102038474Y-59000000D01*
X102018609Y-58747597D01*
X101959505Y-58501409D01*
X101862616Y-58267498D01*
X101730328Y-58051624D01*
X101565898Y-57859102D01*
X101373376Y-57694672D01*
X101157502Y-57562384D01*
X100923591Y-57465495D01*
X100677403Y-57406390D01*
X100425000Y-57386526D01*
X100172596Y-57406390D01*
X99926408Y-57465495D01*
X99692499Y-57562383D01*
X99675267Y-57572943D01*
X99476624Y-57694672D01*
X99476621Y-57694674D01*
X99468169Y-57699854D01*
X99466288Y-57696784D01*
X99421393Y-57717495D01*
X99353587Y-57709563D01*
X99299871Y-57667431D01*
X99276013Y-57603469D01*
X99269564Y-57525632D01*
X99214296Y-57307384D01*
X99123860Y-57101209D01*
X99000722Y-56912732D01*
X98848240Y-56747094D01*
X98848239Y-56747093D01*
X98848237Y-56747091D01*
X98670578Y-56608812D01*
X98472573Y-56501657D01*
X98328427Y-56452172D01*
X98259635Y-56428556D01*
X98037569Y-56391500D01*
X97812431Y-56391500D01*
X97590365Y-56428556D01*
X97590362Y-56428556D01*
X97590362Y-56428557D01*
X97377426Y-56501657D01*
X97179421Y-56608812D01*
X97001762Y-56747091D01*
X96849278Y-56912731D01*
X96726139Y-57101209D01*
X96635702Y-57307388D01*
X96580437Y-57525627D01*
X96580436Y-57525632D01*
X96561844Y-57750000D01*
X95010500Y-57750000D01*
X95010500Y-54374899D01*
X97159310Y-54374899D01*
X97179697Y-54390767D01*
X97377628Y-54497882D01*
X97590491Y-54570957D01*
X97812470Y-54608000D01*
X98037530Y-54608000D01*
X98259508Y-54570957D01*
X98472368Y-54497883D01*
X98670305Y-54390764D01*
X98690688Y-54374899D01*
X98690689Y-54374898D01*
X97925001Y-53609210D01*
X97925000Y-53609210D01*
X97159310Y-54374899D01*
X95010500Y-54374899D01*
X95010500Y-53249999D01*
X96562346Y-53249999D01*
X96580931Y-53474283D01*
X96636180Y-53692456D01*
X96726580Y-53898548D01*
X96801922Y-54013866D01*
X97565790Y-53250000D01*
X96801922Y-52486133D01*
X96726580Y-52601451D01*
X96636180Y-52807543D01*
X96580931Y-53025716D01*
X96562346Y-53249999D01*
X95010500Y-53249999D01*
X95010500Y-52125100D01*
X97159310Y-52125100D01*
X97925000Y-52890789D01*
X97925000Y-52890790D01*
X99048076Y-54013867D01*
X99048077Y-54013866D01*
X99123418Y-53898551D01*
X99213819Y-53692457D01*
X99269068Y-53474284D01*
X99275544Y-53396132D01*
X99299408Y-53332160D01*
X99353137Y-53290029D01*
X99420954Y-53282109D01*
X99466373Y-53303076D01*
X99468169Y-53300146D01*
X99476620Y-53305325D01*
X99476624Y-53305328D01*
X99692498Y-53437616D01*
X99926409Y-53534505D01*
X100113491Y-53579419D01*
X100172596Y-53593609D01*
X100191011Y-53595058D01*
X100425000Y-53613474D01*
X100677403Y-53593609D01*
X100923591Y-53534505D01*
X101157502Y-53437616D01*
X101373376Y-53305328D01*
X101565898Y-53140898D01*
X101730328Y-52948376D01*
X101862616Y-52732502D01*
X101959505Y-52498591D01*
X102018609Y-52252403D01*
X102038474Y-52000000D01*
X102018609Y-51747597D01*
X101959505Y-51501409D01*
X101862616Y-51267498D01*
X101730328Y-51051624D01*
X101565898Y-50859102D01*
X101373376Y-50694672D01*
X101157502Y-50562384D01*
X100923591Y-50465495D01*
X100677403Y-50406390D01*
X100425000Y-50386526D01*
X100172596Y-50406390D01*
X99926408Y-50465495D01*
X99692499Y-50562383D01*
X99584560Y-50628528D01*
X99476624Y-50694672D01*
X99476622Y-50694673D01*
X99476623Y-50694673D01*
X99284102Y-50859102D01*
X99119673Y-51051623D01*
X98987383Y-51267499D01*
X98890495Y-51501408D01*
X98831390Y-51747596D01*
X98812711Y-51984941D01*
X98792795Y-52043643D01*
X98747297Y-52085745D01*
X98687229Y-52101055D01*
X98627130Y-52085869D01*
X98472371Y-52002117D01*
X98259508Y-51929042D01*
X98037530Y-51892000D01*
X97812470Y-51892000D01*
X97590491Y-51929042D01*
X97377628Y-52002117D01*
X97179700Y-52109231D01*
X97159310Y-52125099D01*
X97159310Y-52125100D01*
X95010500Y-52125100D01*
X95010500Y-50164000D01*
X95027381Y-50101000D01*
X95073500Y-50054881D01*
X95136500Y-50038000D01*
X122874290Y-50038000D01*
X122937206Y-50054832D01*
G37*
G04 #@! TD.AperFunction*
D28*
X95000000Y-50000000D02*
X185000000Y-50000000D01*
X165080300Y-77063600D02*
X182239300Y-77063600D01*
X182239300Y-77663600D01*
X165080300Y-77663600D01*
X165080300Y-77063600D01*
X95000000Y-100000000D02*
X95000000Y-50000000D01*
X185000000Y-100000000D02*
X95000000Y-100000000D01*
X165080300Y-82219800D02*
X182239300Y-82219800D01*
X182239300Y-82819800D01*
X165080300Y-82819800D01*
X165080300Y-82219800D01*
X185000000Y-50000000D02*
X185000000Y-100000000D01*
X165042200Y-72212200D02*
X182201200Y-72212200D01*
X182201200Y-72812200D01*
X165042200Y-72812200D01*
X165042200Y-72212200D01*
X165029500Y-88630200D02*
X182188500Y-88630200D01*
X182188500Y-89230200D01*
X165029500Y-89230200D01*
X165029500Y-88630200D01*
X165054900Y-93735600D02*
X182213900Y-93735600D01*
X182213900Y-94335600D01*
X165054900Y-94335600D01*
X165054900Y-93735600D01*
X165054900Y-64947800D02*
X182213900Y-64947800D01*
X182213900Y-65547800D01*
X165054900Y-65547800D01*
X165054900Y-64947800D01*
M02*
