%TF.GenerationSoftware,KiCad,Pcbnew,7.0.1*%
%TF.CreationDate,2023-06-28T17:19:24+02:00*%
%TF.ProjectId,CaptorBoard,43617074-6f72-4426-9f61-72642e6b6963,rev?*%
%TF.SameCoordinates,Original*%
%TF.FileFunction,Drillmap*%
%TF.FilePolarity,Positive*%
%FSLAX45Y45*%
G04 Gerber Fmt 4.5, Leading zero omitted, Abs format (unit mm)*
G04 Created by KiCad (PCBNEW 7.0.1) date 2023-06-28 17:19:24*
%MOMM*%
%LPD*%
G01*
G04 APERTURE LIST*
%ADD10C,0.100000*%
%ADD11C,0.200000*%
%ADD12C,0.030000*%
%ADD13C,0.080000*%
%ADD14C,0.110000*%
%ADD15C,0.130000*%
G04 APERTURE END LIST*
D10*
X9500000Y-5000000D02*
X18500000Y-5000000D01*
X9500000Y-10000000D02*
X9500000Y-5000000D01*
X18500000Y-10000000D02*
X9500000Y-10000000D01*
X18500000Y-5000000D02*
X18500000Y-10000000D01*
D11*
D12*
X9586200Y-9510000D02*
X9616200Y-9540000D01*
X9616200Y-9510000D02*
X9586200Y-9540000D01*
X9676917Y-6740677D02*
X9706917Y-6770677D01*
X9706917Y-6740677D02*
X9676917Y-6770677D01*
X9762757Y-6645550D02*
X9792757Y-6675550D01*
X9792757Y-6645550D02*
X9762757Y-6675550D01*
X9764000Y-8105380D02*
X9794000Y-8135380D01*
X9794000Y-8105380D02*
X9764000Y-8135380D01*
X9827500Y-6365480D02*
X9857500Y-6395480D01*
X9857500Y-6365480D02*
X9827500Y-6395480D01*
X9835050Y-8388350D02*
X9865050Y-8418350D01*
X9865050Y-8388350D02*
X9835050Y-8418350D01*
X9887943Y-6728183D02*
X9917943Y-6758183D01*
X9917943Y-6728183D02*
X9887943Y-6758183D01*
X10068800Y-7173200D02*
X10098800Y-7203200D01*
X10098800Y-7173200D02*
X10068800Y-7203200D01*
X10068800Y-7732000D02*
X10098800Y-7762000D01*
X10098800Y-7732000D02*
X10068800Y-7762000D01*
X10235000Y-6635000D02*
X10265000Y-6665000D01*
X10265000Y-6635000D02*
X10235000Y-6665000D01*
X10246600Y-8392400D02*
X10276600Y-8422400D01*
X10276600Y-8392400D02*
X10246600Y-8422400D01*
X10256760Y-6347700D02*
X10286760Y-6377700D01*
X10286760Y-6347700D02*
X10256760Y-6377700D01*
X10376140Y-8394940D02*
X10406140Y-8424940D01*
X10406140Y-8394940D02*
X10376140Y-8424940D01*
X10556480Y-5593320D02*
X10586480Y-5623320D01*
X10586480Y-5593320D02*
X10556480Y-5623320D01*
X10561560Y-8460980D02*
X10591560Y-8490980D01*
X10591560Y-8460980D02*
X10561560Y-8490980D01*
X10627600Y-7173200D02*
X10657600Y-7203200D01*
X10657600Y-7173200D02*
X10627600Y-7203200D01*
X10627600Y-7732000D02*
X10657600Y-7762000D01*
X10657600Y-7732000D02*
X10627600Y-7762000D01*
X10780000Y-6324840D02*
X10810000Y-6354840D01*
X10810000Y-6324840D02*
X10780000Y-6354840D01*
X10912080Y-5593320D02*
X10942080Y-5623320D01*
X10942080Y-5593320D02*
X10912080Y-5623320D01*
X11175000Y-7982570D02*
X11205000Y-8012570D01*
X11205000Y-7982570D02*
X11175000Y-8012570D01*
X11262600Y-5593320D02*
X11292600Y-5623320D01*
X11292600Y-5593320D02*
X11262600Y-5623320D01*
X11271435Y-7856950D02*
X11301435Y-7886950D01*
X11301435Y-7856950D02*
X11271435Y-7886950D01*
X11298160Y-8768320D02*
X11328160Y-8798320D01*
X11328160Y-8768320D02*
X11298160Y-8798320D01*
X11562320Y-7876780D02*
X11592320Y-7906780D01*
X11592320Y-7876780D02*
X11562320Y-7906780D01*
X11565000Y-6945000D02*
X11595000Y-6975000D01*
X11595000Y-6945000D02*
X11565000Y-6975000D01*
X11629763Y-8072570D02*
X11659763Y-8102570D01*
X11659763Y-8072570D02*
X11629763Y-8102570D01*
X11640170Y-7739620D02*
X11670170Y-7769620D01*
X11670170Y-7739620D02*
X11640170Y-7769620D01*
X11689320Y-8499080D02*
X11719320Y-8529080D01*
X11719320Y-8499080D02*
X11689320Y-8529080D01*
X11712180Y-8303500D02*
X11742180Y-8333500D01*
X11742180Y-8303500D02*
X11712180Y-8333500D01*
X11989040Y-8435580D02*
X12019040Y-8465580D01*
X12019040Y-8435580D02*
X11989040Y-8465580D01*
X13165000Y-9105000D02*
X13195000Y-9135000D01*
X13195000Y-9105000D02*
X13165000Y-9135000D01*
X13395000Y-8405000D02*
X13425000Y-8435000D01*
X13425000Y-8405000D02*
X13395000Y-8435000D01*
X13426452Y-9023548D02*
X13456452Y-9053548D01*
X13456452Y-9023548D02*
X13426452Y-9053548D01*
X13885000Y-8485000D02*
X13915000Y-8515000D01*
X13915000Y-8485000D02*
X13885000Y-8515000D01*
X13925000Y-8731550D02*
X13955000Y-8761550D01*
X13955000Y-8731550D02*
X13925000Y-8761550D01*
X14385000Y-8015000D02*
X14415000Y-8045000D01*
X14415000Y-8015000D02*
X14385000Y-8045000D01*
X14485000Y-8835000D02*
X14515000Y-8865000D01*
X14515000Y-8835000D02*
X14485000Y-8865000D01*
X14715000Y-8805000D02*
X14745000Y-8835000D01*
X14745000Y-8805000D02*
X14715000Y-8835000D01*
X14745000Y-9615000D02*
X14775000Y-9645000D01*
X14775000Y-9615000D02*
X14745000Y-9645000D01*
X14835000Y-7685000D02*
X14865000Y-7715000D01*
X14865000Y-7685000D02*
X14835000Y-7715000D01*
X15105000Y-8405000D02*
X15135000Y-8435000D01*
X15135000Y-8405000D02*
X15105000Y-8435000D01*
D13*
X13830000Y-5180000D02*
G75*
G03*
X13830000Y-5180000I-40000J0D01*
G01*
X14580000Y-5410000D02*
G75*
G03*
X14580000Y-5410000I-40000J0D01*
G01*
X15323180Y-5542280D02*
G75*
G03*
X15323180Y-5542280I-40000J0D01*
G01*
X15323180Y-6304280D02*
G75*
G03*
X15323180Y-6304280I-40000J0D01*
G01*
X15577180Y-5542280D02*
G75*
G03*
X15577180Y-5542280I-40000J0D01*
G01*
X15577180Y-6304280D02*
G75*
G03*
X15577180Y-6304280I-40000J0D01*
G01*
X15831180Y-5542280D02*
G75*
G03*
X15831180Y-5542280I-40000J0D01*
G01*
X15831180Y-6304280D02*
G75*
G03*
X15831180Y-6304280I-40000J0D01*
G01*
X16162880Y-5546360D02*
G75*
G03*
X16162880Y-5546360I-40000J0D01*
G01*
X16162880Y-6308360D02*
G75*
G03*
X16162880Y-6308360I-40000J0D01*
G01*
X16416880Y-5546360D02*
G75*
G03*
X16416880Y-5546360I-40000J0D01*
G01*
X16416880Y-6308360D02*
G75*
G03*
X16416880Y-6308360I-40000J0D01*
G01*
X16670880Y-5546360D02*
G75*
G03*
X16670880Y-5546360I-40000J0D01*
G01*
X16670880Y-6308360D02*
G75*
G03*
X16670880Y-6308360I-40000J0D01*
G01*
D10*
X9792500Y-5275000D02*
X9792500Y-5375000D01*
X9742500Y-5325000D02*
X9842500Y-5325000D01*
X9792500Y-5725000D02*
X9792500Y-5825000D01*
X9742500Y-5775000D02*
X9842500Y-5775000D01*
X9792500Y-9175000D02*
X9792500Y-9275000D01*
X9742500Y-9225000D02*
X9842500Y-9225000D01*
X9792500Y-9625000D02*
X9792500Y-9725000D01*
X9742500Y-9675000D02*
X9842500Y-9675000D01*
X11149060Y-9749320D02*
X11149060Y-9849320D01*
X11099060Y-9799320D02*
X11199060Y-9799320D01*
X11403060Y-9749320D02*
X11403060Y-9849320D01*
X11353060Y-9799320D02*
X11453060Y-9799320D01*
X11657060Y-9749320D02*
X11657060Y-9849320D01*
X11607060Y-9799320D02*
X11707060Y-9799320D01*
X11911060Y-9749320D02*
X11911060Y-9849320D01*
X11861060Y-9799320D02*
X11961060Y-9799320D01*
X12489180Y-9449600D02*
X12489180Y-9549600D01*
X12439180Y-9499600D02*
X12539180Y-9499600D01*
X12489180Y-9703600D02*
X12489180Y-9803600D01*
X12439180Y-9753600D02*
X12539180Y-9753600D01*
X12743180Y-9449600D02*
X12743180Y-9549600D01*
X12693180Y-9499600D02*
X12793180Y-9499600D01*
X12743180Y-9703600D02*
X12743180Y-9803600D01*
X12693180Y-9753600D02*
X12793180Y-9753600D01*
X12997180Y-9449600D02*
X12997180Y-9549600D01*
X12947180Y-9499600D02*
X13047180Y-9499600D01*
X12997180Y-9703600D02*
X12997180Y-9803600D01*
X12947180Y-9753600D02*
X13047180Y-9753600D01*
X13251180Y-9449600D02*
X13251180Y-9549600D01*
X13201180Y-9499600D02*
X13301180Y-9499600D01*
X13251180Y-9703600D02*
X13251180Y-9803600D01*
X13201180Y-9753600D02*
X13301180Y-9753600D01*
X13505180Y-9449600D02*
X13505180Y-9549600D01*
X13455180Y-9499600D02*
X13555180Y-9499600D01*
X13505180Y-9703600D02*
X13505180Y-9803600D01*
X13455180Y-9753600D02*
X13555180Y-9753600D01*
X13759180Y-9449600D02*
X13759180Y-9549600D01*
X13709180Y-9499600D02*
X13809180Y-9499600D01*
X13759180Y-9703600D02*
X13759180Y-9803600D01*
X13709180Y-9753600D02*
X13809180Y-9753600D01*
X14013180Y-9449600D02*
X14013180Y-9549600D01*
X13963180Y-9499600D02*
X14063180Y-9499600D01*
X14013180Y-9703600D02*
X14013180Y-9803600D01*
X13963180Y-9753600D02*
X14063180Y-9753600D01*
X14267180Y-9449600D02*
X14267180Y-9549600D01*
X14217180Y-9499600D02*
X14317180Y-9499600D01*
X14267180Y-9703600D02*
X14267180Y-9803600D01*
X14217180Y-9753600D02*
X14317180Y-9753600D01*
D14*
X13702891Y-8020891D02*
X13702891Y-7943109D01*
X13625109Y-7943109D01*
X13625109Y-8020891D01*
X13702891Y-8020891D01*
X14210891Y-5988891D02*
X14210891Y-5911109D01*
X14133109Y-5911109D01*
X14133109Y-5988891D01*
X14210891Y-5988891D01*
X14718891Y-5988891D02*
X14718891Y-5911109D01*
X14641109Y-5911109D01*
X14641109Y-5988891D01*
X14718891Y-5988891D01*
X14718891Y-8020891D02*
X14718891Y-7943109D01*
X14641109Y-7943109D01*
X14641109Y-8020891D01*
X14718891Y-8020891D01*
X15376891Y-5243351D02*
X15376891Y-5165569D01*
X15299109Y-5165569D01*
X15299109Y-5243351D01*
X15376891Y-5243351D01*
X16138891Y-5243351D02*
X16138891Y-5165569D01*
X16061109Y-5165569D01*
X16061109Y-5243351D01*
X16138891Y-5243351D01*
X16523491Y-5243351D02*
X16523491Y-5165569D01*
X16445709Y-5165569D01*
X16445709Y-5243351D01*
X16523491Y-5243351D01*
X17285491Y-5243351D02*
X17285491Y-5165569D01*
X17207709Y-5165569D01*
X17207709Y-5243351D01*
X17285491Y-5243351D01*
D15*
X10042500Y-5265000D02*
X10107500Y-5200000D01*
X10042500Y-5135000D01*
X9977500Y-5200000D01*
X10042500Y-5265000D01*
X10042500Y-5965000D02*
X10107500Y-5900000D01*
X10042500Y-5835000D01*
X9977500Y-5900000D01*
X10042500Y-5965000D01*
X10042500Y-9165000D02*
X10107500Y-9100000D01*
X10042500Y-9035000D01*
X9977500Y-9100000D01*
X10042500Y-9165000D01*
X10042500Y-9865000D02*
X10107500Y-9800000D01*
X10042500Y-9735000D01*
X9977500Y-9800000D01*
X10042500Y-9865000D01*
X15337250Y-7415000D02*
X15402250Y-7350000D01*
X15337250Y-7285000D01*
X15272250Y-7350000D01*
X15337250Y-7415000D01*
X15337250Y-9165000D02*
X15402250Y-9100000D01*
X15337250Y-9035000D01*
X15272250Y-9100000D01*
X15337250Y-9165000D01*
X15537250Y-6815000D02*
X15602250Y-6750000D01*
X15537250Y-6685000D01*
X15472250Y-6750000D01*
X15537250Y-6815000D01*
X15537250Y-8015000D02*
X15602250Y-7950000D01*
X15537250Y-7885000D01*
X15472250Y-7950000D01*
X15537250Y-8015000D01*
X15537250Y-8565000D02*
X15602250Y-8500000D01*
X15537250Y-8435000D01*
X15472250Y-8500000D01*
X15537250Y-8565000D01*
X15537250Y-9765000D02*
X15602250Y-9700000D01*
X15537250Y-9635000D01*
X15472250Y-9700000D01*
X15537250Y-9765000D01*
X16757250Y-6815000D02*
X16822250Y-6750000D01*
X16757250Y-6685000D01*
X16692250Y-6750000D01*
X16757250Y-6815000D01*
X16757250Y-8015000D02*
X16822250Y-7950000D01*
X16757250Y-7885000D01*
X16692250Y-7950000D01*
X16757250Y-8015000D01*
X16757250Y-8565000D02*
X16822250Y-8500000D01*
X16757250Y-8435000D01*
X16692250Y-8500000D01*
X16757250Y-8565000D01*
X16757250Y-9765000D02*
X16822250Y-9700000D01*
X16757250Y-9635000D01*
X16692250Y-9700000D01*
X16757250Y-9765000D01*
X17980500Y-5407500D02*
X18045500Y-5342500D01*
X17980500Y-5277500D01*
X17915500Y-5342500D01*
X17980500Y-5407500D01*
X17980500Y-5915500D02*
X18045500Y-5850500D01*
X17980500Y-5785500D01*
X17915500Y-5850500D01*
X17980500Y-5915500D01*
X17980500Y-6423500D02*
X18045500Y-6358500D01*
X17980500Y-6293500D01*
X17915500Y-6358500D01*
X17980500Y-6423500D01*
X17980500Y-7057500D02*
X18045500Y-6992500D01*
X17980500Y-6927500D01*
X17915500Y-6992500D01*
X17980500Y-7057500D01*
X17980500Y-7565500D02*
X18045500Y-7500500D01*
X17980500Y-7435500D01*
X17915500Y-7500500D01*
X17980500Y-7565500D01*
X17980500Y-8073500D02*
X18045500Y-8008500D01*
X17980500Y-7943500D01*
X17915500Y-8008500D01*
X17980500Y-8073500D01*
X17980500Y-8707500D02*
X18045500Y-8642500D01*
X17980500Y-8577500D01*
X17915500Y-8642500D01*
X17980500Y-8707500D01*
X17980500Y-9215500D02*
X18045500Y-9150500D01*
X17980500Y-9085500D01*
X17915500Y-9150500D01*
X17980500Y-9215500D01*
X17980500Y-9723500D02*
X18045500Y-9658500D01*
X17980500Y-9593500D01*
X17915500Y-9658500D01*
X17980500Y-9723500D01*
D11*
X9742619Y-10317524D02*
X9742619Y-10117524D01*
X9742619Y-10117524D02*
X9790238Y-10117524D01*
X9790238Y-10117524D02*
X9818810Y-10127048D01*
X9818810Y-10127048D02*
X9837857Y-10146095D01*
X9837857Y-10146095D02*
X9847381Y-10165143D01*
X9847381Y-10165143D02*
X9856905Y-10203238D01*
X9856905Y-10203238D02*
X9856905Y-10231810D01*
X9856905Y-10231810D02*
X9847381Y-10269905D01*
X9847381Y-10269905D02*
X9837857Y-10288952D01*
X9837857Y-10288952D02*
X9818810Y-10308000D01*
X9818810Y-10308000D02*
X9790238Y-10317524D01*
X9790238Y-10317524D02*
X9742619Y-10317524D01*
X9942619Y-10317524D02*
X9942619Y-10184190D01*
X9942619Y-10222286D02*
X9952143Y-10203238D01*
X9952143Y-10203238D02*
X9961667Y-10193714D01*
X9961667Y-10193714D02*
X9980714Y-10184190D01*
X9980714Y-10184190D02*
X9999762Y-10184190D01*
X10066429Y-10317524D02*
X10066429Y-10184190D01*
X10066429Y-10117524D02*
X10056905Y-10127048D01*
X10056905Y-10127048D02*
X10066429Y-10136571D01*
X10066429Y-10136571D02*
X10075952Y-10127048D01*
X10075952Y-10127048D02*
X10066429Y-10117524D01*
X10066429Y-10117524D02*
X10066429Y-10136571D01*
X10190238Y-10317524D02*
X10171190Y-10308000D01*
X10171190Y-10308000D02*
X10161667Y-10288952D01*
X10161667Y-10288952D02*
X10161667Y-10117524D01*
X10295000Y-10317524D02*
X10275952Y-10308000D01*
X10275952Y-10308000D02*
X10266429Y-10288952D01*
X10266429Y-10288952D02*
X10266429Y-10117524D01*
X10523571Y-10317524D02*
X10523571Y-10117524D01*
X10523571Y-10117524D02*
X10590238Y-10260381D01*
X10590238Y-10260381D02*
X10656905Y-10117524D01*
X10656905Y-10117524D02*
X10656905Y-10317524D01*
X10837857Y-10317524D02*
X10837857Y-10212762D01*
X10837857Y-10212762D02*
X10828333Y-10193714D01*
X10828333Y-10193714D02*
X10809286Y-10184190D01*
X10809286Y-10184190D02*
X10771190Y-10184190D01*
X10771190Y-10184190D02*
X10752143Y-10193714D01*
X10837857Y-10308000D02*
X10818810Y-10317524D01*
X10818810Y-10317524D02*
X10771190Y-10317524D01*
X10771190Y-10317524D02*
X10752143Y-10308000D01*
X10752143Y-10308000D02*
X10742619Y-10288952D01*
X10742619Y-10288952D02*
X10742619Y-10269905D01*
X10742619Y-10269905D02*
X10752143Y-10250857D01*
X10752143Y-10250857D02*
X10771190Y-10241333D01*
X10771190Y-10241333D02*
X10818810Y-10241333D01*
X10818810Y-10241333D02*
X10837857Y-10231810D01*
X10933095Y-10184190D02*
X10933095Y-10384190D01*
X10933095Y-10193714D02*
X10952143Y-10184190D01*
X10952143Y-10184190D02*
X10990238Y-10184190D01*
X10990238Y-10184190D02*
X11009286Y-10193714D01*
X11009286Y-10193714D02*
X11018810Y-10203238D01*
X11018810Y-10203238D02*
X11028333Y-10222286D01*
X11028333Y-10222286D02*
X11028333Y-10279429D01*
X11028333Y-10279429D02*
X11018810Y-10298476D01*
X11018810Y-10298476D02*
X11009286Y-10308000D01*
X11009286Y-10308000D02*
X10990238Y-10317524D01*
X10990238Y-10317524D02*
X10952143Y-10317524D01*
X10952143Y-10317524D02*
X10933095Y-10308000D01*
X11114048Y-10298476D02*
X11123571Y-10308000D01*
X11123571Y-10308000D02*
X11114048Y-10317524D01*
X11114048Y-10317524D02*
X11104524Y-10308000D01*
X11104524Y-10308000D02*
X11114048Y-10298476D01*
X11114048Y-10298476D02*
X11114048Y-10317524D01*
X11114048Y-10193714D02*
X11123571Y-10203238D01*
X11123571Y-10203238D02*
X11114048Y-10212762D01*
X11114048Y-10212762D02*
X11104524Y-10203238D01*
X11104524Y-10203238D02*
X11114048Y-10193714D01*
X11114048Y-10193714D02*
X11114048Y-10212762D01*
D12*
X9465000Y-10630000D02*
X9495000Y-10660000D01*
X9495000Y-10630000D02*
X9465000Y-10660000D01*
D11*
X9780714Y-10537524D02*
X9799762Y-10537524D01*
X9799762Y-10537524D02*
X9818810Y-10547048D01*
X9818810Y-10547048D02*
X9828333Y-10556571D01*
X9828333Y-10556571D02*
X9837857Y-10575619D01*
X9837857Y-10575619D02*
X9847381Y-10613714D01*
X9847381Y-10613714D02*
X9847381Y-10661333D01*
X9847381Y-10661333D02*
X9837857Y-10699429D01*
X9837857Y-10699429D02*
X9828333Y-10718476D01*
X9828333Y-10718476D02*
X9818810Y-10728000D01*
X9818810Y-10728000D02*
X9799762Y-10737524D01*
X9799762Y-10737524D02*
X9780714Y-10737524D01*
X9780714Y-10737524D02*
X9761667Y-10728000D01*
X9761667Y-10728000D02*
X9752143Y-10718476D01*
X9752143Y-10718476D02*
X9742619Y-10699429D01*
X9742619Y-10699429D02*
X9733095Y-10661333D01*
X9733095Y-10661333D02*
X9733095Y-10613714D01*
X9733095Y-10613714D02*
X9742619Y-10575619D01*
X9742619Y-10575619D02*
X9752143Y-10556571D01*
X9752143Y-10556571D02*
X9761667Y-10547048D01*
X9761667Y-10547048D02*
X9780714Y-10537524D01*
X9933095Y-10718476D02*
X9942619Y-10728000D01*
X9942619Y-10728000D02*
X9933095Y-10737524D01*
X9933095Y-10737524D02*
X9923571Y-10728000D01*
X9923571Y-10728000D02*
X9933095Y-10718476D01*
X9933095Y-10718476D02*
X9933095Y-10737524D01*
X10009286Y-10537524D02*
X10133095Y-10537524D01*
X10133095Y-10537524D02*
X10066429Y-10613714D01*
X10066429Y-10613714D02*
X10095000Y-10613714D01*
X10095000Y-10613714D02*
X10114048Y-10623238D01*
X10114048Y-10623238D02*
X10123571Y-10632762D01*
X10123571Y-10632762D02*
X10133095Y-10651810D01*
X10133095Y-10651810D02*
X10133095Y-10699429D01*
X10133095Y-10699429D02*
X10123571Y-10718476D01*
X10123571Y-10718476D02*
X10114048Y-10728000D01*
X10114048Y-10728000D02*
X10095000Y-10737524D01*
X10095000Y-10737524D02*
X10037857Y-10737524D01*
X10037857Y-10737524D02*
X10018810Y-10728000D01*
X10018810Y-10728000D02*
X10009286Y-10718476D01*
X10256905Y-10537524D02*
X10275952Y-10537524D01*
X10275952Y-10537524D02*
X10295000Y-10547048D01*
X10295000Y-10547048D02*
X10304524Y-10556571D01*
X10304524Y-10556571D02*
X10314048Y-10575619D01*
X10314048Y-10575619D02*
X10323571Y-10613714D01*
X10323571Y-10613714D02*
X10323571Y-10661333D01*
X10323571Y-10661333D02*
X10314048Y-10699429D01*
X10314048Y-10699429D02*
X10304524Y-10718476D01*
X10304524Y-10718476D02*
X10295000Y-10728000D01*
X10295000Y-10728000D02*
X10275952Y-10737524D01*
X10275952Y-10737524D02*
X10256905Y-10737524D01*
X10256905Y-10737524D02*
X10237857Y-10728000D01*
X10237857Y-10728000D02*
X10228333Y-10718476D01*
X10228333Y-10718476D02*
X10218810Y-10699429D01*
X10218810Y-10699429D02*
X10209286Y-10661333D01*
X10209286Y-10661333D02*
X10209286Y-10613714D01*
X10209286Y-10613714D02*
X10218810Y-10575619D01*
X10218810Y-10575619D02*
X10228333Y-10556571D01*
X10228333Y-10556571D02*
X10237857Y-10547048D01*
X10237857Y-10547048D02*
X10256905Y-10537524D01*
X10447381Y-10537524D02*
X10466429Y-10537524D01*
X10466429Y-10537524D02*
X10485476Y-10547048D01*
X10485476Y-10547048D02*
X10495000Y-10556571D01*
X10495000Y-10556571D02*
X10504524Y-10575619D01*
X10504524Y-10575619D02*
X10514048Y-10613714D01*
X10514048Y-10613714D02*
X10514048Y-10661333D01*
X10514048Y-10661333D02*
X10504524Y-10699429D01*
X10504524Y-10699429D02*
X10495000Y-10718476D01*
X10495000Y-10718476D02*
X10485476Y-10728000D01*
X10485476Y-10728000D02*
X10466429Y-10737524D01*
X10466429Y-10737524D02*
X10447381Y-10737524D01*
X10447381Y-10737524D02*
X10428333Y-10728000D01*
X10428333Y-10728000D02*
X10418810Y-10718476D01*
X10418810Y-10718476D02*
X10409286Y-10699429D01*
X10409286Y-10699429D02*
X10399762Y-10661333D01*
X10399762Y-10661333D02*
X10399762Y-10613714D01*
X10399762Y-10613714D02*
X10409286Y-10575619D01*
X10409286Y-10575619D02*
X10418810Y-10556571D01*
X10418810Y-10556571D02*
X10428333Y-10547048D01*
X10428333Y-10547048D02*
X10447381Y-10537524D01*
X10599762Y-10737524D02*
X10599762Y-10604190D01*
X10599762Y-10623238D02*
X10609286Y-10613714D01*
X10609286Y-10613714D02*
X10628333Y-10604190D01*
X10628333Y-10604190D02*
X10656905Y-10604190D01*
X10656905Y-10604190D02*
X10675952Y-10613714D01*
X10675952Y-10613714D02*
X10685476Y-10632762D01*
X10685476Y-10632762D02*
X10685476Y-10737524D01*
X10685476Y-10632762D02*
X10695000Y-10613714D01*
X10695000Y-10613714D02*
X10714048Y-10604190D01*
X10714048Y-10604190D02*
X10742619Y-10604190D01*
X10742619Y-10604190D02*
X10761667Y-10613714D01*
X10761667Y-10613714D02*
X10771191Y-10632762D01*
X10771191Y-10632762D02*
X10771191Y-10737524D01*
X10866429Y-10737524D02*
X10866429Y-10604190D01*
X10866429Y-10623238D02*
X10875952Y-10613714D01*
X10875952Y-10613714D02*
X10895000Y-10604190D01*
X10895000Y-10604190D02*
X10923572Y-10604190D01*
X10923572Y-10604190D02*
X10942619Y-10613714D01*
X10942619Y-10613714D02*
X10952143Y-10632762D01*
X10952143Y-10632762D02*
X10952143Y-10737524D01*
X10952143Y-10632762D02*
X10961667Y-10613714D01*
X10961667Y-10613714D02*
X10980714Y-10604190D01*
X10980714Y-10604190D02*
X11009286Y-10604190D01*
X11009286Y-10604190D02*
X11028333Y-10613714D01*
X11028333Y-10613714D02*
X11037857Y-10632762D01*
X11037857Y-10632762D02*
X11037857Y-10737524D01*
X11428333Y-10528000D02*
X11256905Y-10785143D01*
X11685476Y-10537524D02*
X11704524Y-10537524D01*
X11704524Y-10537524D02*
X11723572Y-10547048D01*
X11723572Y-10547048D02*
X11733095Y-10556571D01*
X11733095Y-10556571D02*
X11742619Y-10575619D01*
X11742619Y-10575619D02*
X11752143Y-10613714D01*
X11752143Y-10613714D02*
X11752143Y-10661333D01*
X11752143Y-10661333D02*
X11742619Y-10699429D01*
X11742619Y-10699429D02*
X11733095Y-10718476D01*
X11733095Y-10718476D02*
X11723572Y-10728000D01*
X11723572Y-10728000D02*
X11704524Y-10737524D01*
X11704524Y-10737524D02*
X11685476Y-10737524D01*
X11685476Y-10737524D02*
X11666429Y-10728000D01*
X11666429Y-10728000D02*
X11656905Y-10718476D01*
X11656905Y-10718476D02*
X11647381Y-10699429D01*
X11647381Y-10699429D02*
X11637857Y-10661333D01*
X11637857Y-10661333D02*
X11637857Y-10613714D01*
X11637857Y-10613714D02*
X11647381Y-10575619D01*
X11647381Y-10575619D02*
X11656905Y-10556571D01*
X11656905Y-10556571D02*
X11666429Y-10547048D01*
X11666429Y-10547048D02*
X11685476Y-10537524D01*
X11837857Y-10718476D02*
X11847381Y-10728000D01*
X11847381Y-10728000D02*
X11837857Y-10737524D01*
X11837857Y-10737524D02*
X11828333Y-10728000D01*
X11828333Y-10728000D02*
X11837857Y-10718476D01*
X11837857Y-10718476D02*
X11837857Y-10737524D01*
X11971191Y-10537524D02*
X11990238Y-10537524D01*
X11990238Y-10537524D02*
X12009286Y-10547048D01*
X12009286Y-10547048D02*
X12018810Y-10556571D01*
X12018810Y-10556571D02*
X12028333Y-10575619D01*
X12028333Y-10575619D02*
X12037857Y-10613714D01*
X12037857Y-10613714D02*
X12037857Y-10661333D01*
X12037857Y-10661333D02*
X12028333Y-10699429D01*
X12028333Y-10699429D02*
X12018810Y-10718476D01*
X12018810Y-10718476D02*
X12009286Y-10728000D01*
X12009286Y-10728000D02*
X11990238Y-10737524D01*
X11990238Y-10737524D02*
X11971191Y-10737524D01*
X11971191Y-10737524D02*
X11952143Y-10728000D01*
X11952143Y-10728000D02*
X11942619Y-10718476D01*
X11942619Y-10718476D02*
X11933095Y-10699429D01*
X11933095Y-10699429D02*
X11923572Y-10661333D01*
X11923572Y-10661333D02*
X11923572Y-10613714D01*
X11923572Y-10613714D02*
X11933095Y-10575619D01*
X11933095Y-10575619D02*
X11942619Y-10556571D01*
X11942619Y-10556571D02*
X11952143Y-10547048D01*
X11952143Y-10547048D02*
X11971191Y-10537524D01*
X12228333Y-10737524D02*
X12114048Y-10737524D01*
X12171191Y-10737524D02*
X12171191Y-10537524D01*
X12171191Y-10537524D02*
X12152143Y-10566095D01*
X12152143Y-10566095D02*
X12133095Y-10585143D01*
X12133095Y-10585143D02*
X12114048Y-10594667D01*
X12418810Y-10737524D02*
X12304524Y-10737524D01*
X12361667Y-10737524D02*
X12361667Y-10537524D01*
X12361667Y-10537524D02*
X12342619Y-10566095D01*
X12342619Y-10566095D02*
X12323572Y-10585143D01*
X12323572Y-10585143D02*
X12304524Y-10594667D01*
X12533095Y-10623238D02*
X12514048Y-10613714D01*
X12514048Y-10613714D02*
X12504524Y-10604190D01*
X12504524Y-10604190D02*
X12495000Y-10585143D01*
X12495000Y-10585143D02*
X12495000Y-10575619D01*
X12495000Y-10575619D02*
X12504524Y-10556571D01*
X12504524Y-10556571D02*
X12514048Y-10547048D01*
X12514048Y-10547048D02*
X12533095Y-10537524D01*
X12533095Y-10537524D02*
X12571191Y-10537524D01*
X12571191Y-10537524D02*
X12590238Y-10547048D01*
X12590238Y-10547048D02*
X12599762Y-10556571D01*
X12599762Y-10556571D02*
X12609286Y-10575619D01*
X12609286Y-10575619D02*
X12609286Y-10585143D01*
X12609286Y-10585143D02*
X12599762Y-10604190D01*
X12599762Y-10604190D02*
X12590238Y-10613714D01*
X12590238Y-10613714D02*
X12571191Y-10623238D01*
X12571191Y-10623238D02*
X12533095Y-10623238D01*
X12533095Y-10623238D02*
X12514048Y-10632762D01*
X12514048Y-10632762D02*
X12504524Y-10642286D01*
X12504524Y-10642286D02*
X12495000Y-10661333D01*
X12495000Y-10661333D02*
X12495000Y-10699429D01*
X12495000Y-10699429D02*
X12504524Y-10718476D01*
X12504524Y-10718476D02*
X12514048Y-10728000D01*
X12514048Y-10728000D02*
X12533095Y-10737524D01*
X12533095Y-10737524D02*
X12571191Y-10737524D01*
X12571191Y-10737524D02*
X12590238Y-10728000D01*
X12590238Y-10728000D02*
X12599762Y-10718476D01*
X12599762Y-10718476D02*
X12609286Y-10699429D01*
X12609286Y-10699429D02*
X12609286Y-10661333D01*
X12609286Y-10661333D02*
X12599762Y-10642286D01*
X12599762Y-10642286D02*
X12590238Y-10632762D01*
X12590238Y-10632762D02*
X12571191Y-10623238D01*
X12685476Y-10537524D02*
X12685476Y-10575619D01*
X12761667Y-10537524D02*
X12761667Y-10575619D01*
X13056905Y-10813714D02*
X13047381Y-10804190D01*
X13047381Y-10804190D02*
X13028334Y-10775619D01*
X13028334Y-10775619D02*
X13018810Y-10756571D01*
X13018810Y-10756571D02*
X13009286Y-10728000D01*
X13009286Y-10728000D02*
X12999762Y-10680381D01*
X12999762Y-10680381D02*
X12999762Y-10642286D01*
X12999762Y-10642286D02*
X13009286Y-10594667D01*
X13009286Y-10594667D02*
X13018810Y-10566095D01*
X13018810Y-10566095D02*
X13028334Y-10547048D01*
X13028334Y-10547048D02*
X13047381Y-10518476D01*
X13047381Y-10518476D02*
X13056905Y-10508952D01*
X13218810Y-10604190D02*
X13218810Y-10737524D01*
X13171191Y-10528000D02*
X13123572Y-10670857D01*
X13123572Y-10670857D02*
X13247381Y-10670857D01*
X13428334Y-10737524D02*
X13314048Y-10737524D01*
X13371191Y-10737524D02*
X13371191Y-10537524D01*
X13371191Y-10537524D02*
X13352143Y-10566095D01*
X13352143Y-10566095D02*
X13333095Y-10585143D01*
X13333095Y-10585143D02*
X13314048Y-10594667D01*
X13666429Y-10737524D02*
X13666429Y-10537524D01*
X13752143Y-10737524D02*
X13752143Y-10632762D01*
X13752143Y-10632762D02*
X13742619Y-10613714D01*
X13742619Y-10613714D02*
X13723572Y-10604190D01*
X13723572Y-10604190D02*
X13695000Y-10604190D01*
X13695000Y-10604190D02*
X13675953Y-10613714D01*
X13675953Y-10613714D02*
X13666429Y-10623238D01*
X13875953Y-10737524D02*
X13856905Y-10728000D01*
X13856905Y-10728000D02*
X13847381Y-10718476D01*
X13847381Y-10718476D02*
X13837857Y-10699429D01*
X13837857Y-10699429D02*
X13837857Y-10642286D01*
X13837857Y-10642286D02*
X13847381Y-10623238D01*
X13847381Y-10623238D02*
X13856905Y-10613714D01*
X13856905Y-10613714D02*
X13875953Y-10604190D01*
X13875953Y-10604190D02*
X13904524Y-10604190D01*
X13904524Y-10604190D02*
X13923572Y-10613714D01*
X13923572Y-10613714D02*
X13933096Y-10623238D01*
X13933096Y-10623238D02*
X13942619Y-10642286D01*
X13942619Y-10642286D02*
X13942619Y-10699429D01*
X13942619Y-10699429D02*
X13933096Y-10718476D01*
X13933096Y-10718476D02*
X13923572Y-10728000D01*
X13923572Y-10728000D02*
X13904524Y-10737524D01*
X13904524Y-10737524D02*
X13875953Y-10737524D01*
X14056905Y-10737524D02*
X14037857Y-10728000D01*
X14037857Y-10728000D02*
X14028334Y-10708952D01*
X14028334Y-10708952D02*
X14028334Y-10537524D01*
X14209286Y-10728000D02*
X14190238Y-10737524D01*
X14190238Y-10737524D02*
X14152143Y-10737524D01*
X14152143Y-10737524D02*
X14133096Y-10728000D01*
X14133096Y-10728000D02*
X14123572Y-10708952D01*
X14123572Y-10708952D02*
X14123572Y-10632762D01*
X14123572Y-10632762D02*
X14133096Y-10613714D01*
X14133096Y-10613714D02*
X14152143Y-10604190D01*
X14152143Y-10604190D02*
X14190238Y-10604190D01*
X14190238Y-10604190D02*
X14209286Y-10613714D01*
X14209286Y-10613714D02*
X14218810Y-10632762D01*
X14218810Y-10632762D02*
X14218810Y-10651810D01*
X14218810Y-10651810D02*
X14123572Y-10670857D01*
X14295000Y-10728000D02*
X14314048Y-10737524D01*
X14314048Y-10737524D02*
X14352143Y-10737524D01*
X14352143Y-10737524D02*
X14371191Y-10728000D01*
X14371191Y-10728000D02*
X14380715Y-10708952D01*
X14380715Y-10708952D02*
X14380715Y-10699429D01*
X14380715Y-10699429D02*
X14371191Y-10680381D01*
X14371191Y-10680381D02*
X14352143Y-10670857D01*
X14352143Y-10670857D02*
X14323572Y-10670857D01*
X14323572Y-10670857D02*
X14304524Y-10661333D01*
X14304524Y-10661333D02*
X14295000Y-10642286D01*
X14295000Y-10642286D02*
X14295000Y-10632762D01*
X14295000Y-10632762D02*
X14304524Y-10613714D01*
X14304524Y-10613714D02*
X14323572Y-10604190D01*
X14323572Y-10604190D02*
X14352143Y-10604190D01*
X14352143Y-10604190D02*
X14371191Y-10613714D01*
X14447381Y-10813714D02*
X14456905Y-10804190D01*
X14456905Y-10804190D02*
X14475953Y-10775619D01*
X14475953Y-10775619D02*
X14485477Y-10756571D01*
X14485477Y-10756571D02*
X14495000Y-10728000D01*
X14495000Y-10728000D02*
X14504524Y-10680381D01*
X14504524Y-10680381D02*
X14504524Y-10642286D01*
X14504524Y-10642286D02*
X14495000Y-10594667D01*
X14495000Y-10594667D02*
X14485477Y-10566095D01*
X14485477Y-10566095D02*
X14475953Y-10547048D01*
X14475953Y-10547048D02*
X14456905Y-10518476D01*
X14456905Y-10518476D02*
X14447381Y-10508952D01*
D13*
X9495000Y-10909000D02*
G75*
G03*
X9495000Y-10909000I-40000J0D01*
G01*
D11*
X9780714Y-10801524D02*
X9799762Y-10801524D01*
X9799762Y-10801524D02*
X9818810Y-10811048D01*
X9818810Y-10811048D02*
X9828333Y-10820571D01*
X9828333Y-10820571D02*
X9837857Y-10839619D01*
X9837857Y-10839619D02*
X9847381Y-10877714D01*
X9847381Y-10877714D02*
X9847381Y-10925333D01*
X9847381Y-10925333D02*
X9837857Y-10963429D01*
X9837857Y-10963429D02*
X9828333Y-10982476D01*
X9828333Y-10982476D02*
X9818810Y-10992000D01*
X9818810Y-10992000D02*
X9799762Y-11001524D01*
X9799762Y-11001524D02*
X9780714Y-11001524D01*
X9780714Y-11001524D02*
X9761667Y-10992000D01*
X9761667Y-10992000D02*
X9752143Y-10982476D01*
X9752143Y-10982476D02*
X9742619Y-10963429D01*
X9742619Y-10963429D02*
X9733095Y-10925333D01*
X9733095Y-10925333D02*
X9733095Y-10877714D01*
X9733095Y-10877714D02*
X9742619Y-10839619D01*
X9742619Y-10839619D02*
X9752143Y-10820571D01*
X9752143Y-10820571D02*
X9761667Y-10811048D01*
X9761667Y-10811048D02*
X9780714Y-10801524D01*
X9933095Y-10982476D02*
X9942619Y-10992000D01*
X9942619Y-10992000D02*
X9933095Y-11001524D01*
X9933095Y-11001524D02*
X9923571Y-10992000D01*
X9923571Y-10992000D02*
X9933095Y-10982476D01*
X9933095Y-10982476D02*
X9933095Y-11001524D01*
X10056905Y-10887238D02*
X10037857Y-10877714D01*
X10037857Y-10877714D02*
X10028333Y-10868190D01*
X10028333Y-10868190D02*
X10018810Y-10849143D01*
X10018810Y-10849143D02*
X10018810Y-10839619D01*
X10018810Y-10839619D02*
X10028333Y-10820571D01*
X10028333Y-10820571D02*
X10037857Y-10811048D01*
X10037857Y-10811048D02*
X10056905Y-10801524D01*
X10056905Y-10801524D02*
X10095000Y-10801524D01*
X10095000Y-10801524D02*
X10114048Y-10811048D01*
X10114048Y-10811048D02*
X10123571Y-10820571D01*
X10123571Y-10820571D02*
X10133095Y-10839619D01*
X10133095Y-10839619D02*
X10133095Y-10849143D01*
X10133095Y-10849143D02*
X10123571Y-10868190D01*
X10123571Y-10868190D02*
X10114048Y-10877714D01*
X10114048Y-10877714D02*
X10095000Y-10887238D01*
X10095000Y-10887238D02*
X10056905Y-10887238D01*
X10056905Y-10887238D02*
X10037857Y-10896762D01*
X10037857Y-10896762D02*
X10028333Y-10906286D01*
X10028333Y-10906286D02*
X10018810Y-10925333D01*
X10018810Y-10925333D02*
X10018810Y-10963429D01*
X10018810Y-10963429D02*
X10028333Y-10982476D01*
X10028333Y-10982476D02*
X10037857Y-10992000D01*
X10037857Y-10992000D02*
X10056905Y-11001524D01*
X10056905Y-11001524D02*
X10095000Y-11001524D01*
X10095000Y-11001524D02*
X10114048Y-10992000D01*
X10114048Y-10992000D02*
X10123571Y-10982476D01*
X10123571Y-10982476D02*
X10133095Y-10963429D01*
X10133095Y-10963429D02*
X10133095Y-10925333D01*
X10133095Y-10925333D02*
X10123571Y-10906286D01*
X10123571Y-10906286D02*
X10114048Y-10896762D01*
X10114048Y-10896762D02*
X10095000Y-10887238D01*
X10256905Y-10801524D02*
X10275952Y-10801524D01*
X10275952Y-10801524D02*
X10295000Y-10811048D01*
X10295000Y-10811048D02*
X10304524Y-10820571D01*
X10304524Y-10820571D02*
X10314048Y-10839619D01*
X10314048Y-10839619D02*
X10323571Y-10877714D01*
X10323571Y-10877714D02*
X10323571Y-10925333D01*
X10323571Y-10925333D02*
X10314048Y-10963429D01*
X10314048Y-10963429D02*
X10304524Y-10982476D01*
X10304524Y-10982476D02*
X10295000Y-10992000D01*
X10295000Y-10992000D02*
X10275952Y-11001524D01*
X10275952Y-11001524D02*
X10256905Y-11001524D01*
X10256905Y-11001524D02*
X10237857Y-10992000D01*
X10237857Y-10992000D02*
X10228333Y-10982476D01*
X10228333Y-10982476D02*
X10218810Y-10963429D01*
X10218810Y-10963429D02*
X10209286Y-10925333D01*
X10209286Y-10925333D02*
X10209286Y-10877714D01*
X10209286Y-10877714D02*
X10218810Y-10839619D01*
X10218810Y-10839619D02*
X10228333Y-10820571D01*
X10228333Y-10820571D02*
X10237857Y-10811048D01*
X10237857Y-10811048D02*
X10256905Y-10801524D01*
X10447381Y-10801524D02*
X10466429Y-10801524D01*
X10466429Y-10801524D02*
X10485476Y-10811048D01*
X10485476Y-10811048D02*
X10495000Y-10820571D01*
X10495000Y-10820571D02*
X10504524Y-10839619D01*
X10504524Y-10839619D02*
X10514048Y-10877714D01*
X10514048Y-10877714D02*
X10514048Y-10925333D01*
X10514048Y-10925333D02*
X10504524Y-10963429D01*
X10504524Y-10963429D02*
X10495000Y-10982476D01*
X10495000Y-10982476D02*
X10485476Y-10992000D01*
X10485476Y-10992000D02*
X10466429Y-11001524D01*
X10466429Y-11001524D02*
X10447381Y-11001524D01*
X10447381Y-11001524D02*
X10428333Y-10992000D01*
X10428333Y-10992000D02*
X10418810Y-10982476D01*
X10418810Y-10982476D02*
X10409286Y-10963429D01*
X10409286Y-10963429D02*
X10399762Y-10925333D01*
X10399762Y-10925333D02*
X10399762Y-10877714D01*
X10399762Y-10877714D02*
X10409286Y-10839619D01*
X10409286Y-10839619D02*
X10418810Y-10820571D01*
X10418810Y-10820571D02*
X10428333Y-10811048D01*
X10428333Y-10811048D02*
X10447381Y-10801524D01*
X10599762Y-11001524D02*
X10599762Y-10868190D01*
X10599762Y-10887238D02*
X10609286Y-10877714D01*
X10609286Y-10877714D02*
X10628333Y-10868190D01*
X10628333Y-10868190D02*
X10656905Y-10868190D01*
X10656905Y-10868190D02*
X10675952Y-10877714D01*
X10675952Y-10877714D02*
X10685476Y-10896762D01*
X10685476Y-10896762D02*
X10685476Y-11001524D01*
X10685476Y-10896762D02*
X10695000Y-10877714D01*
X10695000Y-10877714D02*
X10714048Y-10868190D01*
X10714048Y-10868190D02*
X10742619Y-10868190D01*
X10742619Y-10868190D02*
X10761667Y-10877714D01*
X10761667Y-10877714D02*
X10771191Y-10896762D01*
X10771191Y-10896762D02*
X10771191Y-11001524D01*
X10866429Y-11001524D02*
X10866429Y-10868190D01*
X10866429Y-10887238D02*
X10875952Y-10877714D01*
X10875952Y-10877714D02*
X10895000Y-10868190D01*
X10895000Y-10868190D02*
X10923572Y-10868190D01*
X10923572Y-10868190D02*
X10942619Y-10877714D01*
X10942619Y-10877714D02*
X10952143Y-10896762D01*
X10952143Y-10896762D02*
X10952143Y-11001524D01*
X10952143Y-10896762D02*
X10961667Y-10877714D01*
X10961667Y-10877714D02*
X10980714Y-10868190D01*
X10980714Y-10868190D02*
X11009286Y-10868190D01*
X11009286Y-10868190D02*
X11028333Y-10877714D01*
X11028333Y-10877714D02*
X11037857Y-10896762D01*
X11037857Y-10896762D02*
X11037857Y-11001524D01*
X11428333Y-10792000D02*
X11256905Y-11049143D01*
X11685476Y-10801524D02*
X11704524Y-10801524D01*
X11704524Y-10801524D02*
X11723572Y-10811048D01*
X11723572Y-10811048D02*
X11733095Y-10820571D01*
X11733095Y-10820571D02*
X11742619Y-10839619D01*
X11742619Y-10839619D02*
X11752143Y-10877714D01*
X11752143Y-10877714D02*
X11752143Y-10925333D01*
X11752143Y-10925333D02*
X11742619Y-10963429D01*
X11742619Y-10963429D02*
X11733095Y-10982476D01*
X11733095Y-10982476D02*
X11723572Y-10992000D01*
X11723572Y-10992000D02*
X11704524Y-11001524D01*
X11704524Y-11001524D02*
X11685476Y-11001524D01*
X11685476Y-11001524D02*
X11666429Y-10992000D01*
X11666429Y-10992000D02*
X11656905Y-10982476D01*
X11656905Y-10982476D02*
X11647381Y-10963429D01*
X11647381Y-10963429D02*
X11637857Y-10925333D01*
X11637857Y-10925333D02*
X11637857Y-10877714D01*
X11637857Y-10877714D02*
X11647381Y-10839619D01*
X11647381Y-10839619D02*
X11656905Y-10820571D01*
X11656905Y-10820571D02*
X11666429Y-10811048D01*
X11666429Y-10811048D02*
X11685476Y-10801524D01*
X11837857Y-10982476D02*
X11847381Y-10992000D01*
X11847381Y-10992000D02*
X11837857Y-11001524D01*
X11837857Y-11001524D02*
X11828333Y-10992000D01*
X11828333Y-10992000D02*
X11837857Y-10982476D01*
X11837857Y-10982476D02*
X11837857Y-11001524D01*
X11971191Y-10801524D02*
X11990238Y-10801524D01*
X11990238Y-10801524D02*
X12009286Y-10811048D01*
X12009286Y-10811048D02*
X12018810Y-10820571D01*
X12018810Y-10820571D02*
X12028333Y-10839619D01*
X12028333Y-10839619D02*
X12037857Y-10877714D01*
X12037857Y-10877714D02*
X12037857Y-10925333D01*
X12037857Y-10925333D02*
X12028333Y-10963429D01*
X12028333Y-10963429D02*
X12018810Y-10982476D01*
X12018810Y-10982476D02*
X12009286Y-10992000D01*
X12009286Y-10992000D02*
X11990238Y-11001524D01*
X11990238Y-11001524D02*
X11971191Y-11001524D01*
X11971191Y-11001524D02*
X11952143Y-10992000D01*
X11952143Y-10992000D02*
X11942619Y-10982476D01*
X11942619Y-10982476D02*
X11933095Y-10963429D01*
X11933095Y-10963429D02*
X11923572Y-10925333D01*
X11923572Y-10925333D02*
X11923572Y-10877714D01*
X11923572Y-10877714D02*
X11933095Y-10839619D01*
X11933095Y-10839619D02*
X11942619Y-10820571D01*
X11942619Y-10820571D02*
X11952143Y-10811048D01*
X11952143Y-10811048D02*
X11971191Y-10801524D01*
X12104524Y-10801524D02*
X12228333Y-10801524D01*
X12228333Y-10801524D02*
X12161667Y-10877714D01*
X12161667Y-10877714D02*
X12190238Y-10877714D01*
X12190238Y-10877714D02*
X12209286Y-10887238D01*
X12209286Y-10887238D02*
X12218810Y-10896762D01*
X12218810Y-10896762D02*
X12228333Y-10915810D01*
X12228333Y-10915810D02*
X12228333Y-10963429D01*
X12228333Y-10963429D02*
X12218810Y-10982476D01*
X12218810Y-10982476D02*
X12209286Y-10992000D01*
X12209286Y-10992000D02*
X12190238Y-11001524D01*
X12190238Y-11001524D02*
X12133095Y-11001524D01*
X12133095Y-11001524D02*
X12114048Y-10992000D01*
X12114048Y-10992000D02*
X12104524Y-10982476D01*
X12418810Y-11001524D02*
X12304524Y-11001524D01*
X12361667Y-11001524D02*
X12361667Y-10801524D01*
X12361667Y-10801524D02*
X12342619Y-10830095D01*
X12342619Y-10830095D02*
X12323572Y-10849143D01*
X12323572Y-10849143D02*
X12304524Y-10858667D01*
X12599762Y-10801524D02*
X12504524Y-10801524D01*
X12504524Y-10801524D02*
X12495000Y-10896762D01*
X12495000Y-10896762D02*
X12504524Y-10887238D01*
X12504524Y-10887238D02*
X12523572Y-10877714D01*
X12523572Y-10877714D02*
X12571191Y-10877714D01*
X12571191Y-10877714D02*
X12590238Y-10887238D01*
X12590238Y-10887238D02*
X12599762Y-10896762D01*
X12599762Y-10896762D02*
X12609286Y-10915810D01*
X12609286Y-10915810D02*
X12609286Y-10963429D01*
X12609286Y-10963429D02*
X12599762Y-10982476D01*
X12599762Y-10982476D02*
X12590238Y-10992000D01*
X12590238Y-10992000D02*
X12571191Y-11001524D01*
X12571191Y-11001524D02*
X12523572Y-11001524D01*
X12523572Y-11001524D02*
X12504524Y-10992000D01*
X12504524Y-10992000D02*
X12495000Y-10982476D01*
X12685476Y-10801524D02*
X12685476Y-10839619D01*
X12761667Y-10801524D02*
X12761667Y-10839619D01*
X13056905Y-11077714D02*
X13047381Y-11068190D01*
X13047381Y-11068190D02*
X13028334Y-11039619D01*
X13028334Y-11039619D02*
X13018810Y-11020571D01*
X13018810Y-11020571D02*
X13009286Y-10992000D01*
X13009286Y-10992000D02*
X12999762Y-10944381D01*
X12999762Y-10944381D02*
X12999762Y-10906286D01*
X12999762Y-10906286D02*
X13009286Y-10858667D01*
X13009286Y-10858667D02*
X13018810Y-10830095D01*
X13018810Y-10830095D02*
X13028334Y-10811048D01*
X13028334Y-10811048D02*
X13047381Y-10782476D01*
X13047381Y-10782476D02*
X13056905Y-10772952D01*
X13237857Y-11001524D02*
X13123572Y-11001524D01*
X13180714Y-11001524D02*
X13180714Y-10801524D01*
X13180714Y-10801524D02*
X13161667Y-10830095D01*
X13161667Y-10830095D02*
X13142619Y-10849143D01*
X13142619Y-10849143D02*
X13123572Y-10858667D01*
X13409286Y-10868190D02*
X13409286Y-11001524D01*
X13361667Y-10792000D02*
X13314048Y-10934857D01*
X13314048Y-10934857D02*
X13437857Y-10934857D01*
X13666429Y-11001524D02*
X13666429Y-10801524D01*
X13752143Y-11001524D02*
X13752143Y-10896762D01*
X13752143Y-10896762D02*
X13742619Y-10877714D01*
X13742619Y-10877714D02*
X13723572Y-10868190D01*
X13723572Y-10868190D02*
X13695000Y-10868190D01*
X13695000Y-10868190D02*
X13675953Y-10877714D01*
X13675953Y-10877714D02*
X13666429Y-10887238D01*
X13875953Y-11001524D02*
X13856905Y-10992000D01*
X13856905Y-10992000D02*
X13847381Y-10982476D01*
X13847381Y-10982476D02*
X13837857Y-10963429D01*
X13837857Y-10963429D02*
X13837857Y-10906286D01*
X13837857Y-10906286D02*
X13847381Y-10887238D01*
X13847381Y-10887238D02*
X13856905Y-10877714D01*
X13856905Y-10877714D02*
X13875953Y-10868190D01*
X13875953Y-10868190D02*
X13904524Y-10868190D01*
X13904524Y-10868190D02*
X13923572Y-10877714D01*
X13923572Y-10877714D02*
X13933096Y-10887238D01*
X13933096Y-10887238D02*
X13942619Y-10906286D01*
X13942619Y-10906286D02*
X13942619Y-10963429D01*
X13942619Y-10963429D02*
X13933096Y-10982476D01*
X13933096Y-10982476D02*
X13923572Y-10992000D01*
X13923572Y-10992000D02*
X13904524Y-11001524D01*
X13904524Y-11001524D02*
X13875953Y-11001524D01*
X14056905Y-11001524D02*
X14037857Y-10992000D01*
X14037857Y-10992000D02*
X14028334Y-10972952D01*
X14028334Y-10972952D02*
X14028334Y-10801524D01*
X14209286Y-10992000D02*
X14190238Y-11001524D01*
X14190238Y-11001524D02*
X14152143Y-11001524D01*
X14152143Y-11001524D02*
X14133096Y-10992000D01*
X14133096Y-10992000D02*
X14123572Y-10972952D01*
X14123572Y-10972952D02*
X14123572Y-10896762D01*
X14123572Y-10896762D02*
X14133096Y-10877714D01*
X14133096Y-10877714D02*
X14152143Y-10868190D01*
X14152143Y-10868190D02*
X14190238Y-10868190D01*
X14190238Y-10868190D02*
X14209286Y-10877714D01*
X14209286Y-10877714D02*
X14218810Y-10896762D01*
X14218810Y-10896762D02*
X14218810Y-10915810D01*
X14218810Y-10915810D02*
X14123572Y-10934857D01*
X14295000Y-10992000D02*
X14314048Y-11001524D01*
X14314048Y-11001524D02*
X14352143Y-11001524D01*
X14352143Y-11001524D02*
X14371191Y-10992000D01*
X14371191Y-10992000D02*
X14380715Y-10972952D01*
X14380715Y-10972952D02*
X14380715Y-10963429D01*
X14380715Y-10963429D02*
X14371191Y-10944381D01*
X14371191Y-10944381D02*
X14352143Y-10934857D01*
X14352143Y-10934857D02*
X14323572Y-10934857D01*
X14323572Y-10934857D02*
X14304524Y-10925333D01*
X14304524Y-10925333D02*
X14295000Y-10906286D01*
X14295000Y-10906286D02*
X14295000Y-10896762D01*
X14295000Y-10896762D02*
X14304524Y-10877714D01*
X14304524Y-10877714D02*
X14323572Y-10868190D01*
X14323572Y-10868190D02*
X14352143Y-10868190D01*
X14352143Y-10868190D02*
X14371191Y-10877714D01*
X14447381Y-11077714D02*
X14456905Y-11068190D01*
X14456905Y-11068190D02*
X14475953Y-11039619D01*
X14475953Y-11039619D02*
X14485477Y-11020571D01*
X14485477Y-11020571D02*
X14495000Y-10992000D01*
X14495000Y-10992000D02*
X14504524Y-10944381D01*
X14504524Y-10944381D02*
X14504524Y-10906286D01*
X14504524Y-10906286D02*
X14495000Y-10858667D01*
X14495000Y-10858667D02*
X14485477Y-10830095D01*
X14485477Y-10830095D02*
X14475953Y-10811048D01*
X14475953Y-10811048D02*
X14456905Y-10782476D01*
X14456905Y-10782476D02*
X14447381Y-10772952D01*
D10*
X9445000Y-11123000D02*
X9445000Y-11223000D01*
X9395000Y-11173000D02*
X9495000Y-11173000D01*
D11*
X9847381Y-11265524D02*
X9733095Y-11265524D01*
X9790238Y-11265524D02*
X9790238Y-11065524D01*
X9790238Y-11065524D02*
X9771190Y-11094095D01*
X9771190Y-11094095D02*
X9752143Y-11113143D01*
X9752143Y-11113143D02*
X9733095Y-11122667D01*
X9933095Y-11246476D02*
X9942619Y-11256000D01*
X9942619Y-11256000D02*
X9933095Y-11265524D01*
X9933095Y-11265524D02*
X9923571Y-11256000D01*
X9923571Y-11256000D02*
X9933095Y-11246476D01*
X9933095Y-11246476D02*
X9933095Y-11265524D01*
X10066429Y-11065524D02*
X10085476Y-11065524D01*
X10085476Y-11065524D02*
X10104524Y-11075048D01*
X10104524Y-11075048D02*
X10114048Y-11084571D01*
X10114048Y-11084571D02*
X10123571Y-11103619D01*
X10123571Y-11103619D02*
X10133095Y-11141714D01*
X10133095Y-11141714D02*
X10133095Y-11189333D01*
X10133095Y-11189333D02*
X10123571Y-11227428D01*
X10123571Y-11227428D02*
X10114048Y-11246476D01*
X10114048Y-11246476D02*
X10104524Y-11256000D01*
X10104524Y-11256000D02*
X10085476Y-11265524D01*
X10085476Y-11265524D02*
X10066429Y-11265524D01*
X10066429Y-11265524D02*
X10047381Y-11256000D01*
X10047381Y-11256000D02*
X10037857Y-11246476D01*
X10037857Y-11246476D02*
X10028333Y-11227428D01*
X10028333Y-11227428D02*
X10018810Y-11189333D01*
X10018810Y-11189333D02*
X10018810Y-11141714D01*
X10018810Y-11141714D02*
X10028333Y-11103619D01*
X10028333Y-11103619D02*
X10037857Y-11084571D01*
X10037857Y-11084571D02*
X10047381Y-11075048D01*
X10047381Y-11075048D02*
X10066429Y-11065524D01*
X10256905Y-11065524D02*
X10275952Y-11065524D01*
X10275952Y-11065524D02*
X10295000Y-11075048D01*
X10295000Y-11075048D02*
X10304524Y-11084571D01*
X10304524Y-11084571D02*
X10314048Y-11103619D01*
X10314048Y-11103619D02*
X10323571Y-11141714D01*
X10323571Y-11141714D02*
X10323571Y-11189333D01*
X10323571Y-11189333D02*
X10314048Y-11227428D01*
X10314048Y-11227428D02*
X10304524Y-11246476D01*
X10304524Y-11246476D02*
X10295000Y-11256000D01*
X10295000Y-11256000D02*
X10275952Y-11265524D01*
X10275952Y-11265524D02*
X10256905Y-11265524D01*
X10256905Y-11265524D02*
X10237857Y-11256000D01*
X10237857Y-11256000D02*
X10228333Y-11246476D01*
X10228333Y-11246476D02*
X10218810Y-11227428D01*
X10218810Y-11227428D02*
X10209286Y-11189333D01*
X10209286Y-11189333D02*
X10209286Y-11141714D01*
X10209286Y-11141714D02*
X10218810Y-11103619D01*
X10218810Y-11103619D02*
X10228333Y-11084571D01*
X10228333Y-11084571D02*
X10237857Y-11075048D01*
X10237857Y-11075048D02*
X10256905Y-11065524D01*
X10447381Y-11065524D02*
X10466429Y-11065524D01*
X10466429Y-11065524D02*
X10485476Y-11075048D01*
X10485476Y-11075048D02*
X10495000Y-11084571D01*
X10495000Y-11084571D02*
X10504524Y-11103619D01*
X10504524Y-11103619D02*
X10514048Y-11141714D01*
X10514048Y-11141714D02*
X10514048Y-11189333D01*
X10514048Y-11189333D02*
X10504524Y-11227428D01*
X10504524Y-11227428D02*
X10495000Y-11246476D01*
X10495000Y-11246476D02*
X10485476Y-11256000D01*
X10485476Y-11256000D02*
X10466429Y-11265524D01*
X10466429Y-11265524D02*
X10447381Y-11265524D01*
X10447381Y-11265524D02*
X10428333Y-11256000D01*
X10428333Y-11256000D02*
X10418810Y-11246476D01*
X10418810Y-11246476D02*
X10409286Y-11227428D01*
X10409286Y-11227428D02*
X10399762Y-11189333D01*
X10399762Y-11189333D02*
X10399762Y-11141714D01*
X10399762Y-11141714D02*
X10409286Y-11103619D01*
X10409286Y-11103619D02*
X10418810Y-11084571D01*
X10418810Y-11084571D02*
X10428333Y-11075048D01*
X10428333Y-11075048D02*
X10447381Y-11065524D01*
X10599762Y-11265524D02*
X10599762Y-11132190D01*
X10599762Y-11151238D02*
X10609286Y-11141714D01*
X10609286Y-11141714D02*
X10628333Y-11132190D01*
X10628333Y-11132190D02*
X10656905Y-11132190D01*
X10656905Y-11132190D02*
X10675952Y-11141714D01*
X10675952Y-11141714D02*
X10685476Y-11160762D01*
X10685476Y-11160762D02*
X10685476Y-11265524D01*
X10685476Y-11160762D02*
X10695000Y-11141714D01*
X10695000Y-11141714D02*
X10714048Y-11132190D01*
X10714048Y-11132190D02*
X10742619Y-11132190D01*
X10742619Y-11132190D02*
X10761667Y-11141714D01*
X10761667Y-11141714D02*
X10771191Y-11160762D01*
X10771191Y-11160762D02*
X10771191Y-11265524D01*
X10866429Y-11265524D02*
X10866429Y-11132190D01*
X10866429Y-11151238D02*
X10875952Y-11141714D01*
X10875952Y-11141714D02*
X10895000Y-11132190D01*
X10895000Y-11132190D02*
X10923572Y-11132190D01*
X10923572Y-11132190D02*
X10942619Y-11141714D01*
X10942619Y-11141714D02*
X10952143Y-11160762D01*
X10952143Y-11160762D02*
X10952143Y-11265524D01*
X10952143Y-11160762D02*
X10961667Y-11141714D01*
X10961667Y-11141714D02*
X10980714Y-11132190D01*
X10980714Y-11132190D02*
X11009286Y-11132190D01*
X11009286Y-11132190D02*
X11028333Y-11141714D01*
X11028333Y-11141714D02*
X11037857Y-11160762D01*
X11037857Y-11160762D02*
X11037857Y-11265524D01*
X11428333Y-11056000D02*
X11256905Y-11313143D01*
X11685476Y-11065524D02*
X11704524Y-11065524D01*
X11704524Y-11065524D02*
X11723572Y-11075048D01*
X11723572Y-11075048D02*
X11733095Y-11084571D01*
X11733095Y-11084571D02*
X11742619Y-11103619D01*
X11742619Y-11103619D02*
X11752143Y-11141714D01*
X11752143Y-11141714D02*
X11752143Y-11189333D01*
X11752143Y-11189333D02*
X11742619Y-11227428D01*
X11742619Y-11227428D02*
X11733095Y-11246476D01*
X11733095Y-11246476D02*
X11723572Y-11256000D01*
X11723572Y-11256000D02*
X11704524Y-11265524D01*
X11704524Y-11265524D02*
X11685476Y-11265524D01*
X11685476Y-11265524D02*
X11666429Y-11256000D01*
X11666429Y-11256000D02*
X11656905Y-11246476D01*
X11656905Y-11246476D02*
X11647381Y-11227428D01*
X11647381Y-11227428D02*
X11637857Y-11189333D01*
X11637857Y-11189333D02*
X11637857Y-11141714D01*
X11637857Y-11141714D02*
X11647381Y-11103619D01*
X11647381Y-11103619D02*
X11656905Y-11084571D01*
X11656905Y-11084571D02*
X11666429Y-11075048D01*
X11666429Y-11075048D02*
X11685476Y-11065524D01*
X11837857Y-11246476D02*
X11847381Y-11256000D01*
X11847381Y-11256000D02*
X11837857Y-11265524D01*
X11837857Y-11265524D02*
X11828333Y-11256000D01*
X11828333Y-11256000D02*
X11837857Y-11246476D01*
X11837857Y-11246476D02*
X11837857Y-11265524D01*
X11971191Y-11065524D02*
X11990238Y-11065524D01*
X11990238Y-11065524D02*
X12009286Y-11075048D01*
X12009286Y-11075048D02*
X12018810Y-11084571D01*
X12018810Y-11084571D02*
X12028333Y-11103619D01*
X12028333Y-11103619D02*
X12037857Y-11141714D01*
X12037857Y-11141714D02*
X12037857Y-11189333D01*
X12037857Y-11189333D02*
X12028333Y-11227428D01*
X12028333Y-11227428D02*
X12018810Y-11246476D01*
X12018810Y-11246476D02*
X12009286Y-11256000D01*
X12009286Y-11256000D02*
X11990238Y-11265524D01*
X11990238Y-11265524D02*
X11971191Y-11265524D01*
X11971191Y-11265524D02*
X11952143Y-11256000D01*
X11952143Y-11256000D02*
X11942619Y-11246476D01*
X11942619Y-11246476D02*
X11933095Y-11227428D01*
X11933095Y-11227428D02*
X11923572Y-11189333D01*
X11923572Y-11189333D02*
X11923572Y-11141714D01*
X11923572Y-11141714D02*
X11933095Y-11103619D01*
X11933095Y-11103619D02*
X11942619Y-11084571D01*
X11942619Y-11084571D02*
X11952143Y-11075048D01*
X11952143Y-11075048D02*
X11971191Y-11065524D01*
X12104524Y-11065524D02*
X12228333Y-11065524D01*
X12228333Y-11065524D02*
X12161667Y-11141714D01*
X12161667Y-11141714D02*
X12190238Y-11141714D01*
X12190238Y-11141714D02*
X12209286Y-11151238D01*
X12209286Y-11151238D02*
X12218810Y-11160762D01*
X12218810Y-11160762D02*
X12228333Y-11179810D01*
X12228333Y-11179810D02*
X12228333Y-11227428D01*
X12228333Y-11227428D02*
X12218810Y-11246476D01*
X12218810Y-11246476D02*
X12209286Y-11256000D01*
X12209286Y-11256000D02*
X12190238Y-11265524D01*
X12190238Y-11265524D02*
X12133095Y-11265524D01*
X12133095Y-11265524D02*
X12114048Y-11256000D01*
X12114048Y-11256000D02*
X12104524Y-11246476D01*
X12323572Y-11265524D02*
X12361667Y-11265524D01*
X12361667Y-11265524D02*
X12380714Y-11256000D01*
X12380714Y-11256000D02*
X12390238Y-11246476D01*
X12390238Y-11246476D02*
X12409286Y-11217905D01*
X12409286Y-11217905D02*
X12418810Y-11179810D01*
X12418810Y-11179810D02*
X12418810Y-11103619D01*
X12418810Y-11103619D02*
X12409286Y-11084571D01*
X12409286Y-11084571D02*
X12399762Y-11075048D01*
X12399762Y-11075048D02*
X12380714Y-11065524D01*
X12380714Y-11065524D02*
X12342619Y-11065524D01*
X12342619Y-11065524D02*
X12323572Y-11075048D01*
X12323572Y-11075048D02*
X12314048Y-11084571D01*
X12314048Y-11084571D02*
X12304524Y-11103619D01*
X12304524Y-11103619D02*
X12304524Y-11151238D01*
X12304524Y-11151238D02*
X12314048Y-11170286D01*
X12314048Y-11170286D02*
X12323572Y-11179810D01*
X12323572Y-11179810D02*
X12342619Y-11189333D01*
X12342619Y-11189333D02*
X12380714Y-11189333D01*
X12380714Y-11189333D02*
X12399762Y-11179810D01*
X12399762Y-11179810D02*
X12409286Y-11170286D01*
X12409286Y-11170286D02*
X12418810Y-11151238D01*
X12590238Y-11132190D02*
X12590238Y-11265524D01*
X12542619Y-11056000D02*
X12495000Y-11198857D01*
X12495000Y-11198857D02*
X12618810Y-11198857D01*
X12685476Y-11065524D02*
X12685476Y-11103619D01*
X12761667Y-11065524D02*
X12761667Y-11103619D01*
X13056905Y-11341714D02*
X13047381Y-11332190D01*
X13047381Y-11332190D02*
X13028334Y-11303619D01*
X13028334Y-11303619D02*
X13018810Y-11284571D01*
X13018810Y-11284571D02*
X13009286Y-11256000D01*
X13009286Y-11256000D02*
X12999762Y-11208381D01*
X12999762Y-11208381D02*
X12999762Y-11170286D01*
X12999762Y-11170286D02*
X13009286Y-11122667D01*
X13009286Y-11122667D02*
X13018810Y-11094095D01*
X13018810Y-11094095D02*
X13028334Y-11075048D01*
X13028334Y-11075048D02*
X13047381Y-11046476D01*
X13047381Y-11046476D02*
X13056905Y-11036952D01*
X13123572Y-11084571D02*
X13133095Y-11075048D01*
X13133095Y-11075048D02*
X13152143Y-11065524D01*
X13152143Y-11065524D02*
X13199762Y-11065524D01*
X13199762Y-11065524D02*
X13218810Y-11075048D01*
X13218810Y-11075048D02*
X13228334Y-11084571D01*
X13228334Y-11084571D02*
X13237857Y-11103619D01*
X13237857Y-11103619D02*
X13237857Y-11122667D01*
X13237857Y-11122667D02*
X13228334Y-11151238D01*
X13228334Y-11151238D02*
X13114048Y-11265524D01*
X13114048Y-11265524D02*
X13237857Y-11265524D01*
X13409286Y-11132190D02*
X13409286Y-11265524D01*
X13361667Y-11056000D02*
X13314048Y-11198857D01*
X13314048Y-11198857D02*
X13437857Y-11198857D01*
X13666429Y-11265524D02*
X13666429Y-11065524D01*
X13752143Y-11265524D02*
X13752143Y-11160762D01*
X13752143Y-11160762D02*
X13742619Y-11141714D01*
X13742619Y-11141714D02*
X13723572Y-11132190D01*
X13723572Y-11132190D02*
X13695000Y-11132190D01*
X13695000Y-11132190D02*
X13675953Y-11141714D01*
X13675953Y-11141714D02*
X13666429Y-11151238D01*
X13875953Y-11265524D02*
X13856905Y-11256000D01*
X13856905Y-11256000D02*
X13847381Y-11246476D01*
X13847381Y-11246476D02*
X13837857Y-11227428D01*
X13837857Y-11227428D02*
X13837857Y-11170286D01*
X13837857Y-11170286D02*
X13847381Y-11151238D01*
X13847381Y-11151238D02*
X13856905Y-11141714D01*
X13856905Y-11141714D02*
X13875953Y-11132190D01*
X13875953Y-11132190D02*
X13904524Y-11132190D01*
X13904524Y-11132190D02*
X13923572Y-11141714D01*
X13923572Y-11141714D02*
X13933096Y-11151238D01*
X13933096Y-11151238D02*
X13942619Y-11170286D01*
X13942619Y-11170286D02*
X13942619Y-11227428D01*
X13942619Y-11227428D02*
X13933096Y-11246476D01*
X13933096Y-11246476D02*
X13923572Y-11256000D01*
X13923572Y-11256000D02*
X13904524Y-11265524D01*
X13904524Y-11265524D02*
X13875953Y-11265524D01*
X14056905Y-11265524D02*
X14037857Y-11256000D01*
X14037857Y-11256000D02*
X14028334Y-11236952D01*
X14028334Y-11236952D02*
X14028334Y-11065524D01*
X14209286Y-11256000D02*
X14190238Y-11265524D01*
X14190238Y-11265524D02*
X14152143Y-11265524D01*
X14152143Y-11265524D02*
X14133096Y-11256000D01*
X14133096Y-11256000D02*
X14123572Y-11236952D01*
X14123572Y-11236952D02*
X14123572Y-11160762D01*
X14123572Y-11160762D02*
X14133096Y-11141714D01*
X14133096Y-11141714D02*
X14152143Y-11132190D01*
X14152143Y-11132190D02*
X14190238Y-11132190D01*
X14190238Y-11132190D02*
X14209286Y-11141714D01*
X14209286Y-11141714D02*
X14218810Y-11160762D01*
X14218810Y-11160762D02*
X14218810Y-11179810D01*
X14218810Y-11179810D02*
X14123572Y-11198857D01*
X14295000Y-11256000D02*
X14314048Y-11265524D01*
X14314048Y-11265524D02*
X14352143Y-11265524D01*
X14352143Y-11265524D02*
X14371191Y-11256000D01*
X14371191Y-11256000D02*
X14380715Y-11236952D01*
X14380715Y-11236952D02*
X14380715Y-11227428D01*
X14380715Y-11227428D02*
X14371191Y-11208381D01*
X14371191Y-11208381D02*
X14352143Y-11198857D01*
X14352143Y-11198857D02*
X14323572Y-11198857D01*
X14323572Y-11198857D02*
X14304524Y-11189333D01*
X14304524Y-11189333D02*
X14295000Y-11170286D01*
X14295000Y-11170286D02*
X14295000Y-11160762D01*
X14295000Y-11160762D02*
X14304524Y-11141714D01*
X14304524Y-11141714D02*
X14323572Y-11132190D01*
X14323572Y-11132190D02*
X14352143Y-11132190D01*
X14352143Y-11132190D02*
X14371191Y-11141714D01*
X14447381Y-11341714D02*
X14456905Y-11332190D01*
X14456905Y-11332190D02*
X14475953Y-11303619D01*
X14475953Y-11303619D02*
X14485477Y-11284571D01*
X14485477Y-11284571D02*
X14495000Y-11256000D01*
X14495000Y-11256000D02*
X14504524Y-11208381D01*
X14504524Y-11208381D02*
X14504524Y-11170286D01*
X14504524Y-11170286D02*
X14495000Y-11122667D01*
X14495000Y-11122667D02*
X14485477Y-11094095D01*
X14485477Y-11094095D02*
X14475953Y-11075048D01*
X14475953Y-11075048D02*
X14456905Y-11046476D01*
X14456905Y-11046476D02*
X14447381Y-11036952D01*
D14*
X9478891Y-11475891D02*
X9478891Y-11398109D01*
X9401109Y-11398109D01*
X9401109Y-11475891D01*
X9478891Y-11475891D01*
D11*
X9847381Y-11529524D02*
X9733095Y-11529524D01*
X9790238Y-11529524D02*
X9790238Y-11329524D01*
X9790238Y-11329524D02*
X9771190Y-11358095D01*
X9771190Y-11358095D02*
X9752143Y-11377143D01*
X9752143Y-11377143D02*
X9733095Y-11386667D01*
X9933095Y-11510476D02*
X9942619Y-11520000D01*
X9942619Y-11520000D02*
X9933095Y-11529524D01*
X9933095Y-11529524D02*
X9923571Y-11520000D01*
X9923571Y-11520000D02*
X9933095Y-11510476D01*
X9933095Y-11510476D02*
X9933095Y-11529524D01*
X10133095Y-11529524D02*
X10018810Y-11529524D01*
X10075952Y-11529524D02*
X10075952Y-11329524D01*
X10075952Y-11329524D02*
X10056905Y-11358095D01*
X10056905Y-11358095D02*
X10037857Y-11377143D01*
X10037857Y-11377143D02*
X10018810Y-11386667D01*
X10256905Y-11329524D02*
X10275952Y-11329524D01*
X10275952Y-11329524D02*
X10295000Y-11339048D01*
X10295000Y-11339048D02*
X10304524Y-11348571D01*
X10304524Y-11348571D02*
X10314048Y-11367619D01*
X10314048Y-11367619D02*
X10323571Y-11405714D01*
X10323571Y-11405714D02*
X10323571Y-11453333D01*
X10323571Y-11453333D02*
X10314048Y-11491428D01*
X10314048Y-11491428D02*
X10304524Y-11510476D01*
X10304524Y-11510476D02*
X10295000Y-11520000D01*
X10295000Y-11520000D02*
X10275952Y-11529524D01*
X10275952Y-11529524D02*
X10256905Y-11529524D01*
X10256905Y-11529524D02*
X10237857Y-11520000D01*
X10237857Y-11520000D02*
X10228333Y-11510476D01*
X10228333Y-11510476D02*
X10218810Y-11491428D01*
X10218810Y-11491428D02*
X10209286Y-11453333D01*
X10209286Y-11453333D02*
X10209286Y-11405714D01*
X10209286Y-11405714D02*
X10218810Y-11367619D01*
X10218810Y-11367619D02*
X10228333Y-11348571D01*
X10228333Y-11348571D02*
X10237857Y-11339048D01*
X10237857Y-11339048D02*
X10256905Y-11329524D01*
X10447381Y-11329524D02*
X10466429Y-11329524D01*
X10466429Y-11329524D02*
X10485476Y-11339048D01*
X10485476Y-11339048D02*
X10495000Y-11348571D01*
X10495000Y-11348571D02*
X10504524Y-11367619D01*
X10504524Y-11367619D02*
X10514048Y-11405714D01*
X10514048Y-11405714D02*
X10514048Y-11453333D01*
X10514048Y-11453333D02*
X10504524Y-11491428D01*
X10504524Y-11491428D02*
X10495000Y-11510476D01*
X10495000Y-11510476D02*
X10485476Y-11520000D01*
X10485476Y-11520000D02*
X10466429Y-11529524D01*
X10466429Y-11529524D02*
X10447381Y-11529524D01*
X10447381Y-11529524D02*
X10428333Y-11520000D01*
X10428333Y-11520000D02*
X10418810Y-11510476D01*
X10418810Y-11510476D02*
X10409286Y-11491428D01*
X10409286Y-11491428D02*
X10399762Y-11453333D01*
X10399762Y-11453333D02*
X10399762Y-11405714D01*
X10399762Y-11405714D02*
X10409286Y-11367619D01*
X10409286Y-11367619D02*
X10418810Y-11348571D01*
X10418810Y-11348571D02*
X10428333Y-11339048D01*
X10428333Y-11339048D02*
X10447381Y-11329524D01*
X10599762Y-11529524D02*
X10599762Y-11396190D01*
X10599762Y-11415238D02*
X10609286Y-11405714D01*
X10609286Y-11405714D02*
X10628333Y-11396190D01*
X10628333Y-11396190D02*
X10656905Y-11396190D01*
X10656905Y-11396190D02*
X10675952Y-11405714D01*
X10675952Y-11405714D02*
X10685476Y-11424762D01*
X10685476Y-11424762D02*
X10685476Y-11529524D01*
X10685476Y-11424762D02*
X10695000Y-11405714D01*
X10695000Y-11405714D02*
X10714048Y-11396190D01*
X10714048Y-11396190D02*
X10742619Y-11396190D01*
X10742619Y-11396190D02*
X10761667Y-11405714D01*
X10761667Y-11405714D02*
X10771191Y-11424762D01*
X10771191Y-11424762D02*
X10771191Y-11529524D01*
X10866429Y-11529524D02*
X10866429Y-11396190D01*
X10866429Y-11415238D02*
X10875952Y-11405714D01*
X10875952Y-11405714D02*
X10895000Y-11396190D01*
X10895000Y-11396190D02*
X10923572Y-11396190D01*
X10923572Y-11396190D02*
X10942619Y-11405714D01*
X10942619Y-11405714D02*
X10952143Y-11424762D01*
X10952143Y-11424762D02*
X10952143Y-11529524D01*
X10952143Y-11424762D02*
X10961667Y-11405714D01*
X10961667Y-11405714D02*
X10980714Y-11396190D01*
X10980714Y-11396190D02*
X11009286Y-11396190D01*
X11009286Y-11396190D02*
X11028333Y-11405714D01*
X11028333Y-11405714D02*
X11037857Y-11424762D01*
X11037857Y-11424762D02*
X11037857Y-11529524D01*
X11428333Y-11320000D02*
X11256905Y-11577143D01*
X11685476Y-11329524D02*
X11704524Y-11329524D01*
X11704524Y-11329524D02*
X11723572Y-11339048D01*
X11723572Y-11339048D02*
X11733095Y-11348571D01*
X11733095Y-11348571D02*
X11742619Y-11367619D01*
X11742619Y-11367619D02*
X11752143Y-11405714D01*
X11752143Y-11405714D02*
X11752143Y-11453333D01*
X11752143Y-11453333D02*
X11742619Y-11491428D01*
X11742619Y-11491428D02*
X11733095Y-11510476D01*
X11733095Y-11510476D02*
X11723572Y-11520000D01*
X11723572Y-11520000D02*
X11704524Y-11529524D01*
X11704524Y-11529524D02*
X11685476Y-11529524D01*
X11685476Y-11529524D02*
X11666429Y-11520000D01*
X11666429Y-11520000D02*
X11656905Y-11510476D01*
X11656905Y-11510476D02*
X11647381Y-11491428D01*
X11647381Y-11491428D02*
X11637857Y-11453333D01*
X11637857Y-11453333D02*
X11637857Y-11405714D01*
X11637857Y-11405714D02*
X11647381Y-11367619D01*
X11647381Y-11367619D02*
X11656905Y-11348571D01*
X11656905Y-11348571D02*
X11666429Y-11339048D01*
X11666429Y-11339048D02*
X11685476Y-11329524D01*
X11837857Y-11510476D02*
X11847381Y-11520000D01*
X11847381Y-11520000D02*
X11837857Y-11529524D01*
X11837857Y-11529524D02*
X11828333Y-11520000D01*
X11828333Y-11520000D02*
X11837857Y-11510476D01*
X11837857Y-11510476D02*
X11837857Y-11529524D01*
X11971191Y-11329524D02*
X11990238Y-11329524D01*
X11990238Y-11329524D02*
X12009286Y-11339048D01*
X12009286Y-11339048D02*
X12018810Y-11348571D01*
X12018810Y-11348571D02*
X12028333Y-11367619D01*
X12028333Y-11367619D02*
X12037857Y-11405714D01*
X12037857Y-11405714D02*
X12037857Y-11453333D01*
X12037857Y-11453333D02*
X12028333Y-11491428D01*
X12028333Y-11491428D02*
X12018810Y-11510476D01*
X12018810Y-11510476D02*
X12009286Y-11520000D01*
X12009286Y-11520000D02*
X11990238Y-11529524D01*
X11990238Y-11529524D02*
X11971191Y-11529524D01*
X11971191Y-11529524D02*
X11952143Y-11520000D01*
X11952143Y-11520000D02*
X11942619Y-11510476D01*
X11942619Y-11510476D02*
X11933095Y-11491428D01*
X11933095Y-11491428D02*
X11923572Y-11453333D01*
X11923572Y-11453333D02*
X11923572Y-11405714D01*
X11923572Y-11405714D02*
X11933095Y-11367619D01*
X11933095Y-11367619D02*
X11942619Y-11348571D01*
X11942619Y-11348571D02*
X11952143Y-11339048D01*
X11952143Y-11339048D02*
X11971191Y-11329524D01*
X12209286Y-11396190D02*
X12209286Y-11529524D01*
X12161667Y-11320000D02*
X12114048Y-11462857D01*
X12114048Y-11462857D02*
X12237857Y-11462857D01*
X12295000Y-11329524D02*
X12418810Y-11329524D01*
X12418810Y-11329524D02*
X12352143Y-11405714D01*
X12352143Y-11405714D02*
X12380714Y-11405714D01*
X12380714Y-11405714D02*
X12399762Y-11415238D01*
X12399762Y-11415238D02*
X12409286Y-11424762D01*
X12409286Y-11424762D02*
X12418810Y-11443809D01*
X12418810Y-11443809D02*
X12418810Y-11491428D01*
X12418810Y-11491428D02*
X12409286Y-11510476D01*
X12409286Y-11510476D02*
X12399762Y-11520000D01*
X12399762Y-11520000D02*
X12380714Y-11529524D01*
X12380714Y-11529524D02*
X12323572Y-11529524D01*
X12323572Y-11529524D02*
X12304524Y-11520000D01*
X12304524Y-11520000D02*
X12295000Y-11510476D01*
X12485476Y-11329524D02*
X12609286Y-11329524D01*
X12609286Y-11329524D02*
X12542619Y-11405714D01*
X12542619Y-11405714D02*
X12571191Y-11405714D01*
X12571191Y-11405714D02*
X12590238Y-11415238D01*
X12590238Y-11415238D02*
X12599762Y-11424762D01*
X12599762Y-11424762D02*
X12609286Y-11443809D01*
X12609286Y-11443809D02*
X12609286Y-11491428D01*
X12609286Y-11491428D02*
X12599762Y-11510476D01*
X12599762Y-11510476D02*
X12590238Y-11520000D01*
X12590238Y-11520000D02*
X12571191Y-11529524D01*
X12571191Y-11529524D02*
X12514048Y-11529524D01*
X12514048Y-11529524D02*
X12495000Y-11520000D01*
X12495000Y-11520000D02*
X12485476Y-11510476D01*
X12685476Y-11329524D02*
X12685476Y-11367619D01*
X12761667Y-11329524D02*
X12761667Y-11367619D01*
X13056905Y-11605714D02*
X13047381Y-11596190D01*
X13047381Y-11596190D02*
X13028334Y-11567619D01*
X13028334Y-11567619D02*
X13018810Y-11548571D01*
X13018810Y-11548571D02*
X13009286Y-11520000D01*
X13009286Y-11520000D02*
X12999762Y-11472381D01*
X12999762Y-11472381D02*
X12999762Y-11434286D01*
X12999762Y-11434286D02*
X13009286Y-11386667D01*
X13009286Y-11386667D02*
X13018810Y-11358095D01*
X13018810Y-11358095D02*
X13028334Y-11339048D01*
X13028334Y-11339048D02*
X13047381Y-11310476D01*
X13047381Y-11310476D02*
X13056905Y-11300952D01*
X13161667Y-11415238D02*
X13142619Y-11405714D01*
X13142619Y-11405714D02*
X13133095Y-11396190D01*
X13133095Y-11396190D02*
X13123572Y-11377143D01*
X13123572Y-11377143D02*
X13123572Y-11367619D01*
X13123572Y-11367619D02*
X13133095Y-11348571D01*
X13133095Y-11348571D02*
X13142619Y-11339048D01*
X13142619Y-11339048D02*
X13161667Y-11329524D01*
X13161667Y-11329524D02*
X13199762Y-11329524D01*
X13199762Y-11329524D02*
X13218810Y-11339048D01*
X13218810Y-11339048D02*
X13228334Y-11348571D01*
X13228334Y-11348571D02*
X13237857Y-11367619D01*
X13237857Y-11367619D02*
X13237857Y-11377143D01*
X13237857Y-11377143D02*
X13228334Y-11396190D01*
X13228334Y-11396190D02*
X13218810Y-11405714D01*
X13218810Y-11405714D02*
X13199762Y-11415238D01*
X13199762Y-11415238D02*
X13161667Y-11415238D01*
X13161667Y-11415238D02*
X13142619Y-11424762D01*
X13142619Y-11424762D02*
X13133095Y-11434286D01*
X13133095Y-11434286D02*
X13123572Y-11453333D01*
X13123572Y-11453333D02*
X13123572Y-11491428D01*
X13123572Y-11491428D02*
X13133095Y-11510476D01*
X13133095Y-11510476D02*
X13142619Y-11520000D01*
X13142619Y-11520000D02*
X13161667Y-11529524D01*
X13161667Y-11529524D02*
X13199762Y-11529524D01*
X13199762Y-11529524D02*
X13218810Y-11520000D01*
X13218810Y-11520000D02*
X13228334Y-11510476D01*
X13228334Y-11510476D02*
X13237857Y-11491428D01*
X13237857Y-11491428D02*
X13237857Y-11453333D01*
X13237857Y-11453333D02*
X13228334Y-11434286D01*
X13228334Y-11434286D02*
X13218810Y-11424762D01*
X13218810Y-11424762D02*
X13199762Y-11415238D01*
X13475953Y-11529524D02*
X13475953Y-11329524D01*
X13561667Y-11529524D02*
X13561667Y-11424762D01*
X13561667Y-11424762D02*
X13552143Y-11405714D01*
X13552143Y-11405714D02*
X13533096Y-11396190D01*
X13533096Y-11396190D02*
X13504524Y-11396190D01*
X13504524Y-11396190D02*
X13485476Y-11405714D01*
X13485476Y-11405714D02*
X13475953Y-11415238D01*
X13685476Y-11529524D02*
X13666429Y-11520000D01*
X13666429Y-11520000D02*
X13656905Y-11510476D01*
X13656905Y-11510476D02*
X13647381Y-11491428D01*
X13647381Y-11491428D02*
X13647381Y-11434286D01*
X13647381Y-11434286D02*
X13656905Y-11415238D01*
X13656905Y-11415238D02*
X13666429Y-11405714D01*
X13666429Y-11405714D02*
X13685476Y-11396190D01*
X13685476Y-11396190D02*
X13714048Y-11396190D01*
X13714048Y-11396190D02*
X13733096Y-11405714D01*
X13733096Y-11405714D02*
X13742619Y-11415238D01*
X13742619Y-11415238D02*
X13752143Y-11434286D01*
X13752143Y-11434286D02*
X13752143Y-11491428D01*
X13752143Y-11491428D02*
X13742619Y-11510476D01*
X13742619Y-11510476D02*
X13733096Y-11520000D01*
X13733096Y-11520000D02*
X13714048Y-11529524D01*
X13714048Y-11529524D02*
X13685476Y-11529524D01*
X13866429Y-11529524D02*
X13847381Y-11520000D01*
X13847381Y-11520000D02*
X13837857Y-11500952D01*
X13837857Y-11500952D02*
X13837857Y-11329524D01*
X14018810Y-11520000D02*
X13999762Y-11529524D01*
X13999762Y-11529524D02*
X13961667Y-11529524D01*
X13961667Y-11529524D02*
X13942619Y-11520000D01*
X13942619Y-11520000D02*
X13933096Y-11500952D01*
X13933096Y-11500952D02*
X13933096Y-11424762D01*
X13933096Y-11424762D02*
X13942619Y-11405714D01*
X13942619Y-11405714D02*
X13961667Y-11396190D01*
X13961667Y-11396190D02*
X13999762Y-11396190D01*
X13999762Y-11396190D02*
X14018810Y-11405714D01*
X14018810Y-11405714D02*
X14028334Y-11424762D01*
X14028334Y-11424762D02*
X14028334Y-11443809D01*
X14028334Y-11443809D02*
X13933096Y-11462857D01*
X14104524Y-11520000D02*
X14123572Y-11529524D01*
X14123572Y-11529524D02*
X14161667Y-11529524D01*
X14161667Y-11529524D02*
X14180715Y-11520000D01*
X14180715Y-11520000D02*
X14190238Y-11500952D01*
X14190238Y-11500952D02*
X14190238Y-11491428D01*
X14190238Y-11491428D02*
X14180715Y-11472381D01*
X14180715Y-11472381D02*
X14161667Y-11462857D01*
X14161667Y-11462857D02*
X14133096Y-11462857D01*
X14133096Y-11462857D02*
X14114048Y-11453333D01*
X14114048Y-11453333D02*
X14104524Y-11434286D01*
X14104524Y-11434286D02*
X14104524Y-11424762D01*
X14104524Y-11424762D02*
X14114048Y-11405714D01*
X14114048Y-11405714D02*
X14133096Y-11396190D01*
X14133096Y-11396190D02*
X14161667Y-11396190D01*
X14161667Y-11396190D02*
X14180715Y-11405714D01*
X14256905Y-11605714D02*
X14266429Y-11596190D01*
X14266429Y-11596190D02*
X14285477Y-11567619D01*
X14285477Y-11567619D02*
X14295000Y-11548571D01*
X14295000Y-11548571D02*
X14304524Y-11520000D01*
X14304524Y-11520000D02*
X14314048Y-11472381D01*
X14314048Y-11472381D02*
X14314048Y-11434286D01*
X14314048Y-11434286D02*
X14304524Y-11386667D01*
X14304524Y-11386667D02*
X14295000Y-11358095D01*
X14295000Y-11358095D02*
X14285477Y-11339048D01*
X14285477Y-11339048D02*
X14266429Y-11310476D01*
X14266429Y-11310476D02*
X14256905Y-11300952D01*
D15*
X9430000Y-11766000D02*
X9495000Y-11701000D01*
X9430000Y-11636000D01*
X9365000Y-11701000D01*
X9430000Y-11766000D01*
D11*
X9847381Y-11793524D02*
X9733095Y-11793524D01*
X9790238Y-11793524D02*
X9790238Y-11593524D01*
X9790238Y-11593524D02*
X9771190Y-11622095D01*
X9771190Y-11622095D02*
X9752143Y-11641143D01*
X9752143Y-11641143D02*
X9733095Y-11650667D01*
X9933095Y-11774476D02*
X9942619Y-11784000D01*
X9942619Y-11784000D02*
X9933095Y-11793524D01*
X9933095Y-11793524D02*
X9923571Y-11784000D01*
X9923571Y-11784000D02*
X9933095Y-11774476D01*
X9933095Y-11774476D02*
X9933095Y-11793524D01*
X10009286Y-11593524D02*
X10133095Y-11593524D01*
X10133095Y-11593524D02*
X10066429Y-11669714D01*
X10066429Y-11669714D02*
X10095000Y-11669714D01*
X10095000Y-11669714D02*
X10114048Y-11679238D01*
X10114048Y-11679238D02*
X10123571Y-11688762D01*
X10123571Y-11688762D02*
X10133095Y-11707809D01*
X10133095Y-11707809D02*
X10133095Y-11755428D01*
X10133095Y-11755428D02*
X10123571Y-11774476D01*
X10123571Y-11774476D02*
X10114048Y-11784000D01*
X10114048Y-11784000D02*
X10095000Y-11793524D01*
X10095000Y-11793524D02*
X10037857Y-11793524D01*
X10037857Y-11793524D02*
X10018810Y-11784000D01*
X10018810Y-11784000D02*
X10009286Y-11774476D01*
X10256905Y-11593524D02*
X10275952Y-11593524D01*
X10275952Y-11593524D02*
X10295000Y-11603048D01*
X10295000Y-11603048D02*
X10304524Y-11612571D01*
X10304524Y-11612571D02*
X10314048Y-11631619D01*
X10314048Y-11631619D02*
X10323571Y-11669714D01*
X10323571Y-11669714D02*
X10323571Y-11717333D01*
X10323571Y-11717333D02*
X10314048Y-11755428D01*
X10314048Y-11755428D02*
X10304524Y-11774476D01*
X10304524Y-11774476D02*
X10295000Y-11784000D01*
X10295000Y-11784000D02*
X10275952Y-11793524D01*
X10275952Y-11793524D02*
X10256905Y-11793524D01*
X10256905Y-11793524D02*
X10237857Y-11784000D01*
X10237857Y-11784000D02*
X10228333Y-11774476D01*
X10228333Y-11774476D02*
X10218810Y-11755428D01*
X10218810Y-11755428D02*
X10209286Y-11717333D01*
X10209286Y-11717333D02*
X10209286Y-11669714D01*
X10209286Y-11669714D02*
X10218810Y-11631619D01*
X10218810Y-11631619D02*
X10228333Y-11612571D01*
X10228333Y-11612571D02*
X10237857Y-11603048D01*
X10237857Y-11603048D02*
X10256905Y-11593524D01*
X10447381Y-11593524D02*
X10466429Y-11593524D01*
X10466429Y-11593524D02*
X10485476Y-11603048D01*
X10485476Y-11603048D02*
X10495000Y-11612571D01*
X10495000Y-11612571D02*
X10504524Y-11631619D01*
X10504524Y-11631619D02*
X10514048Y-11669714D01*
X10514048Y-11669714D02*
X10514048Y-11717333D01*
X10514048Y-11717333D02*
X10504524Y-11755428D01*
X10504524Y-11755428D02*
X10495000Y-11774476D01*
X10495000Y-11774476D02*
X10485476Y-11784000D01*
X10485476Y-11784000D02*
X10466429Y-11793524D01*
X10466429Y-11793524D02*
X10447381Y-11793524D01*
X10447381Y-11793524D02*
X10428333Y-11784000D01*
X10428333Y-11784000D02*
X10418810Y-11774476D01*
X10418810Y-11774476D02*
X10409286Y-11755428D01*
X10409286Y-11755428D02*
X10399762Y-11717333D01*
X10399762Y-11717333D02*
X10399762Y-11669714D01*
X10399762Y-11669714D02*
X10409286Y-11631619D01*
X10409286Y-11631619D02*
X10418810Y-11612571D01*
X10418810Y-11612571D02*
X10428333Y-11603048D01*
X10428333Y-11603048D02*
X10447381Y-11593524D01*
X10599762Y-11793524D02*
X10599762Y-11660190D01*
X10599762Y-11679238D02*
X10609286Y-11669714D01*
X10609286Y-11669714D02*
X10628333Y-11660190D01*
X10628333Y-11660190D02*
X10656905Y-11660190D01*
X10656905Y-11660190D02*
X10675952Y-11669714D01*
X10675952Y-11669714D02*
X10685476Y-11688762D01*
X10685476Y-11688762D02*
X10685476Y-11793524D01*
X10685476Y-11688762D02*
X10695000Y-11669714D01*
X10695000Y-11669714D02*
X10714048Y-11660190D01*
X10714048Y-11660190D02*
X10742619Y-11660190D01*
X10742619Y-11660190D02*
X10761667Y-11669714D01*
X10761667Y-11669714D02*
X10771191Y-11688762D01*
X10771191Y-11688762D02*
X10771191Y-11793524D01*
X10866429Y-11793524D02*
X10866429Y-11660190D01*
X10866429Y-11679238D02*
X10875952Y-11669714D01*
X10875952Y-11669714D02*
X10895000Y-11660190D01*
X10895000Y-11660190D02*
X10923572Y-11660190D01*
X10923572Y-11660190D02*
X10942619Y-11669714D01*
X10942619Y-11669714D02*
X10952143Y-11688762D01*
X10952143Y-11688762D02*
X10952143Y-11793524D01*
X10952143Y-11688762D02*
X10961667Y-11669714D01*
X10961667Y-11669714D02*
X10980714Y-11660190D01*
X10980714Y-11660190D02*
X11009286Y-11660190D01*
X11009286Y-11660190D02*
X11028333Y-11669714D01*
X11028333Y-11669714D02*
X11037857Y-11688762D01*
X11037857Y-11688762D02*
X11037857Y-11793524D01*
X11428333Y-11584000D02*
X11256905Y-11841143D01*
X11685476Y-11593524D02*
X11704524Y-11593524D01*
X11704524Y-11593524D02*
X11723572Y-11603048D01*
X11723572Y-11603048D02*
X11733095Y-11612571D01*
X11733095Y-11612571D02*
X11742619Y-11631619D01*
X11742619Y-11631619D02*
X11752143Y-11669714D01*
X11752143Y-11669714D02*
X11752143Y-11717333D01*
X11752143Y-11717333D02*
X11742619Y-11755428D01*
X11742619Y-11755428D02*
X11733095Y-11774476D01*
X11733095Y-11774476D02*
X11723572Y-11784000D01*
X11723572Y-11784000D02*
X11704524Y-11793524D01*
X11704524Y-11793524D02*
X11685476Y-11793524D01*
X11685476Y-11793524D02*
X11666429Y-11784000D01*
X11666429Y-11784000D02*
X11656905Y-11774476D01*
X11656905Y-11774476D02*
X11647381Y-11755428D01*
X11647381Y-11755428D02*
X11637857Y-11717333D01*
X11637857Y-11717333D02*
X11637857Y-11669714D01*
X11637857Y-11669714D02*
X11647381Y-11631619D01*
X11647381Y-11631619D02*
X11656905Y-11612571D01*
X11656905Y-11612571D02*
X11666429Y-11603048D01*
X11666429Y-11603048D02*
X11685476Y-11593524D01*
X11837857Y-11774476D02*
X11847381Y-11784000D01*
X11847381Y-11784000D02*
X11837857Y-11793524D01*
X11837857Y-11793524D02*
X11828333Y-11784000D01*
X11828333Y-11784000D02*
X11837857Y-11774476D01*
X11837857Y-11774476D02*
X11837857Y-11793524D01*
X11971191Y-11593524D02*
X11990238Y-11593524D01*
X11990238Y-11593524D02*
X12009286Y-11603048D01*
X12009286Y-11603048D02*
X12018810Y-11612571D01*
X12018810Y-11612571D02*
X12028333Y-11631619D01*
X12028333Y-11631619D02*
X12037857Y-11669714D01*
X12037857Y-11669714D02*
X12037857Y-11717333D01*
X12037857Y-11717333D02*
X12028333Y-11755428D01*
X12028333Y-11755428D02*
X12018810Y-11774476D01*
X12018810Y-11774476D02*
X12009286Y-11784000D01*
X12009286Y-11784000D02*
X11990238Y-11793524D01*
X11990238Y-11793524D02*
X11971191Y-11793524D01*
X11971191Y-11793524D02*
X11952143Y-11784000D01*
X11952143Y-11784000D02*
X11942619Y-11774476D01*
X11942619Y-11774476D02*
X11933095Y-11755428D01*
X11933095Y-11755428D02*
X11923572Y-11717333D01*
X11923572Y-11717333D02*
X11923572Y-11669714D01*
X11923572Y-11669714D02*
X11933095Y-11631619D01*
X11933095Y-11631619D02*
X11942619Y-11612571D01*
X11942619Y-11612571D02*
X11952143Y-11603048D01*
X11952143Y-11603048D02*
X11971191Y-11593524D01*
X12218810Y-11593524D02*
X12123572Y-11593524D01*
X12123572Y-11593524D02*
X12114048Y-11688762D01*
X12114048Y-11688762D02*
X12123572Y-11679238D01*
X12123572Y-11679238D02*
X12142619Y-11669714D01*
X12142619Y-11669714D02*
X12190238Y-11669714D01*
X12190238Y-11669714D02*
X12209286Y-11679238D01*
X12209286Y-11679238D02*
X12218810Y-11688762D01*
X12218810Y-11688762D02*
X12228333Y-11707809D01*
X12228333Y-11707809D02*
X12228333Y-11755428D01*
X12228333Y-11755428D02*
X12218810Y-11774476D01*
X12218810Y-11774476D02*
X12209286Y-11784000D01*
X12209286Y-11784000D02*
X12190238Y-11793524D01*
X12190238Y-11793524D02*
X12142619Y-11793524D01*
X12142619Y-11793524D02*
X12123572Y-11784000D01*
X12123572Y-11784000D02*
X12114048Y-11774476D01*
X12418810Y-11793524D02*
X12304524Y-11793524D01*
X12361667Y-11793524D02*
X12361667Y-11593524D01*
X12361667Y-11593524D02*
X12342619Y-11622095D01*
X12342619Y-11622095D02*
X12323572Y-11641143D01*
X12323572Y-11641143D02*
X12304524Y-11650667D01*
X12495000Y-11612571D02*
X12504524Y-11603048D01*
X12504524Y-11603048D02*
X12523572Y-11593524D01*
X12523572Y-11593524D02*
X12571191Y-11593524D01*
X12571191Y-11593524D02*
X12590238Y-11603048D01*
X12590238Y-11603048D02*
X12599762Y-11612571D01*
X12599762Y-11612571D02*
X12609286Y-11631619D01*
X12609286Y-11631619D02*
X12609286Y-11650667D01*
X12609286Y-11650667D02*
X12599762Y-11679238D01*
X12599762Y-11679238D02*
X12485476Y-11793524D01*
X12485476Y-11793524D02*
X12609286Y-11793524D01*
X12685476Y-11593524D02*
X12685476Y-11631619D01*
X12761667Y-11593524D02*
X12761667Y-11631619D01*
X13056905Y-11869714D02*
X13047381Y-11860190D01*
X13047381Y-11860190D02*
X13028334Y-11831619D01*
X13028334Y-11831619D02*
X13018810Y-11812571D01*
X13018810Y-11812571D02*
X13009286Y-11784000D01*
X13009286Y-11784000D02*
X12999762Y-11736381D01*
X12999762Y-11736381D02*
X12999762Y-11698286D01*
X12999762Y-11698286D02*
X13009286Y-11650667D01*
X13009286Y-11650667D02*
X13018810Y-11622095D01*
X13018810Y-11622095D02*
X13028334Y-11603048D01*
X13028334Y-11603048D02*
X13047381Y-11574476D01*
X13047381Y-11574476D02*
X13056905Y-11564952D01*
X13123572Y-11612571D02*
X13133095Y-11603048D01*
X13133095Y-11603048D02*
X13152143Y-11593524D01*
X13152143Y-11593524D02*
X13199762Y-11593524D01*
X13199762Y-11593524D02*
X13218810Y-11603048D01*
X13218810Y-11603048D02*
X13228334Y-11612571D01*
X13228334Y-11612571D02*
X13237857Y-11631619D01*
X13237857Y-11631619D02*
X13237857Y-11650667D01*
X13237857Y-11650667D02*
X13228334Y-11679238D01*
X13228334Y-11679238D02*
X13114048Y-11793524D01*
X13114048Y-11793524D02*
X13237857Y-11793524D01*
X13304524Y-11593524D02*
X13428334Y-11593524D01*
X13428334Y-11593524D02*
X13361667Y-11669714D01*
X13361667Y-11669714D02*
X13390238Y-11669714D01*
X13390238Y-11669714D02*
X13409286Y-11679238D01*
X13409286Y-11679238D02*
X13418810Y-11688762D01*
X13418810Y-11688762D02*
X13428334Y-11707809D01*
X13428334Y-11707809D02*
X13428334Y-11755428D01*
X13428334Y-11755428D02*
X13418810Y-11774476D01*
X13418810Y-11774476D02*
X13409286Y-11784000D01*
X13409286Y-11784000D02*
X13390238Y-11793524D01*
X13390238Y-11793524D02*
X13333095Y-11793524D01*
X13333095Y-11793524D02*
X13314048Y-11784000D01*
X13314048Y-11784000D02*
X13304524Y-11774476D01*
X13666429Y-11793524D02*
X13666429Y-11593524D01*
X13752143Y-11793524D02*
X13752143Y-11688762D01*
X13752143Y-11688762D02*
X13742619Y-11669714D01*
X13742619Y-11669714D02*
X13723572Y-11660190D01*
X13723572Y-11660190D02*
X13695000Y-11660190D01*
X13695000Y-11660190D02*
X13675953Y-11669714D01*
X13675953Y-11669714D02*
X13666429Y-11679238D01*
X13875953Y-11793524D02*
X13856905Y-11784000D01*
X13856905Y-11784000D02*
X13847381Y-11774476D01*
X13847381Y-11774476D02*
X13837857Y-11755428D01*
X13837857Y-11755428D02*
X13837857Y-11698286D01*
X13837857Y-11698286D02*
X13847381Y-11679238D01*
X13847381Y-11679238D02*
X13856905Y-11669714D01*
X13856905Y-11669714D02*
X13875953Y-11660190D01*
X13875953Y-11660190D02*
X13904524Y-11660190D01*
X13904524Y-11660190D02*
X13923572Y-11669714D01*
X13923572Y-11669714D02*
X13933096Y-11679238D01*
X13933096Y-11679238D02*
X13942619Y-11698286D01*
X13942619Y-11698286D02*
X13942619Y-11755428D01*
X13942619Y-11755428D02*
X13933096Y-11774476D01*
X13933096Y-11774476D02*
X13923572Y-11784000D01*
X13923572Y-11784000D02*
X13904524Y-11793524D01*
X13904524Y-11793524D02*
X13875953Y-11793524D01*
X14056905Y-11793524D02*
X14037857Y-11784000D01*
X14037857Y-11784000D02*
X14028334Y-11764952D01*
X14028334Y-11764952D02*
X14028334Y-11593524D01*
X14209286Y-11784000D02*
X14190238Y-11793524D01*
X14190238Y-11793524D02*
X14152143Y-11793524D01*
X14152143Y-11793524D02*
X14133096Y-11784000D01*
X14133096Y-11784000D02*
X14123572Y-11764952D01*
X14123572Y-11764952D02*
X14123572Y-11688762D01*
X14123572Y-11688762D02*
X14133096Y-11669714D01*
X14133096Y-11669714D02*
X14152143Y-11660190D01*
X14152143Y-11660190D02*
X14190238Y-11660190D01*
X14190238Y-11660190D02*
X14209286Y-11669714D01*
X14209286Y-11669714D02*
X14218810Y-11688762D01*
X14218810Y-11688762D02*
X14218810Y-11707809D01*
X14218810Y-11707809D02*
X14123572Y-11726857D01*
X14295000Y-11784000D02*
X14314048Y-11793524D01*
X14314048Y-11793524D02*
X14352143Y-11793524D01*
X14352143Y-11793524D02*
X14371191Y-11784000D01*
X14371191Y-11784000D02*
X14380715Y-11764952D01*
X14380715Y-11764952D02*
X14380715Y-11755428D01*
X14380715Y-11755428D02*
X14371191Y-11736381D01*
X14371191Y-11736381D02*
X14352143Y-11726857D01*
X14352143Y-11726857D02*
X14323572Y-11726857D01*
X14323572Y-11726857D02*
X14304524Y-11717333D01*
X14304524Y-11717333D02*
X14295000Y-11698286D01*
X14295000Y-11698286D02*
X14295000Y-11688762D01*
X14295000Y-11688762D02*
X14304524Y-11669714D01*
X14304524Y-11669714D02*
X14323572Y-11660190D01*
X14323572Y-11660190D02*
X14352143Y-11660190D01*
X14352143Y-11660190D02*
X14371191Y-11669714D01*
X14447381Y-11869714D02*
X14456905Y-11860190D01*
X14456905Y-11860190D02*
X14475953Y-11831619D01*
X14475953Y-11831619D02*
X14485477Y-11812571D01*
X14485477Y-11812571D02*
X14495000Y-11784000D01*
X14495000Y-11784000D02*
X14504524Y-11736381D01*
X14504524Y-11736381D02*
X14504524Y-11698286D01*
X14504524Y-11698286D02*
X14495000Y-11650667D01*
X14495000Y-11650667D02*
X14485477Y-11622095D01*
X14485477Y-11622095D02*
X14475953Y-11603048D01*
X14475953Y-11603048D02*
X14456905Y-11574476D01*
X14456905Y-11574476D02*
X14447381Y-11564952D01*
M02*
