G04 #@! TF.GenerationSoftware,KiCad,Pcbnew,7.0.1*
G04 #@! TF.CreationDate,2023-06-22T15:14:40+02:00*
G04 #@! TF.ProjectId,CaptorBoard,43617074-6f72-4426-9f61-72642e6b6963,rev?*
G04 #@! TF.SameCoordinates,Original*
G04 #@! TF.FileFunction,Soldermask,Top*
G04 #@! TF.FilePolarity,Negative*
%FSLAX46Y46*%
G04 Gerber Fmt 4.6, Leading zero omitted, Abs format (unit mm)*
G04 Created by KiCad (PCBNEW 7.0.1) date 2023-06-22 15:14:40*
%MOMM*%
%LPD*%
G01*
G04 APERTURE LIST*
G04 Aperture macros list*
%AMRoundRect*
0 Rectangle with rounded corners*
0 $1 Rounding radius*
0 $2 $3 $4 $5 $6 $7 $8 $9 X,Y pos of 4 corners*
0 Add a 4 corners polygon primitive as box body*
4,1,4,$2,$3,$4,$5,$6,$7,$8,$9,$2,$3,0*
0 Add four circle primitives for the rounded corners*
1,1,$1+$1,$2,$3*
1,1,$1+$1,$4,$5*
1,1,$1+$1,$6,$7*
1,1,$1+$1,$8,$9*
0 Add four rect primitives between the rounded corners*
20,1,$1+$1,$2,$3,$4,$5,0*
20,1,$1+$1,$4,$5,$6,$7,0*
20,1,$1+$1,$6,$7,$8,$9,0*
20,1,$1+$1,$8,$9,$2,$3,0*%
G04 Aperture macros list end*
%ADD10R,1.700000X1.700000*%
%ADD11O,1.700000X1.700000*%
%ADD12R,0.900000X1.500000*%
%ADD13R,1.500000X0.900000*%
%ADD14R,1.050000X1.050000*%
%ADD15R,2.200000X2.200000*%
%ADD16O,2.200000X2.200000*%
%ADD17RoundRect,0.250000X1.075000X-0.400000X1.075000X0.400000X-1.075000X0.400000X-1.075000X-0.400000X0*%
%ADD18RoundRect,0.250000X-1.075000X0.400000X-1.075000X-0.400000X1.075000X-0.400000X1.075000X0.400000X0*%
%ADD19RoundRect,0.250001X1.074999X-0.462499X1.074999X0.462499X-1.074999X0.462499X-1.074999X-0.462499X0*%
%ADD20R,2.600000X2.600000*%
%ADD21C,2.600000*%
%ADD22C,2.200000*%
%ADD23C,1.700000*%
%ADD24R,1.600000X1.600000*%
%ADD25O,1.600000X1.600000*%
%ADD26RoundRect,0.250000X0.400000X1.075000X-0.400000X1.075000X-0.400000X-1.075000X0.400000X-1.075000X0*%
%ADD27R,2.400000X3.000000*%
%ADD28RoundRect,0.250000X-1.100000X0.412500X-1.100000X-0.412500X1.100000X-0.412500X1.100000X0.412500X0*%
%ADD29R,1.400000X1.500000*%
%ADD30RoundRect,0.250000X0.412500X1.100000X-0.412500X1.100000X-0.412500X-1.100000X0.412500X-1.100000X0*%
%ADD31RoundRect,0.250000X-0.400000X-1.075000X0.400000X-1.075000X0.400000X1.075000X-0.400000X1.075000X0*%
%ADD32RoundRect,0.150000X-0.587500X-0.150000X0.587500X-0.150000X0.587500X0.150000X-0.587500X0.150000X0*%
%ADD33RoundRect,0.250000X1.100000X-0.412500X1.100000X0.412500X-1.100000X0.412500X-1.100000X-0.412500X0*%
%ADD34R,2.500000X2.500000*%
%ADD35O,2.500000X2.500000*%
%ADD36RoundRect,0.225000X-0.225000X-0.375000X0.225000X-0.375000X0.225000X0.375000X-0.225000X0.375000X0*%
%ADD37RoundRect,0.250001X-0.462499X-1.074999X0.462499X-1.074999X0.462499X1.074999X-0.462499X1.074999X0*%
%ADD38RoundRect,0.250000X0.300000X-0.300000X0.300000X0.300000X-0.300000X0.300000X-0.300000X-0.300000X0*%
%ADD39R,1.500000X2.000000*%
%ADD40R,3.800000X2.000000*%
%ADD41C,1.650000*%
G04 #@! TA.AperFunction,Profile*
%ADD42C,0.100000*%
G04 #@! TD*
G04 APERTURE END LIST*
D10*
X124891800Y-97536000D03*
D11*
X124891800Y-94996000D03*
X127431800Y-97536000D03*
X127431800Y-94996000D03*
X129971800Y-97536000D03*
X129971800Y-94996000D03*
X132511800Y-97536000D03*
X132511800Y-94996000D03*
X135051800Y-97536000D03*
X135051800Y-94996000D03*
X137591800Y-97536000D03*
X137591800Y-94996000D03*
X140131800Y-97536000D03*
X140131800Y-94996000D03*
X142671800Y-97536000D03*
X142671800Y-94996000D03*
D12*
X96293000Y-82746000D03*
X97563000Y-82746000D03*
X98833000Y-82746000D03*
X100103000Y-82746000D03*
X101373000Y-82746000D03*
X102643000Y-82746000D03*
X103913000Y-82746000D03*
X105183000Y-82746000D03*
X106453000Y-82746000D03*
X107723000Y-82746000D03*
X108993000Y-82746000D03*
X110263000Y-82746000D03*
X111533000Y-82746000D03*
X112803000Y-82746000D03*
D13*
X114053000Y-79716000D03*
X114053000Y-78446000D03*
X114053000Y-77176000D03*
X114053000Y-75906000D03*
X114053000Y-74636000D03*
X114053000Y-73366000D03*
X114053000Y-72096000D03*
X114053000Y-70826000D03*
X114053000Y-69556000D03*
X114053000Y-68286000D03*
D12*
X112803000Y-65246000D03*
X111533000Y-65246000D03*
X110263000Y-65246000D03*
X108993000Y-65246000D03*
X107723000Y-65246000D03*
X106453000Y-65246000D03*
X105183000Y-65246000D03*
X103913000Y-65246000D03*
X102643000Y-65246000D03*
X101373000Y-65246000D03*
X100103000Y-65246000D03*
X98833000Y-65246000D03*
X97563000Y-65246000D03*
X96293000Y-65246000D03*
D14*
X102108000Y-76201000D03*
X103633000Y-76201000D03*
X105158000Y-76201000D03*
X102108000Y-74676000D03*
X103633000Y-74676000D03*
X105158000Y-74676000D03*
X102108000Y-73151000D03*
X103633000Y-73151000D03*
X105158000Y-73151000D03*
D15*
X164190000Y-56500000D03*
D16*
X171810000Y-56500000D03*
D15*
X171810000Y-52500000D03*
D16*
X164190000Y-52500000D03*
D17*
X103962200Y-98451000D03*
X103962200Y-95351000D03*
D18*
X114500000Y-58114000D03*
X114500000Y-61214000D03*
X104000000Y-58114000D03*
X104000000Y-61214000D03*
X111000000Y-58114000D03*
X111000000Y-61214000D03*
X107500000Y-58114000D03*
X107500000Y-61214000D03*
D19*
X107289600Y-98388500D03*
X107289600Y-95413500D03*
X114500000Y-54029000D03*
X114500000Y-51054000D03*
X104000000Y-54029000D03*
X104000000Y-51054000D03*
X111000000Y-54029000D03*
X111000000Y-51054000D03*
X107500000Y-54029000D03*
X107500000Y-51054000D03*
D20*
X179805000Y-63585000D03*
D21*
X179805000Y-58505000D03*
X179805000Y-53425000D03*
D22*
X100425000Y-98000000D03*
X100425000Y-91000000D03*
D23*
X97925000Y-96750000D03*
X97925000Y-92250000D03*
D22*
X100425000Y-59000000D03*
X100425000Y-52000000D03*
D23*
X97925000Y-57750000D03*
X97925000Y-53250000D03*
D24*
X154975000Y-63000000D03*
D25*
X157515000Y-63000000D03*
X160055000Y-63000000D03*
X160055000Y-55380000D03*
X157515000Y-55380000D03*
X154975000Y-55380000D03*
D24*
X146475000Y-63000000D03*
D25*
X149015000Y-63000000D03*
X151555000Y-63000000D03*
X151555000Y-55380000D03*
X149015000Y-55380000D03*
X146475000Y-55380000D03*
D26*
X120500000Y-83500000D03*
X117400000Y-83500000D03*
X120550000Y-80000000D03*
X117450000Y-80000000D03*
D27*
X165500000Y-61500000D03*
X170360000Y-61500000D03*
D28*
X100914200Y-85318600D03*
X100914200Y-88443600D03*
D11*
X119110600Y-97993200D03*
X116570600Y-97993200D03*
X114030600Y-97993200D03*
D10*
X111490600Y-97993200D03*
D17*
X116738400Y-92660400D03*
X116738400Y-89560400D03*
D29*
X109837600Y-86537800D03*
X107737600Y-86537800D03*
D18*
X133299200Y-88467000D03*
X133299200Y-91567000D03*
D30*
X110769400Y-93218000D03*
X113894400Y-93218000D03*
D31*
X143900000Y-87000000D03*
X147000000Y-87000000D03*
D32*
X146562500Y-79050000D03*
X146562500Y-80950000D03*
X148437500Y-80000000D03*
D33*
X104292400Y-89383400D03*
X104292400Y-86258400D03*
D32*
X146562500Y-93500000D03*
X146562500Y-95400000D03*
X148437500Y-94450000D03*
D34*
X153372500Y-73500000D03*
D35*
X155372500Y-79500000D03*
X167572500Y-79500000D03*
X167572500Y-67500000D03*
X155372500Y-67500000D03*
D36*
X143850000Y-84000000D03*
X147150000Y-84000000D03*
D20*
X179805000Y-96585000D03*
D21*
X179805000Y-91505000D03*
X179805000Y-86425000D03*
D37*
X145012500Y-75500000D03*
X147987500Y-75500000D03*
D18*
X136956800Y-88441600D03*
X136956800Y-91541600D03*
D26*
X100050000Y-62500000D03*
X96950000Y-62500000D03*
D30*
X128956600Y-80949800D03*
X125831600Y-80949800D03*
D38*
X137083800Y-84531200D03*
X137083800Y-81731200D03*
X134594600Y-84531200D03*
X134594600Y-81731200D03*
D17*
X140970000Y-85243600D03*
X140970000Y-82143600D03*
D31*
X107238200Y-89433400D03*
X110338200Y-89433400D03*
X144950000Y-72000000D03*
X148050000Y-72000000D03*
D33*
X113309400Y-89383400D03*
X113309400Y-86258400D03*
D26*
X144100000Y-79500000D03*
X141000000Y-79500000D03*
D39*
X129020600Y-84682800D03*
X126720600Y-84682800D03*
D40*
X126720600Y-90982800D03*
D39*
X124420600Y-84682800D03*
D41*
X140000000Y-74160000D03*
X129840000Y-74160000D03*
X134920000Y-53840000D03*
X140000000Y-53840000D03*
D36*
X144850000Y-69000000D03*
X148150000Y-69000000D03*
D28*
X97536000Y-85305500D03*
X97536000Y-88430500D03*
D20*
X179805000Y-80085000D03*
D21*
X179805000Y-75005000D03*
X179805000Y-69925000D03*
D18*
X140538200Y-88441600D03*
X140538200Y-91541600D03*
D34*
X153372500Y-91000000D03*
D35*
X155372500Y-97000000D03*
X167572500Y-97000000D03*
X167572500Y-85000000D03*
X155372500Y-85000000D03*
D38*
X132029200Y-84534200D03*
X132029200Y-81734200D03*
D37*
X144000000Y-90500000D03*
X146975000Y-90500000D03*
D42*
X95000000Y-50000000D02*
X185000000Y-50000000D01*
X165080300Y-77063600D02*
X182239300Y-77063600D01*
X182239300Y-77663600D01*
X165080300Y-77663600D01*
X165080300Y-77063600D01*
X95000000Y-100000000D02*
X95000000Y-50000000D01*
X185000000Y-100000000D02*
X95000000Y-100000000D01*
X165080300Y-82219800D02*
X182239300Y-82219800D01*
X182239300Y-82819800D01*
X165080300Y-82819800D01*
X165080300Y-82219800D01*
X185000000Y-50000000D02*
X185000000Y-100000000D01*
X165042200Y-72212200D02*
X182201200Y-72212200D01*
X182201200Y-72812200D01*
X165042200Y-72812200D01*
X165042200Y-72212200D01*
X165029500Y-88630200D02*
X182188500Y-88630200D01*
X182188500Y-89230200D01*
X165029500Y-89230200D01*
X165029500Y-88630200D01*
X165054900Y-93735600D02*
X182213900Y-93735600D01*
X182213900Y-94335600D01*
X165054900Y-94335600D01*
X165054900Y-93735600D01*
X165054900Y-64947800D02*
X182213900Y-64947800D01*
X182213900Y-65547800D01*
X165054900Y-65547800D01*
X165054900Y-64947800D01*
M02*
