M48
; DRILL file {KiCad 7.0.1} date Wed Jun 28 17:19:21 2023
; FORMAT={-:-/ absolute / inch / decimal}
; #@! TF.CreationDate,2023-06-28T17:19:21+02:00
; #@! TF.GenerationSoftware,Kicad,Pcbnew,7.0.1
; #@! TF.FileFunction,Plated,1,2,PTH
FMAT,2
INCH
; #@! TA.AperFunction,Plated,PTH,ViaDrill
T1C0.0118
; #@! TA.AperFunction,Plated,PTH,ComponentDrill
T2C0.0315
; #@! TA.AperFunction,Plated,PTH,ComponentDrill
T3C0.0394
; #@! TA.AperFunction,Plated,PTH,ComponentDrill
T4C0.0433
; #@! TA.AperFunction,Plated,PTH,ComponentDrill
T5C0.0512
%
G90
G05
T1
X3.78Y-3.75
X3.8157Y-2.6597
X3.8495Y-2.6223
X3.85Y-3.197
X3.875Y-2.512
X3.878Y-3.3084
X3.8988Y-2.6548
X3.97Y-2.83
X3.97Y-3.05
X4.0354Y-2.6181
X4.04Y-3.31
X4.044Y-2.505
X4.091Y-3.311
X4.162Y-2.208
X4.164Y-3.337
X4.19Y-2.83
X4.19Y-3.05
X4.25Y-2.496
X4.302Y-2.208
X4.4055Y-3.1486
X4.44Y-2.208
X4.4435Y-3.0992
X4.454Y-3.458
X4.558Y-3.107
X4.5591Y-2.7402
X4.5846Y-3.1841
X4.5886Y-3.053
X4.608Y-3.352
X4.617Y-3.275
X4.726Y-3.327
X5.189Y-3.5906
X5.2795Y-3.315
X5.2919Y-3.5585
X5.4724Y-3.3465
X5.4882Y-3.4435
X5.6693Y-3.1614
X5.7087Y-3.4843
X5.7992Y-3.4724
X5.811Y-3.7913
X5.8465Y-3.0315
X5.9528Y-3.315
T2
X5.4291Y-2.0394
X5.7244Y-2.1299
X6.017Y-2.182
X6.017Y-2.482
X6.117Y-2.182
X6.117Y-2.482
X6.217Y-2.182
X6.217Y-2.482
X6.3476Y-2.1836
X6.3476Y-2.4836
X6.4476Y-2.1836
X6.4476Y-2.4836
X6.5476Y-2.1836
X6.5476Y-2.4836
T3
X3.8553Y-2.0965
X3.8553Y-2.2736
X3.8553Y-3.6319
X3.8553Y-3.8091
X4.3894Y-3.858
X4.4894Y-3.858
X4.5894Y-3.858
X4.6894Y-3.858
X4.917Y-3.74
X4.917Y-3.84
X5.017Y-3.74
X5.017Y-3.84
X5.117Y-3.74
X5.117Y-3.84
X5.217Y-3.74
X5.217Y-3.84
X5.317Y-3.74
X5.317Y-3.84
X5.417Y-3.74
X5.417Y-3.84
X5.517Y-3.74
X5.517Y-3.84
X5.617Y-3.74
X5.617Y-3.84
T4
X5.3795Y-3.1425
X5.5795Y-2.3425
X5.7795Y-2.3425
X5.7795Y-3.1425
X6.0386Y-2.049
X6.3386Y-2.049
X6.49Y-2.049
X6.79Y-2.049
T5
X3.9537Y-2.0472
X3.9537Y-2.3228
X3.9537Y-3.5827
X3.9537Y-3.8583
X6.0383Y-2.8937
X6.0383Y-3.5827
X6.117Y-2.6575
X6.117Y-3.1299
X6.117Y-3.3465
X6.117Y-3.8189
X6.5973Y-2.6575
X6.5973Y-3.1299
X6.5973Y-3.3465
X6.5973Y-3.8189
X7.0789Y-2.1033
X7.0789Y-2.3033
X7.0789Y-2.5033
X7.0789Y-2.753
X7.0789Y-2.953
X7.0789Y-3.153
X7.0789Y-3.4026
X7.0789Y-3.6026
X7.0789Y-3.8026
T0
M30
