G04 #@! TF.GenerationSoftware,KiCad,Pcbnew,(5.1.5-0)*
G04 #@! TF.CreationDate,2020-03-21T14:33:05+01:00*
G04 #@! TF.ProjectId,CaptorBoard,43617074-6f72-4426-9f61-72642e6b6963,rev?*
G04 #@! TF.SameCoordinates,Original*
G04 #@! TF.FileFunction,Copper,L1,Top*
G04 #@! TF.FilePolarity,Positive*
%FSLAX46Y46*%
G04 Gerber Fmt 4.6, Leading zero omitted, Abs format (unit mm)*
G04 Created by KiCad (PCBNEW (5.1.5-0)) date 2020-03-21 14:33:05*
%MOMM*%
%LPD*%
G04 APERTURE LIST*
%ADD10R,1.800000X1.800000*%
%ADD11C,1.800000*%
%ADD12O,1.600000X1.600000*%
%ADD13R,1.600000X1.600000*%
%ADD14C,2.300000*%
%ADD15R,2.300000X2.000000*%
%ADD16O,1.727200X2.032000*%
%ADD17R,1.727200X2.032000*%
%ADD18C,2.200000*%
%ADD19C,1.700000*%
%ADD20R,2.500000X2.000000*%
%ADD21R,2.000000X2.500000*%
%ADD22R,2.200000X2.200000*%
%ADD23O,2.200000X2.200000*%
%ADD24R,1.700000X1.700000*%
%ADD25O,1.700000X1.700000*%
%ADD26C,2.500000*%
%ADD27R,2.500000X2.500000*%
%ADD28C,0.750000*%
%ADD29C,2.000000*%
%ADD30C,0.500000*%
%ADD31C,0.250000*%
G04 APERTURE END LIST*
D10*
X77000000Y-71000000D03*
D11*
X77000000Y-73540000D03*
D10*
X77000000Y-79000000D03*
D11*
X77000000Y-81540000D03*
D10*
X77500000Y-63500000D03*
D11*
X77500000Y-66040000D03*
D10*
X77000000Y-86460000D03*
D11*
X77000000Y-89000000D03*
D10*
X81000000Y-95500000D03*
D11*
X78460000Y-95500000D03*
D12*
X119120000Y-81000000D03*
X111500000Y-86080000D03*
X119120000Y-83540000D03*
X111500000Y-83540000D03*
X119120000Y-86080000D03*
D13*
X111500000Y-81000000D03*
X111500000Y-92000000D03*
D12*
X119120000Y-97080000D03*
X111500000Y-94540000D03*
X119120000Y-94540000D03*
X111500000Y-97080000D03*
X119120000Y-92000000D03*
D14*
X109000000Y-74000000D03*
D15*
X137000000Y-74000000D03*
D14*
X137000000Y-58800000D03*
X109000000Y-66400000D03*
D16*
X97620000Y-97000000D03*
X95080000Y-97000000D03*
X92540000Y-97000000D03*
D17*
X90000000Y-97000000D03*
D18*
X104250000Y-60500000D03*
X97250000Y-60500000D03*
D19*
X103000000Y-58000000D03*
X98500000Y-58000000D03*
D18*
X86250000Y-60000000D03*
X79250000Y-60000000D03*
D19*
X85000000Y-57500000D03*
X80500000Y-57500000D03*
D20*
X94500000Y-68500000D03*
X94500000Y-72500000D03*
X89500000Y-74000000D03*
X89500000Y-78000000D03*
X99000000Y-68500000D03*
X99000000Y-72500000D03*
X85500000Y-78500000D03*
X85500000Y-82500000D03*
D21*
X85500000Y-88000000D03*
X81500000Y-88000000D03*
D22*
X126500000Y-79000000D03*
D23*
X126500000Y-86620000D03*
D22*
X126500000Y-90000000D03*
D23*
X126500000Y-97620000D03*
D11*
X81070000Y-82390000D03*
X103930000Y-82390000D03*
X81070000Y-79850000D03*
X103930000Y-79850000D03*
X81070000Y-77310000D03*
X103930000Y-77310000D03*
X81070000Y-74770000D03*
X103930000Y-74770000D03*
X81070000Y-72230000D03*
X103930000Y-72230000D03*
X81070000Y-69690000D03*
X103930000Y-69690000D03*
X81070000Y-67150000D03*
X103930000Y-67150000D03*
X81070000Y-64610000D03*
X103930000Y-64610000D03*
D24*
X85000000Y-93500000D03*
D25*
X87540000Y-93500000D03*
X90080000Y-93500000D03*
X92620000Y-93500000D03*
X95160000Y-93500000D03*
X97700000Y-93500000D03*
D26*
X135000000Y-82000000D03*
X135000000Y-87000000D03*
D27*
X135000000Y-97000000D03*
D26*
X135000000Y-92000000D03*
D21*
X103500000Y-92000000D03*
X107500000Y-92000000D03*
X103500000Y-87000000D03*
X107500000Y-87000000D03*
D28*
X83500000Y-64500000D03*
X87000000Y-70000000D03*
X90500000Y-80335002D03*
D29*
X135000000Y-87000000D02*
X133232234Y-87000000D01*
X135000000Y-82000000D02*
X137000000Y-80000000D01*
X137000000Y-80000000D02*
X137000000Y-74000000D01*
D30*
X97620000Y-96847600D02*
X97620000Y-97000000D01*
X92620000Y-93500000D02*
X93235998Y-93500000D01*
X97620000Y-97000000D02*
X97620000Y-97152400D01*
D31*
X80481999Y-78624999D02*
X79000000Y-80106998D01*
X81500000Y-78500000D02*
X81375001Y-78624999D01*
X81375001Y-78624999D02*
X80481999Y-78624999D01*
X85500000Y-78500000D02*
X81500000Y-78500000D01*
X78150000Y-86460000D02*
X77000000Y-86460000D01*
X79000000Y-85610000D02*
X78150000Y-86460000D01*
X79000000Y-80106998D02*
X79000000Y-85610000D01*
D29*
X131000000Y-84767766D02*
X131000000Y-67500000D01*
X133232234Y-87000000D02*
X131000000Y-84767766D01*
X131000000Y-67500000D02*
X122500000Y-76000000D01*
X122500000Y-76000000D02*
X122500000Y-77620000D01*
X122500000Y-77620000D02*
X119120000Y-81000000D01*
X122500000Y-77620000D02*
X122500000Y-88620000D01*
X122500000Y-88620000D02*
X119120000Y-92000000D01*
D31*
X83500000Y-60500000D02*
X80500000Y-57500000D01*
X83500000Y-64500000D02*
X83500000Y-60500000D01*
D30*
X104202081Y-58000000D02*
X103000000Y-58000000D01*
X105800001Y-59597920D02*
X104202081Y-58000000D01*
X105800001Y-69173656D02*
X105800001Y-59597920D01*
X109000000Y-72373655D02*
X105800001Y-69173656D01*
X109000000Y-74000000D02*
X109000000Y-72373655D01*
X85849999Y-56650001D02*
X85000000Y-57500000D01*
X103000000Y-58000000D02*
X101650001Y-56650001D01*
X111500000Y-94540000D02*
X109040000Y-97000000D01*
X109040000Y-97000000D02*
X97620000Y-97000000D01*
X93235998Y-93500000D02*
X95219998Y-95484000D01*
X95219998Y-95484000D02*
X96256400Y-95484000D01*
X96256400Y-95484000D02*
X97620000Y-96847600D01*
X101650001Y-56650001D02*
X85849999Y-56650001D01*
D31*
X99702081Y-58000000D02*
X98500000Y-58000000D01*
X105155001Y-63452920D02*
X99702081Y-58000000D01*
X105155001Y-81164999D02*
X105155001Y-63452920D01*
X103930000Y-82390000D02*
X105155001Y-81164999D01*
X81070000Y-87930000D02*
X81000000Y-88000000D01*
X81500000Y-95000000D02*
X81000000Y-95500000D01*
X81500000Y-88000000D02*
X81500000Y-95000000D01*
X79924999Y-65924999D02*
X77500000Y-63500000D01*
X94924999Y-65924999D02*
X79924999Y-65924999D01*
X97500000Y-68500000D02*
X94924999Y-65924999D01*
X99000000Y-68500000D02*
X97500000Y-68500000D01*
X78765001Y-76084999D02*
X77000000Y-77850000D01*
X77000000Y-77850000D02*
X77000000Y-79000000D01*
X85915001Y-76084999D02*
X78765001Y-76084999D01*
X88000000Y-74000000D02*
X85915001Y-76084999D01*
X89500000Y-74000000D02*
X88000000Y-74000000D01*
X94500000Y-68500000D02*
X91500000Y-68500000D01*
X89000000Y-71000000D02*
X77000000Y-71000000D01*
X91500000Y-68500000D02*
X89000000Y-71000000D01*
D29*
X131000000Y-66426345D02*
X131000000Y-67500000D01*
X137000000Y-60426345D02*
X131000000Y-66426345D01*
X137000000Y-58800000D02*
X137000000Y-60426345D01*
D31*
X85500000Y-86820000D02*
X85500000Y-88000000D01*
X81070000Y-82390000D02*
X85500000Y-86820000D01*
X83720000Y-82500000D02*
X81070000Y-79850000D01*
X85500000Y-82500000D02*
X83720000Y-82500000D01*
X99270000Y-72230000D02*
X99000000Y-72500000D01*
X103930000Y-72230000D02*
X99270000Y-72230000D01*
X103930000Y-74770000D02*
X100730000Y-74770000D01*
X97500000Y-78000000D02*
X89500000Y-78000000D01*
X100730000Y-74770000D02*
X97500000Y-78000000D01*
X94500000Y-71250000D02*
X94500000Y-72500000D01*
X103030001Y-70589999D02*
X95160001Y-70589999D01*
X95160001Y-70589999D02*
X94500000Y-71250000D01*
X103930000Y-69690000D02*
X103030001Y-70589999D01*
X107500000Y-92000000D02*
X111500000Y-92000000D01*
X81070000Y-69690000D02*
X86690000Y-69690000D01*
X86690000Y-69690000D02*
X87000000Y-70000000D01*
X91664998Y-81500000D02*
X90500000Y-80335002D01*
X103500000Y-92000000D02*
X103500000Y-90500000D01*
X94500000Y-81500000D02*
X91664998Y-81500000D01*
X103500000Y-90500000D02*
X94500000Y-81500000D01*
X108500000Y-81000000D02*
X111500000Y-81000000D01*
X108500000Y-81000000D02*
X107500000Y-82000000D01*
X107500000Y-82000000D02*
X107500000Y-87000000D01*
X101000000Y-85750000D02*
X102250000Y-87000000D01*
X102250000Y-87000000D02*
X103500000Y-87000000D01*
X103930000Y-77310000D02*
X101000000Y-80240000D01*
X101000000Y-80240000D02*
X101000000Y-85750000D01*
D30*
X87150000Y-97000000D02*
X90000000Y-97000000D01*
X85000000Y-93500000D02*
X85000000Y-94850000D01*
X85000000Y-94850000D02*
X87150000Y-97000000D01*
M02*
