M48
; DRILL file {KiCad 7.0.1} date Thu Apr 13 12:05:15 2023
; FORMAT={-:-/ absolute / inch / decimal}
; #@! TF.CreationDate,2023-04-13T12:05:15+02:00
; #@! TF.GenerationSoftware,Kicad,Pcbnew,7.0.1
; #@! TF.FileFunction,Plated,1,2,PTH
FMAT,2
INCH
; #@! TA.AperFunction,Plated,PTH,ViaDrill
T1C0.0118
; #@! TA.AperFunction,Plated,PTH,ComponentDrill
T2C0.0315
; #@! TA.AperFunction,Plated,PTH,ComponentDrill
T3C0.0394
; #@! TA.AperFunction,Plated,PTH,ComponentDrill
T4C0.0433
; #@! TA.AperFunction,Plated,PTH,ComponentDrill
T5C0.0512
%
G90
G05
T1
X3.78Y-3.75
X3.7992Y-3.1299
X3.8379Y-2.6375
X3.8386Y-3.1693
X3.8745Y-2.654
X3.878Y-2.4803
X3.878Y-3.3071
X3.8949Y-2.5215
X3.9536Y-3.1688
X3.97Y-2.83
X3.97Y-3.05
X4.0354Y-2.6181
X4.0354Y-3.1687
X4.07Y-2.35
X4.0748Y-3.6417
X4.141Y-2.615
X4.1428Y-3.3447
X4.162Y-2.208
X4.19Y-2.83
X4.19Y-3.05
X4.1928Y-3.3466
X4.2575Y-2.4753
X4.2644Y-3.3095
X4.302Y-2.208
X4.3257Y-2.6587
X4.3898Y-2.4798
X4.44Y-2.208
X4.44Y-2.736
X4.44Y-3.09
X4.4412Y-3.212
X4.4481Y-2.4803
X4.4689Y-3.1829
X4.4882Y-2.4803
X4.5669Y-3.4055
X4.5866Y-2.6181
X4.5866Y-2.815
X4.5866Y-3.0315
X4.603Y-2.262
X4.604Y-2.108
X4.604Y-2.4409
X4.626Y-3.7402
X4.6457Y-2.185
X4.6457Y-2.3425
X4.6457Y-2.5197
X4.6457Y-2.7165
X4.6457Y-2.9331
X4.8622Y-3.7008
X5.131Y-3.631
X5.6102Y-2.9724
X5.6102Y-3.4252
X5.639Y-3.64
X5.7283Y-3.4252
X5.7677Y-3.0512
X5.769Y-2.718
X5.8465Y-3.2087
X5.847Y-3.08
X5.8661Y-3.3268
T2
X5.7667Y-2.1803
X5.7667Y-2.4803
X5.8667Y-2.1803
X5.8667Y-2.4803
X5.9667Y-2.1803
X5.9667Y-2.4803
X6.1014Y-2.1803
X6.1014Y-2.4803
X6.2014Y-2.1803
X6.2014Y-2.4803
X6.3014Y-2.1803
X6.3014Y-2.4803
T3
X3.8553Y-2.0965
X3.8553Y-2.2736
X3.8553Y-3.6319
X3.8553Y-3.8091
X4.6504Y-3.865
X4.7504Y-3.865
X4.8504Y-3.865
X4.9504Y-3.865
X5.095Y-3.865
X5.1378Y-3.7205
X5.195Y-3.865
X5.2378Y-3.7205
X5.295Y-3.865
X5.3378Y-3.7205
X5.395Y-3.865
X5.4378Y-3.7205
X5.495Y-3.865
X5.5378Y-3.7205
X5.595Y-3.865
X5.6378Y-3.7205
X5.695Y-3.865
T4
X5.1118Y-2.9197
X5.3118Y-2.1197
X5.5118Y-2.1197
X5.5118Y-2.9197
X6.4642Y-2.0669
X6.4642Y-2.2244
X6.7642Y-2.0669
X6.7642Y-2.2244
T5
X3.9537Y-2.0472
X3.9537Y-2.3228
X3.9537Y-3.5827
X3.9537Y-3.8583
X6.0383Y-2.8937
X6.0383Y-3.5827
X6.117Y-2.6575
X6.117Y-3.1299
X6.117Y-3.3465
X6.117Y-3.8189
X6.5973Y-2.6575
X6.5973Y-3.1299
X6.5973Y-3.3465
X6.5973Y-3.8189
X7.0789Y-2.1033
X7.0789Y-2.3033
X7.0789Y-2.5033
X7.0789Y-2.753
X7.0789Y-2.953
X7.0789Y-3.153
X7.0789Y-3.4026
X7.0789Y-3.6026
X7.0789Y-3.8026
T0
M30
