G04 #@! TF.GenerationSoftware,KiCad,Pcbnew,(5.99.0-7069-gedfe80db3)*
G04 #@! TF.CreationDate,2020-11-19T11:38:25+01:00*
G04 #@! TF.ProjectId,CaptorBoard,43617074-6f72-4426-9f61-72642e6b6963,rev?*
G04 #@! TF.SameCoordinates,Original*
G04 #@! TF.FileFunction,Legend,Bot*
G04 #@! TF.FilePolarity,Positive*
%FSLAX46Y46*%
G04 Gerber Fmt 4.6, Leading zero omitted, Abs format (unit mm)*
G04 Created by KiCad (PCBNEW (5.99.0-7069-gedfe80db3)) date 2020-11-19 11:38:25*
%MOMM*%
%LPD*%
G01*
G04 APERTURE LIST*
%ADD10C,0.200000*%
G04 #@! TA.AperFunction,Profile*
%ADD11C,0.100000*%
G04 #@! TD*
%ADD12C,0.300000*%
G04 APERTURE END LIST*
D10*
X132000000Y-99500000D02*
X132000000Y-79000000D01*
X91500000Y-89500000D02*
X94500000Y-91500000D01*
X83500000Y-91500000D02*
X99500000Y-91500000D01*
X97000000Y-89500000D02*
X97000000Y-74000000D01*
X99500000Y-95000000D02*
X83500000Y-95000000D01*
X100000000Y-95500000D02*
X88000000Y-95500000D01*
X100000000Y-96500000D02*
X100000000Y-95500000D01*
X101500000Y-94000000D02*
X100000000Y-96500000D01*
X85500000Y-63000000D02*
X85500000Y-74000000D01*
X88000000Y-99000000D02*
X100000000Y-99000000D01*
X97000000Y-74000000D02*
X102000000Y-74000000D01*
X102000000Y-63000000D02*
X85500000Y-63000000D01*
X126000000Y-72500000D02*
X132000000Y-79000000D01*
X117500000Y-72500000D02*
X117500000Y-61000000D01*
X102000000Y-74000000D02*
X102000000Y-63000000D01*
X138000000Y-99500000D02*
X132000000Y-99500000D01*
X133000000Y-72500000D02*
X117500000Y-72500000D01*
X100000000Y-99000000D02*
X100000000Y-96500000D01*
X138000000Y-79000000D02*
X138000000Y-99500000D01*
X133000000Y-61000000D02*
X133000000Y-72500000D01*
X88000000Y-95500000D02*
X88000000Y-99000000D01*
X83500000Y-89500000D02*
X97000000Y-89500000D01*
X101500000Y-74000000D02*
X101500000Y-94000000D01*
X97000000Y-74000000D02*
X83500000Y-74000000D01*
X99500000Y-91500000D02*
X99500000Y-95000000D01*
X132000000Y-79000000D02*
X138000000Y-79000000D01*
X83500000Y-74000000D02*
X83500000Y-89500000D01*
X117500000Y-61000000D02*
X133000000Y-61000000D01*
X83500000Y-95000000D02*
X83500000Y-91500000D01*
D11*
X75000000Y-55000000D02*
X140000000Y-55000000D01*
X75000000Y-100000000D02*
X75000000Y-55000000D01*
X140000000Y-100000000D02*
X75000000Y-100000000D01*
X140000000Y-55000000D02*
X140000000Y-100000000D01*
D12*
X130662142Y-64056071D02*
X131519285Y-64056071D01*
X131090714Y-64056071D02*
X131090714Y-62556071D01*
X131233571Y-62770357D01*
X131376428Y-62913214D01*
X131519285Y-62984642D01*
X128876428Y-63484642D02*
X127733571Y-63484642D01*
X126090714Y-62556071D02*
X125233571Y-62556071D01*
X125662142Y-64056071D02*
X125662142Y-62556071D01*
X124162142Y-63984642D02*
X124305000Y-64056071D01*
X124590714Y-64056071D01*
X124733571Y-63984642D01*
X124805000Y-63841785D01*
X124805000Y-63270357D01*
X124733571Y-63127500D01*
X124590714Y-63056071D01*
X124305000Y-63056071D01*
X124162142Y-63127500D01*
X124090714Y-63270357D01*
X124090714Y-63413214D01*
X124805000Y-63556071D01*
X123447857Y-64056071D02*
X123447857Y-63056071D01*
X123447857Y-63341785D02*
X123376428Y-63198928D01*
X123305000Y-63127500D01*
X123162142Y-63056071D01*
X123019285Y-63056071D01*
X122519285Y-64056071D02*
X122519285Y-63056071D01*
X122519285Y-63341785D02*
X122447857Y-63198928D01*
X122376428Y-63127500D01*
X122233571Y-63056071D01*
X122090714Y-63056071D01*
X121019285Y-63984642D02*
X121162142Y-64056071D01*
X121447857Y-64056071D01*
X121590714Y-63984642D01*
X121662142Y-63841785D01*
X121662142Y-63270357D01*
X121590714Y-63127500D01*
X121447857Y-63056071D01*
X121162142Y-63056071D01*
X121019285Y-63127500D01*
X120947857Y-63270357D01*
X120947857Y-63413214D01*
X121662142Y-63556071D01*
X131519285Y-65113928D02*
X131447857Y-65042500D01*
X131305000Y-64971071D01*
X130947857Y-64971071D01*
X130805000Y-65042500D01*
X130733571Y-65113928D01*
X130662142Y-65256785D01*
X130662142Y-65399642D01*
X130733571Y-65613928D01*
X131590714Y-66471071D01*
X130662142Y-66471071D01*
X128876428Y-65899642D02*
X127733571Y-65899642D01*
X125876428Y-66471071D02*
X125876428Y-64971071D01*
X125305000Y-64971071D01*
X125162142Y-65042500D01*
X125090714Y-65113928D01*
X125019285Y-65256785D01*
X125019285Y-65471071D01*
X125090714Y-65613928D01*
X125162142Y-65685357D01*
X125305000Y-65756785D01*
X125876428Y-65756785D01*
X124376428Y-66471071D02*
X124376428Y-65471071D01*
X124376428Y-64971071D02*
X124447857Y-65042500D01*
X124376428Y-65113928D01*
X124305000Y-65042500D01*
X124376428Y-64971071D01*
X124376428Y-65113928D01*
X123447857Y-66471071D02*
X123590714Y-66399642D01*
X123662142Y-66256785D01*
X123662142Y-64971071D01*
X122662142Y-66471071D02*
X122805000Y-66399642D01*
X122876428Y-66328214D01*
X122947857Y-66185357D01*
X122947857Y-65756785D01*
X122876428Y-65613928D01*
X122805000Y-65542500D01*
X122662142Y-65471071D01*
X122447857Y-65471071D01*
X122305000Y-65542500D01*
X122233571Y-65613928D01*
X122162142Y-65756785D01*
X122162142Y-66185357D01*
X122233571Y-66328214D01*
X122305000Y-66399642D01*
X122447857Y-66471071D01*
X122662142Y-66471071D01*
X121733571Y-65471071D02*
X121162142Y-65471071D01*
X121519285Y-64971071D02*
X121519285Y-66256785D01*
X121447857Y-66399642D01*
X121305000Y-66471071D01*
X121162142Y-66471071D01*
X120090714Y-66399642D02*
X120233571Y-66471071D01*
X120519285Y-66471071D01*
X120662142Y-66399642D01*
X120733571Y-66256785D01*
X120733571Y-65685357D01*
X120662142Y-65542500D01*
X120519285Y-65471071D01*
X120233571Y-65471071D01*
X120090714Y-65542500D01*
X120019285Y-65685357D01*
X120019285Y-65828214D01*
X120733571Y-65971071D01*
X131590714Y-67386071D02*
X130662142Y-67386071D01*
X131162142Y-67957500D01*
X130947857Y-67957500D01*
X130805000Y-68028928D01*
X130733571Y-68100357D01*
X130662142Y-68243214D01*
X130662142Y-68600357D01*
X130733571Y-68743214D01*
X130805000Y-68814642D01*
X130947857Y-68886071D01*
X131376428Y-68886071D01*
X131519285Y-68814642D01*
X131590714Y-68743214D01*
X128876428Y-68314642D02*
X127733571Y-68314642D01*
X125876428Y-68886071D02*
X125876428Y-67386071D01*
X125305000Y-67386071D01*
X125162142Y-67457500D01*
X125090714Y-67528928D01*
X125019285Y-67671785D01*
X125019285Y-67886071D01*
X125090714Y-68028928D01*
X125162142Y-68100357D01*
X125305000Y-68171785D01*
X125876428Y-68171785D01*
X124376428Y-68886071D02*
X124376428Y-67386071D01*
X123733571Y-68886071D02*
X123733571Y-68100357D01*
X123805000Y-67957500D01*
X123947857Y-67886071D01*
X124162142Y-67886071D01*
X124305000Y-67957500D01*
X124376428Y-68028928D01*
X122376428Y-68886071D02*
X122376428Y-68100357D01*
X122447857Y-67957500D01*
X122590714Y-67886071D01*
X122876428Y-67886071D01*
X123019285Y-67957500D01*
X122376428Y-68814642D02*
X122519285Y-68886071D01*
X122876428Y-68886071D01*
X123019285Y-68814642D01*
X123090714Y-68671785D01*
X123090714Y-68528928D01*
X123019285Y-68386071D01*
X122876428Y-68314642D01*
X122519285Y-68314642D01*
X122376428Y-68243214D01*
X121733571Y-68814642D02*
X121590714Y-68886071D01*
X121305000Y-68886071D01*
X121162142Y-68814642D01*
X121090714Y-68671785D01*
X121090714Y-68600357D01*
X121162142Y-68457500D01*
X121305000Y-68386071D01*
X121519285Y-68386071D01*
X121662142Y-68314642D01*
X121733571Y-68171785D01*
X121733571Y-68100357D01*
X121662142Y-67957500D01*
X121519285Y-67886071D01*
X121305000Y-67886071D01*
X121162142Y-67957500D01*
X119876428Y-68814642D02*
X120019285Y-68886071D01*
X120305000Y-68886071D01*
X120447857Y-68814642D01*
X120519285Y-68671785D01*
X120519285Y-68100357D01*
X120447857Y-67957500D01*
X120305000Y-67886071D01*
X120019285Y-67886071D01*
X119876428Y-67957500D01*
X119805000Y-68100357D01*
X119805000Y-68243214D01*
X120519285Y-68386071D01*
X130805000Y-70301071D02*
X130805000Y-71301071D01*
X131162142Y-69729642D02*
X131519285Y-70801071D01*
X130590714Y-70801071D01*
X128876428Y-70729642D02*
X127733571Y-70729642D01*
X125876428Y-71301071D02*
X125876428Y-69801071D01*
X125019285Y-71301071D01*
X125019285Y-69801071D01*
X123733571Y-71229642D02*
X123876428Y-71301071D01*
X124162142Y-71301071D01*
X124305000Y-71229642D01*
X124376428Y-71086785D01*
X124376428Y-70515357D01*
X124305000Y-70372500D01*
X124162142Y-70301071D01*
X123876428Y-70301071D01*
X123733571Y-70372500D01*
X123662142Y-70515357D01*
X123662142Y-70658214D01*
X124376428Y-70801071D01*
X122376428Y-70301071D02*
X122376428Y-71301071D01*
X123019285Y-70301071D02*
X123019285Y-71086785D01*
X122947857Y-71229642D01*
X122805000Y-71301071D01*
X122590714Y-71301071D01*
X122447857Y-71229642D01*
X122376428Y-71158214D01*
X121876428Y-70301071D02*
X121305000Y-70301071D01*
X121662142Y-69801071D02*
X121662142Y-71086785D01*
X121590714Y-71229642D01*
X121447857Y-71301071D01*
X121305000Y-71301071D01*
X120805000Y-71301071D02*
X120805000Y-70301071D01*
X120805000Y-70586785D02*
X120733571Y-70443928D01*
X120662142Y-70372500D01*
X120519285Y-70301071D01*
X120376428Y-70301071D01*
X119305000Y-71229642D02*
X119447857Y-71301071D01*
X119733571Y-71301071D01*
X119876428Y-71229642D01*
X119947857Y-71086785D01*
X119947857Y-70515357D01*
X119876428Y-70372500D01*
X119733571Y-70301071D01*
X119447857Y-70301071D01*
X119305000Y-70372500D01*
X119233571Y-70515357D01*
X119233571Y-70658214D01*
X119947857Y-70801071D01*
X100162142Y-65556071D02*
X101019285Y-65556071D01*
X100590714Y-65556071D02*
X100590714Y-64056071D01*
X100733571Y-64270357D01*
X100876428Y-64413214D01*
X101019285Y-64484642D01*
X98376428Y-64984642D02*
X97233571Y-64984642D01*
X95376428Y-64984642D02*
X94233571Y-64984642D01*
X94805000Y-65556071D02*
X94805000Y-64413214D01*
X92805000Y-64056071D02*
X93519285Y-64056071D01*
X93590714Y-64770357D01*
X93519285Y-64698928D01*
X93376428Y-64627500D01*
X93019285Y-64627500D01*
X92876428Y-64698928D01*
X92805000Y-64770357D01*
X92733571Y-64913214D01*
X92733571Y-65270357D01*
X92805000Y-65413214D01*
X92876428Y-65484642D01*
X93019285Y-65556071D01*
X93376428Y-65556071D01*
X93519285Y-65484642D01*
X93590714Y-65413214D01*
X92305000Y-64056071D02*
X91805000Y-65556071D01*
X91305000Y-64056071D01*
X101019285Y-66613928D02*
X100947857Y-66542500D01*
X100805000Y-66471071D01*
X100447857Y-66471071D01*
X100305000Y-66542500D01*
X100233571Y-66613928D01*
X100162142Y-66756785D01*
X100162142Y-66899642D01*
X100233571Y-67113928D01*
X101090714Y-67971071D01*
X100162142Y-67971071D01*
X98376428Y-67399642D02*
X97233571Y-67399642D01*
X94519285Y-67828214D02*
X94590714Y-67899642D01*
X94805000Y-67971071D01*
X94947857Y-67971071D01*
X95162142Y-67899642D01*
X95305000Y-67756785D01*
X95376428Y-67613928D01*
X95447857Y-67328214D01*
X95447857Y-67113928D01*
X95376428Y-66828214D01*
X95305000Y-66685357D01*
X95162142Y-66542500D01*
X94947857Y-66471071D01*
X94805000Y-66471071D01*
X94590714Y-66542500D01*
X94519285Y-66613928D01*
X93947857Y-67542500D02*
X93233571Y-67542500D01*
X94090714Y-67971071D02*
X93590714Y-66471071D01*
X93090714Y-67971071D01*
X92590714Y-67971071D02*
X92590714Y-66471071D01*
X92019285Y-66471071D01*
X91876428Y-66542500D01*
X91805000Y-66613928D01*
X91733571Y-66756785D01*
X91733571Y-66971071D01*
X91805000Y-67113928D01*
X91876428Y-67185357D01*
X92019285Y-67256785D01*
X92590714Y-67256785D01*
X91305000Y-66471071D02*
X90447857Y-66471071D01*
X90876428Y-67971071D02*
X90876428Y-66471071D01*
X89947857Y-67185357D02*
X89447857Y-67185357D01*
X89233571Y-67971071D02*
X89947857Y-67971071D01*
X89947857Y-66471071D01*
X89233571Y-66471071D01*
X88590714Y-66471071D02*
X88590714Y-67685357D01*
X88519285Y-67828214D01*
X88447857Y-67899642D01*
X88305000Y-67971071D01*
X88019285Y-67971071D01*
X87876428Y-67899642D01*
X87805000Y-67828214D01*
X87733571Y-67685357D01*
X87733571Y-66471071D01*
X86162142Y-67971071D02*
X86662142Y-67256785D01*
X87019285Y-67971071D02*
X87019285Y-66471071D01*
X86447857Y-66471071D01*
X86305000Y-66542500D01*
X86233571Y-66613928D01*
X86162142Y-66756785D01*
X86162142Y-66971071D01*
X86233571Y-67113928D01*
X86305000Y-67185357D01*
X86447857Y-67256785D01*
X87019285Y-67256785D01*
X101090714Y-68886071D02*
X100162142Y-68886071D01*
X100662142Y-69457500D01*
X100447857Y-69457500D01*
X100305000Y-69528928D01*
X100233571Y-69600357D01*
X100162142Y-69743214D01*
X100162142Y-70100357D01*
X100233571Y-70243214D01*
X100305000Y-70314642D01*
X100447857Y-70386071D01*
X100876428Y-70386071D01*
X101019285Y-70314642D01*
X101090714Y-70243214D01*
X98376428Y-69814642D02*
X97233571Y-69814642D01*
X95376428Y-70386071D02*
X95376428Y-68886071D01*
X94519285Y-70386071D01*
X94519285Y-68886071D01*
X92947857Y-70243214D02*
X93019285Y-70314642D01*
X93233571Y-70386071D01*
X93376428Y-70386071D01*
X93590714Y-70314642D01*
X93733571Y-70171785D01*
X93805000Y-70028928D01*
X93876428Y-69743214D01*
X93876428Y-69528928D01*
X93805000Y-69243214D01*
X93733571Y-69100357D01*
X93590714Y-68957500D01*
X93376428Y-68886071D01*
X93233571Y-68886071D01*
X93019285Y-68957500D01*
X92947857Y-69028928D01*
X100305000Y-71801071D02*
X100305000Y-72801071D01*
X100662142Y-71229642D02*
X101019285Y-72301071D01*
X100090714Y-72301071D01*
X98376428Y-72229642D02*
X97233571Y-72229642D01*
X94590714Y-71372500D02*
X94733571Y-71301071D01*
X94947857Y-71301071D01*
X95162142Y-71372500D01*
X95305000Y-71515357D01*
X95376428Y-71658214D01*
X95447857Y-71943928D01*
X95447857Y-72158214D01*
X95376428Y-72443928D01*
X95305000Y-72586785D01*
X95162142Y-72729642D01*
X94947857Y-72801071D01*
X94805000Y-72801071D01*
X94590714Y-72729642D01*
X94519285Y-72658214D01*
X94519285Y-72158214D01*
X94805000Y-72158214D01*
X93876428Y-72801071D02*
X93876428Y-71301071D01*
X93019285Y-72801071D01*
X93019285Y-71301071D01*
X92305000Y-72801071D02*
X92305000Y-71301071D01*
X91947857Y-71301071D01*
X91733571Y-71372500D01*
X91590714Y-71515357D01*
X91519285Y-71658214D01*
X91447857Y-71943928D01*
X91447857Y-72158214D01*
X91519285Y-72443928D01*
X91590714Y-72586785D01*
X91733571Y-72729642D01*
X91947857Y-72801071D01*
X92305000Y-72801071D01*
X94178571Y-58107142D02*
X93964285Y-58178571D01*
X93607142Y-58178571D01*
X93464285Y-58107142D01*
X93392857Y-58035714D01*
X93321428Y-57892857D01*
X93321428Y-57750000D01*
X93392857Y-57607142D01*
X93464285Y-57535714D01*
X93607142Y-57464285D01*
X93892857Y-57392857D01*
X94035714Y-57321428D01*
X94107142Y-57250000D01*
X94178571Y-57107142D01*
X94178571Y-56964285D01*
X94107142Y-56821428D01*
X94035714Y-56750000D01*
X93892857Y-56678571D01*
X93535714Y-56678571D01*
X93321428Y-56750000D01*
X92107142Y-58107142D02*
X92250000Y-58178571D01*
X92535714Y-58178571D01*
X92678571Y-58107142D01*
X92750000Y-57964285D01*
X92750000Y-57392857D01*
X92678571Y-57250000D01*
X92535714Y-57178571D01*
X92250000Y-57178571D01*
X92107142Y-57250000D01*
X92035714Y-57392857D01*
X92035714Y-57535714D01*
X92750000Y-57678571D01*
X91178571Y-58178571D02*
X91321428Y-58107142D01*
X91392857Y-57964285D01*
X91392857Y-56678571D01*
X90035714Y-58107142D02*
X90178571Y-58178571D01*
X90464285Y-58178571D01*
X90607142Y-58107142D01*
X90678571Y-57964285D01*
X90678571Y-57392857D01*
X90607142Y-57250000D01*
X90464285Y-57178571D01*
X90178571Y-57178571D01*
X90035714Y-57250000D01*
X89964285Y-57392857D01*
X89964285Y-57535714D01*
X90678571Y-57678571D01*
X88678571Y-58107142D02*
X88821428Y-58178571D01*
X89107142Y-58178571D01*
X89250000Y-58107142D01*
X89321428Y-58035714D01*
X89392857Y-57892857D01*
X89392857Y-57464285D01*
X89321428Y-57321428D01*
X89250000Y-57250000D01*
X89107142Y-57178571D01*
X88821428Y-57178571D01*
X88678571Y-57250000D01*
X88250000Y-57178571D02*
X87678571Y-57178571D01*
X88035714Y-56678571D02*
X88035714Y-57964285D01*
X87964285Y-58107142D01*
X87821428Y-58178571D01*
X87678571Y-58178571D01*
D10*
X79857142Y-68392857D02*
X79357142Y-68392857D01*
X79142857Y-69178571D02*
X79857142Y-69178571D01*
X79857142Y-67678571D01*
X79142857Y-67678571D01*
X77642857Y-69035714D02*
X77714285Y-69107142D01*
X77928571Y-69178571D01*
X78071428Y-69178571D01*
X78285714Y-69107142D01*
X78428571Y-68964285D01*
X78500000Y-68821428D01*
X78571428Y-68535714D01*
X78571428Y-68321428D01*
X78500000Y-68035714D01*
X78428571Y-67892857D01*
X78285714Y-67750000D01*
X78071428Y-67678571D01*
X77928571Y-67678571D01*
X77714285Y-67750000D01*
X77642857Y-67821428D01*
X76714285Y-67678571D02*
X76428571Y-67678571D01*
X76285714Y-67750000D01*
X76142857Y-67892857D01*
X76071428Y-68178571D01*
X76071428Y-68678571D01*
X76142857Y-68964285D01*
X76285714Y-69107142D01*
X76428571Y-69178571D01*
X76714285Y-69178571D01*
X76857142Y-69107142D01*
X77000000Y-68964285D01*
X77071428Y-68678571D01*
X77071428Y-68178571D01*
X77000000Y-67892857D01*
X76857142Y-67750000D01*
X76714285Y-67678571D01*
X81107142Y-84107142D02*
X79964285Y-84107142D01*
X78464285Y-84678571D02*
X79321428Y-84678571D01*
X78892857Y-84678571D02*
X78892857Y-83178571D01*
X79035714Y-83392857D01*
X79178571Y-83535714D01*
X79321428Y-83607142D01*
X77607142Y-83178571D02*
X77750000Y-83250000D01*
X77821428Y-83392857D01*
X77750000Y-83535714D01*
X77607142Y-83607142D01*
X77464285Y-83535714D01*
X77392857Y-83392857D01*
X77464285Y-83250000D01*
X77607142Y-83178571D01*
X75821428Y-84535714D02*
X75892857Y-84607142D01*
X76107142Y-84678571D01*
X76250000Y-84678571D01*
X76464285Y-84607142D01*
X76607142Y-84464285D01*
X76678571Y-84321428D01*
X76750000Y-84035714D01*
X76750000Y-83821428D01*
X76678571Y-83535714D01*
X76607142Y-83392857D01*
X76464285Y-83250000D01*
X76250000Y-83178571D01*
X76107142Y-83178571D01*
X75892857Y-83250000D01*
X75821428Y-83321428D01*
X79321428Y-92035714D02*
X79392857Y-92107142D01*
X79607142Y-92178571D01*
X79750000Y-92178571D01*
X79964285Y-92107142D01*
X80107142Y-91964285D01*
X80178571Y-91821428D01*
X80250000Y-91535714D01*
X80250000Y-91321428D01*
X80178571Y-91035714D01*
X80107142Y-90892857D01*
X79964285Y-90750000D01*
X79750000Y-90678571D01*
X79607142Y-90678571D01*
X79392857Y-90750000D01*
X79321428Y-90821428D01*
X78464285Y-92178571D02*
X78607142Y-92107142D01*
X78678571Y-92035714D01*
X78750000Y-91892857D01*
X78750000Y-91464285D01*
X78678571Y-91321428D01*
X78607142Y-91250000D01*
X78464285Y-91178571D01*
X78250000Y-91178571D01*
X78107142Y-91250000D01*
X78035714Y-91321428D01*
X77964285Y-91464285D01*
X77964285Y-91892857D01*
X78035714Y-92035714D01*
X78107142Y-92107142D01*
X78250000Y-92178571D01*
X78464285Y-92178571D01*
X77321428Y-91178571D02*
X77321428Y-92178571D01*
X77321428Y-91321428D02*
X77250000Y-91250000D01*
X77107142Y-91178571D01*
X76892857Y-91178571D01*
X76750000Y-91250000D01*
X76678571Y-91392857D01*
X76678571Y-92178571D01*
X76178571Y-91178571D02*
X75607142Y-91178571D01*
X75964285Y-92178571D02*
X75964285Y-90892857D01*
X75892857Y-90750000D01*
X75750000Y-90678571D01*
X75607142Y-90678571D01*
D12*
X110357142Y-58178571D02*
X110857142Y-57464285D01*
X111214285Y-58178571D02*
X111214285Y-56678571D01*
X110642857Y-56678571D01*
X110500000Y-56750000D01*
X110428571Y-56821428D01*
X110357142Y-56964285D01*
X110357142Y-57178571D01*
X110428571Y-57321428D01*
X110500000Y-57392857D01*
X110642857Y-57464285D01*
X111214285Y-57464285D01*
X109142857Y-58107142D02*
X109285714Y-58178571D01*
X109571428Y-58178571D01*
X109714285Y-58107142D01*
X109785714Y-57964285D01*
X109785714Y-57392857D01*
X109714285Y-57250000D01*
X109571428Y-57178571D01*
X109285714Y-57178571D01*
X109142857Y-57250000D01*
X109071428Y-57392857D01*
X109071428Y-57535714D01*
X109785714Y-57678571D01*
X108500000Y-58107142D02*
X108357142Y-58178571D01*
X108071428Y-58178571D01*
X107928571Y-58107142D01*
X107857142Y-57964285D01*
X107857142Y-57892857D01*
X107928571Y-57750000D01*
X108071428Y-57678571D01*
X108285714Y-57678571D01*
X108428571Y-57607142D01*
X108500000Y-57464285D01*
X108500000Y-57392857D01*
X108428571Y-57250000D01*
X108285714Y-57178571D01*
X108071428Y-57178571D01*
X107928571Y-57250000D01*
X106642857Y-58107142D02*
X106785714Y-58178571D01*
X107071428Y-58178571D01*
X107214285Y-58107142D01*
X107285714Y-57964285D01*
X107285714Y-57392857D01*
X107214285Y-57250000D01*
X107071428Y-57178571D01*
X106785714Y-57178571D01*
X106642857Y-57250000D01*
X106571428Y-57392857D01*
X106571428Y-57535714D01*
X107285714Y-57678571D01*
X106142857Y-57178571D02*
X105571428Y-57178571D01*
X105928571Y-56678571D02*
X105928571Y-57964285D01*
X105857142Y-58107142D01*
X105714285Y-58178571D01*
X105571428Y-58178571D01*
D10*
X81107142Y-76107142D02*
X79964285Y-76107142D01*
X79321428Y-75321428D02*
X79250000Y-75250000D01*
X79107142Y-75178571D01*
X78750000Y-75178571D01*
X78607142Y-75250000D01*
X78535714Y-75321428D01*
X78464285Y-75464285D01*
X78464285Y-75607142D01*
X78535714Y-75821428D01*
X79392857Y-76678571D01*
X78464285Y-76678571D01*
X77607142Y-75178571D02*
X77750000Y-75250000D01*
X77821428Y-75392857D01*
X77750000Y-75535714D01*
X77607142Y-75607142D01*
X77464285Y-75535714D01*
X77392857Y-75392857D01*
X77464285Y-75250000D01*
X77607142Y-75178571D01*
X75821428Y-76535714D02*
X75892857Y-76607142D01*
X76107142Y-76678571D01*
X76250000Y-76678571D01*
X76464285Y-76607142D01*
X76607142Y-76464285D01*
X76678571Y-76321428D01*
X76750000Y-76035714D01*
X76750000Y-75821428D01*
X76678571Y-75535714D01*
X76607142Y-75392857D01*
X76464285Y-75250000D01*
X76250000Y-75178571D01*
X76107142Y-75178571D01*
X75892857Y-75250000D01*
X75821428Y-75321428D01*
D12*
X83750000Y-97607142D02*
X83535714Y-97678571D01*
X83178571Y-97678571D01*
X83035714Y-97607142D01*
X82964285Y-97535714D01*
X82892857Y-97392857D01*
X82892857Y-97250000D01*
X82964285Y-97107142D01*
X83035714Y-97035714D01*
X83178571Y-96964285D01*
X83464285Y-96892857D01*
X83607142Y-96821428D01*
X83678571Y-96750000D01*
X83750000Y-96607142D01*
X83750000Y-96464285D01*
X83678571Y-96321428D01*
X83607142Y-96250000D01*
X83464285Y-96178571D01*
X83107142Y-96178571D01*
X82892857Y-96250000D01*
X82464285Y-96678571D02*
X81892857Y-96678571D01*
X82250000Y-96178571D02*
X82250000Y-97464285D01*
X82178571Y-97607142D01*
X82035714Y-97678571D01*
X81892857Y-97678571D01*
X80750000Y-97678571D02*
X80750000Y-96892857D01*
X80821428Y-96750000D01*
X80964285Y-96678571D01*
X81250000Y-96678571D01*
X81392857Y-96750000D01*
X80750000Y-97607142D02*
X80892857Y-97678571D01*
X81250000Y-97678571D01*
X81392857Y-97607142D01*
X81464285Y-97464285D01*
X81464285Y-97321428D01*
X81392857Y-97178571D01*
X81250000Y-97107142D01*
X80892857Y-97107142D01*
X80750000Y-97035714D01*
X80250000Y-96678571D02*
X79678571Y-96678571D01*
X80035714Y-96178571D02*
X80035714Y-97464285D01*
X79964285Y-97607142D01*
X79821428Y-97678571D01*
X79678571Y-97678571D01*
X78535714Y-96678571D02*
X78535714Y-97678571D01*
X79178571Y-96678571D02*
X79178571Y-97464285D01*
X79107142Y-97607142D01*
X78964285Y-97678571D01*
X78750000Y-97678571D01*
X78607142Y-97607142D01*
X78535714Y-97535714D01*
X77892857Y-97607142D02*
X77750000Y-97678571D01*
X77464285Y-97678571D01*
X77321428Y-97607142D01*
X77250000Y-97464285D01*
X77250000Y-97392857D01*
X77321428Y-97250000D01*
X77464285Y-97178571D01*
X77678571Y-97178571D01*
X77821428Y-97107142D01*
X77892857Y-96964285D01*
X77892857Y-96892857D01*
X77821428Y-96750000D01*
X77678571Y-96678571D01*
X77464285Y-96678571D01*
X77321428Y-96750000D01*
X95162142Y-76641071D02*
X96019285Y-76641071D01*
X95590714Y-76641071D02*
X95590714Y-75141071D01*
X95733571Y-75355357D01*
X95876428Y-75498214D01*
X96019285Y-75569642D01*
X93376428Y-76069642D02*
X92233571Y-76069642D01*
X90376428Y-76069642D02*
X89233571Y-76069642D01*
X89805000Y-76641071D02*
X89805000Y-75498214D01*
X87805000Y-75141071D02*
X88519285Y-75141071D01*
X88590714Y-75855357D01*
X88519285Y-75783928D01*
X88376428Y-75712500D01*
X88019285Y-75712500D01*
X87876428Y-75783928D01*
X87805000Y-75855357D01*
X87733571Y-75998214D01*
X87733571Y-76355357D01*
X87805000Y-76498214D01*
X87876428Y-76569642D01*
X88019285Y-76641071D01*
X88376428Y-76641071D01*
X88519285Y-76569642D01*
X88590714Y-76498214D01*
X87305000Y-75141071D02*
X86805000Y-76641071D01*
X86305000Y-75141071D01*
X96019285Y-77698928D02*
X95947857Y-77627500D01*
X95805000Y-77556071D01*
X95447857Y-77556071D01*
X95305000Y-77627500D01*
X95233571Y-77698928D01*
X95162142Y-77841785D01*
X95162142Y-77984642D01*
X95233571Y-78198928D01*
X96090714Y-79056071D01*
X95162142Y-79056071D01*
X93376428Y-78484642D02*
X92233571Y-78484642D01*
X90447857Y-78984642D02*
X90233571Y-79056071D01*
X89876428Y-79056071D01*
X89733571Y-78984642D01*
X89662142Y-78913214D01*
X89590714Y-78770357D01*
X89590714Y-78627500D01*
X89662142Y-78484642D01*
X89733571Y-78413214D01*
X89876428Y-78341785D01*
X90162142Y-78270357D01*
X90305000Y-78198928D01*
X90376428Y-78127500D01*
X90447857Y-77984642D01*
X90447857Y-77841785D01*
X90376428Y-77698928D01*
X90305000Y-77627500D01*
X90162142Y-77556071D01*
X89805000Y-77556071D01*
X89590714Y-77627500D01*
X88090714Y-78913214D02*
X88162142Y-78984642D01*
X88376428Y-79056071D01*
X88519285Y-79056071D01*
X88733571Y-78984642D01*
X88876428Y-78841785D01*
X88947857Y-78698928D01*
X89019285Y-78413214D01*
X89019285Y-78198928D01*
X88947857Y-77913214D01*
X88876428Y-77770357D01*
X88733571Y-77627500D01*
X88519285Y-77556071D01*
X88376428Y-77556071D01*
X88162142Y-77627500D01*
X88090714Y-77698928D01*
X86733571Y-79056071D02*
X87447857Y-79056071D01*
X87447857Y-77556071D01*
X96090714Y-79971071D02*
X95162142Y-79971071D01*
X95662142Y-80542500D01*
X95447857Y-80542500D01*
X95305000Y-80613928D01*
X95233571Y-80685357D01*
X95162142Y-80828214D01*
X95162142Y-81185357D01*
X95233571Y-81328214D01*
X95305000Y-81399642D01*
X95447857Y-81471071D01*
X95876428Y-81471071D01*
X96019285Y-81399642D01*
X96090714Y-81328214D01*
X93376428Y-80899642D02*
X92233571Y-80899642D01*
X90447857Y-81399642D02*
X90233571Y-81471071D01*
X89876428Y-81471071D01*
X89733571Y-81399642D01*
X89662142Y-81328214D01*
X89590714Y-81185357D01*
X89590714Y-81042500D01*
X89662142Y-80899642D01*
X89733571Y-80828214D01*
X89876428Y-80756785D01*
X90162142Y-80685357D01*
X90305000Y-80613928D01*
X90376428Y-80542500D01*
X90447857Y-80399642D01*
X90447857Y-80256785D01*
X90376428Y-80113928D01*
X90305000Y-80042500D01*
X90162142Y-79971071D01*
X89805000Y-79971071D01*
X89590714Y-80042500D01*
X88947857Y-81471071D02*
X88947857Y-79971071D01*
X88590714Y-79971071D01*
X88376428Y-80042500D01*
X88233571Y-80185357D01*
X88162142Y-80328214D01*
X88090714Y-80613928D01*
X88090714Y-80828214D01*
X88162142Y-81113928D01*
X88233571Y-81256785D01*
X88376428Y-81399642D01*
X88590714Y-81471071D01*
X88947857Y-81471071D01*
X87519285Y-81042500D02*
X86805000Y-81042500D01*
X87662142Y-81471071D02*
X87162142Y-79971071D01*
X86662142Y-81471071D01*
X95305000Y-82886071D02*
X95305000Y-83886071D01*
X95662142Y-82314642D02*
X96019285Y-83386071D01*
X95090714Y-83386071D01*
X93376428Y-83314642D02*
X92233571Y-83314642D01*
X89590714Y-82457500D02*
X89733571Y-82386071D01*
X89947857Y-82386071D01*
X90162142Y-82457500D01*
X90305000Y-82600357D01*
X90376428Y-82743214D01*
X90447857Y-83028928D01*
X90447857Y-83243214D01*
X90376428Y-83528928D01*
X90305000Y-83671785D01*
X90162142Y-83814642D01*
X89947857Y-83886071D01*
X89805000Y-83886071D01*
X89590714Y-83814642D01*
X89519285Y-83743214D01*
X89519285Y-83243214D01*
X89805000Y-83243214D01*
X88876428Y-83886071D02*
X88876428Y-82386071D01*
X88019285Y-83886071D01*
X88019285Y-82386071D01*
X87305000Y-83886071D02*
X87305000Y-82386071D01*
X86947857Y-82386071D01*
X86733571Y-82457500D01*
X86590714Y-82600357D01*
X86519285Y-82743214D01*
X86447857Y-83028928D01*
X86447857Y-83243214D01*
X86519285Y-83528928D01*
X86590714Y-83671785D01*
X86733571Y-83814642D01*
X86947857Y-83886071D01*
X87305000Y-83886071D01*
X95233571Y-84801071D02*
X95947857Y-84801071D01*
X96019285Y-85515357D01*
X95947857Y-85443928D01*
X95805000Y-85372500D01*
X95447857Y-85372500D01*
X95305000Y-85443928D01*
X95233571Y-85515357D01*
X95162142Y-85658214D01*
X95162142Y-86015357D01*
X95233571Y-86158214D01*
X95305000Y-86229642D01*
X95447857Y-86301071D01*
X95805000Y-86301071D01*
X95947857Y-86229642D01*
X96019285Y-86158214D01*
X93376428Y-85729642D02*
X92233571Y-85729642D01*
X90447857Y-85872500D02*
X89733571Y-85872500D01*
X90590714Y-86301071D02*
X90090714Y-84801071D01*
X89590714Y-86301071D01*
X89090714Y-86301071D02*
X89090714Y-84801071D01*
X88233571Y-86301071D01*
X88233571Y-84801071D01*
X87590714Y-85872500D02*
X86876428Y-85872500D01*
X87733571Y-86301071D02*
X87233571Y-84801071D01*
X86733571Y-86301071D01*
X95305000Y-87216071D02*
X95590714Y-87216071D01*
X95733571Y-87287500D01*
X95805000Y-87358928D01*
X95947857Y-87573214D01*
X96019285Y-87858928D01*
X96019285Y-88430357D01*
X95947857Y-88573214D01*
X95876428Y-88644642D01*
X95733571Y-88716071D01*
X95447857Y-88716071D01*
X95305000Y-88644642D01*
X95233571Y-88573214D01*
X95162142Y-88430357D01*
X95162142Y-88073214D01*
X95233571Y-87930357D01*
X95305000Y-87858928D01*
X95447857Y-87787500D01*
X95733571Y-87787500D01*
X95876428Y-87858928D01*
X95947857Y-87930357D01*
X96019285Y-88073214D01*
X93376428Y-88144642D02*
X92233571Y-88144642D01*
X90376428Y-88144642D02*
X89233571Y-88144642D01*
X89805000Y-88716071D02*
X89805000Y-87573214D01*
X88662142Y-87216071D02*
X87733571Y-87216071D01*
X88233571Y-87787500D01*
X88019285Y-87787500D01*
X87876428Y-87858928D01*
X87805000Y-87930357D01*
X87733571Y-88073214D01*
X87733571Y-88430357D01*
X87805000Y-88573214D01*
X87876428Y-88644642D01*
X88019285Y-88716071D01*
X88447857Y-88716071D01*
X88590714Y-88644642D01*
X88662142Y-88573214D01*
X87090714Y-88573214D02*
X87019285Y-88644642D01*
X87090714Y-88716071D01*
X87162142Y-88644642D01*
X87090714Y-88573214D01*
X87090714Y-88716071D01*
X86519285Y-87216071D02*
X85590714Y-87216071D01*
X86090714Y-87787500D01*
X85876428Y-87787500D01*
X85733571Y-87858928D01*
X85662142Y-87930357D01*
X85590714Y-88073214D01*
X85590714Y-88430357D01*
X85662142Y-88573214D01*
X85733571Y-88644642D01*
X85876428Y-88716071D01*
X86305000Y-88716071D01*
X86447857Y-88644642D01*
X86519285Y-88573214D01*
X85162142Y-87216071D02*
X84662142Y-88716071D01*
X84162142Y-87216071D01*
M02*
