G04 #@! TF.GenerationSoftware,KiCad,Pcbnew,(5.99.0-7069-gedfe80db3)*
G04 #@! TF.CreationDate,2020-11-19T11:38:25+01:00*
G04 #@! TF.ProjectId,CaptorBoard,43617074-6f72-4426-9f61-72642e6b6963,rev?*
G04 #@! TF.SameCoordinates,Original*
G04 #@! TF.FileFunction,Copper,L1,Top*
G04 #@! TF.FilePolarity,Positive*
%FSLAX46Y46*%
G04 Gerber Fmt 4.6, Leading zero omitted, Abs format (unit mm)*
G04 Created by KiCad (PCBNEW (5.99.0-7069-gedfe80db3)) date 2020-11-19 11:38:25*
%MOMM*%
%LPD*%
G01*
G04 APERTURE LIST*
G04 #@! TA.AperFunction,Profile*
%ADD10C,0.100000*%
G04 #@! TD*
G04 #@! TA.AperFunction,ComponentPad*
%ADD11C,1.800000*%
G04 #@! TD*
G04 #@! TA.AperFunction,ComponentPad*
%ADD12R,2.200000X2.200000*%
G04 #@! TD*
G04 #@! TA.AperFunction,ComponentPad*
%ADD13O,2.200000X2.200000*%
G04 #@! TD*
G04 #@! TA.AperFunction,SMDPad,CuDef*
%ADD14R,2.000000X2.500000*%
G04 #@! TD*
G04 #@! TA.AperFunction,SMDPad,CuDef*
%ADD15R,2.500000X2.000000*%
G04 #@! TD*
G04 #@! TA.AperFunction,ComponentPad*
%ADD16R,1.800000X1.800000*%
G04 #@! TD*
G04 #@! TA.AperFunction,ComponentPad*
%ADD17R,2.500000X2.500000*%
G04 #@! TD*
G04 #@! TA.AperFunction,ComponentPad*
%ADD18C,2.500000*%
G04 #@! TD*
G04 #@! TA.AperFunction,ComponentPad*
%ADD19C,2.200000*%
G04 #@! TD*
G04 #@! TA.AperFunction,ComponentPad*
%ADD20C,1.700000*%
G04 #@! TD*
G04 #@! TA.AperFunction,ComponentPad*
%ADD21R,1.727200X2.032000*%
G04 #@! TD*
G04 #@! TA.AperFunction,ComponentPad*
%ADD22O,1.727200X2.032000*%
G04 #@! TD*
G04 #@! TA.AperFunction,ComponentPad*
%ADD23R,2.300000X2.000000*%
G04 #@! TD*
G04 #@! TA.AperFunction,ComponentPad*
%ADD24C,2.300000*%
G04 #@! TD*
G04 #@! TA.AperFunction,ComponentPad*
%ADD25R,1.600000X1.600000*%
G04 #@! TD*
G04 #@! TA.AperFunction,ComponentPad*
%ADD26O,1.600000X1.600000*%
G04 #@! TD*
G04 #@! TA.AperFunction,ComponentPad*
%ADD27R,1.700000X1.700000*%
G04 #@! TD*
G04 #@! TA.AperFunction,ComponentPad*
%ADD28O,1.700000X1.700000*%
G04 #@! TD*
G04 #@! TA.AperFunction,SMDPad,CuDef*
%ADD29R,3.000000X2.400000*%
G04 #@! TD*
G04 #@! TA.AperFunction,ViaPad*
%ADD30C,0.820000*%
G04 #@! TD*
G04 #@! TA.AperFunction,Conductor*
%ADD31C,0.250000*%
G04 #@! TD*
G04 #@! TA.AperFunction,Conductor*
%ADD32C,2.000000*%
G04 #@! TD*
G04 #@! TA.AperFunction,Conductor*
%ADD33C,0.500000*%
G04 #@! TD*
G04 APERTURE END LIST*
D10*
X75000000Y-55000000D02*
X140000000Y-55000000D01*
X75000000Y-100000000D02*
X75000000Y-55000000D01*
X140000000Y-100000000D02*
X75000000Y-100000000D01*
X140000000Y-55000000D02*
X140000000Y-100000000D01*
D11*
X81070000Y-64610000D03*
X81070000Y-67150000D03*
X81070000Y-69690000D03*
X81070000Y-72230000D03*
X81070000Y-74770000D03*
X81070000Y-77310000D03*
X81070000Y-79850000D03*
X81070000Y-82390000D03*
X103930000Y-82390000D03*
X103930000Y-79850000D03*
X103930000Y-77310000D03*
X103930000Y-74770000D03*
X103930000Y-72230000D03*
X103930000Y-69690000D03*
X103930000Y-67150000D03*
X103930000Y-64610000D03*
D12*
X123500000Y-90500000D03*
D13*
X123500000Y-98120000D03*
D12*
X123500000Y-79000000D03*
D13*
X123500000Y-86620000D03*
D14*
X81500000Y-88000000D03*
X85500000Y-88000000D03*
D15*
X85500000Y-78500000D03*
X85500000Y-82500000D03*
X99000000Y-68500000D03*
X99000000Y-72500000D03*
X89500000Y-74000000D03*
X89500000Y-78000000D03*
X94500000Y-68500000D03*
X94500000Y-72500000D03*
D16*
X81000000Y-95500000D03*
D11*
X78460000Y-95500000D03*
D16*
X77000000Y-86460000D03*
D11*
X77000000Y-89000000D03*
D16*
X77500000Y-63500000D03*
D11*
X77500000Y-66040000D03*
D16*
X77000000Y-79000000D03*
D11*
X77000000Y-81540000D03*
D16*
X77000000Y-71000000D03*
D11*
X77000000Y-73540000D03*
D17*
X135500000Y-97500000D03*
D18*
X135500000Y-92500000D03*
X135500000Y-87500000D03*
X135500000Y-82500000D03*
D19*
X79250000Y-60000000D03*
X86250000Y-60000000D03*
D20*
X80500000Y-57500000D03*
X85000000Y-57500000D03*
D19*
X104250000Y-60500000D03*
X97250000Y-60500000D03*
D20*
X98500000Y-58000000D03*
X103000000Y-58000000D03*
D21*
X90000000Y-97000000D03*
D22*
X92540000Y-97000000D03*
X95080000Y-97000000D03*
X97620000Y-97000000D03*
D23*
X137000000Y-74000000D03*
D24*
X137000000Y-58800000D03*
X109000000Y-74000000D03*
X109000000Y-66400000D03*
D25*
X109500000Y-91500000D03*
D26*
X109500000Y-94040000D03*
X109500000Y-96580000D03*
X117120000Y-96580000D03*
X117120000Y-94040000D03*
X117120000Y-91500000D03*
D25*
X109500000Y-81500000D03*
D26*
X109500000Y-84040000D03*
X109500000Y-86580000D03*
X117120000Y-86580000D03*
X117120000Y-84040000D03*
X117120000Y-81500000D03*
D14*
X105000000Y-89500000D03*
X101000000Y-89500000D03*
X105000000Y-86000000D03*
X101000000Y-86000000D03*
D27*
X85000000Y-93500000D03*
D28*
X87540000Y-93500000D03*
X90080000Y-93500000D03*
X92620000Y-93500000D03*
X95160000Y-93500000D03*
X97700000Y-93500000D03*
D29*
X128000000Y-81070000D03*
X128000000Y-85930000D03*
D30*
X83500000Y-64500000D03*
X87000000Y-70000000D03*
X90500000Y-80335002D03*
D31*
X81070000Y-87930000D02*
X81000000Y-88000000D01*
X81500000Y-95000000D02*
X81000000Y-95500000D01*
X81500000Y-88000000D02*
X81500000Y-95000000D01*
X78150000Y-86460000D02*
X77000000Y-86460000D01*
X85500000Y-78500000D02*
X81500000Y-78500000D01*
X80481999Y-78624999D02*
X79000000Y-80106998D01*
X79000000Y-85610000D02*
X78150000Y-86460000D01*
X81500000Y-78500000D02*
X81375001Y-78624999D01*
X79000000Y-80106998D02*
X79000000Y-85610000D01*
X81375001Y-78624999D02*
X80481999Y-78624999D01*
X99000000Y-68500000D02*
X97500000Y-68500000D01*
X97500000Y-68500000D02*
X94924999Y-65924999D01*
X79924999Y-65924999D02*
X77500000Y-63500000D01*
X94924999Y-65924999D02*
X79924999Y-65924999D01*
X88000000Y-74000000D02*
X85915001Y-76084999D01*
X89500000Y-74000000D02*
X88000000Y-74000000D01*
X77000000Y-77850000D02*
X77000000Y-79000000D01*
X85915001Y-76084999D02*
X78765001Y-76084999D01*
X78765001Y-76084999D02*
X77000000Y-77850000D01*
X89000000Y-71000000D02*
X77000000Y-71000000D01*
X91500000Y-68500000D02*
X89000000Y-71000000D01*
X94500000Y-68500000D02*
X91500000Y-68500000D01*
D32*
X120000000Y-83219998D02*
X120000000Y-88620000D01*
X117120000Y-81500000D02*
X118280002Y-81500000D01*
X128000000Y-67800000D02*
X137000000Y-58800000D01*
X118280002Y-81500000D02*
X120000000Y-83219998D01*
X120000000Y-88620000D02*
X117120000Y-91500000D01*
X128000000Y-67800000D02*
X117120000Y-78680000D01*
X117120000Y-78680000D02*
X117120000Y-81500000D01*
X128000000Y-81200000D02*
X128000000Y-67800000D01*
X137000000Y-74000000D02*
X137000000Y-81000000D01*
X137000000Y-81000000D02*
X135500000Y-82500000D01*
D31*
X83500000Y-64500000D02*
X83500000Y-60500000D01*
X83500000Y-60500000D02*
X80500000Y-57500000D01*
D33*
X105800001Y-59597920D02*
X104202081Y-58000000D01*
X105800001Y-69173656D02*
X105800001Y-59597920D01*
X101500000Y-97000000D02*
X104500000Y-94000000D01*
X104500000Y-94000000D02*
X104540000Y-94040000D01*
X96256400Y-95484000D02*
X97620000Y-96847600D01*
X109000000Y-72373655D02*
X105800001Y-69173656D01*
X93235998Y-93500000D02*
X95219998Y-95484000D01*
X104202081Y-58000000D02*
X103000000Y-58000000D01*
X95219998Y-95484000D02*
X96256400Y-95484000D01*
X101650001Y-56650001D02*
X85849999Y-56650001D01*
X97620000Y-97000000D02*
X101500000Y-97000000D01*
X109000000Y-74000000D02*
X109000000Y-72373655D01*
X104540000Y-94040000D02*
X109500000Y-94040000D01*
X92620000Y-93500000D02*
X93235998Y-93500000D01*
X85849999Y-56650001D02*
X85000000Y-57500000D01*
X103000000Y-58000000D02*
X101650001Y-56650001D01*
X97620000Y-96847600D02*
X97620000Y-97000000D01*
X97620000Y-97000000D02*
X97620000Y-97152400D01*
D31*
X105155001Y-63452920D02*
X99702081Y-58000000D01*
X105155001Y-81164999D02*
X105155001Y-63452920D01*
X103930000Y-82390000D02*
X105155001Y-81164999D01*
X99702081Y-58000000D02*
X98500000Y-58000000D01*
X81070000Y-82390000D02*
X85500000Y-86820000D01*
X85500000Y-86820000D02*
X85500000Y-88000000D01*
X83720000Y-82500000D02*
X81070000Y-79850000D01*
X85500000Y-82500000D02*
X83720000Y-82500000D01*
X99270000Y-72230000D02*
X99000000Y-72500000D01*
X103930000Y-72230000D02*
X99270000Y-72230000D01*
X103930000Y-74770000D02*
X100730000Y-74770000D01*
X97500000Y-78000000D02*
X89500000Y-78000000D01*
X100730000Y-74770000D02*
X97500000Y-78000000D01*
X95160001Y-70589999D02*
X100490001Y-70589999D01*
X94500000Y-71250000D02*
X94500000Y-72500000D01*
X100490001Y-70589999D02*
X103930000Y-67150000D01*
X95160001Y-70589999D02*
X94500000Y-71250000D01*
X107500000Y-89500000D02*
X109500000Y-91500000D01*
X105000000Y-89500000D02*
X107500000Y-89500000D01*
X90500000Y-80335002D02*
X91664998Y-81500000D01*
X96000000Y-88000000D02*
X97500000Y-89500000D01*
X81070000Y-69690000D02*
X86690000Y-69690000D01*
X96000000Y-82500000D02*
X96000000Y-88000000D01*
X95000000Y-81500000D02*
X96000000Y-82500000D01*
X97500000Y-89500000D02*
X101000000Y-89500000D01*
X86690000Y-69690000D02*
X87000000Y-70000000D01*
X91664998Y-81500000D02*
X95000000Y-81500000D01*
X105000000Y-86000000D02*
X109500000Y-81500000D01*
X103930000Y-77310000D02*
X101000000Y-80240000D01*
X101000000Y-80240000D02*
X101000000Y-85750000D01*
D33*
X85000000Y-93500000D02*
X85000000Y-94850000D01*
X87150000Y-97000000D02*
X90000000Y-97000000D01*
X85000000Y-94850000D02*
X87150000Y-97000000D01*
D32*
X135500000Y-87500000D02*
X129570000Y-87500000D01*
X129570000Y-87500000D02*
X128000000Y-85930000D01*
M02*
