G04 #@! TF.GenerationSoftware,KiCad,Pcbnew,7.0.5-0*
G04 #@! TF.CreationDate,2023-07-10T19:12:56+02:00*
G04 #@! TF.ProjectId,CaptorBoard,43617074-6f72-4426-9f61-72642e6b6963,rev?*
G04 #@! TF.SameCoordinates,Original*
G04 #@! TF.FileFunction,Soldermask,Bot*
G04 #@! TF.FilePolarity,Negative*
%FSLAX46Y46*%
G04 Gerber Fmt 4.6, Leading zero omitted, Abs format (unit mm)*
G04 Created by KiCad (PCBNEW 7.0.5-0) date 2023-07-10 19:12:56*
%MOMM*%
%LPD*%
G01*
G04 APERTURE LIST*
%ADD10R,2.200000X2.200000*%
%ADD11O,2.200000X2.200000*%
%ADD12R,2.600000X2.600000*%
%ADD13C,2.600000*%
%ADD14C,2.200000*%
%ADD15C,1.700000*%
%ADD16R,1.600000X1.600000*%
%ADD17O,1.600000X1.600000*%
%ADD18R,1.700000X1.700000*%
%ADD19O,1.700000X1.700000*%
%ADD20C,1.800000*%
%ADD21R,2.500000X2.500000*%
%ADD22O,2.500000X2.500000*%
%ADD23C,1.650000*%
G04 #@! TA.AperFunction,Profile*
%ADD24C,0.100000*%
G04 #@! TD*
G04 APERTURE END LIST*
D10*
X172250000Y-55940000D03*
D11*
X172250000Y-63560000D03*
D10*
X160500000Y-63620000D03*
D11*
X160500000Y-56000000D03*
D12*
X179805000Y-63585000D03*
D13*
X179805000Y-58505000D03*
X179805000Y-53425000D03*
D14*
X100425000Y-98000000D03*
X100425000Y-91000000D03*
D15*
X97925000Y-96750000D03*
X97925000Y-92250000D03*
D14*
X100425000Y-59000000D03*
X100425000Y-52000000D03*
D15*
X97925000Y-57750000D03*
X97925000Y-53250000D03*
D16*
X163725000Y-63800000D03*
D17*
X166265000Y-63800000D03*
X168805000Y-63800000D03*
X168805000Y-56180000D03*
X166265000Y-56180000D03*
X163725000Y-56180000D03*
D16*
X152225000Y-63800000D03*
D17*
X154765000Y-63800000D03*
X157305000Y-63800000D03*
X157305000Y-56180000D03*
X154765000Y-56180000D03*
X152225000Y-56180000D03*
D18*
X111490600Y-97993200D03*
D19*
X114030600Y-97993200D03*
X116570600Y-97993200D03*
X119110600Y-97993200D03*
D20*
X138250000Y-51850000D03*
X145750000Y-54150000D03*
D18*
X124891800Y-97536000D03*
D19*
X124891800Y-94996000D03*
X127431800Y-97536000D03*
X127431800Y-94996000D03*
X129971800Y-97536000D03*
X129971800Y-94996000D03*
X132511800Y-97536000D03*
X132511800Y-94996000D03*
X135051800Y-97536000D03*
X135051800Y-94996000D03*
X137591800Y-97536000D03*
X137591800Y-94996000D03*
X140131800Y-97536000D03*
X140131800Y-94996000D03*
X142671800Y-97536000D03*
X142671800Y-94996000D03*
D21*
X153372500Y-73500000D03*
D22*
X155372500Y-79500000D03*
X167572500Y-79500000D03*
X167572500Y-67500000D03*
X155372500Y-67500000D03*
D12*
X179805000Y-96585000D03*
D13*
X179805000Y-91505000D03*
X179805000Y-86425000D03*
D23*
X146800000Y-59500000D03*
X141720000Y-59500000D03*
X136640000Y-79820000D03*
X146800000Y-79820000D03*
D12*
X179805000Y-80085000D03*
D13*
X179805000Y-75005000D03*
X179805000Y-69925000D03*
D21*
X153372500Y-91000000D03*
D22*
X155372500Y-97000000D03*
X167572500Y-97000000D03*
X167572500Y-85000000D03*
X155372500Y-85000000D03*
D24*
X95000000Y-50000000D02*
X185000000Y-50000000D01*
X95000000Y-100000000D02*
X95000000Y-50000000D01*
X185000000Y-100000000D02*
X95000000Y-100000000D01*
X185000000Y-50000000D02*
X185000000Y-100000000D01*
M02*
