G04 #@! TF.GenerationSoftware,KiCad,Pcbnew,(6.0.9)*
G04 #@! TF.CreationDate,2023-01-20T12:03:02+01:00*
G04 #@! TF.ProjectId,CaptorBoard,43617074-6f72-4426-9f61-72642e6b6963,rev?*
G04 #@! TF.SameCoordinates,Original*
G04 #@! TF.FileFunction,Soldermask,Top*
G04 #@! TF.FilePolarity,Negative*
%FSLAX46Y46*%
G04 Gerber Fmt 4.6, Leading zero omitted, Abs format (unit mm)*
G04 Created by KiCad (PCBNEW (6.0.9)) date 2023-01-20 12:03:02*
%MOMM*%
%LPD*%
G01*
G04 APERTURE LIST*
G04 Aperture macros list*
%AMRoundRect*
0 Rectangle with rounded corners*
0 $1 Rounding radius*
0 $2 $3 $4 $5 $6 $7 $8 $9 X,Y pos of 4 corners*
0 Add a 4 corners polygon primitive as box body*
4,1,4,$2,$3,$4,$5,$6,$7,$8,$9,$2,$3,0*
0 Add four circle primitives for the rounded corners*
1,1,$1+$1,$2,$3*
1,1,$1+$1,$4,$5*
1,1,$1+$1,$6,$7*
1,1,$1+$1,$8,$9*
0 Add four rect primitives between the rounded corners*
20,1,$1+$1,$2,$3,$4,$5,0*
20,1,$1+$1,$4,$5,$6,$7,0*
20,1,$1+$1,$6,$7,$8,$9,0*
20,1,$1+$1,$8,$9,$2,$3,0*%
G04 Aperture macros list end*
G04 #@! TA.AperFunction,Profile*
%ADD10C,0.100000*%
G04 #@! TD*
%ADD11R,0.900000X1.200000*%
%ADD12R,0.900000X1.500000*%
%ADD13R,1.500000X0.900000*%
%ADD14R,1.050000X1.050000*%
%ADD15R,2.200000X2.200000*%
%ADD16O,2.200000X2.200000*%
%ADD17RoundRect,0.250000X1.075000X-0.400000X1.075000X0.400000X-1.075000X0.400000X-1.075000X-0.400000X0*%
%ADD18RoundRect,0.250000X-1.075000X0.400000X-1.075000X-0.400000X1.075000X-0.400000X1.075000X0.400000X0*%
%ADD19RoundRect,0.250001X1.074999X-0.462499X1.074999X0.462499X-1.074999X0.462499X-1.074999X-0.462499X0*%
%ADD20R,2.600000X2.600000*%
%ADD21C,2.600000*%
%ADD22C,2.200000*%
%ADD23C,1.700000*%
%ADD24R,1.600000X1.600000*%
%ADD25O,1.600000X1.600000*%
%ADD26RoundRect,0.250000X0.400000X1.075000X-0.400000X1.075000X-0.400000X-1.075000X0.400000X-1.075000X0*%
%ADD27R,1.700000X1.700000*%
%ADD28O,1.700000X1.700000*%
%ADD29R,2.400000X3.000000*%
%ADD30RoundRect,0.250000X1.100000X-0.412500X1.100000X0.412500X-1.100000X0.412500X-1.100000X-0.412500X0*%
%ADD31R,1.750000X1.800000*%
%ADD32RoundRect,0.150000X0.150000X-0.587500X0.150000X0.587500X-0.150000X0.587500X-0.150000X-0.587500X0*%
%ADD33RoundRect,0.250000X-1.100000X0.412500X-1.100000X-0.412500X1.100000X-0.412500X1.100000X0.412500X0*%
%ADD34R,2.500000X2.500000*%
%ADD35O,2.500000X2.500000*%
%ADD36RoundRect,0.250001X-1.074999X0.462499X-1.074999X-0.462499X1.074999X-0.462499X1.074999X0.462499X0*%
%ADD37RoundRect,0.250000X-0.412500X-1.100000X0.412500X-1.100000X0.412500X1.100000X-0.412500X1.100000X0*%
%ADD38RoundRect,0.250000X-0.400000X-1.075000X0.400000X-1.075000X0.400000X1.075000X-0.400000X1.075000X0*%
%ADD39R,2.000000X1.500000*%
%ADD40R,2.000000X3.800000*%
%ADD41R,3.000000X3.000000*%
%ADD42C,3.000000*%
G04 APERTURE END LIST*
D10*
X95000000Y-50000000D02*
X190000000Y-50000000D01*
X95000000Y-100000000D02*
X95000000Y-50000000D01*
X190000000Y-100000000D02*
X95000000Y-100000000D01*
X190000000Y-50000000D02*
X190000000Y-100000000D01*
D11*
X135859000Y-86106000D03*
X139159000Y-86106000D03*
X121762000Y-86106000D03*
X125062000Y-86106000D03*
D12*
X96293000Y-82746000D03*
X97563000Y-82746000D03*
X98833000Y-82746000D03*
X100103000Y-82746000D03*
X101373000Y-82746000D03*
X102643000Y-82746000D03*
X103913000Y-82746000D03*
X105183000Y-82746000D03*
X106453000Y-82746000D03*
X107723000Y-82746000D03*
X108993000Y-82746000D03*
X110263000Y-82746000D03*
X111533000Y-82746000D03*
X112803000Y-82746000D03*
D13*
X114053000Y-79716000D03*
X114053000Y-78446000D03*
X114053000Y-77176000D03*
X114053000Y-75906000D03*
X114053000Y-74636000D03*
X114053000Y-73366000D03*
X114053000Y-72096000D03*
X114053000Y-70826000D03*
X114053000Y-69556000D03*
X114053000Y-68286000D03*
D12*
X112803000Y-65246000D03*
X111533000Y-65246000D03*
X110263000Y-65246000D03*
X108993000Y-65246000D03*
X107723000Y-65246000D03*
X106453000Y-65246000D03*
X105183000Y-65246000D03*
X103913000Y-65246000D03*
X102643000Y-65246000D03*
X101373000Y-65246000D03*
X100103000Y-65246000D03*
X98833000Y-65246000D03*
X97563000Y-65246000D03*
X96293000Y-65246000D03*
D14*
X105158000Y-76201000D03*
X102108000Y-74676000D03*
X102108000Y-76201000D03*
X103633000Y-74676000D03*
X105158000Y-74676000D03*
X103633000Y-73151000D03*
X103633000Y-76201000D03*
X105158000Y-73151000D03*
X102108000Y-73151000D03*
D15*
X179705000Y-75946000D03*
D16*
X187325000Y-75946000D03*
D15*
X187325000Y-71755000D03*
D16*
X179705000Y-71755000D03*
D17*
X103632000Y-98604000D03*
X103632000Y-95504000D03*
D18*
X113792000Y-58114000D03*
X113792000Y-61214000D03*
X103632000Y-58114000D03*
X103632000Y-61214000D03*
X110490000Y-58114000D03*
X110490000Y-61214000D03*
X107061000Y-58114000D03*
X107061000Y-61214000D03*
D19*
X106934000Y-98515500D03*
X106934000Y-95540500D03*
X113919000Y-54029000D03*
X113919000Y-51054000D03*
X103632000Y-54029000D03*
X103632000Y-51054000D03*
X110490000Y-54029000D03*
X110490000Y-51054000D03*
X107061000Y-54029000D03*
X107061000Y-51054000D03*
D20*
X184709000Y-97028000D03*
D21*
X184709000Y-91948000D03*
X184709000Y-86868000D03*
D22*
X100203000Y-52055000D03*
X100203000Y-59055000D03*
D23*
X97703000Y-57805000D03*
X97703000Y-53305000D03*
D22*
X100203000Y-90932000D03*
X100203000Y-97932000D03*
D23*
X97703000Y-96682000D03*
X97703000Y-92182000D03*
D24*
X177556000Y-61229000D03*
D25*
X177556000Y-63769000D03*
X177556000Y-66309000D03*
X185176000Y-66309000D03*
X185176000Y-63769000D03*
X185176000Y-61229000D03*
D24*
X177556000Y-52085000D03*
D25*
X177556000Y-54625000D03*
X177556000Y-57165000D03*
X185176000Y-57165000D03*
X185176000Y-54625000D03*
X185176000Y-52085000D03*
D26*
X162485000Y-51816000D03*
X159385000Y-51816000D03*
X155881000Y-51816000D03*
X152781000Y-51816000D03*
D27*
X148336000Y-85725000D03*
D28*
X148336000Y-88265000D03*
X148336000Y-90805000D03*
X148336000Y-93345000D03*
X148336000Y-95885000D03*
X148336000Y-98425000D03*
D29*
X181356000Y-80645000D03*
X186216000Y-80645000D03*
D30*
X125095000Y-93599000D03*
X125095000Y-90474000D03*
D27*
X118120000Y-98171000D03*
D28*
X120660000Y-98171000D03*
X123200000Y-98171000D03*
X125740000Y-98171000D03*
D17*
X113792000Y-98604000D03*
X113792000Y-95504000D03*
D31*
X107416000Y-88684500D03*
X104166000Y-88684500D03*
D18*
X118237000Y-90424000D03*
X118237000Y-93524000D03*
D32*
X141925000Y-87249000D03*
X143825000Y-87249000D03*
X142875000Y-85374000D03*
D33*
X101092000Y-85051500D03*
X101092000Y-88176500D03*
D32*
X127828000Y-87219000D03*
X129728000Y-87219000D03*
X128778000Y-85344000D03*
D34*
X141128000Y-81271500D03*
D35*
X147128000Y-79271500D03*
X147128000Y-67071500D03*
X135128000Y-67071500D03*
X135128000Y-79271500D03*
D20*
X129032000Y-55245000D03*
D21*
X123952000Y-55245000D03*
X118872000Y-55245000D03*
D36*
X135636000Y-89027000D03*
X135636000Y-92002000D03*
D26*
X99568000Y-62357000D03*
X96468000Y-62357000D03*
D27*
X129413000Y-98171000D03*
D28*
X131953000Y-98171000D03*
X134493000Y-98171000D03*
X137033000Y-98171000D03*
X139573000Y-98171000D03*
X142113000Y-98171000D03*
X144653000Y-98171000D03*
D37*
X167640000Y-51816000D03*
X170765000Y-51816000D03*
D17*
X118237000Y-88444000D03*
X118237000Y-85344000D03*
D38*
X104368000Y-85763500D03*
X107468000Y-85763500D03*
D18*
X132334000Y-90424000D03*
X132334000Y-93524000D03*
D33*
X110490000Y-85090000D03*
X110490000Y-88215000D03*
D17*
X132334000Y-88444000D03*
X132334000Y-85344000D03*
D39*
X138709000Y-89775000D03*
X138709000Y-92075000D03*
D40*
X145009000Y-92075000D03*
D39*
X138709000Y-94375000D03*
D41*
X161671000Y-95885000D03*
D42*
X172421000Y-95885000D03*
X172421000Y-57385000D03*
X164421000Y-57385000D03*
D33*
X97536000Y-85305500D03*
X97536000Y-88430500D03*
D20*
X146177000Y-55245000D03*
D21*
X141097000Y-55245000D03*
X136017000Y-55245000D03*
D34*
X123952000Y-81271500D03*
D35*
X129952000Y-79271500D03*
X129952000Y-67071500D03*
X117952000Y-67071500D03*
X117952000Y-79271500D03*
D30*
X110490000Y-98629000D03*
X110490000Y-95504000D03*
D36*
X121539000Y-89063500D03*
X121539000Y-92038500D03*
M02*
