G04 #@! TF.GenerationSoftware,KiCad,Pcbnew,(6.0.9)*
G04 #@! TF.CreationDate,2023-01-30T08:28:09+01:00*
G04 #@! TF.ProjectId,CaptorBoard,43617074-6f72-4426-9f61-72642e6b6963,rev?*
G04 #@! TF.SameCoordinates,Original*
G04 #@! TF.FileFunction,Legend,Top*
G04 #@! TF.FilePolarity,Positive*
%FSLAX46Y46*%
G04 Gerber Fmt 4.6, Leading zero omitted, Abs format (unit mm)*
G04 Created by KiCad (PCBNEW (6.0.9)) date 2023-01-30 08:28:09*
%MOMM*%
%LPD*%
G01*
G04 APERTURE LIST*
G04 #@! TA.AperFunction,Profile*
%ADD10C,0.100000*%
G04 #@! TD*
%ADD11C,0.150000*%
%ADD12C,0.120000*%
G04 APERTURE END LIST*
D10*
X95000000Y-50000000D02*
X190000000Y-50000000D01*
X95000000Y-100000000D02*
X95000000Y-50000000D01*
X190000000Y-100000000D02*
X95000000Y-100000000D01*
X190000000Y-50000000D02*
X190000000Y-100000000D01*
D11*
X112522095Y-84034380D02*
X112522095Y-84843904D01*
X112569714Y-84939142D01*
X112617333Y-84986761D01*
X112712571Y-85034380D01*
X112903047Y-85034380D01*
X112998285Y-84986761D01*
X113045904Y-84939142D01*
X113093523Y-84843904D01*
X113093523Y-84034380D01*
X114093523Y-85034380D02*
X113522095Y-85034380D01*
X113807809Y-85034380D02*
X113807809Y-84034380D01*
X113712571Y-84177238D01*
X113617333Y-84272476D01*
X113522095Y-84320095D01*
X177617380Y-76684095D02*
X176617380Y-76684095D01*
X176617380Y-76446000D01*
X176665000Y-76303142D01*
X176760238Y-76207904D01*
X176855476Y-76160285D01*
X177045952Y-76112666D01*
X177188809Y-76112666D01*
X177379285Y-76160285D01*
X177474523Y-76207904D01*
X177569761Y-76303142D01*
X177617380Y-76446000D01*
X177617380Y-76684095D01*
X177617380Y-75636476D02*
X177617380Y-75446000D01*
X177569761Y-75350761D01*
X177522142Y-75303142D01*
X177379285Y-75207904D01*
X177188809Y-75160285D01*
X176807857Y-75160285D01*
X176712619Y-75207904D01*
X176665000Y-75255523D01*
X176617380Y-75350761D01*
X176617380Y-75541238D01*
X176665000Y-75636476D01*
X176712619Y-75684095D01*
X176807857Y-75731714D01*
X177045952Y-75731714D01*
X177141190Y-75684095D01*
X177188809Y-75636476D01*
X177236428Y-75541238D01*
X177236428Y-75350761D01*
X177188809Y-75255523D01*
X177141190Y-75207904D01*
X177045952Y-75160285D01*
X179443095Y-74298380D02*
X179443095Y-73298380D01*
X180014523Y-74298380D02*
X179585952Y-73726952D01*
X180014523Y-73298380D02*
X179443095Y-73869809D01*
X177617380Y-72969285D02*
X176617380Y-72969285D01*
X176617380Y-72731190D01*
X176665000Y-72588333D01*
X176760238Y-72493095D01*
X176855476Y-72445476D01*
X177045952Y-72397857D01*
X177188809Y-72397857D01*
X177379285Y-72445476D01*
X177474523Y-72493095D01*
X177569761Y-72588333D01*
X177617380Y-72731190D01*
X177617380Y-72969285D01*
X177617380Y-71445476D02*
X177617380Y-72016904D01*
X177617380Y-71731190D02*
X176617380Y-71731190D01*
X176760238Y-71826428D01*
X176855476Y-71921666D01*
X176903095Y-72016904D01*
X176617380Y-70826428D02*
X176617380Y-70731190D01*
X176665000Y-70635952D01*
X176712619Y-70588333D01*
X176807857Y-70540714D01*
X176998333Y-70493095D01*
X177236428Y-70493095D01*
X177426904Y-70540714D01*
X177522142Y-70588333D01*
X177569761Y-70635952D01*
X177617380Y-70731190D01*
X177617380Y-70826428D01*
X177569761Y-70921666D01*
X177522142Y-70969285D01*
X177426904Y-71016904D01*
X177236428Y-71064523D01*
X176998333Y-71064523D01*
X176807857Y-71016904D01*
X176712619Y-70969285D01*
X176665000Y-70921666D01*
X176617380Y-70826428D01*
X187063095Y-74307380D02*
X187063095Y-73307380D01*
X187634523Y-74307380D02*
X187205952Y-73735952D01*
X187634523Y-73307380D02*
X187063095Y-73878809D01*
X103465333Y-94178380D02*
X103132000Y-93702190D01*
X102893904Y-94178380D02*
X102893904Y-93178380D01*
X103274857Y-93178380D01*
X103370095Y-93226000D01*
X103417714Y-93273619D01*
X103465333Y-93368857D01*
X103465333Y-93511714D01*
X103417714Y-93606952D01*
X103370095Y-93654571D01*
X103274857Y-93702190D01*
X102893904Y-93702190D01*
X103798666Y-93178380D02*
X104465333Y-93178380D01*
X104036761Y-94178380D01*
X113625333Y-63444380D02*
X113292000Y-62968190D01*
X113053904Y-63444380D02*
X113053904Y-62444380D01*
X113434857Y-62444380D01*
X113530095Y-62492000D01*
X113577714Y-62539619D01*
X113625333Y-62634857D01*
X113625333Y-62777714D01*
X113577714Y-62872952D01*
X113530095Y-62920571D01*
X113434857Y-62968190D01*
X113053904Y-62968190D01*
X114196761Y-62872952D02*
X114101523Y-62825333D01*
X114053904Y-62777714D01*
X114006285Y-62682476D01*
X114006285Y-62634857D01*
X114053904Y-62539619D01*
X114101523Y-62492000D01*
X114196761Y-62444380D01*
X114387238Y-62444380D01*
X114482476Y-62492000D01*
X114530095Y-62539619D01*
X114577714Y-62634857D01*
X114577714Y-62682476D01*
X114530095Y-62777714D01*
X114482476Y-62825333D01*
X114387238Y-62872952D01*
X114196761Y-62872952D01*
X114101523Y-62920571D01*
X114053904Y-62968190D01*
X114006285Y-63063428D01*
X114006285Y-63253904D01*
X114053904Y-63349142D01*
X114101523Y-63396761D01*
X114196761Y-63444380D01*
X114387238Y-63444380D01*
X114482476Y-63396761D01*
X114530095Y-63349142D01*
X114577714Y-63253904D01*
X114577714Y-63063428D01*
X114530095Y-62968190D01*
X114482476Y-62920571D01*
X114387238Y-62872952D01*
X103465333Y-63444380D02*
X103132000Y-62968190D01*
X102893904Y-63444380D02*
X102893904Y-62444380D01*
X103274857Y-62444380D01*
X103370095Y-62492000D01*
X103417714Y-62539619D01*
X103465333Y-62634857D01*
X103465333Y-62777714D01*
X103417714Y-62872952D01*
X103370095Y-62920571D01*
X103274857Y-62968190D01*
X102893904Y-62968190D01*
X103941523Y-63444380D02*
X104132000Y-63444380D01*
X104227238Y-63396761D01*
X104274857Y-63349142D01*
X104370095Y-63206285D01*
X104417714Y-63015809D01*
X104417714Y-62634857D01*
X104370095Y-62539619D01*
X104322476Y-62492000D01*
X104227238Y-62444380D01*
X104036761Y-62444380D01*
X103941523Y-62492000D01*
X103893904Y-62539619D01*
X103846285Y-62634857D01*
X103846285Y-62872952D01*
X103893904Y-62968190D01*
X103941523Y-63015809D01*
X104036761Y-63063428D01*
X104227238Y-63063428D01*
X104322476Y-63015809D01*
X104370095Y-62968190D01*
X104417714Y-62872952D01*
X109847142Y-63444380D02*
X109513809Y-62968190D01*
X109275714Y-63444380D02*
X109275714Y-62444380D01*
X109656666Y-62444380D01*
X109751904Y-62492000D01*
X109799523Y-62539619D01*
X109847142Y-62634857D01*
X109847142Y-62777714D01*
X109799523Y-62872952D01*
X109751904Y-62920571D01*
X109656666Y-62968190D01*
X109275714Y-62968190D01*
X110799523Y-63444380D02*
X110228095Y-63444380D01*
X110513809Y-63444380D02*
X110513809Y-62444380D01*
X110418571Y-62587238D01*
X110323333Y-62682476D01*
X110228095Y-62730095D01*
X111418571Y-62444380D02*
X111513809Y-62444380D01*
X111609047Y-62492000D01*
X111656666Y-62539619D01*
X111704285Y-62634857D01*
X111751904Y-62825333D01*
X111751904Y-63063428D01*
X111704285Y-63253904D01*
X111656666Y-63349142D01*
X111609047Y-63396761D01*
X111513809Y-63444380D01*
X111418571Y-63444380D01*
X111323333Y-63396761D01*
X111275714Y-63349142D01*
X111228095Y-63253904D01*
X111180476Y-63063428D01*
X111180476Y-62825333D01*
X111228095Y-62634857D01*
X111275714Y-62539619D01*
X111323333Y-62492000D01*
X111418571Y-62444380D01*
X106545142Y-63444380D02*
X106211809Y-62968190D01*
X105973714Y-63444380D02*
X105973714Y-62444380D01*
X106354666Y-62444380D01*
X106449904Y-62492000D01*
X106497523Y-62539619D01*
X106545142Y-62634857D01*
X106545142Y-62777714D01*
X106497523Y-62872952D01*
X106449904Y-62920571D01*
X106354666Y-62968190D01*
X105973714Y-62968190D01*
X107497523Y-63444380D02*
X106926095Y-63444380D01*
X107211809Y-63444380D02*
X107211809Y-62444380D01*
X107116571Y-62587238D01*
X107021333Y-62682476D01*
X106926095Y-62730095D01*
X108449904Y-63444380D02*
X107878476Y-63444380D01*
X108164190Y-63444380D02*
X108164190Y-62444380D01*
X108068952Y-62587238D01*
X107973714Y-62682476D01*
X107878476Y-62730095D01*
X106195904Y-94214880D02*
X106195904Y-93214880D01*
X106434000Y-93214880D01*
X106576857Y-93262500D01*
X106672095Y-93357738D01*
X106719714Y-93452976D01*
X106767333Y-93643452D01*
X106767333Y-93786309D01*
X106719714Y-93976785D01*
X106672095Y-94072023D01*
X106576857Y-94167261D01*
X106434000Y-94214880D01*
X106195904Y-94214880D01*
X107100666Y-93214880D02*
X107719714Y-93214880D01*
X107386380Y-93595833D01*
X107529238Y-93595833D01*
X107624476Y-93643452D01*
X107672095Y-93691071D01*
X107719714Y-93786309D01*
X107719714Y-94024404D01*
X107672095Y-94119642D01*
X107624476Y-94167261D01*
X107529238Y-94214880D01*
X107243523Y-94214880D01*
X107148285Y-94167261D01*
X107100666Y-94119642D01*
X113053904Y-56332380D02*
X113053904Y-55332380D01*
X113292000Y-55332380D01*
X113434857Y-55380000D01*
X113530095Y-55475238D01*
X113577714Y-55570476D01*
X113625333Y-55760952D01*
X113625333Y-55903809D01*
X113577714Y-56094285D01*
X113530095Y-56189523D01*
X113434857Y-56284761D01*
X113292000Y-56332380D01*
X113053904Y-56332380D01*
X114482476Y-55665714D02*
X114482476Y-56332380D01*
X114244380Y-55284761D02*
X114006285Y-55999047D01*
X114625333Y-55999047D01*
X102893904Y-56332380D02*
X102893904Y-55332380D01*
X103132000Y-55332380D01*
X103274857Y-55380000D01*
X103370095Y-55475238D01*
X103417714Y-55570476D01*
X103465333Y-55760952D01*
X103465333Y-55903809D01*
X103417714Y-56094285D01*
X103370095Y-56189523D01*
X103274857Y-56284761D01*
X103132000Y-56332380D01*
X102893904Y-56332380D01*
X104370095Y-55332380D02*
X103893904Y-55332380D01*
X103846285Y-55808571D01*
X103893904Y-55760952D01*
X103989142Y-55713333D01*
X104227238Y-55713333D01*
X104322476Y-55760952D01*
X104370095Y-55808571D01*
X104417714Y-55903809D01*
X104417714Y-56141904D01*
X104370095Y-56237142D01*
X104322476Y-56284761D01*
X104227238Y-56332380D01*
X103989142Y-56332380D01*
X103893904Y-56284761D01*
X103846285Y-56237142D01*
X109751904Y-56332380D02*
X109751904Y-55332380D01*
X109990000Y-55332380D01*
X110132857Y-55380000D01*
X110228095Y-55475238D01*
X110275714Y-55570476D01*
X110323333Y-55760952D01*
X110323333Y-55903809D01*
X110275714Y-56094285D01*
X110228095Y-56189523D01*
X110132857Y-56284761D01*
X109990000Y-56332380D01*
X109751904Y-56332380D01*
X111180476Y-55332380D02*
X110990000Y-55332380D01*
X110894761Y-55380000D01*
X110847142Y-55427619D01*
X110751904Y-55570476D01*
X110704285Y-55760952D01*
X110704285Y-56141904D01*
X110751904Y-56237142D01*
X110799523Y-56284761D01*
X110894761Y-56332380D01*
X111085238Y-56332380D01*
X111180476Y-56284761D01*
X111228095Y-56237142D01*
X111275714Y-56141904D01*
X111275714Y-55903809D01*
X111228095Y-55808571D01*
X111180476Y-55760952D01*
X111085238Y-55713333D01*
X110894761Y-55713333D01*
X110799523Y-55760952D01*
X110751904Y-55808571D01*
X110704285Y-55903809D01*
X106195904Y-56332380D02*
X106195904Y-55332380D01*
X106434000Y-55332380D01*
X106576857Y-55380000D01*
X106672095Y-55475238D01*
X106719714Y-55570476D01*
X106767333Y-55760952D01*
X106767333Y-55903809D01*
X106719714Y-56094285D01*
X106672095Y-56189523D01*
X106576857Y-56284761D01*
X106434000Y-56332380D01*
X106195904Y-56332380D01*
X107100666Y-55332380D02*
X107767333Y-55332380D01*
X107338761Y-56332380D01*
X177506380Y-92535333D02*
X178220666Y-92535333D01*
X178363523Y-92582952D01*
X178458761Y-92678190D01*
X178506380Y-92821047D01*
X178506380Y-92916285D01*
X177601619Y-92106761D02*
X177554000Y-92059142D01*
X177506380Y-91963904D01*
X177506380Y-91725809D01*
X177554000Y-91630571D01*
X177601619Y-91582952D01*
X177696857Y-91535333D01*
X177792095Y-91535333D01*
X177934952Y-91582952D01*
X178506380Y-92154380D01*
X178506380Y-91535333D01*
X100607761Y-56888333D02*
X100655380Y-56745476D01*
X100655380Y-56507380D01*
X100607761Y-56412142D01*
X100560142Y-56364523D01*
X100464904Y-56316904D01*
X100369666Y-56316904D01*
X100274428Y-56364523D01*
X100226809Y-56412142D01*
X100179190Y-56507380D01*
X100131571Y-56697857D01*
X100083952Y-56793095D01*
X100036333Y-56840714D01*
X99941095Y-56888333D01*
X99845857Y-56888333D01*
X99750619Y-56840714D01*
X99703000Y-56793095D01*
X99655380Y-56697857D01*
X99655380Y-56459761D01*
X99703000Y-56316904D01*
X99655380Y-55983571D02*
X100655380Y-55745476D01*
X99941095Y-55555000D01*
X100655380Y-55364523D01*
X99655380Y-55126428D01*
X100655380Y-54221666D02*
X100655380Y-54793095D01*
X100655380Y-54507380D02*
X99655380Y-54507380D01*
X99798238Y-54602619D01*
X99893476Y-54697857D01*
X99941095Y-54793095D01*
X100607761Y-95765333D02*
X100655380Y-95622476D01*
X100655380Y-95384380D01*
X100607761Y-95289142D01*
X100560142Y-95241523D01*
X100464904Y-95193904D01*
X100369666Y-95193904D01*
X100274428Y-95241523D01*
X100226809Y-95289142D01*
X100179190Y-95384380D01*
X100131571Y-95574857D01*
X100083952Y-95670095D01*
X100036333Y-95717714D01*
X99941095Y-95765333D01*
X99845857Y-95765333D01*
X99750619Y-95717714D01*
X99703000Y-95670095D01*
X99655380Y-95574857D01*
X99655380Y-95336761D01*
X99703000Y-95193904D01*
X99655380Y-94860571D02*
X100655380Y-94622476D01*
X99941095Y-94432000D01*
X100655380Y-94241523D01*
X99655380Y-94003428D01*
X99750619Y-93670095D02*
X99703000Y-93622476D01*
X99655380Y-93527238D01*
X99655380Y-93289142D01*
X99703000Y-93193904D01*
X99750619Y-93146285D01*
X99845857Y-93098666D01*
X99941095Y-93098666D01*
X100083952Y-93146285D01*
X100655380Y-93717714D01*
X100655380Y-93098666D01*
X187198095Y-62952380D02*
X187198095Y-63761904D01*
X187245714Y-63857142D01*
X187293333Y-63904761D01*
X187388571Y-63952380D01*
X187579047Y-63952380D01*
X187674285Y-63904761D01*
X187721904Y-63857142D01*
X187769523Y-63761904D01*
X187769523Y-62952380D01*
X188150476Y-62952380D02*
X188769523Y-62952380D01*
X188436190Y-63333333D01*
X188579047Y-63333333D01*
X188674285Y-63380952D01*
X188721904Y-63428571D01*
X188769523Y-63523809D01*
X188769523Y-63761904D01*
X188721904Y-63857142D01*
X188674285Y-63904761D01*
X188579047Y-63952380D01*
X188293333Y-63952380D01*
X188198095Y-63904761D01*
X188150476Y-63857142D01*
X187198095Y-54570380D02*
X187198095Y-55379904D01*
X187245714Y-55475142D01*
X187293333Y-55522761D01*
X187388571Y-55570380D01*
X187579047Y-55570380D01*
X187674285Y-55522761D01*
X187721904Y-55475142D01*
X187769523Y-55379904D01*
X187769523Y-54570380D01*
X188674285Y-54903714D02*
X188674285Y-55570380D01*
X188436190Y-54522761D02*
X188198095Y-55237047D01*
X188817142Y-55237047D01*
X164663380Y-52458857D02*
X164187190Y-52792190D01*
X164663380Y-53030285D02*
X163663380Y-53030285D01*
X163663380Y-52649333D01*
X163711000Y-52554095D01*
X163758619Y-52506476D01*
X163853857Y-52458857D01*
X163996714Y-52458857D01*
X164091952Y-52506476D01*
X164139571Y-52554095D01*
X164187190Y-52649333D01*
X164187190Y-53030285D01*
X164663380Y-51506476D02*
X164663380Y-52077904D01*
X164663380Y-51792190D02*
X163663380Y-51792190D01*
X163806238Y-51887428D01*
X163901476Y-51982666D01*
X163949095Y-52077904D01*
X163758619Y-51125523D02*
X163711000Y-51077904D01*
X163663380Y-50982666D01*
X163663380Y-50744571D01*
X163711000Y-50649333D01*
X163758619Y-50601714D01*
X163853857Y-50554095D01*
X163949095Y-50554095D01*
X164091952Y-50601714D01*
X164663380Y-51173142D01*
X164663380Y-50554095D01*
X158186380Y-52458857D02*
X157710190Y-52792190D01*
X158186380Y-53030285D02*
X157186380Y-53030285D01*
X157186380Y-52649333D01*
X157234000Y-52554095D01*
X157281619Y-52506476D01*
X157376857Y-52458857D01*
X157519714Y-52458857D01*
X157614952Y-52506476D01*
X157662571Y-52554095D01*
X157710190Y-52649333D01*
X157710190Y-53030285D01*
X158186380Y-51506476D02*
X158186380Y-52077904D01*
X158186380Y-51792190D02*
X157186380Y-51792190D01*
X157329238Y-51887428D01*
X157424476Y-51982666D01*
X157472095Y-52077904D01*
X157186380Y-51173142D02*
X157186380Y-50554095D01*
X157567333Y-50887428D01*
X157567333Y-50744571D01*
X157614952Y-50649333D01*
X157662571Y-50601714D01*
X157757809Y-50554095D01*
X157995904Y-50554095D01*
X158091142Y-50601714D01*
X158138761Y-50649333D01*
X158186380Y-50744571D01*
X158186380Y-51030285D01*
X158138761Y-51125523D01*
X158091142Y-51173142D01*
X144994380Y-87455333D02*
X145708666Y-87455333D01*
X145851523Y-87502952D01*
X145946761Y-87598190D01*
X145994380Y-87741047D01*
X145994380Y-87836285D01*
X145994380Y-86455333D02*
X145994380Y-87026761D01*
X145994380Y-86741047D02*
X144994380Y-86741047D01*
X145137238Y-86836285D01*
X145232476Y-86931523D01*
X145280095Y-87026761D01*
X188938571Y-80978333D02*
X188938571Y-81311666D01*
X189462380Y-81311666D02*
X188462380Y-81311666D01*
X188462380Y-80835476D01*
X189462380Y-79930714D02*
X189462380Y-80502142D01*
X189462380Y-80216428D02*
X188462380Y-80216428D01*
X188605238Y-80311666D01*
X188700476Y-80406904D01*
X188748095Y-80502142D01*
X103338333Y-84862942D02*
X103290714Y-84910561D01*
X103147857Y-84958180D01*
X103052619Y-84958180D01*
X102909761Y-84910561D01*
X102814523Y-84815323D01*
X102766904Y-84720085D01*
X102719285Y-84529609D01*
X102719285Y-84386752D01*
X102766904Y-84196276D01*
X102814523Y-84101038D01*
X102909761Y-84005800D01*
X103052619Y-83958180D01*
X103147857Y-83958180D01*
X103290714Y-84005800D01*
X103338333Y-84053419D01*
X104195476Y-84291514D02*
X104195476Y-84958180D01*
X103957380Y-83910561D02*
X103719285Y-84624847D01*
X104338333Y-84624847D01*
X121840666Y-95210380D02*
X121840666Y-95924666D01*
X121793047Y-96067523D01*
X121697809Y-96162761D01*
X121554952Y-96210380D01*
X121459714Y-96210380D01*
X122793047Y-95210380D02*
X122316857Y-95210380D01*
X122269238Y-95686571D01*
X122316857Y-95638952D01*
X122412095Y-95591333D01*
X122650190Y-95591333D01*
X122745428Y-95638952D01*
X122793047Y-95686571D01*
X122840666Y-95781809D01*
X122840666Y-96019904D01*
X122793047Y-96115142D01*
X122745428Y-96162761D01*
X122650190Y-96210380D01*
X122412095Y-96210380D01*
X122316857Y-96162761D01*
X122269238Y-96115142D01*
X113625333Y-94178380D02*
X113292000Y-93702190D01*
X113053904Y-94178380D02*
X113053904Y-93178380D01*
X113434857Y-93178380D01*
X113530095Y-93226000D01*
X113577714Y-93273619D01*
X113625333Y-93368857D01*
X113625333Y-93511714D01*
X113577714Y-93606952D01*
X113530095Y-93654571D01*
X113434857Y-93702190D01*
X113053904Y-93702190D01*
X114577714Y-94178380D02*
X114006285Y-94178380D01*
X114292000Y-94178380D02*
X114292000Y-93178380D01*
X114196761Y-93321238D01*
X114101523Y-93416476D01*
X114006285Y-93464095D01*
X108336809Y-84634390D02*
X108336809Y-85110580D01*
X108003476Y-84110580D02*
X108336809Y-84634390D01*
X108670142Y-84110580D01*
X109527285Y-85110580D02*
X108955857Y-85110580D01*
X109241571Y-85110580D02*
X109241571Y-84110580D01*
X109146333Y-84253438D01*
X109051095Y-84348676D01*
X108955857Y-84396295D01*
X117943333Y-95702380D02*
X117610000Y-95226190D01*
X117371904Y-95702380D02*
X117371904Y-94702380D01*
X117752857Y-94702380D01*
X117848095Y-94750000D01*
X117895714Y-94797619D01*
X117943333Y-94892857D01*
X117943333Y-95035714D01*
X117895714Y-95130952D01*
X117848095Y-95178571D01*
X117752857Y-95226190D01*
X117371904Y-95226190D01*
X118848095Y-94702380D02*
X118371904Y-94702380D01*
X118324285Y-95178571D01*
X118371904Y-95130952D01*
X118467142Y-95083333D01*
X118705238Y-95083333D01*
X118800476Y-95130952D01*
X118848095Y-95178571D01*
X118895714Y-95273809D01*
X118895714Y-95511904D01*
X118848095Y-95607142D01*
X118800476Y-95654761D01*
X118705238Y-95702380D01*
X118467142Y-95702380D01*
X118371904Y-95654761D01*
X118324285Y-95607142D01*
X145446761Y-85891619D02*
X145351523Y-85844000D01*
X145256285Y-85748761D01*
X145113428Y-85605904D01*
X145018190Y-85558285D01*
X144922952Y-85558285D01*
X144970571Y-85796380D02*
X144875333Y-85748761D01*
X144780095Y-85653523D01*
X144732476Y-85463047D01*
X144732476Y-85129714D01*
X144780095Y-84939238D01*
X144875333Y-84844000D01*
X144970571Y-84796380D01*
X145161047Y-84796380D01*
X145256285Y-84844000D01*
X145351523Y-84939238D01*
X145399142Y-85129714D01*
X145399142Y-85463047D01*
X145351523Y-85653523D01*
X145256285Y-85748761D01*
X145161047Y-85796380D01*
X144970571Y-85796380D01*
X145780095Y-84891619D02*
X145827714Y-84844000D01*
X145922952Y-84796380D01*
X146161047Y-84796380D01*
X146256285Y-84844000D01*
X146303904Y-84891619D01*
X146351523Y-84986857D01*
X146351523Y-85082095D01*
X146303904Y-85224952D01*
X145732476Y-85796380D01*
X146351523Y-85796380D01*
X104100333Y-91416942D02*
X104052714Y-91464561D01*
X103909857Y-91512180D01*
X103814619Y-91512180D01*
X103671761Y-91464561D01*
X103576523Y-91369323D01*
X103528904Y-91274085D01*
X103481285Y-91083609D01*
X103481285Y-90940752D01*
X103528904Y-90750276D01*
X103576523Y-90655038D01*
X103671761Y-90559800D01*
X103814619Y-90512180D01*
X103909857Y-90512180D01*
X104052714Y-90559800D01*
X104100333Y-90607419D01*
X104481285Y-90607419D02*
X104528904Y-90559800D01*
X104624142Y-90512180D01*
X104862238Y-90512180D01*
X104957476Y-90559800D01*
X105005095Y-90607419D01*
X105052714Y-90702657D01*
X105052714Y-90797895D01*
X105005095Y-90940752D01*
X104433666Y-91512180D01*
X105052714Y-91512180D01*
X127539761Y-89574619D02*
X127444523Y-89527000D01*
X127349285Y-89431761D01*
X127206428Y-89288904D01*
X127111190Y-89241285D01*
X127015952Y-89241285D01*
X127063571Y-89479380D02*
X126968333Y-89431761D01*
X126873095Y-89336523D01*
X126825476Y-89146047D01*
X126825476Y-88812714D01*
X126873095Y-88622238D01*
X126968333Y-88527000D01*
X127063571Y-88479380D01*
X127254047Y-88479380D01*
X127349285Y-88527000D01*
X127444523Y-88622238D01*
X127492142Y-88812714D01*
X127492142Y-89146047D01*
X127444523Y-89336523D01*
X127349285Y-89431761D01*
X127254047Y-89479380D01*
X127063571Y-89479380D01*
X128444523Y-89479380D02*
X127873095Y-89479380D01*
X128158809Y-89479380D02*
X128158809Y-88479380D01*
X128063571Y-88622238D01*
X127968333Y-88717476D01*
X127873095Y-88765095D01*
X136675904Y-83510380D02*
X136675904Y-82510380D01*
X137247333Y-83510380D02*
X136818761Y-82938952D01*
X137247333Y-82510380D02*
X136675904Y-83081809D01*
X137628285Y-82605619D02*
X137675904Y-82558000D01*
X137771142Y-82510380D01*
X138009238Y-82510380D01*
X138104476Y-82558000D01*
X138152095Y-82605619D01*
X138199714Y-82700857D01*
X138199714Y-82796095D01*
X138152095Y-82938952D01*
X137580666Y-83510380D01*
X138199714Y-83510380D01*
X123721904Y-88463380D02*
X123721904Y-87463380D01*
X123960000Y-87463380D01*
X124102857Y-87511000D01*
X124198095Y-87606238D01*
X124245714Y-87701476D01*
X124293333Y-87891952D01*
X124293333Y-88034809D01*
X124245714Y-88225285D01*
X124198095Y-88320523D01*
X124102857Y-88415761D01*
X123960000Y-88463380D01*
X123721904Y-88463380D01*
X124674285Y-87558619D02*
X124721904Y-87511000D01*
X124817142Y-87463380D01*
X125055238Y-87463380D01*
X125150476Y-87511000D01*
X125198095Y-87558619D01*
X125245714Y-87653857D01*
X125245714Y-87749095D01*
X125198095Y-87891952D01*
X124626666Y-88463380D01*
X125245714Y-88463380D01*
X132127666Y-53427380D02*
X132127666Y-54141666D01*
X132080047Y-54284523D01*
X131984809Y-54379761D01*
X131841952Y-54427380D01*
X131746714Y-54427380D01*
X133032428Y-53427380D02*
X132841952Y-53427380D01*
X132746714Y-53475000D01*
X132699095Y-53522619D01*
X132603857Y-53665476D01*
X132556238Y-53855952D01*
X132556238Y-54236904D01*
X132603857Y-54332142D01*
X132651476Y-54379761D01*
X132746714Y-54427380D01*
X132937190Y-54427380D01*
X133032428Y-54379761D01*
X133080047Y-54332142D01*
X133127666Y-54236904D01*
X133127666Y-53998809D01*
X133080047Y-53903571D01*
X133032428Y-53855952D01*
X132937190Y-53808333D01*
X132746714Y-53808333D01*
X132651476Y-53855952D01*
X132603857Y-53903571D01*
X132556238Y-53998809D01*
X134897904Y-94178380D02*
X134897904Y-93178380D01*
X135136000Y-93178380D01*
X135278857Y-93226000D01*
X135374095Y-93321238D01*
X135421714Y-93416476D01*
X135469333Y-93606952D01*
X135469333Y-93749809D01*
X135421714Y-93940285D01*
X135374095Y-94035523D01*
X135278857Y-94130761D01*
X135136000Y-94178380D01*
X134897904Y-94178380D01*
X136040761Y-93606952D02*
X135945523Y-93559333D01*
X135897904Y-93511714D01*
X135850285Y-93416476D01*
X135850285Y-93368857D01*
X135897904Y-93273619D01*
X135945523Y-93226000D01*
X136040761Y-93178380D01*
X136231238Y-93178380D01*
X136326476Y-93226000D01*
X136374095Y-93273619D01*
X136421714Y-93368857D01*
X136421714Y-93416476D01*
X136374095Y-93511714D01*
X136326476Y-93559333D01*
X136231238Y-93606952D01*
X136040761Y-93606952D01*
X135945523Y-93654571D01*
X135897904Y-93702190D01*
X135850285Y-93797428D01*
X135850285Y-93987904D01*
X135897904Y-94083142D01*
X135945523Y-94130761D01*
X136040761Y-94178380D01*
X136231238Y-94178380D01*
X136326476Y-94130761D01*
X136374095Y-94083142D01*
X136421714Y-93987904D01*
X136421714Y-93797428D01*
X136374095Y-93702190D01*
X136326476Y-93654571D01*
X136231238Y-93606952D01*
X101696780Y-62295066D02*
X101220590Y-62628400D01*
X101696780Y-62866495D02*
X100696780Y-62866495D01*
X100696780Y-62485542D01*
X100744400Y-62390304D01*
X100792019Y-62342685D01*
X100887257Y-62295066D01*
X101030114Y-62295066D01*
X101125352Y-62342685D01*
X101172971Y-62390304D01*
X101220590Y-62485542D01*
X101220590Y-62866495D01*
X100696780Y-61961733D02*
X100696780Y-61342685D01*
X101077733Y-61676019D01*
X101077733Y-61533161D01*
X101125352Y-61437923D01*
X101172971Y-61390304D01*
X101268209Y-61342685D01*
X101506304Y-61342685D01*
X101601542Y-61390304D01*
X101649161Y-61437923D01*
X101696780Y-61533161D01*
X101696780Y-61818876D01*
X101649161Y-61914114D01*
X101601542Y-61961733D01*
X135302666Y-95210380D02*
X135302666Y-95924666D01*
X135255047Y-96067523D01*
X135159809Y-96162761D01*
X135016952Y-96210380D01*
X134921714Y-96210380D01*
X136207428Y-95543714D02*
X136207428Y-96210380D01*
X135969333Y-95162761D02*
X135731238Y-95877047D01*
X136350285Y-95877047D01*
X172823142Y-51855666D02*
X172870761Y-51903285D01*
X172918380Y-52046142D01*
X172918380Y-52141380D01*
X172870761Y-52284238D01*
X172775523Y-52379476D01*
X172680285Y-52427095D01*
X172489809Y-52474714D01*
X172346952Y-52474714D01*
X172156476Y-52427095D01*
X172061238Y-52379476D01*
X171966000Y-52284238D01*
X171918380Y-52141380D01*
X171918380Y-52046142D01*
X171966000Y-51903285D01*
X172013619Y-51855666D01*
X171918380Y-50998523D02*
X171918380Y-51189000D01*
X171966000Y-51284238D01*
X172013619Y-51331857D01*
X172156476Y-51427095D01*
X172346952Y-51474714D01*
X172727904Y-51474714D01*
X172823142Y-51427095D01*
X172870761Y-51379476D01*
X172918380Y-51284238D01*
X172918380Y-51093761D01*
X172870761Y-50998523D01*
X172823142Y-50950904D01*
X172727904Y-50903285D01*
X172489809Y-50903285D01*
X172394571Y-50950904D01*
X172346952Y-50998523D01*
X172299333Y-51093761D01*
X172299333Y-51284238D01*
X172346952Y-51379476D01*
X172394571Y-51427095D01*
X172489809Y-51474714D01*
X115403333Y-86431380D02*
X115070000Y-85955190D01*
X114831904Y-86431380D02*
X114831904Y-85431380D01*
X115212857Y-85431380D01*
X115308095Y-85479000D01*
X115355714Y-85526619D01*
X115403333Y-85621857D01*
X115403333Y-85764714D01*
X115355714Y-85859952D01*
X115308095Y-85907571D01*
X115212857Y-85955190D01*
X114831904Y-85955190D01*
X116260476Y-85764714D02*
X116260476Y-86431380D01*
X116022380Y-85383761D02*
X115784285Y-86098047D01*
X116403333Y-86098047D01*
X108621533Y-92146380D02*
X108288200Y-91670190D01*
X108050104Y-92146380D02*
X108050104Y-91146380D01*
X108431057Y-91146380D01*
X108526295Y-91194000D01*
X108573914Y-91241619D01*
X108621533Y-91336857D01*
X108621533Y-91479714D01*
X108573914Y-91574952D01*
X108526295Y-91622571D01*
X108431057Y-91670190D01*
X108050104Y-91670190D01*
X109002485Y-91241619D02*
X109050104Y-91194000D01*
X109145342Y-91146380D01*
X109383438Y-91146380D01*
X109478676Y-91194000D01*
X109526295Y-91241619D01*
X109573914Y-91336857D01*
X109573914Y-91432095D01*
X109526295Y-91574952D01*
X108954866Y-92146380D01*
X109573914Y-92146380D01*
X131691142Y-95702380D02*
X131357809Y-95226190D01*
X131119714Y-95702380D02*
X131119714Y-94702380D01*
X131500666Y-94702380D01*
X131595904Y-94750000D01*
X131643523Y-94797619D01*
X131691142Y-94892857D01*
X131691142Y-95035714D01*
X131643523Y-95130952D01*
X131595904Y-95178571D01*
X131500666Y-95226190D01*
X131119714Y-95226190D01*
X132643523Y-95702380D02*
X132072095Y-95702380D01*
X132357809Y-95702380D02*
X132357809Y-94702380D01*
X132262571Y-94845238D01*
X132167333Y-94940476D01*
X132072095Y-94988095D01*
X133500666Y-95035714D02*
X133500666Y-95702380D01*
X133262571Y-94654761D02*
X133024476Y-95369047D01*
X133643523Y-95369047D01*
X113142733Y-91480042D02*
X113095114Y-91527661D01*
X112952257Y-91575280D01*
X112857019Y-91575280D01*
X112714161Y-91527661D01*
X112618923Y-91432423D01*
X112571304Y-91337185D01*
X112523685Y-91146709D01*
X112523685Y-91003852D01*
X112571304Y-90813376D01*
X112618923Y-90718138D01*
X112714161Y-90622900D01*
X112857019Y-90575280D01*
X112952257Y-90575280D01*
X113095114Y-90622900D01*
X113142733Y-90670519D01*
X113476066Y-90575280D02*
X114095114Y-90575280D01*
X113761780Y-90956233D01*
X113904638Y-90956233D01*
X113999876Y-91003852D01*
X114047495Y-91051471D01*
X114095114Y-91146709D01*
X114095114Y-91384804D01*
X114047495Y-91480042D01*
X113999876Y-91527661D01*
X113904638Y-91575280D01*
X113618923Y-91575280D01*
X113523685Y-91527661D01*
X113476066Y-91480042D01*
X129627333Y-89733380D02*
X129294000Y-89257190D01*
X129055904Y-89733380D02*
X129055904Y-88733380D01*
X129436857Y-88733380D01*
X129532095Y-88781000D01*
X129579714Y-88828619D01*
X129627333Y-88923857D01*
X129627333Y-89066714D01*
X129579714Y-89161952D01*
X129532095Y-89209571D01*
X129436857Y-89257190D01*
X129055904Y-89257190D01*
X130484476Y-88733380D02*
X130294000Y-88733380D01*
X130198761Y-88781000D01*
X130151142Y-88828619D01*
X130055904Y-88971476D01*
X130008285Y-89161952D01*
X130008285Y-89542904D01*
X130055904Y-89638142D01*
X130103523Y-89685761D01*
X130198761Y-89733380D01*
X130389238Y-89733380D01*
X130484476Y-89685761D01*
X130532095Y-89638142D01*
X130579714Y-89542904D01*
X130579714Y-89304809D01*
X130532095Y-89209571D01*
X130484476Y-89161952D01*
X130389238Y-89114333D01*
X130198761Y-89114333D01*
X130103523Y-89161952D01*
X130055904Y-89209571D01*
X130008285Y-89304809D01*
X144526095Y-94956380D02*
X144526095Y-95765904D01*
X144573714Y-95861142D01*
X144621333Y-95908761D01*
X144716571Y-95956380D01*
X144907047Y-95956380D01*
X145002285Y-95908761D01*
X145049904Y-95861142D01*
X145097523Y-95765904D01*
X145097523Y-94956380D01*
X145526095Y-95051619D02*
X145573714Y-95004000D01*
X145668952Y-94956380D01*
X145907047Y-94956380D01*
X146002285Y-95004000D01*
X146049904Y-95051619D01*
X146097523Y-95146857D01*
X146097523Y-95242095D01*
X146049904Y-95384952D01*
X145478476Y-95956380D01*
X146097523Y-95956380D01*
X177847380Y-87847785D02*
X176847380Y-87847785D01*
X176847380Y-87466833D01*
X176895000Y-87371595D01*
X176942619Y-87323976D01*
X177037857Y-87276357D01*
X177180714Y-87276357D01*
X177275952Y-87323976D01*
X177323571Y-87371595D01*
X177371190Y-87466833D01*
X177371190Y-87847785D01*
X177799761Y-86895404D02*
X177847380Y-86752547D01*
X177847380Y-86514452D01*
X177799761Y-86419214D01*
X177752142Y-86371595D01*
X177656904Y-86323976D01*
X177561666Y-86323976D01*
X177466428Y-86371595D01*
X177418809Y-86419214D01*
X177371190Y-86514452D01*
X177323571Y-86704928D01*
X177275952Y-86800166D01*
X177228333Y-86847785D01*
X177133095Y-86895404D01*
X177037857Y-86895404D01*
X176942619Y-86847785D01*
X176895000Y-86800166D01*
X176847380Y-86704928D01*
X176847380Y-86466833D01*
X176895000Y-86323976D01*
X177847380Y-85371595D02*
X177847380Y-85943023D01*
X177847380Y-85657309D02*
X176847380Y-85657309D01*
X176990238Y-85752547D01*
X177085476Y-85847785D01*
X177133095Y-85943023D01*
X137850714Y-88463380D02*
X137850714Y-87463380D01*
X138088809Y-87463380D01*
X138231666Y-87511000D01*
X138326904Y-87606238D01*
X138374523Y-87701476D01*
X138422142Y-87891952D01*
X138422142Y-88034809D01*
X138374523Y-88225285D01*
X138326904Y-88320523D01*
X138231666Y-88415761D01*
X138088809Y-88463380D01*
X137850714Y-88463380D01*
X139374523Y-88463380D02*
X138803095Y-88463380D01*
X139088809Y-88463380D02*
X139088809Y-87463380D01*
X138993571Y-87606238D01*
X138898333Y-87701476D01*
X138803095Y-87749095D01*
X140326904Y-88463380D02*
X139755476Y-88463380D01*
X140041190Y-88463380D02*
X140041190Y-87463380D01*
X139945952Y-87606238D01*
X139850714Y-87701476D01*
X139755476Y-87749095D01*
X97293133Y-90222342D02*
X97245514Y-90269961D01*
X97102657Y-90317580D01*
X97007419Y-90317580D01*
X96864561Y-90269961D01*
X96769323Y-90174723D01*
X96721704Y-90079485D01*
X96674085Y-89889009D01*
X96674085Y-89746152D01*
X96721704Y-89555676D01*
X96769323Y-89460438D01*
X96864561Y-89365200D01*
X97007419Y-89317580D01*
X97102657Y-89317580D01*
X97245514Y-89365200D01*
X97293133Y-89412819D01*
X98197895Y-89317580D02*
X97721704Y-89317580D01*
X97674085Y-89793771D01*
X97721704Y-89746152D01*
X97816942Y-89698533D01*
X98055038Y-89698533D01*
X98150276Y-89746152D01*
X98197895Y-89793771D01*
X98245514Y-89889009D01*
X98245514Y-90127104D01*
X98197895Y-90222342D01*
X98150276Y-90269961D01*
X98055038Y-90317580D01*
X97816942Y-90317580D01*
X97721704Y-90269961D01*
X97674085Y-90222342D01*
X149780666Y-51268380D02*
X149780666Y-51982666D01*
X149733047Y-52125523D01*
X149637809Y-52220761D01*
X149494952Y-52268380D01*
X149399714Y-52268380D01*
X150161619Y-51268380D02*
X150780666Y-51268380D01*
X150447333Y-51649333D01*
X150590190Y-51649333D01*
X150685428Y-51696952D01*
X150733047Y-51744571D01*
X150780666Y-51839809D01*
X150780666Y-52077904D01*
X150733047Y-52173142D01*
X150685428Y-52220761D01*
X150590190Y-52268380D01*
X150304476Y-52268380D01*
X150209238Y-52220761D01*
X150161619Y-52173142D01*
X119149904Y-83256380D02*
X119149904Y-82256380D01*
X119721333Y-83256380D02*
X119292761Y-82684952D01*
X119721333Y-82256380D02*
X119149904Y-82827809D01*
X120673714Y-83256380D02*
X120102285Y-83256380D01*
X120388000Y-83256380D02*
X120388000Y-82256380D01*
X120292761Y-82399238D01*
X120197523Y-82494476D01*
X120102285Y-82542095D01*
X110323333Y-94083142D02*
X110275714Y-94130761D01*
X110132857Y-94178380D01*
X110037619Y-94178380D01*
X109894761Y-94130761D01*
X109799523Y-94035523D01*
X109751904Y-93940285D01*
X109704285Y-93749809D01*
X109704285Y-93606952D01*
X109751904Y-93416476D01*
X109799523Y-93321238D01*
X109894761Y-93226000D01*
X110037619Y-93178380D01*
X110132857Y-93178380D01*
X110275714Y-93226000D01*
X110323333Y-93273619D01*
X111275714Y-94178380D02*
X110704285Y-94178380D01*
X110990000Y-94178380D02*
X110990000Y-93178380D01*
X110894761Y-93321238D01*
X110799523Y-93416476D01*
X110704285Y-93464095D01*
X120673904Y-94178380D02*
X120673904Y-93178380D01*
X120912000Y-93178380D01*
X121054857Y-93226000D01*
X121150095Y-93321238D01*
X121197714Y-93416476D01*
X121245333Y-93606952D01*
X121245333Y-93749809D01*
X121197714Y-93940285D01*
X121150095Y-94035523D01*
X121054857Y-94130761D01*
X120912000Y-94178380D01*
X120673904Y-94178380D01*
X122197714Y-94178380D02*
X121626285Y-94178380D01*
X121912000Y-94178380D02*
X121912000Y-93178380D01*
X121816761Y-93321238D01*
X121721523Y-93416476D01*
X121626285Y-93464095D01*
D12*
X88803000Y-82996000D02*
X95553000Y-82996000D01*
X113553000Y-82996000D02*
X114303000Y-82996000D01*
X114303000Y-82996000D02*
X114303000Y-82246000D01*
X88803000Y-64996000D02*
X95553000Y-64996000D01*
X88803000Y-82996000D02*
X88803000Y-64996000D01*
X114303000Y-82246000D02*
X114303000Y-80496000D01*
X113553000Y-64996000D02*
X114303000Y-64996000D01*
X94743000Y-64996000D02*
X94743000Y-82996000D01*
X114303000Y-64996000D02*
X114303000Y-65746000D01*
X114303000Y-65746000D02*
X114303000Y-67496000D01*
X180795000Y-74606000D02*
X180795000Y-74476000D01*
X181695000Y-74476000D02*
X181695000Y-77416000D01*
X181575000Y-74476000D02*
X181575000Y-77416000D01*
X180795000Y-77286000D02*
X180795000Y-77416000D01*
X181815000Y-74476000D02*
X181815000Y-77416000D01*
X186235000Y-77416000D02*
X186235000Y-77286000D01*
X186235000Y-74476000D02*
X186235000Y-74606000D01*
X180795000Y-77416000D02*
X186235000Y-77416000D01*
X180795000Y-74476000D02*
X186235000Y-74476000D01*
X180795000Y-70285000D02*
X180795000Y-70415000D01*
X185335000Y-73225000D02*
X185335000Y-70285000D01*
X186235000Y-70285000D02*
X180795000Y-70285000D01*
X186235000Y-73095000D02*
X186235000Y-73225000D01*
X186235000Y-70415000D02*
X186235000Y-70285000D01*
X185215000Y-73225000D02*
X185215000Y-70285000D01*
X185455000Y-73225000D02*
X185455000Y-70285000D01*
X186235000Y-73225000D02*
X180795000Y-73225000D01*
X180795000Y-73225000D02*
X180795000Y-73095000D01*
X104987000Y-97777737D02*
X104987000Y-96330263D01*
X102277000Y-97777737D02*
X102277000Y-96330263D01*
X112437000Y-58940263D02*
X112437000Y-60387737D01*
X115147000Y-58940263D02*
X115147000Y-60387737D01*
X104987000Y-58940263D02*
X104987000Y-60387737D01*
X102277000Y-58940263D02*
X102277000Y-60387737D01*
X109135000Y-58940263D02*
X109135000Y-60387737D01*
X111845000Y-58940263D02*
X111845000Y-60387737D01*
X108416000Y-58940263D02*
X108416000Y-60387737D01*
X105706000Y-58940263D02*
X105706000Y-60387737D01*
X108519000Y-99488000D02*
X108519000Y-95428000D01*
X105349000Y-95428000D02*
X105349000Y-99488000D01*
X105349000Y-99488000D02*
X108519000Y-99488000D01*
X112334000Y-50941500D02*
X112334000Y-55001500D01*
X115504000Y-55001500D02*
X115504000Y-50941500D01*
X112334000Y-55001500D02*
X115504000Y-55001500D01*
X105217000Y-55001500D02*
X105217000Y-50941500D01*
X102047000Y-55001500D02*
X105217000Y-55001500D01*
X102047000Y-50941500D02*
X102047000Y-55001500D01*
X108905000Y-55001500D02*
X112075000Y-55001500D01*
X108905000Y-50941500D02*
X108905000Y-55001500D01*
X112075000Y-55001500D02*
X112075000Y-50941500D01*
X105476000Y-50941500D02*
X105476000Y-55001500D01*
X108646000Y-55001500D02*
X108646000Y-50941500D01*
X105476000Y-55001500D02*
X108646000Y-55001500D01*
X182408000Y-99628000D02*
X182408000Y-84268000D01*
X179448000Y-99628000D02*
X179448000Y-84268000D01*
X185732000Y-93175000D02*
X185778000Y-93222000D01*
X179448000Y-99628000D02*
X189369000Y-99628000D01*
X188809000Y-99628000D02*
X188809000Y-84268000D01*
X185948000Y-87902000D02*
X185983000Y-87937000D01*
X179448000Y-84268000D02*
X189369000Y-84268000D01*
X185732000Y-88095000D02*
X185778000Y-88142000D01*
X183640000Y-90673000D02*
X183686000Y-90720000D01*
X183434000Y-90878000D02*
X183470000Y-90913000D01*
X188869000Y-99868000D02*
X189609000Y-99868000D01*
X183434000Y-85798000D02*
X183470000Y-85833000D01*
X189609000Y-99868000D02*
X189609000Y-99368000D01*
X189369000Y-99628000D02*
X189369000Y-84268000D01*
X185948000Y-92982000D02*
X185983000Y-93017000D01*
X187309000Y-99628000D02*
X187309000Y-84268000D01*
X183640000Y-85593000D02*
X183686000Y-85640000D01*
X186389000Y-97028000D02*
G75*
G03*
X186243756Y-96344682I-1680000J0D01*
G01*
X185393000Y-95492999D02*
G75*
G03*
X184025958Y-95492573I-684000J-1535001D01*
G01*
X186244000Y-97712000D02*
G75*
G03*
X186389253Y-96999195I-1535001J683999D01*
G01*
X184025000Y-98563000D02*
G75*
G03*
X185392042Y-98563427I684001J1534993D01*
G01*
X183174000Y-96344000D02*
G75*
G03*
X183173573Y-97711042I1534993J-684001D01*
G01*
X186389000Y-86868000D02*
G75*
G03*
X186389000Y-86868000I-1680000J0D01*
G01*
X186389000Y-91948000D02*
G75*
G03*
X186389000Y-91948000I-1680000J0D01*
G01*
X101823000Y-58535000D02*
X101823000Y-59425000D01*
X101823000Y-52575000D02*
X101473000Y-52575000D01*
X101823000Y-58535000D02*
X101473000Y-58535000D01*
X99273000Y-58045000D02*
X99273000Y-53065000D01*
X95033000Y-59425000D02*
X98883000Y-59425000D01*
X101523000Y-51685000D02*
X101823000Y-51685000D01*
X101823000Y-51685000D02*
X101823000Y-52575000D01*
X98883000Y-51685000D02*
X95033000Y-51685000D01*
X95033000Y-51685000D02*
X95033000Y-59425000D01*
X101523000Y-59425000D02*
X101823000Y-59425000D01*
X101823000Y-97412000D02*
X101823000Y-98302000D01*
X101823000Y-90562000D02*
X101823000Y-91452000D01*
X101823000Y-91452000D02*
X101473000Y-91452000D01*
X99273000Y-96922000D02*
X99273000Y-91942000D01*
X101523000Y-90562000D02*
X101823000Y-90562000D01*
X98883000Y-90562000D02*
X95033000Y-90562000D01*
X101523000Y-98302000D02*
X101823000Y-98302000D01*
X95033000Y-90562000D02*
X95033000Y-98302000D01*
X95033000Y-98302000D02*
X98883000Y-98302000D01*
X101823000Y-97412000D02*
X101473000Y-97412000D01*
X178716000Y-59899000D02*
X178716000Y-67639000D01*
X178716000Y-67639000D02*
X184016000Y-67639000D01*
X184016000Y-67639000D02*
X184016000Y-59899000D01*
X180366000Y-59899000D02*
X178716000Y-59899000D01*
X184016000Y-59899000D02*
X182366000Y-59899000D01*
X180366000Y-59899000D02*
G75*
G03*
X182366000Y-59899000I1000000J0D01*
G01*
X184016000Y-58495000D02*
X184016000Y-50755000D01*
X178716000Y-50755000D02*
X178716000Y-58495000D01*
X180366000Y-50755000D02*
X178716000Y-50755000D01*
X184016000Y-50755000D02*
X182366000Y-50755000D01*
X178716000Y-58495000D02*
X184016000Y-58495000D01*
X180366000Y-50755000D02*
G75*
G03*
X182366000Y-50755000I1000000J0D01*
G01*
X161658737Y-53171000D02*
X160211263Y-53171000D01*
X161658737Y-50461000D02*
X160211263Y-50461000D01*
X155054737Y-53171000D02*
X153607263Y-53171000D01*
X155054737Y-50461000D02*
X153607263Y-50461000D01*
X149666000Y-86995000D02*
X149666000Y-99755000D01*
X147006000Y-85725000D02*
X147006000Y-84395000D01*
X147006000Y-84395000D02*
X148336000Y-84395000D01*
X147006000Y-99755000D02*
X149666000Y-99755000D01*
X147006000Y-86995000D02*
X147006000Y-99755000D01*
X147006000Y-86995000D02*
X149666000Y-86995000D01*
X187146000Y-82405000D02*
X187146000Y-82605000D01*
X180426000Y-82605000D02*
X187146000Y-82605000D01*
X187146000Y-78685000D02*
X187146000Y-78885000D01*
X180426000Y-82405000D02*
X180426000Y-82605000D01*
X180426000Y-78685000D02*
X187146000Y-78685000D01*
X180426000Y-78685000D02*
X180426000Y-78885000D01*
X99554200Y-86169848D02*
X99554200Y-87592352D01*
X102274200Y-86169848D02*
X102274200Y-87592352D01*
X119390000Y-96841000D02*
X127070000Y-96841000D01*
X119390000Y-99501000D02*
X119390000Y-96841000D01*
X127070000Y-99501000D02*
X127070000Y-96841000D01*
X116790000Y-99501000D02*
X116790000Y-98171000D01*
X118120000Y-99501000D02*
X116790000Y-99501000D01*
X119390000Y-99501000D02*
X127070000Y-99501000D01*
X112437000Y-97777737D02*
X112437000Y-96330263D01*
X115147000Y-97777737D02*
X115147000Y-96330263D01*
X109337600Y-85587800D02*
X108237600Y-85587800D01*
X109337600Y-87487800D02*
X108237600Y-87487800D01*
X111487600Y-87437800D02*
X111487600Y-85637800D01*
X119592000Y-91250263D02*
X119592000Y-92697737D01*
X116882000Y-91250263D02*
X116882000Y-92697737D01*
X141315000Y-86311500D02*
X141315000Y-87986500D01*
X141315000Y-86311500D02*
X141315000Y-85661500D01*
X144435000Y-86311500D02*
X144435000Y-85661500D01*
X144435000Y-86311500D02*
X144435000Y-86961500D01*
X102932400Y-87109648D02*
X102932400Y-88532152D01*
X105652400Y-87109648D02*
X105652400Y-88532152D01*
X130338000Y-86281500D02*
X130338000Y-85631500D01*
X130338000Y-86281500D02*
X130338000Y-86931500D01*
X127218000Y-86281500D02*
X127218000Y-87956500D01*
X127218000Y-86281500D02*
X127218000Y-85631500D01*
X140778000Y-78471500D02*
X140778000Y-79671500D01*
X139778000Y-79071500D02*
X136628000Y-79071500D01*
X145628000Y-79071500D02*
X142478000Y-79071500D01*
X142128000Y-84181500D02*
X140128000Y-84181500D01*
X141478000Y-78471500D02*
X140778000Y-78471500D01*
X141478000Y-79671500D02*
X141478000Y-78471500D01*
X140778000Y-79671500D02*
X141478000Y-79671500D01*
X132778000Y-83921500D02*
X149478000Y-83921500D01*
X149478000Y-83921500D02*
X149478000Y-61221500D01*
X149478000Y-61221500D02*
X132778000Y-61221500D01*
X141478000Y-78871500D02*
X140778000Y-79271500D01*
X132778000Y-61221500D02*
X132778000Y-83921500D01*
X121162000Y-87106000D02*
X125062000Y-87106000D01*
X121162000Y-85106000D02*
X125062000Y-85106000D01*
X121162000Y-85106000D02*
X121162000Y-87106000D01*
X117802000Y-56520000D02*
X117837000Y-56484000D01*
X131632000Y-57546000D02*
X116272000Y-57546000D01*
X117597000Y-56314000D02*
X117644000Y-56268000D01*
X116272000Y-60506000D02*
X116272000Y-50585000D01*
X124986000Y-54006000D02*
X125021000Y-53971000D01*
X131872000Y-50345000D02*
X131372000Y-50345000D01*
X122882000Y-56520000D02*
X122917000Y-56484000D01*
X131872000Y-51085000D02*
X131872000Y-50345000D01*
X131632000Y-50585000D02*
X116272000Y-50585000D01*
X120099000Y-54222000D02*
X120146000Y-54176000D01*
X119906000Y-54006000D02*
X119941000Y-53971000D01*
X122677000Y-56314000D02*
X122724000Y-56268000D01*
X125179000Y-54222000D02*
X125226000Y-54176000D01*
X131632000Y-60506000D02*
X131632000Y-50585000D01*
X131632000Y-51145000D02*
X116272000Y-51145000D01*
X131632000Y-52645000D02*
X116272000Y-52645000D01*
X131632000Y-60506000D02*
X116272000Y-60506000D01*
X130567000Y-55929000D02*
G75*
G03*
X130567427Y-54561958I-1534993J684001D01*
G01*
X128348000Y-56780000D02*
G75*
G03*
X129715042Y-56780427I684001J1534993D01*
G01*
X129032000Y-53565000D02*
G75*
G03*
X128348682Y-53710244I0J-1680000D01*
G01*
X127496999Y-54561000D02*
G75*
G03*
X127496573Y-55928042I1535001J-684000D01*
G01*
X129716000Y-53710000D02*
G75*
G03*
X129003195Y-53564747I-683999J-1535001D01*
G01*
X120552000Y-55245000D02*
G75*
G03*
X120552000Y-55245000I-1680000J0D01*
G01*
X125632000Y-55245000D02*
G75*
G03*
X125632000Y-55245000I-1680000J0D01*
G01*
X137221000Y-92114500D02*
X137221000Y-88054500D01*
X134051000Y-88054500D02*
X134051000Y-92114500D01*
X137221000Y-88054500D02*
X134051000Y-88054500D01*
X98640137Y-63483400D02*
X97192663Y-63483400D01*
X98640137Y-60773400D02*
X97192663Y-60773400D01*
X130683000Y-96841000D02*
X145983000Y-96841000D01*
X128083000Y-99501000D02*
X128083000Y-98171000D01*
X130683000Y-99501000D02*
X145983000Y-99501000D01*
X130683000Y-99501000D02*
X130683000Y-96841000D01*
X129413000Y-99501000D02*
X128083000Y-99501000D01*
X145983000Y-99501000D02*
X145983000Y-96841000D01*
X168491248Y-50456000D02*
X169913752Y-50456000D01*
X168491248Y-53176000D02*
X169913752Y-53176000D01*
X119592000Y-87617737D02*
X119592000Y-86170263D01*
X116882000Y-87617737D02*
X116882000Y-86170263D01*
X108064463Y-90788400D02*
X109511937Y-90788400D01*
X108064463Y-88078400D02*
X109511937Y-88078400D01*
X130979000Y-91250263D02*
X130979000Y-92697737D01*
X133689000Y-91250263D02*
X133689000Y-92697737D01*
X114669400Y-87109648D02*
X114669400Y-88532152D01*
X111949400Y-87109648D02*
X111949400Y-88532152D01*
X130979000Y-87617737D02*
X130979000Y-86170263D01*
X133689000Y-87617737D02*
X133689000Y-86170263D01*
X137759000Y-88665000D02*
X143769000Y-88665000D01*
X140009000Y-95485000D02*
X143769000Y-95485000D01*
X143769000Y-88665000D02*
X143769000Y-89925000D01*
X143769000Y-95485000D02*
X143769000Y-94225000D01*
X160671000Y-99885000D02*
X162671000Y-99885000D01*
X175971000Y-99585000D02*
X175971000Y-53685000D01*
X150371000Y-99585000D02*
X150371000Y-53685000D01*
X150371000Y-99585000D02*
X175971000Y-99585000D01*
X150371000Y-53685000D02*
X175971000Y-53685000D01*
X135259000Y-85106000D02*
X135259000Y-87106000D01*
X135259000Y-85106000D02*
X139159000Y-85106000D01*
X135259000Y-87106000D02*
X139159000Y-87106000D01*
X96176000Y-86156748D02*
X96176000Y-87579252D01*
X98896000Y-86156748D02*
X98896000Y-87579252D01*
X148777000Y-52645000D02*
X133417000Y-52645000D01*
X133417000Y-60506000D02*
X133417000Y-50585000D01*
X149017000Y-50345000D02*
X148517000Y-50345000D01*
X137244000Y-54222000D02*
X137291000Y-54176000D01*
X140027000Y-56520000D02*
X140062000Y-56484000D01*
X149017000Y-51085000D02*
X149017000Y-50345000D01*
X142324000Y-54222000D02*
X142371000Y-54176000D01*
X142131000Y-54006000D02*
X142166000Y-53971000D01*
X148777000Y-51145000D02*
X133417000Y-51145000D01*
X139822000Y-56314000D02*
X139869000Y-56268000D01*
X134742000Y-56314000D02*
X134789000Y-56268000D01*
X148777000Y-60506000D02*
X133417000Y-60506000D01*
X148777000Y-57546000D02*
X133417000Y-57546000D01*
X148777000Y-50585000D02*
X133417000Y-50585000D01*
X148777000Y-60506000D02*
X148777000Y-50585000D01*
X134947000Y-56520000D02*
X134982000Y-56484000D01*
X137051000Y-54006000D02*
X137086000Y-53971000D01*
X144641999Y-54561000D02*
G75*
G03*
X144641573Y-55928042I1535001J-684000D01*
G01*
X146861000Y-53710000D02*
G75*
G03*
X146148195Y-53564747I-683999J-1535001D01*
G01*
X145493000Y-56780000D02*
G75*
G03*
X146860042Y-56780427I684001J1534993D01*
G01*
X147712000Y-55929000D02*
G75*
G03*
X147712427Y-54561958I-1534993J684001D01*
G01*
X146177000Y-53565000D02*
G75*
G03*
X145493682Y-53710244I0J-1680000D01*
G01*
X142777000Y-55245000D02*
G75*
G03*
X142777000Y-55245000I-1680000J0D01*
G01*
X137697000Y-55245000D02*
G75*
G03*
X137697000Y-55245000I-1680000J0D01*
G01*
X124302000Y-78871500D02*
X123602000Y-79271500D01*
X132302000Y-83921500D02*
X132302000Y-61221500D01*
X115602000Y-83921500D02*
X132302000Y-83921500D01*
X115602000Y-61221500D02*
X115602000Y-83921500D01*
X132302000Y-61221500D02*
X115602000Y-61221500D01*
X124302000Y-78471500D02*
X123602000Y-78471500D01*
X128452000Y-79071500D02*
X125302000Y-79071500D01*
X124302000Y-79671500D02*
X124302000Y-78471500D01*
X124952000Y-84181500D02*
X122952000Y-84181500D01*
X122602000Y-79071500D02*
X119452000Y-79071500D01*
X123602000Y-79671500D02*
X124302000Y-79671500D01*
X123602000Y-78471500D02*
X123602000Y-79671500D01*
X111850000Y-97777752D02*
X111850000Y-96355248D01*
X109130000Y-97777752D02*
X109130000Y-96355248D01*
X123124000Y-88091000D02*
X119954000Y-88091000D01*
X123124000Y-92151000D02*
X123124000Y-88091000D01*
X119954000Y-88091000D02*
X119954000Y-92151000D01*
M02*
