G04 #@! TF.GenerationSoftware,KiCad,Pcbnew,7.0.5-0*
G04 #@! TF.CreationDate,2023-07-10T19:12:56+02:00*
G04 #@! TF.ProjectId,CaptorBoard,43617074-6f72-4426-9f61-72642e6b6963,rev?*
G04 #@! TF.SameCoordinates,Original*
G04 #@! TF.FileFunction,Copper,L1,Top*
G04 #@! TF.FilePolarity,Positive*
%FSLAX46Y46*%
G04 Gerber Fmt 4.6, Leading zero omitted, Abs format (unit mm)*
G04 Created by KiCad (PCBNEW 7.0.5-0) date 2023-07-10 19:12:56*
%MOMM*%
%LPD*%
G01*
G04 APERTURE LIST*
G04 Aperture macros list*
%AMRoundRect*
0 Rectangle with rounded corners*
0 $1 Rounding radius*
0 $2 $3 $4 $5 $6 $7 $8 $9 X,Y pos of 4 corners*
0 Add a 4 corners polygon primitive as box body*
4,1,4,$2,$3,$4,$5,$6,$7,$8,$9,$2,$3,0*
0 Add four circle primitives for the rounded corners*
1,1,$1+$1,$2,$3*
1,1,$1+$1,$4,$5*
1,1,$1+$1,$6,$7*
1,1,$1+$1,$8,$9*
0 Add four rect primitives between the rounded corners*
20,1,$1+$1,$2,$3,$4,$5,0*
20,1,$1+$1,$4,$5,$6,$7,0*
20,1,$1+$1,$6,$7,$8,$9,0*
20,1,$1+$1,$8,$9,$2,$3,0*%
G04 Aperture macros list end*
G04 #@! TA.AperFunction,SMDPad,CuDef*
%ADD10R,0.900000X1.500000*%
G04 #@! TD*
G04 #@! TA.AperFunction,SMDPad,CuDef*
%ADD11R,1.500000X0.900000*%
G04 #@! TD*
G04 #@! TA.AperFunction,SMDPad,CuDef*
%ADD12R,1.050000X1.050000*%
G04 #@! TD*
G04 #@! TA.AperFunction,ComponentPad*
%ADD13R,2.200000X2.200000*%
G04 #@! TD*
G04 #@! TA.AperFunction,ComponentPad*
%ADD14O,2.200000X2.200000*%
G04 #@! TD*
G04 #@! TA.AperFunction,SMDPad,CuDef*
%ADD15RoundRect,0.250000X-1.075000X0.400000X-1.075000X-0.400000X1.075000X-0.400000X1.075000X0.400000X0*%
G04 #@! TD*
G04 #@! TA.AperFunction,SMDPad,CuDef*
%ADD16RoundRect,0.250001X1.074999X-0.462499X1.074999X0.462499X-1.074999X0.462499X-1.074999X-0.462499X0*%
G04 #@! TD*
G04 #@! TA.AperFunction,ComponentPad*
%ADD17R,2.600000X2.600000*%
G04 #@! TD*
G04 #@! TA.AperFunction,ComponentPad*
%ADD18C,2.600000*%
G04 #@! TD*
G04 #@! TA.AperFunction,ComponentPad*
%ADD19C,2.200000*%
G04 #@! TD*
G04 #@! TA.AperFunction,ComponentPad*
%ADD20C,1.700000*%
G04 #@! TD*
G04 #@! TA.AperFunction,ComponentPad*
%ADD21R,1.600000X1.600000*%
G04 #@! TD*
G04 #@! TA.AperFunction,ComponentPad*
%ADD22O,1.600000X1.600000*%
G04 #@! TD*
G04 #@! TA.AperFunction,SMDPad,CuDef*
%ADD23RoundRect,0.250000X0.400000X1.075000X-0.400000X1.075000X-0.400000X-1.075000X0.400000X-1.075000X0*%
G04 #@! TD*
G04 #@! TA.AperFunction,SMDPad,CuDef*
%ADD24RoundRect,0.250000X-0.750000X-1.625000X0.750000X-1.625000X0.750000X1.625000X-0.750000X1.625000X0*%
G04 #@! TD*
G04 #@! TA.AperFunction,SMDPad,CuDef*
%ADD25RoundRect,0.250000X-1.100000X0.412500X-1.100000X-0.412500X1.100000X-0.412500X1.100000X0.412500X0*%
G04 #@! TD*
G04 #@! TA.AperFunction,ComponentPad*
%ADD26R,1.700000X1.700000*%
G04 #@! TD*
G04 #@! TA.AperFunction,ComponentPad*
%ADD27O,1.700000X1.700000*%
G04 #@! TD*
G04 #@! TA.AperFunction,SMDPad,CuDef*
%ADD28RoundRect,0.250000X1.075000X-0.400000X1.075000X0.400000X-1.075000X0.400000X-1.075000X-0.400000X0*%
G04 #@! TD*
G04 #@! TA.AperFunction,ComponentPad*
%ADD29C,1.800000*%
G04 #@! TD*
G04 #@! TA.AperFunction,SMDPad,CuDef*
%ADD30R,1.400000X1.500000*%
G04 #@! TD*
G04 #@! TA.AperFunction,SMDPad,CuDef*
%ADD31RoundRect,0.250000X1.100000X-0.412500X1.100000X0.412500X-1.100000X0.412500X-1.100000X-0.412500X0*%
G04 #@! TD*
G04 #@! TA.AperFunction,SMDPad,CuDef*
%ADD32RoundRect,0.150000X-0.587500X-0.150000X0.587500X-0.150000X0.587500X0.150000X-0.587500X0.150000X0*%
G04 #@! TD*
G04 #@! TA.AperFunction,SMDPad,CuDef*
%ADD33RoundRect,0.250000X0.650000X-0.412500X0.650000X0.412500X-0.650000X0.412500X-0.650000X-0.412500X0*%
G04 #@! TD*
G04 #@! TA.AperFunction,ComponentPad*
%ADD34R,2.500000X2.500000*%
G04 #@! TD*
G04 #@! TA.AperFunction,ComponentPad*
%ADD35O,2.500000X2.500000*%
G04 #@! TD*
G04 #@! TA.AperFunction,SMDPad,CuDef*
%ADD36RoundRect,0.249999X0.450001X1.425001X-0.450001X1.425001X-0.450001X-1.425001X0.450001X-1.425001X0*%
G04 #@! TD*
G04 #@! TA.AperFunction,SMDPad,CuDef*
%ADD37RoundRect,0.225000X-0.375000X0.225000X-0.375000X-0.225000X0.375000X-0.225000X0.375000X0.225000X0*%
G04 #@! TD*
G04 #@! TA.AperFunction,SMDPad,CuDef*
%ADD38RoundRect,0.250001X-0.462499X-1.074999X0.462499X-1.074999X0.462499X1.074999X-0.462499X1.074999X0*%
G04 #@! TD*
G04 #@! TA.AperFunction,SMDPad,CuDef*
%ADD39RoundRect,0.250000X0.412500X1.100000X-0.412500X1.100000X-0.412500X-1.100000X0.412500X-1.100000X0*%
G04 #@! TD*
G04 #@! TA.AperFunction,SMDPad,CuDef*
%ADD40RoundRect,0.250000X0.300000X-0.300000X0.300000X0.300000X-0.300000X0.300000X-0.300000X-0.300000X0*%
G04 #@! TD*
G04 #@! TA.AperFunction,SMDPad,CuDef*
%ADD41RoundRect,0.250000X-0.400000X-1.075000X0.400000X-1.075000X0.400000X1.075000X-0.400000X1.075000X0*%
G04 #@! TD*
G04 #@! TA.AperFunction,SMDPad,CuDef*
%ADD42R,1.500000X2.000000*%
G04 #@! TD*
G04 #@! TA.AperFunction,SMDPad,CuDef*
%ADD43R,3.800000X2.000000*%
G04 #@! TD*
G04 #@! TA.AperFunction,ComponentPad*
%ADD44C,1.650000*%
G04 #@! TD*
G04 #@! TA.AperFunction,SMDPad,CuDef*
%ADD45RoundRect,0.225000X-0.225000X-0.375000X0.225000X-0.375000X0.225000X0.375000X-0.225000X0.375000X0*%
G04 #@! TD*
G04 #@! TA.AperFunction,SMDPad,CuDef*
%ADD46RoundRect,0.250000X-0.300000X-0.300000X0.300000X-0.300000X0.300000X0.300000X-0.300000X0.300000X0*%
G04 #@! TD*
G04 #@! TA.AperFunction,ViaPad*
%ADD47C,0.820000*%
G04 #@! TD*
G04 #@! TA.AperFunction,Conductor*
%ADD48C,0.250000*%
G04 #@! TD*
G04 #@! TA.AperFunction,Conductor*
%ADD49C,2.000000*%
G04 #@! TD*
G04 #@! TA.AperFunction,Conductor*
%ADD50C,0.500000*%
G04 #@! TD*
G04 #@! TA.AperFunction,Conductor*
%ADD51C,4.000000*%
G04 #@! TD*
G04 #@! TA.AperFunction,Conductor*
%ADD52C,0.200000*%
G04 #@! TD*
G04 #@! TA.AperFunction,Profile*
%ADD53C,0.100000*%
G04 #@! TD*
G04 APERTURE END LIST*
D10*
X96293000Y-82746000D03*
X97563000Y-82746000D03*
X98833000Y-82746000D03*
X100103000Y-82746000D03*
X101373000Y-82746000D03*
X102643000Y-82746000D03*
X103913000Y-82746000D03*
X105183000Y-82746000D03*
X106453000Y-82746000D03*
X107723000Y-82746000D03*
X108993000Y-82746000D03*
X110263000Y-82746000D03*
X111533000Y-82746000D03*
X112803000Y-82746000D03*
D11*
X114053000Y-79716000D03*
X114053000Y-78446000D03*
X114053000Y-77176000D03*
X114053000Y-75906000D03*
X114053000Y-74636000D03*
X114053000Y-73366000D03*
X114053000Y-72096000D03*
X114053000Y-70826000D03*
X114053000Y-69556000D03*
X114053000Y-68286000D03*
D10*
X112803000Y-65246000D03*
X111533000Y-65246000D03*
X110263000Y-65246000D03*
X108993000Y-65246000D03*
X107723000Y-65246000D03*
X106453000Y-65246000D03*
X105183000Y-65246000D03*
X103913000Y-65246000D03*
X102643000Y-65246000D03*
X101373000Y-65246000D03*
X100103000Y-65246000D03*
X98833000Y-65246000D03*
X97563000Y-65246000D03*
X96293000Y-65246000D03*
D12*
X102108000Y-76201000D03*
X103633000Y-76201000D03*
X105158000Y-76201000D03*
X102108000Y-74676000D03*
X103633000Y-74676000D03*
X105158000Y-74676000D03*
X102108000Y-73151000D03*
X103633000Y-73151000D03*
X105158000Y-73151000D03*
D13*
X172250000Y-55940000D03*
D14*
X172250000Y-63560000D03*
D13*
X160500000Y-63620000D03*
D14*
X160500000Y-56000000D03*
D15*
X119735600Y-58115200D03*
X119735600Y-61215200D03*
X114500000Y-58114000D03*
X114500000Y-61214000D03*
X104000000Y-58114000D03*
X104000000Y-61214000D03*
X111000000Y-58114000D03*
X111000000Y-61214000D03*
X107500000Y-58114000D03*
X107500000Y-61214000D03*
D16*
X119786400Y-54029000D03*
X119786400Y-51054000D03*
X114500000Y-54029000D03*
X114500000Y-51054000D03*
X104000000Y-54029000D03*
X104000000Y-51054000D03*
X111000000Y-54029000D03*
X111000000Y-51054000D03*
X107500000Y-54029000D03*
X107500000Y-51054000D03*
D17*
X179805000Y-63585000D03*
D18*
X179805000Y-58505000D03*
X179805000Y-53425000D03*
D19*
X100425000Y-98000000D03*
X100425000Y-91000000D03*
D20*
X97925000Y-96750000D03*
X97925000Y-92250000D03*
D19*
X100425000Y-59000000D03*
X100425000Y-52000000D03*
D20*
X97925000Y-57750000D03*
X97925000Y-53250000D03*
D21*
X163725000Y-63800000D03*
D22*
X166265000Y-63800000D03*
X168805000Y-63800000D03*
X168805000Y-56180000D03*
X166265000Y-56180000D03*
X163725000Y-56180000D03*
D21*
X152225000Y-63800000D03*
D22*
X154765000Y-63800000D03*
X157305000Y-63800000D03*
X157305000Y-56180000D03*
X154765000Y-56180000D03*
X152225000Y-56180000D03*
D23*
X121361200Y-81457800D03*
X118261200Y-81457800D03*
X121361200Y-78028800D03*
X118261200Y-78028800D03*
D24*
X157000000Y-52250000D03*
X165500000Y-52250000D03*
D25*
X100914200Y-85318600D03*
X100914200Y-88443600D03*
D26*
X111490600Y-97993200D03*
D27*
X114030600Y-97993200D03*
X116570600Y-97993200D03*
X119110600Y-97993200D03*
D28*
X107569000Y-98120800D03*
X107569000Y-95020800D03*
D29*
X138250000Y-51850000D03*
X145750000Y-54150000D03*
D30*
X109837600Y-86537800D03*
X107737600Y-86537800D03*
D26*
X124891800Y-97536000D03*
D27*
X124891800Y-94996000D03*
X127431800Y-97536000D03*
X127431800Y-94996000D03*
X129971800Y-97536000D03*
X129971800Y-94996000D03*
X132511800Y-97536000D03*
X132511800Y-94996000D03*
X135051800Y-97536000D03*
X135051800Y-94996000D03*
X137591800Y-97536000D03*
X137591800Y-94996000D03*
X140131800Y-97536000D03*
X140131800Y-94996000D03*
X142671800Y-97536000D03*
X142671800Y-94996000D03*
D15*
X136300000Y-88900000D03*
X136300000Y-92000000D03*
D31*
X104038400Y-98107900D03*
X104038400Y-94982900D03*
D23*
X133100000Y-91600000D03*
X130000000Y-91600000D03*
D32*
X147462500Y-84250000D03*
X147462500Y-86150000D03*
X149337500Y-85200000D03*
D33*
X104292400Y-89383400D03*
X104292400Y-86258400D03*
D32*
X145962500Y-96350000D03*
X145962500Y-98250000D03*
X147837500Y-97300000D03*
D34*
X153372500Y-73500000D03*
D35*
X155372500Y-79500000D03*
X167572500Y-79500000D03*
X167572500Y-67500000D03*
X155372500Y-67500000D03*
D36*
X133900000Y-52900000D03*
X127800000Y-52900000D03*
D37*
X149100000Y-91200000D03*
X149100000Y-94500000D03*
D17*
X179805000Y-96585000D03*
D18*
X179805000Y-91505000D03*
X179805000Y-86425000D03*
D38*
X125000000Y-88300000D03*
X127975000Y-88300000D03*
D15*
X139600000Y-88900000D03*
X139600000Y-92000000D03*
D23*
X100050000Y-62500000D03*
X96950000Y-62500000D03*
D39*
X128162500Y-85000000D03*
X125037500Y-85000000D03*
D40*
X120091200Y-74399600D03*
X120091200Y-71599600D03*
X116941600Y-74348800D03*
X116941600Y-71548800D03*
D28*
X146200000Y-94400000D03*
X146200000Y-91300000D03*
D41*
X107238200Y-89433400D03*
X110338200Y-89433400D03*
D23*
X133150000Y-88300000D03*
X130050000Y-88300000D03*
D33*
X113309400Y-89383400D03*
X113309400Y-86258400D03*
D23*
X140500000Y-85100000D03*
X137400000Y-85100000D03*
D42*
X121500000Y-88050000D03*
X119200000Y-88050000D03*
D43*
X119200000Y-94350000D03*
D42*
X116900000Y-88050000D03*
D44*
X146800000Y-59500000D03*
X141720000Y-59500000D03*
X136640000Y-79820000D03*
X146800000Y-79820000D03*
D45*
X142300000Y-84700000D03*
X145600000Y-84700000D03*
D25*
X97536000Y-85305500D03*
X97536000Y-88430500D03*
D17*
X179805000Y-80085000D03*
D18*
X179805000Y-75005000D03*
X179805000Y-69925000D03*
D15*
X142900000Y-88900000D03*
X142900000Y-92000000D03*
D34*
X153372500Y-91000000D03*
D35*
X155372500Y-97000000D03*
X167572500Y-97000000D03*
X167572500Y-85000000D03*
X155372500Y-85000000D03*
D46*
X118589600Y-84582000D03*
X121389600Y-84582000D03*
D38*
X125025000Y-91600000D03*
X128000000Y-91600000D03*
D47*
X134100000Y-84200000D03*
X107950000Y-63398400D03*
X115773200Y-78917800D03*
X96012000Y-95250000D03*
X144000000Y-80300000D03*
X113131600Y-87833200D03*
X100838000Y-71882000D03*
X100838000Y-77470000D03*
X148500000Y-77000000D03*
X109270800Y-56083200D03*
X111900000Y-79975700D03*
X105714800Y-56083200D03*
X106426000Y-71882000D03*
X106426000Y-77470000D03*
X102717600Y-63627000D03*
X112776000Y-56083200D03*
X105765600Y-84759800D03*
X147300000Y-88200000D03*
X98500500Y-84033500D03*
X97777572Y-66605500D03*
X102500000Y-66500000D03*
X117043200Y-84658200D03*
X134414517Y-90385483D03*
X97790000Y-81203800D03*
X151200000Y-84200000D03*
X116551700Y-77546200D03*
X139400000Y-87465500D03*
X145000000Y-88500000D03*
X116447630Y-80875700D03*
X98425000Y-63804800D03*
X102616000Y-84074000D03*
X99029430Y-67431830D03*
X96919168Y-67556768D03*
X103911400Y-84099400D03*
X139000000Y-85000000D03*
X115800000Y-69600000D03*
X112864350Y-78719496D03*
X147600000Y-96300000D03*
X131800000Y-91200000D03*
X120040400Y-84505800D03*
X117271800Y-83185000D03*
D48*
X130000000Y-91600000D02*
X128000000Y-91600000D01*
X149100000Y-94500000D02*
X149100000Y-96037500D01*
X149100000Y-96037500D02*
X147837500Y-97300000D01*
X148137500Y-97000000D02*
X147837500Y-97300000D01*
X155372500Y-97000000D02*
X148137500Y-97000000D01*
X119735600Y-58115200D02*
X119735600Y-54079800D01*
X119735600Y-54079800D02*
X119786400Y-54029000D01*
X114500000Y-54610000D02*
X114500000Y-58114000D01*
X104000000Y-54029000D02*
X104000000Y-58114000D01*
D49*
X152265000Y-55144466D02*
X152265000Y-57215534D01*
X138250000Y-51850000D02*
X138550000Y-51550000D01*
X148800000Y-51550000D02*
X152225000Y-54975000D01*
X157000000Y-52250000D02*
X155023630Y-52250000D01*
X152225000Y-55048630D02*
X152225000Y-56180000D01*
X155023630Y-52250000D02*
X152225000Y-55048630D01*
X161659798Y-58800000D02*
X163725000Y-56734798D01*
X153849466Y-58800000D02*
X161659798Y-58800000D01*
X152225000Y-54975000D02*
X152225000Y-56180000D01*
X133900000Y-52900000D02*
X137200000Y-52900000D01*
X137200000Y-52900000D02*
X138250000Y-51850000D01*
X152265000Y-57215534D02*
X153849466Y-58800000D01*
X155159466Y-52250000D02*
X152265000Y-55144466D01*
X138550000Y-51550000D02*
X148800000Y-51550000D01*
X163725000Y-56734798D02*
X163725000Y-56180000D01*
X157000000Y-52250000D02*
X155159466Y-52250000D01*
D48*
X116890800Y-60223400D02*
X116890800Y-62255400D01*
X98687000Y-60579000D02*
X101632827Y-60579000D01*
X102674227Y-59537600D02*
X116205000Y-59537600D01*
X112803000Y-63650800D02*
X112803000Y-65246000D01*
X101632827Y-60579000D02*
X102674227Y-59537600D01*
X116205000Y-59537600D02*
X116890800Y-60223400D01*
X97703000Y-59595000D02*
X98687000Y-60579000D01*
X115900200Y-63246000D02*
X113207800Y-63246000D01*
X113207800Y-63246000D02*
X112803000Y-63650800D01*
X116890800Y-62255400D02*
X115900200Y-63246000D01*
X97703000Y-57805000D02*
X97703000Y-59595000D01*
D50*
X114053000Y-79763000D02*
X114053000Y-79716000D01*
D48*
X99737345Y-96672400D02*
X98002600Y-96672400D01*
X98833000Y-83701000D02*
X98833000Y-82746000D01*
X104038400Y-98107900D02*
X102548155Y-98107900D01*
X104051300Y-98120800D02*
X104038400Y-98107900D01*
X98500500Y-84033500D02*
X98833000Y-83701000D01*
X107569000Y-98120800D02*
X104051300Y-98120800D01*
X98002600Y-96672400D02*
X97925000Y-96750000D01*
X99834745Y-96575000D02*
X99737345Y-96672400D01*
X102548155Y-98107900D02*
X101015255Y-96575000D01*
X101015255Y-96575000D02*
X99834745Y-96575000D01*
X114053000Y-68286000D02*
X114053000Y-64197000D01*
X114053000Y-64197000D02*
X114554000Y-63696000D01*
X118567396Y-61215200D02*
X119735600Y-61215200D01*
X116086596Y-63696000D02*
X118567396Y-61215200D01*
X114554000Y-63696000D02*
X116086596Y-63696000D01*
X112835008Y-62346000D02*
X111460008Y-63721000D01*
X111460008Y-63721000D02*
X110040400Y-63721000D01*
X108993000Y-64768400D02*
X110040400Y-63721000D01*
X113368000Y-62346000D02*
X112835008Y-62346000D01*
X108993000Y-65246000D02*
X108993000Y-64768400D01*
X114500000Y-61214000D02*
X113368000Y-62346000D01*
X104000000Y-61214000D02*
X105562400Y-62776400D01*
X105562400Y-64866600D02*
X105183000Y-65246000D01*
X105562400Y-62776400D02*
X105562400Y-64866600D01*
X111000000Y-61214000D02*
X111000000Y-62583600D01*
X108954004Y-64171000D02*
X108218000Y-64171000D01*
X108218000Y-64171000D02*
X107723000Y-64666000D01*
X107723000Y-64666000D02*
X107723000Y-65246000D01*
X109854004Y-63271000D02*
X108954004Y-64171000D01*
X111000000Y-62583600D02*
X110312600Y-63271000D01*
X110312600Y-63271000D02*
X109854004Y-63271000D01*
X106146600Y-64939600D02*
X106453000Y-65246000D01*
X107500000Y-61214000D02*
X106146600Y-62567400D01*
X106146600Y-62567400D02*
X106146600Y-64939600D01*
X154895113Y-65750000D02*
X162500000Y-65750000D01*
X121361200Y-81457800D02*
X121803400Y-81900000D01*
X163725000Y-64525000D02*
X163725000Y-63800000D01*
X162500000Y-65750000D02*
X163725000Y-64525000D01*
X121803400Y-81900000D02*
X138745113Y-81900000D01*
X138745113Y-81900000D02*
X154895113Y-65750000D01*
X118261200Y-81484400D02*
X118261200Y-81457800D01*
X112803000Y-82746000D02*
X113100600Y-82448400D01*
X117297200Y-82448400D02*
X118261200Y-81484400D01*
X113100600Y-82448400D02*
X117297200Y-82448400D01*
X124782400Y-81450000D02*
X138558717Y-81450000D01*
X138558717Y-81450000D02*
X152225000Y-67783717D01*
X121361200Y-78028800D02*
X124782400Y-81450000D01*
X152225000Y-67783717D02*
X152225000Y-63800000D01*
X112115600Y-81610200D02*
X116840000Y-81610200D01*
X117286200Y-80144627D02*
X118261200Y-79169627D01*
X111533000Y-82192800D02*
X112115600Y-81610200D01*
X116840000Y-81610200D02*
X117286200Y-81164000D01*
X111533000Y-82746000D02*
X111533000Y-82192800D01*
X118261200Y-79169627D02*
X118261200Y-78028800D01*
X117286200Y-81164000D02*
X117286200Y-80144627D01*
D50*
X149100000Y-89504734D02*
X153604734Y-85000000D01*
X146800000Y-75895700D02*
X146800000Y-82500000D01*
X155372500Y-85000000D02*
X152872500Y-82500000D01*
X121500000Y-91604200D02*
X124891800Y-94996000D01*
X144500000Y-82500000D02*
X144700000Y-82500000D01*
X144700000Y-82500000D02*
X144675000Y-82475000D01*
X146800000Y-82500000D02*
X144700000Y-82500000D01*
X121500000Y-88050000D02*
X121500000Y-91604200D01*
X124891800Y-94996000D02*
X127431800Y-97536000D01*
X153604734Y-85000000D02*
X155372500Y-85000000D01*
X149100000Y-91200000D02*
X149100000Y-89504734D01*
X144675000Y-82475000D02*
X129225000Y-82475000D01*
X155195700Y-67500000D02*
X146800000Y-75895700D01*
X129225000Y-82475000D02*
X126517400Y-85182600D01*
X152872500Y-82500000D02*
X146800000Y-82500000D01*
X142300000Y-84700000D02*
X144500000Y-82500000D01*
X126517400Y-93370400D02*
X124891800Y-94996000D01*
X126517400Y-85182600D02*
X126517400Y-93370400D01*
X155372500Y-67500000D02*
X155195700Y-67500000D01*
D48*
X98062072Y-66321000D02*
X98338000Y-66321000D01*
X97777572Y-66605500D02*
X98062072Y-66321000D01*
X98833000Y-65826000D02*
X98833000Y-65246000D01*
X98338000Y-66321000D02*
X98833000Y-65826000D01*
X102643000Y-65826000D02*
X102643000Y-65246000D01*
X102500000Y-65969000D02*
X102643000Y-65826000D01*
X102500000Y-66500000D02*
X102500000Y-65969000D01*
X109322040Y-84721000D02*
X108947957Y-84346917D01*
X107723000Y-83326000D02*
X107723000Y-82746000D01*
X117043200Y-84658200D02*
X118465600Y-84658200D01*
X108743917Y-84346917D02*
X107723000Y-83326000D01*
X116183400Y-83798400D02*
X114873392Y-83798400D01*
X108947957Y-84346917D02*
X108743917Y-84346917D01*
X117043200Y-84658200D02*
X116183400Y-83798400D01*
X134414517Y-90385483D02*
X135900000Y-88900000D01*
X114873392Y-83798400D02*
X113950792Y-84721000D01*
X113950792Y-84721000D02*
X109322040Y-84721000D01*
X135900000Y-88900000D02*
X136300000Y-88900000D01*
X97790000Y-81203800D02*
X98145600Y-81203800D01*
X98272600Y-81330800D02*
X99850161Y-81330800D01*
X112978000Y-77496600D02*
X112978000Y-69697396D01*
X112961400Y-69680796D02*
X112961400Y-67266800D01*
X99865983Y-81346622D02*
X100476904Y-80735700D01*
X112978000Y-69697396D02*
X112961400Y-69680796D01*
X100476904Y-80735700D02*
X109738900Y-80735700D01*
X99850161Y-81330800D02*
X99865983Y-81346622D01*
X109738900Y-80735700D02*
X112978000Y-77496600D01*
X112961400Y-67266800D02*
X111533000Y-65838400D01*
X111533000Y-65838400D02*
X111533000Y-65246000D01*
X98145600Y-81203800D02*
X98272600Y-81330800D01*
D49*
X173550000Y-52250000D02*
X179805000Y-58505000D01*
X165500000Y-52250000D02*
X173550000Y-52250000D01*
D48*
X111000000Y-54029000D02*
X111000000Y-58114000D01*
X107500000Y-54029000D02*
X107500000Y-58114000D01*
X130050000Y-88300000D02*
X127975000Y-88300000D01*
X150200000Y-85200000D02*
X151200000Y-84200000D01*
X149337500Y-85200000D02*
X150200000Y-85200000D01*
X146675000Y-83625000D02*
X148325000Y-83625000D01*
X145600000Y-84700000D02*
X146675000Y-83625000D01*
X148325000Y-83625000D02*
X149337500Y-84637500D01*
X149337500Y-84637500D02*
X149337500Y-85200000D01*
D50*
X119950000Y-91300000D02*
X118200000Y-91300000D01*
X95681800Y-87159700D02*
X95681800Y-93116400D01*
X107569000Y-95580200D02*
X108381800Y-96393000D01*
X122400000Y-95044200D02*
X122400000Y-93750000D01*
X109677200Y-96393000D02*
X109689900Y-96380300D01*
X97536000Y-85305500D02*
X97536000Y-82773000D01*
X108381800Y-96393000D02*
X109677200Y-96393000D01*
X116900000Y-90000000D02*
X116900000Y-88050000D01*
X111490600Y-97126900D02*
X111490600Y-97993200D01*
X97536000Y-85305500D02*
X95681800Y-87159700D01*
X124891800Y-97536000D02*
X122400000Y-95044200D01*
X118200000Y-91300000D02*
X116900000Y-90000000D01*
X102412800Y-96393000D02*
X108381800Y-96393000D01*
X122400000Y-93750000D02*
X119950000Y-91300000D01*
X110744000Y-96380300D02*
X111490600Y-97126900D01*
X109689900Y-96380300D02*
X123736100Y-96380300D01*
X107569000Y-95020800D02*
X107569000Y-95580200D01*
X99046572Y-95450000D02*
X99596572Y-96000000D01*
X99596572Y-96000000D02*
X102019800Y-96000000D01*
X98015400Y-95450000D02*
X99046572Y-95450000D01*
X95681800Y-93116400D02*
X98015400Y-95450000D01*
X97536000Y-82773000D02*
X97563000Y-82746000D01*
X97549100Y-85318600D02*
X97536000Y-85305500D01*
X100914200Y-85318600D02*
X97549100Y-85318600D01*
X123736100Y-96380300D02*
X124891800Y-97536000D01*
X100278549Y-85305500D02*
X97536000Y-85305500D01*
X109689900Y-96380300D02*
X110744000Y-96380300D01*
X102019800Y-96000000D02*
X102412800Y-96393000D01*
D48*
X100791611Y-62056611D02*
X102860623Y-59987600D01*
X102860623Y-59987600D02*
X116018604Y-59987600D01*
X100491223Y-62357000D02*
X100791611Y-62056611D01*
X115713804Y-62796000D02*
X113021404Y-62796000D01*
X111646404Y-64171000D02*
X110758000Y-64171000D01*
X110263000Y-64666000D02*
X110263000Y-65246000D01*
X116440800Y-62069004D02*
X115713804Y-62796000D01*
X113021404Y-62796000D02*
X111646404Y-64171000D01*
X100348222Y-62500000D02*
X100791611Y-62056611D01*
X116018604Y-59987600D02*
X116440800Y-60409796D01*
X116440800Y-60409796D02*
X116440800Y-62069004D01*
X100050000Y-62500000D02*
X100348222Y-62500000D01*
X110758000Y-64171000D02*
X110263000Y-64666000D01*
X116143183Y-80140700D02*
X115712630Y-80571253D01*
X139400000Y-88700000D02*
X139600000Y-88900000D01*
X116836200Y-77830700D02*
X116836200Y-79321835D01*
X116150500Y-80140700D02*
X116143183Y-80140700D01*
X111267308Y-81185700D02*
X100663300Y-81185700D01*
X116713000Y-77384900D02*
X116713000Y-74577400D01*
X139400000Y-87465500D02*
X139400000Y-88700000D01*
X115712630Y-80571253D02*
X115712630Y-80578570D01*
X115712630Y-80578570D02*
X115581000Y-80710200D01*
X116386200Y-79905000D02*
X116150500Y-80140700D01*
X100663300Y-81185700D02*
X100103000Y-81746000D01*
X116713000Y-74577400D02*
X116941600Y-74348800D01*
X116551700Y-77546200D02*
X116713000Y-77384900D01*
X115581000Y-80710200D02*
X111742808Y-80710200D01*
X111742808Y-80710200D02*
X111267308Y-81185700D01*
X100103000Y-81746000D02*
X100103000Y-82746000D01*
X116836200Y-79321835D02*
X116386200Y-79771835D01*
X116386200Y-79771835D02*
X116386200Y-79905000D01*
X116551700Y-77546200D02*
X116836200Y-77830700D01*
D51*
X169000000Y-86425000D02*
X167575000Y-85000000D01*
X179807500Y-86425000D02*
X169000000Y-86425000D01*
X179805000Y-91505000D02*
X163387000Y-91505000D01*
X162839400Y-90957400D02*
X162796800Y-91000000D01*
X163387000Y-91505000D02*
X162839400Y-90957400D01*
X162796800Y-91000000D02*
X153372500Y-91000000D01*
X167987500Y-96585000D02*
X167572500Y-97000000D01*
X179720950Y-96697800D02*
X167903450Y-96697800D01*
X168757800Y-68757800D02*
X167575000Y-67575000D01*
X178565300Y-68757800D02*
X168757800Y-68757800D01*
X179807500Y-70000000D02*
X178565300Y-68757800D01*
D48*
X116836200Y-79958231D02*
X117286200Y-79508231D01*
X144600000Y-88900000D02*
X142900000Y-88900000D01*
X116163130Y-81160200D02*
X111929204Y-81160200D01*
X111453704Y-81635700D02*
X101483300Y-81635700D01*
X117286200Y-79508231D02*
X117286200Y-76715627D01*
X116836200Y-80487130D02*
X116836200Y-79958231D01*
X145000000Y-88500000D02*
X144600000Y-88900000D01*
X111929204Y-81160200D02*
X111453704Y-81635700D01*
X117286200Y-76715627D02*
X119602227Y-74399600D01*
X101373000Y-81746000D02*
X101373000Y-82746000D01*
X101483300Y-81635700D02*
X101373000Y-81746000D01*
X119602227Y-74399600D02*
X120091200Y-74399600D01*
X116447630Y-80875700D02*
X116836200Y-80487130D01*
X116447630Y-80875700D02*
X116163130Y-81160200D01*
D51*
X179805000Y-75000000D02*
X164005000Y-75000000D01*
X162500000Y-73495000D02*
X153372500Y-73495000D01*
X164005000Y-75000000D02*
X162500000Y-73495000D01*
X179805000Y-80085000D02*
X167952500Y-80085000D01*
X167952500Y-80085000D02*
X167572500Y-79705000D01*
D48*
X97925000Y-64304800D02*
X97925000Y-64884000D01*
X98425000Y-63804800D02*
X97925000Y-64304800D01*
X97925000Y-64884000D02*
X97563000Y-65246000D01*
X102616000Y-84074000D02*
X102616000Y-83353000D01*
X102643000Y-83326000D02*
X102643000Y-82746000D01*
X102616000Y-83353000D02*
X102643000Y-83326000D01*
X101373000Y-65826000D02*
X101373000Y-65246000D01*
X99405758Y-67055502D02*
X100143498Y-67055502D01*
X100143498Y-67055502D02*
X101373000Y-65826000D01*
X99029430Y-67431830D02*
X99405758Y-67055502D01*
X97228649Y-67556768D02*
X97373817Y-67411600D01*
X100103000Y-65826000D02*
X100103000Y-65246000D01*
X98816311Y-66605502D02*
X99323498Y-66605502D01*
X96919168Y-67556768D02*
X97228649Y-67556768D01*
X97373817Y-67411600D02*
X98010213Y-67411600D01*
X98010213Y-67411600D02*
X98816311Y-66605502D01*
X99323498Y-66605502D02*
X100103000Y-65826000D01*
X103913000Y-83326000D02*
X103913000Y-82746000D01*
X103911400Y-84099400D02*
X103911400Y-83327600D01*
X103911400Y-83327600D02*
X103913000Y-83326000D01*
D52*
X108000000Y-85700400D02*
X107162600Y-86537800D01*
X108000000Y-85500000D02*
X108000000Y-85700400D01*
X105703000Y-83796000D02*
X106296000Y-83796000D01*
X106296000Y-83796000D02*
X108000000Y-85500000D01*
X107188200Y-89383400D02*
X107238200Y-89433400D01*
X107162600Y-89357800D02*
X107238200Y-89433400D01*
X105183000Y-82746000D02*
X105183000Y-83276000D01*
X104292400Y-86258400D02*
X104571800Y-86537800D01*
X107162600Y-86537800D02*
X107162600Y-89357800D01*
X104571800Y-86537800D02*
X107162600Y-86537800D01*
X105183000Y-83276000D02*
X105703000Y-83796000D01*
X110388200Y-89383400D02*
X110338200Y-89433400D01*
X106453000Y-83202349D02*
X108022568Y-84771917D01*
X108771917Y-84771917D02*
X110412600Y-86412600D01*
X110412600Y-89359000D02*
X110338200Y-89433400D01*
X110412600Y-86537800D02*
X110412600Y-89359000D01*
X110412600Y-86412600D02*
X110412600Y-86537800D01*
X108022568Y-84771917D02*
X108771917Y-84771917D01*
X113309400Y-86258400D02*
X113030000Y-86537800D01*
X113030000Y-86537800D02*
X110412600Y-86537800D01*
X106453000Y-82746000D02*
X106453000Y-83202349D01*
D48*
X147462500Y-84250000D02*
X145912500Y-85800000D01*
X141200000Y-85800000D02*
X140500000Y-85100000D01*
X140500000Y-85100000D02*
X139100000Y-85100000D01*
X139000000Y-86600000D02*
X139000000Y-85000000D01*
X145912500Y-85800000D02*
X141200000Y-85800000D01*
X114097000Y-69600000D02*
X114053000Y-69556000D01*
X133260553Y-87900000D02*
X137700000Y-87900000D01*
X137700000Y-87900000D02*
X139000000Y-86600000D01*
X133150000Y-88300000D02*
X133150000Y-88010553D01*
X139100000Y-85100000D02*
X139000000Y-85000000D01*
X133150000Y-88010553D02*
X133260553Y-87900000D01*
X115800000Y-69600000D02*
X114097000Y-69600000D01*
X114053000Y-78446000D02*
X113137846Y-78446000D01*
X146200000Y-94400000D02*
X146200000Y-96112500D01*
X146012500Y-96300000D02*
X145962500Y-96350000D01*
X146200000Y-96112500D02*
X145962500Y-96350000D01*
X131800000Y-91200000D02*
X132200000Y-91600000D01*
X147600000Y-96300000D02*
X146012500Y-96300000D01*
X113137846Y-78446000D02*
X112864350Y-78719496D01*
X132200000Y-91600000D02*
X133100000Y-91600000D01*
X109518000Y-84271000D02*
X108993000Y-83746000D01*
X119486373Y-83707000D02*
X117867740Y-83707000D01*
X116395753Y-83348400D02*
X114686996Y-83348400D01*
X108993000Y-83746000D02*
X108993000Y-82746000D01*
X116967353Y-83920000D02*
X116395753Y-83348400D01*
X120040400Y-84505800D02*
X120040400Y-84261027D01*
X117654740Y-83920000D02*
X116967353Y-83920000D01*
X114686996Y-83348400D02*
X113764396Y-84271000D01*
X117867740Y-83707000D02*
X117654740Y-83920000D01*
X120040400Y-84261027D02*
X119486373Y-83707000D01*
X113764396Y-84271000D02*
X109518000Y-84271000D01*
X117271800Y-83185000D02*
X116985200Y-82898400D01*
X110338000Y-83821000D02*
X110263000Y-83746000D01*
X114500600Y-82898400D02*
X113578000Y-83821000D01*
X116985200Y-82898400D02*
X114500600Y-82898400D01*
X113578000Y-83821000D02*
X110338000Y-83821000D01*
X110263000Y-83746000D02*
X110263000Y-82746000D01*
X135051800Y-97536000D02*
X136300000Y-96287800D01*
X136300000Y-96287800D02*
X136300000Y-92000000D01*
X138766800Y-96361000D02*
X138766800Y-92833200D01*
X137591800Y-97536000D02*
X138766800Y-96361000D01*
X138766800Y-92833200D02*
X139600000Y-92000000D01*
X140536247Y-97536000D02*
X141425600Y-96646647D01*
X141425600Y-96646647D02*
X141425600Y-93474400D01*
X141425600Y-93474400D02*
X142900000Y-92000000D01*
X140131800Y-97536000D02*
X140536247Y-97536000D01*
D49*
X131900000Y-59500000D02*
X127800000Y-55400000D01*
X141720000Y-59500000D02*
X131900000Y-59500000D01*
X127800000Y-55400000D02*
X127800000Y-52900000D01*
G04 #@! TA.AperFunction,Conductor*
G36*
X148409296Y-85913546D02*
G01*
X148486399Y-85959145D01*
X148646169Y-86005562D01*
X148683488Y-86008499D01*
X148683489Y-86008500D01*
X149520937Y-86008500D01*
X149589058Y-86028502D01*
X149635551Y-86082158D01*
X149646937Y-86134290D01*
X149649767Y-87829884D01*
X149629878Y-87898038D01*
X149612862Y-87919189D01*
X148609225Y-88922826D01*
X148595376Y-88934796D01*
X148575943Y-88949264D01*
X148542007Y-88989705D01*
X148538300Y-88993751D01*
X148532421Y-88999631D01*
X148532414Y-88999639D01*
X148512430Y-89024911D01*
X148511276Y-89026328D01*
X148461964Y-89085098D01*
X148457935Y-89091225D01*
X148457880Y-89091189D01*
X148453825Y-89097554D01*
X148453882Y-89097589D01*
X148450030Y-89103833D01*
X148417609Y-89173357D01*
X148416812Y-89175004D01*
X148382393Y-89243540D01*
X148379882Y-89250441D01*
X148379820Y-89250418D01*
X148377343Y-89257544D01*
X148377404Y-89257565D01*
X148375096Y-89264529D01*
X148359574Y-89339694D01*
X148359178Y-89341481D01*
X148341500Y-89416075D01*
X148340648Y-89423368D01*
X148340581Y-89423360D01*
X148339814Y-89430860D01*
X148339881Y-89430866D01*
X148339241Y-89438177D01*
X148341473Y-89514908D01*
X148341500Y-89516740D01*
X148341500Y-90279414D01*
X148321498Y-90347535D01*
X148281650Y-90386653D01*
X148266965Y-90395711D01*
X148266963Y-90395712D01*
X148145716Y-90516958D01*
X148145710Y-90516966D01*
X148144758Y-90518510D01*
X148143829Y-90519344D01*
X148141165Y-90522715D01*
X148140588Y-90522259D01*
X148091968Y-90565984D01*
X148021892Y-90577381D01*
X147956779Y-90549083D01*
X147930282Y-90518501D01*
X147873634Y-90426660D01*
X147873629Y-90426654D01*
X147748345Y-90301370D01*
X147748339Y-90301365D01*
X147597525Y-90208342D01*
X147429321Y-90152606D01*
X147429318Y-90152605D01*
X147325516Y-90142000D01*
X146454000Y-90142000D01*
X146454000Y-92458000D01*
X147325517Y-92458000D01*
X147325516Y-92457999D01*
X147429318Y-92447394D01*
X147429321Y-92447393D01*
X147597525Y-92391657D01*
X147748339Y-92298634D01*
X147748345Y-92298629D01*
X147873629Y-92173345D01*
X147873634Y-92173339D01*
X147966657Y-92022524D01*
X147981685Y-91977174D01*
X148022099Y-91918802D01*
X148087655Y-91891546D01*
X148157540Y-91904059D01*
X148190385Y-91927711D01*
X148266953Y-92004279D01*
X148266959Y-92004284D01*
X148266960Y-92004285D01*
X148412899Y-92094302D01*
X148575664Y-92148236D01*
X148595756Y-92150288D01*
X148676120Y-92158500D01*
X148676128Y-92158500D01*
X149523871Y-92158500D01*
X149523872Y-92158500D01*
X149523872Y-92158499D01*
X149524794Y-92158453D01*
X149524991Y-92158500D01*
X149527080Y-92158500D01*
X149527080Y-92158999D01*
X149593844Y-92174964D01*
X149643006Y-92226185D01*
X149657203Y-92284080D01*
X149659092Y-93415595D01*
X149639204Y-93483749D01*
X149585626Y-93530331D01*
X149526708Y-93541643D01*
X149523889Y-93541500D01*
X149523872Y-93541500D01*
X148676128Y-93541500D01*
X148676120Y-93541500D01*
X148575666Y-93551763D01*
X148412899Y-93605698D01*
X148266959Y-93695715D01*
X148190781Y-93771893D01*
X148128468Y-93805918D01*
X148057653Y-93800852D01*
X148000817Y-93758305D01*
X147982082Y-93722432D01*
X147967115Y-93677262D01*
X147874030Y-93526348D01*
X147874029Y-93526347D01*
X147874024Y-93526341D01*
X147748658Y-93400975D01*
X147748652Y-93400970D01*
X147737952Y-93394370D01*
X147597738Y-93307885D01*
X147513581Y-93279998D01*
X147429427Y-93252113D01*
X147429420Y-93252112D01*
X147325553Y-93241500D01*
X145074455Y-93241500D01*
X144970574Y-93252112D01*
X144802261Y-93307885D01*
X144651347Y-93400970D01*
X144651341Y-93400975D01*
X144525975Y-93526341D01*
X144525970Y-93526347D01*
X144432885Y-93677262D01*
X144377113Y-93845572D01*
X144377112Y-93845579D01*
X144366500Y-93949446D01*
X144366500Y-94850544D01*
X144377112Y-94954425D01*
X144432885Y-95122738D01*
X144525970Y-95273652D01*
X144525975Y-95273658D01*
X144651341Y-95399024D01*
X144651347Y-95399029D01*
X144651348Y-95399030D01*
X144802262Y-95492115D01*
X144870764Y-95514814D01*
X144929134Y-95555227D01*
X144956390Y-95620784D01*
X144943877Y-95690669D01*
X144920226Y-95723513D01*
X144850546Y-95793193D01*
X144850544Y-95793196D01*
X144765856Y-95936394D01*
X144719437Y-96096170D01*
X144719437Y-96096171D01*
X144716500Y-96133488D01*
X144716500Y-96566511D01*
X144719437Y-96603828D01*
X144719437Y-96603829D01*
X144765856Y-96763605D01*
X144850544Y-96906803D01*
X144850549Y-96906810D01*
X144968189Y-97024450D01*
X144968196Y-97024455D01*
X145111394Y-97109143D01*
X145111397Y-97109143D01*
X145111399Y-97109145D01*
X145271169Y-97155562D01*
X145308488Y-97158499D01*
X145308489Y-97158500D01*
X145308498Y-97158500D01*
X146465500Y-97158500D01*
X146533621Y-97178502D01*
X146580114Y-97232158D01*
X146591500Y-97284500D01*
X146591500Y-97316000D01*
X146571498Y-97384121D01*
X146517842Y-97430614D01*
X146465500Y-97442000D01*
X146216500Y-97442000D01*
X146216500Y-97996000D01*
X146845158Y-97996000D01*
X146909296Y-98013546D01*
X146986399Y-98059145D01*
X147146169Y-98105562D01*
X147183488Y-98108499D01*
X147183489Y-98108500D01*
X147183498Y-98108500D01*
X148491511Y-98108500D01*
X148491511Y-98108499D01*
X148528831Y-98105562D01*
X148688601Y-98059145D01*
X148688603Y-98059143D01*
X148688605Y-98059143D01*
X148791413Y-97998342D01*
X148831807Y-97974453D01*
X148949453Y-97856807D01*
X149012272Y-97750586D01*
X149034143Y-97713605D01*
X149035939Y-97709456D01*
X149081352Y-97654883D01*
X149149060Y-97633525D01*
X149151575Y-97633500D01*
X149540344Y-97633500D01*
X149608465Y-97653502D01*
X149654958Y-97707158D01*
X149666344Y-97759290D01*
X149669789Y-99822790D01*
X149649901Y-99890944D01*
X149596323Y-99937526D01*
X149543789Y-99949000D01*
X95136500Y-99949000D01*
X95068379Y-99928998D01*
X95021886Y-99875342D01*
X95010500Y-99823000D01*
X95010500Y-93821970D01*
X95030502Y-93753849D01*
X95084158Y-93707356D01*
X95154432Y-93697252D01*
X95219012Y-93726746D01*
X95225580Y-93732861D01*
X96132292Y-94639573D01*
X97034732Y-95542013D01*
X97068758Y-95604325D01*
X97063693Y-95675141D01*
X97023031Y-95730537D01*
X97001764Y-95747090D01*
X97001753Y-95747100D01*
X96849280Y-95912729D01*
X96849275Y-95912734D01*
X96726141Y-96101206D01*
X96635703Y-96307386D01*
X96635702Y-96307387D01*
X96580437Y-96525624D01*
X96580436Y-96525630D01*
X96580436Y-96525632D01*
X96561844Y-96750000D01*
X96574837Y-96906803D01*
X96580437Y-96974375D01*
X96635702Y-97192612D01*
X96635703Y-97192613D01*
X96635704Y-97192616D01*
X96683847Y-97302371D01*
X96726141Y-97398793D01*
X96849275Y-97587265D01*
X96849279Y-97587270D01*
X97001762Y-97752908D01*
X97009962Y-97759290D01*
X97179424Y-97891189D01*
X97377426Y-97998342D01*
X97377427Y-97998342D01*
X97377428Y-97998343D01*
X97487120Y-98036000D01*
X97590365Y-98071444D01*
X97812431Y-98108500D01*
X97812435Y-98108500D01*
X98037565Y-98108500D01*
X98037569Y-98108500D01*
X98259635Y-98071444D01*
X98472574Y-97998342D01*
X98627175Y-97914676D01*
X98696602Y-97899846D01*
X98763029Y-97924906D01*
X98805362Y-97981901D01*
X98812754Y-98015604D01*
X98831391Y-98252402D01*
X98890494Y-98498589D01*
X98971477Y-98694098D01*
X98987384Y-98732502D01*
X99119672Y-98948376D01*
X99284102Y-99140898D01*
X99476624Y-99305328D01*
X99692498Y-99437616D01*
X99926409Y-99534505D01*
X100172597Y-99593609D01*
X100425000Y-99613474D01*
X100677403Y-99593609D01*
X100923591Y-99534505D01*
X101157502Y-99437616D01*
X101373376Y-99305328D01*
X101565898Y-99140898D01*
X101730328Y-98948376D01*
X101862616Y-98732502D01*
X101911780Y-98613808D01*
X101956327Y-98558529D01*
X102023690Y-98536108D01*
X102092482Y-98553666D01*
X102117282Y-98572932D01*
X102128385Y-98584035D01*
X102133945Y-98588348D01*
X102138413Y-98592164D01*
X102152764Y-98605640D01*
X102188728Y-98666853D01*
X102189716Y-98671104D01*
X102190512Y-98674822D01*
X102190512Y-98674824D01*
X102190513Y-98674826D01*
X102246285Y-98843138D01*
X102311197Y-98948376D01*
X102339370Y-98994052D01*
X102339375Y-98994058D01*
X102464741Y-99119424D01*
X102464747Y-99119429D01*
X102464748Y-99119430D01*
X102615662Y-99212515D01*
X102783974Y-99268287D01*
X102887855Y-99278900D01*
X105188944Y-99278899D01*
X105292826Y-99268287D01*
X105461138Y-99212515D01*
X105612052Y-99119430D01*
X105642080Y-99089402D01*
X105726905Y-99004578D01*
X105789217Y-98970552D01*
X105860032Y-98975617D01*
X105905095Y-99004578D01*
X106020341Y-99119824D01*
X106020347Y-99119829D01*
X106020348Y-99119830D01*
X106171262Y-99212915D01*
X106339574Y-99268687D01*
X106443455Y-99279300D01*
X108694544Y-99279299D01*
X108798426Y-99268687D01*
X108966738Y-99212915D01*
X109117652Y-99119830D01*
X109243030Y-98994452D01*
X109336115Y-98843538D01*
X109391887Y-98675226D01*
X109402500Y-98571345D01*
X109402499Y-97670256D01*
X109391887Y-97566374D01*
X109336115Y-97398062D01*
X109302550Y-97343645D01*
X109283814Y-97275167D01*
X109305073Y-97207429D01*
X109359581Y-97161937D01*
X109409792Y-97151500D01*
X109612759Y-97151500D01*
X109631019Y-97152830D01*
X109635915Y-97153547D01*
X109654989Y-97156341D01*
X109688346Y-97153422D01*
X109707585Y-97151740D01*
X109713078Y-97151500D01*
X109721375Y-97151500D01*
X109721380Y-97151500D01*
X109743430Y-97148922D01*
X109753382Y-97147759D01*
X109755185Y-97147574D01*
X109831626Y-97140887D01*
X109831627Y-97140886D01*
X109838937Y-97140247D01*
X109838950Y-97140399D01*
X109854606Y-97138800D01*
X110006100Y-97138800D01*
X110074221Y-97158802D01*
X110120714Y-97212458D01*
X110132100Y-97264800D01*
X110132100Y-98891849D01*
X110138609Y-98952396D01*
X110138611Y-98952404D01*
X110189710Y-99089402D01*
X110189712Y-99089407D01*
X110277338Y-99206461D01*
X110394392Y-99294087D01*
X110394394Y-99294088D01*
X110394396Y-99294089D01*
X110448200Y-99314157D01*
X110531395Y-99345188D01*
X110531403Y-99345190D01*
X110591950Y-99351699D01*
X110591955Y-99351699D01*
X110591962Y-99351700D01*
X110591968Y-99351700D01*
X112389232Y-99351700D01*
X112389238Y-99351700D01*
X112389245Y-99351699D01*
X112389249Y-99351699D01*
X112449796Y-99345190D01*
X112449799Y-99345189D01*
X112449801Y-99345189D01*
X112586804Y-99294089D01*
X112607096Y-99278899D01*
X112703861Y-99206461D01*
X112791486Y-99089408D01*
X112791485Y-99089408D01*
X112791489Y-99089404D01*
X112835599Y-98971139D01*
X112878145Y-98914307D01*
X112944666Y-98889496D01*
X113014040Y-98904588D01*
X113046353Y-98929835D01*
X113105843Y-98994458D01*
X113107362Y-98996108D01*
X113123516Y-99008681D01*
X113285024Y-99134389D01*
X113483026Y-99241542D01*
X113483027Y-99241542D01*
X113483028Y-99241543D01*
X113591843Y-99278899D01*
X113695965Y-99314644D01*
X113918031Y-99351700D01*
X113918035Y-99351700D01*
X114143165Y-99351700D01*
X114143169Y-99351700D01*
X114365235Y-99314644D01*
X114578174Y-99241542D01*
X114776176Y-99134389D01*
X114953840Y-98996106D01*
X115106322Y-98830468D01*
X115195118Y-98694554D01*
X115249120Y-98648468D01*
X115319468Y-98638892D01*
X115383825Y-98668869D01*
X115406080Y-98694553D01*
X115430874Y-98732502D01*
X115494875Y-98830465D01*
X115494879Y-98830470D01*
X115553823Y-98894499D01*
X115645837Y-98994452D01*
X115647362Y-98996108D01*
X115663516Y-99008681D01*
X115825024Y-99134389D01*
X116023026Y-99241542D01*
X116023027Y-99241542D01*
X116023028Y-99241543D01*
X116131843Y-99278899D01*
X116235965Y-99314644D01*
X116458031Y-99351700D01*
X116458035Y-99351700D01*
X116683165Y-99351700D01*
X116683169Y-99351700D01*
X116905235Y-99314644D01*
X117118174Y-99241542D01*
X117316176Y-99134389D01*
X117493840Y-98996106D01*
X117646322Y-98830468D01*
X117735416Y-98694098D01*
X117789419Y-98648010D01*
X117859767Y-98638435D01*
X117924124Y-98668412D01*
X117946382Y-98694098D01*
X118035274Y-98830158D01*
X118187697Y-98995734D01*
X118365298Y-99133967D01*
X118365299Y-99133968D01*
X118563228Y-99241082D01*
X118563230Y-99241083D01*
X118776083Y-99314155D01*
X118776090Y-99314157D01*
X118856599Y-99327591D01*
X118856599Y-98426874D01*
X118968285Y-98477880D01*
X119074837Y-98493200D01*
X119146363Y-98493200D01*
X119252915Y-98477880D01*
X119364600Y-98426874D01*
X119364600Y-99327590D01*
X119445107Y-99314157D01*
X119445116Y-99314155D01*
X119657969Y-99241083D01*
X119657971Y-99241082D01*
X119855900Y-99133968D01*
X119855901Y-99133967D01*
X120033502Y-98995734D01*
X120185925Y-98830158D01*
X120309019Y-98641748D01*
X120399420Y-98435656D01*
X120399423Y-98435649D01*
X120447144Y-98247200D01*
X119541716Y-98247200D01*
X119570093Y-98203044D01*
X119610600Y-98065089D01*
X119610600Y-97921311D01*
X119570093Y-97783356D01*
X119541716Y-97739200D01*
X120447144Y-97739200D01*
X120447144Y-97739199D01*
X120399423Y-97550750D01*
X120399420Y-97550743D01*
X120309019Y-97344650D01*
X120301876Y-97333717D01*
X120281362Y-97265749D01*
X120300850Y-97197479D01*
X120354154Y-97150584D01*
X120407358Y-97138800D01*
X123369729Y-97138800D01*
X123437850Y-97158802D01*
X123458824Y-97175705D01*
X123496395Y-97213276D01*
X123530421Y-97275588D01*
X123533300Y-97302371D01*
X123533299Y-98434632D01*
X123533300Y-98434649D01*
X123539809Y-98495196D01*
X123539811Y-98495204D01*
X123590910Y-98632202D01*
X123590912Y-98632207D01*
X123678538Y-98749261D01*
X123795591Y-98836886D01*
X123795593Y-98836887D01*
X123795596Y-98836889D01*
X123849400Y-98856957D01*
X123932595Y-98887988D01*
X123932603Y-98887990D01*
X123993150Y-98894499D01*
X123993155Y-98894499D01*
X123993162Y-98894500D01*
X123993168Y-98894500D01*
X125790432Y-98894500D01*
X125790438Y-98894500D01*
X125790445Y-98894499D01*
X125790449Y-98894499D01*
X125850996Y-98887990D01*
X125850999Y-98887989D01*
X125851001Y-98887989D01*
X125988004Y-98836889D01*
X125988006Y-98836886D01*
X125988009Y-98836886D01*
X126105061Y-98749261D01*
X126192686Y-98632208D01*
X126192685Y-98632208D01*
X126192689Y-98632204D01*
X126236799Y-98513939D01*
X126279345Y-98457107D01*
X126345866Y-98432296D01*
X126415240Y-98447388D01*
X126447553Y-98472635D01*
X126505984Y-98536108D01*
X126508562Y-98538908D01*
X126550237Y-98571345D01*
X126686224Y-98677189D01*
X126884226Y-98784342D01*
X126884227Y-98784342D01*
X126884228Y-98784343D01*
X126996027Y-98822723D01*
X127097165Y-98857444D01*
X127319231Y-98894500D01*
X127319235Y-98894500D01*
X127544365Y-98894500D01*
X127544369Y-98894500D01*
X127766435Y-98857444D01*
X127979374Y-98784342D01*
X128177376Y-98677189D01*
X128355040Y-98538906D01*
X128507522Y-98373268D01*
X128596318Y-98237354D01*
X128650320Y-98191268D01*
X128720668Y-98181692D01*
X128785025Y-98211669D01*
X128807280Y-98237353D01*
X128817113Y-98252403D01*
X128896075Y-98373265D01*
X128896079Y-98373270D01*
X129048562Y-98538908D01*
X129090237Y-98571345D01*
X129226224Y-98677189D01*
X129424226Y-98784342D01*
X129424227Y-98784342D01*
X129424228Y-98784343D01*
X129536027Y-98822723D01*
X129637165Y-98857444D01*
X129859231Y-98894500D01*
X129859235Y-98894500D01*
X130084365Y-98894500D01*
X130084369Y-98894500D01*
X130306435Y-98857444D01*
X130519374Y-98784342D01*
X130717376Y-98677189D01*
X130895040Y-98538906D01*
X131047522Y-98373268D01*
X131136318Y-98237356D01*
X131190320Y-98191268D01*
X131260668Y-98181693D01*
X131325026Y-98211670D01*
X131347283Y-98237357D01*
X131436075Y-98373265D01*
X131436079Y-98373270D01*
X131588562Y-98538908D01*
X131630237Y-98571345D01*
X131766224Y-98677189D01*
X131964226Y-98784342D01*
X131964227Y-98784342D01*
X131964228Y-98784343D01*
X132076027Y-98822723D01*
X132177165Y-98857444D01*
X132399231Y-98894500D01*
X132399235Y-98894500D01*
X132624365Y-98894500D01*
X132624369Y-98894500D01*
X132846435Y-98857444D01*
X133059374Y-98784342D01*
X133257376Y-98677189D01*
X133435040Y-98538906D01*
X133587522Y-98373268D01*
X133676318Y-98237354D01*
X133730320Y-98191268D01*
X133800668Y-98181692D01*
X133865025Y-98211669D01*
X133887280Y-98237353D01*
X133897113Y-98252403D01*
X133976075Y-98373265D01*
X133976079Y-98373270D01*
X134128562Y-98538908D01*
X134170237Y-98571345D01*
X134306224Y-98677189D01*
X134504226Y-98784342D01*
X134504227Y-98784342D01*
X134504228Y-98784343D01*
X134616027Y-98822723D01*
X134717165Y-98857444D01*
X134939231Y-98894500D01*
X134939235Y-98894500D01*
X135164365Y-98894500D01*
X135164369Y-98894500D01*
X135386435Y-98857444D01*
X135599374Y-98784342D01*
X135797376Y-98677189D01*
X135975040Y-98538906D01*
X136127522Y-98373268D01*
X136216318Y-98237354D01*
X136270320Y-98191268D01*
X136340668Y-98181692D01*
X136405025Y-98211669D01*
X136427280Y-98237353D01*
X136437113Y-98252403D01*
X136516075Y-98373265D01*
X136516079Y-98373270D01*
X136668562Y-98538908D01*
X136710237Y-98571345D01*
X136846224Y-98677189D01*
X137044226Y-98784342D01*
X137044227Y-98784342D01*
X137044228Y-98784343D01*
X137156027Y-98822723D01*
X137257165Y-98857444D01*
X137479231Y-98894500D01*
X137479235Y-98894500D01*
X137704365Y-98894500D01*
X137704369Y-98894500D01*
X137926435Y-98857444D01*
X138139374Y-98784342D01*
X138337376Y-98677189D01*
X138515040Y-98538906D01*
X138667522Y-98373268D01*
X138756318Y-98237354D01*
X138810320Y-98191268D01*
X138880668Y-98181692D01*
X138945025Y-98211669D01*
X138967280Y-98237353D01*
X138977113Y-98252403D01*
X139056075Y-98373265D01*
X139056079Y-98373270D01*
X139208562Y-98538908D01*
X139250237Y-98571345D01*
X139386224Y-98677189D01*
X139584226Y-98784342D01*
X139584227Y-98784342D01*
X139584228Y-98784343D01*
X139696027Y-98822723D01*
X139797165Y-98857444D01*
X140019231Y-98894500D01*
X140019235Y-98894500D01*
X140244365Y-98894500D01*
X140244369Y-98894500D01*
X140466435Y-98857444D01*
X140679374Y-98784342D01*
X140877376Y-98677189D01*
X141055040Y-98538906D01*
X141207522Y-98373268D01*
X141296616Y-98236898D01*
X141350619Y-98190810D01*
X141420967Y-98181235D01*
X141485324Y-98211212D01*
X141507582Y-98236898D01*
X141596474Y-98372958D01*
X141748897Y-98538534D01*
X141926498Y-98676767D01*
X141926499Y-98676768D01*
X142124428Y-98783882D01*
X142124430Y-98783883D01*
X142337283Y-98856955D01*
X142337292Y-98856957D01*
X142417800Y-98870391D01*
X142417800Y-97969674D01*
X142529485Y-98020680D01*
X142636037Y-98036000D01*
X142707563Y-98036000D01*
X142814115Y-98020680D01*
X142925800Y-97969674D01*
X142925800Y-98870390D01*
X143006307Y-98856957D01*
X143006316Y-98856955D01*
X143219169Y-98783883D01*
X143219171Y-98783882D01*
X143417100Y-98676768D01*
X143417101Y-98676767D01*
X143594702Y-98538534D01*
X143626493Y-98504000D01*
X144720007Y-98504000D01*
X144766318Y-98663401D01*
X144850948Y-98806501D01*
X144850949Y-98806503D01*
X144968496Y-98924050D01*
X144968498Y-98924051D01*
X145111598Y-99008681D01*
X145271251Y-99055065D01*
X145271249Y-99055065D01*
X145308543Y-99057999D01*
X145708500Y-99057999D01*
X145708500Y-98504000D01*
X146216500Y-98504000D01*
X146216500Y-99057999D01*
X146616456Y-99057999D01*
X146653750Y-99055065D01*
X146813400Y-99008681D01*
X146956501Y-98924051D01*
X146956503Y-98924050D01*
X147074050Y-98806503D01*
X147074051Y-98806501D01*
X147158681Y-98663401D01*
X147204993Y-98504000D01*
X146216500Y-98504000D01*
X145708500Y-98504000D01*
X144720007Y-98504000D01*
X143626493Y-98504000D01*
X143747125Y-98372958D01*
X143870219Y-98184548D01*
X143952924Y-97996000D01*
X144720007Y-97996000D01*
X145708500Y-97996000D01*
X145708500Y-97442000D01*
X145308544Y-97442000D01*
X145271249Y-97444934D01*
X145111599Y-97491318D01*
X144968498Y-97575948D01*
X144968496Y-97575949D01*
X144850949Y-97693496D01*
X144850948Y-97693498D01*
X144766318Y-97836598D01*
X144720007Y-97996000D01*
X143952924Y-97996000D01*
X143960620Y-97978456D01*
X143960623Y-97978449D01*
X144008344Y-97790000D01*
X143102916Y-97790000D01*
X143131293Y-97745844D01*
X143171800Y-97607889D01*
X143171800Y-97464111D01*
X143131293Y-97326156D01*
X143102916Y-97282000D01*
X144008344Y-97282000D01*
X144008344Y-97281999D01*
X143960623Y-97093550D01*
X143960620Y-97093543D01*
X143870219Y-96887451D01*
X143747125Y-96699041D01*
X143594702Y-96533465D01*
X143417101Y-96395232D01*
X143417100Y-96395231D01*
X143383591Y-96377097D01*
X143333201Y-96327083D01*
X143317850Y-96257766D01*
X143342412Y-96191153D01*
X143383590Y-96155472D01*
X143417376Y-96137189D01*
X143595040Y-95998906D01*
X143747522Y-95833268D01*
X143870660Y-95644791D01*
X143961096Y-95438616D01*
X144016364Y-95220368D01*
X144034956Y-94996000D01*
X144016364Y-94771632D01*
X143973914Y-94604000D01*
X143961097Y-94553387D01*
X143961096Y-94553386D01*
X143961096Y-94553384D01*
X143870660Y-94347209D01*
X143862932Y-94335381D01*
X143747524Y-94158734D01*
X143747520Y-94158729D01*
X143595037Y-93993091D01*
X143448122Y-93878742D01*
X143417376Y-93854811D01*
X143219374Y-93747658D01*
X143219372Y-93747657D01*
X143219371Y-93747656D01*
X143006439Y-93674557D01*
X143006430Y-93674555D01*
X142962276Y-93667187D01*
X142784369Y-93637500D01*
X142559231Y-93637500D01*
X142488550Y-93649294D01*
X142466067Y-93653046D01*
X142395583Y-93644528D01*
X142340893Y-93599256D01*
X142319361Y-93531603D01*
X142337823Y-93463049D01*
X142356228Y-93439674D01*
X142600500Y-93195402D01*
X142662812Y-93161378D01*
X142689595Y-93158499D01*
X144025544Y-93158499D01*
X144129426Y-93147887D01*
X144297738Y-93092115D01*
X144448652Y-92999030D01*
X144574030Y-92873652D01*
X144667115Y-92722738D01*
X144722887Y-92554426D01*
X144725621Y-92527657D01*
X144752444Y-92461922D01*
X144810547Y-92421124D01*
X144881484Y-92418215D01*
X144890602Y-92420860D01*
X144970669Y-92447392D01*
X144970681Y-92447394D01*
X145074483Y-92457999D01*
X145074483Y-92458000D01*
X145946000Y-92458000D01*
X145946000Y-90142000D01*
X145074483Y-90142000D01*
X144970681Y-90152605D01*
X144970678Y-90152606D01*
X144802474Y-90208342D01*
X144651660Y-90301365D01*
X144651654Y-90301370D01*
X144526370Y-90426654D01*
X144526365Y-90426660D01*
X144433342Y-90577474D01*
X144377606Y-90745678D01*
X144377605Y-90745681D01*
X144374917Y-90771994D01*
X144348095Y-90837729D01*
X144289992Y-90878527D01*
X144219055Y-90881436D01*
X144209949Y-90878795D01*
X144129426Y-90852113D01*
X144129420Y-90852112D01*
X144025553Y-90841500D01*
X141774455Y-90841500D01*
X141670574Y-90852112D01*
X141502261Y-90907885D01*
X141351347Y-91000970D01*
X141339093Y-91013224D01*
X141276780Y-91047247D01*
X141205964Y-91042180D01*
X141160907Y-91013224D01*
X141148654Y-91000972D01*
X141148652Y-91000970D01*
X141117981Y-90982052D01*
X140997738Y-90907885D01*
X140909140Y-90878527D01*
X140829427Y-90852113D01*
X140829420Y-90852112D01*
X140725553Y-90841500D01*
X138474455Y-90841500D01*
X138370574Y-90852112D01*
X138202261Y-90907885D01*
X138051347Y-91000970D01*
X138051341Y-91000975D01*
X138039095Y-91013222D01*
X137976783Y-91047248D01*
X137905968Y-91042183D01*
X137860905Y-91013222D01*
X137848658Y-91000975D01*
X137848652Y-91000970D01*
X137817981Y-90982052D01*
X137697738Y-90907885D01*
X137609140Y-90878527D01*
X137529427Y-90852113D01*
X137529420Y-90852112D01*
X137425553Y-90841500D01*
X137425545Y-90841500D01*
X135405540Y-90841500D01*
X135337419Y-90821498D01*
X135290926Y-90767842D01*
X135280822Y-90697568D01*
X135285707Y-90676564D01*
X135317894Y-90577502D01*
X135319820Y-90559180D01*
X135336660Y-90398948D01*
X135363672Y-90333296D01*
X135372856Y-90323046D01*
X135600501Y-90095401D01*
X135662811Y-90061378D01*
X135689594Y-90058499D01*
X137425544Y-90058499D01*
X137529426Y-90047887D01*
X137697738Y-89992115D01*
X137848652Y-89899030D01*
X137860904Y-89886777D01*
X137923213Y-89852752D01*
X137994029Y-89857815D01*
X138039095Y-89886777D01*
X138051348Y-89899030D01*
X138202262Y-89992115D01*
X138370574Y-90047887D01*
X138474455Y-90058500D01*
X140725544Y-90058499D01*
X140829426Y-90047887D01*
X140997738Y-89992115D01*
X141148652Y-89899030D01*
X141160904Y-89886777D01*
X141223213Y-89852752D01*
X141294029Y-89857815D01*
X141339095Y-89886777D01*
X141351348Y-89899030D01*
X141502262Y-89992115D01*
X141670574Y-90047887D01*
X141774455Y-90058500D01*
X144025544Y-90058499D01*
X144129426Y-90047887D01*
X144297738Y-89992115D01*
X144448652Y-89899030D01*
X144574030Y-89773652D01*
X144667115Y-89622738D01*
X144674711Y-89599812D01*
X144715122Y-89541439D01*
X144752024Y-89522909D01*
X144751424Y-89521394D01*
X144775880Y-89511710D01*
X144802679Y-89501099D01*
X144808274Y-89499183D01*
X144836816Y-89490891D01*
X144853591Y-89486019D01*
X144853595Y-89486017D01*
X144871026Y-89475708D01*
X144888780Y-89467009D01*
X144907617Y-89459552D01*
X144907620Y-89459550D01*
X144930996Y-89442566D01*
X144997863Y-89418706D01*
X145005059Y-89418500D01*
X145096538Y-89418500D01*
X145285395Y-89378357D01*
X145461780Y-89299826D01*
X145617982Y-89186338D01*
X145747175Y-89042854D01*
X145843713Y-88875645D01*
X145903377Y-88692019D01*
X145923559Y-88500000D01*
X145903377Y-88307981D01*
X145903377Y-88307980D01*
X145843715Y-88124360D01*
X145843711Y-88124352D01*
X145747177Y-87957149D01*
X145747176Y-87957148D01*
X145747175Y-87957146D01*
X145617982Y-87813662D01*
X145610925Y-87808535D01*
X145461780Y-87700174D01*
X145285395Y-87621643D01*
X145096538Y-87581500D01*
X144903462Y-87581500D01*
X144714604Y-87621643D01*
X144538216Y-87700176D01*
X144413392Y-87790866D01*
X144346524Y-87814725D01*
X144299699Y-87808535D01*
X144297738Y-87807885D01*
X144151315Y-87759366D01*
X144129427Y-87752113D01*
X144129420Y-87752112D01*
X144025553Y-87741500D01*
X141774455Y-87741500D01*
X141670574Y-87752112D01*
X141502261Y-87807885D01*
X141351347Y-87900970D01*
X141351341Y-87900975D01*
X141339095Y-87913222D01*
X141276783Y-87947248D01*
X141205968Y-87942183D01*
X141160905Y-87913222D01*
X141148658Y-87900975D01*
X141148652Y-87900970D01*
X141122341Y-87884741D01*
X140997738Y-87807885D01*
X140851315Y-87759366D01*
X140829427Y-87752113D01*
X140829420Y-87752112D01*
X140725553Y-87741500D01*
X140725545Y-87741500D01*
X140434487Y-87741500D01*
X140366366Y-87721498D01*
X140319873Y-87667842D01*
X140309177Y-87602331D01*
X140323559Y-87465500D01*
X140303377Y-87273481D01*
X140246500Y-87098435D01*
X140244473Y-87027468D01*
X140281136Y-86966670D01*
X140344848Y-86935344D01*
X140366334Y-86933499D01*
X140950544Y-86933499D01*
X141054426Y-86922887D01*
X141222738Y-86867115D01*
X141373652Y-86774030D01*
X141499030Y-86648652D01*
X141592115Y-86497738D01*
X141592115Y-86497735D01*
X141594819Y-86493353D01*
X141647605Y-86445875D01*
X141702060Y-86433500D01*
X145828647Y-86433500D01*
X145844488Y-86435249D01*
X145844516Y-86434956D01*
X145852401Y-86435700D01*
X145852409Y-86435702D01*
X145913708Y-86433775D01*
X145921476Y-86433531D01*
X145923455Y-86433500D01*
X145952351Y-86433500D01*
X145952356Y-86433500D01*
X145959318Y-86432619D01*
X145965219Y-86432154D01*
X146012389Y-86430673D01*
X146031847Y-86425019D01*
X146051194Y-86421013D01*
X146071297Y-86418474D01*
X146079682Y-86415153D01*
X146150380Y-86408669D01*
X146213363Y-86441437D01*
X146247070Y-86497148D01*
X146266318Y-86563401D01*
X146350948Y-86706501D01*
X146350949Y-86706503D01*
X146468496Y-86824050D01*
X146468498Y-86824051D01*
X146611598Y-86908681D01*
X146771251Y-86955065D01*
X146771249Y-86955065D01*
X146808543Y-86957999D01*
X147208500Y-86957999D01*
X147208500Y-86404000D01*
X147716500Y-86404000D01*
X147716500Y-86957999D01*
X148116456Y-86957999D01*
X148153750Y-86955065D01*
X148313400Y-86908681D01*
X148456501Y-86824051D01*
X148456503Y-86824050D01*
X148574050Y-86706503D01*
X148574051Y-86706501D01*
X148658681Y-86563401D01*
X148704993Y-86404000D01*
X147716500Y-86404000D01*
X147208500Y-86404000D01*
X147208500Y-86022000D01*
X147228502Y-85953879D01*
X147282158Y-85907386D01*
X147334500Y-85896000D01*
X148345158Y-85896000D01*
X148409296Y-85913546D01*
G37*
G04 #@! TD.AperFunction*
G04 #@! TA.AperFunction,Conductor*
G36*
X127857749Y-82553502D02*
G01*
X127904242Y-82607158D01*
X127914346Y-82677432D01*
X127884852Y-82742012D01*
X127878723Y-82748596D01*
X127417244Y-83210073D01*
X127394297Y-83228217D01*
X127276349Y-83300968D01*
X127276341Y-83300975D01*
X127150975Y-83426341D01*
X127150968Y-83426349D01*
X127078216Y-83544299D01*
X127060071Y-83567246D01*
X126423093Y-84204224D01*
X126360783Y-84238248D01*
X126289968Y-84233184D01*
X126233132Y-84190637D01*
X126208321Y-84124117D01*
X126208000Y-84115128D01*
X126208000Y-83849483D01*
X126197394Y-83745681D01*
X126197393Y-83745678D01*
X126141657Y-83577474D01*
X126048634Y-83426660D01*
X126048629Y-83426654D01*
X125923345Y-83301370D01*
X125923339Y-83301365D01*
X125772525Y-83208342D01*
X125604321Y-83152606D01*
X125604318Y-83152605D01*
X125500516Y-83142000D01*
X125291500Y-83142000D01*
X125291500Y-84746000D01*
X125291499Y-86808309D01*
X125271497Y-86876430D01*
X125254596Y-86897403D01*
X125254000Y-86897999D01*
X125254000Y-89736898D01*
X125276120Y-89777410D01*
X125278999Y-89804191D01*
X125279000Y-91728000D01*
X125258998Y-91796121D01*
X125205342Y-91842614D01*
X125153000Y-91854000D01*
X123804501Y-91854000D01*
X123804501Y-92531830D01*
X123784499Y-92599951D01*
X123730843Y-92646444D01*
X123660569Y-92656548D01*
X123595989Y-92627054D01*
X123589406Y-92620925D01*
X122295404Y-91326924D01*
X122261379Y-91264612D01*
X122258499Y-91237829D01*
X122258499Y-90426654D01*
X122258499Y-89675477D01*
X122278501Y-89607360D01*
X122332157Y-89560867D01*
X122355523Y-89552858D01*
X122359192Y-89551989D01*
X122359201Y-89551989D01*
X122496204Y-89500889D01*
X122496799Y-89500444D01*
X122613261Y-89413261D01*
X122700887Y-89296207D01*
X122700887Y-89296206D01*
X122700889Y-89296204D01*
X122751989Y-89159201D01*
X122757942Y-89103833D01*
X122758499Y-89098649D01*
X122758500Y-89098632D01*
X122758500Y-88554000D01*
X123779501Y-88554000D01*
X123779501Y-89425507D01*
X123790105Y-89529318D01*
X123845842Y-89697525D01*
X123938866Y-89848339D01*
X123963930Y-89873402D01*
X123997956Y-89935714D01*
X123992892Y-90006530D01*
X123967870Y-90045469D01*
X123968419Y-90045903D01*
X123964002Y-90051488D01*
X123963940Y-90051586D01*
X123963871Y-90051654D01*
X123963866Y-90051660D01*
X123870842Y-90202474D01*
X123815106Y-90370678D01*
X123815105Y-90370681D01*
X123804500Y-90474484D01*
X123804500Y-91346000D01*
X124771000Y-91346000D01*
X124771000Y-90163102D01*
X124748879Y-90122592D01*
X124746000Y-90095809D01*
X124746000Y-88554000D01*
X123779501Y-88554000D01*
X122758500Y-88554000D01*
X122758500Y-88046000D01*
X123779500Y-88046000D01*
X124746000Y-88046000D01*
X124746000Y-86516691D01*
X124766002Y-86448570D01*
X124782905Y-86427596D01*
X124783500Y-86427001D01*
X124783500Y-85254000D01*
X123867000Y-85254000D01*
X123867000Y-86150516D01*
X123877605Y-86254318D01*
X123877606Y-86254321D01*
X123933343Y-86422527D01*
X124008711Y-86544719D01*
X124027448Y-86613198D01*
X124006188Y-86680937D01*
X123990566Y-86699960D01*
X123938866Y-86751660D01*
X123845842Y-86902474D01*
X123790106Y-87070678D01*
X123790105Y-87070681D01*
X123779500Y-87174484D01*
X123779500Y-88046000D01*
X122758500Y-88046000D01*
X122758500Y-87001367D01*
X122758499Y-87001350D01*
X122751990Y-86940803D01*
X122751988Y-86940795D01*
X122717420Y-86848117D01*
X122700889Y-86803796D01*
X122700888Y-86803794D01*
X122700887Y-86803792D01*
X122613261Y-86686738D01*
X122496207Y-86599112D01*
X122496202Y-86599110D01*
X122359204Y-86548011D01*
X122359196Y-86548009D01*
X122298649Y-86541500D01*
X122298638Y-86541500D01*
X120701362Y-86541500D01*
X120701350Y-86541500D01*
X120640803Y-86548009D01*
X120640795Y-86548011D01*
X120503797Y-86599110D01*
X120503793Y-86599112D01*
X120425090Y-86658028D01*
X120358570Y-86682838D01*
X120289196Y-86667746D01*
X120274073Y-86658027D01*
X120195965Y-86599555D01*
X120059093Y-86548505D01*
X119998597Y-86542000D01*
X119454000Y-86542000D01*
X119454000Y-89558000D01*
X119998585Y-89558000D01*
X119998597Y-89557999D01*
X120059093Y-89551494D01*
X120195964Y-89500444D01*
X120195966Y-89500443D01*
X120274072Y-89441973D01*
X120340592Y-89417161D01*
X120409966Y-89432252D01*
X120425091Y-89441972D01*
X120503792Y-89500887D01*
X120503794Y-89500888D01*
X120503796Y-89500889D01*
X120594331Y-89534657D01*
X120640799Y-89551989D01*
X120644478Y-89552859D01*
X120647036Y-89554316D01*
X120648184Y-89554744D01*
X120648114Y-89554929D01*
X120706173Y-89587991D01*
X120739079Y-89650901D01*
X120741500Y-89675481D01*
X120741500Y-90712740D01*
X120721498Y-90780861D01*
X120667842Y-90827354D01*
X120597568Y-90837458D01*
X120532988Y-90807964D01*
X120514434Y-90787984D01*
X120505468Y-90775941D01*
X120465024Y-90742003D01*
X120460970Y-90738289D01*
X120455104Y-90732423D01*
X120455101Y-90732420D01*
X120445555Y-90724871D01*
X120429810Y-90712421D01*
X120428392Y-90711266D01*
X120387035Y-90676564D01*
X120369640Y-90661968D01*
X120369639Y-90661967D01*
X120369635Y-90661964D01*
X120363506Y-90657933D01*
X120363541Y-90657878D01*
X120357187Y-90653829D01*
X120357153Y-90653886D01*
X120350906Y-90650033D01*
X120281375Y-90617609D01*
X120279742Y-90616819D01*
X120211188Y-90582391D01*
X120211186Y-90582390D01*
X120211183Y-90582389D01*
X120204289Y-90579880D01*
X120204311Y-90579817D01*
X120197189Y-90577341D01*
X120197169Y-90577404D01*
X120190210Y-90575097D01*
X120115045Y-90559576D01*
X120113258Y-90559180D01*
X120038656Y-90541500D01*
X120031367Y-90540648D01*
X120031374Y-90540580D01*
X120023877Y-90539814D01*
X120023872Y-90539881D01*
X120016558Y-90539241D01*
X119939825Y-90541473D01*
X119937993Y-90541500D01*
X118566371Y-90541500D01*
X118498250Y-90521498D01*
X118477276Y-90504595D01*
X117727017Y-89754336D01*
X117692991Y-89692024D01*
X117698056Y-89621209D01*
X117740603Y-89564373D01*
X117772079Y-89547186D01*
X117838920Y-89522255D01*
X117896204Y-89500889D01*
X117974910Y-89441969D01*
X118041425Y-89417160D01*
X118110799Y-89432250D01*
X118125926Y-89441971D01*
X118204036Y-89500445D01*
X118340906Y-89551494D01*
X118401402Y-89557999D01*
X118401415Y-89558000D01*
X118946000Y-89558000D01*
X118946000Y-86542000D01*
X118401402Y-86542000D01*
X118340906Y-86548505D01*
X118204035Y-86599555D01*
X118125924Y-86658028D01*
X118059404Y-86682838D01*
X117990030Y-86667746D01*
X117974907Y-86658027D01*
X117896207Y-86599112D01*
X117896202Y-86599110D01*
X117759204Y-86548011D01*
X117759196Y-86548009D01*
X117698649Y-86541500D01*
X117698638Y-86541500D01*
X116101362Y-86541500D01*
X116101350Y-86541500D01*
X116040803Y-86548009D01*
X116040795Y-86548011D01*
X115903797Y-86599110D01*
X115903792Y-86599112D01*
X115786738Y-86686738D01*
X115699112Y-86803792D01*
X115699110Y-86803797D01*
X115648011Y-86940795D01*
X115648009Y-86940803D01*
X115641500Y-87001350D01*
X115641500Y-89098649D01*
X115648009Y-89159196D01*
X115648011Y-89159204D01*
X115699110Y-89296202D01*
X115699112Y-89296207D01*
X115786738Y-89413261D01*
X115903792Y-89500887D01*
X115903794Y-89500888D01*
X115903796Y-89500889D01*
X115994331Y-89534657D01*
X116040799Y-89551989D01*
X116044478Y-89552859D01*
X116047036Y-89554316D01*
X116048184Y-89554744D01*
X116048114Y-89554929D01*
X116106173Y-89587991D01*
X116139079Y-89650901D01*
X116141500Y-89675481D01*
X116141500Y-89935559D01*
X116140170Y-89953819D01*
X116136659Y-89977786D01*
X116136659Y-89977794D01*
X116141260Y-90030372D01*
X116141500Y-90035866D01*
X116141500Y-90044184D01*
X116145242Y-90076199D01*
X116145428Y-90078020D01*
X116152112Y-90154419D01*
X116153596Y-90161606D01*
X116153531Y-90161619D01*
X116155165Y-90168989D01*
X116155229Y-90168975D01*
X116156921Y-90176115D01*
X116166438Y-90202261D01*
X116183175Y-90248247D01*
X116183761Y-90249934D01*
X116207885Y-90322736D01*
X116210987Y-90329388D01*
X116210926Y-90329416D01*
X116214211Y-90336202D01*
X116214270Y-90336173D01*
X116217563Y-90342730D01*
X116259736Y-90406850D01*
X116260717Y-90408390D01*
X116300970Y-90473651D01*
X116300972Y-90473653D01*
X116305522Y-90479408D01*
X116305468Y-90479450D01*
X116310228Y-90485292D01*
X116310279Y-90485250D01*
X116314997Y-90490872D01*
X116314998Y-90490873D01*
X116314999Y-90490874D01*
X116368659Y-90541500D01*
X116370822Y-90543540D01*
X116372136Y-90544817D01*
X117618092Y-91790773D01*
X117630065Y-91804627D01*
X117644531Y-91824058D01*
X117666645Y-91842614D01*
X117684975Y-91857994D01*
X117689021Y-91861702D01*
X117694900Y-91867581D01*
X117694902Y-91867583D01*
X117720174Y-91887565D01*
X117721594Y-91888722D01*
X117780355Y-91938029D01*
X117786495Y-91942067D01*
X117786458Y-91942122D01*
X117792811Y-91946169D01*
X117792847Y-91946113D01*
X117799092Y-91949965D01*
X117799095Y-91949967D01*
X117840297Y-91969180D01*
X117868617Y-91982386D01*
X117870266Y-91983184D01*
X117938812Y-92017609D01*
X117938814Y-92017609D01*
X117945713Y-92020121D01*
X117945689Y-92020185D01*
X117952805Y-92022659D01*
X117952827Y-92022595D01*
X117959791Y-92024902D01*
X117959792Y-92024902D01*
X117959794Y-92024903D01*
X118034989Y-92040429D01*
X118036700Y-92040808D01*
X118111344Y-92058500D01*
X118111351Y-92058500D01*
X118118633Y-92059352D01*
X118118625Y-92059419D01*
X118126122Y-92060185D01*
X118126128Y-92060119D01*
X118133434Y-92060757D01*
X118133442Y-92060759D01*
X118179982Y-92059404D01*
X118210175Y-92058527D01*
X118212007Y-92058500D01*
X119583629Y-92058500D01*
X119651750Y-92078502D01*
X119672724Y-92095405D01*
X120204224Y-92626905D01*
X120238250Y-92689217D01*
X120233185Y-92760032D01*
X120190638Y-92816868D01*
X120124118Y-92841679D01*
X120115129Y-92842000D01*
X119454000Y-92842000D01*
X119454000Y-94478000D01*
X119433998Y-94546121D01*
X119380342Y-94592614D01*
X119328000Y-94604000D01*
X116792000Y-94604000D01*
X116792000Y-95398597D01*
X116798505Y-95459096D01*
X116800318Y-95466766D01*
X116796905Y-95467572D01*
X116800835Y-95522594D01*
X116766805Y-95584903D01*
X116704489Y-95618923D01*
X116677717Y-95621800D01*
X110834372Y-95621800D01*
X110817877Y-95620114D01*
X110817872Y-95620181D01*
X110810558Y-95619541D01*
X110733825Y-95621773D01*
X110731993Y-95621800D01*
X109754341Y-95621800D01*
X109736082Y-95620470D01*
X109712112Y-95616959D01*
X109712111Y-95616959D01*
X109705673Y-95617522D01*
X109659515Y-95621560D01*
X109654022Y-95621800D01*
X109645716Y-95621800D01*
X109617823Y-95625060D01*
X109613698Y-95625542D01*
X109611897Y-95625726D01*
X109536514Y-95632321D01*
X109466910Y-95618333D01*
X109415918Y-95568934D01*
X109399727Y-95499808D01*
X109400186Y-95493990D01*
X109400378Y-95492114D01*
X109402500Y-95471345D01*
X109402499Y-94570256D01*
X109400775Y-94553384D01*
X109391887Y-94466374D01*
X109375221Y-94416078D01*
X109336115Y-94298062D01*
X109243030Y-94147148D01*
X109243029Y-94147147D01*
X109243024Y-94147141D01*
X109191883Y-94096000D01*
X116792000Y-94096000D01*
X118946000Y-94096000D01*
X118946000Y-92842000D01*
X117251402Y-92842000D01*
X117190906Y-92848505D01*
X117054035Y-92899555D01*
X117054034Y-92899555D01*
X116937095Y-92987095D01*
X116849555Y-93104034D01*
X116849555Y-93104035D01*
X116798505Y-93240906D01*
X116792000Y-93301402D01*
X116792000Y-94096000D01*
X109191883Y-94096000D01*
X109117658Y-94021775D01*
X109117652Y-94021770D01*
X109071156Y-93993091D01*
X108966738Y-93928685D01*
X108882582Y-93900798D01*
X108798427Y-93872913D01*
X108798420Y-93872912D01*
X108694553Y-93862300D01*
X106443455Y-93862300D01*
X106339574Y-93872912D01*
X106171261Y-93928685D01*
X106020347Y-94021770D01*
X105929004Y-94113113D01*
X105866692Y-94147138D01*
X105795876Y-94142072D01*
X105741075Y-94102169D01*
X105737035Y-94097060D01*
X105611745Y-93971770D01*
X105611739Y-93971765D01*
X105460925Y-93878742D01*
X105292721Y-93823006D01*
X105292718Y-93823005D01*
X105188916Y-93812400D01*
X104292400Y-93812400D01*
X104292400Y-95110900D01*
X104272398Y-95179021D01*
X104218742Y-95225514D01*
X104166400Y-95236900D01*
X102154216Y-95236900D01*
X102149563Y-95239440D01*
X102115794Y-95241093D01*
X102115794Y-95241500D01*
X102110172Y-95241500D01*
X102109307Y-95241411D01*
X102108178Y-95241467D01*
X102101181Y-95240650D01*
X102101188Y-95240582D01*
X102093677Y-95239814D01*
X102093672Y-95239881D01*
X102086358Y-95239241D01*
X102009625Y-95241473D01*
X102007793Y-95241500D01*
X99962943Y-95241500D01*
X99894822Y-95221498D01*
X99873848Y-95204595D01*
X99628480Y-94959227D01*
X99616508Y-94945375D01*
X99602041Y-94925942D01*
X99602039Y-94925940D01*
X99561596Y-94892003D01*
X99557542Y-94888289D01*
X99551676Y-94882423D01*
X99551673Y-94882420D01*
X99541449Y-94874336D01*
X99526382Y-94862421D01*
X99524964Y-94861266D01*
X99466207Y-94811964D01*
X99460078Y-94807933D01*
X99460113Y-94807878D01*
X99453759Y-94803829D01*
X99453725Y-94803886D01*
X99447478Y-94800033D01*
X99377947Y-94767609D01*
X99376314Y-94766819D01*
X99307760Y-94732391D01*
X99307758Y-94732390D01*
X99307755Y-94732389D01*
X99300861Y-94729880D01*
X99300883Y-94729817D01*
X99298245Y-94728900D01*
X102180400Y-94728900D01*
X103784400Y-94728900D01*
X103784400Y-93812400D01*
X102887883Y-93812400D01*
X102784081Y-93823005D01*
X102784078Y-93823006D01*
X102615874Y-93878742D01*
X102465060Y-93971765D01*
X102465054Y-93971770D01*
X102339770Y-94097054D01*
X102339765Y-94097060D01*
X102246742Y-94247874D01*
X102191006Y-94416078D01*
X102191005Y-94416081D01*
X102180400Y-94519883D01*
X102180400Y-94728900D01*
X99298245Y-94728900D01*
X99293761Y-94727341D01*
X99293741Y-94727404D01*
X99286782Y-94725097D01*
X99211617Y-94709576D01*
X99209830Y-94709180D01*
X99135228Y-94691500D01*
X99127939Y-94690648D01*
X99127946Y-94690580D01*
X99120449Y-94689814D01*
X99120444Y-94689881D01*
X99113130Y-94689241D01*
X99036397Y-94691473D01*
X99034565Y-94691500D01*
X98381771Y-94691500D01*
X98313650Y-94671498D01*
X98292676Y-94654595D01*
X97394735Y-93756654D01*
X97360709Y-93694342D01*
X97365774Y-93623527D01*
X97408321Y-93566691D01*
X97474841Y-93541880D01*
X97524742Y-93548386D01*
X97590483Y-93570955D01*
X97590490Y-93570957D01*
X97812477Y-93608000D01*
X98037523Y-93608000D01*
X98259509Y-93570957D01*
X98259516Y-93570955D01*
X98472369Y-93497883D01*
X98472371Y-93497882D01*
X98670298Y-93390768D01*
X98670302Y-93390766D01*
X98690688Y-93374898D01*
X98052587Y-92736797D01*
X98067315Y-92734680D01*
X98198100Y-92674952D01*
X98306761Y-92580798D01*
X98384493Y-92459844D01*
X98409360Y-92375151D01*
X99048076Y-93013867D01*
X99048077Y-93013866D01*
X99123419Y-92898551D01*
X99213820Y-92692456D01*
X99213823Y-92692449D01*
X99269067Y-92474292D01*
X99275569Y-92395826D01*
X99301128Y-92329590D01*
X99358439Y-92287686D01*
X99429307Y-92283419D01*
X99472269Y-92302959D01*
X99472403Y-92302741D01*
X99474169Y-92303823D01*
X99475195Y-92304290D01*
X99476619Y-92305324D01*
X99476624Y-92305328D01*
X99692498Y-92437616D01*
X99926409Y-92534505D01*
X100172597Y-92593609D01*
X100425000Y-92613474D01*
X100677403Y-92593609D01*
X100923591Y-92534505D01*
X101157502Y-92437616D01*
X101373376Y-92305328D01*
X101565898Y-92140898D01*
X101730328Y-91948376D01*
X101862616Y-91732502D01*
X101959505Y-91498591D01*
X102018609Y-91252403D01*
X102038474Y-91000000D01*
X102018609Y-90747597D01*
X101959505Y-90501409D01*
X101862616Y-90267498D01*
X101730328Y-90051624D01*
X101565898Y-89859102D01*
X101538745Y-89835911D01*
X101499936Y-89776460D01*
X101499430Y-89705465D01*
X101537386Y-89645467D01*
X101554722Y-89637400D01*
X102884400Y-89637400D01*
X102884400Y-89846416D01*
X102895005Y-89950218D01*
X102895006Y-89950221D01*
X102950742Y-90118425D01*
X103043765Y-90269239D01*
X103043770Y-90269245D01*
X103169054Y-90394529D01*
X103169060Y-90394534D01*
X103319874Y-90487557D01*
X103488078Y-90543293D01*
X103488081Y-90543294D01*
X103591883Y-90553899D01*
X103591883Y-90553900D01*
X104038400Y-90553900D01*
X104038400Y-89637400D01*
X104546400Y-89637400D01*
X104546400Y-90553900D01*
X104992917Y-90553900D01*
X104992916Y-90553899D01*
X105096718Y-90543294D01*
X105096721Y-90543293D01*
X105264925Y-90487557D01*
X105415739Y-90394534D01*
X105415745Y-90394529D01*
X105541029Y-90269245D01*
X105541034Y-90269239D01*
X105634057Y-90118425D01*
X105689793Y-89950221D01*
X105689794Y-89950218D01*
X105700399Y-89846416D01*
X105700400Y-89846416D01*
X105700400Y-89637400D01*
X104546400Y-89637400D01*
X104038400Y-89637400D01*
X102884400Y-89637400D01*
X101554722Y-89637400D01*
X101601755Y-89615514D01*
X101620576Y-89614100D01*
X102064717Y-89614100D01*
X102064716Y-89614099D01*
X102168518Y-89603494D01*
X102168521Y-89603493D01*
X102336725Y-89547757D01*
X102487539Y-89454734D01*
X102487545Y-89454729D01*
X102612829Y-89329445D01*
X102612836Y-89329436D01*
X102709093Y-89173379D01*
X102761878Y-89125900D01*
X102831953Y-89114497D01*
X102866253Y-89129400D01*
X104038400Y-89129400D01*
X104038400Y-88212900D01*
X104546400Y-88212900D01*
X104546400Y-89129400D01*
X105700400Y-89129400D01*
X105700400Y-88920383D01*
X105689794Y-88816581D01*
X105689793Y-88816578D01*
X105634057Y-88648374D01*
X105541034Y-88497560D01*
X105541029Y-88497554D01*
X105415745Y-88372270D01*
X105415739Y-88372265D01*
X105264925Y-88279242D01*
X105096721Y-88223506D01*
X105096718Y-88223505D01*
X104992916Y-88212900D01*
X104546400Y-88212900D01*
X104038400Y-88212900D01*
X103591883Y-88212900D01*
X103488081Y-88223505D01*
X103488078Y-88223506D01*
X103319874Y-88279242D01*
X103169060Y-88372265D01*
X103169054Y-88372270D01*
X103043770Y-88497554D01*
X103043765Y-88497560D01*
X102947506Y-88653621D01*
X102894720Y-88701099D01*
X102824645Y-88712502D01*
X102790348Y-88697600D01*
X99081491Y-88697600D01*
X99036876Y-88684500D01*
X97790000Y-88684500D01*
X97790000Y-89601000D01*
X98686517Y-89601000D01*
X98686516Y-89600999D01*
X98790318Y-89590394D01*
X98790321Y-89590393D01*
X98958525Y-89534657D01*
X99109339Y-89441634D01*
X99129453Y-89421520D01*
X99191764Y-89387494D01*
X99262580Y-89392557D01*
X99307647Y-89421520D01*
X99340860Y-89454734D01*
X99435663Y-89513209D01*
X99483141Y-89565995D01*
X99494544Y-89636070D01*
X99466252Y-89701185D01*
X99451348Y-89716258D01*
X99291537Y-89852752D01*
X99284102Y-89859102D01*
X99119671Y-90051625D01*
X98987383Y-90267499D01*
X98890494Y-90501410D01*
X98831391Y-90747597D01*
X98812711Y-90984941D01*
X98787425Y-91051283D01*
X98730287Y-91093422D01*
X98659437Y-91097981D01*
X98627130Y-91085869D01*
X98472371Y-91002118D01*
X98472369Y-91002116D01*
X98259516Y-90929044D01*
X98259509Y-90929042D01*
X98037523Y-90892000D01*
X97812477Y-90892000D01*
X97590490Y-90929042D01*
X97590483Y-90929044D01*
X97377630Y-91002116D01*
X97377628Y-91002118D01*
X97179700Y-91109230D01*
X97159310Y-91125099D01*
X97159310Y-91125100D01*
X97797412Y-91763202D01*
X97782685Y-91765320D01*
X97651900Y-91825048D01*
X97543239Y-91919202D01*
X97465507Y-92040156D01*
X97440639Y-92124849D01*
X96801922Y-91486132D01*
X96726580Y-91601451D01*
X96681687Y-91703796D01*
X96636006Y-91758144D01*
X96568193Y-91779168D01*
X96499780Y-91760191D01*
X96452486Y-91707240D01*
X96440300Y-91653182D01*
X96440300Y-89727000D01*
X96460302Y-89658879D01*
X96513958Y-89612386D01*
X96566300Y-89601000D01*
X97282000Y-89601000D01*
X97282000Y-87260000D01*
X97790000Y-87260000D01*
X97790000Y-88176500D01*
X99368709Y-88176500D01*
X99413324Y-88189600D01*
X100660200Y-88189600D01*
X100660200Y-87273100D01*
X101168200Y-87273100D01*
X101168200Y-88189600D01*
X102772200Y-88189600D01*
X102772200Y-87980583D01*
X102761594Y-87876781D01*
X102761593Y-87876778D01*
X102705857Y-87708574D01*
X102612834Y-87557760D01*
X102612829Y-87557754D01*
X102487545Y-87432470D01*
X102487539Y-87432465D01*
X102336725Y-87339442D01*
X102168521Y-87283706D01*
X102168518Y-87283705D01*
X102064716Y-87273100D01*
X101168200Y-87273100D01*
X100660200Y-87273100D01*
X99763683Y-87273100D01*
X99659881Y-87283705D01*
X99659878Y-87283706D01*
X99491674Y-87339442D01*
X99340860Y-87432465D01*
X99320743Y-87452582D01*
X99258430Y-87486606D01*
X99187614Y-87481540D01*
X99142552Y-87452579D01*
X99109339Y-87419365D01*
X98958525Y-87326342D01*
X98790321Y-87270606D01*
X98790318Y-87270605D01*
X98686516Y-87260000D01*
X97790000Y-87260000D01*
X97282000Y-87260000D01*
X96958372Y-87260000D01*
X96890251Y-87239998D01*
X96843758Y-87186342D01*
X96833654Y-87116068D01*
X96863148Y-87051488D01*
X96869276Y-87044905D01*
X97400776Y-86513404D01*
X97463089Y-86479379D01*
X97489872Y-86476499D01*
X98686544Y-86476499D01*
X98790426Y-86465887D01*
X98958738Y-86410115D01*
X99109652Y-86317030D01*
X99129455Y-86297226D01*
X99191764Y-86263202D01*
X99262580Y-86268265D01*
X99307644Y-86297226D01*
X99340548Y-86330130D01*
X99491462Y-86423215D01*
X99659774Y-86478987D01*
X99763655Y-86489600D01*
X102064744Y-86489599D01*
X102168626Y-86478987D01*
X102336938Y-86423215D01*
X102487852Y-86330130D01*
X102613230Y-86204752D01*
X102650660Y-86144067D01*
X102703444Y-86096590D01*
X102773519Y-86085187D01*
X102838635Y-86113479D01*
X102878118Y-86172484D01*
X102883900Y-86210215D01*
X102883900Y-86721444D01*
X102894512Y-86825325D01*
X102950285Y-86993638D01*
X103043370Y-87144552D01*
X103043375Y-87144558D01*
X103168741Y-87269924D01*
X103168746Y-87269928D01*
X103168748Y-87269930D01*
X103319662Y-87363015D01*
X103487974Y-87418787D01*
X103591855Y-87429400D01*
X104992944Y-87429399D01*
X105096826Y-87418787D01*
X105265138Y-87363015D01*
X105416052Y-87269930D01*
X105502778Y-87183203D01*
X105565088Y-87149180D01*
X105591872Y-87146300D01*
X106403100Y-87146300D01*
X106471221Y-87166302D01*
X106517714Y-87219958D01*
X106529100Y-87272300D01*
X106529100Y-87336449D01*
X106535609Y-87396996D01*
X106535610Y-87396997D01*
X106535610Y-87396999D01*
X106535611Y-87397001D01*
X106546155Y-87425271D01*
X106554100Y-87469303D01*
X106554100Y-87572130D01*
X106534098Y-87640251D01*
X106494248Y-87679369D01*
X106460516Y-87700176D01*
X106364547Y-87759370D01*
X106364541Y-87759375D01*
X106239175Y-87884741D01*
X106239170Y-87884747D01*
X106146085Y-88035662D01*
X106090313Y-88203972D01*
X106090312Y-88203979D01*
X106079700Y-88307846D01*
X106079700Y-90558944D01*
X106090312Y-90662825D01*
X106146085Y-90831138D01*
X106239170Y-90982052D01*
X106239175Y-90982058D01*
X106364541Y-91107424D01*
X106364547Y-91107429D01*
X106364548Y-91107430D01*
X106515462Y-91200515D01*
X106683774Y-91256287D01*
X106787655Y-91266900D01*
X107688744Y-91266899D01*
X107792626Y-91256287D01*
X107960938Y-91200515D01*
X108111852Y-91107430D01*
X108237230Y-90982052D01*
X108330315Y-90831138D01*
X108386087Y-90662826D01*
X108396700Y-90558945D01*
X108396699Y-88307856D01*
X108386087Y-88203974D01*
X108330315Y-88035662D01*
X108301191Y-87988445D01*
X108282455Y-87919967D01*
X108303714Y-87852229D01*
X108358222Y-87806737D01*
X108408433Y-87796300D01*
X108486232Y-87796300D01*
X108486238Y-87796300D01*
X108486245Y-87796299D01*
X108486249Y-87796299D01*
X108546796Y-87789790D01*
X108546799Y-87789789D01*
X108546801Y-87789789D01*
X108683804Y-87738689D01*
X108712089Y-87717514D01*
X108778608Y-87692702D01*
X108847983Y-87707792D01*
X108863111Y-87717515D01*
X108891391Y-87738686D01*
X108891393Y-87738687D01*
X108891396Y-87738689D01*
X108927384Y-87752112D01*
X109028395Y-87789788D01*
X109028403Y-87789790D01*
X109088950Y-87796299D01*
X109088955Y-87796299D01*
X109088962Y-87796300D01*
X109167967Y-87796300D01*
X109236088Y-87816302D01*
X109282581Y-87869958D01*
X109292685Y-87940232D01*
X109275208Y-87988447D01*
X109246085Y-88035662D01*
X109190313Y-88203972D01*
X109190312Y-88203979D01*
X109179700Y-88307846D01*
X109179700Y-90558944D01*
X109190312Y-90662825D01*
X109246085Y-90831138D01*
X109339170Y-90982052D01*
X109339175Y-90982058D01*
X109464541Y-91107424D01*
X109464547Y-91107429D01*
X109464548Y-91107430D01*
X109615462Y-91200515D01*
X109783774Y-91256287D01*
X109887655Y-91266900D01*
X110788744Y-91266899D01*
X110892626Y-91256287D01*
X111060938Y-91200515D01*
X111211852Y-91107430D01*
X111337230Y-90982052D01*
X111430315Y-90831138D01*
X111486087Y-90662826D01*
X111496700Y-90558945D01*
X111496699Y-89637400D01*
X111901400Y-89637400D01*
X111901400Y-89846416D01*
X111912005Y-89950218D01*
X111912006Y-89950221D01*
X111967742Y-90118425D01*
X112060765Y-90269239D01*
X112060770Y-90269245D01*
X112186054Y-90394529D01*
X112186060Y-90394534D01*
X112336874Y-90487557D01*
X112505078Y-90543293D01*
X112505081Y-90543294D01*
X112608883Y-90553899D01*
X112608883Y-90553900D01*
X113055400Y-90553900D01*
X113055400Y-89637400D01*
X113563400Y-89637400D01*
X113563400Y-90553900D01*
X114009917Y-90553900D01*
X114009916Y-90553899D01*
X114113718Y-90543294D01*
X114113721Y-90543293D01*
X114281925Y-90487557D01*
X114432739Y-90394534D01*
X114432745Y-90394529D01*
X114558029Y-90269245D01*
X114558034Y-90269239D01*
X114651057Y-90118425D01*
X114706793Y-89950221D01*
X114706794Y-89950218D01*
X114717399Y-89846416D01*
X114717400Y-89846416D01*
X114717400Y-89637400D01*
X113563400Y-89637400D01*
X113055400Y-89637400D01*
X111901400Y-89637400D01*
X111496699Y-89637400D01*
X111496699Y-89129400D01*
X111901400Y-89129400D01*
X113055400Y-89129400D01*
X113055400Y-88212900D01*
X113563400Y-88212900D01*
X113563400Y-89129400D01*
X114717400Y-89129400D01*
X114717400Y-88920383D01*
X114706794Y-88816581D01*
X114706793Y-88816578D01*
X114651057Y-88648374D01*
X114558034Y-88497560D01*
X114558029Y-88497554D01*
X114432745Y-88372270D01*
X114432739Y-88372265D01*
X114281925Y-88279242D01*
X114113721Y-88223506D01*
X114113718Y-88223505D01*
X114009916Y-88212900D01*
X113563400Y-88212900D01*
X113055400Y-88212900D01*
X112608883Y-88212900D01*
X112505081Y-88223505D01*
X112505078Y-88223506D01*
X112336874Y-88279242D01*
X112186060Y-88372265D01*
X112186054Y-88372270D01*
X112060770Y-88497554D01*
X112060765Y-88497560D01*
X111967742Y-88648374D01*
X111912006Y-88816578D01*
X111912005Y-88816581D01*
X111901400Y-88920383D01*
X111901400Y-89129400D01*
X111496699Y-89129400D01*
X111496699Y-88307856D01*
X111486087Y-88203974D01*
X111430315Y-88035662D01*
X111337230Y-87884748D01*
X111337229Y-87884747D01*
X111337224Y-87884741D01*
X111211858Y-87759375D01*
X111211854Y-87759372D01*
X111211852Y-87759370D01*
X111200087Y-87752113D01*
X111080953Y-87678629D01*
X111033475Y-87625843D01*
X111021100Y-87571389D01*
X111021100Y-87469303D01*
X111029044Y-87425271D01*
X111039589Y-87397001D01*
X111046100Y-87336438D01*
X111046100Y-87272300D01*
X111066102Y-87204179D01*
X111119758Y-87157686D01*
X111172100Y-87146300D01*
X112009928Y-87146300D01*
X112078049Y-87166302D01*
X112099018Y-87183200D01*
X112185748Y-87269930D01*
X112336662Y-87363015D01*
X112504974Y-87418787D01*
X112608855Y-87429400D01*
X114009944Y-87429399D01*
X114113826Y-87418787D01*
X114282138Y-87363015D01*
X114433052Y-87269930D01*
X114558430Y-87144552D01*
X114651515Y-86993638D01*
X114707287Y-86825326D01*
X114717900Y-86721445D01*
X114717899Y-85795356D01*
X114714241Y-85759552D01*
X114707287Y-85691474D01*
X114690396Y-85640499D01*
X114651515Y-85523162D01*
X114558430Y-85372248D01*
X114558429Y-85372247D01*
X114558424Y-85372241D01*
X114466034Y-85279851D01*
X114432008Y-85217539D01*
X114437073Y-85146724D01*
X114466032Y-85101662D01*
X115098891Y-84468804D01*
X115161204Y-84434779D01*
X115187987Y-84431900D01*
X115868806Y-84431900D01*
X115936927Y-84451902D01*
X115957901Y-84468805D01*
X116084841Y-84595745D01*
X116118867Y-84658057D01*
X116121056Y-84671669D01*
X116139822Y-84850220D01*
X116199484Y-85033839D01*
X116199488Y-85033847D01*
X116296022Y-85201050D01*
X116296023Y-85201052D01*
X116296025Y-85201054D01*
X116425218Y-85344538D01*
X116581420Y-85458026D01*
X116757805Y-85536557D01*
X116946662Y-85576700D01*
X117139738Y-85576700D01*
X117328595Y-85536557D01*
X117504980Y-85458026D01*
X117584707Y-85400100D01*
X117651571Y-85376244D01*
X117720723Y-85392324D01*
X117747860Y-85412943D01*
X117815941Y-85481024D01*
X117815947Y-85481029D01*
X117815948Y-85481030D01*
X117966862Y-85574115D01*
X118135174Y-85629887D01*
X118239055Y-85640500D01*
X118940144Y-85640499D01*
X119044026Y-85629887D01*
X119212338Y-85574115D01*
X119363252Y-85481030D01*
X119488630Y-85355652D01*
X119488631Y-85355649D01*
X119489733Y-85354548D01*
X119552045Y-85320523D01*
X119622861Y-85325587D01*
X119630067Y-85328531D01*
X119755005Y-85384157D01*
X119943862Y-85424300D01*
X120136938Y-85424300D01*
X120325795Y-85384157D01*
X120380912Y-85359617D01*
X120451275Y-85350183D01*
X120515573Y-85380288D01*
X120521254Y-85385629D01*
X120616254Y-85480629D01*
X120616260Y-85480634D01*
X120767074Y-85573657D01*
X120935278Y-85629393D01*
X120935281Y-85629394D01*
X121039083Y-85639999D01*
X121039083Y-85640000D01*
X121135600Y-85640000D01*
X121135600Y-84836000D01*
X121643600Y-84836000D01*
X121643600Y-85640000D01*
X121740117Y-85640000D01*
X121740116Y-85639999D01*
X121843918Y-85629394D01*
X121843921Y-85629393D01*
X122012125Y-85573657D01*
X122162939Y-85480634D01*
X122162945Y-85480629D01*
X122288229Y-85355345D01*
X122288234Y-85355339D01*
X122381257Y-85204525D01*
X122436993Y-85036321D01*
X122436994Y-85036318D01*
X122447599Y-84932516D01*
X122447600Y-84932516D01*
X122447600Y-84836000D01*
X121643600Y-84836000D01*
X121135600Y-84836000D01*
X121135600Y-84746000D01*
X123867000Y-84746000D01*
X124783500Y-84746000D01*
X124783500Y-83142000D01*
X124574483Y-83142000D01*
X124470681Y-83152605D01*
X124470678Y-83152606D01*
X124302474Y-83208342D01*
X124151660Y-83301365D01*
X124151654Y-83301370D01*
X124026370Y-83426654D01*
X124026365Y-83426660D01*
X123933342Y-83577474D01*
X123877606Y-83745678D01*
X123877605Y-83745681D01*
X123867000Y-83849483D01*
X123867000Y-84746000D01*
X121135600Y-84746000D01*
X121135600Y-84454000D01*
X121155602Y-84385879D01*
X121209258Y-84339386D01*
X121261600Y-84328000D01*
X122447600Y-84328000D01*
X122447600Y-84231483D01*
X122436994Y-84127681D01*
X122436993Y-84127678D01*
X122381257Y-83959474D01*
X122288234Y-83808660D01*
X122288229Y-83808654D01*
X122162945Y-83683370D01*
X122162939Y-83683365D01*
X122012125Y-83590342D01*
X121837394Y-83532443D01*
X121837947Y-83530774D01*
X121783313Y-83501171D01*
X121749086Y-83438970D01*
X121753921Y-83368138D01*
X121796283Y-83311164D01*
X121859313Y-83286439D01*
X121915626Y-83280687D01*
X122083938Y-83224915D01*
X122234852Y-83131830D01*
X122360230Y-83006452D01*
X122453315Y-82855538D01*
X122509087Y-82687226D01*
X122513228Y-82646690D01*
X122540049Y-82580959D01*
X122598152Y-82540160D01*
X122638575Y-82533500D01*
X127789628Y-82533500D01*
X127857749Y-82553502D01*
G37*
G04 #@! TD.AperFunction*
G04 #@! TA.AperFunction,Conductor*
G36*
X136483456Y-83253502D02*
G01*
X136529949Y-83307158D01*
X136540053Y-83377432D01*
X136510559Y-83442012D01*
X136504430Y-83448595D01*
X136401370Y-83551654D01*
X136401365Y-83551660D01*
X136308342Y-83702474D01*
X136252606Y-83870678D01*
X136252605Y-83870681D01*
X136242000Y-83974483D01*
X136242000Y-84846000D01*
X137528000Y-84846000D01*
X137596121Y-84866002D01*
X137642614Y-84919658D01*
X137654000Y-84972000D01*
X137654000Y-86958395D01*
X137657478Y-86964765D01*
X137652413Y-87035580D01*
X137623452Y-87080643D01*
X137474500Y-87229595D01*
X137412188Y-87263621D01*
X137385405Y-87266500D01*
X134431686Y-87266500D01*
X134363565Y-87246498D01*
X134317072Y-87192842D01*
X134306338Y-87153304D01*
X134298915Y-87080643D01*
X134297887Y-87070574D01*
X134242115Y-86902262D01*
X134149030Y-86751348D01*
X134149029Y-86751347D01*
X134149024Y-86751341D01*
X134023658Y-86625975D01*
X134023652Y-86625970D01*
X134002945Y-86613198D01*
X133872738Y-86532885D01*
X133788582Y-86504998D01*
X133704427Y-86477113D01*
X133704420Y-86477112D01*
X133600553Y-86466500D01*
X132699455Y-86466500D01*
X132595574Y-86477112D01*
X132427261Y-86532885D01*
X132276347Y-86625970D01*
X132276341Y-86625975D01*
X132150975Y-86751341D01*
X132150970Y-86751347D01*
X132057885Y-86902262D01*
X132002113Y-87070572D01*
X132002112Y-87070579D01*
X131991500Y-87174446D01*
X131991500Y-89425544D01*
X132002112Y-89529425D01*
X132050510Y-89675481D01*
X132057885Y-89697738D01*
X132150969Y-89848651D01*
X132154823Y-89854898D01*
X132152923Y-89856069D01*
X132175408Y-89911813D01*
X132162153Y-89981561D01*
X132139106Y-90013210D01*
X132100975Y-90051341D01*
X132100970Y-90051347D01*
X132007883Y-90202266D01*
X132004859Y-90208751D01*
X131957941Y-90262036D01*
X131890665Y-90281500D01*
X131703462Y-90281500D01*
X131514604Y-90321643D01*
X131396388Y-90374276D01*
X131340964Y-90398953D01*
X131338217Y-90400176D01*
X131332166Y-90404572D01*
X131265297Y-90428426D01*
X131196146Y-90412341D01*
X131146669Y-90361424D01*
X131138506Y-90342264D01*
X131136488Y-90336173D01*
X131092115Y-90202262D01*
X130999030Y-90051348D01*
X130999028Y-90051346D01*
X130995177Y-90045102D01*
X130997076Y-90043930D01*
X130974592Y-89988191D01*
X130987844Y-89918442D01*
X131010895Y-89886787D01*
X131049025Y-89848657D01*
X131049030Y-89848652D01*
X131142115Y-89697738D01*
X131197887Y-89529426D01*
X131208500Y-89425545D01*
X131208499Y-87174456D01*
X131197887Y-87070574D01*
X131142115Y-86902262D01*
X131049030Y-86751348D01*
X131049029Y-86751347D01*
X131049024Y-86751341D01*
X130923658Y-86625975D01*
X130923652Y-86625970D01*
X130902945Y-86613198D01*
X130772738Y-86532885D01*
X130688582Y-86504998D01*
X130604427Y-86477113D01*
X130604420Y-86477112D01*
X130500553Y-86466500D01*
X129599455Y-86466500D01*
X129495572Y-86477113D01*
X129495570Y-86477113D01*
X129456845Y-86489945D01*
X129385890Y-86492384D01*
X129324880Y-86456075D01*
X129293186Y-86392546D01*
X129297610Y-86330707D01*
X129297802Y-86330130D01*
X129322887Y-86254426D01*
X129333500Y-86150545D01*
X129333500Y-85354000D01*
X136242000Y-85354000D01*
X136242000Y-86225516D01*
X136252605Y-86329318D01*
X136252606Y-86329321D01*
X136308342Y-86497525D01*
X136401365Y-86648339D01*
X136401370Y-86648345D01*
X136526654Y-86773629D01*
X136526660Y-86773634D01*
X136677474Y-86866657D01*
X136845678Y-86922393D01*
X136845681Y-86922394D01*
X136949483Y-86932999D01*
X136949483Y-86933000D01*
X137146000Y-86933000D01*
X137146000Y-85354000D01*
X136242000Y-85354000D01*
X129333500Y-85354000D01*
X129333499Y-83849456D01*
X129322887Y-83745574D01*
X129322886Y-83745570D01*
X129322886Y-83745568D01*
X129273716Y-83597183D01*
X129271275Y-83526228D01*
X129304223Y-83468456D01*
X129502276Y-83270404D01*
X129564589Y-83236379D01*
X129591372Y-83233500D01*
X136415335Y-83233500D01*
X136483456Y-83253502D01*
G37*
G04 #@! TD.AperFunction*
G04 #@! TA.AperFunction,Conductor*
G36*
X102218172Y-50058002D02*
G01*
X102264665Y-50111658D01*
X102274769Y-50181932D01*
X102257292Y-50230147D01*
X102233342Y-50268974D01*
X102177606Y-50437178D01*
X102177605Y-50437181D01*
X102167000Y-50540984D01*
X102167000Y-50800000D01*
X116332999Y-50800000D01*
X116332999Y-50540992D01*
X116322394Y-50437181D01*
X116266657Y-50268974D01*
X116242708Y-50230147D01*
X116223971Y-50161668D01*
X116245230Y-50093929D01*
X116299737Y-50048437D01*
X116349949Y-50038000D01*
X117936451Y-50038000D01*
X118004572Y-50058002D01*
X118051065Y-50111658D01*
X118061169Y-50181932D01*
X118043692Y-50230147D01*
X118019742Y-50268974D01*
X117964006Y-50437178D01*
X117964005Y-50437181D01*
X117953400Y-50540984D01*
X117953400Y-50800000D01*
X121619399Y-50800000D01*
X121619399Y-50540992D01*
X121608794Y-50437181D01*
X121553057Y-50268974D01*
X121529108Y-50230147D01*
X121510371Y-50161668D01*
X121531630Y-50093929D01*
X121586137Y-50048437D01*
X121636349Y-50038000D01*
X122873914Y-50038000D01*
X122942035Y-50058002D01*
X122988528Y-50111658D01*
X122999914Y-50164086D01*
X122986799Y-69399799D01*
X122986800Y-69399800D01*
X149408822Y-69399800D01*
X149476943Y-69419802D01*
X149523436Y-69473458D01*
X149533540Y-69543732D01*
X149504046Y-69608312D01*
X149497917Y-69614895D01*
X138333217Y-80779595D01*
X138270905Y-80813621D01*
X138244122Y-80816500D01*
X137811580Y-80816500D01*
X137743459Y-80796498D01*
X137696966Y-80742842D01*
X137686862Y-80672568D01*
X137708367Y-80618229D01*
X137798821Y-80489046D01*
X137897393Y-80277657D01*
X137897395Y-80277652D01*
X137957762Y-80052355D01*
X137978091Y-79820000D01*
X137957762Y-79587644D01*
X137897395Y-79362347D01*
X137897393Y-79362342D01*
X137798822Y-79150955D01*
X137798821Y-79150953D01*
X137745051Y-79074160D01*
X137745048Y-79074160D01*
X137166902Y-79652305D01*
X137163116Y-79634085D01*
X137093558Y-79499844D01*
X136990362Y-79389348D01*
X136861181Y-79310791D01*
X136805576Y-79295211D01*
X137385838Y-78714948D01*
X137309046Y-78661178D01*
X137097657Y-78562606D01*
X137097652Y-78562604D01*
X136872355Y-78502237D01*
X136640000Y-78481908D01*
X136407644Y-78502237D01*
X136182347Y-78562604D01*
X136182342Y-78562606D01*
X135970951Y-78661179D01*
X135894159Y-78714949D01*
X136472375Y-79293165D01*
X136351542Y-79345651D01*
X136234261Y-79441066D01*
X136147072Y-79564585D01*
X136115161Y-79654371D01*
X135534949Y-79074159D01*
X135481179Y-79150951D01*
X135382606Y-79362342D01*
X135382604Y-79362347D01*
X135322237Y-79587644D01*
X135301908Y-79820000D01*
X135322237Y-80052355D01*
X135382604Y-80277652D01*
X135382606Y-80277657D01*
X135481178Y-80489046D01*
X135571633Y-80618229D01*
X135594321Y-80685503D01*
X135577036Y-80754364D01*
X135525266Y-80802948D01*
X135468420Y-80816500D01*
X125096995Y-80816500D01*
X125028874Y-80796498D01*
X125007900Y-80779595D01*
X122556604Y-78328299D01*
X122522578Y-78265987D01*
X122519699Y-78239204D01*
X122519699Y-77674632D01*
X122519699Y-76903256D01*
X122509087Y-76799374D01*
X122453315Y-76631062D01*
X122360230Y-76480148D01*
X122360229Y-76480147D01*
X122360224Y-76480141D01*
X122234858Y-76354775D01*
X122234852Y-76354770D01*
X122083938Y-76261685D01*
X121999782Y-76233798D01*
X121915627Y-76205913D01*
X121915620Y-76205912D01*
X121811753Y-76195300D01*
X120910655Y-76195300D01*
X120806774Y-76205912D01*
X120638461Y-76261685D01*
X120487547Y-76354770D01*
X120487541Y-76354775D01*
X120362175Y-76480141D01*
X120362170Y-76480147D01*
X120269085Y-76631062D01*
X120213313Y-76799372D01*
X120213312Y-76799379D01*
X120202700Y-76903246D01*
X120202700Y-79154344D01*
X120213312Y-79258225D01*
X120269085Y-79426538D01*
X120362170Y-79577452D01*
X120362175Y-79577458D01*
X120438922Y-79654205D01*
X120472948Y-79716517D01*
X120467883Y-79787332D01*
X120438922Y-79832395D01*
X120362175Y-79909141D01*
X120362170Y-79909147D01*
X120269085Y-80060062D01*
X120213313Y-80228372D01*
X120213312Y-80228379D01*
X120202700Y-80332246D01*
X120202700Y-82583344D01*
X120213312Y-82687225D01*
X120269085Y-82855538D01*
X120362170Y-83006452D01*
X120362175Y-83006458D01*
X120487541Y-83131824D01*
X120487547Y-83131829D01*
X120487548Y-83131830D01*
X120638462Y-83224915D01*
X120806774Y-83280687D01*
X120905173Y-83290739D01*
X120970906Y-83317562D01*
X121011705Y-83375665D01*
X121014614Y-83446602D01*
X120978710Y-83507851D01*
X120931998Y-83535691D01*
X120767078Y-83590340D01*
X120610015Y-83687218D01*
X120609283Y-83686032D01*
X120550788Y-83709619D01*
X120487252Y-83699327D01*
X120325795Y-83627443D01*
X120320380Y-83625684D01*
X120270225Y-83594947D01*
X119993617Y-83318339D01*
X119983652Y-83305901D01*
X119983425Y-83306090D01*
X119978374Y-83299984D01*
X119978373Y-83299982D01*
X119969126Y-83291299D01*
X119928000Y-83252679D01*
X119926610Y-83251332D01*
X119911657Y-83236379D01*
X119906149Y-83230870D01*
X119906145Y-83230866D01*
X119900598Y-83226563D01*
X119896090Y-83222712D01*
X119861698Y-83190417D01*
X119861692Y-83190413D01*
X119843936Y-83180651D01*
X119827420Y-83169802D01*
X119811414Y-83157386D01*
X119780662Y-83144078D01*
X119768113Y-83138648D01*
X119762781Y-83136036D01*
X119721434Y-83113305D01*
X119701809Y-83108266D01*
X119683109Y-83101864D01*
X119664518Y-83093819D01*
X119664516Y-83093818D01*
X119664515Y-83093818D01*
X119617915Y-83086437D01*
X119612102Y-83085233D01*
X119566403Y-83073500D01*
X119546149Y-83073500D01*
X119526439Y-83071949D01*
X119506430Y-83068780D01*
X119506429Y-83068780D01*
X119459456Y-83073220D01*
X119453523Y-83073500D01*
X119444633Y-83073500D01*
X119376512Y-83053498D01*
X119330019Y-82999842D01*
X119319915Y-82929568D01*
X119337392Y-82881354D01*
X119341927Y-82874000D01*
X119353315Y-82855538D01*
X119409087Y-82687226D01*
X119419700Y-82583345D01*
X119419699Y-80332256D01*
X119414121Y-80277657D01*
X119409087Y-80228374D01*
X119401560Y-80205658D01*
X119353315Y-80060062D01*
X119260230Y-79909148D01*
X119183475Y-79832393D01*
X119149452Y-79770084D01*
X119154516Y-79699268D01*
X119183475Y-79654206D01*
X119260230Y-79577452D01*
X119353315Y-79426538D01*
X119409087Y-79258226D01*
X119419700Y-79154345D01*
X119419699Y-76903256D01*
X119409087Y-76799374D01*
X119353315Y-76631062D01*
X119260230Y-76480148D01*
X119260229Y-76480147D01*
X119260224Y-76480141D01*
X119134858Y-76354775D01*
X119134852Y-76354770D01*
X119134851Y-76354769D01*
X118983938Y-76261685D01*
X118983934Y-76261683D01*
X118983935Y-76261683D01*
X118916540Y-76239351D01*
X118858168Y-76198937D01*
X118830913Y-76133381D01*
X118843426Y-76063496D01*
X118867075Y-76030654D01*
X119441714Y-75456015D01*
X119504026Y-75421990D01*
X119570442Y-75425507D01*
X119636774Y-75447487D01*
X119740655Y-75458100D01*
X120441744Y-75458099D01*
X120545626Y-75447487D01*
X120713938Y-75391715D01*
X120864852Y-75298630D01*
X120990230Y-75173252D01*
X121083315Y-75022338D01*
X121139087Y-74854026D01*
X121149700Y-74750145D01*
X121149699Y-74049056D01*
X121148968Y-74041905D01*
X121139087Y-73945174D01*
X121132467Y-73925196D01*
X121083315Y-73776862D01*
X120990230Y-73625948D01*
X120990229Y-73625947D01*
X120990224Y-73625941D01*
X120864858Y-73500575D01*
X120864852Y-73500570D01*
X120713938Y-73407485D01*
X120629782Y-73379598D01*
X120545627Y-73351713D01*
X120545620Y-73351712D01*
X120441753Y-73341100D01*
X119740655Y-73341100D01*
X119636774Y-73351712D01*
X119468461Y-73407485D01*
X119317547Y-73500570D01*
X119317541Y-73500575D01*
X119192175Y-73625941D01*
X119192170Y-73625947D01*
X119099085Y-73776862D01*
X119043313Y-73945172D01*
X119043312Y-73945179D01*
X119034504Y-74031382D01*
X119007681Y-74097117D01*
X118998252Y-74107670D01*
X118204285Y-74901636D01*
X118141973Y-74935661D01*
X118071157Y-74930596D01*
X118014322Y-74888049D01*
X117989511Y-74821529D01*
X117989842Y-74799743D01*
X118000100Y-74699345D01*
X118000099Y-73998256D01*
X117989487Y-73894374D01*
X117933715Y-73726062D01*
X117840630Y-73575148D01*
X117840629Y-73575147D01*
X117840624Y-73575141D01*
X117715258Y-73449775D01*
X117715252Y-73449770D01*
X117646697Y-73407485D01*
X117564338Y-73356685D01*
X117480182Y-73328798D01*
X117396027Y-73300913D01*
X117396020Y-73300912D01*
X117292153Y-73290300D01*
X116591055Y-73290300D01*
X116487174Y-73300912D01*
X116318861Y-73356685D01*
X116167947Y-73449770D01*
X116167941Y-73449775D01*
X116042575Y-73575141D01*
X116042570Y-73575147D01*
X115949485Y-73726062D01*
X115893713Y-73894372D01*
X115893712Y-73894379D01*
X115883100Y-73998246D01*
X115883100Y-74699344D01*
X115893712Y-74803225D01*
X115910544Y-74854020D01*
X115949485Y-74971538D01*
X116042570Y-75122452D01*
X116042588Y-75122470D01*
X116042596Y-75122484D01*
X116047123Y-75128210D01*
X116046145Y-75128983D01*
X116076618Y-75184777D01*
X116079500Y-75211572D01*
X116079500Y-76689744D01*
X116059498Y-76757865D01*
X116027562Y-76791680D01*
X115933716Y-76859863D01*
X115804522Y-77003349D01*
X115707988Y-77170552D01*
X115707984Y-77170560D01*
X115648322Y-77354180D01*
X115628141Y-77546199D01*
X115648322Y-77738219D01*
X115707984Y-77921839D01*
X115707988Y-77921847D01*
X115804522Y-78089050D01*
X115804523Y-78089052D01*
X115804525Y-78089054D01*
X115933718Y-78232538D01*
X116089916Y-78346024D01*
X116089919Y-78346025D01*
X116089920Y-78346026D01*
X116127948Y-78362957D01*
X116182043Y-78408934D01*
X116202694Y-78476861D01*
X116202700Y-78478063D01*
X116202700Y-79007238D01*
X116182698Y-79075359D01*
X116165795Y-79096334D01*
X115997533Y-79264595D01*
X115985101Y-79274555D01*
X115985289Y-79274782D01*
X115979182Y-79279834D01*
X115931894Y-79330190D01*
X115930519Y-79331609D01*
X115910063Y-79352066D01*
X115905760Y-79357612D01*
X115901914Y-79362114D01*
X115869617Y-79396509D01*
X115869611Y-79396518D01*
X115859851Y-79414270D01*
X115849003Y-79430785D01*
X115836586Y-79446793D01*
X115817845Y-79490099D01*
X115815234Y-79495429D01*
X115792505Y-79536774D01*
X115792503Y-79536779D01*
X115787467Y-79556394D01*
X115781064Y-79575097D01*
X115769871Y-79600964D01*
X115768694Y-79600454D01*
X115741444Y-79646533D01*
X115737510Y-79650468D01*
X115722468Y-79663317D01*
X115706078Y-79675225D01*
X115706076Y-79675227D01*
X115675996Y-79711586D01*
X115672000Y-79715977D01*
X115453583Y-79934393D01*
X115391271Y-79968418D01*
X115363191Y-79966409D01*
X115363191Y-79970000D01*
X112794999Y-79970000D01*
X112786977Y-79978021D01*
X112774998Y-80018821D01*
X112721342Y-80065314D01*
X112669000Y-80076700D01*
X111826662Y-80076700D01*
X111810820Y-80074950D01*
X111810793Y-80075244D01*
X111802900Y-80074497D01*
X111733821Y-80076669D01*
X111731842Y-80076700D01*
X111702952Y-80076700D01*
X111702948Y-80076700D01*
X111702937Y-80076701D01*
X111695998Y-80077577D01*
X111690085Y-80078043D01*
X111642919Y-80079525D01*
X111623458Y-80085179D01*
X111604121Y-80089184D01*
X111599772Y-80089734D01*
X111529680Y-80078437D01*
X111476822Y-80031039D01*
X111457981Y-79962588D01*
X111479138Y-79894817D01*
X111494868Y-79875635D01*
X112019013Y-79351490D01*
X112081325Y-79317464D01*
X112152140Y-79322529D01*
X112201745Y-79356275D01*
X112207057Y-79362175D01*
X112246368Y-79405834D01*
X112402570Y-79519322D01*
X112578955Y-79597853D01*
X112767812Y-79637996D01*
X112960888Y-79637996D01*
X113149745Y-79597853D01*
X113326130Y-79519322D01*
X113371905Y-79486063D01*
X113438773Y-79462206D01*
X113445967Y-79462000D01*
X115311000Y-79462000D01*
X115311000Y-79217414D01*
X115310999Y-79217402D01*
X115304494Y-79156906D01*
X115304493Y-79156902D01*
X115292873Y-79125746D01*
X115287809Y-79054930D01*
X115292869Y-79037694D01*
X115304989Y-79005201D01*
X115311500Y-78944638D01*
X115311500Y-77947362D01*
X115308756Y-77921839D01*
X115304990Y-77886803D01*
X115304989Y-77886801D01*
X115304989Y-77886799D01*
X115293140Y-77855033D01*
X115288074Y-77784221D01*
X115293137Y-77766974D01*
X115304989Y-77735201D01*
X115311500Y-77674638D01*
X115311500Y-76677362D01*
X115311499Y-76677350D01*
X115304990Y-76616803D01*
X115304989Y-76616801D01*
X115304989Y-76616799D01*
X115293140Y-76585033D01*
X115288074Y-76514221D01*
X115293137Y-76496974D01*
X115304989Y-76465201D01*
X115311500Y-76404638D01*
X115311500Y-75407362D01*
X115311499Y-75407350D01*
X115304990Y-75346803D01*
X115304989Y-75346801D01*
X115304989Y-75346799D01*
X115293140Y-75315033D01*
X115288074Y-75244221D01*
X115293137Y-75226974D01*
X115304989Y-75195201D01*
X115311500Y-75134638D01*
X115311500Y-74137362D01*
X115307742Y-74102402D01*
X115304990Y-74076804D01*
X115304989Y-74076800D01*
X115293140Y-74045031D01*
X115288076Y-73974215D01*
X115293138Y-73956972D01*
X115304989Y-73925201D01*
X115308304Y-73894372D01*
X115311499Y-73864649D01*
X115311500Y-73864632D01*
X115311500Y-72867367D01*
X115311499Y-72867350D01*
X115304990Y-72806803D01*
X115304989Y-72806801D01*
X115304989Y-72806799D01*
X115293140Y-72775033D01*
X115288074Y-72704221D01*
X115293137Y-72686974D01*
X115304989Y-72655201D01*
X115305872Y-72646994D01*
X115311499Y-72594649D01*
X115311500Y-72594632D01*
X115311500Y-71802800D01*
X115883600Y-71802800D01*
X115883600Y-71899316D01*
X115894205Y-72003118D01*
X115894206Y-72003121D01*
X115949942Y-72171325D01*
X116042965Y-72322139D01*
X116042970Y-72322145D01*
X116168254Y-72447429D01*
X116168260Y-72447434D01*
X116319074Y-72540457D01*
X116487278Y-72596193D01*
X116487281Y-72596194D01*
X116591083Y-72606799D01*
X116591083Y-72606800D01*
X116687600Y-72606800D01*
X116687600Y-71802800D01*
X117195600Y-71802800D01*
X117195600Y-72606800D01*
X117292117Y-72606800D01*
X117292116Y-72606799D01*
X117395918Y-72596194D01*
X117395921Y-72596193D01*
X117564125Y-72540457D01*
X117714939Y-72447434D01*
X117714945Y-72447429D01*
X117840229Y-72322145D01*
X117840234Y-72322139D01*
X117933257Y-72171325D01*
X117988993Y-72003121D01*
X117988994Y-72003118D01*
X117999599Y-71899316D01*
X117999600Y-71899316D01*
X117999600Y-71853600D01*
X119033200Y-71853600D01*
X119033200Y-71950116D01*
X119043805Y-72053918D01*
X119043806Y-72053921D01*
X119099542Y-72222125D01*
X119192565Y-72372939D01*
X119192570Y-72372945D01*
X119317854Y-72498229D01*
X119317860Y-72498234D01*
X119468674Y-72591257D01*
X119636878Y-72646993D01*
X119636881Y-72646994D01*
X119740683Y-72657599D01*
X119740683Y-72657600D01*
X119837200Y-72657600D01*
X119837200Y-71853600D01*
X120345200Y-71853600D01*
X120345200Y-72657600D01*
X120441717Y-72657600D01*
X120441716Y-72657599D01*
X120545518Y-72646994D01*
X120545521Y-72646993D01*
X120713725Y-72591257D01*
X120864539Y-72498234D01*
X120864545Y-72498229D01*
X120989829Y-72372945D01*
X120989834Y-72372939D01*
X121082857Y-72222125D01*
X121138593Y-72053921D01*
X121138594Y-72053918D01*
X121149199Y-71950116D01*
X121149200Y-71950116D01*
X121149200Y-71853600D01*
X120345200Y-71853600D01*
X119837200Y-71853600D01*
X119033200Y-71853600D01*
X117999600Y-71853600D01*
X117999600Y-71802800D01*
X117195600Y-71802800D01*
X116687600Y-71802800D01*
X115883600Y-71802800D01*
X115311500Y-71802800D01*
X115311500Y-71597367D01*
X115311499Y-71597350D01*
X115304990Y-71536803D01*
X115304989Y-71536801D01*
X115304989Y-71536799D01*
X115293140Y-71505033D01*
X115288074Y-71434221D01*
X115293137Y-71416974D01*
X115304989Y-71385201D01*
X115309247Y-71345600D01*
X119033200Y-71345600D01*
X119837200Y-71345600D01*
X119837200Y-70541600D01*
X120345200Y-70541600D01*
X120345200Y-71345600D01*
X121149200Y-71345600D01*
X121149200Y-71249083D01*
X121138594Y-71145281D01*
X121138593Y-71145278D01*
X121082857Y-70977074D01*
X120989834Y-70826260D01*
X120989829Y-70826254D01*
X120864545Y-70700970D01*
X120864539Y-70700965D01*
X120713725Y-70607942D01*
X120545521Y-70552206D01*
X120545518Y-70552205D01*
X120441716Y-70541600D01*
X120345200Y-70541600D01*
X119837200Y-70541600D01*
X119740683Y-70541600D01*
X119636881Y-70552205D01*
X119636878Y-70552206D01*
X119468674Y-70607942D01*
X119317860Y-70700965D01*
X119317854Y-70700970D01*
X119192570Y-70826254D01*
X119192565Y-70826260D01*
X119099542Y-70977074D01*
X119043806Y-71145278D01*
X119043805Y-71145281D01*
X119033200Y-71249083D01*
X119033200Y-71345600D01*
X115309247Y-71345600D01*
X115311499Y-71324649D01*
X115311500Y-71324632D01*
X115311500Y-70581952D01*
X115331502Y-70513831D01*
X115385158Y-70467338D01*
X115455432Y-70457234D01*
X115488747Y-70466844D01*
X115514605Y-70478357D01*
X115703462Y-70518500D01*
X115896542Y-70518500D01*
X115992738Y-70498052D01*
X116063529Y-70503453D01*
X116120162Y-70546269D01*
X116144656Y-70612906D01*
X116129235Y-70682208D01*
X116108032Y-70710393D01*
X116042965Y-70775460D01*
X115949942Y-70926274D01*
X115894206Y-71094478D01*
X115894205Y-71094481D01*
X115883600Y-71198283D01*
X115883600Y-71294800D01*
X116687600Y-71294800D01*
X116687600Y-70490800D01*
X117195600Y-70490800D01*
X117195600Y-71294800D01*
X117999600Y-71294800D01*
X117999600Y-71198283D01*
X117988994Y-71094481D01*
X117988993Y-71094478D01*
X117933257Y-70926274D01*
X117840234Y-70775460D01*
X117840229Y-70775454D01*
X117714945Y-70650170D01*
X117714939Y-70650165D01*
X117564125Y-70557142D01*
X117395921Y-70501406D01*
X117395918Y-70501405D01*
X117292116Y-70490800D01*
X117195600Y-70490800D01*
X116687600Y-70490800D01*
X116591091Y-70490800D01*
X116522822Y-70497774D01*
X116453021Y-70484798D01*
X116401316Y-70436145D01*
X116384123Y-70367262D01*
X116406900Y-70300018D01*
X116416381Y-70288115D01*
X116417979Y-70286340D01*
X116417982Y-70286338D01*
X116547175Y-70142854D01*
X116643713Y-69975645D01*
X116703377Y-69792019D01*
X116723559Y-69600000D01*
X116703377Y-69407981D01*
X116700719Y-69399800D01*
X116643715Y-69224360D01*
X116643711Y-69224352D01*
X116547177Y-69057149D01*
X116547176Y-69057148D01*
X116547175Y-69057146D01*
X116417982Y-68913662D01*
X116261780Y-68800174D01*
X116085395Y-68721643D01*
X115896538Y-68681500D01*
X115703462Y-68681500D01*
X115514602Y-68721643D01*
X115488746Y-68733155D01*
X115418379Y-68742588D01*
X115354083Y-68712480D01*
X115316271Y-68652390D01*
X115311500Y-68618047D01*
X115311500Y-67787367D01*
X115311499Y-67787350D01*
X115304990Y-67726803D01*
X115304988Y-67726795D01*
X115269336Y-67631210D01*
X115253889Y-67589796D01*
X115253888Y-67589794D01*
X115253887Y-67589792D01*
X115166261Y-67472738D01*
X115049207Y-67385112D01*
X115049202Y-67385110D01*
X114912204Y-67334011D01*
X114912196Y-67334009D01*
X114851649Y-67327500D01*
X114851638Y-67327500D01*
X114812500Y-67327500D01*
X114744379Y-67307498D01*
X114697886Y-67253842D01*
X114686500Y-67201500D01*
X114686500Y-64511595D01*
X114706502Y-64443474D01*
X114723405Y-64422499D01*
X114779501Y-64366404D01*
X114841814Y-64332379D01*
X114868596Y-64329500D01*
X116002743Y-64329500D01*
X116018584Y-64331249D01*
X116018612Y-64330956D01*
X116026497Y-64331700D01*
X116026505Y-64331702D01*
X116087804Y-64329775D01*
X116095572Y-64329531D01*
X116097551Y-64329500D01*
X116126447Y-64329500D01*
X116126452Y-64329500D01*
X116133414Y-64328619D01*
X116139315Y-64328154D01*
X116186485Y-64326673D01*
X116205943Y-64321019D01*
X116225290Y-64317013D01*
X116245393Y-64314474D01*
X116289275Y-64297099D01*
X116294870Y-64295183D01*
X116323412Y-64286891D01*
X116340187Y-64282019D01*
X116340191Y-64282017D01*
X116357622Y-64271708D01*
X116375376Y-64263009D01*
X116394213Y-64255552D01*
X116432382Y-64227818D01*
X116437340Y-64224562D01*
X116477958Y-64200542D01*
X116492281Y-64186218D01*
X116507320Y-64173374D01*
X116523703Y-64161472D01*
X116553789Y-64125103D01*
X116557757Y-64120741D01*
X118307937Y-62370561D01*
X118370247Y-62336537D01*
X118436661Y-62340052D01*
X118506174Y-62363087D01*
X118610055Y-62373700D01*
X120861144Y-62373699D01*
X120965026Y-62363087D01*
X121133338Y-62307315D01*
X121284252Y-62214230D01*
X121409630Y-62088852D01*
X121502715Y-61937938D01*
X121558487Y-61769626D01*
X121569100Y-61665745D01*
X121569099Y-60764656D01*
X121565441Y-60728852D01*
X121558487Y-60660774D01*
X121532393Y-60582027D01*
X121502715Y-60492462D01*
X121409630Y-60341548D01*
X121409629Y-60341547D01*
X121409624Y-60341541D01*
X121284258Y-60216175D01*
X121284252Y-60216170D01*
X121249450Y-60194704D01*
X121133338Y-60123085D01*
X121047169Y-60094532D01*
X120965027Y-60067313D01*
X120965020Y-60067312D01*
X120861153Y-60056700D01*
X118610055Y-60056700D01*
X118506174Y-60067312D01*
X118337861Y-60123085D01*
X118186947Y-60216170D01*
X118186941Y-60216175D01*
X118061575Y-60341541D01*
X118061570Y-60341547D01*
X117968485Y-60492462D01*
X117912713Y-60660772D01*
X117912712Y-60660779D01*
X117902100Y-60764646D01*
X117902100Y-60932401D01*
X117882098Y-61000522D01*
X117865199Y-61021491D01*
X117791107Y-61095584D01*
X117739395Y-61147296D01*
X117677083Y-61181321D01*
X117606267Y-61176255D01*
X117549432Y-61133709D01*
X117524621Y-61067188D01*
X117524300Y-61058200D01*
X117524300Y-60307254D01*
X117526049Y-60291412D01*
X117525756Y-60291385D01*
X117526502Y-60283492D01*
X117524331Y-60214411D01*
X117524300Y-60212432D01*
X117524300Y-60183550D01*
X117524300Y-60183544D01*
X117523420Y-60176582D01*
X117522956Y-60170693D01*
X117521474Y-60123511D01*
X117515820Y-60104052D01*
X117511812Y-60084697D01*
X117509274Y-60064603D01*
X117491903Y-60020729D01*
X117489989Y-60015140D01*
X117476819Y-59969807D01*
X117466503Y-59952364D01*
X117457805Y-59934609D01*
X117450352Y-59915783D01*
X117422618Y-59877610D01*
X117419358Y-59872647D01*
X117395342Y-59832038D01*
X117381014Y-59817710D01*
X117368184Y-59802689D01*
X117356272Y-59786293D01*
X117356269Y-59786291D01*
X117356269Y-59786290D01*
X117319907Y-59756208D01*
X117315526Y-59752222D01*
X116712247Y-59148943D01*
X116702280Y-59136502D01*
X116702053Y-59136691D01*
X116696999Y-59130581D01*
X116646626Y-59083278D01*
X116645236Y-59081931D01*
X116630202Y-59066897D01*
X116624776Y-59061470D01*
X116624772Y-59061466D01*
X116619225Y-59057163D01*
X116614717Y-59053312D01*
X116580325Y-59021017D01*
X116580319Y-59021013D01*
X116562563Y-59011251D01*
X116546047Y-59000402D01*
X116530041Y-58987986D01*
X116499289Y-58974678D01*
X116486740Y-58969248D01*
X116481408Y-58966636D01*
X116440061Y-58943905D01*
X116420436Y-58938866D01*
X116401736Y-58932464D01*
X116383145Y-58924419D01*
X116383142Y-58924418D01*
X116383141Y-58924418D01*
X116376385Y-58922455D01*
X116316550Y-58884241D01*
X116286875Y-58819743D01*
X116291936Y-58761830D01*
X116322887Y-58668426D01*
X116333378Y-58565744D01*
X117902100Y-58565744D01*
X117912712Y-58669625D01*
X117968485Y-58837938D01*
X118061570Y-58988852D01*
X118061575Y-58988858D01*
X118186941Y-59114224D01*
X118186947Y-59114229D01*
X118186948Y-59114230D01*
X118337862Y-59207315D01*
X118506174Y-59263087D01*
X118610055Y-59273700D01*
X120861144Y-59273699D01*
X120965026Y-59263087D01*
X121133338Y-59207315D01*
X121284252Y-59114230D01*
X121409630Y-58988852D01*
X121502715Y-58837938D01*
X121558487Y-58669626D01*
X121569100Y-58565745D01*
X121569099Y-57664656D01*
X121568976Y-57663456D01*
X121558487Y-57560774D01*
X121526915Y-57465494D01*
X121502715Y-57392462D01*
X121409630Y-57241548D01*
X121409629Y-57241547D01*
X121409624Y-57241541D01*
X121284258Y-57116175D01*
X121284252Y-57116170D01*
X121282315Y-57114975D01*
X121133338Y-57023085D01*
X121049181Y-56995198D01*
X120965027Y-56967313D01*
X120965020Y-56967312D01*
X120861153Y-56956700D01*
X120861145Y-56956700D01*
X120495100Y-56956700D01*
X120426979Y-56936698D01*
X120380486Y-56883042D01*
X120369100Y-56830700D01*
X120369100Y-55376000D01*
X120389102Y-55307879D01*
X120442758Y-55261386D01*
X120495100Y-55250000D01*
X120911952Y-55250000D01*
X120981197Y-55242924D01*
X121015825Y-55239387D01*
X121184138Y-55183615D01*
X121335051Y-55090530D01*
X121460430Y-54965151D01*
X121553515Y-54814238D01*
X121609287Y-54645925D01*
X121613928Y-54600500D01*
X121619900Y-54542052D01*
X121619900Y-53515947D01*
X121609287Y-53412078D01*
X121609287Y-53412075D01*
X121553515Y-53243762D01*
X121460430Y-53092849D01*
X121460429Y-53092848D01*
X121460424Y-53092842D01*
X121335057Y-52967475D01*
X121335051Y-52967470D01*
X121210734Y-52890790D01*
X121184138Y-52874385D01*
X121015825Y-52818613D01*
X121015823Y-52818612D01*
X121015821Y-52818612D01*
X120911952Y-52808000D01*
X120911944Y-52808000D01*
X118660856Y-52808000D01*
X118660848Y-52808000D01*
X118556978Y-52818612D01*
X118388662Y-52874385D01*
X118388660Y-52874386D01*
X118237748Y-52967470D01*
X118237742Y-52967475D01*
X118112375Y-53092842D01*
X118112370Y-53092848D01*
X118019286Y-53243760D01*
X118019285Y-53243762D01*
X117963512Y-53412078D01*
X117952900Y-53515947D01*
X117952900Y-54542052D01*
X117952899Y-54542052D01*
X117963512Y-54645921D01*
X117963512Y-54645923D01*
X117963513Y-54645925D01*
X118019285Y-54814238D01*
X118019286Y-54814239D01*
X118112370Y-54965151D01*
X118112375Y-54965157D01*
X118237742Y-55090524D01*
X118237748Y-55090529D01*
X118237749Y-55090530D01*
X118388662Y-55183615D01*
X118556975Y-55239387D01*
X118585306Y-55242281D01*
X118660848Y-55250000D01*
X118660856Y-55250000D01*
X118976100Y-55250000D01*
X119044221Y-55270002D01*
X119090714Y-55323658D01*
X119102100Y-55376000D01*
X119102100Y-56830700D01*
X119082098Y-56898821D01*
X119028442Y-56945314D01*
X118976100Y-56956700D01*
X118610055Y-56956700D01*
X118506174Y-56967312D01*
X118337861Y-57023085D01*
X118186947Y-57116170D01*
X118186941Y-57116175D01*
X118061575Y-57241541D01*
X118061570Y-57241547D01*
X117968485Y-57392462D01*
X117912713Y-57560772D01*
X117912712Y-57560779D01*
X117902100Y-57664646D01*
X117902100Y-58565744D01*
X116333378Y-58565744D01*
X116333500Y-58564545D01*
X116333499Y-57663456D01*
X116322887Y-57559574D01*
X116267115Y-57391262D01*
X116174030Y-57240348D01*
X116174029Y-57240347D01*
X116174024Y-57240341D01*
X116048658Y-57114975D01*
X116048652Y-57114970D01*
X115899683Y-57023085D01*
X115897738Y-57021885D01*
X115813581Y-56993998D01*
X115729427Y-56966113D01*
X115729420Y-56966112D01*
X115625553Y-56955500D01*
X115625545Y-56955500D01*
X115259500Y-56955500D01*
X115191379Y-56935498D01*
X115144886Y-56881842D01*
X115133500Y-56829500D01*
X115133500Y-55376000D01*
X115153502Y-55307879D01*
X115207158Y-55261386D01*
X115259500Y-55250000D01*
X115625552Y-55250000D01*
X115694797Y-55242924D01*
X115729425Y-55239387D01*
X115897738Y-55183615D01*
X116048651Y-55090530D01*
X116174030Y-54965151D01*
X116267115Y-54814238D01*
X116322887Y-54645925D01*
X116327528Y-54600500D01*
X116333500Y-54542052D01*
X116333500Y-53515947D01*
X116322887Y-53412078D01*
X116322887Y-53412075D01*
X116267115Y-53243762D01*
X116174030Y-53092849D01*
X116174029Y-53092848D01*
X116174024Y-53092842D01*
X116048657Y-52967475D01*
X116048651Y-52967470D01*
X115924334Y-52890790D01*
X115897738Y-52874385D01*
X115729425Y-52818613D01*
X115729423Y-52818612D01*
X115729421Y-52818612D01*
X115625552Y-52808000D01*
X115625544Y-52808000D01*
X113374456Y-52808000D01*
X113374448Y-52808000D01*
X113270578Y-52818612D01*
X113102262Y-52874385D01*
X113102260Y-52874386D01*
X112951348Y-52967470D01*
X112839094Y-53079724D01*
X112776782Y-53113749D01*
X112705966Y-53108683D01*
X112660905Y-53079724D01*
X112548651Y-52967470D01*
X112397738Y-52874385D01*
X112229425Y-52818613D01*
X112229423Y-52818612D01*
X112229421Y-52818612D01*
X112125552Y-52808000D01*
X112125544Y-52808000D01*
X109874456Y-52808000D01*
X109874448Y-52808000D01*
X109770578Y-52818612D01*
X109602262Y-52874385D01*
X109602260Y-52874386D01*
X109451348Y-52967470D01*
X109451342Y-52967475D01*
X109339095Y-53079723D01*
X109276783Y-53113749D01*
X109205968Y-53108684D01*
X109160905Y-53079723D01*
X109048657Y-52967475D01*
X109048651Y-52967470D01*
X108924334Y-52890790D01*
X108897738Y-52874385D01*
X108729425Y-52818613D01*
X108729423Y-52818612D01*
X108729421Y-52818612D01*
X108625552Y-52808000D01*
X108625544Y-52808000D01*
X106374456Y-52808000D01*
X106374448Y-52808000D01*
X106270578Y-52818612D01*
X106102262Y-52874385D01*
X106102260Y-52874386D01*
X105951348Y-52967470D01*
X105951342Y-52967475D01*
X105839095Y-53079723D01*
X105776783Y-53113749D01*
X105705968Y-53108684D01*
X105660905Y-53079723D01*
X105548657Y-52967475D01*
X105548651Y-52967470D01*
X105424334Y-52890790D01*
X105397738Y-52874385D01*
X105229425Y-52818613D01*
X105229423Y-52818612D01*
X105229421Y-52818612D01*
X105125552Y-52808000D01*
X105125544Y-52808000D01*
X102874456Y-52808000D01*
X102874448Y-52808000D01*
X102770578Y-52818612D01*
X102602262Y-52874385D01*
X102602260Y-52874386D01*
X102451348Y-52967470D01*
X102451342Y-52967475D01*
X102325975Y-53092842D01*
X102325970Y-53092848D01*
X102232886Y-53243760D01*
X102232885Y-53243762D01*
X102177112Y-53412078D01*
X102166500Y-53515947D01*
X102166500Y-54542052D01*
X102166499Y-54542052D01*
X102177112Y-54645921D01*
X102177112Y-54645923D01*
X102177113Y-54645925D01*
X102232885Y-54814238D01*
X102232886Y-54814239D01*
X102325970Y-54965151D01*
X102325975Y-54965157D01*
X102451342Y-55090524D01*
X102451348Y-55090529D01*
X102451349Y-55090530D01*
X102602262Y-55183615D01*
X102770575Y-55239387D01*
X102798906Y-55242281D01*
X102874448Y-55250000D01*
X102874456Y-55250000D01*
X103240500Y-55250000D01*
X103308621Y-55270002D01*
X103355114Y-55323658D01*
X103366500Y-55376000D01*
X103366499Y-56829500D01*
X103346497Y-56897621D01*
X103292841Y-56944114D01*
X103240499Y-56955500D01*
X102874455Y-56955500D01*
X102770574Y-56966112D01*
X102602261Y-57021885D01*
X102451347Y-57114970D01*
X102451341Y-57114975D01*
X102325975Y-57240341D01*
X102325970Y-57240347D01*
X102232885Y-57391262D01*
X102177113Y-57559572D01*
X102177112Y-57559579D01*
X102166500Y-57663446D01*
X102166500Y-58367697D01*
X102146498Y-58435818D01*
X102092842Y-58482311D01*
X102022568Y-58492415D01*
X101957988Y-58462921D01*
X101924093Y-58415916D01*
X101862616Y-58267498D01*
X101730328Y-58051624D01*
X101565898Y-57859102D01*
X101373376Y-57694672D01*
X101157502Y-57562384D01*
X101153628Y-57560779D01*
X100923589Y-57465494D01*
X100755177Y-57425062D01*
X100677403Y-57406391D01*
X100425000Y-57386526D01*
X100424999Y-57386526D01*
X100172597Y-57406391D01*
X99926410Y-57465494D01*
X99692499Y-57562383D01*
X99476618Y-57694675D01*
X99475674Y-57695362D01*
X99475254Y-57695511D01*
X99472403Y-57697259D01*
X99472035Y-57696660D01*
X99408806Y-57719221D01*
X99339654Y-57703140D01*
X99290174Y-57652226D01*
X99276044Y-57603835D01*
X99269564Y-57525632D01*
X99235841Y-57392462D01*
X99214297Y-57307387D01*
X99214296Y-57307386D01*
X99214296Y-57307384D01*
X99123860Y-57101209D01*
X99072035Y-57021885D01*
X99000724Y-56912734D01*
X99000720Y-56912729D01*
X98848237Y-56747091D01*
X98743015Y-56665193D01*
X98670576Y-56608811D01*
X98472574Y-56501658D01*
X98472572Y-56501657D01*
X98472571Y-56501656D01*
X98259639Y-56428557D01*
X98259630Y-56428555D01*
X98215476Y-56421187D01*
X98037569Y-56391500D01*
X97812431Y-56391500D01*
X97664210Y-56416233D01*
X97590369Y-56428555D01*
X97590360Y-56428557D01*
X97377428Y-56501656D01*
X97377426Y-56501658D01*
X97179426Y-56608810D01*
X97179424Y-56608811D01*
X97001762Y-56747091D01*
X96849279Y-56912729D01*
X96849275Y-56912734D01*
X96726141Y-57101206D01*
X96635703Y-57307386D01*
X96635702Y-57307387D01*
X96580437Y-57525624D01*
X96580436Y-57525630D01*
X96580436Y-57525632D01*
X96561844Y-57750000D01*
X96571420Y-57865567D01*
X96580437Y-57974375D01*
X96635702Y-58192612D01*
X96635703Y-58192613D01*
X96635704Y-58192616D01*
X96711443Y-58365284D01*
X96726141Y-58398793D01*
X96849275Y-58587265D01*
X96849279Y-58587270D01*
X96996873Y-58747597D01*
X97001760Y-58752906D01*
X97020890Y-58767795D01*
X97062361Y-58825418D01*
X97069500Y-58867227D01*
X97069500Y-59511146D01*
X97067751Y-59526988D01*
X97068044Y-59527016D01*
X97067298Y-59534908D01*
X97069469Y-59603974D01*
X97069500Y-59605953D01*
X97069500Y-59634851D01*
X97069501Y-59634872D01*
X97070378Y-59641820D01*
X97070844Y-59647732D01*
X97072326Y-59694888D01*
X97072327Y-59694893D01*
X97077977Y-59714339D01*
X97081986Y-59733697D01*
X97084525Y-59753793D01*
X97084526Y-59753799D01*
X97101893Y-59797662D01*
X97103816Y-59803279D01*
X97116982Y-59848593D01*
X97127294Y-59866031D01*
X97135988Y-59883779D01*
X97143444Y-59902609D01*
X97143450Y-59902620D01*
X97171177Y-59940783D01*
X97174437Y-59945746D01*
X97198460Y-59986365D01*
X97212779Y-60000684D01*
X97225617Y-60015714D01*
X97235156Y-60028843D01*
X97237528Y-60032107D01*
X97265794Y-60055491D01*
X97273886Y-60062185D01*
X97278267Y-60066171D01*
X97495588Y-60283492D01*
X97704766Y-60492670D01*
X97738792Y-60554982D01*
X97733727Y-60625797D01*
X97691180Y-60682633D01*
X97624660Y-60707444D01*
X97576039Y-60701370D01*
X97504324Y-60677606D01*
X97504318Y-60677605D01*
X97400516Y-60667000D01*
X97204000Y-60667000D01*
X97204000Y-62246000D01*
X98108000Y-62246000D01*
X98108000Y-61374483D01*
X98097394Y-61270681D01*
X98097393Y-61270678D01*
X98072680Y-61196096D01*
X98070240Y-61125141D01*
X98106548Y-61064131D01*
X98170077Y-61032436D01*
X98240657Y-61040118D01*
X98269543Y-61056928D01*
X98272787Y-61059446D01*
X98277287Y-61063291D01*
X98311676Y-61095584D01*
X98311682Y-61095588D01*
X98329429Y-61105344D01*
X98345959Y-61116202D01*
X98361959Y-61128613D01*
X98379030Y-61136000D01*
X98405251Y-61147347D01*
X98410585Y-61149959D01*
X98451940Y-61172695D01*
X98471562Y-61177733D01*
X98490263Y-61184135D01*
X98499263Y-61188030D01*
X98508852Y-61192180D01*
X98508853Y-61192180D01*
X98508855Y-61192181D01*
X98555477Y-61199564D01*
X98561262Y-61200763D01*
X98606970Y-61212500D01*
X98627224Y-61212500D01*
X98646934Y-61214051D01*
X98649141Y-61214400D01*
X98666943Y-61217220D01*
X98700870Y-61214012D01*
X98713917Y-61212780D01*
X98719850Y-61212500D01*
X98768517Y-61212500D01*
X98836638Y-61232502D01*
X98883131Y-61286158D01*
X98893865Y-61351306D01*
X98891500Y-61374455D01*
X98891500Y-62813052D01*
X98871498Y-62881173D01*
X98817842Y-62927666D01*
X98747568Y-62937770D01*
X98714260Y-62928162D01*
X98710403Y-62926445D01*
X98710400Y-62926444D01*
X98521538Y-62886300D01*
X98328462Y-62886300D01*
X98328460Y-62886300D01*
X98260195Y-62900810D01*
X98189405Y-62895408D01*
X98132772Y-62852591D01*
X98108279Y-62785953D01*
X98107999Y-62777561D01*
X98107999Y-62754000D01*
X95792000Y-62754000D01*
X95792000Y-63625516D01*
X95802605Y-63729318D01*
X95802606Y-63729325D01*
X95835977Y-63830032D01*
X95838417Y-63900987D01*
X95802108Y-63961996D01*
X95741470Y-63992249D01*
X95741575Y-63992693D01*
X95739687Y-63993139D01*
X95738579Y-63993692D01*
X95735456Y-63994138D01*
X95733908Y-63994504D01*
X95597035Y-64045555D01*
X95597034Y-64045555D01*
X95480095Y-64133095D01*
X95392555Y-64250034D01*
X95392555Y-64250035D01*
X95341505Y-64386906D01*
X95335000Y-64447402D01*
X95335000Y-64992000D01*
X96421000Y-64992000D01*
X96489121Y-65012002D01*
X96535614Y-65065658D01*
X96547000Y-65118000D01*
X96547000Y-66504001D01*
X96564777Y-66521778D01*
X96598803Y-66584090D01*
X96593738Y-66654905D01*
X96551191Y-66711741D01*
X96526931Y-66725980D01*
X96457384Y-66756944D01*
X96301186Y-66870429D01*
X96171990Y-67013917D01*
X96075456Y-67181120D01*
X96075452Y-67181128D01*
X96015790Y-67364748D01*
X95995609Y-67556768D01*
X96015790Y-67748787D01*
X96075452Y-67932407D01*
X96075456Y-67932415D01*
X96171990Y-68099618D01*
X96171991Y-68099620D01*
X96171993Y-68099622D01*
X96301186Y-68243106D01*
X96457388Y-68356594D01*
X96633773Y-68435125D01*
X96822630Y-68475268D01*
X97015706Y-68475268D01*
X97204563Y-68435125D01*
X97380948Y-68356594D01*
X97537150Y-68243106D01*
X97666343Y-68099622D01*
X97666345Y-68099617D01*
X97668221Y-68097038D01*
X97669687Y-68095907D01*
X97670761Y-68094715D01*
X97670979Y-68094911D01*
X97724444Y-68053685D01*
X97770156Y-68045100D01*
X97926360Y-68045100D01*
X97942201Y-68046849D01*
X97942229Y-68046556D01*
X97950114Y-68047300D01*
X97950122Y-68047302D01*
X98011421Y-68045375D01*
X98019189Y-68045131D01*
X98021168Y-68045100D01*
X98050064Y-68045100D01*
X98050069Y-68045100D01*
X98057031Y-68044219D01*
X98062932Y-68043754D01*
X98110102Y-68042273D01*
X98129560Y-68036619D01*
X98148907Y-68032613D01*
X98169010Y-68030074D01*
X98207834Y-68014701D01*
X98278533Y-68008220D01*
X98341514Y-68040990D01*
X98347856Y-68047542D01*
X98411445Y-68118165D01*
X98411450Y-68118170D01*
X98515582Y-68193826D01*
X98567650Y-68231656D01*
X98744035Y-68310187D01*
X98932892Y-68350330D01*
X99125968Y-68350330D01*
X99314825Y-68310187D01*
X99491210Y-68231656D01*
X99647412Y-68118168D01*
X99776605Y-67974684D01*
X99873143Y-67807475D01*
X99873145Y-67807469D01*
X99883349Y-67776066D01*
X99923423Y-67717460D01*
X99988819Y-67689823D01*
X100003182Y-67689002D01*
X100059645Y-67689002D01*
X100075486Y-67690751D01*
X100075514Y-67690458D01*
X100083399Y-67691202D01*
X100083407Y-67691204D01*
X100144706Y-67689277D01*
X100152474Y-67689033D01*
X100154453Y-67689002D01*
X100183349Y-67689002D01*
X100183354Y-67689002D01*
X100190316Y-67688121D01*
X100196217Y-67687656D01*
X100243387Y-67686175D01*
X100262845Y-67680521D01*
X100282192Y-67676515D01*
X100302295Y-67673976D01*
X100346177Y-67656601D01*
X100351772Y-67654685D01*
X100380314Y-67646393D01*
X100397089Y-67641521D01*
X100397093Y-67641519D01*
X100414524Y-67631210D01*
X100432278Y-67622511D01*
X100451115Y-67615054D01*
X100489284Y-67587320D01*
X100494242Y-67584064D01*
X100534860Y-67560044D01*
X100549183Y-67545720D01*
X100564222Y-67532876D01*
X100580605Y-67520974D01*
X100610691Y-67484605D01*
X100614659Y-67480243D01*
X101403722Y-66691180D01*
X101466032Y-66657156D01*
X101536847Y-66662221D01*
X101593683Y-66704768D01*
X101612648Y-66741340D01*
X101656285Y-66875642D01*
X101656288Y-66875647D01*
X101752822Y-67042850D01*
X101752823Y-67042852D01*
X101752825Y-67042854D01*
X101882018Y-67186338D01*
X102038220Y-67299826D01*
X102214605Y-67378357D01*
X102403462Y-67418500D01*
X102596538Y-67418500D01*
X102785395Y-67378357D01*
X102961780Y-67299826D01*
X103117982Y-67186338D01*
X103247175Y-67042854D01*
X103343713Y-66875645D01*
X103345408Y-66870430D01*
X103403377Y-66692019D01*
X103411227Y-66617330D01*
X103438240Y-66551673D01*
X103496461Y-66511043D01*
X103536537Y-66504500D01*
X104411632Y-66504500D01*
X104411638Y-66504500D01*
X104411645Y-66504499D01*
X104411649Y-66504499D01*
X104472196Y-66497990D01*
X104472197Y-66497989D01*
X104472201Y-66497989D01*
X104503966Y-66486140D01*
X104574779Y-66481074D01*
X104592025Y-66486137D01*
X104623799Y-66497989D01*
X104623801Y-66497989D01*
X104623803Y-66497990D01*
X104684350Y-66504499D01*
X104684355Y-66504499D01*
X104684362Y-66504500D01*
X104684368Y-66504500D01*
X105681632Y-66504500D01*
X105681638Y-66504500D01*
X105681645Y-66504499D01*
X105681649Y-66504499D01*
X105742196Y-66497990D01*
X105742196Y-66497989D01*
X105742201Y-66497989D01*
X105773966Y-66486140D01*
X105844780Y-66481075D01*
X105862029Y-66486139D01*
X105893799Y-66497989D01*
X105893800Y-66497989D01*
X105893804Y-66497990D01*
X105954350Y-66504499D01*
X105954355Y-66504499D01*
X105954362Y-66504500D01*
X105954368Y-66504500D01*
X106951632Y-66504500D01*
X106951638Y-66504500D01*
X106951645Y-66504499D01*
X106951649Y-66504499D01*
X107012196Y-66497990D01*
X107012197Y-66497989D01*
X107012201Y-66497989D01*
X107043966Y-66486140D01*
X107114779Y-66481074D01*
X107132025Y-66486137D01*
X107163799Y-66497989D01*
X107163801Y-66497989D01*
X107163803Y-66497990D01*
X107224350Y-66504499D01*
X107224355Y-66504499D01*
X107224362Y-66504500D01*
X107224368Y-66504500D01*
X108221632Y-66504500D01*
X108221638Y-66504500D01*
X108221645Y-66504499D01*
X108221649Y-66504499D01*
X108282196Y-66497990D01*
X108282197Y-66497989D01*
X108282201Y-66497989D01*
X108313966Y-66486140D01*
X108384779Y-66481074D01*
X108402025Y-66486137D01*
X108433799Y-66497989D01*
X108433801Y-66497989D01*
X108433803Y-66497990D01*
X108494350Y-66504499D01*
X108494355Y-66504499D01*
X108494362Y-66504500D01*
X108494368Y-66504500D01*
X109491632Y-66504500D01*
X109491638Y-66504500D01*
X109491645Y-66504499D01*
X109491649Y-66504499D01*
X109552196Y-66497990D01*
X109552197Y-66497989D01*
X109552201Y-66497989D01*
X109583966Y-66486140D01*
X109654779Y-66481074D01*
X109672025Y-66486137D01*
X109703799Y-66497989D01*
X109703801Y-66497989D01*
X109703803Y-66497990D01*
X109764350Y-66504499D01*
X109764355Y-66504499D01*
X109764362Y-66504500D01*
X109764368Y-66504500D01*
X110761632Y-66504500D01*
X110761638Y-66504500D01*
X110761645Y-66504499D01*
X110761649Y-66504499D01*
X110822196Y-66497990D01*
X110822196Y-66497989D01*
X110822201Y-66497989D01*
X110853966Y-66486140D01*
X110924780Y-66481075D01*
X110942029Y-66486139D01*
X110973799Y-66497989D01*
X110973800Y-66497989D01*
X110973804Y-66497990D01*
X111034350Y-66504499D01*
X111034355Y-66504499D01*
X111034362Y-66504500D01*
X111251006Y-66504500D01*
X111319127Y-66524502D01*
X111340101Y-66541405D01*
X112290995Y-67492299D01*
X112325021Y-67554611D01*
X112327900Y-67581394D01*
X112327900Y-69596942D01*
X112326151Y-69612784D01*
X112326444Y-69612812D01*
X112325698Y-69620704D01*
X112327869Y-69689770D01*
X112327900Y-69691749D01*
X112327900Y-69720647D01*
X112327901Y-69720668D01*
X112328778Y-69727616D01*
X112329244Y-69733528D01*
X112330726Y-69780684D01*
X112330727Y-69780689D01*
X112336377Y-69800135D01*
X112340386Y-69819494D01*
X112344003Y-69848117D01*
X112344500Y-69856022D01*
X112344500Y-77182004D01*
X112324498Y-77250125D01*
X112307595Y-77271099D01*
X109513400Y-80065295D01*
X109451088Y-80099321D01*
X109424305Y-80102200D01*
X100560752Y-80102200D01*
X100544913Y-80100451D01*
X100544886Y-80100745D01*
X100536994Y-80099999D01*
X100467947Y-80102169D01*
X100465968Y-80102200D01*
X100437047Y-80102200D01*
X100430089Y-80103078D01*
X100424176Y-80103544D01*
X100377014Y-80105026D01*
X100377009Y-80105027D01*
X100357564Y-80110677D01*
X100338206Y-80114686D01*
X100318111Y-80117224D01*
X100318109Y-80117225D01*
X100274228Y-80134597D01*
X100268613Y-80136519D01*
X100223317Y-80149679D01*
X100223308Y-80149683D01*
X100205868Y-80159996D01*
X100188126Y-80168687D01*
X100169289Y-80176146D01*
X100131112Y-80203882D01*
X100126152Y-80207140D01*
X100085540Y-80231158D01*
X100071216Y-80245483D01*
X100056187Y-80258319D01*
X100039797Y-80270227D01*
X100039794Y-80270230D01*
X100009721Y-80306581D01*
X100005726Y-80310972D01*
X99656306Y-80660395D01*
X99593994Y-80694420D01*
X99567210Y-80697300D01*
X98626007Y-80697300D01*
X98557886Y-80677298D01*
X98532370Y-80655610D01*
X98498712Y-80618229D01*
X98407982Y-80517462D01*
X98369216Y-80489297D01*
X98251780Y-80403974D01*
X98075395Y-80325443D01*
X97886538Y-80285300D01*
X97693462Y-80285300D01*
X97504604Y-80325443D01*
X97328216Y-80403976D01*
X97172018Y-80517461D01*
X97042822Y-80660949D01*
X96946288Y-80828152D01*
X96946284Y-80828160D01*
X96886622Y-81011780D01*
X96866441Y-81203800D01*
X96881684Y-81348830D01*
X96868912Y-81418668D01*
X96820410Y-81470515D01*
X96756374Y-81488000D01*
X96547000Y-81488000D01*
X96547000Y-82874000D01*
X96526998Y-82942121D01*
X96473342Y-82988614D01*
X96421000Y-83000000D01*
X95335000Y-83000000D01*
X95335000Y-83544597D01*
X95341505Y-83605093D01*
X95392555Y-83741964D01*
X95392555Y-83741965D01*
X95480095Y-83858904D01*
X95597034Y-83946444D01*
X95733906Y-83997494D01*
X95794402Y-84003999D01*
X95794415Y-84004000D01*
X95988174Y-84004000D01*
X96056295Y-84024002D01*
X96102788Y-84077658D01*
X96112892Y-84147932D01*
X96083398Y-84212512D01*
X96054324Y-84237238D01*
X96029447Y-84252583D01*
X95962347Y-84293970D01*
X95962341Y-84293975D01*
X95836975Y-84419341D01*
X95836970Y-84419347D01*
X95743885Y-84570262D01*
X95688113Y-84738572D01*
X95688112Y-84738579D01*
X95677500Y-84842446D01*
X95677500Y-85768544D01*
X95688113Y-85872427D01*
X95688113Y-85872429D01*
X95715505Y-85955096D01*
X95717944Y-86026051D01*
X95684995Y-86083822D01*
X95225594Y-86543223D01*
X95163282Y-86577249D01*
X95092467Y-86572184D01*
X95035631Y-86529637D01*
X95010820Y-86463117D01*
X95010499Y-86454128D01*
X95010499Y-82492000D01*
X95335000Y-82492000D01*
X96039000Y-82492000D01*
X96039000Y-81488000D01*
X95794402Y-81488000D01*
X95733906Y-81494505D01*
X95597035Y-81545555D01*
X95597034Y-81545555D01*
X95480095Y-81633095D01*
X95392555Y-81750034D01*
X95392555Y-81750035D01*
X95341505Y-81886906D01*
X95335000Y-81947402D01*
X95335000Y-82492000D01*
X95010499Y-82492000D01*
X95010500Y-76455000D01*
X101075000Y-76455000D01*
X101075000Y-76774597D01*
X101081505Y-76835093D01*
X101132555Y-76971964D01*
X101132555Y-76971965D01*
X101220095Y-77088904D01*
X101337034Y-77176444D01*
X101473906Y-77227494D01*
X101534402Y-77233999D01*
X101534415Y-77234000D01*
X101854000Y-77234000D01*
X101854000Y-76455000D01*
X102362000Y-76455000D01*
X102362000Y-77234000D01*
X102681585Y-77234000D01*
X102681597Y-77233999D01*
X102742092Y-77227494D01*
X102826466Y-77196025D01*
X102897282Y-77190960D01*
X102914531Y-77196025D01*
X102998905Y-77227494D01*
X103059402Y-77233999D01*
X103059415Y-77234000D01*
X103379000Y-77234000D01*
X103379000Y-76455000D01*
X103887000Y-76455000D01*
X103887000Y-77234000D01*
X104206585Y-77234000D01*
X104206597Y-77233999D01*
X104267094Y-77227494D01*
X104351468Y-77196025D01*
X104422284Y-77190961D01*
X104439532Y-77196025D01*
X104523905Y-77227494D01*
X104584402Y-77233999D01*
X104584415Y-77234000D01*
X104904000Y-77234000D01*
X104904000Y-76455000D01*
X105412000Y-76455000D01*
X105412000Y-77234000D01*
X105731585Y-77234000D01*
X105731597Y-77233999D01*
X105792093Y-77227494D01*
X105928964Y-77176444D01*
X105928965Y-77176444D01*
X106045904Y-77088904D01*
X106133444Y-76971965D01*
X106133444Y-76971964D01*
X106184494Y-76835093D01*
X106190999Y-76774597D01*
X106191000Y-76774585D01*
X106191000Y-76455000D01*
X105412000Y-76455000D01*
X104904000Y-76455000D01*
X103887000Y-76455000D01*
X103379000Y-76455000D01*
X102362000Y-76455000D01*
X101854000Y-76455000D01*
X101075000Y-76455000D01*
X95010500Y-76455000D01*
X95010500Y-74930000D01*
X101075000Y-74930000D01*
X101075000Y-75249597D01*
X101081505Y-75310095D01*
X101112974Y-75394468D01*
X101118038Y-75465283D01*
X101112974Y-75482530D01*
X101081505Y-75566904D01*
X101075000Y-75627402D01*
X101075000Y-75947000D01*
X101854000Y-75947000D01*
X101854000Y-74930000D01*
X102362000Y-74930000D01*
X102362000Y-75947000D01*
X103379000Y-75947000D01*
X103379000Y-74930000D01*
X103887000Y-74930000D01*
X103887000Y-75947000D01*
X104904000Y-75947000D01*
X104904000Y-74930000D01*
X105412000Y-74930000D01*
X105412000Y-75947000D01*
X106191000Y-75947000D01*
X106191000Y-75627414D01*
X106190999Y-75627402D01*
X106184494Y-75566905D01*
X106153025Y-75482531D01*
X106147961Y-75411715D01*
X106153025Y-75394466D01*
X106184494Y-75310092D01*
X106190999Y-75249597D01*
X106191000Y-75249585D01*
X106191000Y-74930000D01*
X105412000Y-74930000D01*
X104904000Y-74930000D01*
X103887000Y-74930000D01*
X103379000Y-74930000D01*
X102362000Y-74930000D01*
X101854000Y-74930000D01*
X101075000Y-74930000D01*
X95010500Y-74930000D01*
X95010500Y-73405000D01*
X101075000Y-73405000D01*
X101075000Y-73724597D01*
X101081505Y-73785095D01*
X101112974Y-73869469D01*
X101118038Y-73940285D01*
X101112974Y-73957531D01*
X101081505Y-74041904D01*
X101075000Y-74102402D01*
X101075000Y-74422000D01*
X101854000Y-74422000D01*
X101854000Y-73405000D01*
X102362000Y-73405000D01*
X102362000Y-74422000D01*
X103379000Y-74422000D01*
X103379000Y-73405000D01*
X103887000Y-73405000D01*
X103887000Y-74422000D01*
X104904000Y-74422000D01*
X104904000Y-73405000D01*
X105412000Y-73405000D01*
X105412000Y-74422000D01*
X106191000Y-74422000D01*
X106191000Y-74102414D01*
X106190999Y-74102402D01*
X106184494Y-74041905D01*
X106153025Y-73957532D01*
X106147961Y-73886716D01*
X106153025Y-73869468D01*
X106184494Y-73785094D01*
X106190999Y-73724597D01*
X106191000Y-73724585D01*
X106191000Y-73405000D01*
X105412000Y-73405000D01*
X104904000Y-73405000D01*
X103887000Y-73405000D01*
X103379000Y-73405000D01*
X102362000Y-73405000D01*
X101854000Y-73405000D01*
X101075000Y-73405000D01*
X95010500Y-73405000D01*
X95010500Y-72897000D01*
X101075000Y-72897000D01*
X101854000Y-72897000D01*
X101854000Y-72118000D01*
X102362000Y-72118000D01*
X102362000Y-72897000D01*
X103379000Y-72897000D01*
X103379000Y-72118000D01*
X103887000Y-72118000D01*
X103887000Y-72897000D01*
X104904000Y-72897000D01*
X104904000Y-72118000D01*
X105412000Y-72118000D01*
X105412000Y-72897000D01*
X106191000Y-72897000D01*
X106191000Y-72577414D01*
X106190999Y-72577402D01*
X106184494Y-72516906D01*
X106133444Y-72380035D01*
X106133444Y-72380034D01*
X106045904Y-72263095D01*
X105928965Y-72175555D01*
X105792093Y-72124505D01*
X105731597Y-72118000D01*
X105412000Y-72118000D01*
X104904000Y-72118000D01*
X104584402Y-72118000D01*
X104523904Y-72124505D01*
X104439530Y-72155974D01*
X104368714Y-72161038D01*
X104351468Y-72155974D01*
X104267094Y-72124505D01*
X104267096Y-72124505D01*
X104206597Y-72118000D01*
X103887000Y-72118000D01*
X103379000Y-72118000D01*
X103059402Y-72118000D01*
X102998904Y-72124505D01*
X102914531Y-72155974D01*
X102843715Y-72161038D01*
X102826469Y-72155974D01*
X102742095Y-72124505D01*
X102742096Y-72124505D01*
X102681597Y-72118000D01*
X102362000Y-72118000D01*
X101854000Y-72118000D01*
X101534402Y-72118000D01*
X101473906Y-72124505D01*
X101337035Y-72175555D01*
X101337034Y-72175555D01*
X101220095Y-72263095D01*
X101132555Y-72380034D01*
X101132555Y-72380035D01*
X101081505Y-72516906D01*
X101075000Y-72577402D01*
X101075000Y-72897000D01*
X95010500Y-72897000D01*
X95010500Y-68356594D01*
X95010500Y-65500000D01*
X95335000Y-65500000D01*
X95335000Y-66044597D01*
X95341505Y-66105093D01*
X95392555Y-66241964D01*
X95392555Y-66241965D01*
X95480095Y-66358904D01*
X95597034Y-66446444D01*
X95733906Y-66497494D01*
X95794402Y-66503999D01*
X95794415Y-66504000D01*
X96039000Y-66504000D01*
X96039000Y-65500000D01*
X95335000Y-65500000D01*
X95010500Y-65500000D01*
X95010500Y-62246000D01*
X95792000Y-62246000D01*
X96696000Y-62246000D01*
X96696000Y-60667000D01*
X96499483Y-60667000D01*
X96395681Y-60677605D01*
X96395678Y-60677606D01*
X96227474Y-60733342D01*
X96076660Y-60826365D01*
X96076654Y-60826370D01*
X95951370Y-60951654D01*
X95951365Y-60951660D01*
X95858342Y-61102474D01*
X95802606Y-61270678D01*
X95802605Y-61270681D01*
X95792000Y-61374483D01*
X95792000Y-62246000D01*
X95010500Y-62246000D01*
X95010499Y-53250000D01*
X96562346Y-53250000D01*
X96580932Y-53474292D01*
X96636176Y-53692449D01*
X96636179Y-53692456D01*
X96726580Y-53898548D01*
X96801922Y-54013866D01*
X97440638Y-53375149D01*
X97465507Y-53459844D01*
X97543239Y-53580798D01*
X97651900Y-53674952D01*
X97782685Y-53734680D01*
X97797412Y-53736797D01*
X97159310Y-54374898D01*
X97179694Y-54390763D01*
X97179696Y-54390765D01*
X97377632Y-54497883D01*
X97590483Y-54570955D01*
X97590490Y-54570957D01*
X97812477Y-54608000D01*
X98037523Y-54608000D01*
X98259509Y-54570957D01*
X98259516Y-54570955D01*
X98472369Y-54497883D01*
X98472371Y-54497882D01*
X98670298Y-54390768D01*
X98670302Y-54390766D01*
X98690689Y-54374898D01*
X98052588Y-53736797D01*
X98067315Y-53734680D01*
X98198100Y-53674952D01*
X98306761Y-53580798D01*
X98384493Y-53459844D01*
X98409360Y-53375151D01*
X99048076Y-54013867D01*
X99048077Y-54013866D01*
X99123419Y-53898551D01*
X99213820Y-53692456D01*
X99213823Y-53692449D01*
X99269067Y-53474292D01*
X99275569Y-53395826D01*
X99301128Y-53329590D01*
X99358439Y-53287686D01*
X99429307Y-53283419D01*
X99472269Y-53302959D01*
X99472403Y-53302741D01*
X99474169Y-53303823D01*
X99475195Y-53304290D01*
X99476619Y-53305324D01*
X99476624Y-53305328D01*
X99692498Y-53437616D01*
X99926409Y-53534505D01*
X100172597Y-53593609D01*
X100425000Y-53613474D01*
X100677403Y-53593609D01*
X100923591Y-53534505D01*
X101157502Y-53437616D01*
X101373376Y-53305328D01*
X101565898Y-53140898D01*
X101730328Y-52948376D01*
X101862616Y-52732502D01*
X101959505Y-52498591D01*
X102018609Y-52252403D01*
X102038474Y-52000000D01*
X102036366Y-51973220D01*
X102050962Y-51903742D01*
X102100804Y-51853183D01*
X102170069Y-51837596D01*
X102236764Y-51861931D01*
X102269219Y-51897189D01*
X102326366Y-51989839D01*
X102326371Y-51989845D01*
X102451654Y-52115128D01*
X102451660Y-52115133D01*
X102602474Y-52208157D01*
X102770678Y-52263893D01*
X102770681Y-52263894D01*
X102874484Y-52274499D01*
X103746000Y-52274499D01*
X103746000Y-51308000D01*
X104254000Y-51308000D01*
X104254000Y-52274499D01*
X105125507Y-52274499D01*
X105229318Y-52263894D01*
X105397525Y-52208157D01*
X105548339Y-52115133D01*
X105548345Y-52115128D01*
X105660905Y-52002569D01*
X105723217Y-51968543D01*
X105794032Y-51973608D01*
X105839095Y-52002569D01*
X105951654Y-52115128D01*
X105951660Y-52115133D01*
X106102474Y-52208157D01*
X106270678Y-52263893D01*
X106270681Y-52263894D01*
X106374484Y-52274499D01*
X107246000Y-52274499D01*
X107246000Y-51308000D01*
X107754000Y-51308000D01*
X107754000Y-52274499D01*
X108625507Y-52274499D01*
X108729318Y-52263894D01*
X108897525Y-52208157D01*
X109048339Y-52115133D01*
X109048345Y-52115128D01*
X109160905Y-52002569D01*
X109223217Y-51968543D01*
X109294032Y-51973608D01*
X109339095Y-52002569D01*
X109451654Y-52115128D01*
X109451660Y-52115133D01*
X109602474Y-52208157D01*
X109770678Y-52263893D01*
X109770681Y-52263894D01*
X109874484Y-52274499D01*
X110746000Y-52274499D01*
X110746000Y-51308000D01*
X111254000Y-51308000D01*
X111254000Y-52274499D01*
X112125507Y-52274499D01*
X112229318Y-52263894D01*
X112397525Y-52208157D01*
X112548339Y-52115133D01*
X112548345Y-52115128D01*
X112660905Y-52002569D01*
X112723217Y-51968543D01*
X112794032Y-51973608D01*
X112839095Y-52002569D01*
X112951654Y-52115128D01*
X112951660Y-52115133D01*
X113102474Y-52208157D01*
X113270678Y-52263893D01*
X113270681Y-52263894D01*
X113374484Y-52274499D01*
X114246000Y-52274499D01*
X114246000Y-51308000D01*
X114754000Y-51308000D01*
X114754000Y-52274499D01*
X115625507Y-52274499D01*
X115729318Y-52263894D01*
X115897525Y-52208157D01*
X116048339Y-52115133D01*
X116048345Y-52115128D01*
X116173628Y-51989845D01*
X116173633Y-51989839D01*
X116266657Y-51839025D01*
X116322393Y-51670821D01*
X116322394Y-51670818D01*
X116332999Y-51567015D01*
X116333000Y-51567015D01*
X116333000Y-51308000D01*
X117953401Y-51308000D01*
X117953401Y-51567007D01*
X117964005Y-51670818D01*
X118019742Y-51839025D01*
X118112766Y-51989839D01*
X118112771Y-51989845D01*
X118238054Y-52115128D01*
X118238060Y-52115133D01*
X118388874Y-52208157D01*
X118557078Y-52263893D01*
X118557081Y-52263894D01*
X118660884Y-52274499D01*
X119532399Y-52274499D01*
X120040399Y-52274499D01*
X120911907Y-52274499D01*
X121015718Y-52263894D01*
X121183925Y-52208157D01*
X121334739Y-52115133D01*
X121334745Y-52115128D01*
X121460028Y-51989845D01*
X121460033Y-51989839D01*
X121553057Y-51839025D01*
X121608793Y-51670821D01*
X121608794Y-51670818D01*
X121619399Y-51567015D01*
X121619400Y-51567015D01*
X121619400Y-51308000D01*
X120040400Y-51308000D01*
X120040399Y-52274499D01*
X119532399Y-52274499D01*
X119532400Y-51308000D01*
X117953401Y-51308000D01*
X116333000Y-51308000D01*
X114754000Y-51308000D01*
X114246000Y-51308000D01*
X111254000Y-51308000D01*
X110746000Y-51308000D01*
X107754000Y-51308000D01*
X107246000Y-51308000D01*
X104254000Y-51308000D01*
X103746000Y-51308000D01*
X102167001Y-51308000D01*
X102167001Y-51368904D01*
X102146999Y-51437025D01*
X102093343Y-51483518D01*
X102023069Y-51493622D01*
X101958489Y-51464128D01*
X101924592Y-51417122D01*
X101862616Y-51267498D01*
X101730328Y-51051624D01*
X101565898Y-50859102D01*
X101373376Y-50694672D01*
X101157502Y-50562384D01*
X101140275Y-50555248D01*
X100923589Y-50465494D01*
X100714445Y-50415284D01*
X100677403Y-50406391D01*
X100425000Y-50386526D01*
X100424999Y-50386526D01*
X100172597Y-50406391D01*
X99926410Y-50465494D01*
X99692499Y-50562383D01*
X99476625Y-50694671D01*
X99284102Y-50859102D01*
X99119671Y-51051625D01*
X98987383Y-51267499D01*
X98890494Y-51501410D01*
X98831391Y-51747597D01*
X98812711Y-51984941D01*
X98787425Y-52051283D01*
X98730287Y-52093422D01*
X98659437Y-52097981D01*
X98627130Y-52085869D01*
X98472371Y-52002118D01*
X98472369Y-52002116D01*
X98259516Y-51929044D01*
X98259509Y-51929042D01*
X98037523Y-51892000D01*
X97812477Y-51892000D01*
X97590490Y-51929042D01*
X97590483Y-51929044D01*
X97377630Y-52002116D01*
X97377628Y-52002118D01*
X97179700Y-52109230D01*
X97159310Y-52125099D01*
X97159310Y-52125100D01*
X97797412Y-52763202D01*
X97782685Y-52765320D01*
X97651900Y-52825048D01*
X97543239Y-52919202D01*
X97465507Y-53040156D01*
X97440638Y-53124849D01*
X96801921Y-52486132D01*
X96726580Y-52601451D01*
X96636179Y-52807543D01*
X96636176Y-52807550D01*
X96580932Y-53025707D01*
X96562346Y-53250000D01*
X95010499Y-53250000D01*
X95010499Y-50164000D01*
X95030502Y-50095879D01*
X95084158Y-50049386D01*
X95136500Y-50038000D01*
X102150051Y-50038000D01*
X102218172Y-50058002D01*
G37*
G04 #@! TD.AperFunction*
G04 #@! TA.AperFunction,Conductor*
G36*
X105066882Y-84024502D02*
G01*
X105087856Y-84041405D01*
X105241605Y-84195154D01*
X105247037Y-84201348D01*
X105269014Y-84229988D01*
X105298425Y-84252556D01*
X105298459Y-84252583D01*
X105396117Y-84327519D01*
X105396124Y-84327524D01*
X105544149Y-84388838D01*
X105563543Y-84391391D01*
X105663115Y-84404500D01*
X105663120Y-84404500D01*
X105703000Y-84409750D01*
X105738781Y-84405040D01*
X105747012Y-84404500D01*
X105991761Y-84404500D01*
X106059882Y-84424502D01*
X106080856Y-84441405D01*
X106794354Y-85154903D01*
X106828380Y-85217215D01*
X106823315Y-85288030D01*
X106780769Y-85344866D01*
X106674337Y-85424540D01*
X106586712Y-85541592D01*
X106586710Y-85541597D01*
X106535611Y-85678595D01*
X106535609Y-85678603D01*
X106529100Y-85739150D01*
X106529100Y-85803300D01*
X106509098Y-85871421D01*
X106455442Y-85917914D01*
X106403100Y-85929300D01*
X105826899Y-85929300D01*
X105758778Y-85909298D01*
X105712285Y-85855642D01*
X105700899Y-85803300D01*
X105700899Y-85799675D01*
X105700899Y-85795356D01*
X105690287Y-85691474D01*
X105634515Y-85523162D01*
X105541430Y-85372248D01*
X105541429Y-85372247D01*
X105541424Y-85372241D01*
X105416058Y-85246875D01*
X105416052Y-85246870D01*
X105346669Y-85204074D01*
X105265138Y-85153785D01*
X105151235Y-85116042D01*
X105096827Y-85098013D01*
X105096820Y-85098012D01*
X104992953Y-85087400D01*
X104501967Y-85087400D01*
X104433846Y-85067398D01*
X104387353Y-85013742D01*
X104377249Y-84943468D01*
X104406743Y-84878888D01*
X104427900Y-84859469D01*
X104529382Y-84785738D01*
X104658575Y-84642254D01*
X104755113Y-84475045D01*
X104771536Y-84424502D01*
X104814777Y-84291419D01*
X104816385Y-84276119D01*
X104833074Y-84117328D01*
X104860087Y-84051673D01*
X104918308Y-84011043D01*
X104958384Y-84004500D01*
X104998761Y-84004500D01*
X105066882Y-84024502D01*
G37*
G04 #@! TD.AperFunction*
G04 #@! TA.AperFunction,Conductor*
G36*
X145959532Y-75685650D02*
G01*
X146016368Y-75728197D01*
X146041179Y-75794717D01*
X146041500Y-75803706D01*
X146041500Y-75805329D01*
X146039814Y-75821826D01*
X146039881Y-75821832D01*
X146039241Y-75829143D01*
X146041473Y-75905874D01*
X146041500Y-75907706D01*
X146041500Y-78657612D01*
X146021498Y-78725733D01*
X145987772Y-78760824D01*
X145939569Y-78794576D01*
X145774575Y-78959571D01*
X145640744Y-79150702D01*
X145542134Y-79362171D01*
X145542132Y-79362175D01*
X145507125Y-79492824D01*
X145481742Y-79587556D01*
X145461406Y-79820000D01*
X145481742Y-80052444D01*
X145507796Y-80149679D01*
X145542132Y-80277824D01*
X145542134Y-80277828D01*
X145640744Y-80489297D01*
X145772383Y-80677298D01*
X145774578Y-80680432D01*
X145939568Y-80845422D01*
X145987769Y-80879173D01*
X146032098Y-80934628D01*
X146041500Y-80982386D01*
X146041500Y-81615500D01*
X146021498Y-81683621D01*
X145967842Y-81730114D01*
X145915500Y-81741500D01*
X144886446Y-81741500D01*
X144860965Y-81738896D01*
X144840039Y-81734575D01*
X144838251Y-81734179D01*
X144763654Y-81716499D01*
X144756367Y-81715648D01*
X144756374Y-81715580D01*
X144748877Y-81714814D01*
X144748872Y-81714881D01*
X144741558Y-81714241D01*
X144664825Y-81716473D01*
X144662993Y-81716500D01*
X140128707Y-81716500D01*
X140060586Y-81696498D01*
X140014093Y-81642842D01*
X140003989Y-81572568D01*
X140033483Y-81507988D01*
X140039612Y-81501405D01*
X142883405Y-78657612D01*
X145826408Y-75714609D01*
X145888717Y-75680585D01*
X145959532Y-75685650D01*
G37*
G04 #@! TD.AperFunction*
G04 #@! TA.AperFunction,Conductor*
G36*
X149545453Y-74327092D02*
G01*
X149602289Y-74369639D01*
X149627100Y-74436159D01*
X149627421Y-74444938D01*
X149639393Y-81615290D01*
X149619505Y-81683444D01*
X149565927Y-81730026D01*
X149513393Y-81741500D01*
X147684500Y-81741500D01*
X147616379Y-81721498D01*
X147569886Y-81667842D01*
X147558500Y-81615500D01*
X147558500Y-80982386D01*
X147578502Y-80914265D01*
X147612229Y-80879173D01*
X147660432Y-80845422D01*
X147825422Y-80680432D01*
X147959256Y-80489297D01*
X148057867Y-80277826D01*
X148118258Y-80052444D01*
X148138594Y-79820000D01*
X148118258Y-79587556D01*
X148057867Y-79362174D01*
X147959256Y-79150703D01*
X147825422Y-78959568D01*
X147660432Y-78794578D01*
X147660431Y-78794577D01*
X147660430Y-78794576D01*
X147612228Y-78760824D01*
X147567900Y-78705367D01*
X147558500Y-78657612D01*
X147558500Y-76262070D01*
X147578502Y-76193949D01*
X147595400Y-76172980D01*
X149412330Y-74356050D01*
X149474638Y-74322028D01*
X149545453Y-74327092D01*
G37*
G04 #@! TD.AperFunction*
G04 #@! TA.AperFunction,Conductor*
G36*
X102115664Y-61732626D02*
G01*
X102172500Y-61775173D01*
X102191237Y-61811049D01*
X102232885Y-61936738D01*
X102325970Y-62087652D01*
X102325975Y-62087658D01*
X102451341Y-62213024D01*
X102451347Y-62213029D01*
X102451348Y-62213030D01*
X102602262Y-62306115D01*
X102770574Y-62361887D01*
X102874455Y-62372500D01*
X104210405Y-62372499D01*
X104278526Y-62392501D01*
X104299500Y-62409404D01*
X104891995Y-63001899D01*
X104926021Y-63064211D01*
X104928900Y-63090994D01*
X104928900Y-63861500D01*
X104908898Y-63929621D01*
X104855242Y-63976114D01*
X104802900Y-63987500D01*
X104684350Y-63987500D01*
X104623804Y-63994009D01*
X104623801Y-63994010D01*
X104592030Y-64005860D01*
X104521214Y-64010923D01*
X104503970Y-64005860D01*
X104473523Y-63994504D01*
X104472201Y-63994011D01*
X104472200Y-63994010D01*
X104472198Y-63994010D01*
X104472195Y-63994009D01*
X104411649Y-63987500D01*
X104411638Y-63987500D01*
X103414362Y-63987500D01*
X103414350Y-63987500D01*
X103353804Y-63994009D01*
X103353801Y-63994010D01*
X103322030Y-64005860D01*
X103251214Y-64010923D01*
X103233970Y-64005860D01*
X103203523Y-63994504D01*
X103202201Y-63994011D01*
X103202200Y-63994010D01*
X103202198Y-63994010D01*
X103202195Y-63994009D01*
X103141649Y-63987500D01*
X103141638Y-63987500D01*
X102144362Y-63987500D01*
X102144350Y-63987500D01*
X102083804Y-63994009D01*
X102083801Y-63994010D01*
X102052030Y-64005860D01*
X101981214Y-64010923D01*
X101963970Y-64005860D01*
X101933523Y-63994504D01*
X101932201Y-63994011D01*
X101932200Y-63994010D01*
X101932198Y-63994010D01*
X101932195Y-63994009D01*
X101871649Y-63987500D01*
X101871638Y-63987500D01*
X101286860Y-63987500D01*
X101218739Y-63967498D01*
X101172246Y-63913842D01*
X101162142Y-63843568D01*
X101167255Y-63821868D01*
X101172911Y-63804800D01*
X101197887Y-63729426D01*
X101208500Y-63625545D01*
X101208499Y-62587817D01*
X101228501Y-62519697D01*
X101245402Y-62498724D01*
X101267746Y-62476381D01*
X101267747Y-62476378D01*
X101273202Y-62470924D01*
X101273210Y-62470914D01*
X101982539Y-61761585D01*
X102044849Y-61727561D01*
X102115664Y-61732626D01*
G37*
G04 #@! TD.AperFunction*
G04 #@! TA.AperFunction,Conductor*
G36*
X109294032Y-62071817D02*
G01*
X109339095Y-62100778D01*
X109451341Y-62213024D01*
X109451347Y-62213029D01*
X109451348Y-62213030D01*
X109602262Y-62306115D01*
X109770574Y-62361887D01*
X109874455Y-62372500D01*
X110011005Y-62372499D01*
X110079124Y-62392501D01*
X110125617Y-62446156D01*
X110135722Y-62516430D01*
X110106229Y-62581011D01*
X110100103Y-62587591D01*
X110087103Y-62600592D01*
X110024792Y-62634619D01*
X109998004Y-62637500D01*
X109937857Y-62637500D01*
X109922015Y-62635750D01*
X109921988Y-62636044D01*
X109914095Y-62635298D01*
X109845028Y-62637469D01*
X109843049Y-62637500D01*
X109814148Y-62637500D01*
X109814144Y-62637500D01*
X109814134Y-62637501D01*
X109807183Y-62638379D01*
X109801271Y-62638844D01*
X109754116Y-62640326D01*
X109754114Y-62640327D01*
X109734659Y-62645978D01*
X109715306Y-62649986D01*
X109695214Y-62652524D01*
X109695206Y-62652526D01*
X109651340Y-62669893D01*
X109645725Y-62671816D01*
X109600411Y-62684982D01*
X109600406Y-62684984D01*
X109582967Y-62695297D01*
X109565222Y-62703990D01*
X109546384Y-62711449D01*
X109524282Y-62727507D01*
X109508216Y-62739180D01*
X109503265Y-62742433D01*
X109462644Y-62766455D01*
X109448311Y-62780787D01*
X109433285Y-62793620D01*
X109416899Y-62805526D01*
X109416898Y-62805526D01*
X109386826Y-62841875D01*
X109382831Y-62846266D01*
X108728504Y-63500595D01*
X108666191Y-63534620D01*
X108639408Y-63537500D01*
X108301854Y-63537500D01*
X108286012Y-63535750D01*
X108285985Y-63536044D01*
X108278092Y-63535297D01*
X108209013Y-63537469D01*
X108207034Y-63537500D01*
X108178144Y-63537500D01*
X108178140Y-63537500D01*
X108178129Y-63537501D01*
X108171190Y-63538377D01*
X108165277Y-63538843D01*
X108118114Y-63540325D01*
X108118107Y-63540327D01*
X108098649Y-63545979D01*
X108079304Y-63549985D01*
X108059206Y-63552525D01*
X108059197Y-63552527D01*
X108015331Y-63569894D01*
X108009716Y-63571817D01*
X107964408Y-63584981D01*
X107946964Y-63595297D01*
X107929218Y-63603990D01*
X107910382Y-63611448D01*
X107872209Y-63639181D01*
X107867248Y-63642440D01*
X107826638Y-63666458D01*
X107812311Y-63680784D01*
X107797285Y-63693617D01*
X107780895Y-63705525D01*
X107780893Y-63705527D01*
X107750808Y-63741892D01*
X107746812Y-63746282D01*
X107688295Y-63804800D01*
X107542498Y-63950596D01*
X107480189Y-63984620D01*
X107453405Y-63987500D01*
X107224350Y-63987500D01*
X107163804Y-63994009D01*
X107163801Y-63994010D01*
X107132030Y-64005860D01*
X107061214Y-64010923D01*
X107043970Y-64005860D01*
X107013523Y-63994504D01*
X107012201Y-63994011D01*
X107012200Y-63994010D01*
X107012198Y-63994010D01*
X107012195Y-63994009D01*
X106951649Y-63987500D01*
X106951638Y-63987500D01*
X106906100Y-63987500D01*
X106837979Y-63967498D01*
X106791486Y-63913842D01*
X106780100Y-63861500D01*
X106780100Y-62881994D01*
X106800102Y-62813873D01*
X106817005Y-62792899D01*
X107200500Y-62409404D01*
X107262812Y-62375378D01*
X107289595Y-62372499D01*
X108625544Y-62372499D01*
X108729426Y-62361887D01*
X108897738Y-62306115D01*
X109048652Y-62213030D01*
X109048657Y-62213024D01*
X109160905Y-62100778D01*
X109223217Y-62066752D01*
X109294032Y-62071817D01*
G37*
G04 #@! TD.AperFunction*
G04 #@! TA.AperFunction,Conductor*
G36*
X105794032Y-54949316D02*
G01*
X105839095Y-54978277D01*
X105951342Y-55090524D01*
X105951348Y-55090529D01*
X105951349Y-55090530D01*
X106102262Y-55183615D01*
X106270575Y-55239387D01*
X106298906Y-55242281D01*
X106374448Y-55250000D01*
X106374456Y-55250000D01*
X106740500Y-55250000D01*
X106808621Y-55270002D01*
X106855114Y-55323658D01*
X106866500Y-55376000D01*
X106866500Y-56829500D01*
X106846498Y-56897621D01*
X106792842Y-56944114D01*
X106740500Y-56955500D01*
X106374455Y-56955500D01*
X106270574Y-56966112D01*
X106102261Y-57021885D01*
X105951347Y-57114970D01*
X105951341Y-57114975D01*
X105839095Y-57227222D01*
X105776783Y-57261248D01*
X105705968Y-57256183D01*
X105660905Y-57227222D01*
X105548658Y-57114975D01*
X105548652Y-57114970D01*
X105399683Y-57023085D01*
X105397738Y-57021885D01*
X105313581Y-56993998D01*
X105229427Y-56966113D01*
X105229420Y-56966112D01*
X105125553Y-56955500D01*
X105125545Y-56955500D01*
X104759500Y-56955500D01*
X104691379Y-56935498D01*
X104644886Y-56881842D01*
X104633500Y-56829500D01*
X104633500Y-55376000D01*
X104653502Y-55307879D01*
X104707158Y-55261386D01*
X104759500Y-55250000D01*
X105125552Y-55250000D01*
X105194798Y-55242924D01*
X105229425Y-55239387D01*
X105397738Y-55183615D01*
X105548651Y-55090530D01*
X105566223Y-55072958D01*
X105660905Y-54978277D01*
X105723217Y-54944251D01*
X105794032Y-54949316D01*
G37*
G04 #@! TD.AperFunction*
G04 #@! TA.AperFunction,Conductor*
G36*
X109294032Y-54949316D02*
G01*
X109339095Y-54978277D01*
X109451342Y-55090524D01*
X109451348Y-55090529D01*
X109451349Y-55090530D01*
X109602262Y-55183615D01*
X109770575Y-55239387D01*
X109798906Y-55242281D01*
X109874448Y-55250000D01*
X109874456Y-55250000D01*
X110240500Y-55250000D01*
X110308621Y-55270002D01*
X110355114Y-55323658D01*
X110366500Y-55376000D01*
X110366500Y-56829500D01*
X110346498Y-56897621D01*
X110292842Y-56944114D01*
X110240500Y-56955500D01*
X109874455Y-56955500D01*
X109770574Y-56966112D01*
X109602261Y-57021885D01*
X109451347Y-57114970D01*
X109451341Y-57114975D01*
X109339095Y-57227222D01*
X109276783Y-57261248D01*
X109205968Y-57256183D01*
X109160905Y-57227222D01*
X109048658Y-57114975D01*
X109048652Y-57114970D01*
X108899683Y-57023085D01*
X108897738Y-57021885D01*
X108813581Y-56993998D01*
X108729427Y-56966113D01*
X108729420Y-56966112D01*
X108625553Y-56955500D01*
X108625545Y-56955500D01*
X108259500Y-56955500D01*
X108191379Y-56935498D01*
X108144886Y-56881842D01*
X108133500Y-56829500D01*
X108133500Y-55376000D01*
X108153502Y-55307879D01*
X108207158Y-55261386D01*
X108259500Y-55250000D01*
X108625552Y-55250000D01*
X108694798Y-55242924D01*
X108729425Y-55239387D01*
X108897738Y-55183615D01*
X109048651Y-55090530D01*
X109066223Y-55072958D01*
X109160905Y-54978277D01*
X109223217Y-54944251D01*
X109294032Y-54949316D01*
G37*
G04 #@! TD.AperFunction*
G04 #@! TA.AperFunction,Conductor*
G36*
X112794032Y-54949316D02*
G01*
X112839095Y-54978277D01*
X112951342Y-55090524D01*
X112951348Y-55090529D01*
X112951349Y-55090530D01*
X113102262Y-55183615D01*
X113270575Y-55239387D01*
X113298906Y-55242281D01*
X113374448Y-55250000D01*
X113374456Y-55250000D01*
X113740500Y-55250000D01*
X113808621Y-55270002D01*
X113855114Y-55323658D01*
X113866500Y-55376000D01*
X113866500Y-56829500D01*
X113846498Y-56897621D01*
X113792842Y-56944114D01*
X113740500Y-56955500D01*
X113374455Y-56955500D01*
X113270574Y-56966112D01*
X113102261Y-57021885D01*
X112951347Y-57114970D01*
X112951341Y-57114975D01*
X112839095Y-57227222D01*
X112776783Y-57261248D01*
X112705968Y-57256183D01*
X112660905Y-57227222D01*
X112548658Y-57114975D01*
X112548652Y-57114970D01*
X112399683Y-57023085D01*
X112397738Y-57021885D01*
X112313581Y-56993998D01*
X112229427Y-56966113D01*
X112229420Y-56966112D01*
X112125553Y-56955500D01*
X112125545Y-56955500D01*
X111759500Y-56955500D01*
X111691379Y-56935498D01*
X111644886Y-56881842D01*
X111633500Y-56829500D01*
X111633500Y-55376000D01*
X111653502Y-55307879D01*
X111707158Y-55261386D01*
X111759500Y-55250000D01*
X112125552Y-55250000D01*
X112194797Y-55242924D01*
X112229425Y-55239387D01*
X112397738Y-55183615D01*
X112548651Y-55090530D01*
X112566223Y-55072958D01*
X112660905Y-54978277D01*
X112723217Y-54944251D01*
X112794032Y-54949316D01*
G37*
G04 #@! TD.AperFunction*
D53*
X95000000Y-50000000D02*
X185000000Y-50000000D01*
X95000000Y-100000000D02*
X95000000Y-50000000D01*
X185000000Y-100000000D02*
X95000000Y-100000000D01*
X185000000Y-50000000D02*
X185000000Y-100000000D01*
M02*
