M48
; DRILL file {KiCad 7.0.5-0} date 2023 June 24, Saturday 20:16:30
; FORMAT={-:-/ absolute / metric / decimal}
; #@! TF.CreationDate,2023-06-24T20:16:30+02:00
; #@! TF.GenerationSoftware,Kicad,Pcbnew,7.0.5-0
; #@! TF.FileFunction,MixedPlating,1,2
FMAT,2
METRIC
; #@! TA.AperFunction,Plated,PTH,ViaDrill
T1C0.300
; #@! TA.AperFunction,Plated,PTH,ComponentDrill
T2C0.800
; #@! TA.AperFunction,Plated,PTH,ComponentDrill
T3C1.000
; #@! TA.AperFunction,Plated,PTH,ComponentDrill
T4C1.100
; #@! TA.AperFunction,Plated,PTH,ComponentDrill
T5C1.300
%
G90
G05
T1
X96.012Y-95.25
X96.867Y-79.815
X96.919Y-67.557
X97.586Y-81.235
X97.778Y-66.605
X98.425Y-63.805
X98.501Y-84.033
X99.029Y-67.432
X100.838Y-71.882
X100.838Y-77.47
X102.5Y-66.5
X102.616Y-84.074
X102.718Y-63.627
X103.911Y-84.099
X105.229Y-92.385
X105.715Y-56.083
X105.766Y-84.76
X106.426Y-71.882
X106.426Y-77.47
X107.95Y-63.398
X109.271Y-56.083
X110.211Y-81.351
X111.746Y-80.936
X112.196Y-80.022
X112.42Y-93.066
X112.776Y-56.083
X112.826Y-69.546
X113.132Y-87.833
X115.837Y-85.991
X116.638Y-86.845
X117.4Y-87.607
X132.512Y-87.156
X134.543Y-86.132
X137.846Y-87.157
X142.372Y-87.0
X142.5Y-75.5
X145.466Y-85.293
X146.5Y-77.5
X146.533Y-69.037
X148.5Y-81.5
X148.514Y-78.232
X149.0Y-84.5
T2
X146.475Y-55.38
X146.475Y-63.0
X149.015Y-55.38
X149.015Y-63.0
X151.555Y-55.38
X151.555Y-63.0
X154.975Y-55.38
X154.975Y-63.0
X157.515Y-55.38
X157.515Y-63.0
X160.055Y-55.38
X160.055Y-63.0
T3
X97.925Y-53.25
X97.925Y-57.75
X97.925Y-92.25
X97.925Y-96.75
X111.491Y-97.993
X114.031Y-97.993
X116.571Y-97.993
X119.111Y-97.993
X124.892Y-94.996
X124.892Y-97.536
X127.432Y-94.996
X127.432Y-97.536
X129.972Y-94.996
X129.972Y-97.536
X132.512Y-94.996
X132.512Y-97.536
X135.052Y-94.996
X135.052Y-97.536
X137.592Y-94.996
X137.592Y-97.536
X140.132Y-94.996
X140.132Y-97.536
X142.672Y-94.996
X142.672Y-97.536
T4
X129.84Y-74.16
X134.92Y-53.84
X140.0Y-53.84
X140.0Y-74.16
X164.19Y-52.5
X164.19Y-56.5
X171.81Y-52.5
X171.81Y-56.5
T5
X100.425Y-52.0
X100.425Y-59.0
X100.425Y-91.0
X100.425Y-98.0
X153.373Y-73.5
X153.373Y-91.0
X155.373Y-67.5
X155.373Y-79.5
X155.373Y-85.0
X155.373Y-97.0
X167.572Y-67.5
X167.572Y-79.5
X167.572Y-85.0
X167.572Y-97.0
X179.805Y-53.425
X179.805Y-58.505
X179.805Y-63.585
X179.805Y-69.925
X179.805Y-75.005
X179.805Y-80.085
X179.805Y-86.425
X179.805Y-91.505
X179.805Y-96.585
T0
M30
