G04 #@! TF.GenerationSoftware,KiCad,Pcbnew,7.0.5-0*
G04 #@! TF.CreationDate,2023-06-24T20:16:37+02:00*
G04 #@! TF.ProjectId,CaptorBoard,43617074-6f72-4426-9f61-72642e6b6963,rev?*
G04 #@! TF.SameCoordinates,Original*
G04 #@! TF.FileFunction,Soldermask,Bot*
G04 #@! TF.FilePolarity,Negative*
%FSLAX46Y46*%
G04 Gerber Fmt 4.6, Leading zero omitted, Abs format (unit mm)*
G04 Created by KiCad (PCBNEW 7.0.5-0) date 2023-06-24 20:16:37*
%MOMM*%
%LPD*%
G01*
G04 APERTURE LIST*
%ADD10R,2.200000X2.200000*%
%ADD11O,2.200000X2.200000*%
%ADD12R,2.600000X2.600000*%
%ADD13C,2.600000*%
%ADD14C,2.200000*%
%ADD15C,1.700000*%
%ADD16R,1.600000X1.600000*%
%ADD17O,1.600000X1.600000*%
%ADD18R,1.700000X1.700000*%
%ADD19O,1.700000X1.700000*%
%ADD20R,2.500000X2.500000*%
%ADD21O,2.500000X2.500000*%
%ADD22C,1.650000*%
G04 #@! TA.AperFunction,Profile*
%ADD23C,0.100000*%
G04 #@! TD*
G04 APERTURE END LIST*
D10*
X164190000Y-56500000D03*
D11*
X171810000Y-56500000D03*
D10*
X171810000Y-52500000D03*
D11*
X164190000Y-52500000D03*
D12*
X179805000Y-63585000D03*
D13*
X179805000Y-58505000D03*
X179805000Y-53425000D03*
D14*
X100425000Y-98000000D03*
X100425000Y-91000000D03*
D15*
X97925000Y-96750000D03*
X97925000Y-92250000D03*
D14*
X100425000Y-59000000D03*
X100425000Y-52000000D03*
D15*
X97925000Y-57750000D03*
X97925000Y-53250000D03*
D16*
X154975000Y-63000000D03*
D17*
X157515000Y-63000000D03*
X160055000Y-63000000D03*
X160055000Y-55380000D03*
X157515000Y-55380000D03*
X154975000Y-55380000D03*
D16*
X146475000Y-63000000D03*
D17*
X149015000Y-63000000D03*
X151555000Y-63000000D03*
X151555000Y-55380000D03*
X149015000Y-55380000D03*
X146475000Y-55380000D03*
D18*
X111490600Y-97993200D03*
D19*
X114030600Y-97993200D03*
X116570600Y-97993200D03*
X119110600Y-97993200D03*
D18*
X124891800Y-97536000D03*
D19*
X124891800Y-94996000D03*
X127431800Y-97536000D03*
X127431800Y-94996000D03*
X129971800Y-97536000D03*
X129971800Y-94996000D03*
X132511800Y-97536000D03*
X132511800Y-94996000D03*
X135051800Y-97536000D03*
X135051800Y-94996000D03*
X137591800Y-97536000D03*
X137591800Y-94996000D03*
X140131800Y-97536000D03*
X140131800Y-94996000D03*
X142671800Y-97536000D03*
X142671800Y-94996000D03*
D20*
X153372500Y-73500000D03*
D21*
X155372500Y-79500000D03*
X167572500Y-79500000D03*
X167572500Y-67500000D03*
X155372500Y-67500000D03*
D12*
X179805000Y-96585000D03*
D13*
X179805000Y-91505000D03*
X179805000Y-86425000D03*
D22*
X140000000Y-53840000D03*
X134920000Y-53840000D03*
X129840000Y-74160000D03*
X140000000Y-74160000D03*
D12*
X179805000Y-80085000D03*
D13*
X179805000Y-75005000D03*
X179805000Y-69925000D03*
D20*
X153372500Y-91000000D03*
D21*
X155372500Y-97000000D03*
X167572500Y-97000000D03*
X167572500Y-85000000D03*
X155372500Y-85000000D03*
D23*
X95000000Y-50000000D02*
X185000000Y-50000000D01*
X165080300Y-77063600D02*
X182239300Y-77063600D01*
X182239300Y-77663600D01*
X165080300Y-77663600D01*
X165080300Y-77063600D01*
X95000000Y-100000000D02*
X95000000Y-50000000D01*
X185000000Y-100000000D02*
X95000000Y-100000000D01*
X165080300Y-82219800D02*
X182239300Y-82219800D01*
X182239300Y-82819800D01*
X165080300Y-82819800D01*
X165080300Y-82219800D01*
X185000000Y-50000000D02*
X185000000Y-100000000D01*
X165042200Y-72212200D02*
X182201200Y-72212200D01*
X182201200Y-72812200D01*
X165042200Y-72812200D01*
X165042200Y-72212200D01*
X165029500Y-88630200D02*
X182188500Y-88630200D01*
X182188500Y-89230200D01*
X165029500Y-89230200D01*
X165029500Y-88630200D01*
X165054900Y-93735600D02*
X182213900Y-93735600D01*
X182213900Y-94335600D01*
X165054900Y-94335600D01*
X165054900Y-93735600D01*
X165054900Y-64947800D02*
X182213900Y-64947800D01*
X182213900Y-65547800D01*
X165054900Y-65547800D01*
X165054900Y-64947800D01*
M02*
