M48
; DRILL file {KiCad (5.99.0-7069-gedfe80db3)} date Thursday, November 19, 2020 at 11:37:28 AM
; FORMAT={-:-/ absolute / metric / decimal}
; #@! TF.CreationDate,2020-11-19T11:37:28+01:00
; #@! TF.GenerationSoftware,Kicad,Pcbnew,(5.99.0-7069-gedfe80db3)
FMAT,2
METRIC
T1C0.300
T2C0.760
T3C0.800
T4C0.900
T5C1.000
T6C1.016
T7C1.100
T8C1.300
%
G90
G05
T1
X83.5Y-64.5
X87.0Y-70.0
X90.5Y-80.335
T2
X109.0Y-66.4
X109.0Y-74.0
T3
X137.0Y-58.8
X137.0Y-74.0
X109.5Y-91.5
X109.5Y-94.04
X109.5Y-96.58
X117.12Y-91.5
X117.12Y-94.04
X117.12Y-96.58
X109.5Y-81.5
X109.5Y-84.04
X109.5Y-86.58
X117.12Y-81.5
X117.12Y-84.04
X117.12Y-86.58
T4
X78.46Y-95.5
X81.0Y-95.5
X77.0Y-86.46
X77.0Y-89.0
X77.5Y-63.5
X77.5Y-66.04
X77.0Y-79.0
X77.0Y-81.54
X77.0Y-71.0
X77.0Y-73.54
T5
X98.5Y-58.0
X103.0Y-58.0
X85.0Y-93.5
X87.54Y-93.5
X90.08Y-93.5
X92.62Y-93.5
X95.16Y-93.5
X97.7Y-93.5
X80.5Y-57.5
X85.0Y-57.5
T6
X90.0Y-97.0
X92.54Y-97.0
X95.08Y-97.0
X97.62Y-97.0
X81.07Y-64.61
X81.07Y-67.15
X81.07Y-69.69
X81.07Y-72.23
X81.07Y-74.77
X81.07Y-77.31
X81.07Y-79.85
X81.07Y-82.39
X103.93Y-64.61
X103.93Y-67.15
X103.93Y-69.69
X103.93Y-72.23
X103.93Y-74.77
X103.93Y-77.31
X103.93Y-79.85
X103.93Y-82.39
T7
X123.5Y-79.0
X123.5Y-86.62
X123.5Y-90.5
X123.5Y-98.12
T8
X97.25Y-60.5
X104.25Y-60.5
X135.5Y-82.5
X135.5Y-87.5
X135.5Y-92.5
X135.5Y-97.5
X79.25Y-60.0
X86.25Y-60.0
T0
M30
